<?xml version="1.0" standalone="no"?>
 <!DOCTYPE svg PUBLIC "-//W3C//DTD SVG 1.1//EN" 
 "http://www.w3.org/Graphics/SVG/1.1/DTD/svg11.dtd"> 
<svg xmlns="http://www.w3.org/2000/svg" version="1.1" 
    width="29.7002cm" height="21.0007cm" viewBox="0 0 116930 82680 ">
<title>SVG Picture created as bats-F.SilkS.svg date 2016/06/21 19:43:17 </title>
  <desc>Picture generated by PCBNEW </desc>
<g style="fill:#000000; fill-opacity:1;stroke:#000000; stroke-opacity:1;
stroke-linecap:round; stroke-linejoin:round; "
 transform="translate(0 0) scale(1 1)">
</g>
<g style="fill:#000000; fill-opacity:0.0; 
stroke:#000000; stroke-width:-0.000393701; stroke-opacity:1; 
stroke-linecap:round; stroke-linejoin:round;">
</g>
<g style="fill:#000000; fill-opacity:0.0; 
stroke:#000000; stroke-width:39.3701; stroke-opacity:1; 
stroke-linecap:round; stroke-linejoin:round;">
</g>
<g style="fill:#000000; fill-opacity:0.0; 
stroke:#000000; stroke-width:59.0551; stroke-opacity:1; 
stroke-linecap:round; stroke-linejoin:round;">
<rect x="69685.9" y="65357.2" width="42519.7" height="12598.4" rx="0" />
</g>
<g style="fill:#000000; fill-opacity:0.0; 
stroke:#000000; stroke-width:39.3701; stroke-opacity:1; 
stroke-linecap:round; stroke-linejoin:round;">
</g>
<g style="fill:#000000; fill-opacity:0.0; 
stroke:#000000; stroke-width:59.0551; stroke-opacity:1; 
stroke-linecap:round; stroke-linejoin:round;">
<rect x="3937.01" y="3937.01" width="109056" height="74806" rx="0" />
</g>
<g style="fill:#000000; fill-opacity:0.0; 
stroke:#000000; stroke-width:39.3701; stroke-opacity:1; 
stroke-linecap:round; stroke-linejoin:round;">
</g>
<g style="fill:#000000; fill-opacity:0.0; 
stroke:#000000; stroke-width:59.0551; stroke-opacity:1; 
stroke-linecap:round; stroke-linejoin:round;">
<rect x="4724.41" y="4724.41" width="107481" height="73231.2" rx="0" />
</g>
<g style="fill:#000000; fill-opacity:0.0; 
stroke:#000000; stroke-width:39.3701; stroke-opacity:1; 
stroke-linecap:round; stroke-linejoin:round;">
</g>
<g style="fill:#000000; fill-opacity:0.0; 
stroke:#000000; stroke-width:59.0551; stroke-opacity:1; 
stroke-linecap:round; stroke-linejoin:round;">
<path d="M23622 4724
L23622 3937
" />
</g>
<g style="fill:#000000; fill-opacity:0.0; 
stroke:#000000; stroke-width:39.3701; stroke-opacity:1; 
stroke-linecap:round; stroke-linejoin:round;">
</g>
<g style="fill:#000000; fill-opacity:0.0; 
stroke:#000000; stroke-width:59.0551; stroke-opacity:1; 
stroke-linecap:round; stroke-linejoin:round;">
<path d="M43307 4724
L43307 3937
" />
</g>
<g style="fill:#000000; fill-opacity:0.0; 
stroke:#000000; stroke-width:39.3701; stroke-opacity:1; 
stroke-linecap:round; stroke-linejoin:round;">
</g>
<g style="fill:#000000; fill-opacity:0.0; 
stroke:#000000; stroke-width:59.0551; stroke-opacity:1; 
stroke-linecap:round; stroke-linejoin:round;">
<path d="M62992 4724
L62992 3937
" />
</g>
<g style="fill:#000000; fill-opacity:0.0; 
stroke:#000000; stroke-width:39.3701; stroke-opacity:1; 
stroke-linecap:round; stroke-linejoin:round;">
</g>
<g style="fill:#000000; fill-opacity:0.0; 
stroke:#000000; stroke-width:59.0551; stroke-opacity:1; 
stroke-linecap:round; stroke-linejoin:round;">
<path d="M82677 4724
L82677 3937
" />
</g>
<g style="fill:#000000; fill-opacity:0.0; 
stroke:#000000; stroke-width:39.3701; stroke-opacity:1; 
stroke-linecap:round; stroke-linejoin:round;">
</g>
<g style="fill:#000000; fill-opacity:0.0; 
stroke:#000000; stroke-width:59.0551; stroke-opacity:1; 
stroke-linecap:round; stroke-linejoin:round;">
<path d="M102362 4724
L102362 3937
" />
</g>
<g style="fill:#000000; fill-opacity:0.0; 
stroke:#000000; stroke-width:39.3701; stroke-opacity:1; 
stroke-linecap:round; stroke-linejoin:round;">
</g>
<g style="fill:#000000; fill-opacity:0.0; 
stroke:#000000; stroke-width:59.0551; stroke-opacity:1; 
stroke-linecap:round; stroke-linejoin:round;">
<path d="M14199 4562
L13906 4562
" />
<path d="M14052 4562
L14052 4050
L14004 4123
L13955 4172
L13906 4196
" />
</g>
<g style="fill:#000000; fill-opacity:0.0; 
stroke:#000000; stroke-width:39.3701; stroke-opacity:1; 
stroke-linecap:round; stroke-linejoin:round;">
</g>
<g style="fill:#000000; fill-opacity:0.0; 
stroke:#000000; stroke-width:59.0551; stroke-opacity:1; 
stroke-linecap:round; stroke-linejoin:round;">
<path d="M33591 4099
L33615 4074
L33664 4050
L33786 4050
L33835 4074
L33859 4099
L33884 4147
L33884 4196
L33859 4269
L33567 4562
L33884 4562
" />
</g>
<g style="fill:#000000; fill-opacity:0.0; 
stroke:#000000; stroke-width:39.3701; stroke-opacity:1; 
stroke-linecap:round; stroke-linejoin:round;">
</g>
<g style="fill:#000000; fill-opacity:0.0; 
stroke:#000000; stroke-width:59.0551; stroke-opacity:1; 
stroke-linecap:round; stroke-linejoin:round;">
<path d="M53252 4050
L53569 4050
L53398 4245
L53471 4245
L53520 4269
L53544 4294
L53569 4342
L53569 4464
L53544 4513
L53520 4537
L53471 4562
L53325 4562
L53276 4537
L53252 4513
" />
</g>
<g style="fill:#000000; fill-opacity:0.0; 
stroke:#000000; stroke-width:39.3701; stroke-opacity:1; 
stroke-linecap:round; stroke-linejoin:round;">
</g>
<g style="fill:#000000; fill-opacity:0.0; 
stroke:#000000; stroke-width:59.0551; stroke-opacity:1; 
stroke-linecap:round; stroke-linejoin:round;">
<path d="M73205 4221
L73205 4562
" />
<path d="M73083 4026
L72961 4391
L73278 4391
" />
</g>
<g style="fill:#000000; fill-opacity:0.0; 
stroke:#000000; stroke-width:39.3701; stroke-opacity:1; 
stroke-linecap:round; stroke-linejoin:round;">
</g>
<g style="fill:#000000; fill-opacity:0.0; 
stroke:#000000; stroke-width:59.0551; stroke-opacity:1; 
stroke-linecap:round; stroke-linejoin:round;">
<path d="M92914 4050
L92671 4050
L92646 4294
L92671 4269
L92719 4245
L92841 4245
L92890 4269
L92914 4294
L92939 4342
L92939 4464
L92914 4513
L92890 4537
L92841 4562
L92719 4562
L92671 4537
L92646 4513
" />
</g>
<g style="fill:#000000; fill-opacity:0.0; 
stroke:#000000; stroke-width:39.3701; stroke-opacity:1; 
stroke-linecap:round; stroke-linejoin:round;">
</g>
<g style="fill:#000000; fill-opacity:0.0; 
stroke:#000000; stroke-width:59.0551; stroke-opacity:1; 
stroke-linecap:round; stroke-linejoin:round;">
<path d="M112575 4050
L112477 4050
L112429 4074
L112404 4099
L112356 4172
L112331 4269
L112331 4464
L112356 4513
L112380 4537
L112429 4562
L112526 4562
L112575 4537
L112599 4513
L112624 4464
L112624 4342
L112599 4294
L112575 4269
L112526 4245
L112429 4245
L112380 4269
L112356 4294
L112331 4342
" />
</g>
<g style="fill:#000000; fill-opacity:0.0; 
stroke:#000000; stroke-width:39.3701; stroke-opacity:1; 
stroke-linecap:round; stroke-linejoin:round;">
</g>
<g style="fill:#000000; fill-opacity:0.0; 
stroke:#000000; stroke-width:59.0551; stroke-opacity:1; 
stroke-linecap:round; stroke-linejoin:round;">
<path d="M23622 77955
L23622 78742
" />
</g>
<g style="fill:#000000; fill-opacity:0.0; 
stroke:#000000; stroke-width:39.3701; stroke-opacity:1; 
stroke-linecap:round; stroke-linejoin:round;">
</g>
<g style="fill:#000000; fill-opacity:0.0; 
stroke:#000000; stroke-width:59.0551; stroke-opacity:1; 
stroke-linecap:round; stroke-linejoin:round;">
<path d="M43307 77955
L43307 78742
" />
</g>
<g style="fill:#000000; fill-opacity:0.0; 
stroke:#000000; stroke-width:39.3701; stroke-opacity:1; 
stroke-linecap:round; stroke-linejoin:round;">
</g>
<g style="fill:#000000; fill-opacity:0.0; 
stroke:#000000; stroke-width:59.0551; stroke-opacity:1; 
stroke-linecap:round; stroke-linejoin:round;">
<path d="M62992 77955
L62992 78742
" />
</g>
<g style="fill:#000000; fill-opacity:0.0; 
stroke:#000000; stroke-width:39.3701; stroke-opacity:1; 
stroke-linecap:round; stroke-linejoin:round;">
</g>
<g style="fill:#000000; fill-opacity:0.0; 
stroke:#000000; stroke-width:59.0551; stroke-opacity:1; 
stroke-linecap:round; stroke-linejoin:round;">
<path d="M82677 77955
L82677 78742
" />
</g>
<g style="fill:#000000; fill-opacity:0.0; 
stroke:#000000; stroke-width:39.3701; stroke-opacity:1; 
stroke-linecap:round; stroke-linejoin:round;">
</g>
<g style="fill:#000000; fill-opacity:0.0; 
stroke:#000000; stroke-width:59.0551; stroke-opacity:1; 
stroke-linecap:round; stroke-linejoin:round;">
<path d="M102362 77955
L102362 78742
" />
</g>
<g style="fill:#000000; fill-opacity:0.0; 
stroke:#000000; stroke-width:39.3701; stroke-opacity:1; 
stroke-linecap:round; stroke-linejoin:round;">
</g>
<g style="fill:#000000; fill-opacity:0.0; 
stroke:#000000; stroke-width:59.0551; stroke-opacity:1; 
stroke-linecap:round; stroke-linejoin:round;">
<path d="M14199 78580
L13906 78580
" />
<path d="M14052 78580
L14052 78069
L14004 78142
L13955 78190
L13906 78215
" />
</g>
<g style="fill:#000000; fill-opacity:0.0; 
stroke:#000000; stroke-width:39.3701; stroke-opacity:1; 
stroke-linecap:round; stroke-linejoin:round;">
</g>
<g style="fill:#000000; fill-opacity:0.0; 
stroke:#000000; stroke-width:59.0551; stroke-opacity:1; 
stroke-linecap:round; stroke-linejoin:round;">
<path d="M33591 78117
L33615 78093
L33664 78069
L33786 78069
L33835 78093
L33859 78117
L33884 78166
L33884 78215
L33859 78288
L33567 78580
L33884 78580
" />
</g>
<g style="fill:#000000; fill-opacity:0.0; 
stroke:#000000; stroke-width:39.3701; stroke-opacity:1; 
stroke-linecap:round; stroke-linejoin:round;">
</g>
<g style="fill:#000000; fill-opacity:0.0; 
stroke:#000000; stroke-width:59.0551; stroke-opacity:1; 
stroke-linecap:round; stroke-linejoin:round;">
<path d="M53252 78069
L53569 78069
L53398 78263
L53471 78263
L53520 78288
L53544 78312
L53569 78361
L53569 78483
L53544 78532
L53520 78556
L53471 78580
L53325 78580
L53276 78556
L53252 78532
" />
</g>
<g style="fill:#000000; fill-opacity:0.0; 
stroke:#000000; stroke-width:39.3701; stroke-opacity:1; 
stroke-linecap:round; stroke-linejoin:round;">
</g>
<g style="fill:#000000; fill-opacity:0.0; 
stroke:#000000; stroke-width:59.0551; stroke-opacity:1; 
stroke-linecap:round; stroke-linejoin:round;">
<path d="M73205 78239
L73205 78580
" />
<path d="M73083 78044
L72961 78410
L73278 78410
" />
</g>
<g style="fill:#000000; fill-opacity:0.0; 
stroke:#000000; stroke-width:39.3701; stroke-opacity:1; 
stroke-linecap:round; stroke-linejoin:round;">
</g>
<g style="fill:#000000; fill-opacity:0.0; 
stroke:#000000; stroke-width:59.0551; stroke-opacity:1; 
stroke-linecap:round; stroke-linejoin:round;">
<path d="M92914 78069
L92671 78069
L92646 78312
L92671 78288
L92719 78263
L92841 78263
L92890 78288
L92914 78312
L92939 78361
L92939 78483
L92914 78532
L92890 78556
L92841 78580
L92719 78580
L92671 78556
L92646 78532
" />
</g>
<g style="fill:#000000; fill-opacity:0.0; 
stroke:#000000; stroke-width:39.3701; stroke-opacity:1; 
stroke-linecap:round; stroke-linejoin:round;">
</g>
<g style="fill:#000000; fill-opacity:0.0; 
stroke:#000000; stroke-width:59.0551; stroke-opacity:1; 
stroke-linecap:round; stroke-linejoin:round;">
<path d="M112575 78069
L112477 78069
L112429 78093
L112404 78117
L112356 78190
L112331 78288
L112331 78483
L112356 78532
L112380 78556
L112429 78580
L112526 78580
L112575 78556
L112599 78532
L112624 78483
L112624 78361
L112599 78312
L112575 78288
L112526 78263
L112429 78263
L112380 78288
L112356 78312
L112331 78361
" />
</g>
<g style="fill:#000000; fill-opacity:0.0; 
stroke:#000000; stroke-width:39.3701; stroke-opacity:1; 
stroke-linecap:round; stroke-linejoin:round;">
</g>
<g style="fill:#000000; fill-opacity:0.0; 
stroke:#000000; stroke-width:59.0551; stroke-opacity:1; 
stroke-linecap:round; stroke-linejoin:round;">
<path d="M3937 23622
L4724 23622
" />
</g>
<g style="fill:#000000; fill-opacity:0.0; 
stroke:#000000; stroke-width:39.3701; stroke-opacity:1; 
stroke-linecap:round; stroke-linejoin:round;">
</g>
<g style="fill:#000000; fill-opacity:0.0; 
stroke:#000000; stroke-width:59.0551; stroke-opacity:1; 
stroke-linecap:round; stroke-linejoin:round;">
<path d="M3937 43307
L4724 43307
" />
</g>
<g style="fill:#000000; fill-opacity:0.0; 
stroke:#000000; stroke-width:39.3701; stroke-opacity:1; 
stroke-linecap:round; stroke-linejoin:round;">
</g>
<g style="fill:#000000; fill-opacity:0.0; 
stroke:#000000; stroke-width:59.0551; stroke-opacity:1; 
stroke-linecap:round; stroke-linejoin:round;">
<path d="M3937 62992
L4724 62992
" />
</g>
<g style="fill:#000000; fill-opacity:0.0; 
stroke:#000000; stroke-width:39.3701; stroke-opacity:1; 
stroke-linecap:round; stroke-linejoin:round;">
</g>
<g style="fill:#000000; fill-opacity:0.0; 
stroke:#000000; stroke-width:59.0551; stroke-opacity:1; 
stroke-linecap:round; stroke-linejoin:round;">
<path d="M4208 13864
L4452 13864
" />
<path d="M4160 14011
L4330 13499
L4501 14011
" />
</g>
<g style="fill:#000000; fill-opacity:0.0; 
stroke:#000000; stroke-width:39.3701; stroke-opacity:1; 
stroke-linecap:round; stroke-linejoin:round;">
</g>
<g style="fill:#000000; fill-opacity:0.0; 
stroke:#000000; stroke-width:59.0551; stroke-opacity:1; 
stroke-linecap:round; stroke-linejoin:round;">
<path d="M4367 33428
L4440 33452
L4464 33476
L4489 33525
L4489 33598
L4464 33647
L4440 33671
L4391 33696
L4196 33696
L4196 33184
L4367 33184
L4416 33208
L4440 33233
L4464 33281
L4464 33330
L4440 33379
L4416 33403
L4367 33428
L4196 33428
" />
</g>
<g style="fill:#000000; fill-opacity:0.0; 
stroke:#000000; stroke-width:39.3701; stroke-opacity:1; 
stroke-linecap:round; stroke-linejoin:round;">
</g>
<g style="fill:#000000; fill-opacity:0.0; 
stroke:#000000; stroke-width:59.0551; stroke-opacity:1; 
stroke-linecap:round; stroke-linejoin:round;">
<path d="M4489 53332
L4464 53356
L4391 53381
L4342 53381
L4269 53356
L4221 53308
L4196 53259
L4172 53161
L4172 53088
L4196 52991
L4221 52942
L4269 52893
L4342 52869
L4391 52869
L4464 52893
L4489 52918
" />
</g>
<g style="fill:#000000; fill-opacity:0.0; 
stroke:#000000; stroke-width:39.3701; stroke-opacity:1; 
stroke-linecap:round; stroke-linejoin:round;">
</g>
<g style="fill:#000000; fill-opacity:0.0; 
stroke:#000000; stroke-width:59.0551; stroke-opacity:1; 
stroke-linecap:round; stroke-linejoin:round;">
<path d="M4196 73066
L4196 72554
L4318 72554
L4391 72578
L4440 72627
L4464 72676
L4489 72773
L4489 72846
L4464 72944
L4440 72993
L4391 73041
L4318 73066
L4196 73066
" />
</g>
<g style="fill:#000000; fill-opacity:0.0; 
stroke:#000000; stroke-width:39.3701; stroke-opacity:1; 
stroke-linecap:round; stroke-linejoin:round;">
</g>
<g style="fill:#000000; fill-opacity:0.0; 
stroke:#000000; stroke-width:59.0551; stroke-opacity:1; 
stroke-linecap:round; stroke-linejoin:round;">
<path d="M112992 23622
L112205 23622
" />
</g>
<g style="fill:#000000; fill-opacity:0.0; 
stroke:#000000; stroke-width:39.3701; stroke-opacity:1; 
stroke-linecap:round; stroke-linejoin:round;">
</g>
<g style="fill:#000000; fill-opacity:0.0; 
stroke:#000000; stroke-width:59.0551; stroke-opacity:1; 
stroke-linecap:round; stroke-linejoin:round;">
<path d="M112992 43307
L112205 43307
" />
</g>
<g style="fill:#000000; fill-opacity:0.0; 
stroke:#000000; stroke-width:39.3701; stroke-opacity:1; 
stroke-linecap:round; stroke-linejoin:round;">
</g>
<g style="fill:#000000; fill-opacity:0.0; 
stroke:#000000; stroke-width:59.0551; stroke-opacity:1; 
stroke-linecap:round; stroke-linejoin:round;">
<path d="M112992 62992
L112205 62992
" />
</g>
<g style="fill:#000000; fill-opacity:0.0; 
stroke:#000000; stroke-width:39.3701; stroke-opacity:1; 
stroke-linecap:round; stroke-linejoin:round;">
</g>
<g style="fill:#000000; fill-opacity:0.0; 
stroke:#000000; stroke-width:59.0551; stroke-opacity:1; 
stroke-linecap:round; stroke-linejoin:round;">
<path d="M112477 13864
L112721 13864
" />
<path d="M112428 14011
L112599 13499
L112769 14011
" />
</g>
<g style="fill:#000000; fill-opacity:0.0; 
stroke:#000000; stroke-width:39.3701; stroke-opacity:1; 
stroke-linecap:round; stroke-linejoin:round;">
</g>
<g style="fill:#000000; fill-opacity:0.0; 
stroke:#000000; stroke-width:59.0551; stroke-opacity:1; 
stroke-linecap:round; stroke-linejoin:round;">
<path d="M112635 33428
L112708 33452
L112733 33476
L112757 33525
L112757 33598
L112733 33647
L112708 33671
L112660 33696
L112465 33696
L112465 33184
L112635 33184
L112684 33208
L112708 33233
L112733 33281
L112733 33330
L112708 33379
L112684 33403
L112635 33428
L112465 33428
" />
</g>
<g style="fill:#000000; fill-opacity:0.0; 
stroke:#000000; stroke-width:39.3701; stroke-opacity:1; 
stroke-linecap:round; stroke-linejoin:round;">
</g>
<g style="fill:#000000; fill-opacity:0.0; 
stroke:#000000; stroke-width:59.0551; stroke-opacity:1; 
stroke-linecap:round; stroke-linejoin:round;">
<path d="M112757 53332
L112733 53356
L112660 53381
L112611 53381
L112538 53356
L112489 53308
L112465 53259
L112440 53161
L112440 53088
L112465 52991
L112489 52942
L112538 52893
L112611 52869
L112660 52869
L112733 52893
L112757 52918
" />
</g>
<g style="fill:#000000; fill-opacity:0.0; 
stroke:#000000; stroke-width:39.3701; stroke-opacity:1; 
stroke-linecap:round; stroke-linejoin:round;">
</g>
<g style="fill:#000000; fill-opacity:0.0; 
stroke:#000000; stroke-width:59.0551; stroke-opacity:1; 
stroke-linecap:round; stroke-linejoin:round;">
<path d="M112465 73066
L112465 72554
L112587 72554
L112660 72578
L112708 72627
L112733 72676
L112757 72773
L112757 72846
L112733 72944
L112708 72993
L112660 73041
L112587 73066
L112465 73066
" />
</g>
<g style="fill:#000000; fill-opacity:0.0; 
stroke:#000000; stroke-width:39.3701; stroke-opacity:1; 
stroke-linecap:round; stroke-linejoin:round;">
</g>
<g style="fill:#000000; fill-opacity:0.0; 
stroke:#000000; stroke-width:59.0551; stroke-opacity:1; 
stroke-linecap:round; stroke-linejoin:round;">
<path d="M78911 76293
L78911 75703
L79051 75703
L79136 75731
L79192 75787
L79220 75843
L79248 75956
L79248 76040
L79220 76153
L79192 76209
L79136 76265
L79051 76293
L78911 76293
" />
<path d="M79754 76293
L79754 75984
L79726 75928
L79670 75899
L79557 75899
L79501 75928
" />
<path d="M79754 76265
L79698 76293
L79557 76293
L79501 76265
L79473 76209
L79473 76153
L79501 76096
L79557 76068
L79698 76068
L79754 76040
" />
<path d="M79951 75899
L80176 75899
" />
<path d="M80036 75703
L80036 76209
L80064 76265
L80120 76293
L80176 76293
" />
<path d="M80598 76265
L80542 76293
L80429 76293
L80373 76265
L80345 76209
L80345 75984
L80373 75928
L80429 75899
L80542 75899
L80598 75928
L80626 75984
L80626 76040
L80345 76096
" />
<path d="M80879 76237
L80907 76265
L80879 76293
L80851 76265
L80879 76237
L80879 76293
" />
<path d="M80879 75928
L80907 75956
L80879 75984
L80851 75956
L80879 75928
L80879 75984
" />
<path d="M81582 75759
L81610 75731
L81667 75703
L81807 75703
L81863 75731
L81892 75759
L81920 75815
L81920 75871
L81892 75956
L81554 76293
L81920 76293
" />
<path d="M82285 75703
L82341 75703
L82398 75731
L82426 75759
L82454 75815
L82482 75928
L82482 76068
L82454 76181
L82426 76237
L82398 76265
L82341 76293
L82285 76293
L82229 76265
L82201 76237
L82173 76181
L82145 76068
L82145 75928
L82173 75815
L82201 75759
L82229 75731
L82285 75703
" />
<path d="M83045 76293
L82707 76293
" />
<path d="M82876 76293
L82876 75703
L82820 75787
L82763 75843
L82707 75871
" />
<path d="M83579 75703
L83298 75703
L83269 75984
L83298 75956
L83354 75928
L83494 75928
L83551 75956
L83579 75984
L83607 76040
L83607 76181
L83579 76237
L83551 76265
L83494 76293
L83354 76293
L83298 76265
L83269 76237
" />
<path d="M83860 76068
L84310 76068
" />
<path d="M84901 76293
L84563 76293
" />
<path d="M84732 76293
L84732 75703
L84676 75787
L84619 75843
L84563 75871
" />
<path d="M85266 75703
L85322 75703
L85379 75731
L85407 75759
L85435 75815
L85463 75928
L85463 76068
L85435 76181
L85407 76237
L85379 76265
L85322 76293
L85266 76293
L85210 76265
L85182 76237
L85154 76181
L85126 76068
L85126 75928
L85154 75815
L85182 75759
L85210 75731
L85266 75703
" />
<path d="M85716 76068
L86166 76068
" />
<path d="M86757 76293
L86419 76293
" />
<path d="M86588 76293
L86588 75703
L86532 75787
L86475 75843
L86419 75871
" />
<path d="M87038 76293
L87150 76293
L87206 76265
L87235 76237
L87291 76153
L87319 76040
L87319 75815
L87291 75759
L87263 75731
L87206 75703
L87094 75703
L87038 75731
L87010 75759
L86982 75815
L86982 75956
L87010 76012
L87038 76040
L87094 76068
L87206 76068
L87263 76040
L87291 76012
L87319 75956
" />
</g>
<g style="fill:#000000; fill-opacity:0.0; 
stroke:#000000; stroke-width:39.3701; stroke-opacity:1; 
stroke-linecap:round; stroke-linejoin:round;">
</g>
<g style="fill:#000000; fill-opacity:0.0; 
stroke:#000000; stroke-width:59.0551; stroke-opacity:1; 
stroke-linecap:round; stroke-linejoin:round;">
<path d="M69685 76577
L112205 76577
" />
</g>
<g style="fill:#000000; fill-opacity:0.0; 
stroke:#000000; stroke-width:39.3701; stroke-opacity:1; 
stroke-linecap:round; stroke-linejoin:round;">
</g>
<g style="fill:#000000; fill-opacity:0.0; 
stroke:#000000; stroke-width:59.0551; stroke-opacity:1; 
stroke-linecap:round; stroke-linejoin:round;">
<path d="M70249 77395
L70249 76805
" />
<path d="M70587 77395
L70334 77058
" />
<path d="M70587 76805
L70249 77142
" />
<path d="M70840 77395
L70840 77002
" />
<path d="M70840 76805
L70812 76833
L70840 76861
L70868 76833
L70840 76805
L70840 76861
" />
<path d="M71458 77339
L71430 77367
L71346 77395
L71290 77395
L71205 77367
L71149 77311
L71121 77255
L71093 77142
L71093 77058
L71121 76946
L71149 76889
L71205 76833
L71290 76805
L71346 76805
L71430 76833
L71458 76861
" />
<path d="M71965 77395
L71965 77086
L71937 77030
L71880 77002
L71768 77002
L71712 77030
" />
<path d="M71965 77367
L71908 77395
L71768 77395
L71712 77367
L71683 77311
L71683 77255
L71712 77199
L71768 77171
L71908 77171
L71965 77142
" />
<path d="M72499 77395
L72499 76805
" />
<path d="M72499 77367
L72443 77395
L72330 77395
L72274 77367
L72246 77339
L72218 77283
L72218 77114
L72246 77058
L72274 77030
L72330 77002
L72443 77002
L72499 77030
" />
<path d="M73230 77086
L73427 77086
" />
<path d="M73511 77395
L73230 77395
L73230 76805
L73511 76805
" />
<path d="M73764 77339
L73793 77367
L73764 77395
L73736 77367
L73764 77339
L73764 77395
" />
<path d="M74046 77395
L74046 76805
L74186 76805
L74271 76833
L74327 76889
L74355 76946
L74383 77058
L74383 77142
L74355 77255
L74327 77311
L74271 77367
L74186 77395
L74046 77395
" />
<path d="M74636 77339
L74664 77367
L74636 77395
L74608 77367
L74636 77339
L74636 77395
" />
<path d="M74889 77227
L75171 77227
" />
<path d="M74833 77395
L75030 76805
L75227 77395
" />
<path d="M75424 77339
L75452 77367
L75424 77395
L75395 77367
L75424 77339
L75424 77395
" />
<path d="M76605 77395
L76605 76805
" />
<path d="M76661 77171
L76830 77395
" />
<path d="M76830 77002
L76605 77227
" />
<path d="M77083 77395
L77083 77002
" />
<path d="M77083 76805
L77055 76833
L77083 76861
L77111 76833
L77083 76805
L77083 76861
" />
<path d="M77617 77367
L77561 77395
L77448 77395
L77392 77367
L77364 77339
L77336 77283
L77336 77114
L77364 77058
L77392 77030
L77448 77002
L77561 77002
L77617 77030
" />
<path d="M78123 77395
L78123 77086
L78095 77030
L78039 77002
L77926 77002
L77870 77030
" />
<path d="M78123 77367
L78067 77395
L77926 77395
L77870 77367
L77842 77311
L77842 77255
L77870 77199
L77926 77171
L78067 77171
L78123 77142
" />
<path d="M78658 77395
L78658 76805
" />
<path d="M78658 77367
L78601 77395
L78489 77395
L78433 77367
L78404 77339
L78376 77283
L78376 77114
L78404 77058
L78433 77030
L78489 77002
L78601 77002
L78658 77030
" />
<path d="M79642 77002
L79642 77395
" />
<path d="M79501 76777
L79361 77199
L79726 77199
" />
<path d="M79951 77339
L79979 77367
L79951 77395
L79923 77367
L79951 77339
L79951 77395
" />
<path d="M80542 77395
L80204 77395
" />
<path d="M80373 77395
L80373 76805
L80317 76889
L80260 76946
L80204 76974
" />
<path d="M80795 77339
L80823 77367
L80795 77395
L80767 77367
L80795 77339
L80795 77395
" />
<path d="M81188 76805
L81245 76805
L81301 76833
L81329 76861
L81357 76917
L81385 77030
L81385 77171
L81357 77283
L81329 77339
L81301 77367
L81245 77395
L81188 77395
L81132 77367
L81104 77339
L81076 77283
L81048 77171
L81048 77030
L81076 76917
L81104 76861
L81132 76833
L81188 76805
" />
<path d="M81638 77171
L82088 77171
" />
<path d="M82623 77395
L82623 77086
L82595 77030
L82538 77002
L82426 77002
L82370 77030
" />
<path d="M82623 77367
L82566 77395
L82426 77395
L82370 77367
L82341 77311
L82341 77255
L82370 77199
L82426 77171
L82566 77171
L82623 77142
" />
<path d="M82988 77395
L82932 77367
L82904 77311
L82904 76805
" />
<path d="M83213 77002
L83213 77592
" />
<path d="M83213 77030
L83269 77002
L83382 77002
L83438 77030
L83466 77058
L83494 77114
L83494 77283
L83466 77339
L83438 77367
L83382 77395
L83269 77395
L83213 77367
" />
<path d="M83748 77395
L83748 76805
" />
<path d="M84001 77395
L84001 77086
L83973 77030
L83916 77002
L83832 77002
L83776 77030
L83748 77058
" />
<path d="M84535 77395
L84535 77086
L84507 77030
L84451 77002
L84338 77002
L84282 77030
" />
<path d="M84535 77367
L84479 77395
L84338 77395
L84282 77367
L84254 77311
L84254 77255
L84282 77199
L84338 77171
L84479 77171
L84535 77142
" />
<path d="M84816 77171
L85266 77171
" />
<path d="M85041 77395
L85041 76946
" />
<path d="M85519 76861
L85547 76833
L85604 76805
L85744 76805
L85800 76833
L85829 76861
L85857 76917
L85857 76974
L85829 77058
L85491 77395
L85857 77395
" />
<path d="M86222 76805
L86278 76805
L86335 76833
L86363 76861
L86391 76917
L86419 77030
L86419 77171
L86391 77283
L86363 77339
L86335 77367
L86278 77395
L86222 77395
L86166 77367
L86138 77339
L86110 77283
L86082 77171
L86082 77030
L86110 76917
L86138 76861
L86166 76833
L86222 76805
" />
<path d="M86982 77395
L86644 77395
" />
<path d="M86813 77395
L86813 76805
L86757 76889
L86700 76946
L86644 76974
" />
<path d="M87488 76805
L87375 76805
L87319 76833
L87291 76861
L87235 76946
L87206 77058
L87206 77283
L87235 77339
L87263 77367
L87319 77395
L87431 77395
L87488 77367
L87516 77339
L87544 77283
L87544 77142
L87516 77086
L87488 77058
L87431 77030
L87319 77030
L87263 77058
L87235 77086
L87206 77142
" />
<path d="M87910 76805
L87966 76805
L88022 76833
L88050 76861
L88078 76917
L88106 77030
L88106 77171
L88078 77283
L88050 77339
L88022 77367
L87966 77395
L87910 77395
L87853 77367
L87825 77339
L87797 77283
L87769 77171
L87769 77030
L87797 76917
L87825 76861
L87853 76833
L87910 76805
" />
<path d="M88613 76805
L88500 76805
L88444 76833
L88416 76861
L88359 76946
L88331 77058
L88331 77283
L88359 77339
L88388 77367
L88444 77395
L88556 77395
L88613 77367
L88641 77339
L88669 77283
L88669 77142
L88641 77086
L88613 77058
L88556 77030
L88444 77030
L88388 77058
L88359 77086
L88331 77142
" />
<path d="M88894 76861
L88922 76833
L88978 76805
L89119 76805
L89175 76833
L89203 76861
L89231 76917
L89231 76974
L89203 77058
L88866 77395
L89231 77395
" />
<path d="M89794 77395
L89456 77395
" />
<path d="M89625 77395
L89625 76805
L89569 76889
L89512 76946
L89456 76974
" />
<path d="M90159 76805
L90215 76805
L90272 76833
L90300 76861
L90328 76917
L90356 77030
L90356 77171
L90328 77283
L90300 77339
L90272 77367
L90215 77395
L90159 77395
L90103 77367
L90075 77339
L90047 77283
L90019 77171
L90019 77030
L90047 76917
L90075 76861
L90103 76833
L90159 76805
" />
<path d="M90694 77058
L90637 77030
L90609 77002
L90581 76946
L90581 76917
L90609 76861
L90637 76833
L90694 76805
L90806 76805
L90862 76833
L90890 76861
L90919 76917
L90919 76946
L90890 77002
L90862 77030
L90806 77058
L90694 77058
L90637 77086
L90609 77114
L90581 77171
L90581 77283
L90609 77339
L90637 77367
L90694 77395
L90806 77395
L90862 77367
L90890 77339
L90919 77283
L90919 77171
L90890 77114
L90862 77086
L90806 77058
" />
<path d="M91481 77395
L91144 77395
" />
<path d="M91312 77395
L91312 76805
L91256 76889
L91200 76946
L91144 76974
" />
<path d="M91678 76805
L92072 76805
L91818 77395
" />
<path d="M92296 77171
L92746 77171
" />
<path d="M92521 77395
L92521 76946
" />
<path d="M93281 76805
L93168 76805
L93112 76833
L93084 76861
L93028 76946
L93000 77058
L93000 77283
L93028 77339
L93056 77367
L93112 77395
L93224 77395
L93281 77367
L93309 77339
L93337 77283
L93337 77142
L93309 77086
L93281 77058
L93224 77030
L93112 77030
L93056 77058
L93028 77086
L93000 77142
" />
<path d="M93618 77395
L93731 77395
L93787 77367
L93815 77339
L93871 77255
L93899 77142
L93899 76917
L93871 76861
L93843 76833
L93787 76805
L93674 76805
L93618 76833
L93590 76861
L93562 76917
L93562 77058
L93590 77114
L93618 77142
L93674 77171
L93787 77171
L93843 77142
L93871 77114
L93899 77058
" />
<path d="M94406 77002
L94406 77395
" />
<path d="M94265 76777
L94124 77199
L94490 77199
" />
<path d="M94968 77002
L94968 77395
" />
<path d="M94827 76777
L94687 77199
L95052 77199
" />
<path d="M95234 76644
L95699 76644
" />
<path d="M95530 77002
L95530 77395
" />
<path d="M95390 76777
L95249 77199
L95615 77199
" />
<path d="M95699 76644
L96262 76644
" />
<path d="M96121 76805
L95840 76805
L95812 77086
L95840 77058
L95896 77030
L96037 77030
L96093 77058
L96121 77086
L96149 77142
L96149 77283
L96121 77339
L96093 77367
L96037 77395
L95896 77395
L95840 77367
L95812 77339
" />
<path d="M96655 77002
L96655 77395
" />
<path d="M96402 77002
L96402 77311
L96430 77367
L96487 77395
L96571 77395
L96627 77367
L96655 77339
" />
<path d="M96937 77395
L96937 76805
" />
<path d="M96937 77030
L96993 77002
L97105 77002
L97162 77030
L97190 77058
L97218 77114
L97218 77283
L97190 77339
L97162 77367
L97105 77395
L96993 77395
L96937 77367
" />
<path d="M97724 77002
L97724 77395
" />
<path d="M97471 77002
L97471 77311
L97499 77367
L97555 77395
L97640 77395
L97696 77367
L97724 77339
" />
<path d="M98005 77002
L98005 77395
" />
<path d="M98005 77058
L98033 77030
L98090 77002
L98174 77002
L98230 77030
L98258 77086
L98258 77395
" />
<path d="M98455 77002
L98680 77002
" />
<path d="M98539 76805
L98539 77311
L98568 77367
L98624 77395
L98680 77395
" />
<path d="M99130 77002
L99130 77395
" />
<path d="M98877 77002
L98877 77311
L98905 77367
L98961 77395
L99046 77395
L99102 77367
L99130 77339
" />
<path d="M99721 77395
L99383 77395
" />
<path d="M99552 77395
L99552 76805
L99496 76889
L99439 76946
L99383 76974
" />
<path d="M100227 77002
L100227 77395
" />
<path d="M100086 76777
L99946 77199
L100311 77199
" />
<path d="M100536 77339
L100564 77367
L100536 77395
L100508 77367
L100536 77339
L100536 77395
" />
<path d="M100930 76805
L100986 76805
L101042 76833
L101070 76861
L101099 76917
L101127 77030
L101127 77171
L101099 77283
L101070 77339
L101042 77367
L100986 77395
L100930 77395
L100874 77367
L100845 77339
L100817 77283
L100789 77171
L100789 77030
L100817 76917
L100845 76861
L100874 76833
L100930 76805
" />
<path d="M101633 77002
L101633 77395
" />
<path d="M101492 76777
L101352 77199
L101717 77199
" />
<path d="M101942 77339
L101970 77367
L101942 77395
L101914 77367
L101942 77339
L101942 77395
" />
<path d="M102533 77395
L102195 77395
" />
<path d="M102364 77395
L102364 76805
L102308 76889
L102251 76946
L102195 76974
" />
<path d="M102786 77171
L103236 77171
" />
<path d="M103517 77002
L103517 77592
" />
<path d="M103517 77030
L103573 77002
L103686 77002
L103742 77030
L103770 77058
L103798 77114
L103798 77283
L103770 77339
L103742 77367
L103686 77395
L103573 77395
L103517 77367
" />
<path d="M104051 77395
L104051 77002
" />
<path d="M104051 77114
L104079 77058
L104108 77030
L104164 77002
L104220 77002
" />
<path d="M104501 77395
L104445 77367
L104417 77339
L104389 77283
L104389 77114
L104417 77058
L104445 77030
L104501 77002
L104586 77002
L104642 77030
L104670 77058
L104698 77114
L104698 77283
L104670 77339
L104642 77367
L104586 77395
L104501 77395
" />
<path d="M105204 77395
L105204 76805
" />
<path d="M105204 77367
L105148 77395
L105036 77395
L104979 77367
L104951 77339
L104923 77283
L104923 77114
L104951 77058
L104979 77030
L105036 77002
L105148 77002
L105204 77030
" />
<path d="M105739 77002
L105739 77395
" />
<path d="M105485 77002
L105485 77311
L105514 77367
L105570 77395
L105654 77395
L105710 77367
L105739 77339
" />
<path d="M106273 77367
L106217 77395
L106104 77395
L106048 77367
L106020 77339
L105992 77283
L105992 77114
L106020 77058
L106048 77030
L106104 77002
L106217 77002
L106273 77030
" />
<path d="M106442 77002
L106667 77002
" />
<path d="M106526 76805
L106526 77311
L106554 77367
L106610 77395
L106667 77395
" />
</g>
<g style="fill:#000000; fill-opacity:0.0; 
stroke:#000000; stroke-width:39.3701; stroke-opacity:1; 
stroke-linecap:round; stroke-linejoin:round;">
</g>
<g style="fill:#000000; fill-opacity:0.0; 
stroke:#000000; stroke-width:59.0551; stroke-opacity:1; 
stroke-linecap:round; stroke-linejoin:round;">
<path d="M69685 75396
L112205 75396
" />
</g>
<g style="fill:#000000; fill-opacity:0.0; 
stroke:#000000; stroke-width:39.3701; stroke-opacity:1; 
stroke-linecap:round; stroke-linejoin:round;">
</g>
<g style="fill:#000000; fill-opacity:0.0; 
stroke:#000000; stroke-width:118.11; stroke-opacity:1; 
stroke-linecap:round; stroke-linejoin:round;">
<path d="M104099 76293
L103902 76012
" />
<path d="M103761 76293
L103761 75703
L103986 75703
L104042 75731
L104070 75759
L104099 75815
L104099 75899
L104070 75956
L104042 75984
L103986 76012
L103761 76012
" />
<path d="M104577 76265
L104520 76293
L104408 76293
L104352 76265
L104323 76209
L104323 75984
L104352 75928
L104408 75899
L104520 75899
L104577 75928
L104605 75984
L104605 76040
L104323 76096
" />
<path d="M104802 75899
L104942 76293
L105083 75899
" />
<path d="M105308 76237
L105336 76265
L105308 76293
L105280 76265
L105308 76237
L105308 76293
" />
<path d="M105308 75928
L105336 75956
L105308 75984
L105280 75956
L105308 75928
L105308 75984
" />
<path d="M106348 76293
L106011 76293
" />
<path d="M106180 76293
L106180 75703
L106123 75787
L106067 75843
L106011 75871
" />
<path d="M106601 76237
L106629 76265
L106601 76293
L106573 76265
L106601 76237
L106601 76293
" />
<path d="M106995 75703
L107051 75703
L107108 75731
L107136 75759
L107164 75815
L107192 75928
L107192 76068
L107164 76181
L107136 76237
L107108 76265
L107051 76293
L106995 76293
L106939 76265
L106911 76237
L106883 76181
L106854 76068
L106854 75928
L106883 75815
L106911 75759
L106939 75731
L106995 75703
" />
</g>
<g style="fill:#000000; fill-opacity:0.0; 
stroke:#000000; stroke-width:39.3701; stroke-opacity:1; 
stroke-linecap:round; stroke-linejoin:round;">
</g>
<g style="fill:#000000; fill-opacity:0.0; 
stroke:#000000; stroke-width:59.0551; stroke-opacity:1; 
stroke-linecap:round; stroke-linejoin:round;">
<path d="M70221 76265
L70305 76293
L70446 76293
L70502 76265
L70530 76237
L70559 76181
L70559 76124
L70530 76068
L70502 76040
L70446 76012
L70334 75984
L70277 75956
L70249 75928
L70221 75871
L70221 75815
L70249 75759
L70277 75731
L70334 75703
L70474 75703
L70559 75731
" />
<path d="M70812 76293
L70812 75899
" />
<path d="M70812 75703
L70784 75731
L70812 75759
L70840 75731
L70812 75703
L70812 75759
" />
<path d="M71037 75899
L71346 75899
L71037 76293
L71346 76293
" />
<path d="M71796 76265
L71740 76293
L71627 76293
L71571 76265
L71543 76209
L71543 75984
L71571 75928
L71627 75899
L71740 75899
L71796 75928
L71824 75984
L71824 76040
L71543 76096
" />
<path d="M72077 76237
L72105 76265
L72077 76293
L72049 76265
L72077 76237
L72077 76293
" />
<path d="M72077 75928
L72105 75956
L72077 75984
L72049 75956
L72077 75928
L72077 75984
" />
<path d="M72780 76124
L73061 76124
" />
<path d="M72724 76293
L72921 75703
L73118 76293
" />
<path d="M73568 75899
L73568 76293
" />
<path d="M73427 75674
L73286 76096
L73652 76096
" />
</g>
<g style="fill:#000000; fill-opacity:0.0; 
stroke:#000000; stroke-width:39.3701; stroke-opacity:1; 
stroke-linecap:round; stroke-linejoin:round;">
</g>
<g style="fill:#000000; fill-opacity:0.0; 
stroke:#000000; stroke-width:59.0551; stroke-opacity:1; 
stroke-linecap:round; stroke-linejoin:round;">
<path d="M103714 77395
L103714 76805
" />
<path d="M104248 77395
L104248 76805
" />
<path d="M104248 77367
L104192 77395
L104079 77395
L104023 77367
L103995 77339
L103967 77283
L103967 77114
L103995 77058
L104023 77030
L104079 77002
L104192 77002
L104248 77030
" />
<path d="M104529 77339
L104557 77367
L104529 77395
L104501 77367
L104529 77339
L104529 77395
" />
<path d="M104529 77030
L104557 77058
L104529 77086
L104501 77058
L104529 77030
L104529 77086
" />
<path d="M105570 77395
L105232 77395
" />
<path d="M105401 77395
L105401 76805
L105345 76889
L105289 76946
L105232 76974
" />
<path d="M106245 76777
L105739 77536
" />
<path d="M106751 77395
L106413 77395
" />
<path d="M106582 77395
L106582 76805
L106526 76889
L106470 76946
L106413 76974
" />
</g>
<g style="fill:#000000; fill-opacity:0.0; 
stroke:#000000; stroke-width:39.3701; stroke-opacity:1; 
stroke-linecap:round; stroke-linejoin:round;">
</g>
<g style="fill:#000000; fill-opacity:0.0; 
stroke:#000000; stroke-width:59.0551; stroke-opacity:1; 
stroke-linecap:round; stroke-linejoin:round;">
<path d="M69685 73821
L112205 73821
" />
</g>
<g style="fill:#000000; fill-opacity:0.0; 
stroke:#000000; stroke-width:39.3701; stroke-opacity:1; 
stroke-linecap:round; stroke-linejoin:round;">
</g>
<g style="fill:#000000; fill-opacity:0.0; 
stroke:#000000; stroke-width:157.48; stroke-opacity:1; 
stroke-linecap:round; stroke-linejoin:round;">
<path d="M70360 74099
L70810 74099
" />
<path d="M70486 74886
L70585 74099
" />
<path d="M70974 74886
L71039 74361
" />
<path d="M71072 74099
L71030 74136
L71063 74174
L71105 74136
L71072 74099
L71063 74174
" />
<path d="M71302 74361
L71602 74361
" />
<path d="M71447 74099
L71363 74774
L71391 74849
L71461 74886
L71536 74886
" />
<path d="M71911 74886
L71841 74849
L71813 74774
L71897 74099
" />
<path d="M72516 74849
L72436 74886
L72286 74886
L72216 74849
L72187 74774
L72225 74474
L72272 74399
L72352 74361
L72501 74361
L72572 74399
L72600 74474
L72591 74549
L72206 74624
" />
<path d="M72895 74811
L72928 74849
L72886 74886
L72853 74849
L72895 74811
L72886 74886
" />
<path d="M72947 74399
L72980 74436
L72937 74474
L72905 74436
L72947 74399
L72937 74474
" />
<path d="M74175 74474
L74283 74511
L74315 74549
L74343 74624
L74329 74736
L74283 74811
L74240 74849
L74161 74886
L73861 74886
L73959 74099
L74222 74099
L74292 74136
L74325 74174
L74353 74249
L74343 74324
L74297 74399
L74254 74436
L74175 74474
L73912 74474
" />
<path d="M74639 74661
L75014 74661
" />
<path d="M74536 74886
L74897 74099
L75061 74886
" />
<path d="M75309 74099
L75759 74099
" />
<path d="M75435 74886
L75534 74099
" />
<path d="M75890 74849
L75998 74886
L76185 74886
L76265 74849
L76307 74811
L76354 74736
L76364 74661
L76335 74586
L76303 74549
L76232 74511
L76087 74474
L76017 74436
L75984 74399
L75956 74324
L75965 74249
L76012 74174
L76054 74136
L76134 74099
L76321 74099
L76429 74136
" />
<path d="M77273 74886
L77371 74099
L77671 74099
L77741 74136
L77774 74174
L77802 74249
L77788 74361
L77741 74436
L77699 74474
L77620 74511
L77320 74511
" />
<path d="M78519 74811
L78477 74849
L78360 74886
L78285 74886
L78177 74849
L78112 74774
L78084 74699
L78065 74549
L78079 74436
L78135 74286
L78182 74211
L78266 74136
L78384 74099
L78459 74099
L78566 74136
L78599 74174
" />
<path d="M79162 74474
L79269 74511
L79302 74549
L79330 74624
L79316 74736
L79269 74811
L79227 74849
L79148 74886
L78848 74886
L78946 74099
L79208 74099
L79279 74136
L79312 74174
L79340 74249
L79330 74324
L79283 74399
L79241 74436
L79162 74474
L78899 74474
" />
</g>
<g style="fill:#000000; fill-opacity:0.0; 
stroke:#000000; stroke-width:39.3701; stroke-opacity:1; 
stroke-linecap:round; stroke-linejoin:round;">
</g>
<g style="fill:#000000; fill-opacity:0.0; 
stroke:#000000; stroke-width:59.0551; stroke-opacity:1; 
stroke-linecap:round; stroke-linejoin:round;">
<path d="M70446 73070
L70249 73070
" />
<path d="M70249 73380
L70249 72789
L70530 72789
" />
<path d="M70755 73380
L70755 72986
" />
<path d="M70755 72789
L70727 72817
L70755 72845
L70784 72817
L70755 72789
L70755 72845
" />
<path d="M71121 73380
L71065 73352
L71037 73295
L71037 72789
" />
<path d="M71571 73352
L71515 73380
L71402 73380
L71346 73352
L71318 73295
L71318 73070
L71346 73014
L71402 72986
L71515 72986
L71571 73014
L71599 73070
L71599 73127
L71318 73183
" />
<path d="M71852 73323
L71880 73352
L71852 73380
L71824 73352
L71852 73323
L71852 73380
" />
<path d="M71852 73014
L71880 73042
L71852 73070
L71824 73042
L71852 73014
L71852 73070
" />
<path d="M72583 73380
L72583 72789
" />
<path d="M72583 73014
L72640 72986
L72752 72986
L72808 73014
L72836 73042
L72865 73099
L72865 73267
L72836 73323
L72808 73352
L72752 73380
L72640 73380
L72583 73352
" />
<path d="M73371 73380
L73371 73070
L73343 73014
L73286 72986
L73174 72986
L73118 73014
" />
<path d="M73371 73352
L73314 73380
L73174 73380
L73118 73352
L73090 73295
L73090 73239
L73118 73183
L73174 73155
L73314 73155
L73371 73127
" />
<path d="M73568 72986
L73793 72986
" />
<path d="M73652 72789
L73652 73295
L73680 73352
L73736 73380
L73793 73380
" />
<path d="M73961 73352
L74018 73380
L74130 73380
L74186 73352
L74214 73295
L74214 73267
L74186 73211
L74130 73183
L74046 73183
L73989 73155
L73961 73099
L73961 73070
L73989 73014
L74046 72986
L74130 72986
L74186 73014
" />
<path d="M74467 73323
L74496 73352
L74467 73380
L74439 73352
L74467 73323
L74467 73380
" />
<path d="M74749 73380
L74749 72789
" />
<path d="M74805 73155
L74974 73380
" />
<path d="M74974 72986
L74749 73211
" />
<path d="M75227 73380
L75227 72986
" />
<path d="M75227 72789
L75199 72817
L75227 72845
L75255 72817
L75227 72789
L75227 72845
" />
<path d="M75761 73352
L75705 73380
L75592 73380
L75536 73352
L75508 73323
L75480 73267
L75480 73099
L75508 73042
L75536 73014
L75592 72986
L75705 72986
L75761 73014
" />
<path d="M76267 73380
L76267 73070
L76239 73014
L76183 72986
L76070 72986
L76014 73014
" />
<path d="M76267 73352
L76211 73380
L76070 73380
L76014 73352
L75986 73295
L75986 73239
L76014 73183
L76070 73155
L76211 73155
L76267 73127
" />
<path d="M76802 73380
L76802 72789
" />
<path d="M76802 73352
L76745 73380
L76633 73380
L76577 73352
L76548 73323
L76520 73267
L76520 73099
L76548 73042
L76577 73014
L76633 72986
L76745 72986
L76802 73014
" />
<path d="M76942 73436
L77392 73436
" />
<path d="M77533 72986
L77533 73577
" />
<path d="M77533 73014
L77589 72986
L77701 72986
L77758 73014
L77786 73042
L77814 73099
L77814 73267
L77786 73323
L77758 73352
L77701 73380
L77589 73380
L77533 73352
" />
<path d="M78320 73352
L78264 73380
L78151 73380
L78095 73352
L78067 73323
L78039 73267
L78039 73099
L78067 73042
L78095 73014
L78151 72986
L78264 72986
L78320 73014
" />
<path d="M78573 73380
L78573 72789
" />
<path d="M78573 73014
L78629 72986
L78742 72986
L78798 73014
L78826 73042
L78854 73099
L78854 73267
L78826 73323
L78798 73352
L78742 73380
L78629 73380
L78573 73352
" />
</g>
<g style="fill:#000000; fill-opacity:0.0; 
stroke:#000000; stroke-width:39.3701; stroke-opacity:1; 
stroke-linecap:round; stroke-linejoin:round;">
</g>
<g style="fill:#000000; fill-opacity:0.0; 
stroke:#000000; stroke-width:59.0551; stroke-opacity:1; 
stroke-linecap:round; stroke-linejoin:round;">
<path d="M69685 71459
L112205 71459
" />
</g>
<g style="fill:#000000; fill-opacity:0.0; 
stroke:#000000; stroke-width:39.3701; stroke-opacity:1; 
stroke-linecap:round; stroke-linejoin:round;">
</g>
<g style="fill:#000000; fill-opacity:0.0; 
stroke:#000000; stroke-width:59.0551; stroke-opacity:1; 
stroke-linecap:round; stroke-linejoin:round;">
<path d="M70221 72289
L70305 72317
L70446 72317
L70502 72289
L70530 72260
L70559 72204
L70559 72148
L70530 72092
L70502 72064
L70446 72036
L70334 72007
L70277 71979
L70249 71951
L70221 71895
L70221 71839
L70249 71782
L70277 71754
L70334 71726
L70474 71726
L70559 71754
" />
<path d="M70812 72317
L70812 71726
" />
<path d="M71065 72317
L71065 72007
L71037 71951
L70980 71923
L70896 71923
L70840 71951
L70812 71979
" />
<path d="M71571 72289
L71515 72317
L71402 72317
L71346 72289
L71318 72232
L71318 72007
L71346 71951
L71402 71923
L71515 71923
L71571 71951
L71599 72007
L71599 72064
L71318 72120
" />
<path d="M72077 72289
L72021 72317
L71908 72317
L71852 72289
L71824 72232
L71824 72007
L71852 71951
L71908 71923
L72021 71923
L72077 71951
L72105 72007
L72105 72064
L71824 72120
" />
<path d="M72274 71923
L72499 71923
" />
<path d="M72358 71726
L72358 72232
L72386 72289
L72443 72317
L72499 72317
" />
<path d="M72696 72260
L72724 72289
L72696 72317
L72668 72289
L72696 72260
L72696 72317
" />
<path d="M72696 71951
L72724 71979
L72696 72007
L72668 71979
L72696 71951
L72696 72007
" />
</g>
<g style="fill:#000000; fill-opacity:0.0; 
stroke:#000000; stroke-width:39.3701; stroke-opacity:1; 
stroke-linecap:round; stroke-linejoin:round;">
</g>
<g style="fill:#000000; fill-opacity:0.0; 
stroke:#000000; stroke-width:118.11; stroke-opacity:1; 
stroke-linecap:round; stroke-linejoin:round;">
<path d="M70493 70826
L70578 70854
L70606 70883
L70634 70939
L70634 71023
L70606 71079
L70578 71108
L70521 71136
L70296 71136
L70296 70545
L70493 70545
L70550 70573
L70578 70601
L70606 70658
L70606 70714
L70578 70770
L70550 70798
L70493 70826
L70296 70826
" />
<path d="M70887 71136
L70887 70742
" />
<path d="M70887 70854
L70915 70798
L70943 70770
L71000 70742
L71056 70742
" />
<path d="M71253 71136
L71253 70742
" />
<path d="M71253 70545
L71224 70573
L71253 70601
L71281 70573
L71253 70545
L71253 70601
" />
<path d="M71787 71108
L71731 71136
L71618 71136
L71562 71108
L71534 71079
L71506 71023
L71506 70854
L71534 70798
L71562 70770
L71618 70742
L71731 70742
L71787 70770
" />
<path d="M72124 71136
L72068 71108
L72040 71079
L72012 71023
L72012 70854
L72040 70798
L72068 70770
L72124 70742
L72209 70742
L72265 70770
L72293 70798
L72321 70854
L72321 71023
L72293 71079
L72265 71108
L72209 71136
L72124 71136
" />
<path d="M72856 71136
L72574 71136
L72574 70545
" />
<path d="M73305 71136
L73305 70826
L73277 70770
L73221 70742
L73109 70742
L73052 70770
" />
<path d="M73305 71108
L73249 71136
L73109 71136
L73052 71108
L73024 71051
L73024 70995
L73052 70939
L73109 70911
L73249 70911
L73305 70883
" />
<path d="M73587 71136
L73587 70545
" />
<path d="M73587 70770
L73643 70742
L73755 70742
L73812 70770
L73840 70798
L73868 70854
L73868 71023
L73840 71079
L73812 71108
L73755 71136
L73643 71136
L73587 71108
" />
<path d="M74093 71108
L74149 71136
L74262 71136
L74318 71108
L74346 71051
L74346 71023
L74318 70967
L74262 70939
L74177 70939
L74121 70911
L74093 70854
L74093 70826
L74121 70770
L74177 70742
L74262 70742
L74318 70770
" />
</g>
<g style="fill:#000000; fill-opacity:0.0; 
stroke:#000000; stroke-width:39.3701; stroke-opacity:1; 
stroke-linecap:round; stroke-linejoin:round;">
</g>
<g style="fill:#000000; fill-opacity:0.0; 
stroke:#000000; stroke-width:59.0551; stroke-opacity:1; 
stroke-linecap:round; stroke-linejoin:round;">
<path d="M77559 75396
L77559 76577
" />
</g>
<g style="fill:#000000; fill-opacity:0.0; 
stroke:#000000; stroke-width:39.3701; stroke-opacity:1; 
stroke-linecap:round; stroke-linejoin:round;">
</g>
<g style="fill:#000000; fill-opacity:0.0; 
stroke:#000000; stroke-width:59.0551; stroke-opacity:1; 
stroke-linecap:round; stroke-linejoin:round;">
<path d="M102756 75396
L102756 77955
" />
<path d="M72196 50640
L72384 50640
" />
<path d="M72159 50753
L72290 50359
L72421 50753
" />
<path d="M72553 50753
L72553 50359
L72646 50359
L72703 50378
L72740 50415
L72759 50453
L72778 50528
L72778 50584
L72759 50659
L72740 50696
L72703 50734
L72646 50753
L72553 50753
" />
<path d="M73134 50359
L72946 50359
L72928 50546
L72946 50528
L72984 50509
L73078 50509
L73115 50528
L73134 50546
L73153 50584
L73153 50678
L73134 50715
L73115 50734
L73078 50753
L72984 50753
L72946 50734
L72928 50715
" />
<path d="M68421 50615
L68609 50615
" />
<path d="M68384 50728
L68515 50334
L68646 50728
" />
<path d="M68778 50728
L68778 50334
L68871 50334
L68928 50353
L68965 50390
L68984 50428
L69003 50503
L69003 50559
L68984 50634
L68965 50671
L68928 50709
L68871 50728
L68778 50728
" />
<path d="M69340 50465
L69340 50728
" />
<path d="M69246 50315
L69153 50596
L69396 50596
" />
<path d="M65021 50765
L65209 50765
" />
<path d="M64984 50878
L65115 50484
L65246 50878
" />
<path d="M65378 50878
L65378 50484
L65471 50484
L65528 50503
L65565 50540
L65584 50578
L65603 50653
L65603 50709
L65584 50784
L65565 50821
L65528 50859
L65471 50878
L65378 50878
" />
<path d="M65734 50484
L65978 50484
L65846 50634
L65903 50634
L65940 50653
L65959 50671
L65978 50709
L65978 50803
L65959 50840
L65940 50859
L65903 50878
L65790 50878
L65753 50859
L65734 50840
" />
</g>
<g style="fill:#000000; fill-opacity:0.0; 
stroke:#000000; stroke-width:98.4252; stroke-opacity:1; 
stroke-linecap:round; stroke-linejoin:round;">
<path d="M73334 37928
L73334 37534
L73428 37534
L73484 37553
L73521 37590
L73540 37628
L73559 37703
L73559 37759
L73540 37834
L73521 37871
L73484 37909
L73428 37928
L73334 37928
" />
<path d="M73690 37534
L73934 37534
L73803 37684
L73859 37684
L73896 37703
L73915 37721
L73934 37759
L73934 37853
L73915 37890
L73896 37909
L73859 37928
L73746 37928
L73709 37909
L73690 37890
" />
<path d="M70634 37828
L70634 37434
L70728 37434
L70784 37453
L70821 37490
L70840 37528
L70859 37603
L70859 37659
L70840 37734
L70821 37771
L70784 37809
L70728 37828
L70634 37828
" />
<path d="M71196 37565
L71196 37828
" />
<path d="M71103 37415
L71009 37696
L71253 37696
" />
<path d="M70384 42403
L70384 42009
L70478 42009
L70534 42028
L70571 42065
L70590 42103
L70609 42178
L70609 42234
L70590 42309
L70571 42346
L70534 42384
L70478 42403
L70384 42403
" />
<path d="M70965 42009
L70778 42009
L70759 42196
L70778 42178
L70815 42159
L70909 42159
L70946 42178
L70965 42196
L70984 42234
L70984 42328
L70965 42365
L70946 42384
L70909 42403
L70815 42403
L70778 42384
L70759 42365
" />
</g>
<g style="fill:#000000; fill-opacity:0.0; 
stroke:#000000; stroke-width:39.3701; stroke-opacity:1; 
stroke-linecap:round; stroke-linejoin:round;">
<path d="M75510 33180
L76050 33720
" />
</g>
<g style="fill:#000000; fill-opacity:0.0; 
stroke:#000000; stroke-width:98.4252; stroke-opacity:1; 
stroke-linecap:round; stroke-linejoin:round;">
<path d="M68109 37978
L68109 37584
L68203 37584
L68259 37603
L68296 37640
L68315 37678
L68334 37753
L68334 37809
L68315 37884
L68296 37921
L68259 37959
L68203 37978
L68109 37978
" />
<path d="M68671 37584
L68596 37584
L68559 37603
L68540 37621
L68503 37678
L68484 37753
L68484 37903
L68503 37940
L68521 37959
L68559 37978
L68634 37978
L68671 37959
L68690 37940
L68709 37903
L68709 37809
L68690 37771
L68671 37753
L68634 37734
L68559 37734
L68521 37753
L68503 37771
L68484 37809
" />
<path d="M65384 38078
L65384 37684
L65478 37684
L65534 37703
L65571 37740
L65590 37778
L65609 37853
L65609 37909
L65590 37984
L65571 38021
L65534 38059
L65478 38078
L65384 38078
" />
<path d="M65740 37684
L66003 37684
L65834 38078
" />
<path d="M63734 38128
L63734 37734
L63828 37734
L63884 37753
L63921 37790
L63940 37828
L63959 37903
L63959 37959
L63940 38034
L63921 38071
L63884 38109
L63828 38128
L63734 38128
" />
<path d="M64184 37903
L64146 37884
L64128 37865
L64109 37828
L64109 37809
L64128 37771
L64146 37753
L64184 37734
L64259 37734
L64296 37753
L64315 37771
L64334 37809
L64334 37828
L64315 37865
L64296 37884
L64259 37903
L64184 37903
L64146 37921
L64128 37940
L64109 37978
L64109 38053
L64128 38090
L64146 38109
L64184 38128
L64259 38128
L64296 38109
L64315 38090
L64334 38053
L64334 37978
L64315 37940
L64296 37921
L64259 37903
" />
<path d="M62131 38082
L62131 37688
L62225 37688
L62281 37707
L62318 37744
L62337 37782
L62356 37857
L62356 37913
L62337 37988
L62318 38025
L62281 38063
L62225 38082
L62131 38082
" />
<path d="M62543 38082
L62618 38082
L62656 38063
L62675 38044
L62712 37988
L62731 37913
L62731 37763
L62712 37725
L62693 37707
L62656 37688
L62581 37688
L62543 37707
L62525 37725
L62506 37763
L62506 37857
L62525 37894
L62543 37913
L62581 37932
L62656 37932
L62693 37913
L62712 37894
L62731 37857
" />
<path d="M62117 37022
L62117 36628
L62211 36628
L62267 36647
L62305 36684
L62324 36722
L62342 36797
L62342 36853
L62324 36928
L62305 36965
L62267 37003
L62211 37022
L62117 37022
" />
<path d="M62717 37022
L62492 37022
" />
<path d="M62605 37022
L62605 36628
L62567 36684
L62530 36722
L62492 36740
" />
<path d="M62961 36628
L62999 36628
L63036 36647
L63055 36665
L63074 36703
L63092 36778
L63092 36872
L63074 36947
L63055 36984
L63036 37003
L62999 37022
L62961 37022
L62924 37003
L62905 36984
L62886 36947
L62867 36872
L62867 36778
L62886 36703
L62905 36665
L62924 36647
L62961 36628
" />
<path d="M62133 35902
L62133 35508
L62227 35508
L62283 35527
L62321 35564
L62340 35602
L62358 35677
L62358 35733
L62340 35808
L62321 35845
L62283 35883
L62227 35902
L62133 35902
" />
<path d="M62733 35902
L62508 35902
" />
<path d="M62621 35902
L62621 35508
L62583 35564
L62546 35602
L62508 35620
" />
<path d="M63108 35902
L62883 35902
" />
<path d="M62996 35902
L62996 35508
L62958 35564
L62921 35602
L62883 35620
" />
</g>
<g style="fill:#000000; fill-opacity:0.0; 
stroke:#000000; stroke-width:118.11; stroke-opacity:1; 
stroke-linecap:round; stroke-linejoin:round;">
<path d="M55012 38207
L55096 38235
L55124 38264
L55152 38320
L55152 38404
L55124 38460
L55096 38489
L55040 38517
L54815 38517
L54815 37926
L55012 37926
L55068 37954
L55096 37982
L55124 38039
L55124 38095
L55096 38151
L55068 38179
L55012 38207
L54815 38207
" />
<path d="M55094 37024
L55038 36996
L54954 36996
L54869 37024
L54813 37080
L54785 37137
L54757 37249
L54757 37334
L54785 37446
L54813 37502
L54869 37559
L54954 37587
L55010 37587
L55094 37559
L55122 37530
L55122 37334
L55010 37334
" />
<path d="M55122 36057
L54925 35775
" />
<path d="M54785 36057
L54785 35466
L55010 35466
L55066 35494
L55094 35522
L55122 35579
L55122 35663
L55094 35719
L55066 35747
L55010 35775
L54785 35775
" />
<path d="M56842 52567
L56561 52567
L56561 51976
" />
<path d="M57039 52567
L57039 51976
L57179 51976
L57264 52004
L57320 52060
L57348 52117
L57376 52229
L57376 52314
L57348 52426
L57320 52482
L57264 52539
L57179 52567
L57039 52567
" />
<path d="M57967 52567
L57770 52285
" />
<path d="M57629 52567
L57629 51976
L57854 51976
L57910 52004
L57938 52032
L57967 52089
L57967 52173
L57938 52229
L57910 52257
L57854 52285
L57629 52285
" />
</g>
<g style="fill:#000000; fill-opacity:0.0; 
stroke:#000000; stroke-width:59.0551; stroke-opacity:1; 
stroke-linecap:round; stroke-linejoin:round;">
<path d="M58023 41989
L58211 41989
" />
<path d="M57986 42102
L58117 41708
L58248 42102
" />
<path d="M58380 42102
L58380 41708
L58473 41708
L58530 41727
L58567 41764
L58586 41802
L58605 41877
L58605 41933
L58586 42008
L58567 42045
L58530 42083
L58473 42102
L58380 42102
" />
<path d="M58755 41745
L58773 41727
L58811 41708
L58905 41708
L58942 41727
L58961 41745
L58980 41783
L58980 41820
L58961 41877
L58736 42102
L58980 42102
" />
<path d="M58001 46853
L58189 46853
" />
<path d="M57964 46966
L58095 46572
L58226 46966
" />
<path d="M58358 46966
L58358 46572
L58451 46572
L58508 46591
L58545 46628
L58564 46666
L58583 46741
L58583 46797
L58564 46872
L58545 46909
L58508 46947
L58451 46966
L58358 46966
" />
<path d="M58958 46966
L58733 46966
" />
<path d="M58845 46966
L58845 46572
L58808 46628
L58770 46666
L58733 46684
" />
<path d="M59107 51623
L59295 51623
" />
<path d="M59070 51736
L59201 51342
L59332 51736
" />
<path d="M59464 51736
L59464 51342
L59557 51342
L59614 51361
L59651 51398
L59670 51436
L59689 51511
L59689 51567
L59670 51642
L59651 51679
L59614 51717
L59557 51736
L59464 51736
" />
<path d="M59932 51342
L59970 51342
L60007 51361
L60026 51379
L60045 51417
L60064 51492
L60064 51586
L60045 51661
L60026 51698
L60007 51717
L59970 51736
L59932 51736
L59895 51717
L59876 51698
L59857 51661
L59839 51586
L59839 51492
L59857 51417
L59876 51379
L59895 51361
L59932 51342
" />
</g>
<g style="fill:#000000; fill-opacity:0.0; 
stroke:#000000; stroke-width:98.4252; stroke-opacity:1; 
stroke-linecap:round; stroke-linejoin:round;">
<path d="M50505 41968
L50505 41574
" />
<path d="M50505 41724
L50542 41705
L50617 41705
L50655 41724
L50674 41743
L50692 41780
L50692 41893
L50674 41930
L50655 41949
L50617 41968
L50542 41968
L50505 41949
" />
<path d="M50824 41705
L50917 41968
" />
<path d="M51011 41705
L50917 41968
L50880 42061
L50861 42080
L50824 42099
" />
<path d="M51592 41761
L51649 41780
L51667 41799
L51686 41836
L51686 41893
L51667 41930
L51649 41949
L51611 41968
L51461 41968
L51461 41574
L51592 41574
L51630 41593
L51649 41611
L51667 41649
L51667 41686
L51649 41724
L51630 41743
L51592 41761
L51461 41761
" />
<path d="M51855 41968
L51855 41705
" />
<path d="M51855 41780
L51874 41743
L51892 41724
L51930 41705
L51967 41705
" />
<path d="M52099 41968
L52099 41705
" />
<path d="M52099 41574
L52080 41593
L52099 41611
L52117 41593
L52099 41574
L52099 41611
" />
<path d="M52455 41949
L52417 41968
L52342 41968
L52305 41949
L52286 41930
L52267 41893
L52267 41780
L52286 41743
L52305 41724
L52342 41705
L52417 41705
L52455 41724
" />
<path d="M52680 41968
L52642 41949
L52623 41930
L52605 41893
L52605 41780
L52623 41743
L52642 41724
L52680 41705
L52736 41705
L52773 41724
L52792 41743
L52811 41780
L52811 41893
L52792 41930
L52773 41949
L52736 41968
L52680 41968
" />
<path d="M53167 41968
L52980 41968
L52980 41574
" />
<path d="M53467 41968
L53467 41761
L53448 41724
L53411 41705
L53336 41705
L53298 41724
" />
<path d="M53467 41949
L53430 41968
L53336 41968
L53298 41949
L53280 41911
L53280 41874
L53298 41836
L53336 41818
L53430 41818
L53467 41799
" />
<path d="M53655 41968
L53655 41574
" />
<path d="M53655 41724
L53692 41705
L53767 41705
L53805 41724
L53823 41743
L53842 41780
L53842 41893
L53823 41930
L53805 41949
L53767 41968
L53692 41968
L53655 41949
" />
<path d="M53992 41949
L54030 41968
L54105 41968
L54142 41949
L54161 41911
L54161 41893
L54142 41855
L54105 41836
L54048 41836
L54011 41818
L53992 41780
L53992 41761
L54011 41724
L54048 41705
L54105 41705
L54142 41724
" />
</g>
<g style="fill:#000000; fill-opacity:0.0; 
stroke:#000000; stroke-width:39.3701; stroke-opacity:1; 
stroke-linecap:round; stroke-linejoin:round;">
<path d="M49930 54300
L49930 33460
" />
<path d="M76050 54300
L49930 54300
" />
<path d="M76050 53260
L76050 54300
" />
<path d="M77040 52270
L76050 53260
" />
<path d="M77040 39210
L77040 52270
" />
<path d="M76050 38220
L77040 39210
" />
<path d="M76050 33720
L76050 38220
" />
<path d="M49930 33180
L75510 33180
" />
<path d="M49930 33460
L49930 33180
" />
</g>
<g style="fill:#000000; fill-opacity:0.0; 
stroke:#000000; stroke-width:59.0551; stroke-opacity:1; 
stroke-linecap:round; stroke-linejoin:round;">
<path d="M70946 47062
L70815 46874
" />
<path d="M70721 47062
L70721 46668
L70871 46668
L70909 46687
L70928 46705
L70946 46743
L70946 46799
L70928 46837
L70909 46855
L70871 46874
L70721 46874
" />
<path d="M71321 47062
L71096 47062
" />
<path d="M71209 47062
L71209 46668
L71171 46724
L71134 46762
L71096 46780
" />
<path d="M71453 46668
L71696 46668
L71565 46818
L71621 46818
L71659 46837
L71678 46855
L71696 46893
L71696 46987
L71678 47024
L71659 47043
L71621 47062
L71509 47062
L71471 47043
L71453 47024
" />
<path d="M60921 44778
L60790 44590
" />
<path d="M60696 44778
L60696 44384
L60846 44384
L60884 44403
L60903 44421
L60921 44459
L60921 44515
L60903 44553
L60884 44571
L60846 44590
L60696 44590
" />
<path d="M61296 44778
L61071 44778
" />
<path d="M61184 44778
L61184 44384
L61146 44440
L61109 44478
L61071 44496
" />
<path d="M61540 44384
L61578 44384
L61615 44403
L61634 44421
L61653 44459
L61671 44534
L61671 44628
L61653 44703
L61634 44740
L61615 44759
L61578 44778
L61540 44778
L61503 44759
L61484 44740
L61465 44703
L61446 44628
L61446 44534
L61465 44459
L61484 44421
L61503 44403
L61540 44384
" />
<path d="M60896 45653
L60765 45465
" />
<path d="M60671 45653
L60671 45259
L60821 45259
L60859 45278
L60878 45296
L60896 45334
L60896 45390
L60878 45428
L60859 45446
L60821 45465
L60671 45465
" />
<path d="M61271 45653
L61046 45653
" />
<path d="M61159 45653
L61159 45259
L61121 45315
L61084 45353
L61046 45371
" />
<path d="M61421 45296
L61440 45278
L61478 45259
L61571 45259
L61609 45278
L61628 45296
L61646 45334
L61646 45371
L61628 45428
L61403 45653
L61646 45653
" />
<path d="M51934 33534
L51934 33853
L51952 33890
L51971 33909
L52009 33928
L52084 33928
L52121 33909
L52140 33890
L52159 33853
L52159 33534
" />
<path d="M52552 33928
L52327 33928
" />
<path d="M52440 33928
L52440 33534
L52402 33590
L52365 33628
L52327 33646
" />
<path d="M53530 33982
L53829 33982
" />
<path d="M53680 34132
L53680 33832
" />
<path d="M56304 50330
L56173 50142
" />
<path d="M56079 50330
L56079 49936
L56229 49936
L56266 49955
L56285 49973
L56304 50011
L56304 50067
L56285 50105
L56266 50123
L56229 50142
L56079 50142
" />
<path d="M56679 50330
L56454 50330
" />
<path d="M56566 50330
L56566 49936
L56529 49992
L56491 50030
L56454 50048
" />
<path d="M56284 51402
L56153 51214
" />
<path d="M56059 51402
L56059 51008
L56209 51008
L56246 51027
L56265 51045
L56284 51083
L56284 51139
L56265 51177
L56246 51195
L56209 51214
L56059 51214
" />
<path d="M56434 51045
L56453 51027
L56490 51008
L56584 51008
L56621 51027
L56640 51045
L56659 51083
L56659 51120
L56640 51177
L56415 51402
L56659 51402
" />
<path d="M61224 41838
L61093 41650
" />
<path d="M60999 41838
L60999 41444
L61149 41444
L61186 41463
L61205 41481
L61224 41519
L61224 41575
L61205 41613
L61186 41631
L61149 41650
L60999 41650
" />
<path d="M61355 41444
L61599 41444
L61468 41594
L61524 41594
L61561 41613
L61580 41631
L61599 41669
L61599 41763
L61580 41800
L61561 41819
L61524 41838
L61411 41838
L61374 41819
L61355 41800
" />
<path d="M61224 42889
L61093 42701
" />
<path d="M60999 42889
L60999 42495
L61149 42495
L61186 42514
L61205 42533
L61224 42570
L61224 42626
L61205 42664
L61186 42683
L61149 42701
L60999 42701
" />
<path d="M61561 42626
L61561 42889
" />
<path d="M61468 42476
L61374 42758
L61618 42758
" />
<path d="M61224 43898
L61093 43710
" />
<path d="M60999 43898
L60999 43504
L61149 43504
L61186 43523
L61205 43541
L61224 43579
L61224 43635
L61205 43673
L61186 43691
L61149 43710
L60999 43710
" />
<path d="M61580 43504
L61393 43504
L61374 43691
L61393 43673
L61430 43654
L61524 43654
L61561 43673
L61580 43691
L61599 43729
L61599 43823
L61580 43860
L61561 43879
L61524 43898
L61430 43898
L61393 43879
L61374 43860
" />
<path d="M58848 36021
L58717 35833
" />
<path d="M58623 36021
L58623 35627
L58773 35627
L58810 35646
L58829 35664
L58848 35702
L58848 35758
L58829 35796
L58810 35814
L58773 35833
L58623 35833
" />
<path d="M59185 35627
L59110 35627
L59073 35646
L59054 35664
L59017 35721
L58998 35796
L58998 35946
L59017 35983
L59035 36002
L59073 36021
L59148 36021
L59185 36002
L59204 35983
L59223 35946
L59223 35852
L59204 35814
L59185 35796
L59148 35777
L59073 35777
L59035 35796
L59017 35814
L58998 35852
" />
<path d="M58850 37032
L58719 36844
" />
<path d="M58625 37032
L58625 36638
L58775 36638
L58812 36657
L58831 36675
L58850 36713
L58850 36769
L58831 36807
L58812 36825
L58775 36844
L58625 36844
" />
<path d="M58981 36638
L59244 36638
L59075 37032
" />
<path d="M58850 38067
L58719 37879
" />
<path d="M58625 38067
L58625 37673
L58775 37673
L58812 37692
L58831 37710
L58850 37748
L58850 37804
L58831 37842
L58812 37860
L58775 37879
L58625 37879
" />
<path d="M59075 37842
L59037 37823
L59019 37804
L59000 37767
L59000 37748
L59019 37710
L59037 37692
L59075 37673
L59150 37673
L59187 37692
L59206 37710
L59225 37748
L59225 37767
L59206 37804
L59187 37823
L59150 37842
L59075 37842
L59037 37860
L59019 37879
L59000 37917
L59000 37992
L59019 38029
L59037 38048
L59075 38067
L59150 38067
L59187 38048
L59206 38029
L59225 37992
L59225 37917
L59206 37879
L59187 37860
L59150 37842
" />
<path d="M69579 45658
L69448 45470
" />
<path d="M69354 45658
L69354 45264
L69504 45264
L69541 45283
L69560 45301
L69579 45339
L69579 45395
L69560 45433
L69541 45451
L69504 45470
L69354 45470
" />
<path d="M69766 45658
L69841 45658
L69879 45639
L69898 45620
L69935 45564
L69954 45489
L69954 45339
L69935 45301
L69916 45283
L69879 45264
L69804 45264
L69766 45283
L69748 45301
L69729 45339
L69729 45433
L69748 45470
L69766 45489
L69804 45508
L69879 45508
L69916 45489
L69935 45470
L69954 45433
" />
<path d="M65358 47007
L65227 46819
" />
<path d="M65133 47007
L65133 46613
L65283 46613
L65321 46632
L65340 46650
L65358 46688
L65358 46744
L65340 46782
L65321 46800
L65283 46819
L65133 46819
" />
<path d="M65733 47007
L65508 47007
" />
<path d="M65621 47007
L65621 46613
L65583 46669
L65546 46707
L65508 46725
" />
<path d="M66108 47007
L65883 47007
" />
<path d="M65996 47007
L65996 46613
L65958 46669
L65921 46707
L65883 46725
" />
<path d="M51092 37868
L51148 37887
L51167 37906
L51186 37943
L51186 38000
L51167 38037
L51148 38056
L51111 38075
L50961 38075
L50961 37681
L51092 37681
L51129 37700
L51148 37718
L51167 37756
L51167 37793
L51148 37831
L51129 37850
L51092 37868
L50961 37868
" />
<path d="M51335 37962
L51523 37962
" />
<path d="M51298 38075
L51429 37681
L51560 38075
" />
<path d="M51635 37681
L51860 37681
" />
<path d="M51748 38075
L51748 37681
" />
<path d="M51973 38056
L52029 38075
L52123 38075
L52160 38056
L52179 38037
L52198 38000
L52198 37962
L52179 37925
L52160 37906
L52123 37887
L52048 37868
L52010 37850
L51992 37831
L51973 37793
L51973 37756
L51992 37718
L52010 37700
L52048 37681
L52142 37681
L52198 37700
" />
<path d="M52648 37718
L52667 37700
L52704 37681
L52798 37681
L52835 37700
L52854 37718
L52873 37756
L52873 37793
L52854 37850
L52629 38075
L52873 38075
" />
<path d="M53042 38037
L53060 38056
L53042 38075
L53023 38056
L53042 38037
L53042 38075
" />
<path d="M53304 37681
L53341 37681
L53379 37700
L53398 37718
L53416 37756
L53435 37831
L53435 37925
L53416 38000
L53398 38037
L53379 38056
L53341 38075
L53304 38075
L53266 38056
L53248 38037
L53229 38000
L53210 37925
L53210 37831
L53229 37756
L53248 37718
L53266 37700
L53304 37681
" />
</g>
<g style="fill:#000000; fill-opacity:0.0; 
stroke:#000000; stroke-width:80; stroke-opacity:1; 
stroke-linecap:round; stroke-linejoin:round;">
<path d="M66255 47785
L64555 47785
" />
<path d="M64555 50185
L66255 50185
" />
<path d="M66605 48593
L66605 49385
" />
<path d="M64205 48581
L64205 49385
" />
<circle cx="65405" cy="48985" r="700" /> 
</g>
<g style="fill:#000000; fill-opacity:0.0; 
stroke:#000000; stroke-width:59.0551; stroke-opacity:1; 
stroke-linecap:round; stroke-linejoin:round;">
<path d="M72250 47400
L70250 47400
" />
<path d="M70250 47400
L70250 46400
" />
<path d="M70250 46400
L72250 46400
" />
<path d="M72250 46400
L72250 47400
" />
<path d="M72250 46900
L72750 46900
" />
<path d="M70250 46900
L69750 46900
" />
</g>
<g style="fill:#000000; fill-opacity:0.0; 
stroke:#000000; stroke-width:80; stroke-opacity:1; 
stroke-linecap:round; stroke-linejoin:round;">
<path d="M73470 47840
L71770 47840
" />
<path d="M71770 50240
L73470 50240
" />
<path d="M73820 48648
L73820 49440
" />
<path d="M71420 48636
L71420 49440
" />
<circle cx="72620" cy="49040" r="700" /> 
<path d="M70171 40445
L71671 40445
" />
</g>
<g style="fill:#000000; fill-opacity:0.0; 
stroke:#000000; stroke-width:100; stroke-opacity:1; 
stroke-linecap:round; stroke-linejoin:round;">
<path d="M71672.5 40444.6 A1250 1250 0.0 1 0 70171.5 40445.4 " />
</g>
<g style="fill:#000000; fill-opacity:0.0; 
stroke:#000000; stroke-width:60; stroke-opacity:1; 
stroke-linecap:round; stroke-linejoin:round;">
<circle cx="70921.5" cy="39445.4" r="1000" /> 
</g>
<g style="fill:#000000; fill-opacity:0.0; 
stroke:#000000; stroke-width:80; stroke-opacity:1; 
stroke-linecap:round; stroke-linejoin:round;">
<path d="M72801 40445
L74301 40445
" />
</g>
<g style="fill:#000000; fill-opacity:0.0; 
stroke:#000000; stroke-width:100; stroke-opacity:1; 
stroke-linecap:round; stroke-linejoin:round;">
<path d="M74302.4 40444.6 A1250 1250 0.0 1 0 72801.4 40445.4 " />
</g>
<g style="fill:#000000; fill-opacity:0.0; 
stroke:#000000; stroke-width:60; stroke-opacity:1; 
stroke-linecap:round; stroke-linejoin:round;">
<circle cx="73551.4" cy="39445.4" r="1000" /> 
</g>
<g style="fill:#000000; fill-opacity:0.0; 
stroke:#000000; stroke-width:59.0551; stroke-opacity:1; 
stroke-linecap:round; stroke-linejoin:round;">
<path d="M62600 45200
L60600 45200
" />
<path d="M60600 45200
L60600 44200
" />
<path d="M60600 44200
L62600 44200
" />
<path d="M62600 44200
L62600 45200
" />
<path d="M62600 44700
L63100 44700
" />
<path d="M60600 44700
L60100 44700
" />
<path d="M62600 46150
L60600 46150
" />
<path d="M60600 46150
L60600 45150
" />
<path d="M60600 45150
L62600 45150
" />
<path d="M62600 45150
L62600 46150
" />
<path d="M62600 45650
L63100 45650
" />
<path d="M60600 45650
L60100 45650
" />
</g>
<g style="fill:#000000; fill-opacity:0.0; 
stroke:#000000; stroke-width:80; stroke-opacity:1; 
stroke-linecap:round; stroke-linejoin:round;">
<path d="M69720 47785
L68020 47785
" />
<path d="M68020 50185
L69720 50185
" />
<path d="M70070 48593
L70070 49385
" />
<path d="M67670 48581
L67670 49385
" />
<circle cx="68870" cy="48985" r="700" /> 
</g>
<g style="fill:#000000; fill-opacity:0.0; 
stroke:#000000; stroke-width:150; stroke-opacity:1; 
stroke-linecap:round; stroke-linejoin:round;">
<path d="M56357 36410
L56357 36685
" />
<path d="M56278 35386
L55648 35386
" />
</g>
<g style="fill:#000000; fill-opacity:0.0; 
stroke:#000000; stroke-width:80; stroke-opacity:1; 
stroke-linecap:round; stroke-linejoin:round;">
<path d="M70200 43375
L69950 43625
" />
<path d="M69950 43625
L69450 43625
" />
<path d="M69450 43625
L69200 43375
" />
<path d="M69200 42875
L69450 42625
" />
<path d="M69450 42625
L69950 42625
" />
<path d="M69950 42625
L70200 42875
" />
<path d="M71950 43625
L71450 43625
" />
<path d="M71450 43625
L71200 43375
" />
<path d="M71200 42875
L71450 42625
" />
<path d="M71200 43375
L70950 43625
" />
<path d="M70950 43625
L70450 43625
" />
<path d="M70450 43625
L70200 43375
" />
<path d="M70200 42875
L70450 42625
" />
<path d="M70450 42625
L70950 42625
" />
<path d="M70950 42625
L71200 42875
" />
<path d="M72200 43375
L72200 42875
" />
<path d="M71950 43625
L72200 43375
" />
<path d="M72200 42875
L71950 42625
" />
<path d="M71450 42625
L71950 42625
" />
<path d="M69200 43375
L69200 42875
" />
<path d="M52860 51420
L51160 51420
" />
<path d="M51160 53820
L52860 53820
" />
<path d="M53210 52228
L53210 53020
" />
<path d="M50810 52216
L50810 53020
" />
<circle cx="52010" cy="52620" r="700" /> 
</g>
<g style="fill:#000000; fill-opacity:0.0; 
stroke:#000000; stroke-width:59.0551; stroke-opacity:1; 
stroke-linecap:round; stroke-linejoin:round;">
<circle cx="52190" cy="34858" r="394" /> 
<circle cx="52190" cy="34858" r="2441" /> 
<path d="M55302 49660
L57302 49660
" />
<path d="M57302 49660
L57302 50660
" />
<path d="M57302 50660
L55302 50660
" />
<path d="M55302 50660
L55302 49660
" />
<path d="M55302 50160
L54802 50160
" />
<path d="M57302 50160
L57802 50160
" />
<path d="M57290 51706
L55290 51706
" />
<path d="M55290 51706
L55290 50706
" />
<path d="M55290 50706
L57290 50706
" />
<path d="M57290 50706
L57290 51706
" />
<path d="M57290 51206
L57790 51206
" />
<path d="M55290 51206
L54790 51206
" />
<path d="M62611 42117
L60611 42117
" />
<path d="M60611 42117
L60611 41117
" />
<path d="M60611 41117
L62611 41117
" />
<path d="M62611 41117
L62611 42117
" />
<path d="M62611 41617
L63111 41617
" />
<path d="M60611 41617
L60111 41617
" />
<path d="M62611 43168
L60611 43168
" />
<path d="M60611 43168
L60611 42168
" />
<path d="M60611 42168
L62611 42168
" />
<path d="M62611 42168
L62611 43168
" />
<path d="M62611 42668
L63111 42668
" />
<path d="M60611 42668
L60111 42668
" />
<path d="M62611 44177
L60611 44177
" />
<path d="M60611 44177
L60611 43177
" />
<path d="M60611 43177
L62611 43177
" />
<path d="M62611 43177
L62611 44177
" />
<path d="M62611 43677
L63111 43677
" />
<path d="M60611 43677
L60111 43677
" />
<path d="M58264 35370
L60264 35370
" />
<path d="M60264 35370
L60264 36370
" />
<path d="M60264 36370
L58264 36370
" />
<path d="M58264 36370
L58264 35370
" />
<path d="M58264 35870
L57764 35870
" />
<path d="M60264 35870
L60764 35870
" />
<path d="M58266 36381
L60266 36381
" />
<path d="M60266 36381
L60266 37381
" />
<path d="M60266 37381
L58266 37381
" />
<path d="M58266 37381
L58266 36381
" />
<path d="M58266 36881
L57766 36881
" />
<path d="M60266 36881
L60766 36881
" />
<path d="M58266 37416
L60266 37416
" />
<path d="M60266 37416
L60266 38416
" />
<path d="M60266 38416
L58266 38416
" />
<path d="M58266 38416
L58266 37416
" />
<path d="M58266 37916
L57766 37916
" />
<path d="M60266 37916
L60766 37916
" />
<path d="M70625 46000
L68625 46000
" />
<path d="M68625 46000
L68625 45000
" />
<path d="M68625 45000
L70625 45000
" />
<path d="M70625 45000
L70625 46000
" />
<path d="M70625 45500
L71125 45500
" />
<path d="M68625 45500
L68125 45500
" />
<path d="M64571 46350
L66571 46350
" />
<path d="M66571 46350
L66571 47350
" />
<path d="M66571 47350
L64571 47350
" />
<path d="M64571 47350
L64571 46350
" />
<path d="M64571 46850
L64071 46850
" />
<path d="M66571 46850
L67071 46850
" />
</g>
<g style="fill:#000000; fill-opacity:0.0; 
stroke:#000000; stroke-width:80; stroke-opacity:1; 
stroke-linecap:round; stroke-linejoin:round;">
<path d="M62220 40500
L63720 40500
" />
</g>
<g style="fill:#000000; fill-opacity:0.0; 
stroke:#000000; stroke-width:100; stroke-opacity:1; 
stroke-linecap:round; stroke-linejoin:round;">
<path d="M63721.1 40499.2 A1250 1250 0.0 1 0 62220 40500 " />
</g>
<g style="fill:#000000; fill-opacity:0.0; 
stroke:#000000; stroke-width:60; stroke-opacity:1; 
stroke-linecap:round; stroke-linejoin:round;">
<circle cx="62970" cy="39500" r="1000" /> 
</g>
<g style="fill:#000000; fill-opacity:0.0; 
stroke:#000000; stroke-width:80; stroke-opacity:1; 
stroke-linecap:round; stroke-linejoin:round;">
<path d="M64900 40500
L66400 40500
" />
</g>
<g style="fill:#000000; fill-opacity:0.0; 
stroke:#000000; stroke-width:100; stroke-opacity:1; 
stroke-linecap:round; stroke-linejoin:round;">
<path d="M66401.1 40499.2 A1250 1250 0.0 1 0 64900 40500 " />
</g>
<g style="fill:#000000; fill-opacity:0.0; 
stroke:#000000; stroke-width:60; stroke-opacity:1; 
stroke-linecap:round; stroke-linejoin:round;">
<circle cx="65650" cy="39500" r="1000" /> 
</g>
<g style="fill:#000000; fill-opacity:0.0; 
stroke:#000000; stroke-width:80; stroke-opacity:1; 
stroke-linecap:round; stroke-linejoin:round;">
<path d="M67650 40500
L69150 40500
" />
</g>
<g style="fill:#000000; fill-opacity:0.0; 
stroke:#000000; stroke-width:100; stroke-opacity:1; 
stroke-linecap:round; stroke-linejoin:round;">
<path d="M69151.1 40499.2 A1250 1250 0.0 1 0 67650 40500 " />
</g>
<g style="fill:#000000; fill-opacity:0.0; 
stroke:#000000; stroke-width:60; stroke-opacity:1; 
stroke-linecap:round; stroke-linejoin:round;">
<circle cx="68400" cy="39500" r="1000" /> 
</g>
<g style="fill:#000000; fill-opacity:0.0; 
stroke:#000000; stroke-width:59.0551; stroke-opacity:1; 
stroke-linecap:round; stroke-linejoin:round;">
<path d="M52807 40684
L52949 41263
" />
<path d="M52949 41263
L53059 40845
" />
<path d="M53059 40845
L53181 41267
" />
<path d="M53181 41267
L53315 40696
" />
<path d="M52248 40956
L52559 40952
" />
<path d="M52559 40952
L52563 40956
" />
<path d="M52563 40956
L52563 40952
" />
<path d="M52579 40672
L52579 41279
" />
<path d="M52229 40668
L52229 41286
" />
<path d="M52229 41286
L52233 41282
" />
<path d="M52012 40708
L51874 40676
" />
<path d="M51874 40676
L51748 40672
" />
<path d="M51748 40672
L51654 40751
" />
<path d="M51654 40751
L51642 40857
" />
<path d="M51642 40857
L51737 40952
" />
<path d="M51737 40952
L51890 41003
" />
<path d="M51890 41003
L51961 41066
" />
<path d="M51961 41066
L51977 41184
" />
<path d="M51977 41184
L51886 41271
" />
<path d="M51886 41271
L51760 41282
" />
<path d="M51760 41282
L51622 41239
" />
<path d="M51213 40668
L51115 40676
" />
<path d="M51115 40676
L51020 40771
" />
<path d="M51020 40771
L50985 40964
" />
<path d="M50985 40964
L50996 41101
" />
<path d="M50996 41101
L51075 41227
" />
<path d="M51075 41227
L51174 41275
" />
<path d="M51174 41275
L51296 41247
" />
<path d="M51296 41247
L51382 41176
" />
<path d="M51382 41176
L51410 40995
" />
<path d="M51410 40995
L51390 40834
" />
<path d="M51390 40834
L51347 40723
" />
<path d="M51347 40723
L51205 40672
" />
<path d="M51449 39991
L51347 40212
" />
<path d="M51347 40212
L51559 40416
" />
<path d="M51559 40416
L51764 40310
" />
<path d="M51764 40310
L51874 40373
" />
<path d="M52441 40365
L52571 40290
" />
<path d="M52571 40290
L52744 40420
" />
<path d="M52744 40420
L52930 40227
" />
<path d="M52930 40227
L52819 40038
" />
<path d="M52819 40038
L52894 39853
" />
<path d="M52894 39853
L53134 39779
" />
<path d="M53134 39779
L53134 39511
" />
<path d="M53134 39511
L52914 39456
" />
<path d="M52914 39456
L52835 39231
" />
<path d="M52835 39231
L52941 39046
" />
<path d="M52941 39046
L52756 38845
" />
<path d="M52756 38845
L52552 38948
" />
<path d="M52552 38948
L52367 38869
" />
<path d="M52367 38869
L52300 38656
" />
<path d="M52300 38656
L52028 38649
" />
<path d="M52028 38649
L51945 38865
" />
<path d="M51945 38865
L51780 38932
" />
<path d="M51780 38932
L51563 38826
" />
<path d="M51563 38826
L51359 39034
" />
<path d="M51359 39034
L51457 39247
" />
<path d="M51457 39247
L51390 39436
" />
<path d="M51390 39436
L51174 39475
" />
<path d="M51174 39475
L51170 39751
" />
<path d="M51170 39751
L51390 39830
" />
<path d="M51390 39830
L51445 39987
" />
<path d="M52288 39979
L52406 39920
" />
<path d="M52406 39920
L52485 39842
" />
<path d="M52485 39842
L52544 39684
" />
<path d="M52544 39684
L52544 39527
" />
<path d="M52544 39527
L52485 39389
" />
<path d="M52485 39389
L52307 39251
" />
<path d="M52307 39251
L52130 39231
" />
<path d="M52130 39231
L51973 39271
" />
<path d="M51973 39271
L51815 39408
" />
<path d="M51815 39408
L51756 39586
" />
<path d="M51756 39586
L51776 39782
" />
<path d="M51776 39782
L51874 39901
" />
<path d="M51874 39901
L52012 39979
" />
<path d="M52012 39979
L51874 40373
" />
<path d="M52288 39979
L52445 40373
" />
</g>
<g style="fill:#000000; fill-opacity:1.0; 
stroke:#000000; stroke-width:0; stroke-opacity:1; 
stroke-linecap:round; stroke-linejoin:round;">
<circle cx="73250" cy="46900" r="393.5" /> 
</g>
<g style="fill:#000000; fill-opacity:1.0; 
stroke:#000000; stroke-width:39.3701; stroke-opacity:1; 
stroke-linecap:round; stroke-linejoin:round;">
</g>
<g style="fill:#000000; fill-opacity:1.0; 
stroke:#000000; stroke-width:0; stroke-opacity:1; 
stroke-linecap:round; stroke-linejoin:round;">
<circle cx="69250" cy="46900" r="393.5" /> 
</g>
<g style="fill:#000000; fill-opacity:1.0; 
stroke:#000000; stroke-width:39.3701; stroke-opacity:1; 
stroke-linecap:round; stroke-linejoin:round;">
</g>
<g style="fill:#000000; fill-opacity:1.0; 
stroke:#000000; stroke-width:0; stroke-opacity:1; 
stroke-linecap:round; stroke-linejoin:round;">
<circle cx="63600" cy="44700" r="393.5" /> 
</g>
<g style="fill:#000000; fill-opacity:1.0; 
stroke:#000000; stroke-width:39.3701; stroke-opacity:1; 
stroke-linecap:round; stroke-linejoin:round;">
</g>
<g style="fill:#000000; fill-opacity:1.0; 
stroke:#000000; stroke-width:0; stroke-opacity:1; 
stroke-linecap:round; stroke-linejoin:round;">
<circle cx="59600" cy="44700" r="393.5" /> 
</g>
<g style="fill:#000000; fill-opacity:1.0; 
stroke:#000000; stroke-width:39.3701; stroke-opacity:1; 
stroke-linecap:round; stroke-linejoin:round;">
</g>
<g style="fill:#000000; fill-opacity:1.0; 
stroke:#000000; stroke-width:0; stroke-opacity:1; 
stroke-linecap:round; stroke-linejoin:round;">
<circle cx="63600" cy="45650" r="393.5" /> 
</g>
<g style="fill:#000000; fill-opacity:1.0; 
stroke:#000000; stroke-width:39.3701; stroke-opacity:1; 
stroke-linecap:round; stroke-linejoin:round;">
</g>
<g style="fill:#000000; fill-opacity:1.0; 
stroke:#000000; stroke-width:0; stroke-opacity:1; 
stroke-linecap:round; stroke-linejoin:round;">
<circle cx="59600" cy="45650" r="393.5" /> 
</g>
<g style="fill:#000000; fill-opacity:1.0; 
stroke:#000000; stroke-width:39.3701; stroke-opacity:1; 
stroke-linecap:round; stroke-linejoin:round;">
</g>
<g style="fill:#000000; fill-opacity:1.0; 
stroke:#000000; stroke-width:600; stroke-opacity:1; 
stroke-linecap:round; stroke-linejoin:round;">
</g>
<g style="fill:#000000; fill-opacity:0.0; 
stroke:#000000; stroke-width:600; stroke-opacity:1; 
stroke-linecap:round; stroke-linejoin:round;">
<path d="M74984 53452
L74984 53052
" />
<path d="M73984 53452
L73984 53052
" />
<path d="M72984 53452
L72984 53052
" />
<path d="M69984 53452
L69984 53052
" />
<path d="M70984 53452
L70984 53052
" />
<path d="M71984 53452
L71984 53052
" />
<path d="M67984 53452
L67984 53052
" />
<path d="M66984 53452
L66984 53052
" />
<path d="M65984 53452
L65984 53052
" />
<path d="M63984 53452
L63984 53052
" />
<path d="M62984 53452
L62984 53052
" />
<path d="M74984 34452
L74984 34052
" />
<path d="M73984 34452
L73984 34052
" />
<path d="M72984 34452
L72984 34052
" />
<path d="M71984 34452
L71984 34052
" />
<path d="M70984 34452
L70984 34052
" />
<path d="M69984 34452
L69984 34052
" />
<path d="M68984 34452
L68984 34052
" />
<path d="M67984 34452
L67984 34052
" />
<path d="M66384 34452
L66384 34052
" />
<path d="M65384 34452
L65384 34052
" />
<path d="M64384 34452
L64384 34052
" />
<path d="M63384 34452
L63384 34052
" />
<path d="M62384 34452
L62384 34052
" />
<path d="M61384 34452
L61384 34052
" />
<path d="M60384 34452
L60384 34052
" />
<path d="M59384 34452
L59384 34052
" />
<path d="M64984 53452
L64984 53052
" />
</g>
<g style="fill:#000000; fill-opacity:1.0; 
stroke:#000000; stroke-width:0; stroke-opacity:1; 
stroke-linecap:round; stroke-linejoin:round;">
<circle cx="75984" cy="51252" r="625" /> 
</g>
<g style="fill:#000000; fill-opacity:1.0; 
stroke:#000000; stroke-width:39.3701; stroke-opacity:1; 
stroke-linecap:round; stroke-linejoin:round;">
</g>
<g style="fill:#000000; fill-opacity:1.0; 
stroke:#000000; stroke-width:0; stroke-opacity:1; 
stroke-linecap:round; stroke-linejoin:round;">
<circle cx="75984" cy="40252" r="625" /> 
</g>
<g style="fill:#000000; fill-opacity:1.0; 
stroke:#000000; stroke-width:39.3701; stroke-opacity:1; 
stroke-linecap:round; stroke-linejoin:round;">
</g>
<g style="fill:#000000; fill-opacity:1.0; 
stroke:#000000; stroke-width:0; stroke-opacity:1; 
stroke-linecap:round; stroke-linejoin:round;">
<circle cx="55984" cy="34252" r="625" /> 
</g>
<g style="fill:#000000; fill-opacity:1.0; 
stroke:#000000; stroke-width:39.3701; stroke-opacity:1; 
stroke-linecap:round; stroke-linejoin:round;">
</g>
<g style="fill:#000000; fill-opacity:1.0; 
stroke:#000000; stroke-width:0; stroke-opacity:1; 
stroke-linecap:round; stroke-linejoin:round;">
<circle cx="55484" cy="53252" r="625" /> 
</g>
<g style="fill:#000000; fill-opacity:1.0; 
stroke:#000000; stroke-width:39.3701; stroke-opacity:1; 
stroke-linecap:round; stroke-linejoin:round;">
</g>
<g style="fill:#000000; fill-opacity:1.0; 
stroke:#000000; stroke-width:600; stroke-opacity:1; 
stroke-linecap:round; stroke-linejoin:round;">
</g>
<g style="fill:#000000; fill-opacity:0.0; 
stroke:#000000; stroke-width:600; stroke-opacity:1; 
stroke-linecap:round; stroke-linejoin:round;">
<path d="M58384 34452
L58384 34052
" />
<path d="M57384 34452
L57384 34052
" />
<path d="M61984 53452
L61984 53052
" />
<path d="M60984 53452
L60984 53052
" />
</g>
<g style="fill:#000000; fill-opacity:1.0; 
stroke:#000000; stroke-width:0; stroke-opacity:1; 
stroke-linecap:round; stroke-linejoin:round;">
<circle cx="74984" cy="42252" r="300" /> 
</g>
<g style="fill:#000000; fill-opacity:1.0; 
stroke:#000000; stroke-width:39.3701; stroke-opacity:1; 
stroke-linecap:round; stroke-linejoin:round;">
</g>
<g style="fill:#000000; fill-opacity:1.0; 
stroke:#000000; stroke-width:0; stroke-opacity:1; 
stroke-linecap:round; stroke-linejoin:round;">
<circle cx="75984" cy="42252" r="300" /> 
</g>
<g style="fill:#000000; fill-opacity:1.0; 
stroke:#000000; stroke-width:39.3701; stroke-opacity:1; 
stroke-linecap:round; stroke-linejoin:round;">
</g>
<g style="fill:#000000; fill-opacity:1.0; 
stroke:#000000; stroke-width:0; stroke-opacity:1; 
stroke-linecap:round; stroke-linejoin:round;">
<circle cx="74984" cy="43252" r="300" /> 
</g>
<g style="fill:#000000; fill-opacity:1.0; 
stroke:#000000; stroke-width:39.3701; stroke-opacity:1; 
stroke-linecap:round; stroke-linejoin:round;">
</g>
<g style="fill:#000000; fill-opacity:1.0; 
stroke:#000000; stroke-width:0; stroke-opacity:1; 
stroke-linecap:round; stroke-linejoin:round;">
<circle cx="75984" cy="43252" r="300" /> 
</g>
<g style="fill:#000000; fill-opacity:1.0; 
stroke:#000000; stroke-width:39.3701; stroke-opacity:1; 
stroke-linecap:round; stroke-linejoin:round;">
</g>
<g style="fill:#000000; fill-opacity:1.0; 
stroke:#000000; stroke-width:0; stroke-opacity:1; 
stroke-linecap:round; stroke-linejoin:round;">
<circle cx="74984" cy="44252" r="300" /> 
</g>
<g style="fill:#000000; fill-opacity:1.0; 
stroke:#000000; stroke-width:39.3701; stroke-opacity:1; 
stroke-linecap:round; stroke-linejoin:round;">
</g>
<g style="fill:#000000; fill-opacity:1.0; 
stroke:#000000; stroke-width:0; stroke-opacity:1; 
stroke-linecap:round; stroke-linejoin:round;">
<circle cx="75984" cy="44252" r="300" /> 
</g>
<g style="fill:#000000; fill-opacity:1.0; 
stroke:#000000; stroke-width:39.3701; stroke-opacity:1; 
stroke-linecap:round; stroke-linejoin:round;">
</g>
<g style="fill:#000000; fill-opacity:1.0; 
stroke:#000000; stroke-width:0; stroke-opacity:1; 
stroke-linecap:round; stroke-linejoin:round;">
<circle cx="54710" cy="48468.9" r="629.921" /> 
</g>
<g style="fill:#000000; fill-opacity:1.0; 
stroke:#000000; stroke-width:39.3701; stroke-opacity:1; 
stroke-linecap:round; stroke-linejoin:round;">
</g>
<g style="fill:#000000; fill-opacity:1.0; 
stroke:#000000; stroke-width:0; stroke-opacity:1; 
stroke-linecap:round; stroke-linejoin:round;">
<circle cx="54710" cy="45083.1" r="629.921" /> 
</g>
<g style="fill:#000000; fill-opacity:1.0; 
stroke:#000000; stroke-width:39.3701; stroke-opacity:1; 
stroke-linecap:round; stroke-linejoin:round;">
</g>
<g style="fill:#000000; fill-opacity:1.0; 
stroke:#000000; stroke-width:0; stroke-opacity:1; 
stroke-linecap:round; stroke-linejoin:round;">
<circle cx="57465.9" cy="46776" r="354.331" /> 
</g>
<g style="fill:#000000; fill-opacity:1.0; 
stroke:#000000; stroke-width:39.3701; stroke-opacity:1; 
stroke-linecap:round; stroke-linejoin:round;">
</g>
<g style="fill:#000000; fill-opacity:1.0; 
stroke:#000000; stroke-width:0; stroke-opacity:1; 
stroke-linecap:round; stroke-linejoin:round;">
<circle cx="57465.9" cy="47760.3" r="354.331" /> 
</g>
<g style="fill:#000000; fill-opacity:1.0; 
stroke:#000000; stroke-width:39.3701; stroke-opacity:1; 
stroke-linecap:round; stroke-linejoin:round;">
</g>
<g style="fill:#000000; fill-opacity:1.0; 
stroke:#000000; stroke-width:0; stroke-opacity:1; 
stroke-linecap:round; stroke-linejoin:round;">
<circle cx="57465.9" cy="45791.7" r="354.331" /> 
</g>
<g style="fill:#000000; fill-opacity:1.0; 
stroke:#000000; stroke-width:39.3701; stroke-opacity:1; 
stroke-linecap:round; stroke-linejoin:round;">
</g>
<g style="fill:#000000; fill-opacity:1.0; 
stroke:#000000; stroke-width:0; stroke-opacity:1; 
stroke-linecap:round; stroke-linejoin:round;">
<circle cx="55963.9" cy="38142" r="256" /> 
</g>
<g style="fill:#000000; fill-opacity:1.0; 
stroke:#000000; stroke-width:39.3701; stroke-opacity:1; 
stroke-linecap:round; stroke-linejoin:round;">
</g>
<g style="fill:#000000; fill-opacity:1.0; 
stroke:#000000; stroke-width:0; stroke-opacity:1; 
stroke-linecap:round; stroke-linejoin:round;">
<circle cx="55963.9" cy="35780" r="256" /> 
</g>
<g style="fill:#000000; fill-opacity:1.0; 
stroke:#000000; stroke-width:39.3701; stroke-opacity:1; 
stroke-linecap:round; stroke-linejoin:round;">
</g>
<g style="fill:#000000; fill-opacity:1.0; 
stroke:#000000; stroke-width:0; stroke-opacity:1; 
stroke-linecap:round; stroke-linejoin:round;">
<polyline style="fill-rule:evenodd;"
points="55707,36311
56219,36311
56219,36823
55707,36823
55707,36311
" /> 
<circle cx="55963.9" cy="37355" r="256" /> 
</g>
<g style="fill:#000000; fill-opacity:1.0; 
stroke:#000000; stroke-width:39.3701; stroke-opacity:1; 
stroke-linecap:round; stroke-linejoin:round;">
</g>
<g style="fill:#000000; fill-opacity:1.0; 
stroke:#000000; stroke-width:0; stroke-opacity:1; 
stroke-linecap:round; stroke-linejoin:round;">
<circle cx="54690" cy="43620" r="629.921" /> 
</g>
<g style="fill:#000000; fill-opacity:1.0; 
stroke:#000000; stroke-width:39.3701; stroke-opacity:1; 
stroke-linecap:round; stroke-linejoin:round;">
</g>
<g style="fill:#000000; fill-opacity:1.0; 
stroke:#000000; stroke-width:0; stroke-opacity:1; 
stroke-linecap:round; stroke-linejoin:round;">
<circle cx="54690" cy="40234.2" r="629.921" /> 
</g>
<g style="fill:#000000; fill-opacity:1.0; 
stroke:#000000; stroke-width:39.3701; stroke-opacity:1; 
stroke-linecap:round; stroke-linejoin:round;">
</g>
<g style="fill:#000000; fill-opacity:1.0; 
stroke:#000000; stroke-width:0; stroke-opacity:1; 
stroke-linecap:round; stroke-linejoin:round;">
<circle cx="57445.9" cy="41927.1" r="354.331" /> 
</g>
<g style="fill:#000000; fill-opacity:1.0; 
stroke:#000000; stroke-width:39.3701; stroke-opacity:1; 
stroke-linecap:round; stroke-linejoin:round;">
</g>
<g style="fill:#000000; fill-opacity:1.0; 
stroke:#000000; stroke-width:0; stroke-opacity:1; 
stroke-linecap:round; stroke-linejoin:round;">
<circle cx="57445.9" cy="42911.3" r="354.331" /> 
</g>
<g style="fill:#000000; fill-opacity:1.0; 
stroke:#000000; stroke-width:39.3701; stroke-opacity:1; 
stroke-linecap:round; stroke-linejoin:round;">
</g>
<g style="fill:#000000; fill-opacity:1.0; 
stroke:#000000; stroke-width:0; stroke-opacity:1; 
stroke-linecap:round; stroke-linejoin:round;">
<circle cx="57445.9" cy="40942.8" r="354.331" /> 
</g>
<g style="fill:#000000; fill-opacity:1.0; 
stroke:#000000; stroke-width:39.3701; stroke-opacity:1; 
stroke-linecap:round; stroke-linejoin:round;">
</g>
<g style="fill:#000000; fill-opacity:1.0; 
stroke:#000000; stroke-width:0; stroke-opacity:1; 
stroke-linecap:round; stroke-linejoin:round;">
<circle cx="50694" cy="34858" r="393.701" /> 
</g>
<g style="fill:#000000; fill-opacity:1.0; 
stroke:#000000; stroke-width:39.3701; stroke-opacity:1; 
stroke-linecap:round; stroke-linejoin:round;">
</g>
<g style="fill:#000000; fill-opacity:1.0; 
stroke:#000000; stroke-width:0; stroke-opacity:1; 
stroke-linecap:round; stroke-linejoin:round;">
<circle cx="53686" cy="34858" r="393.701" /> 
</g>
<g style="fill:#000000; fill-opacity:1.0; 
stroke:#000000; stroke-width:39.3701; stroke-opacity:1; 
stroke-linecap:round; stroke-linejoin:round;">
</g>
<g style="fill:#000000; fill-opacity:1.0; 
stroke:#000000; stroke-width:0; stroke-opacity:1; 
stroke-linecap:round; stroke-linejoin:round;">
<circle cx="54302" cy="50160" r="393.5" /> 
</g>
<g style="fill:#000000; fill-opacity:1.0; 
stroke:#000000; stroke-width:39.3701; stroke-opacity:1; 
stroke-linecap:round; stroke-linejoin:round;">
</g>
<g style="fill:#000000; fill-opacity:1.0; 
stroke:#000000; stroke-width:0; stroke-opacity:1; 
stroke-linecap:round; stroke-linejoin:round;">
<circle cx="58302" cy="50160" r="393.5" /> 
</g>
<g style="fill:#000000; fill-opacity:1.0; 
stroke:#000000; stroke-width:39.3701; stroke-opacity:1; 
stroke-linecap:round; stroke-linejoin:round;">
</g>
<g style="fill:#000000; fill-opacity:1.0; 
stroke:#000000; stroke-width:0; stroke-opacity:1; 
stroke-linecap:round; stroke-linejoin:round;">
<circle cx="58290" cy="51206" r="393.5" /> 
</g>
<g style="fill:#000000; fill-opacity:1.0; 
stroke:#000000; stroke-width:39.3701; stroke-opacity:1; 
stroke-linecap:round; stroke-linejoin:round;">
</g>
<g style="fill:#000000; fill-opacity:1.0; 
stroke:#000000; stroke-width:0; stroke-opacity:1; 
stroke-linecap:round; stroke-linejoin:round;">
<circle cx="54290" cy="51206" r="393.5" /> 
</g>
<g style="fill:#000000; fill-opacity:1.0; 
stroke:#000000; stroke-width:39.3701; stroke-opacity:1; 
stroke-linecap:round; stroke-linejoin:round;">
</g>
<g style="fill:#000000; fill-opacity:1.0; 
stroke:#000000; stroke-width:0; stroke-opacity:1; 
stroke-linecap:round; stroke-linejoin:round;">
<circle cx="63611" cy="41617" r="393.5" /> 
</g>
<g style="fill:#000000; fill-opacity:1.0; 
stroke:#000000; stroke-width:39.3701; stroke-opacity:1; 
stroke-linecap:round; stroke-linejoin:round;">
</g>
<g style="fill:#000000; fill-opacity:1.0; 
stroke:#000000; stroke-width:0; stroke-opacity:1; 
stroke-linecap:round; stroke-linejoin:round;">
<circle cx="59611" cy="41617" r="393.5" /> 
</g>
<g style="fill:#000000; fill-opacity:1.0; 
stroke:#000000; stroke-width:39.3701; stroke-opacity:1; 
stroke-linecap:round; stroke-linejoin:round;">
</g>
<g style="fill:#000000; fill-opacity:1.0; 
stroke:#000000; stroke-width:0; stroke-opacity:1; 
stroke-linecap:round; stroke-linejoin:round;">
<circle cx="63611" cy="42668.2" r="393.5" /> 
</g>
<g style="fill:#000000; fill-opacity:1.0; 
stroke:#000000; stroke-width:39.3701; stroke-opacity:1; 
stroke-linecap:round; stroke-linejoin:round;">
</g>
<g style="fill:#000000; fill-opacity:1.0; 
stroke:#000000; stroke-width:0; stroke-opacity:1; 
stroke-linecap:round; stroke-linejoin:round;">
<circle cx="59611" cy="42668.2" r="393.5" /> 
</g>
<g style="fill:#000000; fill-opacity:1.0; 
stroke:#000000; stroke-width:39.3701; stroke-opacity:1; 
stroke-linecap:round; stroke-linejoin:round;">
</g>
<g style="fill:#000000; fill-opacity:1.0; 
stroke:#000000; stroke-width:0; stroke-opacity:1; 
stroke-linecap:round; stroke-linejoin:round;">
<circle cx="63611" cy="43677" r="393.5" /> 
</g>
<g style="fill:#000000; fill-opacity:1.0; 
stroke:#000000; stroke-width:39.3701; stroke-opacity:1; 
stroke-linecap:round; stroke-linejoin:round;">
</g>
<g style="fill:#000000; fill-opacity:1.0; 
stroke:#000000; stroke-width:0; stroke-opacity:1; 
stroke-linecap:round; stroke-linejoin:round;">
<circle cx="59611" cy="43677" r="393.5" /> 
</g>
<g style="fill:#000000; fill-opacity:1.0; 
stroke:#000000; stroke-width:39.3701; stroke-opacity:1; 
stroke-linecap:round; stroke-linejoin:round;">
</g>
<g style="fill:#000000; fill-opacity:1.0; 
stroke:#000000; stroke-width:0; stroke-opacity:1; 
stroke-linecap:round; stroke-linejoin:round;">
<circle cx="57264" cy="35870" r="393.5" /> 
</g>
<g style="fill:#000000; fill-opacity:1.0; 
stroke:#000000; stroke-width:39.3701; stroke-opacity:1; 
stroke-linecap:round; stroke-linejoin:round;">
</g>
<g style="fill:#000000; fill-opacity:1.0; 
stroke:#000000; stroke-width:0; stroke-opacity:1; 
stroke-linecap:round; stroke-linejoin:round;">
<circle cx="61264" cy="35870" r="393.5" /> 
</g>
<g style="fill:#000000; fill-opacity:1.0; 
stroke:#000000; stroke-width:39.3701; stroke-opacity:1; 
stroke-linecap:round; stroke-linejoin:round;">
</g>
<g style="fill:#000000; fill-opacity:1.0; 
stroke:#000000; stroke-width:0; stroke-opacity:1; 
stroke-linecap:round; stroke-linejoin:round;">
<circle cx="57266" cy="36881" r="393.5" /> 
</g>
<g style="fill:#000000; fill-opacity:1.0; 
stroke:#000000; stroke-width:39.3701; stroke-opacity:1; 
stroke-linecap:round; stroke-linejoin:round;">
</g>
<g style="fill:#000000; fill-opacity:1.0; 
stroke:#000000; stroke-width:0; stroke-opacity:1; 
stroke-linecap:round; stroke-linejoin:round;">
<circle cx="61266" cy="36881" r="393.5" /> 
</g>
<g style="fill:#000000; fill-opacity:1.0; 
stroke:#000000; stroke-width:39.3701; stroke-opacity:1; 
stroke-linecap:round; stroke-linejoin:round;">
</g>
<g style="fill:#000000; fill-opacity:1.0; 
stroke:#000000; stroke-width:0; stroke-opacity:1; 
stroke-linecap:round; stroke-linejoin:round;">
<circle cx="57266" cy="37916" r="393.5" /> 
</g>
<g style="fill:#000000; fill-opacity:1.0; 
stroke:#000000; stroke-width:39.3701; stroke-opacity:1; 
stroke-linecap:round; stroke-linejoin:round;">
</g>
<g style="fill:#000000; fill-opacity:1.0; 
stroke:#000000; stroke-width:0; stroke-opacity:1; 
stroke-linecap:round; stroke-linejoin:round;">
<circle cx="61266" cy="37916" r="393.5" /> 
</g>
<g style="fill:#000000; fill-opacity:1.0; 
stroke:#000000; stroke-width:39.3701; stroke-opacity:1; 
stroke-linecap:round; stroke-linejoin:round;">
</g>
<g style="fill:#000000; fill-opacity:1.0; 
stroke:#000000; stroke-width:0; stroke-opacity:1; 
stroke-linecap:round; stroke-linejoin:round;">
<circle cx="71625" cy="45500" r="393.5" /> 
</g>
<g style="fill:#000000; fill-opacity:1.0; 
stroke:#000000; stroke-width:39.3701; stroke-opacity:1; 
stroke-linecap:round; stroke-linejoin:round;">
</g>
<g style="fill:#000000; fill-opacity:1.0; 
stroke:#000000; stroke-width:0; stroke-opacity:1; 
stroke-linecap:round; stroke-linejoin:round;">
<circle cx="67625" cy="45500" r="393.5" /> 
</g>
<g style="fill:#000000; fill-opacity:1.0; 
stroke:#000000; stroke-width:39.3701; stroke-opacity:1; 
stroke-linecap:round; stroke-linejoin:round;">
</g>
<g style="fill:#000000; fill-opacity:1.0; 
stroke:#000000; stroke-width:0; stroke-opacity:1; 
stroke-linecap:round; stroke-linejoin:round;">
<circle cx="63571" cy="46850" r="393.5" /> 
</g>
<g style="fill:#000000; fill-opacity:1.0; 
stroke:#000000; stroke-width:39.3701; stroke-opacity:1; 
stroke-linecap:round; stroke-linejoin:round;">
</g>
<g style="fill:#000000; fill-opacity:1.0; 
stroke:#000000; stroke-width:0; stroke-opacity:1; 
stroke-linecap:round; stroke-linejoin:round;">
<circle cx="67571" cy="46850" r="393.5" /> 
</g>
<g style="fill:#000000; fill-opacity:1.0; 
stroke:#000000; stroke-width:39.3701; stroke-opacity:1; 
stroke-linecap:round; stroke-linejoin:round;">
</g> 
</svg>
