<?xml version="1.0" standalone="no"?>
 <!DOCTYPE svg PUBLIC "-//W3C//DTD SVG 1.1//EN" 
 "http://www.w3.org/Graphics/SVG/1.1/DTD/svg11.dtd"> 
<svg xmlns="http://www.w3.org/2000/svg" version="1.1" 
    width="29.7002cm" height="21.0007cm" viewBox="0 0 116930 82680 ">
<title>SVG Picture created as bats-F.SilkS.svg date 2016/05/14 23:13:43 </title>
  <desc>Picture generated by PCBNEW </desc>
<g style="fill:#000000; fill-opacity:1;stroke:#000000; stroke-opacity:1;
stroke-linecap:round; stroke-linejoin:round; "
 transform="translate(0 0) scale(1 1)">
</g>
<g style="fill:#000000; fill-opacity:0.0; 
stroke:#000000; stroke-width:-0.000393701; stroke-opacity:1; 
stroke-linecap:round; stroke-linejoin:round;">
</g>
<g style="fill:#000000; fill-opacity:0.0; 
stroke:#000000; stroke-width:39.3701; stroke-opacity:1; 
stroke-linecap:round; stroke-linejoin:round;">
</g>
<g style="fill:#000000; fill-opacity:0.0; 
stroke:#000000; stroke-width:59.0551; stroke-opacity:1; 
stroke-linecap:round; stroke-linejoin:round;">
<rect x="69685.9" y="65357.2" width="42519.7" height="12598.4" rx="0" />
</g>
<g style="fill:#000000; fill-opacity:0.0; 
stroke:#000000; stroke-width:39.3701; stroke-opacity:1; 
stroke-linecap:round; stroke-linejoin:round;">
</g>
<g style="fill:#000000; fill-opacity:0.0; 
stroke:#000000; stroke-width:59.0551; stroke-opacity:1; 
stroke-linecap:round; stroke-linejoin:round;">
<rect x="3937.01" y="3937.01" width="109056" height="74806" rx="0" />
</g>
<g style="fill:#000000; fill-opacity:0.0; 
stroke:#000000; stroke-width:39.3701; stroke-opacity:1; 
stroke-linecap:round; stroke-linejoin:round;">
</g>
<g style="fill:#000000; fill-opacity:0.0; 
stroke:#000000; stroke-width:59.0551; stroke-opacity:1; 
stroke-linecap:round; stroke-linejoin:round;">
<rect x="4724.41" y="4724.41" width="107481" height="73231.2" rx="0" />
</g>
<g style="fill:#000000; fill-opacity:0.0; 
stroke:#000000; stroke-width:39.3701; stroke-opacity:1; 
stroke-linecap:round; stroke-linejoin:round;">
</g>
<g style="fill:#000000; fill-opacity:0.0; 
stroke:#000000; stroke-width:59.0551; stroke-opacity:1; 
stroke-linecap:round; stroke-linejoin:round;">
<path d="M23622 4724
L23622 3937
" />
</g>
<g style="fill:#000000; fill-opacity:0.0; 
stroke:#000000; stroke-width:39.3701; stroke-opacity:1; 
stroke-linecap:round; stroke-linejoin:round;">
</g>
<g style="fill:#000000; fill-opacity:0.0; 
stroke:#000000; stroke-width:59.0551; stroke-opacity:1; 
stroke-linecap:round; stroke-linejoin:round;">
<path d="M43307 4724
L43307 3937
" />
</g>
<g style="fill:#000000; fill-opacity:0.0; 
stroke:#000000; stroke-width:39.3701; stroke-opacity:1; 
stroke-linecap:round; stroke-linejoin:round;">
</g>
<g style="fill:#000000; fill-opacity:0.0; 
stroke:#000000; stroke-width:59.0551; stroke-opacity:1; 
stroke-linecap:round; stroke-linejoin:round;">
<path d="M62992 4724
L62992 3937
" />
</g>
<g style="fill:#000000; fill-opacity:0.0; 
stroke:#000000; stroke-width:39.3701; stroke-opacity:1; 
stroke-linecap:round; stroke-linejoin:round;">
</g>
<g style="fill:#000000; fill-opacity:0.0; 
stroke:#000000; stroke-width:59.0551; stroke-opacity:1; 
stroke-linecap:round; stroke-linejoin:round;">
<path d="M82677 4724
L82677 3937
" />
</g>
<g style="fill:#000000; fill-opacity:0.0; 
stroke:#000000; stroke-width:39.3701; stroke-opacity:1; 
stroke-linecap:round; stroke-linejoin:round;">
</g>
<g style="fill:#000000; fill-opacity:0.0; 
stroke:#000000; stroke-width:59.0551; stroke-opacity:1; 
stroke-linecap:round; stroke-linejoin:round;">
<path d="M102362 4724
L102362 3937
" />
</g>
<g style="fill:#000000; fill-opacity:0.0; 
stroke:#000000; stroke-width:39.3701; stroke-opacity:1; 
stroke-linecap:round; stroke-linejoin:round;">
</g>
<g style="fill:#000000; fill-opacity:0.0; 
stroke:#000000; stroke-width:59.0551; stroke-opacity:1; 
stroke-linecap:round; stroke-linejoin:round;">
<path d="M14199 4562
L13906 4562
" />
<path d="M14052 4562
L14052 4050
L14004 4123
L13955 4172
L13906 4196
" />
</g>
<g style="fill:#000000; fill-opacity:0.0; 
stroke:#000000; stroke-width:39.3701; stroke-opacity:1; 
stroke-linecap:round; stroke-linejoin:round;">
</g>
<g style="fill:#000000; fill-opacity:0.0; 
stroke:#000000; stroke-width:59.0551; stroke-opacity:1; 
stroke-linecap:round; stroke-linejoin:round;">
<path d="M33591 4099
L33615 4074
L33664 4050
L33786 4050
L33835 4074
L33859 4099
L33884 4147
L33884 4196
L33859 4269
L33567 4562
L33884 4562
" />
</g>
<g style="fill:#000000; fill-opacity:0.0; 
stroke:#000000; stroke-width:39.3701; stroke-opacity:1; 
stroke-linecap:round; stroke-linejoin:round;">
</g>
<g style="fill:#000000; fill-opacity:0.0; 
stroke:#000000; stroke-width:59.0551; stroke-opacity:1; 
stroke-linecap:round; stroke-linejoin:round;">
<path d="M53252 4050
L53569 4050
L53398 4245
L53471 4245
L53520 4269
L53544 4294
L53569 4342
L53569 4464
L53544 4513
L53520 4537
L53471 4562
L53325 4562
L53276 4537
L53252 4513
" />
</g>
<g style="fill:#000000; fill-opacity:0.0; 
stroke:#000000; stroke-width:39.3701; stroke-opacity:1; 
stroke-linecap:round; stroke-linejoin:round;">
</g>
<g style="fill:#000000; fill-opacity:0.0; 
stroke:#000000; stroke-width:59.0551; stroke-opacity:1; 
stroke-linecap:round; stroke-linejoin:round;">
<path d="M73205 4221
L73205 4562
" />
<path d="M73083 4026
L72961 4391
L73278 4391
" />
</g>
<g style="fill:#000000; fill-opacity:0.0; 
stroke:#000000; stroke-width:39.3701; stroke-opacity:1; 
stroke-linecap:round; stroke-linejoin:round;">
</g>
<g style="fill:#000000; fill-opacity:0.0; 
stroke:#000000; stroke-width:59.0551; stroke-opacity:1; 
stroke-linecap:round; stroke-linejoin:round;">
<path d="M92914 4050
L92671 4050
L92646 4294
L92671 4269
L92719 4245
L92841 4245
L92890 4269
L92914 4294
L92939 4342
L92939 4464
L92914 4513
L92890 4537
L92841 4562
L92719 4562
L92671 4537
L92646 4513
" />
</g>
<g style="fill:#000000; fill-opacity:0.0; 
stroke:#000000; stroke-width:39.3701; stroke-opacity:1; 
stroke-linecap:round; stroke-linejoin:round;">
</g>
<g style="fill:#000000; fill-opacity:0.0; 
stroke:#000000; stroke-width:59.0551; stroke-opacity:1; 
stroke-linecap:round; stroke-linejoin:round;">
<path d="M112575 4050
L112477 4050
L112429 4074
L112404 4099
L112356 4172
L112331 4269
L112331 4464
L112356 4513
L112380 4537
L112429 4562
L112526 4562
L112575 4537
L112599 4513
L112624 4464
L112624 4342
L112599 4294
L112575 4269
L112526 4245
L112429 4245
L112380 4269
L112356 4294
L112331 4342
" />
</g>
<g style="fill:#000000; fill-opacity:0.0; 
stroke:#000000; stroke-width:39.3701; stroke-opacity:1; 
stroke-linecap:round; stroke-linejoin:round;">
</g>
<g style="fill:#000000; fill-opacity:0.0; 
stroke:#000000; stroke-width:59.0551; stroke-opacity:1; 
stroke-linecap:round; stroke-linejoin:round;">
<path d="M23622 77955
L23622 78742
" />
</g>
<g style="fill:#000000; fill-opacity:0.0; 
stroke:#000000; stroke-width:39.3701; stroke-opacity:1; 
stroke-linecap:round; stroke-linejoin:round;">
</g>
<g style="fill:#000000; fill-opacity:0.0; 
stroke:#000000; stroke-width:59.0551; stroke-opacity:1; 
stroke-linecap:round; stroke-linejoin:round;">
<path d="M43307 77955
L43307 78742
" />
</g>
<g style="fill:#000000; fill-opacity:0.0; 
stroke:#000000; stroke-width:39.3701; stroke-opacity:1; 
stroke-linecap:round; stroke-linejoin:round;">
</g>
<g style="fill:#000000; fill-opacity:0.0; 
stroke:#000000; stroke-width:59.0551; stroke-opacity:1; 
stroke-linecap:round; stroke-linejoin:round;">
<path d="M62992 77955
L62992 78742
" />
</g>
<g style="fill:#000000; fill-opacity:0.0; 
stroke:#000000; stroke-width:39.3701; stroke-opacity:1; 
stroke-linecap:round; stroke-linejoin:round;">
</g>
<g style="fill:#000000; fill-opacity:0.0; 
stroke:#000000; stroke-width:59.0551; stroke-opacity:1; 
stroke-linecap:round; stroke-linejoin:round;">
<path d="M82677 77955
L82677 78742
" />
</g>
<g style="fill:#000000; fill-opacity:0.0; 
stroke:#000000; stroke-width:39.3701; stroke-opacity:1; 
stroke-linecap:round; stroke-linejoin:round;">
</g>
<g style="fill:#000000; fill-opacity:0.0; 
stroke:#000000; stroke-width:59.0551; stroke-opacity:1; 
stroke-linecap:round; stroke-linejoin:round;">
<path d="M102362 77955
L102362 78742
" />
</g>
<g style="fill:#000000; fill-opacity:0.0; 
stroke:#000000; stroke-width:39.3701; stroke-opacity:1; 
stroke-linecap:round; stroke-linejoin:round;">
</g>
<g style="fill:#000000; fill-opacity:0.0; 
stroke:#000000; stroke-width:59.0551; stroke-opacity:1; 
stroke-linecap:round; stroke-linejoin:round;">
<path d="M14199 78580
L13906 78580
" />
<path d="M14052 78580
L14052 78069
L14004 78142
L13955 78190
L13906 78215
" />
</g>
<g style="fill:#000000; fill-opacity:0.0; 
stroke:#000000; stroke-width:39.3701; stroke-opacity:1; 
stroke-linecap:round; stroke-linejoin:round;">
</g>
<g style="fill:#000000; fill-opacity:0.0; 
stroke:#000000; stroke-width:59.0551; stroke-opacity:1; 
stroke-linecap:round; stroke-linejoin:round;">
<path d="M33591 78117
L33615 78093
L33664 78069
L33786 78069
L33835 78093
L33859 78117
L33884 78166
L33884 78215
L33859 78288
L33567 78580
L33884 78580
" />
</g>
<g style="fill:#000000; fill-opacity:0.0; 
stroke:#000000; stroke-width:39.3701; stroke-opacity:1; 
stroke-linecap:round; stroke-linejoin:round;">
</g>
<g style="fill:#000000; fill-opacity:0.0; 
stroke:#000000; stroke-width:59.0551; stroke-opacity:1; 
stroke-linecap:round; stroke-linejoin:round;">
<path d="M53252 78069
L53569 78069
L53398 78263
L53471 78263
L53520 78288
L53544 78312
L53569 78361
L53569 78483
L53544 78532
L53520 78556
L53471 78580
L53325 78580
L53276 78556
L53252 78532
" />
</g>
<g style="fill:#000000; fill-opacity:0.0; 
stroke:#000000; stroke-width:39.3701; stroke-opacity:1; 
stroke-linecap:round; stroke-linejoin:round;">
</g>
<g style="fill:#000000; fill-opacity:0.0; 
stroke:#000000; stroke-width:59.0551; stroke-opacity:1; 
stroke-linecap:round; stroke-linejoin:round;">
<path d="M73205 78239
L73205 78580
" />
<path d="M73083 78044
L72961 78410
L73278 78410
" />
</g>
<g style="fill:#000000; fill-opacity:0.0; 
stroke:#000000; stroke-width:39.3701; stroke-opacity:1; 
stroke-linecap:round; stroke-linejoin:round;">
</g>
<g style="fill:#000000; fill-opacity:0.0; 
stroke:#000000; stroke-width:59.0551; stroke-opacity:1; 
stroke-linecap:round; stroke-linejoin:round;">
<path d="M92914 78069
L92671 78069
L92646 78312
L92671 78288
L92719 78263
L92841 78263
L92890 78288
L92914 78312
L92939 78361
L92939 78483
L92914 78532
L92890 78556
L92841 78580
L92719 78580
L92671 78556
L92646 78532
" />
</g>
<g style="fill:#000000; fill-opacity:0.0; 
stroke:#000000; stroke-width:39.3701; stroke-opacity:1; 
stroke-linecap:round; stroke-linejoin:round;">
</g>
<g style="fill:#000000; fill-opacity:0.0; 
stroke:#000000; stroke-width:59.0551; stroke-opacity:1; 
stroke-linecap:round; stroke-linejoin:round;">
<path d="M112575 78069
L112477 78069
L112429 78093
L112404 78117
L112356 78190
L112331 78288
L112331 78483
L112356 78532
L112380 78556
L112429 78580
L112526 78580
L112575 78556
L112599 78532
L112624 78483
L112624 78361
L112599 78312
L112575 78288
L112526 78263
L112429 78263
L112380 78288
L112356 78312
L112331 78361
" />
</g>
<g style="fill:#000000; fill-opacity:0.0; 
stroke:#000000; stroke-width:39.3701; stroke-opacity:1; 
stroke-linecap:round; stroke-linejoin:round;">
</g>
<g style="fill:#000000; fill-opacity:0.0; 
stroke:#000000; stroke-width:59.0551; stroke-opacity:1; 
stroke-linecap:round; stroke-linejoin:round;">
<path d="M3937 23622
L4724 23622
" />
</g>
<g style="fill:#000000; fill-opacity:0.0; 
stroke:#000000; stroke-width:39.3701; stroke-opacity:1; 
stroke-linecap:round; stroke-linejoin:round;">
</g>
<g style="fill:#000000; fill-opacity:0.0; 
stroke:#000000; stroke-width:59.0551; stroke-opacity:1; 
stroke-linecap:round; stroke-linejoin:round;">
<path d="M3937 43307
L4724 43307
" />
</g>
<g style="fill:#000000; fill-opacity:0.0; 
stroke:#000000; stroke-width:39.3701; stroke-opacity:1; 
stroke-linecap:round; stroke-linejoin:round;">
</g>
<g style="fill:#000000; fill-opacity:0.0; 
stroke:#000000; stroke-width:59.0551; stroke-opacity:1; 
stroke-linecap:round; stroke-linejoin:round;">
<path d="M3937 62992
L4724 62992
" />
</g>
<g style="fill:#000000; fill-opacity:0.0; 
stroke:#000000; stroke-width:39.3701; stroke-opacity:1; 
stroke-linecap:round; stroke-linejoin:round;">
</g>
<g style="fill:#000000; fill-opacity:0.0; 
stroke:#000000; stroke-width:59.0551; stroke-opacity:1; 
stroke-linecap:round; stroke-linejoin:round;">
<path d="M4208 13864
L4452 13864
" />
<path d="M4160 14011
L4330 13499
L4501 14011
" />
</g>
<g style="fill:#000000; fill-opacity:0.0; 
stroke:#000000; stroke-width:39.3701; stroke-opacity:1; 
stroke-linecap:round; stroke-linejoin:round;">
</g>
<g style="fill:#000000; fill-opacity:0.0; 
stroke:#000000; stroke-width:59.0551; stroke-opacity:1; 
stroke-linecap:round; stroke-linejoin:round;">
<path d="M4367 33428
L4440 33452
L4464 33476
L4489 33525
L4489 33598
L4464 33647
L4440 33671
L4391 33696
L4196 33696
L4196 33184
L4367 33184
L4416 33208
L4440 33233
L4464 33281
L4464 33330
L4440 33379
L4416 33403
L4367 33428
L4196 33428
" />
</g>
<g style="fill:#000000; fill-opacity:0.0; 
stroke:#000000; stroke-width:39.3701; stroke-opacity:1; 
stroke-linecap:round; stroke-linejoin:round;">
</g>
<g style="fill:#000000; fill-opacity:0.0; 
stroke:#000000; stroke-width:59.0551; stroke-opacity:1; 
stroke-linecap:round; stroke-linejoin:round;">
<path d="M4489 53332
L4464 53356
L4391 53381
L4342 53381
L4269 53356
L4221 53308
L4196 53259
L4172 53161
L4172 53088
L4196 52991
L4221 52942
L4269 52893
L4342 52869
L4391 52869
L4464 52893
L4489 52918
" />
</g>
<g style="fill:#000000; fill-opacity:0.0; 
stroke:#000000; stroke-width:39.3701; stroke-opacity:1; 
stroke-linecap:round; stroke-linejoin:round;">
</g>
<g style="fill:#000000; fill-opacity:0.0; 
stroke:#000000; stroke-width:59.0551; stroke-opacity:1; 
stroke-linecap:round; stroke-linejoin:round;">
<path d="M4196 73066
L4196 72554
L4318 72554
L4391 72578
L4440 72627
L4464 72676
L4489 72773
L4489 72846
L4464 72944
L4440 72993
L4391 73041
L4318 73066
L4196 73066
" />
</g>
<g style="fill:#000000; fill-opacity:0.0; 
stroke:#000000; stroke-width:39.3701; stroke-opacity:1; 
stroke-linecap:round; stroke-linejoin:round;">
</g>
<g style="fill:#000000; fill-opacity:0.0; 
stroke:#000000; stroke-width:59.0551; stroke-opacity:1; 
stroke-linecap:round; stroke-linejoin:round;">
<path d="M112992 23622
L112205 23622
" />
</g>
<g style="fill:#000000; fill-opacity:0.0; 
stroke:#000000; stroke-width:39.3701; stroke-opacity:1; 
stroke-linecap:round; stroke-linejoin:round;">
</g>
<g style="fill:#000000; fill-opacity:0.0; 
stroke:#000000; stroke-width:59.0551; stroke-opacity:1; 
stroke-linecap:round; stroke-linejoin:round;">
<path d="M112992 43307
L112205 43307
" />
</g>
<g style="fill:#000000; fill-opacity:0.0; 
stroke:#000000; stroke-width:39.3701; stroke-opacity:1; 
stroke-linecap:round; stroke-linejoin:round;">
</g>
<g style="fill:#000000; fill-opacity:0.0; 
stroke:#000000; stroke-width:59.0551; stroke-opacity:1; 
stroke-linecap:round; stroke-linejoin:round;">
<path d="M112992 62992
L112205 62992
" />
</g>
<g style="fill:#000000; fill-opacity:0.0; 
stroke:#000000; stroke-width:39.3701; stroke-opacity:1; 
stroke-linecap:round; stroke-linejoin:round;">
</g>
<g style="fill:#000000; fill-opacity:0.0; 
stroke:#000000; stroke-width:59.0551; stroke-opacity:1; 
stroke-linecap:round; stroke-linejoin:round;">
<path d="M112477 13864
L112721 13864
" />
<path d="M112428 14011
L112599 13499
L112769 14011
" />
</g>
<g style="fill:#000000; fill-opacity:0.0; 
stroke:#000000; stroke-width:39.3701; stroke-opacity:1; 
stroke-linecap:round; stroke-linejoin:round;">
</g>
<g style="fill:#000000; fill-opacity:0.0; 
stroke:#000000; stroke-width:59.0551; stroke-opacity:1; 
stroke-linecap:round; stroke-linejoin:round;">
<path d="M112635 33428
L112708 33452
L112733 33476
L112757 33525
L112757 33598
L112733 33647
L112708 33671
L112660 33696
L112465 33696
L112465 33184
L112635 33184
L112684 33208
L112708 33233
L112733 33281
L112733 33330
L112708 33379
L112684 33403
L112635 33428
L112465 33428
" />
</g>
<g style="fill:#000000; fill-opacity:0.0; 
stroke:#000000; stroke-width:39.3701; stroke-opacity:1; 
stroke-linecap:round; stroke-linejoin:round;">
</g>
<g style="fill:#000000; fill-opacity:0.0; 
stroke:#000000; stroke-width:59.0551; stroke-opacity:1; 
stroke-linecap:round; stroke-linejoin:round;">
<path d="M112757 53332
L112733 53356
L112660 53381
L112611 53381
L112538 53356
L112489 53308
L112465 53259
L112440 53161
L112440 53088
L112465 52991
L112489 52942
L112538 52893
L112611 52869
L112660 52869
L112733 52893
L112757 52918
" />
</g>
<g style="fill:#000000; fill-opacity:0.0; 
stroke:#000000; stroke-width:39.3701; stroke-opacity:1; 
stroke-linecap:round; stroke-linejoin:round;">
</g>
<g style="fill:#000000; fill-opacity:0.0; 
stroke:#000000; stroke-width:59.0551; stroke-opacity:1; 
stroke-linecap:round; stroke-linejoin:round;">
<path d="M112465 73066
L112465 72554
L112587 72554
L112660 72578
L112708 72627
L112733 72676
L112757 72773
L112757 72846
L112733 72944
L112708 72993
L112660 73041
L112587 73066
L112465 73066
" />
</g>
<g style="fill:#000000; fill-opacity:0.0; 
stroke:#000000; stroke-width:39.3701; stroke-opacity:1; 
stroke-linecap:round; stroke-linejoin:round;">
</g>
<g style="fill:#000000; fill-opacity:0.0; 
stroke:#000000; stroke-width:59.0551; stroke-opacity:1; 
stroke-linecap:round; stroke-linejoin:round;">
<path d="M78911 76293
L78911 75703
L79051 75703
L79136 75731
L79192 75787
L79220 75843
L79248 75956
L79248 76040
L79220 76153
L79192 76209
L79136 76265
L79051 76293
L78911 76293
" />
<path d="M79754 76293
L79754 75984
L79726 75928
L79670 75899
L79557 75899
L79501 75928
" />
<path d="M79754 76265
L79698 76293
L79557 76293
L79501 76265
L79473 76209
L79473 76153
L79501 76096
L79557 76068
L79698 76068
L79754 76040
" />
<path d="M79951 75899
L80176 75899
" />
<path d="M80036 75703
L80036 76209
L80064 76265
L80120 76293
L80176 76293
" />
<path d="M80598 76265
L80542 76293
L80429 76293
L80373 76265
L80345 76209
L80345 75984
L80373 75928
L80429 75899
L80542 75899
L80598 75928
L80626 75984
L80626 76040
L80345 76096
" />
<path d="M80879 76237
L80907 76265
L80879 76293
L80851 76265
L80879 76237
L80879 76293
" />
<path d="M80879 75928
L80907 75956
L80879 75984
L80851 75956
L80879 75928
L80879 75984
" />
<path d="M81582 75759
L81610 75731
L81667 75703
L81807 75703
L81863 75731
L81892 75759
L81920 75815
L81920 75871
L81892 75956
L81554 76293
L81920 76293
" />
<path d="M82285 75703
L82341 75703
L82398 75731
L82426 75759
L82454 75815
L82482 75928
L82482 76068
L82454 76181
L82426 76237
L82398 76265
L82341 76293
L82285 76293
L82229 76265
L82201 76237
L82173 76181
L82145 76068
L82145 75928
L82173 75815
L82201 75759
L82229 75731
L82285 75703
" />
<path d="M83045 76293
L82707 76293
" />
<path d="M82876 76293
L82876 75703
L82820 75787
L82763 75843
L82707 75871
" />
<path d="M83579 75703
L83298 75703
L83269 75984
L83298 75956
L83354 75928
L83494 75928
L83551 75956
L83579 75984
L83607 76040
L83607 76181
L83579 76237
L83551 76265
L83494 76293
L83354 76293
L83298 76265
L83269 76237
" />
<path d="M83860 76068
L84310 76068
" />
<path d="M84901 76293
L84563 76293
" />
<path d="M84732 76293
L84732 75703
L84676 75787
L84619 75843
L84563 75871
" />
<path d="M85266 75703
L85322 75703
L85379 75731
L85407 75759
L85435 75815
L85463 75928
L85463 76068
L85435 76181
L85407 76237
L85379 76265
L85322 76293
L85266 76293
L85210 76265
L85182 76237
L85154 76181
L85126 76068
L85126 75928
L85154 75815
L85182 75759
L85210 75731
L85266 75703
" />
<path d="M85716 76068
L86166 76068
" />
<path d="M86757 76293
L86419 76293
" />
<path d="M86588 76293
L86588 75703
L86532 75787
L86475 75843
L86419 75871
" />
<path d="M87038 76293
L87150 76293
L87206 76265
L87235 76237
L87291 76153
L87319 76040
L87319 75815
L87291 75759
L87263 75731
L87206 75703
L87094 75703
L87038 75731
L87010 75759
L86982 75815
L86982 75956
L87010 76012
L87038 76040
L87094 76068
L87206 76068
L87263 76040
L87291 76012
L87319 75956
" />
</g>
<g style="fill:#000000; fill-opacity:0.0; 
stroke:#000000; stroke-width:39.3701; stroke-opacity:1; 
stroke-linecap:round; stroke-linejoin:round;">
</g>
<g style="fill:#000000; fill-opacity:0.0; 
stroke:#000000; stroke-width:59.0551; stroke-opacity:1; 
stroke-linecap:round; stroke-linejoin:round;">
<path d="M69685 76577
L112205 76577
" />
</g>
<g style="fill:#000000; fill-opacity:0.0; 
stroke:#000000; stroke-width:39.3701; stroke-opacity:1; 
stroke-linecap:round; stroke-linejoin:round;">
</g>
<g style="fill:#000000; fill-opacity:0.0; 
stroke:#000000; stroke-width:59.0551; stroke-opacity:1; 
stroke-linecap:round; stroke-linejoin:round;">
<path d="M70249 77395
L70249 76805
" />
<path d="M70587 77395
L70334 77058
" />
<path d="M70587 76805
L70249 77142
" />
<path d="M70840 77395
L70840 77002
" />
<path d="M70840 76805
L70812 76833
L70840 76861
L70868 76833
L70840 76805
L70840 76861
" />
<path d="M71458 77339
L71430 77367
L71346 77395
L71290 77395
L71205 77367
L71149 77311
L71121 77255
L71093 77142
L71093 77058
L71121 76946
L71149 76889
L71205 76833
L71290 76805
L71346 76805
L71430 76833
L71458 76861
" />
<path d="M71965 77395
L71965 77086
L71937 77030
L71880 77002
L71768 77002
L71712 77030
" />
<path d="M71965 77367
L71908 77395
L71768 77395
L71712 77367
L71683 77311
L71683 77255
L71712 77199
L71768 77171
L71908 77171
L71965 77142
" />
<path d="M72499 77395
L72499 76805
" />
<path d="M72499 77367
L72443 77395
L72330 77395
L72274 77367
L72246 77339
L72218 77283
L72218 77114
L72246 77058
L72274 77030
L72330 77002
L72443 77002
L72499 77030
" />
<path d="M73230 77086
L73427 77086
" />
<path d="M73511 77395
L73230 77395
L73230 76805
L73511 76805
" />
<path d="M73764 77339
L73793 77367
L73764 77395
L73736 77367
L73764 77339
L73764 77395
" />
<path d="M74046 77395
L74046 76805
L74186 76805
L74271 76833
L74327 76889
L74355 76946
L74383 77058
L74383 77142
L74355 77255
L74327 77311
L74271 77367
L74186 77395
L74046 77395
" />
<path d="M74636 77339
L74664 77367
L74636 77395
L74608 77367
L74636 77339
L74636 77395
" />
<path d="M74889 77227
L75171 77227
" />
<path d="M74833 77395
L75030 76805
L75227 77395
" />
<path d="M75424 77339
L75452 77367
L75424 77395
L75395 77367
L75424 77339
L75424 77395
" />
<path d="M76605 77395
L76605 76805
" />
<path d="M76661 77171
L76830 77395
" />
<path d="M76830 77002
L76605 77227
" />
<path d="M77083 77395
L77083 77002
" />
<path d="M77083 76805
L77055 76833
L77083 76861
L77111 76833
L77083 76805
L77083 76861
" />
<path d="M77617 77367
L77561 77395
L77448 77395
L77392 77367
L77364 77339
L77336 77283
L77336 77114
L77364 77058
L77392 77030
L77448 77002
L77561 77002
L77617 77030
" />
<path d="M78123 77395
L78123 77086
L78095 77030
L78039 77002
L77926 77002
L77870 77030
" />
<path d="M78123 77367
L78067 77395
L77926 77395
L77870 77367
L77842 77311
L77842 77255
L77870 77199
L77926 77171
L78067 77171
L78123 77142
" />
<path d="M78658 77395
L78658 76805
" />
<path d="M78658 77367
L78601 77395
L78489 77395
L78433 77367
L78404 77339
L78376 77283
L78376 77114
L78404 77058
L78433 77030
L78489 77002
L78601 77002
L78658 77030
" />
<path d="M79642 77002
L79642 77395
" />
<path d="M79501 76777
L79361 77199
L79726 77199
" />
<path d="M79951 77339
L79979 77367
L79951 77395
L79923 77367
L79951 77339
L79951 77395
" />
<path d="M80542 77395
L80204 77395
" />
<path d="M80373 77395
L80373 76805
L80317 76889
L80260 76946
L80204 76974
" />
<path d="M80795 77339
L80823 77367
L80795 77395
L80767 77367
L80795 77339
L80795 77395
" />
<path d="M81188 76805
L81245 76805
L81301 76833
L81329 76861
L81357 76917
L81385 77030
L81385 77171
L81357 77283
L81329 77339
L81301 77367
L81245 77395
L81188 77395
L81132 77367
L81104 77339
L81076 77283
L81048 77171
L81048 77030
L81076 76917
L81104 76861
L81132 76833
L81188 76805
" />
<path d="M81638 77171
L82088 77171
" />
<path d="M82623 77395
L82623 77086
L82595 77030
L82538 77002
L82426 77002
L82370 77030
" />
<path d="M82623 77367
L82566 77395
L82426 77395
L82370 77367
L82341 77311
L82341 77255
L82370 77199
L82426 77171
L82566 77171
L82623 77142
" />
<path d="M82988 77395
L82932 77367
L82904 77311
L82904 76805
" />
<path d="M83213 77002
L83213 77592
" />
<path d="M83213 77030
L83269 77002
L83382 77002
L83438 77030
L83466 77058
L83494 77114
L83494 77283
L83466 77339
L83438 77367
L83382 77395
L83269 77395
L83213 77367
" />
<path d="M83748 77395
L83748 76805
" />
<path d="M84001 77395
L84001 77086
L83973 77030
L83916 77002
L83832 77002
L83776 77030
L83748 77058
" />
<path d="M84535 77395
L84535 77086
L84507 77030
L84451 77002
L84338 77002
L84282 77030
" />
<path d="M84535 77367
L84479 77395
L84338 77395
L84282 77367
L84254 77311
L84254 77255
L84282 77199
L84338 77171
L84479 77171
L84535 77142
" />
<path d="M84816 77171
L85266 77171
" />
<path d="M85041 77395
L85041 76946
" />
<path d="M85519 76861
L85547 76833
L85604 76805
L85744 76805
L85800 76833
L85829 76861
L85857 76917
L85857 76974
L85829 77058
L85491 77395
L85857 77395
" />
<path d="M86222 76805
L86278 76805
L86335 76833
L86363 76861
L86391 76917
L86419 77030
L86419 77171
L86391 77283
L86363 77339
L86335 77367
L86278 77395
L86222 77395
L86166 77367
L86138 77339
L86110 77283
L86082 77171
L86082 77030
L86110 76917
L86138 76861
L86166 76833
L86222 76805
" />
<path d="M86982 77395
L86644 77395
" />
<path d="M86813 77395
L86813 76805
L86757 76889
L86700 76946
L86644 76974
" />
<path d="M87488 76805
L87375 76805
L87319 76833
L87291 76861
L87235 76946
L87206 77058
L87206 77283
L87235 77339
L87263 77367
L87319 77395
L87431 77395
L87488 77367
L87516 77339
L87544 77283
L87544 77142
L87516 77086
L87488 77058
L87431 77030
L87319 77030
L87263 77058
L87235 77086
L87206 77142
" />
<path d="M87910 76805
L87966 76805
L88022 76833
L88050 76861
L88078 76917
L88106 77030
L88106 77171
L88078 77283
L88050 77339
L88022 77367
L87966 77395
L87910 77395
L87853 77367
L87825 77339
L87797 77283
L87769 77171
L87769 77030
L87797 76917
L87825 76861
L87853 76833
L87910 76805
" />
<path d="M88641 76805
L88359 76805
L88331 77086
L88359 77058
L88416 77030
L88556 77030
L88613 77058
L88641 77086
L88669 77142
L88669 77283
L88641 77339
L88613 77367
L88556 77395
L88416 77395
L88359 77367
L88331 77339
" />
<path d="M89231 77395
L88894 77395
" />
<path d="M89063 77395
L89063 76805
L89006 76889
L88950 76946
L88894 76974
" />
<path d="M89456 76861
L89484 76833
L89541 76805
L89681 76805
L89737 76833
L89766 76861
L89794 76917
L89794 76974
L89766 77058
L89428 77395
L89794 77395
" />
<path d="M90356 77395
L90019 77395
" />
<path d="M90187 77395
L90187 76805
L90131 76889
L90075 76946
L90019 76974
" />
<path d="M90890 76805
L90609 76805
L90581 77086
L90609 77058
L90665 77030
L90806 77030
L90862 77058
L90890 77086
L90919 77142
L90919 77283
L90890 77339
L90862 77367
L90806 77395
L90665 77395
L90609 77367
L90581 77339
" />
<path d="M91115 76805
L91481 76805
L91284 77030
L91368 77030
L91425 77058
L91453 77086
L91481 77142
L91481 77283
L91453 77339
L91425 77367
L91368 77395
L91200 77395
L91144 77367
L91115 77339
" />
<path d="M91706 76861
L91734 76833
L91790 76805
L91931 76805
L91987 76833
L92015 76861
L92043 76917
L92043 76974
L92015 77058
L91678 77395
L92043 77395
" />
<path d="M92296 77171
L92746 77171
" />
<path d="M92521 77395
L92521 76946
" />
<path d="M93281 76805
L93168 76805
L93112 76833
L93084 76861
L93028 76946
L93000 77058
L93000 77283
L93028 77339
L93056 77367
L93112 77395
L93224 77395
L93281 77367
L93309 77339
L93337 77283
L93337 77142
L93309 77086
L93281 77058
L93224 77030
L93112 77030
L93056 77058
L93028 77086
L93000 77142
" />
<path d="M93674 77058
L93618 77030
L93590 77002
L93562 76946
L93562 76917
L93590 76861
L93618 76833
L93674 76805
L93787 76805
L93843 76833
L93871 76861
L93899 76917
L93899 76946
L93871 77002
L93843 77030
L93787 77058
L93674 77058
L93618 77086
L93590 77114
L93562 77171
L93562 77283
L93590 77339
L93618 77367
L93674 77395
L93787 77395
L93843 77367
L93871 77339
L93899 77283
L93899 77171
L93871 77114
L93843 77086
L93787 77058
" />
<path d="M94265 76805
L94321 76805
L94377 76833
L94406 76861
L94434 76917
L94462 77030
L94462 77171
L94434 77283
L94406 77339
L94377 77367
L94321 77395
L94265 77395
L94209 77367
L94181 77339
L94153 77283
L94124 77171
L94124 77030
L94153 76917
L94181 76861
L94209 76833
L94265 76805
" />
<path d="M94659 76805
L95024 76805
L94827 77030
L94912 77030
L94968 77058
L94996 77086
L95024 77142
L95024 77283
L94996 77339
L94968 77367
L94912 77395
L94743 77395
L94687 77367
L94659 77339
" />
<path d="M95234 76644
L95699 76644
" />
<path d="M95530 77002
L95530 77395
" />
<path d="M95390 76777
L95249 77199
L95615 77199
" />
<path d="M95699 76644
L96262 76644
" />
<path d="M96093 77002
L96093 77395
" />
<path d="M95952 76777
L95812 77199
L96177 77199
" />
<path d="M96655 77002
L96655 77395
" />
<path d="M96402 77002
L96402 77311
L96430 77367
L96487 77395
L96571 77395
L96627 77367
L96655 77339
" />
<path d="M96937 77395
L96937 76805
" />
<path d="M96937 77030
L96993 77002
L97105 77002
L97162 77030
L97190 77058
L97218 77114
L97218 77283
L97190 77339
L97162 77367
L97105 77395
L96993 77395
L96937 77367
" />
<path d="M97724 77002
L97724 77395
" />
<path d="M97471 77002
L97471 77311
L97499 77367
L97555 77395
L97640 77395
L97696 77367
L97724 77339
" />
<path d="M98005 77002
L98005 77395
" />
<path d="M98005 77058
L98033 77030
L98090 77002
L98174 77002
L98230 77030
L98258 77086
L98258 77395
" />
<path d="M98455 77002
L98680 77002
" />
<path d="M98539 76805
L98539 77311
L98568 77367
L98624 77395
L98680 77395
" />
<path d="M99130 77002
L99130 77395
" />
<path d="M98877 77002
L98877 77311
L98905 77367
L98961 77395
L99046 77395
L99102 77367
L99130 77339
" />
<path d="M99721 77395
L99383 77395
" />
<path d="M99552 77395
L99552 76805
L99496 76889
L99439 76946
L99383 76974
" />
<path d="M100227 77002
L100227 77395
" />
<path d="M100086 76777
L99946 77199
L100311 77199
" />
<path d="M100536 77339
L100564 77367
L100536 77395
L100508 77367
L100536 77339
L100536 77395
" />
<path d="M100930 76805
L100986 76805
L101042 76833
L101070 76861
L101099 76917
L101127 77030
L101127 77171
L101099 77283
L101070 77339
L101042 77367
L100986 77395
L100930 77395
L100874 77367
L100845 77339
L100817 77283
L100789 77171
L100789 77030
L100817 76917
L100845 76861
L100874 76833
L100930 76805
" />
<path d="M101633 77002
L101633 77395
" />
<path d="M101492 76777
L101352 77199
L101717 77199
" />
<path d="M101942 77339
L101970 77367
L101942 77395
L101914 77367
L101942 77339
L101942 77395
" />
<path d="M102533 77395
L102195 77395
" />
<path d="M102364 77395
L102364 76805
L102308 76889
L102251 76946
L102195 76974
" />
<path d="M102786 77171
L103236 77171
" />
<path d="M103517 77002
L103517 77592
" />
<path d="M103517 77030
L103573 77002
L103686 77002
L103742 77030
L103770 77058
L103798 77114
L103798 77283
L103770 77339
L103742 77367
L103686 77395
L103573 77395
L103517 77367
" />
<path d="M104051 77395
L104051 77002
" />
<path d="M104051 77114
L104079 77058
L104108 77030
L104164 77002
L104220 77002
" />
<path d="M104501 77395
L104445 77367
L104417 77339
L104389 77283
L104389 77114
L104417 77058
L104445 77030
L104501 77002
L104586 77002
L104642 77030
L104670 77058
L104698 77114
L104698 77283
L104670 77339
L104642 77367
L104586 77395
L104501 77395
" />
<path d="M105204 77395
L105204 76805
" />
<path d="M105204 77367
L105148 77395
L105036 77395
L104979 77367
L104951 77339
L104923 77283
L104923 77114
L104951 77058
L104979 77030
L105036 77002
L105148 77002
L105204 77030
" />
<path d="M105739 77002
L105739 77395
" />
<path d="M105485 77002
L105485 77311
L105514 77367
L105570 77395
L105654 77395
L105710 77367
L105739 77339
" />
<path d="M106273 77367
L106217 77395
L106104 77395
L106048 77367
L106020 77339
L105992 77283
L105992 77114
L106020 77058
L106048 77030
L106104 77002
L106217 77002
L106273 77030
" />
<path d="M106442 77002
L106667 77002
" />
<path d="M106526 76805
L106526 77311
L106554 77367
L106610 77395
L106667 77395
" />
</g>
<g style="fill:#000000; fill-opacity:0.0; 
stroke:#000000; stroke-width:39.3701; stroke-opacity:1; 
stroke-linecap:round; stroke-linejoin:round;">
</g>
<g style="fill:#000000; fill-opacity:0.0; 
stroke:#000000; stroke-width:59.0551; stroke-opacity:1; 
stroke-linecap:round; stroke-linejoin:round;">
<path d="M69685 75396
L112205 75396
" />
</g>
<g style="fill:#000000; fill-opacity:0.0; 
stroke:#000000; stroke-width:39.3701; stroke-opacity:1; 
stroke-linecap:round; stroke-linejoin:round;">
</g>
<g style="fill:#000000; fill-opacity:0.0; 
stroke:#000000; stroke-width:118.11; stroke-opacity:1; 
stroke-linecap:round; stroke-linejoin:round;">
<path d="M104099 76293
L103902 76012
" />
<path d="M103761 76293
L103761 75703
L103986 75703
L104042 75731
L104070 75759
L104099 75815
L104099 75899
L104070 75956
L104042 75984
L103986 76012
L103761 76012
" />
<path d="M104577 76265
L104520 76293
L104408 76293
L104352 76265
L104323 76209
L104323 75984
L104352 75928
L104408 75899
L104520 75899
L104577 75928
L104605 75984
L104605 76040
L104323 76096
" />
<path d="M104802 75899
L104942 76293
L105083 75899
" />
<path d="M105308 76237
L105336 76265
L105308 76293
L105280 76265
L105308 76237
L105308 76293
" />
<path d="M105308 75928
L105336 75956
L105308 75984
L105280 75956
L105308 75928
L105308 75984
" />
<path d="M106348 76293
L106011 76293
" />
<path d="M106180 76293
L106180 75703
L106123 75787
L106067 75843
L106011 75871
" />
<path d="M106601 76237
L106629 76265
L106601 76293
L106573 76265
L106601 76237
L106601 76293
" />
<path d="M106995 75703
L107051 75703
L107108 75731
L107136 75759
L107164 75815
L107192 75928
L107192 76068
L107164 76181
L107136 76237
L107108 76265
L107051 76293
L106995 76293
L106939 76265
L106911 76237
L106883 76181
L106854 76068
L106854 75928
L106883 75815
L106911 75759
L106939 75731
L106995 75703
" />
</g>
<g style="fill:#000000; fill-opacity:0.0; 
stroke:#000000; stroke-width:39.3701; stroke-opacity:1; 
stroke-linecap:round; stroke-linejoin:round;">
</g>
<g style="fill:#000000; fill-opacity:0.0; 
stroke:#000000; stroke-width:59.0551; stroke-opacity:1; 
stroke-linecap:round; stroke-linejoin:round;">
<path d="M70221 76265
L70305 76293
L70446 76293
L70502 76265
L70530 76237
L70559 76181
L70559 76124
L70530 76068
L70502 76040
L70446 76012
L70334 75984
L70277 75956
L70249 75928
L70221 75871
L70221 75815
L70249 75759
L70277 75731
L70334 75703
L70474 75703
L70559 75731
" />
<path d="M70812 76293
L70812 75899
" />
<path d="M70812 75703
L70784 75731
L70812 75759
L70840 75731
L70812 75703
L70812 75759
" />
<path d="M71037 75899
L71346 75899
L71037 76293
L71346 76293
" />
<path d="M71796 76265
L71740 76293
L71627 76293
L71571 76265
L71543 76209
L71543 75984
L71571 75928
L71627 75899
L71740 75899
L71796 75928
L71824 75984
L71824 76040
L71543 76096
" />
<path d="M72077 76237
L72105 76265
L72077 76293
L72049 76265
L72077 76237
L72077 76293
" />
<path d="M72077 75928
L72105 75956
L72077 75984
L72049 75956
L72077 75928
L72077 75984
" />
<path d="M72780 76124
L73061 76124
" />
<path d="M72724 76293
L72921 75703
L73118 76293
" />
<path d="M73568 75899
L73568 76293
" />
<path d="M73427 75674
L73286 76096
L73652 76096
" />
</g>
<g style="fill:#000000; fill-opacity:0.0; 
stroke:#000000; stroke-width:39.3701; stroke-opacity:1; 
stroke-linecap:round; stroke-linejoin:round;">
</g>
<g style="fill:#000000; fill-opacity:0.0; 
stroke:#000000; stroke-width:59.0551; stroke-opacity:1; 
stroke-linecap:round; stroke-linejoin:round;">
<path d="M103714 77395
L103714 76805
" />
<path d="M104248 77395
L104248 76805
" />
<path d="M104248 77367
L104192 77395
L104079 77395
L104023 77367
L103995 77339
L103967 77283
L103967 77114
L103995 77058
L104023 77030
L104079 77002
L104192 77002
L104248 77030
" />
<path d="M104529 77339
L104557 77367
L104529 77395
L104501 77367
L104529 77339
L104529 77395
" />
<path d="M104529 77030
L104557 77058
L104529 77086
L104501 77058
L104529 77030
L104529 77086
" />
<path d="M105570 77395
L105232 77395
" />
<path d="M105401 77395
L105401 76805
L105345 76889
L105289 76946
L105232 76974
" />
<path d="M106245 76777
L105739 77536
" />
<path d="M106751 77395
L106413 77395
" />
<path d="M106582 77395
L106582 76805
L106526 76889
L106470 76946
L106413 76974
" />
</g>
<g style="fill:#000000; fill-opacity:0.0; 
stroke:#000000; stroke-width:39.3701; stroke-opacity:1; 
stroke-linecap:round; stroke-linejoin:round;">
</g>
<g style="fill:#000000; fill-opacity:0.0; 
stroke:#000000; stroke-width:59.0551; stroke-opacity:1; 
stroke-linecap:round; stroke-linejoin:round;">
<path d="M69685 73821
L112205 73821
" />
</g>
<g style="fill:#000000; fill-opacity:0.0; 
stroke:#000000; stroke-width:39.3701; stroke-opacity:1; 
stroke-linecap:round; stroke-linejoin:round;">
</g>
<g style="fill:#000000; fill-opacity:0.0; 
stroke:#000000; stroke-width:157.48; stroke-opacity:1; 
stroke-linecap:round; stroke-linejoin:round;">
<path d="M70360 74099
L70810 74099
" />
<path d="M70486 74886
L70585 74099
" />
<path d="M70974 74886
L71039 74361
" />
<path d="M71072 74099
L71030 74136
L71063 74174
L71105 74136
L71072 74099
L71063 74174
" />
<path d="M71302 74361
L71602 74361
" />
<path d="M71447 74099
L71363 74774
L71391 74849
L71461 74886
L71536 74886
" />
<path d="M71911 74886
L71841 74849
L71813 74774
L71897 74099
" />
<path d="M72516 74849
L72436 74886
L72286 74886
L72216 74849
L72187 74774
L72225 74474
L72272 74399
L72352 74361
L72501 74361
L72572 74399
L72600 74474
L72591 74549
L72206 74624
" />
<path d="M72895 74811
L72928 74849
L72886 74886
L72853 74849
L72895 74811
L72886 74886
" />
<path d="M72947 74399
L72980 74436
L72937 74474
L72905 74436
L72947 74399
L72937 74474
" />
<path d="M74175 74474
L74283 74511
L74315 74549
L74343 74624
L74329 74736
L74283 74811
L74240 74849
L74161 74886
L73861 74886
L73959 74099
L74222 74099
L74292 74136
L74325 74174
L74353 74249
L74343 74324
L74297 74399
L74254 74436
L74175 74474
L73912 74474
" />
<path d="M74639 74661
L75014 74661
" />
<path d="M74536 74886
L74897 74099
L75061 74886
" />
<path d="M75309 74099
L75759 74099
" />
<path d="M75435 74886
L75534 74099
" />
<path d="M75890 74849
L75998 74886
L76185 74886
L76265 74849
L76307 74811
L76354 74736
L76364 74661
L76335 74586
L76303 74549
L76232 74511
L76087 74474
L76017 74436
L75984 74399
L75956 74324
L75965 74249
L76012 74174
L76054 74136
L76134 74099
L76321 74099
L76429 74136
" />
<path d="M77273 74886
L77371 74099
L77671 74099
L77741 74136
L77774 74174
L77802 74249
L77788 74361
L77741 74436
L77699 74474
L77620 74511
L77320 74511
" />
<path d="M78519 74811
L78477 74849
L78360 74886
L78285 74886
L78177 74849
L78112 74774
L78084 74699
L78065 74549
L78079 74436
L78135 74286
L78182 74211
L78266 74136
L78384 74099
L78459 74099
L78566 74136
L78599 74174
" />
<path d="M79162 74474
L79269 74511
L79302 74549
L79330 74624
L79316 74736
L79269 74811
L79227 74849
L79148 74886
L78848 74886
L78946 74099
L79208 74099
L79279 74136
L79312 74174
L79340 74249
L79330 74324
L79283 74399
L79241 74436
L79162 74474
L78899 74474
" />
</g>
<g style="fill:#000000; fill-opacity:0.0; 
stroke:#000000; stroke-width:39.3701; stroke-opacity:1; 
stroke-linecap:round; stroke-linejoin:round;">
</g>
<g style="fill:#000000; fill-opacity:0.0; 
stroke:#000000; stroke-width:59.0551; stroke-opacity:1; 
stroke-linecap:round; stroke-linejoin:round;">
<path d="M70446 73070
L70249 73070
" />
<path d="M70249 73380
L70249 72789
L70530 72789
" />
<path d="M70755 73380
L70755 72986
" />
<path d="M70755 72789
L70727 72817
L70755 72845
L70784 72817
L70755 72789
L70755 72845
" />
<path d="M71121 73380
L71065 73352
L71037 73295
L71037 72789
" />
<path d="M71571 73352
L71515 73380
L71402 73380
L71346 73352
L71318 73295
L71318 73070
L71346 73014
L71402 72986
L71515 72986
L71571 73014
L71599 73070
L71599 73127
L71318 73183
" />
<path d="M71852 73323
L71880 73352
L71852 73380
L71824 73352
L71852 73323
L71852 73380
" />
<path d="M71852 73014
L71880 73042
L71852 73070
L71824 73042
L71852 73014
L71852 73070
" />
<path d="M72583 73380
L72583 72789
" />
<path d="M72583 73014
L72640 72986
L72752 72986
L72808 73014
L72836 73042
L72865 73099
L72865 73267
L72836 73323
L72808 73352
L72752 73380
L72640 73380
L72583 73352
" />
<path d="M73371 73380
L73371 73070
L73343 73014
L73286 72986
L73174 72986
L73118 73014
" />
<path d="M73371 73352
L73314 73380
L73174 73380
L73118 73352
L73090 73295
L73090 73239
L73118 73183
L73174 73155
L73314 73155
L73371 73127
" />
<path d="M73568 72986
L73793 72986
" />
<path d="M73652 72789
L73652 73295
L73680 73352
L73736 73380
L73793 73380
" />
<path d="M73961 73352
L74018 73380
L74130 73380
L74186 73352
L74214 73295
L74214 73267
L74186 73211
L74130 73183
L74046 73183
L73989 73155
L73961 73099
L73961 73070
L73989 73014
L74046 72986
L74130 72986
L74186 73014
" />
<path d="M74467 73323
L74496 73352
L74467 73380
L74439 73352
L74467 73323
L74467 73380
" />
<path d="M74749 73380
L74749 72789
" />
<path d="M74805 73155
L74974 73380
" />
<path d="M74974 72986
L74749 73211
" />
<path d="M75227 73380
L75227 72986
" />
<path d="M75227 72789
L75199 72817
L75227 72845
L75255 72817
L75227 72789
L75227 72845
" />
<path d="M75761 73352
L75705 73380
L75592 73380
L75536 73352
L75508 73323
L75480 73267
L75480 73099
L75508 73042
L75536 73014
L75592 72986
L75705 72986
L75761 73014
" />
<path d="M76267 73380
L76267 73070
L76239 73014
L76183 72986
L76070 72986
L76014 73014
" />
<path d="M76267 73352
L76211 73380
L76070 73380
L76014 73352
L75986 73295
L75986 73239
L76014 73183
L76070 73155
L76211 73155
L76267 73127
" />
<path d="M76802 73380
L76802 72789
" />
<path d="M76802 73352
L76745 73380
L76633 73380
L76577 73352
L76548 73323
L76520 73267
L76520 73099
L76548 73042
L76577 73014
L76633 72986
L76745 72986
L76802 73014
" />
<path d="M76942 73436
L77392 73436
" />
<path d="M77533 72986
L77533 73577
" />
<path d="M77533 73014
L77589 72986
L77701 72986
L77758 73014
L77786 73042
L77814 73099
L77814 73267
L77786 73323
L77758 73352
L77701 73380
L77589 73380
L77533 73352
" />
<path d="M78320 73352
L78264 73380
L78151 73380
L78095 73352
L78067 73323
L78039 73267
L78039 73099
L78067 73042
L78095 73014
L78151 72986
L78264 72986
L78320 73014
" />
<path d="M78573 73380
L78573 72789
" />
<path d="M78573 73014
L78629 72986
L78742 72986
L78798 73014
L78826 73042
L78854 73099
L78854 73267
L78826 73323
L78798 73352
L78742 73380
L78629 73380
L78573 73352
" />
</g>
<g style="fill:#000000; fill-opacity:0.0; 
stroke:#000000; stroke-width:39.3701; stroke-opacity:1; 
stroke-linecap:round; stroke-linejoin:round;">
</g>
<g style="fill:#000000; fill-opacity:0.0; 
stroke:#000000; stroke-width:59.0551; stroke-opacity:1; 
stroke-linecap:round; stroke-linejoin:round;">
<path d="M69685 71459
L112205 71459
" />
</g>
<g style="fill:#000000; fill-opacity:0.0; 
stroke:#000000; stroke-width:39.3701; stroke-opacity:1; 
stroke-linecap:round; stroke-linejoin:round;">
</g>
<g style="fill:#000000; fill-opacity:0.0; 
stroke:#000000; stroke-width:59.0551; stroke-opacity:1; 
stroke-linecap:round; stroke-linejoin:round;">
<path d="M70221 72289
L70305 72317
L70446 72317
L70502 72289
L70530 72260
L70559 72204
L70559 72148
L70530 72092
L70502 72064
L70446 72036
L70334 72007
L70277 71979
L70249 71951
L70221 71895
L70221 71839
L70249 71782
L70277 71754
L70334 71726
L70474 71726
L70559 71754
" />
<path d="M70812 72317
L70812 71726
" />
<path d="M71065 72317
L71065 72007
L71037 71951
L70980 71923
L70896 71923
L70840 71951
L70812 71979
" />
<path d="M71571 72289
L71515 72317
L71402 72317
L71346 72289
L71318 72232
L71318 72007
L71346 71951
L71402 71923
L71515 71923
L71571 71951
L71599 72007
L71599 72064
L71318 72120
" />
<path d="M72077 72289
L72021 72317
L71908 72317
L71852 72289
L71824 72232
L71824 72007
L71852 71951
L71908 71923
L72021 71923
L72077 71951
L72105 72007
L72105 72064
L71824 72120
" />
<path d="M72274 71923
L72499 71923
" />
<path d="M72358 71726
L72358 72232
L72386 72289
L72443 72317
L72499 72317
" />
<path d="M72696 72260
L72724 72289
L72696 72317
L72668 72289
L72696 72260
L72696 72317
" />
<path d="M72696 71951
L72724 71979
L72696 72007
L72668 71979
L72696 71951
L72696 72007
" />
</g>
<g style="fill:#000000; fill-opacity:0.0; 
stroke:#000000; stroke-width:39.3701; stroke-opacity:1; 
stroke-linecap:round; stroke-linejoin:round;">
</g>
<g style="fill:#000000; fill-opacity:0.0; 
stroke:#000000; stroke-width:118.11; stroke-opacity:1; 
stroke-linecap:round; stroke-linejoin:round;">
<path d="M70493 70826
L70578 70854
L70606 70883
L70634 70939
L70634 71023
L70606 71079
L70578 71108
L70521 71136
L70296 71136
L70296 70545
L70493 70545
L70550 70573
L70578 70601
L70606 70658
L70606 70714
L70578 70770
L70550 70798
L70493 70826
L70296 70826
" />
<path d="M70887 71136
L70887 70742
" />
<path d="M70887 70854
L70915 70798
L70943 70770
L71000 70742
L71056 70742
" />
<path d="M71253 71136
L71253 70742
" />
<path d="M71253 70545
L71224 70573
L71253 70601
L71281 70573
L71253 70545
L71253 70601
" />
<path d="M71787 71108
L71731 71136
L71618 71136
L71562 71108
L71534 71079
L71506 71023
L71506 70854
L71534 70798
L71562 70770
L71618 70742
L71731 70742
L71787 70770
" />
<path d="M72124 71136
L72068 71108
L72040 71079
L72012 71023
L72012 70854
L72040 70798
L72068 70770
L72124 70742
L72209 70742
L72265 70770
L72293 70798
L72321 70854
L72321 71023
L72293 71079
L72265 71108
L72209 71136
L72124 71136
" />
<path d="M72856 71136
L72574 71136
L72574 70545
" />
<path d="M73305 71136
L73305 70826
L73277 70770
L73221 70742
L73109 70742
L73052 70770
" />
<path d="M73305 71108
L73249 71136
L73109 71136
L73052 71108
L73024 71051
L73024 70995
L73052 70939
L73109 70911
L73249 70911
L73305 70883
" />
<path d="M73587 71136
L73587 70545
" />
<path d="M73587 70770
L73643 70742
L73755 70742
L73812 70770
L73840 70798
L73868 70854
L73868 71023
L73840 71079
L73812 71108
L73755 71136
L73643 71136
L73587 71108
" />
<path d="M74093 71108
L74149 71136
L74262 71136
L74318 71108
L74346 71051
L74346 71023
L74318 70967
L74262 70939
L74177 70939
L74121 70911
L74093 70854
L74093 70826
L74121 70770
L74177 70742
L74262 70742
L74318 70770
" />
</g>
<g style="fill:#000000; fill-opacity:0.0; 
stroke:#000000; stroke-width:39.3701; stroke-opacity:1; 
stroke-linecap:round; stroke-linejoin:round;">
</g>
<g style="fill:#000000; fill-opacity:0.0; 
stroke:#000000; stroke-width:59.0551; stroke-opacity:1; 
stroke-linecap:round; stroke-linejoin:round;">
<path d="M77559 75396
L77559 76577
" />
</g>
<g style="fill:#000000; fill-opacity:0.0; 
stroke:#000000; stroke-width:39.3701; stroke-opacity:1; 
stroke-linecap:round; stroke-linejoin:round;">
</g>
<g style="fill:#000000; fill-opacity:0.0; 
stroke:#000000; stroke-width:59.0551; stroke-opacity:1; 
stroke-linecap:round; stroke-linejoin:round;">
<path d="M102756 75396
L102756 77955
" />
</g>
<g style="fill:#008484; fill-opacity:0.0; 
stroke:#008484; stroke-width:59.0551; stroke-opacity:1; 
stroke-linecap:round; stroke-linejoin:round;">
</g>
<g style="fill:#008484; fill-opacity:0.0; 
stroke:#008484; stroke-width:98.4252; stroke-opacity:1; 
stroke-linecap:round; stroke-linejoin:round;">
<path d="M68836 35598
L69024 35598
" />
<path d="M68799 35711
L68930 35317
L69061 35711
" />
<path d="M69193 35711
L69193 35317
L69286 35317
L69343 35336
L69380 35373
L69399 35411
L69418 35486
L69418 35542
L69399 35617
L69380 35654
L69343 35692
L69286 35711
L69193 35711
" />
<path d="M69755 35317
L69680 35317
L69643 35336
L69624 35354
L69586 35411
L69568 35486
L69568 35636
L69586 35673
L69605 35692
L69643 35711
L69718 35711
L69755 35692
L69774 35673
L69793 35636
L69793 35542
L69774 35504
L69755 35486
L69718 35467
L69643 35467
L69605 35486
L69586 35504
L69568 35542
" />
<path d="M66878 35598
L67066 35598
" />
<path d="M66841 35711
L66972 35317
L67103 35711
" />
<path d="M67235 35711
L67235 35317
L67328 35317
L67385 35336
L67422 35373
L67441 35411
L67460 35486
L67460 35542
L67441 35617
L67422 35654
L67385 35692
L67328 35711
L67235 35711
" />
<path d="M67591 35317
L67853 35317
L67685 35711
" />
<path d="M64962 35640
L65150 35640
" />
<path d="M64925 35753
L65056 35359
L65187 35753
" />
<path d="M65319 35753
L65319 35359
L65412 35359
L65469 35378
L65506 35415
L65525 35453
L65544 35528
L65544 35584
L65525 35659
L65506 35696
L65469 35734
L65412 35753
L65319 35753
" />
<path d="M65769 35528
L65731 35509
L65712 35490
L65694 35453
L65694 35434
L65712 35396
L65731 35378
L65769 35359
L65844 35359
L65881 35378
L65900 35396
L65919 35434
L65919 35453
L65900 35490
L65881 35509
L65844 35528
L65769 35528
L65731 35546
L65712 35565
L65694 35603
L65694 35678
L65712 35715
L65731 35734
L65769 35753
L65844 35753
L65881 35734
L65900 35715
L65919 35678
L65919 35603
L65900 35565
L65881 35546
L65844 35528
" />
<path d="M61943 37969
L62131 37969
" />
<path d="M61906 38082
L62037 37688
L62168 38082
" />
<path d="M62300 38082
L62300 37688
L62393 37688
L62450 37707
L62487 37744
L62506 37782
L62525 37857
L62525 37913
L62506 37988
L62487 38025
L62450 38063
L62393 38082
L62300 38082
" />
<path d="M62712 38082
L62787 38082
L62825 38063
L62843 38044
L62881 37988
L62900 37913
L62900 37763
L62881 37725
L62862 37707
L62825 37688
L62750 37688
L62712 37707
L62693 37725
L62675 37763
L62675 37857
L62693 37894
L62712 37913
L62750 37932
L62825 37932
L62862 37913
L62881 37894
L62900 37857
" />
<path d="M61930 36909
L62117 36909
" />
<path d="M61892 37022
L62024 36628
L62155 37022
" />
<path d="M62286 37022
L62286 36628
L62380 36628
L62436 36647
L62474 36684
L62492 36722
L62511 36797
L62511 36853
L62492 36928
L62474 36965
L62436 37003
L62380 37022
L62286 37022
" />
<path d="M62886 37022
L62661 37022
" />
<path d="M62774 37022
L62774 36628
L62736 36684
L62699 36722
L62661 36740
" />
<path d="M63130 36628
L63167 36628
L63205 36647
L63224 36665
L63242 36703
L63261 36778
L63261 36872
L63242 36947
L63224 36984
L63205 37003
L63167 37022
L63130 37022
L63092 37003
L63074 36984
L63055 36947
L63036 36872
L63036 36778
L63055 36703
L63074 36665
L63092 36647
L63130 36628
" />
<path d="M61946 35789
L62133 35789
" />
<path d="M61908 35902
L62040 35508
L62171 35902
" />
<path d="M62302 35902
L62302 35508
L62396 35508
L62452 35527
L62490 35564
L62508 35602
L62527 35677
L62527 35733
L62508 35808
L62490 35845
L62452 35883
L62396 35902
L62302 35902
" />
<path d="M62902 35902
L62677 35902
" />
<path d="M62790 35902
L62790 35508
L62752 35564
L62715 35602
L62677 35620
" />
<path d="M63277 35902
L63052 35902
" />
<path d="M63165 35902
L63165 35508
L63127 35564
L63090 35602
L63052 35620
" />
</g>
<g style="fill:#008484; fill-opacity:0.0; 
stroke:#008484; stroke-width:118.11; stroke-opacity:1; 
stroke-linecap:round; stroke-linejoin:round;">
<path d="M55012 38207
L55096 38235
L55124 38264
L55152 38320
L55152 38404
L55124 38460
L55096 38489
L55040 38517
L54815 38517
L54815 37926
L55012 37926
L55068 37954
L55096 37982
L55124 38039
L55124 38095
L55096 38151
L55068 38179
L55012 38207
L54815 38207
" />
<path d="M55094 37024
L55038 36996
L54954 36996
L54869 37024
L54813 37080
L54785 37137
L54757 37249
L54757 37334
L54785 37446
L54813 37502
L54869 37559
L54954 37587
L55010 37587
L55094 37559
L55122 37530
L55122 37334
L55010 37334
" />
<path d="M55122 36057
L54925 35775
" />
<path d="M54785 36057
L54785 35466
L55010 35466
L55066 35494
L55094 35522
L55122 35579
L55122 35663
L55094 35719
L55066 35747
L55010 35775
L54785 35775
" />
<path d="M56842 52567
L56561 52567
L56561 51976
" />
<path d="M57039 52567
L57039 51976
L57179 51976
L57264 52004
L57320 52060
L57348 52117
L57376 52229
L57376 52314
L57348 52426
L57320 52482
L57264 52539
L57179 52567
L57039 52567
" />
<path d="M57967 52567
L57770 52285
" />
<path d="M57629 52567
L57629 51976
L57854 51976
L57910 52004
L57938 52032
L57967 52089
L57967 52173
L57938 52229
L57910 52257
L57854 52285
L57629 52285
" />
</g>
<g style="fill:#008484; fill-opacity:0.0; 
stroke:#008484; stroke-width:59.0551; stroke-opacity:1; 
stroke-linecap:round; stroke-linejoin:round;">
<path d="M69560 46660
L69166 46660
L69166 46566
L69185 46510
L69222 46473
L69260 46454
L69335 46435
L69391 46435
L69466 46454
L69503 46473
L69541 46510
L69560 46566
L69560 46660
" />
<path d="M69203 46285
L69185 46266
L69166 46229
L69166 46135
L69185 46098
L69203 46079
L69241 46060
L69278 46060
L69335 46079
L69560 46304
L69560 46060
" />
<path d="M67491 41958
L67491 41564
L67585 41564
L67641 41583
L67678 41620
L67697 41658
L67716 41733
L67716 41789
L67697 41864
L67678 41901
L67641 41939
L67585 41958
L67491 41958
" />
<path d="M67847 41564
L68091 41564
L67960 41714
L68016 41714
L68053 41733
L68072 41751
L68091 41789
L68091 41883
L68072 41920
L68053 41939
L68016 41958
L67903 41958
L67866 41939
L67847 41920
" />
<path d="M62015 45175
L62409 45175
L62409 45269
L62390 45325
L62353 45362
L62315 45381
L62240 45400
L62184 45400
L62109 45381
L62072 45362
L62034 45325
L62015 45269
L62015 45175
" />
<path d="M62278 45737
L62015 45737
" />
<path d="M62428 45644
L62147 45550
L62147 45794
" />
<path d="M72453 39015
L72059 39015
L72059 38921
L72078 38865
L72115 38828
L72153 38809
L72228 38790
L72284 38790
L72359 38809
L72396 38828
L72434 38865
L72453 38921
L72453 39015
" />
<path d="M72059 38434
L72059 38621
L72246 38640
L72228 38621
L72209 38584
L72209 38490
L72228 38453
L72246 38434
L72284 38415
L72378 38415
L72415 38434
L72434 38453
L72453 38490
L72453 38584
L72434 38621
L72415 38640
" />
<path d="M69879 49145
L70067 49145
" />
<path d="M69842 49258
L69973 48864
L70104 49258
" />
<path d="M70236 49258
L70236 48864
L70329 48864
L70386 48883
L70423 48920
L70442 48958
L70461 49033
L70461 49089
L70442 49164
L70423 49201
L70386 49239
L70329 49258
L70236 49258
" />
<path d="M70817 48864
L70629 48864
L70611 49051
L70629 49033
L70667 49014
L70761 49014
L70798 49033
L70817 49051
L70836 49089
L70836 49183
L70817 49220
L70798 49239
L70761 49258
L70667 49258
L70629 49239
L70611 49220
" />
<path d="M69229 50905
L69417 50905
" />
<path d="M69192 51018
L69323 50624
L69454 51018
" />
<path d="M69586 51018
L69586 50624
L69679 50624
L69736 50643
L69773 50680
L69792 50718
L69811 50793
L69811 50849
L69792 50924
L69773 50961
L69736 50999
L69679 51018
L69586 51018
" />
<path d="M70148 50755
L70148 51018
" />
<path d="M70054 50605
L69961 50886
L70204 50886
" />
<path d="M58023 41989
L58211 41989
" />
<path d="M57986 42102
L58117 41708
L58248 42102
" />
<path d="M58380 42102
L58380 41708
L58473 41708
L58530 41727
L58567 41764
L58586 41802
L58605 41877
L58605 41933
L58586 42008
L58567 42045
L58530 42083
L58473 42102
L58380 42102
" />
<path d="M58755 41745
L58773 41727
L58811 41708
L58905 41708
L58942 41727
L58961 41745
L58980 41783
L58980 41820
L58961 41877
L58736 42102
L58980 42102
" />
<path d="M58001 46853
L58189 46853
" />
<path d="M57964 46966
L58095 46572
L58226 46966
" />
<path d="M58358 46966
L58358 46572
L58451 46572
L58508 46591
L58545 46628
L58564 46666
L58583 46741
L58583 46797
L58564 46872
L58545 46909
L58508 46947
L58451 46966
L58358 46966
" />
<path d="M58958 46966
L58733 46966
" />
<path d="M58845 46966
L58845 46572
L58808 46628
L58770 46666
L58733 46684
" />
<path d="M59107 51623
L59295 51623
" />
<path d="M59070 51736
L59201 51342
L59332 51736
" />
<path d="M59464 51736
L59464 51342
L59557 51342
L59614 51361
L59651 51398
L59670 51436
L59689 51511
L59689 51567
L59670 51642
L59651 51679
L59614 51717
L59557 51736
L59464 51736
" />
<path d="M59932 51342
L59970 51342
L60007 51361
L60026 51379
L60045 51417
L60064 51492
L60064 51586
L60045 51661
L60026 51698
L60007 51717
L59970 51736
L59932 51736
L59895 51717
L59876 51698
L59857 51661
L59839 51586
L59839 51492
L59857 51417
L59876 51379
L59895 51361
L59932 51342
" />
</g>
<g style="fill:#008484; fill-opacity:0.0; 
stroke:#008484; stroke-width:98.4252; stroke-opacity:1; 
stroke-linecap:round; stroke-linejoin:round;">
<path d="M50505 41968
L50505 41574
" />
<path d="M50505 41724
L50542 41705
L50617 41705
L50655 41724
L50674 41743
L50692 41780
L50692 41893
L50674 41930
L50655 41949
L50617 41968
L50542 41968
L50505 41949
" />
<path d="M50824 41705
L50917 41968
" />
<path d="M51011 41705
L50917 41968
L50880 42061
L50861 42080
L50824 42099
" />
<path d="M51592 41761
L51649 41780
L51667 41799
L51686 41836
L51686 41893
L51667 41930
L51649 41949
L51611 41968
L51461 41968
L51461 41574
L51592 41574
L51630 41593
L51649 41611
L51667 41649
L51667 41686
L51649 41724
L51630 41743
L51592 41761
L51461 41761
" />
<path d="M51855 41968
L51855 41705
" />
<path d="M51855 41780
L51874 41743
L51892 41724
L51930 41705
L51967 41705
" />
<path d="M52099 41968
L52099 41705
" />
<path d="M52099 41574
L52080 41593
L52099 41611
L52117 41593
L52099 41574
L52099 41611
" />
<path d="M52455 41949
L52417 41968
L52342 41968
L52305 41949
L52286 41930
L52267 41893
L52267 41780
L52286 41743
L52305 41724
L52342 41705
L52417 41705
L52455 41724
" />
<path d="M52680 41968
L52642 41949
L52623 41930
L52605 41893
L52605 41780
L52623 41743
L52642 41724
L52680 41705
L52736 41705
L52773 41724
L52792 41743
L52811 41780
L52811 41893
L52792 41930
L52773 41949
L52736 41968
L52680 41968
" />
<path d="M53167 41968
L52980 41968
L52980 41574
" />
<path d="M53467 41968
L53467 41761
L53448 41724
L53411 41705
L53336 41705
L53298 41724
" />
<path d="M53467 41949
L53430 41968
L53336 41968
L53298 41949
L53280 41911
L53280 41874
L53298 41836
L53336 41818
L53430 41818
L53467 41799
" />
<path d="M53655 41968
L53655 41574
" />
<path d="M53655 41724
L53692 41705
L53767 41705
L53805 41724
L53823 41743
L53842 41780
L53842 41893
L53823 41930
L53805 41949
L53767 41968
L53692 41968
L53655 41949
" />
<path d="M53992 41949
L54030 41968
L54105 41968
L54142 41949
L54161 41911
L54161 41893
L54142 41855
L54105 41836
L54048 41836
L54011 41818
L53992 41780
L53992 41761
L54011 41724
L54048 41705
L54105 41705
L54142 41724
" />
</g>
<g style="fill:#C2C200; fill-opacity:0.0; 
stroke:#C2C200; stroke-width:98.4252; stroke-opacity:1; 
stroke-linecap:round; stroke-linejoin:round;">
</g>
<g style="fill:#C2C200; fill-opacity:0.0; 
stroke:#C2C200; stroke-width:39.3701; stroke-opacity:1; 
stroke-linecap:round; stroke-linejoin:round;">
<path d="M49930 54300
L49930 33460
" />
<path d="M76050 54300
L49930 54300
" />
<path d="M76050 53260
L76050 54300
" />
<path d="M77040 52270
L76050 53260
" />
<path d="M77040 39210
L77040 52270
" />
<path d="M76050 38220
L77040 39210
" />
<path d="M76050 33720
L76050 38220
" />
<path d="M75510 33180
L76050 33720
" />
<path d="M49930 33180
L75510 33180
" />
<path d="M49930 33460
L49930 33180
" />
</g>
<g style="fill:#C2C200; fill-opacity:0.0; 
stroke:#C2C200; stroke-width:59.0551; stroke-opacity:1; 
stroke-linecap:round; stroke-linejoin:round;">
<path d="M50789 40973
L50845 40992
L50864 41011
L50883 41048
L50883 41105
L50864 41142
L50845 41161
L50808 41180
L50658 41180
L50658 40786
L50789 40786
L50826 40805
L50845 40823
L50864 40861
L50864 40898
L50845 40936
L50826 40955
L50789 40973
L50658 40973
" />
<path d="M51033 41067
L51220 41067
" />
<path d="M50995 41180
L51126 40786
L51257 41180
" />
<path d="M51332 40786
L51557 40786
" />
<path d="M51445 41180
L51445 40786
" />
<path d="M51670 41161
L51726 41180
L51820 41180
L51857 41161
L51876 41142
L51895 41105
L51895 41067
L51876 41030
L51857 41011
L51820 40992
L51745 40973
L51707 40955
L51689 40936
L51670 40898
L51670 40861
L51689 40823
L51707 40805
L51745 40786
L51839 40786
L51895 40805
" />
<path d="M52326 40917
L52420 41180
L52514 40917
" />
<path d="M52945 40823
L52964 40805
L53001 40786
L53095 40786
L53132 40805
L53151 40823
L53170 40861
L53170 40898
L53151 40955
L52926 41180
L53170 41180
" />
<path d="M53338 41142
L53357 41161
L53338 41180
L53320 41161
L53338 41142
L53338 41180
" />
<path d="M53732 41180
L53507 41180
" />
<path d="M53620 41180
L53620 40786
L53582 40842
L53545 40880
L53507 40898
" />
<path d="M51934 33534
L51934 33853
L51952 33890
L51971 33909
L52009 33928
L52084 33928
L52121 33909
L52140 33890
L52159 33853
L52159 33534
" />
<path d="M52552 33928
L52327 33928
" />
<path d="M52440 33928
L52440 33534
L52402 33590
L52365 33628
L52327 33646
" />
</g>
<g style="fill:#008484; fill-opacity:0.0; 
stroke:#008484; stroke-width:59.0551; stroke-opacity:1; 
stroke-linecap:round; stroke-linejoin:round;">
<path d="M53530 33982
L53829 33982
" />
<path d="M53680 34132
L53680 33832
" />
</g>
<g style="fill:#C2C200; fill-opacity:0.0; 
stroke:#C2C200; stroke-width:59.0551; stroke-opacity:1; 
stroke-linecap:round; stroke-linejoin:round;">
<path d="M56304 50330
L56173 50142
" />
<path d="M56079 50330
L56079 49936
L56229 49936
L56266 49955
L56285 49973
L56304 50011
L56304 50067
L56285 50105
L56266 50123
L56229 50142
L56079 50142
" />
<path d="M56679 50330
L56454 50330
" />
<path d="M56566 50330
L56566 49936
L56529 49992
L56491 50030
L56454 50048
" />
<path d="M56284 51402
L56153 51214
" />
<path d="M56059 51402
L56059 51008
L56209 51008
L56246 51027
L56265 51045
L56284 51083
L56284 51139
L56265 51177
L56246 51195
L56209 51214
L56059 51214
" />
<path d="M56434 51045
L56453 51027
L56490 51008
L56584 51008
L56621 51027
L56640 51045
L56659 51083
L56659 51120
L56640 51177
L56415 51402
L56659 51402
" />
<path d="M61749 40688
L61618 40500
" />
<path d="M61524 40688
L61524 40294
L61674 40294
L61711 40313
L61730 40331
L61749 40369
L61749 40425
L61730 40463
L61711 40481
L61674 40500
L61524 40500
" />
<path d="M61880 40294
L62124 40294
L61993 40444
L62049 40444
L62086 40463
L62105 40481
L62124 40519
L62124 40613
L62105 40650
L62086 40669
L62049 40688
L61936 40688
L61899 40669
L61880 40650
" />
<path d="M61749 41739
L61618 41551
" />
<path d="M61524 41739
L61524 41345
L61674 41345
L61711 41364
L61730 41383
L61749 41420
L61749 41476
L61730 41514
L61711 41533
L61674 41551
L61524 41551
" />
<path d="M62086 41476
L62086 41739
" />
<path d="M61993 41326
L61899 41608
L62143 41608
" />
<path d="M61749 42748
L61618 42560
" />
<path d="M61524 42748
L61524 42354
L61674 42354
L61711 42373
L61730 42391
L61749 42429
L61749 42485
L61730 42523
L61711 42541
L61674 42560
L61524 42560
" />
<path d="M62105 42354
L61918 42354
L61899 42541
L61918 42523
L61955 42504
L62049 42504
L62086 42523
L62105 42541
L62124 42579
L62124 42673
L62105 42710
L62086 42729
L62049 42748
L61955 42748
L61918 42729
L61899 42710
" />
<path d="M58848 36021
L58717 35833
" />
<path d="M58623 36021
L58623 35627
L58773 35627
L58810 35646
L58829 35664
L58848 35702
L58848 35758
L58829 35796
L58810 35814
L58773 35833
L58623 35833
" />
<path d="M59185 35627
L59110 35627
L59073 35646
L59054 35664
L59017 35721
L58998 35796
L58998 35946
L59017 35983
L59035 36002
L59073 36021
L59148 36021
L59185 36002
L59204 35983
L59223 35946
L59223 35852
L59204 35814
L59185 35796
L59148 35777
L59073 35777
L59035 35796
L59017 35814
L58998 35852
" />
<path d="M58850 37032
L58719 36844
" />
<path d="M58625 37032
L58625 36638
L58775 36638
L58812 36657
L58831 36675
L58850 36713
L58850 36769
L58831 36807
L58812 36825
L58775 36844
L58625 36844
" />
<path d="M58981 36638
L59244 36638
L59075 37032
" />
<path d="M58850 38067
L58719 37879
" />
<path d="M58625 38067
L58625 37673
L58775 37673
L58812 37692
L58831 37710
L58850 37748
L58850 37804
L58831 37842
L58812 37860
L58775 37879
L58625 37879
" />
<path d="M59075 37842
L59037 37823
L59019 37804
L59000 37767
L59000 37748
L59019 37710
L59037 37692
L59075 37673
L59150 37673
L59187 37692
L59206 37710
L59225 37748
L59225 37767
L59206 37804
L59187 37823
L59150 37842
L59075 37842
L59037 37860
L59019 37879
L59000 37917
L59000 37992
L59019 38029
L59037 38048
L59075 38067
L59150 38067
L59187 38048
L59206 38029
L59225 37992
L59225 37917
L59206 37879
L59187 37860
L59150 37842
" />
<path d="M63476 48808
L63345 48620
" />
<path d="M63251 48808
L63251 48414
L63401 48414
L63438 48433
L63457 48451
L63476 48489
L63476 48545
L63457 48583
L63438 48601
L63401 48620
L63251 48620
" />
<path d="M63663 48808
L63738 48808
L63776 48789
L63795 48770
L63832 48714
L63851 48639
L63851 48489
L63832 48451
L63813 48433
L63776 48414
L63701 48414
L63663 48433
L63645 48451
L63626 48489
L63626 48583
L63645 48620
L63663 48639
L63701 48658
L63776 48658
L63813 48639
L63832 48620
L63851 48583
" />
<path d="M71362 43636
L71231 43448
" />
<path d="M71137 43636
L71137 43242
L71287 43242
L71325 43261
L71344 43279
L71362 43317
L71362 43373
L71344 43411
L71325 43429
L71287 43448
L71137 43448
" />
<path d="M71737 43636
L71512 43636
" />
<path d="M71625 43636
L71625 43242
L71587 43298
L71550 43336
L71512 43354
" />
<path d="M71981 43242
L72019 43242
L72056 43261
L72075 43279
L72094 43317
L72112 43392
L72112 43486
L72094 43561
L72075 43598
L72056 43617
L72019 43636
L71981 43636
L71944 43617
L71925 43598
L71906 43561
L71887 43486
L71887 43392
L71906 43317
L71925 43279
L71944 43261
L71981 43242
" />
<path d="M65358 44552
L65227 44364
" />
<path d="M65133 44552
L65133 44158
L65283 44158
L65321 44177
L65340 44195
L65358 44233
L65358 44289
L65340 44327
L65321 44345
L65283 44364
L65133 44364
" />
<path d="M65733 44552
L65508 44552
" />
<path d="M65621 44552
L65621 44158
L65583 44214
L65546 44252
L65508 44270
" />
<path d="M66108 44552
L65883 44552
" />
<path d="M65996 44552
L65996 44158
L65958 44214
L65921 44252
L65883 44270
" />
<path d="M63288 49848
L63157 49660
" />
<path d="M63063 49848
L63063 49454
L63213 49454
L63251 49473
L63270 49491
L63288 49529
L63288 49585
L63270 49623
L63251 49641
L63213 49660
L63063 49660
" />
<path d="M63663 49848
L63438 49848
" />
<path d="M63551 49848
L63551 49454
L63513 49510
L63476 49548
L63438 49566
" />
<path d="M63813 49491
L63832 49473
L63870 49454
L63963 49454
L64001 49473
L64020 49491
L64038 49529
L64038 49566
L64020 49623
L63795 49848
L64038 49848
" />
<path d="M72420 48602
L72289 48414
" />
<path d="M72195 48602
L72195 48208
L72345 48208
L72383 48227
L72402 48245
L72420 48283
L72420 48339
L72402 48377
L72383 48395
L72345 48414
L72195 48414
" />
<path d="M72795 48602
L72570 48602
" />
<path d="M72683 48602
L72683 48208
L72645 48264
L72608 48302
L72570 48320
" />
<path d="M72927 48208
L73170 48208
L73039 48358
L73095 48358
L73133 48377
L73152 48395
L73170 48433
L73170 48527
L73152 48564
L73133 48583
L73095 48602
L72983 48602
L72945 48583
L72927 48564
" />
</g>
<g style="fill:#008484; fill-opacity:0.0; 
stroke:#008484; stroke-width:59.0551; stroke-opacity:1; 
stroke-linecap:round; stroke-linejoin:round;">
</g>
<g style="fill:#008484; fill-opacity:0.0; 
stroke:#008484; stroke-width:80; stroke-opacity:1; 
stroke-linecap:round; stroke-linejoin:round;">
<path d="M68568 48205
L66868 48205
" />
<path d="M66868 50605
L68568 50605
" />
<path d="M68918 49013
L68918 49805
" />
<path d="M66518 49001
L66518 49805
" />
<circle cx="67718.5" cy="49405" r="700" /> 
</g>
<g style="fill:#008484; fill-opacity:0.0; 
stroke:#008484; stroke-width:59.0551; stroke-opacity:1; 
stroke-linecap:round; stroke-linejoin:round;">
<path d="M52835 39979
L52977 40558
" />
<path d="M52977 40558
L53087 40140
" />
<path d="M53087 40140
L53209 40562
" />
<path d="M53209 40562
L53343 39991
" />
<path d="M52276 40251
L52587 40247
" />
<path d="M52587 40247
L52591 40251
" />
<path d="M52591 40251
L52591 40247
" />
<path d="M52607 39967
L52607 40574
" />
<path d="M52257 39963
L52257 40581
" />
<path d="M52257 40581
L52261 40577
" />
<path d="M52040 40003
L51902 39971
" />
<path d="M51902 39971
L51776 39967
" />
<path d="M51776 39967
L51682 40046
" />
<path d="M51682 40046
L51670 40152
" />
<path d="M51670 40152
L51765 40247
" />
<path d="M51765 40247
L51918 40298
" />
<path d="M51918 40298
L51989 40361
" />
<path d="M51989 40361
L52005 40479
" />
<path d="M52005 40479
L51914 40566
" />
<path d="M51914 40566
L51788 40577
" />
<path d="M51788 40577
L51650 40534
" />
<path d="M51241 39963
L51143 39971
" />
<path d="M51143 39971
L51048 40066
" />
<path d="M51048 40066
L51013 40259
" />
<path d="M51013 40259
L51024 40396
" />
<path d="M51024 40396
L51103 40522
" />
<path d="M51103 40522
L51202 40570
" />
<path d="M51202 40570
L51324 40542
" />
<path d="M51324 40542
L51410 40471
" />
<path d="M51410 40471
L51438 40290
" />
<path d="M51438 40290
L51418 40129
" />
<path d="M51418 40129
L51375 40018
" />
<path d="M51375 40018
L51233 39967
" />
<path d="M51477 39286
L51375 39507
" />
<path d="M51375 39507
L51587 39711
" />
<path d="M51587 39711
L51792 39605
" />
<path d="M51792 39605
L51902 39668
" />
<path d="M52469 39660
L52599 39585
" />
<path d="M52599 39585
L52772 39715
" />
<path d="M52772 39715
L52958 39522
" />
<path d="M52958 39522
L52847 39333
" />
<path d="M52847 39333
L52922 39148
" />
<path d="M52922 39148
L53162 39074
" />
<path d="M53162 39074
L53162 38806
" />
<path d="M53162 38806
L52942 38751
" />
<path d="M52942 38751
L52863 38526
" />
<path d="M52863 38526
L52969 38341
" />
<path d="M52969 38341
L52784 38140
" />
<path d="M52784 38140
L52580 38243
" />
<path d="M52580 38243
L52395 38164
" />
<path d="M52395 38164
L52328 37951
" />
<path d="M52328 37951
L52056 37944
" />
<path d="M52056 37944
L51973 38160
" />
<path d="M51973 38160
L51808 38227
" />
<path d="M51808 38227
L51591 38121
" />
<path d="M51591 38121
L51387 38329
" />
<path d="M51387 38329
L51485 38542
" />
<path d="M51485 38542
L51418 38731
" />
<path d="M51418 38731
L51202 38770
" />
<path d="M51202 38770
L51198 39046
" />
<path d="M51198 39046
L51418 39125
" />
<path d="M51418 39125
L51473 39282
" />
<path d="M52316 39274
L52434 39215
" />
<path d="M52434 39215
L52513 39137
" />
<path d="M52513 39137
L52572 38979
" />
<path d="M52572 38979
L52572 38822
" />
<path d="M52572 38822
L52513 38684
" />
<path d="M52513 38684
L52335 38546
" />
<path d="M52335 38546
L52158 38526
" />
<path d="M52158 38526
L52001 38566
" />
<path d="M52001 38566
L51843 38703
" />
<path d="M51843 38703
L51784 38881
" />
<path d="M51784 38881
L51804 39077
" />
<path d="M51804 39077
L51902 39196
" />
<path d="M51902 39196
L52040 39274
" />
<path d="M52040 39274
L51902 39668
" />
<path d="M52316 39274
L52473 39668
" />
</g>
<g style="fill:#008484; fill-opacity:0.0; 
stroke:#008484; stroke-width:150; stroke-opacity:1; 
stroke-linecap:round; stroke-linejoin:round;">
<path d="M56357 36410
L56357 36685
" />
<path d="M56278 35386
L55648 35386
" />
</g>
<g style="fill:#008484; fill-opacity:0.0; 
stroke:#008484; stroke-width:80; stroke-opacity:1; 
stroke-linecap:round; stroke-linejoin:round;">
<path d="M71228 39772
L71478 39522
" />
<path d="M71478 39522
L71978 39522
" />
<path d="M71978 39522
L72228 39772
" />
<path d="M72228 40272
L71978 40522
" />
<path d="M71978 40522
L71478 40522
" />
<path d="M71478 40522
L71228 40272
" />
<path d="M69478 39522
L69978 39522
" />
<path d="M69978 39522
L70228 39772
" />
<path d="M70228 40272
L69978 40522
" />
<path d="M70228 39772
L70478 39522
" />
<path d="M70478 39522
L70978 39522
" />
<path d="M70978 39522
L71228 39772
" />
<path d="M71228 40272
L70978 40522
" />
<path d="M70978 40522
L70478 40522
" />
<path d="M70478 40522
L70228 40272
" />
<path d="M69228 39772
L69228 40272
" />
<path d="M69478 39522
L69228 39772
" />
<path d="M69228 40272
L69478 40522
" />
<path d="M69978 40522
L69478 40522
" />
<path d="M72228 39772
L72228 40272
" />
<path d="M52860 51420
L51160 51420
" />
<path d="M51160 53820
L52860 53820
" />
<path d="M53210 52228
L53210 53020
" />
<path d="M50810 52216
L50810 53020
" />
<circle cx="52010" cy="52620" r="700" /> 
<path d="M68568 45190
L66868 45190
" />
<path d="M66868 47590
L68568 47590
" />
<path d="M68918 45998
L68918 46790
" />
<path d="M66518 45986
L66518 46790
" />
<circle cx="67718.5" cy="46390" r="700" /> 
<path d="M66868 44575
L68568 44575
" />
<path d="M68568 42175
L66868 42175
" />
<path d="M66518 43767
L66518 42975
" />
<path d="M68918 43779
L68918 42975
" />
<circle cx="67718.5" cy="43375" r="700" /> 
<path d="M65016 45190
L63316 45190
" />
<path d="M63316 47590
L65016 47590
" />
<path d="M65366 45998
L65366 46790
" />
<path d="M62966 45986
L62966 46790
" />
<circle cx="64166" cy="46390" r="700" /> 
<path d="M72121 45190
L70421 45190
" />
<path d="M70421 47590
L72121 47590
" />
<path d="M72471 45998
L72471 46790
" />
<path d="M70071 45986
L70071 46790
" />
<circle cx="71271" cy="46390" r="700" /> 
</g>
<g style="fill:#008484; fill-opacity:0.0; 
stroke:#008484; stroke-width:59.0551; stroke-opacity:1; 
stroke-linecap:round; stroke-linejoin:round;">
<circle cx="52190" cy="34858" r="394" /> 
<circle cx="52190" cy="34858" r="2441" /> 
<path d="M55302 49660
L57302 49660
" />
<path d="M57302 49660
L57302 50660
" />
<path d="M57302 50660
L55302 50660
" />
<path d="M55302 50660
L55302 49660
" />
<path d="M55302 50160
L54802 50160
" />
<path d="M57302 50160
L57802 50160
" />
<path d="M57290 51706
L55290 51706
" />
<path d="M55290 51706
L55290 50706
" />
<path d="M55290 50706
L57290 50706
" />
<path d="M57290 50706
L57290 51706
" />
<path d="M57290 51206
L57790 51206
" />
<path d="M55290 51206
L54790 51206
" />
<path d="M63136 40967
L61136 40967
" />
<path d="M61136 40967
L61136 39967
" />
<path d="M61136 39967
L63136 39967
" />
<path d="M63136 39967
L63136 40967
" />
<path d="M63136 40467
L63636 40467
" />
<path d="M61136 40467
L60636 40467
" />
<path d="M63136 42018
L61136 42018
" />
<path d="M61136 42018
L61136 41018
" />
<path d="M61136 41018
L63136 41018
" />
<path d="M63136 41018
L63136 42018
" />
<path d="M63136 41518
L63636 41518
" />
<path d="M61136 41518
L60636 41518
" />
<path d="M63136 43027
L61136 43027
" />
<path d="M61136 43027
L61136 42027
" />
<path d="M61136 42027
L63136 42027
" />
<path d="M63136 42027
L63136 43027
" />
<path d="M63136 42527
L63636 42527
" />
<path d="M61136 42527
L60636 42527
" />
<path d="M58264 35370
L60264 35370
" />
<path d="M60264 35370
L60264 36370
" />
<path d="M60264 36370
L58264 36370
" />
<path d="M58264 36370
L58264 35370
" />
<path d="M58264 35870
L57764 35870
" />
<path d="M60264 35870
L60764 35870
" />
<path d="M58266 36381
L60266 36381
" />
<path d="M60266 36381
L60266 37381
" />
<path d="M60266 37381
L58266 37381
" />
<path d="M58266 37381
L58266 36381
" />
<path d="M58266 36881
L57766 36881
" />
<path d="M60266 36881
L60766 36881
" />
<path d="M58266 37416
L60266 37416
" />
<path d="M60266 37416
L60266 38416
" />
<path d="M60266 38416
L58266 38416
" />
<path d="M58266 38416
L58266 37416
" />
<path d="M58266 37916
L57766 37916
" />
<path d="M60266 37916
L60766 37916
" />
<path d="M64522 49150
L62522 49150
" />
<path d="M62522 49150
L62522 48150
" />
<path d="M62522 48150
L64522 48150
" />
<path d="M64522 48150
L64522 49150
" />
<path d="M64522 48650
L65022 48650
" />
<path d="M62522 48650
L62022 48650
" />
<path d="M70584 42958
L72584 42958
" />
<path d="M72584 42958
L72584 43958
" />
<path d="M72584 43958
L70584 43958
" />
<path d="M70584 43958
L70584 42958
" />
<path d="M70584 43458
L70084 43458
" />
<path d="M72584 43458
L73084 43458
" />
<path d="M64571 43895
L66571 43895
" />
<path d="M66571 43895
L66571 44895
" />
<path d="M66571 44895
L64571 44895
" />
<path d="M64571 44895
L64571 43895
" />
<path d="M64571 44395
L64071 44395
" />
<path d="M66571 44395
L67071 44395
" />
<path d="M64522 50190
L62522 50190
" />
<path d="M62522 50190
L62522 49190
" />
<path d="M62522 49190
L64522 49190
" />
<path d="M64522 49190
L64522 50190
" />
<path d="M64522 49690
L65022 49690
" />
<path d="M62522 49690
L62022 49690
" />
<path d="M71624 47908
L73624 47908
" />
<path d="M73624 47908
L73624 48908
" />
<path d="M73624 48908
L71624 48908
" />
<path d="M71624 48908
L71624 47908
" />
<path d="M71624 48408
L71124 48408
" />
<path d="M73624 48408
L74124 48408
" />
</g>
<g style="fill:#008484; fill-opacity:0.0; 
stroke:#008484; stroke-width:80; stroke-opacity:1; 
stroke-linecap:round; stroke-linejoin:round;">
<path d="M64370 38200
L65870 38200
" />
</g>
<g style="fill:#008484; fill-opacity:0.0; 
stroke:#008484; stroke-width:100; stroke-opacity:1; 
stroke-linecap:round; stroke-linejoin:round;">
<path d="M65871.1 38199.2 A1250 1250 0.0 1 0 64370 38200 " />
</g>
<g style="fill:#008484; fill-opacity:0.0; 
stroke:#008484; stroke-width:60; stroke-opacity:1; 
stroke-linecap:round; stroke-linejoin:round;">
<circle cx="65120" cy="37200" r="1000" /> 
</g>
<g style="fill:#008484; fill-opacity:0.0; 
stroke:#008484; stroke-width:80; stroke-opacity:1; 
stroke-linecap:round; stroke-linejoin:round;">
<path d="M67050 38200
L68550 38200
" />
</g>
<g style="fill:#008484; fill-opacity:0.0; 
stroke:#008484; stroke-width:100; stroke-opacity:1; 
stroke-linecap:round; stroke-linejoin:round;">
<path d="M68551.1 38199.2 A1250 1250 0.0 1 0 67050 38200 " />
</g>
<g style="fill:#008484; fill-opacity:0.0; 
stroke:#008484; stroke-width:60; stroke-opacity:1; 
stroke-linecap:round; stroke-linejoin:round;">
<circle cx="67800" cy="37200" r="1000" /> 
</g>
<g style="fill:#008484; fill-opacity:0.0; 
stroke:#008484; stroke-width:80; stroke-opacity:1; 
stroke-linecap:round; stroke-linejoin:round;">
<path d="M69800 38200
L71300 38200
" />
</g>
<g style="fill:#008484; fill-opacity:0.0; 
stroke:#008484; stroke-width:100; stroke-opacity:1; 
stroke-linecap:round; stroke-linejoin:round;">
<path d="M71301.1 38199.2 A1250 1250 0.0 1 0 69800 38200 " />
</g>
<g style="fill:#008484; fill-opacity:0.0; 
stroke:#008484; stroke-width:60; stroke-opacity:1; 
stroke-linecap:round; stroke-linejoin:round;">
<circle cx="70550" cy="37200" r="1000" /> 
</g>
<g style="fill:#840000; fill-opacity:0.0; 
stroke:#840000; stroke-width:60; stroke-opacity:1; 
stroke-linecap:round; stroke-linejoin:round;">
</g>
<g style="fill:#840000; fill-opacity:0.0; 
stroke:#840000; stroke-width:600; stroke-opacity:1; 
stroke-linecap:round; stroke-linejoin:round;">
<path d="M74984 53452
L74984 53052
" />
<path d="M73984 53452
L73984 53052
" />
<path d="M72984 53452
L72984 53052
" />
<path d="M69984 53452
L69984 53052
" />
<path d="M70984 53452
L70984 53052
" />
<path d="M71984 53452
L71984 53052
" />
<path d="M67984 53452
L67984 53052
" />
<path d="M66984 53452
L66984 53052
" />
<path d="M65984 53452
L65984 53052
" />
<path d="M63984 53452
L63984 53052
" />
<path d="M62984 53452
L62984 53052
" />
<path d="M74984 34452
L74984 34052
" />
<path d="M73984 34452
L73984 34052
" />
<path d="M72984 34452
L72984 34052
" />
<path d="M71984 34452
L71984 34052
" />
<path d="M70984 34452
L70984 34052
" />
<path d="M69984 34452
L69984 34052
" />
<path d="M68984 34452
L68984 34052
" />
<path d="M67984 34452
L67984 34052
" />
<path d="M66384 34452
L66384 34052
" />
<path d="M65384 34452
L65384 34052
" />
<path d="M64384 34452
L64384 34052
" />
<path d="M63384 34452
L63384 34052
" />
<path d="M62384 34452
L62384 34052
" />
<path d="M61384 34452
L61384 34052
" />
<path d="M60384 34452
L60384 34052
" />
<path d="M59384 34452
L59384 34052
" />
<path d="M64984 53452
L64984 53052
" />
</g>
<g style="fill:#840000; fill-opacity:1.0; 
stroke:#840000; stroke-width:0; stroke-opacity:1; 
stroke-linecap:round; stroke-linejoin:round;">
<circle cx="75984" cy="51252" r="625" /> 
</g>
<g style="fill:#840000; fill-opacity:1.0; 
stroke:#840000; stroke-width:39.3701; stroke-opacity:1; 
stroke-linecap:round; stroke-linejoin:round;">
</g>
<g style="fill:#840000; fill-opacity:1.0; 
stroke:#840000; stroke-width:0; stroke-opacity:1; 
stroke-linecap:round; stroke-linejoin:round;">
<circle cx="75984" cy="40252" r="625" /> 
</g>
<g style="fill:#840000; fill-opacity:1.0; 
stroke:#840000; stroke-width:39.3701; stroke-opacity:1; 
stroke-linecap:round; stroke-linejoin:round;">
</g>
<g style="fill:#840000; fill-opacity:1.0; 
stroke:#840000; stroke-width:0; stroke-opacity:1; 
stroke-linecap:round; stroke-linejoin:round;">
<circle cx="55984" cy="34252" r="625" /> 
</g>
<g style="fill:#840000; fill-opacity:1.0; 
stroke:#840000; stroke-width:39.3701; stroke-opacity:1; 
stroke-linecap:round; stroke-linejoin:round;">
</g>
<g style="fill:#840000; fill-opacity:1.0; 
stroke:#840000; stroke-width:0; stroke-opacity:1; 
stroke-linecap:round; stroke-linejoin:round;">
<circle cx="55484" cy="53252" r="625" /> 
</g>
<g style="fill:#840000; fill-opacity:1.0; 
stroke:#840000; stroke-width:39.3701; stroke-opacity:1; 
stroke-linecap:round; stroke-linejoin:round;">
</g>
<g style="fill:#840000; fill-opacity:1.0; 
stroke:#840000; stroke-width:600; stroke-opacity:1; 
stroke-linecap:round; stroke-linejoin:round;">
</g>
<g style="fill:#840000; fill-opacity:0.0; 
stroke:#840000; stroke-width:600; stroke-opacity:1; 
stroke-linecap:round; stroke-linejoin:round;">
<path d="M58384 34452
L58384 34052
" />
<path d="M57384 34452
L57384 34052
" />
<path d="M61984 53452
L61984 53052
" />
<path d="M60984 53452
L60984 53052
" />
</g>
<g style="fill:#840000; fill-opacity:1.0; 
stroke:#840000; stroke-width:0; stroke-opacity:1; 
stroke-linecap:round; stroke-linejoin:round;">
<circle cx="74984" cy="42252" r="300" /> 
</g>
<g style="fill:#840000; fill-opacity:1.0; 
stroke:#840000; stroke-width:39.3701; stroke-opacity:1; 
stroke-linecap:round; stroke-linejoin:round;">
</g>
<g style="fill:#840000; fill-opacity:1.0; 
stroke:#840000; stroke-width:0; stroke-opacity:1; 
stroke-linecap:round; stroke-linejoin:round;">
<circle cx="75984" cy="42252" r="300" /> 
</g>
<g style="fill:#840000; fill-opacity:1.0; 
stroke:#840000; stroke-width:39.3701; stroke-opacity:1; 
stroke-linecap:round; stroke-linejoin:round;">
</g>
<g style="fill:#840000; fill-opacity:1.0; 
stroke:#840000; stroke-width:0; stroke-opacity:1; 
stroke-linecap:round; stroke-linejoin:round;">
<circle cx="74984" cy="43252" r="300" /> 
</g>
<g style="fill:#840000; fill-opacity:1.0; 
stroke:#840000; stroke-width:39.3701; stroke-opacity:1; 
stroke-linecap:round; stroke-linejoin:round;">
</g>
<g style="fill:#840000; fill-opacity:1.0; 
stroke:#840000; stroke-width:0; stroke-opacity:1; 
stroke-linecap:round; stroke-linejoin:round;">
<circle cx="75984" cy="43252" r="300" /> 
</g>
<g style="fill:#840000; fill-opacity:1.0; 
stroke:#840000; stroke-width:39.3701; stroke-opacity:1; 
stroke-linecap:round; stroke-linejoin:round;">
</g>
<g style="fill:#840000; fill-opacity:1.0; 
stroke:#840000; stroke-width:0; stroke-opacity:1; 
stroke-linecap:round; stroke-linejoin:round;">
<circle cx="74984" cy="44252" r="300" /> 
</g>
<g style="fill:#840000; fill-opacity:1.0; 
stroke:#840000; stroke-width:39.3701; stroke-opacity:1; 
stroke-linecap:round; stroke-linejoin:round;">
</g>
<g style="fill:#840000; fill-opacity:1.0; 
stroke:#840000; stroke-width:0; stroke-opacity:1; 
stroke-linecap:round; stroke-linejoin:round;">
<circle cx="75984" cy="44252" r="300" /> 
</g>
<g style="fill:#840000; fill-opacity:1.0; 
stroke:#840000; stroke-width:39.3701; stroke-opacity:1; 
stroke-linecap:round; stroke-linejoin:round;">
</g>
<g style="fill:#840000; fill-opacity:1.0; 
stroke:#840000; stroke-width:0; stroke-opacity:1; 
stroke-linecap:round; stroke-linejoin:round;">
<circle cx="54710" cy="48468.9" r="629.921" /> 
</g>
<g style="fill:#840000; fill-opacity:1.0; 
stroke:#840000; stroke-width:39.3701; stroke-opacity:1; 
stroke-linecap:round; stroke-linejoin:round;">
</g>
<g style="fill:#840000; fill-opacity:1.0; 
stroke:#840000; stroke-width:0; stroke-opacity:1; 
stroke-linecap:round; stroke-linejoin:round;">
<circle cx="54710" cy="45083.1" r="629.921" /> 
</g>
<g style="fill:#840000; fill-opacity:1.0; 
stroke:#840000; stroke-width:39.3701; stroke-opacity:1; 
stroke-linecap:round; stroke-linejoin:round;">
</g>
<g style="fill:#840000; fill-opacity:1.0; 
stroke:#840000; stroke-width:0; stroke-opacity:1; 
stroke-linecap:round; stroke-linejoin:round;">
<circle cx="57465.9" cy="46776" r="354.331" /> 
</g>
<g style="fill:#840000; fill-opacity:1.0; 
stroke:#840000; stroke-width:39.3701; stroke-opacity:1; 
stroke-linecap:round; stroke-linejoin:round;">
</g>
<g style="fill:#840000; fill-opacity:1.0; 
stroke:#840000; stroke-width:0; stroke-opacity:1; 
stroke-linecap:round; stroke-linejoin:round;">
<circle cx="57465.9" cy="47760.3" r="354.331" /> 
</g>
<g style="fill:#840000; fill-opacity:1.0; 
stroke:#840000; stroke-width:39.3701; stroke-opacity:1; 
stroke-linecap:round; stroke-linejoin:round;">
</g>
<g style="fill:#840000; fill-opacity:1.0; 
stroke:#840000; stroke-width:0; stroke-opacity:1; 
stroke-linecap:round; stroke-linejoin:round;">
<circle cx="57465.9" cy="45791.7" r="354.331" /> 
</g>
<g style="fill:#840000; fill-opacity:1.0; 
stroke:#840000; stroke-width:39.3701; stroke-opacity:1; 
stroke-linecap:round; stroke-linejoin:round;">
</g>
<g style="fill:#840000; fill-opacity:1.0; 
stroke:#840000; stroke-width:0; stroke-opacity:1; 
stroke-linecap:round; stroke-linejoin:round;">
<circle cx="55963.9" cy="38142" r="256" /> 
</g>
<g style="fill:#840000; fill-opacity:1.0; 
stroke:#840000; stroke-width:39.3701; stroke-opacity:1; 
stroke-linecap:round; stroke-linejoin:round;">
</g>
<g style="fill:#840000; fill-opacity:1.0; 
stroke:#840000; stroke-width:0; stroke-opacity:1; 
stroke-linecap:round; stroke-linejoin:round;">
<circle cx="55963.9" cy="35780" r="256" /> 
</g>
<g style="fill:#840000; fill-opacity:1.0; 
stroke:#840000; stroke-width:39.3701; stroke-opacity:1; 
stroke-linecap:round; stroke-linejoin:round;">
</g>
<g style="fill:#840000; fill-opacity:1.0; 
stroke:#840000; stroke-width:0; stroke-opacity:1; 
stroke-linecap:round; stroke-linejoin:round;">
<polyline style="fill-rule:evenodd;"
points="55707,36311
56219,36311
56219,36823
55707,36823
55707,36311
" /> 
<circle cx="55963.9" cy="37355" r="256" /> 
</g>
<g style="fill:#840000; fill-opacity:1.0; 
stroke:#840000; stroke-width:39.3701; stroke-opacity:1; 
stroke-linecap:round; stroke-linejoin:round;">
</g>
<g style="fill:#840000; fill-opacity:1.0; 
stroke:#840000; stroke-width:0; stroke-opacity:1; 
stroke-linecap:round; stroke-linejoin:round;">
<circle cx="54690" cy="43620" r="629.921" /> 
</g>
<g style="fill:#840000; fill-opacity:1.0; 
stroke:#840000; stroke-width:39.3701; stroke-opacity:1; 
stroke-linecap:round; stroke-linejoin:round;">
</g>
<g style="fill:#840000; fill-opacity:1.0; 
stroke:#840000; stroke-width:0; stroke-opacity:1; 
stroke-linecap:round; stroke-linejoin:round;">
<circle cx="54690" cy="40234.2" r="629.921" /> 
</g>
<g style="fill:#840000; fill-opacity:1.0; 
stroke:#840000; stroke-width:39.3701; stroke-opacity:1; 
stroke-linecap:round; stroke-linejoin:round;">
</g>
<g style="fill:#840000; fill-opacity:1.0; 
stroke:#840000; stroke-width:0; stroke-opacity:1; 
stroke-linecap:round; stroke-linejoin:round;">
<circle cx="57445.9" cy="41927.1" r="354.331" /> 
</g>
<g style="fill:#840000; fill-opacity:1.0; 
stroke:#840000; stroke-width:39.3701; stroke-opacity:1; 
stroke-linecap:round; stroke-linejoin:round;">
</g>
<g style="fill:#840000; fill-opacity:1.0; 
stroke:#840000; stroke-width:0; stroke-opacity:1; 
stroke-linecap:round; stroke-linejoin:round;">
<circle cx="57445.9" cy="42911.3" r="354.331" /> 
</g>
<g style="fill:#840000; fill-opacity:1.0; 
stroke:#840000; stroke-width:39.3701; stroke-opacity:1; 
stroke-linecap:round; stroke-linejoin:round;">
</g>
<g style="fill:#840000; fill-opacity:1.0; 
stroke:#840000; stroke-width:0; stroke-opacity:1; 
stroke-linecap:round; stroke-linejoin:round;">
<circle cx="57445.9" cy="40942.8" r="354.331" /> 
</g>
<g style="fill:#840000; fill-opacity:1.0; 
stroke:#840000; stroke-width:39.3701; stroke-opacity:1; 
stroke-linecap:round; stroke-linejoin:round;">
</g>
<g style="fill:#840000; fill-opacity:1.0; 
stroke:#840000; stroke-width:0; stroke-opacity:1; 
stroke-linecap:round; stroke-linejoin:round;">
<circle cx="50694" cy="34858" r="393.701" /> 
</g>
<g style="fill:#840000; fill-opacity:1.0; 
stroke:#840000; stroke-width:39.3701; stroke-opacity:1; 
stroke-linecap:round; stroke-linejoin:round;">
</g>
<g style="fill:#840000; fill-opacity:1.0; 
stroke:#840000; stroke-width:0; stroke-opacity:1; 
stroke-linecap:round; stroke-linejoin:round;">
<circle cx="53686" cy="34858" r="393.701" /> 
</g>
<g style="fill:#840000; fill-opacity:1.0; 
stroke:#840000; stroke-width:39.3701; stroke-opacity:1; 
stroke-linecap:round; stroke-linejoin:round;">
</g>
<g style="fill:#840000; fill-opacity:1.0; 
stroke:#840000; stroke-width:0; stroke-opacity:1; 
stroke-linecap:round; stroke-linejoin:round;">
<circle cx="54302" cy="50160" r="393.5" /> 
</g>
<g style="fill:#840000; fill-opacity:1.0; 
stroke:#840000; stroke-width:39.3701; stroke-opacity:1; 
stroke-linecap:round; stroke-linejoin:round;">
</g>
<g style="fill:#840000; fill-opacity:1.0; 
stroke:#840000; stroke-width:0; stroke-opacity:1; 
stroke-linecap:round; stroke-linejoin:round;">
<circle cx="58302" cy="50160" r="393.5" /> 
</g>
<g style="fill:#840000; fill-opacity:1.0; 
stroke:#840000; stroke-width:39.3701; stroke-opacity:1; 
stroke-linecap:round; stroke-linejoin:round;">
</g>
<g style="fill:#840000; fill-opacity:1.0; 
stroke:#840000; stroke-width:0; stroke-opacity:1; 
stroke-linecap:round; stroke-linejoin:round;">
<circle cx="58290" cy="51206" r="393.5" /> 
</g>
<g style="fill:#840000; fill-opacity:1.0; 
stroke:#840000; stroke-width:39.3701; stroke-opacity:1; 
stroke-linecap:round; stroke-linejoin:round;">
</g>
<g style="fill:#840000; fill-opacity:1.0; 
stroke:#840000; stroke-width:0; stroke-opacity:1; 
stroke-linecap:round; stroke-linejoin:round;">
<circle cx="54290" cy="51206" r="393.5" /> 
</g>
<g style="fill:#840000; fill-opacity:1.0; 
stroke:#840000; stroke-width:39.3701; stroke-opacity:1; 
stroke-linecap:round; stroke-linejoin:round;">
</g>
<g style="fill:#840000; fill-opacity:1.0; 
stroke:#840000; stroke-width:0; stroke-opacity:1; 
stroke-linecap:round; stroke-linejoin:round;">
<circle cx="64136" cy="40467" r="393.5" /> 
</g>
<g style="fill:#840000; fill-opacity:1.0; 
stroke:#840000; stroke-width:39.3701; stroke-opacity:1; 
stroke-linecap:round; stroke-linejoin:round;">
</g>
<g style="fill:#840000; fill-opacity:1.0; 
stroke:#840000; stroke-width:0; stroke-opacity:1; 
stroke-linecap:round; stroke-linejoin:round;">
<circle cx="60136" cy="40467" r="393.5" /> 
</g>
<g style="fill:#840000; fill-opacity:1.0; 
stroke:#840000; stroke-width:39.3701; stroke-opacity:1; 
stroke-linecap:round; stroke-linejoin:round;">
</g>
<g style="fill:#840000; fill-opacity:1.0; 
stroke:#840000; stroke-width:0; stroke-opacity:1; 
stroke-linecap:round; stroke-linejoin:round;">
<circle cx="64136" cy="41518.2" r="393.5" /> 
</g>
<g style="fill:#840000; fill-opacity:1.0; 
stroke:#840000; stroke-width:39.3701; stroke-opacity:1; 
stroke-linecap:round; stroke-linejoin:round;">
</g>
<g style="fill:#840000; fill-opacity:1.0; 
stroke:#840000; stroke-width:0; stroke-opacity:1; 
stroke-linecap:round; stroke-linejoin:round;">
<circle cx="60136" cy="41518.2" r="393.5" /> 
</g>
<g style="fill:#840000; fill-opacity:1.0; 
stroke:#840000; stroke-width:39.3701; stroke-opacity:1; 
stroke-linecap:round; stroke-linejoin:round;">
</g>
<g style="fill:#840000; fill-opacity:1.0; 
stroke:#840000; stroke-width:0; stroke-opacity:1; 
stroke-linecap:round; stroke-linejoin:round;">
<circle cx="64136" cy="42527" r="393.5" /> 
</g>
<g style="fill:#840000; fill-opacity:1.0; 
stroke:#840000; stroke-width:39.3701; stroke-opacity:1; 
stroke-linecap:round; stroke-linejoin:round;">
</g>
<g style="fill:#840000; fill-opacity:1.0; 
stroke:#840000; stroke-width:0; stroke-opacity:1; 
stroke-linecap:round; stroke-linejoin:round;">
<circle cx="60136" cy="42527" r="393.5" /> 
</g>
<g style="fill:#840000; fill-opacity:1.0; 
stroke:#840000; stroke-width:39.3701; stroke-opacity:1; 
stroke-linecap:round; stroke-linejoin:round;">
</g>
<g style="fill:#840000; fill-opacity:1.0; 
stroke:#840000; stroke-width:0; stroke-opacity:1; 
stroke-linecap:round; stroke-linejoin:round;">
<circle cx="57264" cy="35870" r="393.5" /> 
</g>
<g style="fill:#840000; fill-opacity:1.0; 
stroke:#840000; stroke-width:39.3701; stroke-opacity:1; 
stroke-linecap:round; stroke-linejoin:round;">
</g>
<g style="fill:#840000; fill-opacity:1.0; 
stroke:#840000; stroke-width:0; stroke-opacity:1; 
stroke-linecap:round; stroke-linejoin:round;">
<circle cx="61264" cy="35870" r="393.5" /> 
</g>
<g style="fill:#840000; fill-opacity:1.0; 
stroke:#840000; stroke-width:39.3701; stroke-opacity:1; 
stroke-linecap:round; stroke-linejoin:round;">
</g>
<g style="fill:#840000; fill-opacity:1.0; 
stroke:#840000; stroke-width:0; stroke-opacity:1; 
stroke-linecap:round; stroke-linejoin:round;">
<circle cx="57266" cy="36881" r="393.5" /> 
</g>
<g style="fill:#840000; fill-opacity:1.0; 
stroke:#840000; stroke-width:39.3701; stroke-opacity:1; 
stroke-linecap:round; stroke-linejoin:round;">
</g>
<g style="fill:#840000; fill-opacity:1.0; 
stroke:#840000; stroke-width:0; stroke-opacity:1; 
stroke-linecap:round; stroke-linejoin:round;">
<circle cx="61266" cy="36881" r="393.5" /> 
</g>
<g style="fill:#840000; fill-opacity:1.0; 
stroke:#840000; stroke-width:39.3701; stroke-opacity:1; 
stroke-linecap:round; stroke-linejoin:round;">
</g>
<g style="fill:#840000; fill-opacity:1.0; 
stroke:#840000; stroke-width:0; stroke-opacity:1; 
stroke-linecap:round; stroke-linejoin:round;">
<circle cx="57266" cy="37916" r="393.5" /> 
</g>
<g style="fill:#840000; fill-opacity:1.0; 
stroke:#840000; stroke-width:39.3701; stroke-opacity:1; 
stroke-linecap:round; stroke-linejoin:round;">
</g>
<g style="fill:#840000; fill-opacity:1.0; 
stroke:#840000; stroke-width:0; stroke-opacity:1; 
stroke-linecap:round; stroke-linejoin:round;">
<circle cx="61266" cy="37916" r="393.5" /> 
</g>
<g style="fill:#840000; fill-opacity:1.0; 
stroke:#840000; stroke-width:39.3701; stroke-opacity:1; 
stroke-linecap:round; stroke-linejoin:round;">
</g>
<g style="fill:#840000; fill-opacity:1.0; 
stroke:#840000; stroke-width:0; stroke-opacity:1; 
stroke-linecap:round; stroke-linejoin:round;">
<circle cx="65522" cy="48650" r="393.5" /> 
</g>
<g style="fill:#840000; fill-opacity:1.0; 
stroke:#840000; stroke-width:39.3701; stroke-opacity:1; 
stroke-linecap:round; stroke-linejoin:round;">
</g>
<g style="fill:#840000; fill-opacity:1.0; 
stroke:#840000; stroke-width:0; stroke-opacity:1; 
stroke-linecap:round; stroke-linejoin:round;">
<circle cx="61522" cy="48650" r="393.5" /> 
</g>
<g style="fill:#840000; fill-opacity:1.0; 
stroke:#840000; stroke-width:39.3701; stroke-opacity:1; 
stroke-linecap:round; stroke-linejoin:round;">
</g>
<g style="fill:#840000; fill-opacity:1.0; 
stroke:#840000; stroke-width:0; stroke-opacity:1; 
stroke-linecap:round; stroke-linejoin:round;">
<circle cx="69584" cy="43458" r="393.5" /> 
</g>
<g style="fill:#840000; fill-opacity:1.0; 
stroke:#840000; stroke-width:39.3701; stroke-opacity:1; 
stroke-linecap:round; stroke-linejoin:round;">
</g>
<g style="fill:#840000; fill-opacity:1.0; 
stroke:#840000; stroke-width:0; stroke-opacity:1; 
stroke-linecap:round; stroke-linejoin:round;">
<circle cx="73584" cy="43458" r="393.5" /> 
</g>
<g style="fill:#840000; fill-opacity:1.0; 
stroke:#840000; stroke-width:39.3701; stroke-opacity:1; 
stroke-linecap:round; stroke-linejoin:round;">
</g>
<g style="fill:#840000; fill-opacity:1.0; 
stroke:#840000; stroke-width:0; stroke-opacity:1; 
stroke-linecap:round; stroke-linejoin:round;">
<circle cx="63571" cy="44395" r="393.5" /> 
</g>
<g style="fill:#840000; fill-opacity:1.0; 
stroke:#840000; stroke-width:39.3701; stroke-opacity:1; 
stroke-linecap:round; stroke-linejoin:round;">
</g>
<g style="fill:#840000; fill-opacity:1.0; 
stroke:#840000; stroke-width:0; stroke-opacity:1; 
stroke-linecap:round; stroke-linejoin:round;">
<circle cx="67571" cy="44395" r="393.5" /> 
</g>
<g style="fill:#840000; fill-opacity:1.0; 
stroke:#840000; stroke-width:39.3701; stroke-opacity:1; 
stroke-linecap:round; stroke-linejoin:round;">
</g>
<g style="fill:#840000; fill-opacity:1.0; 
stroke:#840000; stroke-width:0; stroke-opacity:1; 
stroke-linecap:round; stroke-linejoin:round;">
<circle cx="65522" cy="49690" r="393.5" /> 
</g>
<g style="fill:#840000; fill-opacity:1.0; 
stroke:#840000; stroke-width:39.3701; stroke-opacity:1; 
stroke-linecap:round; stroke-linejoin:round;">
</g>
<g style="fill:#840000; fill-opacity:1.0; 
stroke:#840000; stroke-width:0; stroke-opacity:1; 
stroke-linecap:round; stroke-linejoin:round;">
<circle cx="61522" cy="49690" r="393.5" /> 
</g>
<g style="fill:#840000; fill-opacity:1.0; 
stroke:#840000; stroke-width:39.3701; stroke-opacity:1; 
stroke-linecap:round; stroke-linejoin:round;">
</g>
<g style="fill:#840000; fill-opacity:1.0; 
stroke:#840000; stroke-width:0; stroke-opacity:1; 
stroke-linecap:round; stroke-linejoin:round;">
<circle cx="70624" cy="48408" r="393.5" /> 
</g>
<g style="fill:#840000; fill-opacity:1.0; 
stroke:#840000; stroke-width:39.3701; stroke-opacity:1; 
stroke-linecap:round; stroke-linejoin:round;">
</g>
<g style="fill:#840000; fill-opacity:1.0; 
stroke:#840000; stroke-width:0; stroke-opacity:1; 
stroke-linecap:round; stroke-linejoin:round;">
<circle cx="74624" cy="48408" r="393.5" /> 
</g>
<g style="fill:#840000; fill-opacity:1.0; 
stroke:#840000; stroke-width:39.3701; stroke-opacity:1; 
stroke-linecap:round; stroke-linejoin:round;">
</g> 
</svg>
