%FSLAX45Y45*%
G04 Gerber Fmt 4.5, Leading zero omitted, Abs format (unit mm)*
G04 Created by KiCad (PCBNEW 4.1.0-alpha+201605121532+6803~44~ubuntu14.04.1-product) date Sat May 14 23:12:40 2016*
%MOMM*%
%LPD*%
G01*
G04 APERTURE LIST*
%ADD10C,0.127000*%
%ADD11C,0.100000*%
%ADD12C,0.200000*%
%ADD13C,0.300000*%
G04 APERTURE END LIST*
D10*
D11*
X12682220Y-13792200D02*
X12682220Y-8498840D01*
X19316700Y-13792200D02*
X12682220Y-13792200D01*
X19316700Y-13528040D02*
X19316700Y-13792200D01*
X19568160Y-13276580D02*
X19316700Y-13528040D01*
X19568160Y-9959340D02*
X19568160Y-13276580D01*
X19316700Y-9707880D02*
X19568160Y-9959340D01*
X19316700Y-8564880D02*
X19316700Y-9707880D01*
X19179540Y-8427720D02*
X19316700Y-8564880D01*
X12682220Y-8427720D02*
X19179540Y-8427720D01*
X12682220Y-8498840D02*
X12682220Y-8427720D01*
D12*
X13751560Y-12968224D02*
X13827760Y-13044424D01*
X13827760Y-12968224D02*
X13751560Y-13044424D01*
X13754608Y-12702540D02*
X13830808Y-12778740D01*
X13830808Y-12702540D02*
X13754608Y-12778740D01*
X14506956Y-9072880D02*
X14583156Y-9149080D01*
X14583156Y-9072880D02*
X14506956Y-9149080D01*
X14507464Y-9329674D02*
X14583664Y-9405874D01*
X14583664Y-9329674D02*
X14507464Y-9405874D01*
X14507464Y-9592564D02*
X14583664Y-9668764D01*
X14583664Y-9592564D02*
X14507464Y-9668764D01*
X14767560Y-12968224D02*
X14843760Y-13044424D01*
X14843760Y-12968224D02*
X14767560Y-13044424D01*
X14770608Y-12702540D02*
X14846808Y-12778740D01*
X14846808Y-12702540D02*
X14770608Y-12778740D01*
X15236444Y-10240518D02*
X15312644Y-10316718D01*
X15312644Y-10240518D02*
X15236444Y-10316718D01*
X15236444Y-10507536D02*
X15312644Y-10583736D01*
X15312644Y-10507536D02*
X15236444Y-10583736D01*
X15236444Y-10763758D02*
X15312644Y-10839958D01*
X15312644Y-10763758D02*
X15236444Y-10839958D01*
X15522956Y-9072880D02*
X15599156Y-9149080D01*
X15599156Y-9072880D02*
X15522956Y-9149080D01*
X15523464Y-9329674D02*
X15599664Y-9405874D01*
X15599664Y-9329674D02*
X15523464Y-9405874D01*
X15523464Y-9592564D02*
X15599664Y-9668764D01*
X15599664Y-9592564D02*
X15523464Y-9668764D01*
X15588488Y-12319000D02*
X15664688Y-12395200D01*
X15664688Y-12319000D02*
X15588488Y-12395200D01*
X15588488Y-12583160D02*
X15664688Y-12659360D01*
X15664688Y-12583160D02*
X15588488Y-12659360D01*
X16108934Y-11238230D02*
X16185134Y-11314430D01*
X16185134Y-11238230D02*
X16108934Y-11314430D01*
X16252444Y-10240518D02*
X16328644Y-10316718D01*
X16328644Y-10240518D02*
X16252444Y-10316718D01*
X16252444Y-10507536D02*
X16328644Y-10583736D01*
X16328644Y-10507536D02*
X16252444Y-10583736D01*
X16252444Y-10763758D02*
X16328644Y-10839958D01*
X16328644Y-10763758D02*
X16252444Y-10839958D01*
X16604488Y-12319000D02*
X16680688Y-12395200D01*
X16680688Y-12319000D02*
X16604488Y-12395200D01*
X16604488Y-12583160D02*
X16680688Y-12659360D01*
X16680688Y-12583160D02*
X16604488Y-12659360D01*
X17124934Y-11238230D02*
X17201134Y-11314430D01*
X17201134Y-11238230D02*
X17124934Y-11314430D01*
X17636236Y-11000232D02*
X17712436Y-11076432D01*
X17712436Y-11000232D02*
X17636236Y-11076432D01*
X17900396Y-12257532D02*
X17976596Y-12333732D01*
X17976596Y-12257532D02*
X17900396Y-12333732D01*
X18652236Y-11000232D02*
X18728436Y-11076432D01*
X18728436Y-11000232D02*
X18652236Y-11076432D01*
X18916396Y-12257532D02*
X18992596Y-12333732D01*
X18992596Y-12257532D02*
X18916396Y-12333732D01*
X14254846Y-9088129D02*
G75*
G03X14254846Y-9088129I-40005J0D01*
G01*
X14254846Y-9288027D02*
G75*
G03X14254846Y-9288027I-40005J0D01*
G01*
X14254846Y-9488179D02*
G75*
G03X14254846Y-9488179I-40005J0D01*
G01*
X14254846Y-9688077D02*
G75*
G03X14254846Y-9688077I-40005J0D01*
G01*
X16540480Y-9281160D02*
X16540480Y-9362440D01*
X16499840Y-9321800D02*
X16581120Y-9321800D01*
X16540480Y-9535160D02*
X16540480Y-9616440D01*
X16499840Y-9575800D02*
X16581120Y-9575800D01*
X17221200Y-9281160D02*
X17221200Y-9362440D01*
X17180560Y-9321800D02*
X17261840Y-9321800D01*
X17221200Y-9535160D02*
X17221200Y-9616440D01*
X17180560Y-9575800D02*
X17261840Y-9575800D01*
X17919700Y-9281160D02*
X17919700Y-9362440D01*
X17879060Y-9321800D02*
X17960340Y-9321800D01*
X17919700Y-9535160D02*
X17919700Y-9616440D01*
X17879060Y-9575800D02*
X17960340Y-9575800D01*
X14626616Y-10434836D02*
X14626616Y-10364124D01*
X14555904Y-10364124D01*
X14555904Y-10434836D01*
X14626616Y-10434836D01*
X14626616Y-10684836D02*
X14626616Y-10614124D01*
X14555904Y-10614124D01*
X14555904Y-10684836D01*
X14626616Y-10684836D01*
X14626616Y-10934836D02*
X14626616Y-10864124D01*
X14555904Y-10864124D01*
X14555904Y-10934836D01*
X14626616Y-10934836D01*
X14631696Y-11666460D02*
X14631696Y-11595748D01*
X14560984Y-11595748D01*
X14560984Y-11666460D01*
X14631696Y-11666460D01*
X14631696Y-11916460D02*
X14631696Y-11845748D01*
X14560984Y-11845748D01*
X14560984Y-11916460D01*
X14631696Y-11916460D01*
X14631696Y-12166460D02*
X14631696Y-12095748D01*
X14560984Y-12095748D01*
X14560984Y-12166460D01*
X14631696Y-12166460D01*
X12876276Y-8903970D02*
X12926314Y-8853932D01*
X12876276Y-8803894D01*
X12826238Y-8853932D01*
X12876276Y-8903970D01*
X13636244Y-8903970D02*
X13686282Y-8853932D01*
X13636244Y-8803894D01*
X13586206Y-8853932D01*
X13636244Y-8903970D01*
X12834620Y-13088620D02*
X12936220Y-13190220D01*
X12936220Y-13088620D02*
X12834620Y-13190220D01*
X12936220Y-13139420D02*
G75*
G03X12936220Y-13139420I-50800J0D01*
G01*
X12834620Y-13540740D02*
X12936220Y-13642340D01*
X12936220Y-13540740D02*
X12834620Y-13642340D01*
X12936220Y-13591540D02*
G75*
G03X12936220Y-13591540I-50800J0D01*
G01*
X13484860Y-13088620D02*
X13586460Y-13190220D01*
X13586460Y-13088620D02*
X13484860Y-13190220D01*
X13586460Y-13139420D02*
G75*
G03X13586460Y-13139420I-50800J0D01*
G01*
X13484860Y-13540740D02*
X13586460Y-13642340D01*
X13586460Y-13540740D02*
X13484860Y-13642340D01*
X13586460Y-13591540D02*
G75*
G03X13586460Y-13591540I-50800J0D01*
G01*
X14524736Y-8649208D02*
X14626336Y-8750808D01*
X14626336Y-8649208D02*
X14524736Y-8750808D01*
X14626336Y-8700008D02*
G75*
G03X14626336Y-8700008I-50800J0D01*
G01*
X14778736Y-8649208D02*
X14880336Y-8750808D01*
X14880336Y-8649208D02*
X14778736Y-8750808D01*
X14880336Y-8700008D02*
G75*
G03X14880336Y-8700008I-50800J0D01*
G01*
X15032736Y-8649208D02*
X15134336Y-8750808D01*
X15134336Y-8649208D02*
X15032736Y-8750808D01*
X15134336Y-8700008D02*
G75*
G03X15134336Y-8700008I-50800J0D01*
G01*
X15286736Y-8649208D02*
X15388336Y-8750808D01*
X15388336Y-8649208D02*
X15286736Y-8750808D01*
X15388336Y-8700008D02*
G75*
G03X15388336Y-8700008I-50800J0D01*
G01*
X15439136Y-13475208D02*
X15540736Y-13576808D01*
X15540736Y-13475208D02*
X15439136Y-13576808D01*
X15540736Y-13526008D02*
G75*
G03X15540736Y-13526008I-50800J0D01*
G01*
X15540736Y-8649208D02*
X15642336Y-8750808D01*
X15642336Y-8649208D02*
X15540736Y-8750808D01*
X15642336Y-8700008D02*
G75*
G03X15642336Y-8700008I-50800J0D01*
G01*
X15693136Y-13475208D02*
X15794736Y-13576808D01*
X15794736Y-13475208D02*
X15693136Y-13576808D01*
X15794736Y-13526008D02*
G75*
G03X15794736Y-13526008I-50800J0D01*
G01*
X15794736Y-8649208D02*
X15896336Y-8750808D01*
X15896336Y-8649208D02*
X15794736Y-8750808D01*
X15896336Y-8700008D02*
G75*
G03X15896336Y-8700008I-50800J0D01*
G01*
X15922244Y-11506200D02*
X16023844Y-11607800D01*
X16023844Y-11506200D02*
X15922244Y-11607800D01*
X16023844Y-11557000D02*
G75*
G03X16023844Y-11557000I-50800J0D01*
G01*
X15922244Y-11958320D02*
X16023844Y-12059920D01*
X16023844Y-11958320D02*
X15922244Y-12059920D01*
X16023844Y-12009120D02*
G75*
G03X16023844Y-12009120I-50800J0D01*
G01*
X15947136Y-13475208D02*
X16048736Y-13576808D01*
X16048736Y-13475208D02*
X15947136Y-13576808D01*
X16048736Y-13526008D02*
G75*
G03X16048736Y-13526008I-50800J0D01*
G01*
X16048736Y-8649208D02*
X16150336Y-8750808D01*
X16150336Y-8649208D02*
X16048736Y-8750808D01*
X16150336Y-8700008D02*
G75*
G03X16150336Y-8700008I-50800J0D01*
G01*
X16201136Y-13475208D02*
X16302736Y-13576808D01*
X16302736Y-13475208D02*
X16201136Y-13576808D01*
X16302736Y-13526008D02*
G75*
G03X16302736Y-13526008I-50800J0D01*
G01*
X16302736Y-8649208D02*
X16404336Y-8750808D01*
X16404336Y-8649208D02*
X16302736Y-8750808D01*
X16404336Y-8700008D02*
G75*
G03X16404336Y-8700008I-50800J0D01*
G01*
X16455136Y-13475208D02*
X16556736Y-13576808D01*
X16556736Y-13475208D02*
X16455136Y-13576808D01*
X16556736Y-13526008D02*
G75*
G03X16556736Y-13526008I-50800J0D01*
G01*
X16556736Y-8649208D02*
X16658336Y-8750808D01*
X16658336Y-8649208D02*
X16556736Y-8750808D01*
X16658336Y-8700008D02*
G75*
G03X16658336Y-8700008I-50800J0D01*
G01*
X16572484Y-11506200D02*
X16674084Y-11607800D01*
X16674084Y-11506200D02*
X16572484Y-11607800D01*
X16674084Y-11557000D02*
G75*
G03X16674084Y-11557000I-50800J0D01*
G01*
X16572484Y-11958320D02*
X16674084Y-12059920D01*
X16674084Y-11958320D02*
X16572484Y-12059920D01*
X16674084Y-12009120D02*
G75*
G03X16674084Y-12009120I-50800J0D01*
G01*
X16709136Y-13475208D02*
X16810736Y-13576808D01*
X16810736Y-13475208D02*
X16709136Y-13576808D01*
X16810736Y-13526008D02*
G75*
G03X16810736Y-13526008I-50800J0D01*
G01*
X16810736Y-8649208D02*
X16912336Y-8750808D01*
X16912336Y-8649208D02*
X16810736Y-8750808D01*
X16912336Y-8700008D02*
G75*
G03X16912336Y-8700008I-50800J0D01*
G01*
X16824579Y-10740390D02*
X16926179Y-10841990D01*
X16926179Y-10740390D02*
X16824579Y-10841990D01*
X16926179Y-10791190D02*
G75*
G03X16926179Y-10791190I-50800J0D01*
G01*
X16824579Y-11192510D02*
X16926179Y-11294110D01*
X16926179Y-11192510D02*
X16824579Y-11294110D01*
X16926179Y-11243310D02*
G75*
G03X16926179Y-11243310I-50800J0D01*
G01*
X16824579Y-11506200D02*
X16926179Y-11607800D01*
X16926179Y-11506200D02*
X16824579Y-11607800D01*
X16926179Y-11557000D02*
G75*
G03X16926179Y-11557000I-50800J0D01*
G01*
X16824579Y-11958320D02*
X16926179Y-12059920D01*
X16926179Y-11958320D02*
X16824579Y-12059920D01*
X16926179Y-12009120D02*
G75*
G03X16926179Y-12009120I-50800J0D01*
G01*
X16824579Y-12272010D02*
X16926179Y-12373610D01*
X16926179Y-12272010D02*
X16824579Y-12373610D01*
X16926179Y-12322810D02*
G75*
G03X16926179Y-12322810I-50800J0D01*
G01*
X16824579Y-12724130D02*
X16926179Y-12825730D01*
X16926179Y-12724130D02*
X16824579Y-12825730D01*
X16926179Y-12774930D02*
G75*
G03X16926179Y-12774930I-50800J0D01*
G01*
X16963136Y-13475208D02*
X17064736Y-13576808D01*
X17064736Y-13475208D02*
X16963136Y-13576808D01*
X17064736Y-13526008D02*
G75*
G03X17064736Y-13526008I-50800J0D01*
G01*
X17217136Y-8649208D02*
X17318736Y-8750808D01*
X17318736Y-8649208D02*
X17217136Y-8750808D01*
X17318736Y-8700008D02*
G75*
G03X17318736Y-8700008I-50800J0D01*
G01*
X17217136Y-13475208D02*
X17318736Y-13576808D01*
X17318736Y-13475208D02*
X17217136Y-13576808D01*
X17318736Y-13526008D02*
G75*
G03X17318736Y-13526008I-50800J0D01*
G01*
X17471136Y-8649208D02*
X17572736Y-8750808D01*
X17572736Y-8649208D02*
X17471136Y-8750808D01*
X17572736Y-8700008D02*
G75*
G03X17572736Y-8700008I-50800J0D01*
G01*
X17474819Y-10740390D02*
X17576419Y-10841990D01*
X17576419Y-10740390D02*
X17474819Y-10841990D01*
X17576419Y-10791190D02*
G75*
G03X17576419Y-10791190I-50800J0D01*
G01*
X17474819Y-11192510D02*
X17576419Y-11294110D01*
X17576419Y-11192510D02*
X17474819Y-11294110D01*
X17576419Y-11243310D02*
G75*
G03X17576419Y-11243310I-50800J0D01*
G01*
X17474819Y-11506200D02*
X17576419Y-11607800D01*
X17576419Y-11506200D02*
X17474819Y-11607800D01*
X17576419Y-11557000D02*
G75*
G03X17576419Y-11557000I-50800J0D01*
G01*
X17474819Y-11958320D02*
X17576419Y-12059920D01*
X17576419Y-11958320D02*
X17474819Y-12059920D01*
X17576419Y-12009120D02*
G75*
G03X17576419Y-12009120I-50800J0D01*
G01*
X17474819Y-12272010D02*
X17576419Y-12373610D01*
X17576419Y-12272010D02*
X17474819Y-12373610D01*
X17576419Y-12322810D02*
G75*
G03X17576419Y-12322810I-50800J0D01*
G01*
X17474819Y-12724130D02*
X17576419Y-12825730D01*
X17576419Y-12724130D02*
X17474819Y-12825730D01*
X17576419Y-12774930D02*
G75*
G03X17576419Y-12774930I-50800J0D01*
G01*
X17660112Y-10114788D02*
X17761712Y-10216388D01*
X17761712Y-10114788D02*
X17660112Y-10216388D01*
X17761712Y-10165588D02*
G75*
G03X17761712Y-10165588I-50800J0D01*
G01*
X17725136Y-8649208D02*
X17826736Y-8750808D01*
X17826736Y-8649208D02*
X17725136Y-8750808D01*
X17826736Y-8700008D02*
G75*
G03X17826736Y-8700008I-50800J0D01*
G01*
X17725136Y-13475208D02*
X17826736Y-13576808D01*
X17826736Y-13475208D02*
X17725136Y-13576808D01*
X17826736Y-13526008D02*
G75*
G03X17826736Y-13526008I-50800J0D01*
G01*
X17726914Y-11506200D02*
X17828514Y-11607800D01*
X17828514Y-11506200D02*
X17726914Y-11607800D01*
X17828514Y-11557000D02*
G75*
G03X17828514Y-11557000I-50800J0D01*
G01*
X17726914Y-11958320D02*
X17828514Y-12059920D01*
X17828514Y-11958320D02*
X17726914Y-12059920D01*
X17828514Y-12009120D02*
G75*
G03X17828514Y-12009120I-50800J0D01*
G01*
X17914112Y-10114788D02*
X18015712Y-10216388D01*
X18015712Y-10114788D02*
X17914112Y-10216388D01*
X18015712Y-10165588D02*
G75*
G03X18015712Y-10165588I-50800J0D01*
G01*
X17979136Y-8649208D02*
X18080736Y-8750808D01*
X18080736Y-8649208D02*
X17979136Y-8750808D01*
X18080736Y-8700008D02*
G75*
G03X18080736Y-8700008I-50800J0D01*
G01*
X17979136Y-13475208D02*
X18080736Y-13576808D01*
X18080736Y-13475208D02*
X17979136Y-13576808D01*
X18080736Y-13526008D02*
G75*
G03X18080736Y-13526008I-50800J0D01*
G01*
X18168112Y-10114788D02*
X18269712Y-10216388D01*
X18269712Y-10114788D02*
X18168112Y-10216388D01*
X18269712Y-10165588D02*
G75*
G03X18269712Y-10165588I-50800J0D01*
G01*
X18233136Y-8649208D02*
X18334736Y-8750808D01*
X18334736Y-8649208D02*
X18233136Y-8750808D01*
X18334736Y-8700008D02*
G75*
G03X18334736Y-8700008I-50800J0D01*
G01*
X18233136Y-13475208D02*
X18334736Y-13576808D01*
X18334736Y-13475208D02*
X18233136Y-13576808D01*
X18334736Y-13526008D02*
G75*
G03X18334736Y-13526008I-50800J0D01*
G01*
X18377154Y-11506200D02*
X18478754Y-11607800D01*
X18478754Y-11506200D02*
X18377154Y-11607800D01*
X18478754Y-11557000D02*
G75*
G03X18478754Y-11557000I-50800J0D01*
G01*
X18377154Y-11958320D02*
X18478754Y-12059920D01*
X18478754Y-11958320D02*
X18377154Y-12059920D01*
X18478754Y-12009120D02*
G75*
G03X18478754Y-12009120I-50800J0D01*
G01*
X18487136Y-8649208D02*
X18588736Y-8750808D01*
X18588736Y-8649208D02*
X18487136Y-8750808D01*
X18588736Y-8700008D02*
G75*
G03X18588736Y-8700008I-50800J0D01*
G01*
X18487136Y-13475208D02*
X18588736Y-13576808D01*
X18588736Y-13475208D02*
X18487136Y-13576808D01*
X18588736Y-13526008D02*
G75*
G03X18588736Y-13526008I-50800J0D01*
G01*
X18741136Y-8649208D02*
X18842736Y-8750808D01*
X18842736Y-8649208D02*
X18741136Y-8750808D01*
X18842736Y-8700008D02*
G75*
G03X18842736Y-8700008I-50800J0D01*
G01*
X18741136Y-13475208D02*
X18842736Y-13576808D01*
X18842736Y-13475208D02*
X18741136Y-13576808D01*
X18842736Y-13526008D02*
G75*
G03X18842736Y-13526008I-50800J0D01*
G01*
X18995136Y-8649208D02*
X19096736Y-8750808D01*
X19096736Y-8649208D02*
X18995136Y-8750808D01*
X19096736Y-8700008D02*
G75*
G03X19096736Y-8700008I-50800J0D01*
G01*
X18995136Y-10681208D02*
X19096736Y-10782808D01*
X19096736Y-10681208D02*
X18995136Y-10782808D01*
X19096736Y-10732008D02*
G75*
G03X19096736Y-10732008I-50800J0D01*
G01*
X18995136Y-10935208D02*
X19096736Y-11036808D01*
X19096736Y-10935208D02*
X18995136Y-11036808D01*
X19096736Y-10986008D02*
G75*
G03X19096736Y-10986008I-50800J0D01*
G01*
X18995136Y-11189208D02*
X19096736Y-11290808D01*
X19096736Y-11189208D02*
X18995136Y-11290808D01*
X19096736Y-11240008D02*
G75*
G03X19096736Y-11240008I-50800J0D01*
G01*
X18995136Y-13475208D02*
X19096736Y-13576808D01*
X19096736Y-13475208D02*
X18995136Y-13576808D01*
X19096736Y-13526008D02*
G75*
G03X19096736Y-13526008I-50800J0D01*
G01*
X19249136Y-10681208D02*
X19350736Y-10782808D01*
X19350736Y-10681208D02*
X19249136Y-10782808D01*
X19350736Y-10732008D02*
G75*
G03X19350736Y-10732008I-50800J0D01*
G01*
X19249136Y-10935208D02*
X19350736Y-11036808D01*
X19350736Y-10935208D02*
X19249136Y-11036808D01*
X19350736Y-10986008D02*
G75*
G03X19350736Y-10986008I-50800J0D01*
G01*
X19249136Y-11189208D02*
X19350736Y-11290808D01*
X19350736Y-11189208D02*
X19249136Y-11290808D01*
X19350736Y-11240008D02*
G75*
G03X19350736Y-11240008I-50800J0D01*
G01*
X13781260Y-10109480D02*
X14001260Y-10329480D01*
X14001260Y-10109480D02*
X13781260Y-10329480D01*
X13891260Y-10109480D02*
X13891260Y-10329480D01*
X13781260Y-10219480D02*
X14001260Y-10219480D01*
X13781260Y-10969480D02*
X14001260Y-11189480D01*
X14001260Y-10969480D02*
X13781260Y-11189480D01*
X13891260Y-10969480D02*
X13891260Y-11189480D01*
X13781260Y-11079480D02*
X14001260Y-11079480D01*
X13786340Y-11341104D02*
X14006340Y-11561104D01*
X14006340Y-11341104D02*
X13786340Y-11561104D01*
X13896340Y-11341104D02*
X13896340Y-11561104D01*
X13786340Y-11451104D02*
X14006340Y-11451104D01*
X13786340Y-12201104D02*
X14006340Y-12421104D01*
X14006340Y-12201104D02*
X13786340Y-12421104D01*
X13896340Y-12201104D02*
X13896340Y-12421104D01*
X13786340Y-12311104D02*
X14006340Y-12311104D01*
X13934186Y-13367258D02*
X14251686Y-13684758D01*
X14251686Y-13367258D02*
X13934186Y-13684758D01*
X14205190Y-13638262D02*
X14205190Y-13413754D01*
X13980682Y-13413754D01*
X13980682Y-13638262D01*
X14205190Y-13638262D01*
X14061186Y-8541258D02*
X14378686Y-8858758D01*
X14378686Y-8541258D02*
X14061186Y-8858758D01*
X14332190Y-8812262D02*
X14332190Y-8587754D01*
X14107682Y-8587754D01*
X14107682Y-8812262D01*
X14332190Y-8812262D01*
X19141186Y-10065258D02*
X19458686Y-10382758D01*
X19458686Y-10065258D02*
X19141186Y-10382758D01*
X19412190Y-10336262D02*
X19412190Y-10111754D01*
X19187682Y-10111754D01*
X19187682Y-10336262D01*
X19412190Y-10336262D01*
X19141186Y-12859258D02*
X19458686Y-13176758D01*
X19458686Y-12859258D02*
X19141186Y-13176758D01*
X19412190Y-13130262D02*
X19412190Y-12905754D01*
X19187682Y-12905754D01*
X19187682Y-13130262D01*
X19412190Y-13130262D01*
D13*
X12963648Y-14262914D02*
X12963648Y-13962914D01*
X13035077Y-13962914D01*
X13077934Y-13977200D01*
X13106506Y-14005771D01*
X13120791Y-14034343D01*
X13135077Y-14091486D01*
X13135077Y-14134343D01*
X13120791Y-14191486D01*
X13106506Y-14220057D01*
X13077934Y-14248629D01*
X13035077Y-14262914D01*
X12963648Y-14262914D01*
X13263648Y-14262914D02*
X13263648Y-14062914D01*
X13263648Y-14120057D02*
X13277934Y-14091486D01*
X13292220Y-14077200D01*
X13320791Y-14062914D01*
X13349363Y-14062914D01*
X13449363Y-14262914D02*
X13449363Y-14062914D01*
X13449363Y-13962914D02*
X13435077Y-13977200D01*
X13449363Y-13991486D01*
X13463648Y-13977200D01*
X13449363Y-13962914D01*
X13449363Y-13991486D01*
X13635077Y-14262914D02*
X13606506Y-14248629D01*
X13592220Y-14220057D01*
X13592220Y-13962914D01*
X13792220Y-14262914D02*
X13763648Y-14248629D01*
X13749363Y-14220057D01*
X13749363Y-13962914D01*
X14135077Y-14262914D02*
X14135077Y-13962914D01*
X14235077Y-14177200D01*
X14335077Y-13962914D01*
X14335077Y-14262914D01*
X14606506Y-14262914D02*
X14606506Y-14105771D01*
X14592220Y-14077200D01*
X14563648Y-14062914D01*
X14506506Y-14062914D01*
X14477934Y-14077200D01*
X14606506Y-14248629D02*
X14577934Y-14262914D01*
X14506506Y-14262914D01*
X14477934Y-14248629D01*
X14463648Y-14220057D01*
X14463648Y-14191486D01*
X14477934Y-14162914D01*
X14506506Y-14148629D01*
X14577934Y-14148629D01*
X14606506Y-14134343D01*
X14749363Y-14062914D02*
X14749363Y-14362914D01*
X14749363Y-14077200D02*
X14777934Y-14062914D01*
X14835077Y-14062914D01*
X14863648Y-14077200D01*
X14877934Y-14091486D01*
X14892220Y-14120057D01*
X14892220Y-14205771D01*
X14877934Y-14234343D01*
X14863648Y-14248629D01*
X14835077Y-14262914D01*
X14777934Y-14262914D01*
X14749363Y-14248629D01*
X15020791Y-14234343D02*
X15035077Y-14248629D01*
X15020791Y-14262914D01*
X15006506Y-14248629D01*
X15020791Y-14234343D01*
X15020791Y-14262914D01*
X15020791Y-14077200D02*
X15035077Y-14091486D01*
X15020791Y-14105771D01*
X15006506Y-14091486D01*
X15020791Y-14077200D01*
X15020791Y-14105771D01*
X12601020Y-14719100D02*
X12677220Y-14795300D01*
X12677220Y-14719100D02*
X12601020Y-14795300D01*
X13020791Y-14592914D02*
X13049363Y-14592914D01*
X13077934Y-14607200D01*
X13092220Y-14621486D01*
X13106506Y-14650057D01*
X13120791Y-14707200D01*
X13120791Y-14778629D01*
X13106506Y-14835771D01*
X13092220Y-14864343D01*
X13077934Y-14878629D01*
X13049363Y-14892914D01*
X13020791Y-14892914D01*
X12992220Y-14878629D01*
X12977934Y-14864343D01*
X12963648Y-14835771D01*
X12949363Y-14778629D01*
X12949363Y-14707200D01*
X12963648Y-14650057D01*
X12977934Y-14621486D01*
X12992220Y-14607200D01*
X13020791Y-14592914D01*
X13249363Y-14864343D02*
X13263648Y-14878629D01*
X13249363Y-14892914D01*
X13235077Y-14878629D01*
X13249363Y-14864343D01*
X13249363Y-14892914D01*
X13363648Y-14592914D02*
X13563648Y-14592914D01*
X13435077Y-14892914D01*
X13806506Y-14592914D02*
X13749363Y-14592914D01*
X13720791Y-14607200D01*
X13706506Y-14621486D01*
X13677934Y-14664343D01*
X13663648Y-14721486D01*
X13663648Y-14835771D01*
X13677934Y-14864343D01*
X13692220Y-14878629D01*
X13720791Y-14892914D01*
X13777934Y-14892914D01*
X13806506Y-14878629D01*
X13820791Y-14864343D01*
X13835077Y-14835771D01*
X13835077Y-14764343D01*
X13820791Y-14735771D01*
X13806506Y-14721486D01*
X13777934Y-14707200D01*
X13720791Y-14707200D01*
X13692220Y-14721486D01*
X13677934Y-14735771D01*
X13663648Y-14764343D01*
X13963648Y-14892914D02*
X13963648Y-14692914D01*
X13963648Y-14721486D02*
X13977934Y-14707200D01*
X14006506Y-14692914D01*
X14049363Y-14692914D01*
X14077934Y-14707200D01*
X14092220Y-14735771D01*
X14092220Y-14892914D01*
X14092220Y-14735771D02*
X14106506Y-14707200D01*
X14135077Y-14692914D01*
X14177934Y-14692914D01*
X14206506Y-14707200D01*
X14220791Y-14735771D01*
X14220791Y-14892914D01*
X14363648Y-14892914D02*
X14363648Y-14692914D01*
X14363648Y-14721486D02*
X14377934Y-14707200D01*
X14406506Y-14692914D01*
X14449363Y-14692914D01*
X14477934Y-14707200D01*
X14492220Y-14735771D01*
X14492220Y-14892914D01*
X14492220Y-14735771D02*
X14506506Y-14707200D01*
X14535077Y-14692914D01*
X14577934Y-14692914D01*
X14606506Y-14707200D01*
X14620791Y-14735771D01*
X14620791Y-14892914D01*
X15206506Y-14578629D02*
X14949363Y-14964343D01*
X15592220Y-14592914D02*
X15620791Y-14592914D01*
X15649363Y-14607200D01*
X15663648Y-14621486D01*
X15677934Y-14650057D01*
X15692220Y-14707200D01*
X15692220Y-14778629D01*
X15677934Y-14835771D01*
X15663648Y-14864343D01*
X15649363Y-14878629D01*
X15620791Y-14892914D01*
X15592220Y-14892914D01*
X15563648Y-14878629D01*
X15549363Y-14864343D01*
X15535077Y-14835771D01*
X15520791Y-14778629D01*
X15520791Y-14707200D01*
X15535077Y-14650057D01*
X15549363Y-14621486D01*
X15563648Y-14607200D01*
X15592220Y-14592914D01*
X15820791Y-14864343D02*
X15835077Y-14878629D01*
X15820791Y-14892914D01*
X15806506Y-14878629D01*
X15820791Y-14864343D01*
X15820791Y-14892914D01*
X16020791Y-14592914D02*
X16049363Y-14592914D01*
X16077934Y-14607200D01*
X16092220Y-14621486D01*
X16106506Y-14650057D01*
X16120791Y-14707200D01*
X16120791Y-14778629D01*
X16106506Y-14835771D01*
X16092220Y-14864343D01*
X16077934Y-14878629D01*
X16049363Y-14892914D01*
X16020791Y-14892914D01*
X15992220Y-14878629D01*
X15977934Y-14864343D01*
X15963648Y-14835771D01*
X15949363Y-14778629D01*
X15949363Y-14707200D01*
X15963648Y-14650057D01*
X15977934Y-14621486D01*
X15992220Y-14607200D01*
X16020791Y-14592914D01*
X16220791Y-14592914D02*
X16406506Y-14592914D01*
X16306506Y-14707200D01*
X16349363Y-14707200D01*
X16377934Y-14721486D01*
X16392220Y-14735771D01*
X16406506Y-14764343D01*
X16406506Y-14835771D01*
X16392220Y-14864343D01*
X16377934Y-14878629D01*
X16349363Y-14892914D01*
X16263648Y-14892914D01*
X16235077Y-14878629D01*
X16220791Y-14864343D01*
X16592220Y-14592914D02*
X16620791Y-14592914D01*
X16649363Y-14607200D01*
X16663648Y-14621486D01*
X16677934Y-14650057D01*
X16692220Y-14707200D01*
X16692220Y-14778629D01*
X16677934Y-14835771D01*
X16663648Y-14864343D01*
X16649363Y-14878629D01*
X16620791Y-14892914D01*
X16592220Y-14892914D01*
X16563648Y-14878629D01*
X16549363Y-14864343D01*
X16535077Y-14835771D01*
X16520791Y-14778629D01*
X16520791Y-14707200D01*
X16535077Y-14650057D01*
X16549363Y-14621486D01*
X16563648Y-14607200D01*
X16592220Y-14592914D01*
X16806506Y-14592914D02*
X16806506Y-14650057D01*
X16920791Y-14592914D02*
X16920791Y-14650057D01*
X17363648Y-15007200D02*
X17349363Y-14992914D01*
X17320791Y-14950057D01*
X17306506Y-14921486D01*
X17292220Y-14878629D01*
X17277934Y-14807200D01*
X17277934Y-14750057D01*
X17292220Y-14678629D01*
X17306506Y-14635771D01*
X17320791Y-14607200D01*
X17349363Y-14564343D01*
X17363648Y-14550057D01*
X17463648Y-14621486D02*
X17477934Y-14607200D01*
X17506506Y-14592914D01*
X17577934Y-14592914D01*
X17606506Y-14607200D01*
X17620791Y-14621486D01*
X17635077Y-14650057D01*
X17635077Y-14678629D01*
X17620791Y-14721486D01*
X17449363Y-14892914D01*
X17635077Y-14892914D01*
X17892220Y-14592914D02*
X17835077Y-14592914D01*
X17806506Y-14607200D01*
X17792220Y-14621486D01*
X17763648Y-14664343D01*
X17749363Y-14721486D01*
X17749363Y-14835771D01*
X17763648Y-14864343D01*
X17777934Y-14878629D01*
X17806506Y-14892914D01*
X17863648Y-14892914D01*
X17892220Y-14878629D01*
X17906506Y-14864343D01*
X17920791Y-14835771D01*
X17920791Y-14764343D01*
X17906506Y-14735771D01*
X17892220Y-14721486D01*
X17863648Y-14707200D01*
X17806506Y-14707200D01*
X17777934Y-14721486D01*
X17763648Y-14735771D01*
X17749363Y-14764343D01*
X18277934Y-14892914D02*
X18277934Y-14592914D01*
X18406506Y-14892914D02*
X18406506Y-14735771D01*
X18392220Y-14707200D01*
X18363648Y-14692914D01*
X18320791Y-14692914D01*
X18292220Y-14707200D01*
X18277934Y-14721486D01*
X18592220Y-14892914D02*
X18563648Y-14878629D01*
X18549363Y-14864343D01*
X18535077Y-14835771D01*
X18535077Y-14750057D01*
X18549363Y-14721486D01*
X18563648Y-14707200D01*
X18592220Y-14692914D01*
X18635077Y-14692914D01*
X18663648Y-14707200D01*
X18677934Y-14721486D01*
X18692220Y-14750057D01*
X18692220Y-14835771D01*
X18677934Y-14864343D01*
X18663648Y-14878629D01*
X18635077Y-14892914D01*
X18592220Y-14892914D01*
X18863648Y-14892914D02*
X18835077Y-14878629D01*
X18820791Y-14850057D01*
X18820791Y-14592914D01*
X19092220Y-14878629D02*
X19063648Y-14892914D01*
X19006506Y-14892914D01*
X18977934Y-14878629D01*
X18963648Y-14850057D01*
X18963648Y-14735771D01*
X18977934Y-14707200D01*
X19006506Y-14692914D01*
X19063648Y-14692914D01*
X19092220Y-14707200D01*
X19106506Y-14735771D01*
X19106506Y-14764343D01*
X18963648Y-14792914D01*
X19220791Y-14878629D02*
X19249363Y-14892914D01*
X19306506Y-14892914D01*
X19335077Y-14878629D01*
X19349363Y-14850057D01*
X19349363Y-14835771D01*
X19335077Y-14807200D01*
X19306506Y-14792914D01*
X19263648Y-14792914D01*
X19235077Y-14778629D01*
X19220791Y-14750057D01*
X19220791Y-14735771D01*
X19235077Y-14707200D01*
X19263648Y-14692914D01*
X19306506Y-14692914D01*
X19335077Y-14707200D01*
X19449363Y-15007200D02*
X19463648Y-14992914D01*
X19492220Y-14950057D01*
X19506506Y-14921486D01*
X19520791Y-14878629D01*
X19535077Y-14807200D01*
X19535077Y-14750057D01*
X19520791Y-14678629D01*
X19506506Y-14635771D01*
X19492220Y-14607200D01*
X19463648Y-14564343D01*
X19449363Y-14550057D01*
X12677220Y-15153200D02*
G75*
G03X12677220Y-15153200I-40005J0D01*
G01*
X13020791Y-14988914D02*
X13049363Y-14988914D01*
X13077934Y-15003200D01*
X13092220Y-15017486D01*
X13106506Y-15046057D01*
X13120791Y-15103200D01*
X13120791Y-15174629D01*
X13106506Y-15231771D01*
X13092220Y-15260343D01*
X13077934Y-15274629D01*
X13049363Y-15288914D01*
X13020791Y-15288914D01*
X12992220Y-15274629D01*
X12977934Y-15260343D01*
X12963648Y-15231771D01*
X12949363Y-15174629D01*
X12949363Y-15103200D01*
X12963648Y-15046057D01*
X12977934Y-15017486D01*
X12992220Y-15003200D01*
X13020791Y-14988914D01*
X13249363Y-15260343D02*
X13263648Y-15274629D01*
X13249363Y-15288914D01*
X13235077Y-15274629D01*
X13249363Y-15260343D01*
X13249363Y-15288914D01*
X13435077Y-15117486D02*
X13406506Y-15103200D01*
X13392220Y-15088914D01*
X13377934Y-15060343D01*
X13377934Y-15046057D01*
X13392220Y-15017486D01*
X13406506Y-15003200D01*
X13435077Y-14988914D01*
X13492220Y-14988914D01*
X13520791Y-15003200D01*
X13535077Y-15017486D01*
X13549363Y-15046057D01*
X13549363Y-15060343D01*
X13535077Y-15088914D01*
X13520791Y-15103200D01*
X13492220Y-15117486D01*
X13435077Y-15117486D01*
X13406506Y-15131771D01*
X13392220Y-15146057D01*
X13377934Y-15174629D01*
X13377934Y-15231771D01*
X13392220Y-15260343D01*
X13406506Y-15274629D01*
X13435077Y-15288914D01*
X13492220Y-15288914D01*
X13520791Y-15274629D01*
X13535077Y-15260343D01*
X13549363Y-15231771D01*
X13549363Y-15174629D01*
X13535077Y-15146057D01*
X13520791Y-15131771D01*
X13492220Y-15117486D01*
X13735077Y-14988914D02*
X13763648Y-14988914D01*
X13792220Y-15003200D01*
X13806506Y-15017486D01*
X13820791Y-15046057D01*
X13835077Y-15103200D01*
X13835077Y-15174629D01*
X13820791Y-15231771D01*
X13806506Y-15260343D01*
X13792220Y-15274629D01*
X13763648Y-15288914D01*
X13735077Y-15288914D01*
X13706506Y-15274629D01*
X13692220Y-15260343D01*
X13677934Y-15231771D01*
X13663648Y-15174629D01*
X13663648Y-15103200D01*
X13677934Y-15046057D01*
X13692220Y-15017486D01*
X13706506Y-15003200D01*
X13735077Y-14988914D01*
X13963648Y-15288914D02*
X13963648Y-15088914D01*
X13963648Y-15117486D02*
X13977934Y-15103200D01*
X14006506Y-15088914D01*
X14049363Y-15088914D01*
X14077934Y-15103200D01*
X14092220Y-15131771D01*
X14092220Y-15288914D01*
X14092220Y-15131771D02*
X14106506Y-15103200D01*
X14135077Y-15088914D01*
X14177934Y-15088914D01*
X14206506Y-15103200D01*
X14220791Y-15131771D01*
X14220791Y-15288914D01*
X14363648Y-15288914D02*
X14363648Y-15088914D01*
X14363648Y-15117486D02*
X14377934Y-15103200D01*
X14406506Y-15088914D01*
X14449363Y-15088914D01*
X14477934Y-15103200D01*
X14492220Y-15131771D01*
X14492220Y-15288914D01*
X14492220Y-15131771D02*
X14506506Y-15103200D01*
X14535077Y-15088914D01*
X14577934Y-15088914D01*
X14606506Y-15103200D01*
X14620791Y-15131771D01*
X14620791Y-15288914D01*
X15206506Y-14974629D02*
X14949363Y-15360343D01*
X15592220Y-14988914D02*
X15620791Y-14988914D01*
X15649363Y-15003200D01*
X15663648Y-15017486D01*
X15677934Y-15046057D01*
X15692220Y-15103200D01*
X15692220Y-15174629D01*
X15677934Y-15231771D01*
X15663648Y-15260343D01*
X15649363Y-15274629D01*
X15620791Y-15288914D01*
X15592220Y-15288914D01*
X15563648Y-15274629D01*
X15549363Y-15260343D01*
X15535077Y-15231771D01*
X15520791Y-15174629D01*
X15520791Y-15103200D01*
X15535077Y-15046057D01*
X15549363Y-15017486D01*
X15563648Y-15003200D01*
X15592220Y-14988914D01*
X15820791Y-15260343D02*
X15835077Y-15274629D01*
X15820791Y-15288914D01*
X15806506Y-15274629D01*
X15820791Y-15260343D01*
X15820791Y-15288914D01*
X16020791Y-14988914D02*
X16049363Y-14988914D01*
X16077934Y-15003200D01*
X16092220Y-15017486D01*
X16106506Y-15046057D01*
X16120791Y-15103200D01*
X16120791Y-15174629D01*
X16106506Y-15231771D01*
X16092220Y-15260343D01*
X16077934Y-15274629D01*
X16049363Y-15288914D01*
X16020791Y-15288914D01*
X15992220Y-15274629D01*
X15977934Y-15260343D01*
X15963648Y-15231771D01*
X15949363Y-15174629D01*
X15949363Y-15103200D01*
X15963648Y-15046057D01*
X15977934Y-15017486D01*
X15992220Y-15003200D01*
X16020791Y-14988914D01*
X16220791Y-14988914D02*
X16406506Y-14988914D01*
X16306506Y-15103200D01*
X16349363Y-15103200D01*
X16377934Y-15117486D01*
X16392220Y-15131771D01*
X16406506Y-15160343D01*
X16406506Y-15231771D01*
X16392220Y-15260343D01*
X16377934Y-15274629D01*
X16349363Y-15288914D01*
X16263648Y-15288914D01*
X16235077Y-15274629D01*
X16220791Y-15260343D01*
X16520791Y-15017486D02*
X16535077Y-15003200D01*
X16563648Y-14988914D01*
X16635077Y-14988914D01*
X16663648Y-15003200D01*
X16677934Y-15017486D01*
X16692220Y-15046057D01*
X16692220Y-15074629D01*
X16677934Y-15117486D01*
X16506506Y-15288914D01*
X16692220Y-15288914D01*
X16806506Y-14988914D02*
X16806506Y-15046057D01*
X16920791Y-14988914D02*
X16920791Y-15046057D01*
X17363648Y-15403200D02*
X17349363Y-15388914D01*
X17320791Y-15346057D01*
X17306506Y-15317486D01*
X17292220Y-15274629D01*
X17277934Y-15203200D01*
X17277934Y-15146057D01*
X17292220Y-15074629D01*
X17306506Y-15031771D01*
X17320791Y-15003200D01*
X17349363Y-14960343D01*
X17363648Y-14946057D01*
X17606506Y-15088914D02*
X17606506Y-15288914D01*
X17535077Y-14974629D02*
X17463648Y-15188914D01*
X17649363Y-15188914D01*
X17992220Y-15288914D02*
X17992220Y-14988914D01*
X18120791Y-15288914D02*
X18120791Y-15131771D01*
X18106506Y-15103200D01*
X18077934Y-15088914D01*
X18035077Y-15088914D01*
X18006506Y-15103200D01*
X17992220Y-15117486D01*
X18306506Y-15288914D02*
X18277934Y-15274629D01*
X18263648Y-15260343D01*
X18249363Y-15231771D01*
X18249363Y-15146057D01*
X18263648Y-15117486D01*
X18277934Y-15103200D01*
X18306506Y-15088914D01*
X18349363Y-15088914D01*
X18377934Y-15103200D01*
X18392220Y-15117486D01*
X18406506Y-15146057D01*
X18406506Y-15231771D01*
X18392220Y-15260343D01*
X18377934Y-15274629D01*
X18349363Y-15288914D01*
X18306506Y-15288914D01*
X18577934Y-15288914D02*
X18549363Y-15274629D01*
X18535077Y-15246057D01*
X18535077Y-14988914D01*
X18806506Y-15274629D02*
X18777934Y-15288914D01*
X18720791Y-15288914D01*
X18692220Y-15274629D01*
X18677934Y-15246057D01*
X18677934Y-15131771D01*
X18692220Y-15103200D01*
X18720791Y-15088914D01*
X18777934Y-15088914D01*
X18806506Y-15103200D01*
X18820791Y-15131771D01*
X18820791Y-15160343D01*
X18677934Y-15188914D01*
X18935077Y-15274629D02*
X18963648Y-15288914D01*
X19020791Y-15288914D01*
X19049363Y-15274629D01*
X19063648Y-15246057D01*
X19063648Y-15231771D01*
X19049363Y-15203200D01*
X19020791Y-15188914D01*
X18977934Y-15188914D01*
X18949363Y-15174629D01*
X18935077Y-15146057D01*
X18935077Y-15131771D01*
X18949363Y-15103200D01*
X18977934Y-15088914D01*
X19020791Y-15088914D01*
X19049363Y-15103200D01*
X19163648Y-15403200D02*
X19177934Y-15388914D01*
X19206506Y-15346057D01*
X19220791Y-15317486D01*
X19235077Y-15274629D01*
X19249363Y-15203200D01*
X19249363Y-15146057D01*
X19235077Y-15074629D01*
X19220791Y-15031771D01*
X19206506Y-15003200D01*
X19177934Y-14960343D01*
X19163648Y-14946057D01*
X12636580Y-15508560D02*
X12636580Y-15589840D01*
X12595940Y-15549200D02*
X12677220Y-15549200D01*
X13020791Y-15384914D02*
X13049363Y-15384914D01*
X13077934Y-15399200D01*
X13092220Y-15413486D01*
X13106506Y-15442057D01*
X13120791Y-15499200D01*
X13120791Y-15570629D01*
X13106506Y-15627771D01*
X13092220Y-15656343D01*
X13077934Y-15670629D01*
X13049363Y-15684914D01*
X13020791Y-15684914D01*
X12992220Y-15670629D01*
X12977934Y-15656343D01*
X12963648Y-15627771D01*
X12949363Y-15570629D01*
X12949363Y-15499200D01*
X12963648Y-15442057D01*
X12977934Y-15413486D01*
X12992220Y-15399200D01*
X13020791Y-15384914D01*
X13249363Y-15656343D02*
X13263648Y-15670629D01*
X13249363Y-15684914D01*
X13235077Y-15670629D01*
X13249363Y-15656343D01*
X13249363Y-15684914D01*
X13435077Y-15513486D02*
X13406506Y-15499200D01*
X13392220Y-15484914D01*
X13377934Y-15456343D01*
X13377934Y-15442057D01*
X13392220Y-15413486D01*
X13406506Y-15399200D01*
X13435077Y-15384914D01*
X13492220Y-15384914D01*
X13520791Y-15399200D01*
X13535077Y-15413486D01*
X13549363Y-15442057D01*
X13549363Y-15456343D01*
X13535077Y-15484914D01*
X13520791Y-15499200D01*
X13492220Y-15513486D01*
X13435077Y-15513486D01*
X13406506Y-15527771D01*
X13392220Y-15542057D01*
X13377934Y-15570629D01*
X13377934Y-15627771D01*
X13392220Y-15656343D01*
X13406506Y-15670629D01*
X13435077Y-15684914D01*
X13492220Y-15684914D01*
X13520791Y-15670629D01*
X13535077Y-15656343D01*
X13549363Y-15627771D01*
X13549363Y-15570629D01*
X13535077Y-15542057D01*
X13520791Y-15527771D01*
X13492220Y-15513486D01*
X13835077Y-15684914D02*
X13663648Y-15684914D01*
X13749363Y-15684914D02*
X13749363Y-15384914D01*
X13720791Y-15427771D01*
X13692220Y-15456343D01*
X13663648Y-15470629D01*
X13963648Y-15684914D02*
X13963648Y-15484914D01*
X13963648Y-15513486D02*
X13977934Y-15499200D01*
X14006506Y-15484914D01*
X14049363Y-15484914D01*
X14077934Y-15499200D01*
X14092220Y-15527771D01*
X14092220Y-15684914D01*
X14092220Y-15527771D02*
X14106506Y-15499200D01*
X14135077Y-15484914D01*
X14177934Y-15484914D01*
X14206506Y-15499200D01*
X14220791Y-15527771D01*
X14220791Y-15684914D01*
X14363648Y-15684914D02*
X14363648Y-15484914D01*
X14363648Y-15513486D02*
X14377934Y-15499200D01*
X14406506Y-15484914D01*
X14449363Y-15484914D01*
X14477934Y-15499200D01*
X14492220Y-15527771D01*
X14492220Y-15684914D01*
X14492220Y-15527771D02*
X14506506Y-15499200D01*
X14535077Y-15484914D01*
X14577934Y-15484914D01*
X14606506Y-15499200D01*
X14620791Y-15527771D01*
X14620791Y-15684914D01*
X15206506Y-15370629D02*
X14949363Y-15756343D01*
X15592220Y-15384914D02*
X15620791Y-15384914D01*
X15649363Y-15399200D01*
X15663648Y-15413486D01*
X15677934Y-15442057D01*
X15692220Y-15499200D01*
X15692220Y-15570629D01*
X15677934Y-15627771D01*
X15663648Y-15656343D01*
X15649363Y-15670629D01*
X15620791Y-15684914D01*
X15592220Y-15684914D01*
X15563648Y-15670629D01*
X15549363Y-15656343D01*
X15535077Y-15627771D01*
X15520791Y-15570629D01*
X15520791Y-15499200D01*
X15535077Y-15442057D01*
X15549363Y-15413486D01*
X15563648Y-15399200D01*
X15592220Y-15384914D01*
X15820791Y-15656343D02*
X15835077Y-15670629D01*
X15820791Y-15684914D01*
X15806506Y-15670629D01*
X15820791Y-15656343D01*
X15820791Y-15684914D01*
X16020791Y-15384914D02*
X16049363Y-15384914D01*
X16077934Y-15399200D01*
X16092220Y-15413486D01*
X16106506Y-15442057D01*
X16120791Y-15499200D01*
X16120791Y-15570629D01*
X16106506Y-15627771D01*
X16092220Y-15656343D01*
X16077934Y-15670629D01*
X16049363Y-15684914D01*
X16020791Y-15684914D01*
X15992220Y-15670629D01*
X15977934Y-15656343D01*
X15963648Y-15627771D01*
X15949363Y-15570629D01*
X15949363Y-15499200D01*
X15963648Y-15442057D01*
X15977934Y-15413486D01*
X15992220Y-15399200D01*
X16020791Y-15384914D01*
X16220791Y-15384914D02*
X16406506Y-15384914D01*
X16306506Y-15499200D01*
X16349363Y-15499200D01*
X16377934Y-15513486D01*
X16392220Y-15527771D01*
X16406506Y-15556343D01*
X16406506Y-15627771D01*
X16392220Y-15656343D01*
X16377934Y-15670629D01*
X16349363Y-15684914D01*
X16263648Y-15684914D01*
X16235077Y-15670629D01*
X16220791Y-15656343D01*
X16520791Y-15413486D02*
X16535077Y-15399200D01*
X16563648Y-15384914D01*
X16635077Y-15384914D01*
X16663648Y-15399200D01*
X16677934Y-15413486D01*
X16692220Y-15442057D01*
X16692220Y-15470629D01*
X16677934Y-15513486D01*
X16506506Y-15684914D01*
X16692220Y-15684914D01*
X16806506Y-15384914D02*
X16806506Y-15442057D01*
X16920791Y-15384914D02*
X16920791Y-15442057D01*
X17363648Y-15799200D02*
X17349363Y-15784914D01*
X17320791Y-15742057D01*
X17306506Y-15713486D01*
X17292220Y-15670629D01*
X17277934Y-15599200D01*
X17277934Y-15542057D01*
X17292220Y-15470629D01*
X17306506Y-15427771D01*
X17320791Y-15399200D01*
X17349363Y-15356343D01*
X17363648Y-15342057D01*
X17606506Y-15384914D02*
X17549363Y-15384914D01*
X17520791Y-15399200D01*
X17506506Y-15413486D01*
X17477934Y-15456343D01*
X17463648Y-15513486D01*
X17463648Y-15627771D01*
X17477934Y-15656343D01*
X17492220Y-15670629D01*
X17520791Y-15684914D01*
X17577934Y-15684914D01*
X17606506Y-15670629D01*
X17620791Y-15656343D01*
X17635077Y-15627771D01*
X17635077Y-15556343D01*
X17620791Y-15527771D01*
X17606506Y-15513486D01*
X17577934Y-15499200D01*
X17520791Y-15499200D01*
X17492220Y-15513486D01*
X17477934Y-15527771D01*
X17463648Y-15556343D01*
X17992220Y-15684914D02*
X17992220Y-15384914D01*
X18120791Y-15684914D02*
X18120791Y-15527771D01*
X18106506Y-15499200D01*
X18077934Y-15484914D01*
X18035077Y-15484914D01*
X18006506Y-15499200D01*
X17992220Y-15513486D01*
X18306506Y-15684914D02*
X18277934Y-15670629D01*
X18263648Y-15656343D01*
X18249363Y-15627771D01*
X18249363Y-15542057D01*
X18263648Y-15513486D01*
X18277934Y-15499200D01*
X18306506Y-15484914D01*
X18349363Y-15484914D01*
X18377934Y-15499200D01*
X18392220Y-15513486D01*
X18406506Y-15542057D01*
X18406506Y-15627771D01*
X18392220Y-15656343D01*
X18377934Y-15670629D01*
X18349363Y-15684914D01*
X18306506Y-15684914D01*
X18577934Y-15684914D02*
X18549363Y-15670629D01*
X18535077Y-15642057D01*
X18535077Y-15384914D01*
X18806506Y-15670629D02*
X18777934Y-15684914D01*
X18720791Y-15684914D01*
X18692220Y-15670629D01*
X18677934Y-15642057D01*
X18677934Y-15527771D01*
X18692220Y-15499200D01*
X18720791Y-15484914D01*
X18777934Y-15484914D01*
X18806506Y-15499200D01*
X18820791Y-15527771D01*
X18820791Y-15556343D01*
X18677934Y-15584914D01*
X18935077Y-15670629D02*
X18963648Y-15684914D01*
X19020791Y-15684914D01*
X19049363Y-15670629D01*
X19063648Y-15642057D01*
X19063648Y-15627771D01*
X19049363Y-15599200D01*
X19020791Y-15584914D01*
X18977934Y-15584914D01*
X18949363Y-15570629D01*
X18935077Y-15542057D01*
X18935077Y-15527771D01*
X18949363Y-15499200D01*
X18977934Y-15484914D01*
X19020791Y-15484914D01*
X19049363Y-15499200D01*
X19163648Y-15799200D02*
X19177934Y-15784914D01*
X19206506Y-15742057D01*
X19220791Y-15713486D01*
X19235077Y-15670629D01*
X19249363Y-15599200D01*
X19249363Y-15542057D01*
X19235077Y-15470629D01*
X19220791Y-15427771D01*
X19206506Y-15399200D01*
X19177934Y-15356343D01*
X19163648Y-15342057D01*
X12662576Y-15980556D02*
X12662576Y-15909844D01*
X12591864Y-15909844D01*
X12591864Y-15980556D01*
X12662576Y-15980556D01*
X13120791Y-16080914D02*
X12949363Y-16080914D01*
X13035077Y-16080914D02*
X13035077Y-15780914D01*
X13006506Y-15823771D01*
X12977934Y-15852343D01*
X12949363Y-15866629D01*
X13249363Y-16052343D02*
X13263648Y-16066629D01*
X13249363Y-16080914D01*
X13235077Y-16066629D01*
X13249363Y-16052343D01*
X13249363Y-16080914D01*
X13449363Y-15780914D02*
X13477934Y-15780914D01*
X13506506Y-15795200D01*
X13520791Y-15809486D01*
X13535077Y-15838057D01*
X13549363Y-15895200D01*
X13549363Y-15966629D01*
X13535077Y-16023771D01*
X13520791Y-16052343D01*
X13506506Y-16066629D01*
X13477934Y-16080914D01*
X13449363Y-16080914D01*
X13420791Y-16066629D01*
X13406506Y-16052343D01*
X13392220Y-16023771D01*
X13377934Y-15966629D01*
X13377934Y-15895200D01*
X13392220Y-15838057D01*
X13406506Y-15809486D01*
X13420791Y-15795200D01*
X13449363Y-15780914D01*
X13735077Y-15780914D02*
X13763648Y-15780914D01*
X13792220Y-15795200D01*
X13806506Y-15809486D01*
X13820791Y-15838057D01*
X13835077Y-15895200D01*
X13835077Y-15966629D01*
X13820791Y-16023771D01*
X13806506Y-16052343D01*
X13792220Y-16066629D01*
X13763648Y-16080914D01*
X13735077Y-16080914D01*
X13706506Y-16066629D01*
X13692220Y-16052343D01*
X13677934Y-16023771D01*
X13663648Y-15966629D01*
X13663648Y-15895200D01*
X13677934Y-15838057D01*
X13692220Y-15809486D01*
X13706506Y-15795200D01*
X13735077Y-15780914D01*
X13963648Y-16080914D02*
X13963648Y-15880914D01*
X13963648Y-15909486D02*
X13977934Y-15895200D01*
X14006506Y-15880914D01*
X14049363Y-15880914D01*
X14077934Y-15895200D01*
X14092220Y-15923771D01*
X14092220Y-16080914D01*
X14092220Y-15923771D02*
X14106506Y-15895200D01*
X14135077Y-15880914D01*
X14177934Y-15880914D01*
X14206506Y-15895200D01*
X14220791Y-15923771D01*
X14220791Y-16080914D01*
X14363648Y-16080914D02*
X14363648Y-15880914D01*
X14363648Y-15909486D02*
X14377934Y-15895200D01*
X14406506Y-15880914D01*
X14449363Y-15880914D01*
X14477934Y-15895200D01*
X14492220Y-15923771D01*
X14492220Y-16080914D01*
X14492220Y-15923771D02*
X14506506Y-15895200D01*
X14535077Y-15880914D01*
X14577934Y-15880914D01*
X14606506Y-15895200D01*
X14620791Y-15923771D01*
X14620791Y-16080914D01*
X15206506Y-15766629D02*
X14949363Y-16152343D01*
X15592220Y-15780914D02*
X15620791Y-15780914D01*
X15649363Y-15795200D01*
X15663648Y-15809486D01*
X15677934Y-15838057D01*
X15692220Y-15895200D01*
X15692220Y-15966629D01*
X15677934Y-16023771D01*
X15663648Y-16052343D01*
X15649363Y-16066629D01*
X15620791Y-16080914D01*
X15592220Y-16080914D01*
X15563648Y-16066629D01*
X15549363Y-16052343D01*
X15535077Y-16023771D01*
X15520791Y-15966629D01*
X15520791Y-15895200D01*
X15535077Y-15838057D01*
X15549363Y-15809486D01*
X15563648Y-15795200D01*
X15592220Y-15780914D01*
X15820791Y-16052343D02*
X15835077Y-16066629D01*
X15820791Y-16080914D01*
X15806506Y-16066629D01*
X15820791Y-16052343D01*
X15820791Y-16080914D01*
X16020791Y-15780914D02*
X16049363Y-15780914D01*
X16077934Y-15795200D01*
X16092220Y-15809486D01*
X16106506Y-15838057D01*
X16120791Y-15895200D01*
X16120791Y-15966629D01*
X16106506Y-16023771D01*
X16092220Y-16052343D01*
X16077934Y-16066629D01*
X16049363Y-16080914D01*
X16020791Y-16080914D01*
X15992220Y-16066629D01*
X15977934Y-16052343D01*
X15963648Y-16023771D01*
X15949363Y-15966629D01*
X15949363Y-15895200D01*
X15963648Y-15838057D01*
X15977934Y-15809486D01*
X15992220Y-15795200D01*
X16020791Y-15780914D01*
X16220791Y-15780914D02*
X16406506Y-15780914D01*
X16306506Y-15895200D01*
X16349363Y-15895200D01*
X16377934Y-15909486D01*
X16392220Y-15923771D01*
X16406506Y-15952343D01*
X16406506Y-16023771D01*
X16392220Y-16052343D01*
X16377934Y-16066629D01*
X16349363Y-16080914D01*
X16263648Y-16080914D01*
X16235077Y-16066629D01*
X16220791Y-16052343D01*
X16549363Y-16080914D02*
X16606506Y-16080914D01*
X16635077Y-16066629D01*
X16649363Y-16052343D01*
X16677934Y-16009486D01*
X16692220Y-15952343D01*
X16692220Y-15838057D01*
X16677934Y-15809486D01*
X16663648Y-15795200D01*
X16635077Y-15780914D01*
X16577934Y-15780914D01*
X16549363Y-15795200D01*
X16535077Y-15809486D01*
X16520791Y-15838057D01*
X16520791Y-15909486D01*
X16535077Y-15938057D01*
X16549363Y-15952343D01*
X16577934Y-15966629D01*
X16635077Y-15966629D01*
X16663648Y-15952343D01*
X16677934Y-15938057D01*
X16692220Y-15909486D01*
X16806506Y-15780914D02*
X16806506Y-15838057D01*
X16920791Y-15780914D02*
X16920791Y-15838057D01*
X17363648Y-16195200D02*
X17349363Y-16180914D01*
X17320791Y-16138057D01*
X17306506Y-16109486D01*
X17292220Y-16066629D01*
X17277934Y-15995200D01*
X17277934Y-15938057D01*
X17292220Y-15866629D01*
X17306506Y-15823771D01*
X17320791Y-15795200D01*
X17349363Y-15752343D01*
X17363648Y-15738057D01*
X17606506Y-15780914D02*
X17549363Y-15780914D01*
X17520791Y-15795200D01*
X17506506Y-15809486D01*
X17477934Y-15852343D01*
X17463648Y-15909486D01*
X17463648Y-16023771D01*
X17477934Y-16052343D01*
X17492220Y-16066629D01*
X17520791Y-16080914D01*
X17577934Y-16080914D01*
X17606506Y-16066629D01*
X17620791Y-16052343D01*
X17635077Y-16023771D01*
X17635077Y-15952343D01*
X17620791Y-15923771D01*
X17606506Y-15909486D01*
X17577934Y-15895200D01*
X17520791Y-15895200D01*
X17492220Y-15909486D01*
X17477934Y-15923771D01*
X17463648Y-15952343D01*
X17992220Y-16080914D02*
X17992220Y-15780914D01*
X18120791Y-16080914D02*
X18120791Y-15923771D01*
X18106506Y-15895200D01*
X18077934Y-15880914D01*
X18035077Y-15880914D01*
X18006506Y-15895200D01*
X17992220Y-15909486D01*
X18306506Y-16080914D02*
X18277934Y-16066629D01*
X18263648Y-16052343D01*
X18249363Y-16023771D01*
X18249363Y-15938057D01*
X18263648Y-15909486D01*
X18277934Y-15895200D01*
X18306506Y-15880914D01*
X18349363Y-15880914D01*
X18377934Y-15895200D01*
X18392220Y-15909486D01*
X18406506Y-15938057D01*
X18406506Y-16023771D01*
X18392220Y-16052343D01*
X18377934Y-16066629D01*
X18349363Y-16080914D01*
X18306506Y-16080914D01*
X18577934Y-16080914D02*
X18549363Y-16066629D01*
X18535077Y-16038057D01*
X18535077Y-15780914D01*
X18806506Y-16066629D02*
X18777934Y-16080914D01*
X18720791Y-16080914D01*
X18692220Y-16066629D01*
X18677934Y-16038057D01*
X18677934Y-15923771D01*
X18692220Y-15895200D01*
X18720791Y-15880914D01*
X18777934Y-15880914D01*
X18806506Y-15895200D01*
X18820791Y-15923771D01*
X18820791Y-15952343D01*
X18677934Y-15980914D01*
X18935077Y-16066629D02*
X18963648Y-16080914D01*
X19020791Y-16080914D01*
X19049363Y-16066629D01*
X19063648Y-16038057D01*
X19063648Y-16023771D01*
X19049363Y-15995200D01*
X19020791Y-15980914D01*
X18977934Y-15980914D01*
X18949363Y-15966629D01*
X18935077Y-15938057D01*
X18935077Y-15923771D01*
X18949363Y-15895200D01*
X18977934Y-15880914D01*
X19020791Y-15880914D01*
X19049363Y-15895200D01*
X19163648Y-16195200D02*
X19177934Y-16180914D01*
X19206506Y-16138057D01*
X19220791Y-16109486D01*
X19235077Y-16066629D01*
X19249363Y-15995200D01*
X19249363Y-15938057D01*
X19235077Y-15866629D01*
X19220791Y-15823771D01*
X19206506Y-15795200D01*
X19177934Y-15752343D01*
X19163648Y-15738057D01*
X12627182Y-16391238D02*
X12677220Y-16341200D01*
X12627182Y-16291162D01*
X12577144Y-16341200D01*
X12627182Y-16391238D01*
X13120791Y-16476914D02*
X12949363Y-16476914D01*
X13035077Y-16476914D02*
X13035077Y-16176914D01*
X13006506Y-16219771D01*
X12977934Y-16248343D01*
X12949363Y-16262629D01*
X13249363Y-16448343D02*
X13263648Y-16462629D01*
X13249363Y-16476914D01*
X13235077Y-16462629D01*
X13249363Y-16448343D01*
X13249363Y-16476914D01*
X13449363Y-16176914D02*
X13477934Y-16176914D01*
X13506506Y-16191200D01*
X13520791Y-16205486D01*
X13535077Y-16234057D01*
X13549363Y-16291200D01*
X13549363Y-16362629D01*
X13535077Y-16419771D01*
X13520791Y-16448343D01*
X13506506Y-16462629D01*
X13477934Y-16476914D01*
X13449363Y-16476914D01*
X13420791Y-16462629D01*
X13406506Y-16448343D01*
X13392220Y-16419771D01*
X13377934Y-16362629D01*
X13377934Y-16291200D01*
X13392220Y-16234057D01*
X13406506Y-16205486D01*
X13420791Y-16191200D01*
X13449363Y-16176914D01*
X13735077Y-16176914D02*
X13763648Y-16176914D01*
X13792220Y-16191200D01*
X13806506Y-16205486D01*
X13820791Y-16234057D01*
X13835077Y-16291200D01*
X13835077Y-16362629D01*
X13820791Y-16419771D01*
X13806506Y-16448343D01*
X13792220Y-16462629D01*
X13763648Y-16476914D01*
X13735077Y-16476914D01*
X13706506Y-16462629D01*
X13692220Y-16448343D01*
X13677934Y-16419771D01*
X13663648Y-16362629D01*
X13663648Y-16291200D01*
X13677934Y-16234057D01*
X13692220Y-16205486D01*
X13706506Y-16191200D01*
X13735077Y-16176914D01*
X13963648Y-16476914D02*
X13963648Y-16276914D01*
X13963648Y-16305486D02*
X13977934Y-16291200D01*
X14006506Y-16276914D01*
X14049363Y-16276914D01*
X14077934Y-16291200D01*
X14092220Y-16319771D01*
X14092220Y-16476914D01*
X14092220Y-16319771D02*
X14106506Y-16291200D01*
X14135077Y-16276914D01*
X14177934Y-16276914D01*
X14206506Y-16291200D01*
X14220791Y-16319771D01*
X14220791Y-16476914D01*
X14363648Y-16476914D02*
X14363648Y-16276914D01*
X14363648Y-16305486D02*
X14377934Y-16291200D01*
X14406506Y-16276914D01*
X14449363Y-16276914D01*
X14477934Y-16291200D01*
X14492220Y-16319771D01*
X14492220Y-16476914D01*
X14492220Y-16319771D02*
X14506506Y-16291200D01*
X14535077Y-16276914D01*
X14577934Y-16276914D01*
X14606506Y-16291200D01*
X14620791Y-16319771D01*
X14620791Y-16476914D01*
X15206506Y-16162629D02*
X14949363Y-16548343D01*
X15592220Y-16176914D02*
X15620791Y-16176914D01*
X15649363Y-16191200D01*
X15663648Y-16205486D01*
X15677934Y-16234057D01*
X15692220Y-16291200D01*
X15692220Y-16362629D01*
X15677934Y-16419771D01*
X15663648Y-16448343D01*
X15649363Y-16462629D01*
X15620791Y-16476914D01*
X15592220Y-16476914D01*
X15563648Y-16462629D01*
X15549363Y-16448343D01*
X15535077Y-16419771D01*
X15520791Y-16362629D01*
X15520791Y-16291200D01*
X15535077Y-16234057D01*
X15549363Y-16205486D01*
X15563648Y-16191200D01*
X15592220Y-16176914D01*
X15820791Y-16448343D02*
X15835077Y-16462629D01*
X15820791Y-16476914D01*
X15806506Y-16462629D01*
X15820791Y-16448343D01*
X15820791Y-16476914D01*
X16020791Y-16176914D02*
X16049363Y-16176914D01*
X16077934Y-16191200D01*
X16092220Y-16205486D01*
X16106506Y-16234057D01*
X16120791Y-16291200D01*
X16120791Y-16362629D01*
X16106506Y-16419771D01*
X16092220Y-16448343D01*
X16077934Y-16462629D01*
X16049363Y-16476914D01*
X16020791Y-16476914D01*
X15992220Y-16462629D01*
X15977934Y-16448343D01*
X15963648Y-16419771D01*
X15949363Y-16362629D01*
X15949363Y-16291200D01*
X15963648Y-16234057D01*
X15977934Y-16205486D01*
X15992220Y-16191200D01*
X16020791Y-16176914D01*
X16220791Y-16176914D02*
X16406506Y-16176914D01*
X16306506Y-16291200D01*
X16349363Y-16291200D01*
X16377934Y-16305486D01*
X16392220Y-16319771D01*
X16406506Y-16348343D01*
X16406506Y-16419771D01*
X16392220Y-16448343D01*
X16377934Y-16462629D01*
X16349363Y-16476914D01*
X16263648Y-16476914D01*
X16235077Y-16462629D01*
X16220791Y-16448343D01*
X16549363Y-16476914D02*
X16606506Y-16476914D01*
X16635077Y-16462629D01*
X16649363Y-16448343D01*
X16677934Y-16405486D01*
X16692220Y-16348343D01*
X16692220Y-16234057D01*
X16677934Y-16205486D01*
X16663648Y-16191200D01*
X16635077Y-16176914D01*
X16577934Y-16176914D01*
X16549363Y-16191200D01*
X16535077Y-16205486D01*
X16520791Y-16234057D01*
X16520791Y-16305486D01*
X16535077Y-16334057D01*
X16549363Y-16348343D01*
X16577934Y-16362629D01*
X16635077Y-16362629D01*
X16663648Y-16348343D01*
X16677934Y-16334057D01*
X16692220Y-16305486D01*
X16806506Y-16176914D02*
X16806506Y-16234057D01*
X16920791Y-16176914D02*
X16920791Y-16234057D01*
X17363648Y-16591200D02*
X17349363Y-16576914D01*
X17320791Y-16534057D01*
X17306506Y-16505486D01*
X17292220Y-16462629D01*
X17277934Y-16391200D01*
X17277934Y-16334057D01*
X17292220Y-16262629D01*
X17306506Y-16219771D01*
X17320791Y-16191200D01*
X17349363Y-16148343D01*
X17363648Y-16134057D01*
X17463648Y-16205486D02*
X17477934Y-16191200D01*
X17506506Y-16176914D01*
X17577934Y-16176914D01*
X17606506Y-16191200D01*
X17620791Y-16205486D01*
X17635077Y-16234057D01*
X17635077Y-16262629D01*
X17620791Y-16305486D01*
X17449363Y-16476914D01*
X17635077Y-16476914D01*
X17992220Y-16476914D02*
X17992220Y-16176914D01*
X18120791Y-16476914D02*
X18120791Y-16319771D01*
X18106506Y-16291200D01*
X18077934Y-16276914D01*
X18035077Y-16276914D01*
X18006506Y-16291200D01*
X17992220Y-16305486D01*
X18306506Y-16476914D02*
X18277934Y-16462629D01*
X18263648Y-16448343D01*
X18249363Y-16419771D01*
X18249363Y-16334057D01*
X18263648Y-16305486D01*
X18277934Y-16291200D01*
X18306506Y-16276914D01*
X18349363Y-16276914D01*
X18377934Y-16291200D01*
X18392220Y-16305486D01*
X18406506Y-16334057D01*
X18406506Y-16419771D01*
X18392220Y-16448343D01*
X18377934Y-16462629D01*
X18349363Y-16476914D01*
X18306506Y-16476914D01*
X18577934Y-16476914D02*
X18549363Y-16462629D01*
X18535077Y-16434057D01*
X18535077Y-16176914D01*
X18806506Y-16462629D02*
X18777934Y-16476914D01*
X18720791Y-16476914D01*
X18692220Y-16462629D01*
X18677934Y-16434057D01*
X18677934Y-16319771D01*
X18692220Y-16291200D01*
X18720791Y-16276914D01*
X18777934Y-16276914D01*
X18806506Y-16291200D01*
X18820791Y-16319771D01*
X18820791Y-16348343D01*
X18677934Y-16376914D01*
X18935077Y-16462629D02*
X18963648Y-16476914D01*
X19020791Y-16476914D01*
X19049363Y-16462629D01*
X19063648Y-16434057D01*
X19063648Y-16419771D01*
X19049363Y-16391200D01*
X19020791Y-16376914D01*
X18977934Y-16376914D01*
X18949363Y-16362629D01*
X18935077Y-16334057D01*
X18935077Y-16319771D01*
X18949363Y-16291200D01*
X18977934Y-16276914D01*
X19020791Y-16276914D01*
X19049363Y-16291200D01*
X19163648Y-16591200D02*
X19177934Y-16576914D01*
X19206506Y-16534057D01*
X19220791Y-16505486D01*
X19235077Y-16462629D01*
X19249363Y-16391200D01*
X19249363Y-16334057D01*
X19235077Y-16262629D01*
X19220791Y-16219771D01*
X19206506Y-16191200D01*
X19177934Y-16148343D01*
X19163648Y-16134057D01*
X12575620Y-16686400D02*
X12677220Y-16788000D01*
X12677220Y-16686400D02*
X12575620Y-16788000D01*
X12677220Y-16737200D02*
G75*
G03X12677220Y-16737200I-50800J0D01*
G01*
X13120791Y-16872914D02*
X12949363Y-16872914D01*
X13035077Y-16872914D02*
X13035077Y-16572914D01*
X13006506Y-16615771D01*
X12977934Y-16644343D01*
X12949363Y-16658629D01*
X13249363Y-16844343D02*
X13263648Y-16858629D01*
X13249363Y-16872914D01*
X13235077Y-16858629D01*
X13249363Y-16844343D01*
X13249363Y-16872914D01*
X13449363Y-16572914D02*
X13477934Y-16572914D01*
X13506506Y-16587200D01*
X13520791Y-16601486D01*
X13535077Y-16630057D01*
X13549363Y-16687200D01*
X13549363Y-16758629D01*
X13535077Y-16815772D01*
X13520791Y-16844343D01*
X13506506Y-16858629D01*
X13477934Y-16872914D01*
X13449363Y-16872914D01*
X13420791Y-16858629D01*
X13406506Y-16844343D01*
X13392220Y-16815772D01*
X13377934Y-16758629D01*
X13377934Y-16687200D01*
X13392220Y-16630057D01*
X13406506Y-16601486D01*
X13420791Y-16587200D01*
X13449363Y-16572914D01*
X13663648Y-16601486D02*
X13677934Y-16587200D01*
X13706506Y-16572914D01*
X13777934Y-16572914D01*
X13806506Y-16587200D01*
X13820791Y-16601486D01*
X13835077Y-16630057D01*
X13835077Y-16658629D01*
X13820791Y-16701486D01*
X13649363Y-16872914D01*
X13835077Y-16872914D01*
X13963648Y-16872914D02*
X13963648Y-16672914D01*
X13963648Y-16701486D02*
X13977934Y-16687200D01*
X14006506Y-16672914D01*
X14049363Y-16672914D01*
X14077934Y-16687200D01*
X14092220Y-16715771D01*
X14092220Y-16872914D01*
X14092220Y-16715771D02*
X14106506Y-16687200D01*
X14135077Y-16672914D01*
X14177934Y-16672914D01*
X14206506Y-16687200D01*
X14220791Y-16715771D01*
X14220791Y-16872914D01*
X14363648Y-16872914D02*
X14363648Y-16672914D01*
X14363648Y-16701486D02*
X14377934Y-16687200D01*
X14406506Y-16672914D01*
X14449363Y-16672914D01*
X14477934Y-16687200D01*
X14492220Y-16715771D01*
X14492220Y-16872914D01*
X14492220Y-16715771D02*
X14506506Y-16687200D01*
X14535077Y-16672914D01*
X14577934Y-16672914D01*
X14606506Y-16687200D01*
X14620791Y-16715771D01*
X14620791Y-16872914D01*
X15206506Y-16558629D02*
X14949363Y-16944343D01*
X15592220Y-16572914D02*
X15620791Y-16572914D01*
X15649363Y-16587200D01*
X15663648Y-16601486D01*
X15677934Y-16630057D01*
X15692220Y-16687200D01*
X15692220Y-16758629D01*
X15677934Y-16815772D01*
X15663648Y-16844343D01*
X15649363Y-16858629D01*
X15620791Y-16872914D01*
X15592220Y-16872914D01*
X15563648Y-16858629D01*
X15549363Y-16844343D01*
X15535077Y-16815772D01*
X15520791Y-16758629D01*
X15520791Y-16687200D01*
X15535077Y-16630057D01*
X15549363Y-16601486D01*
X15563648Y-16587200D01*
X15592220Y-16572914D01*
X15820791Y-16844343D02*
X15835077Y-16858629D01*
X15820791Y-16872914D01*
X15806506Y-16858629D01*
X15820791Y-16844343D01*
X15820791Y-16872914D01*
X16020791Y-16572914D02*
X16049363Y-16572914D01*
X16077934Y-16587200D01*
X16092220Y-16601486D01*
X16106506Y-16630057D01*
X16120791Y-16687200D01*
X16120791Y-16758629D01*
X16106506Y-16815772D01*
X16092220Y-16844343D01*
X16077934Y-16858629D01*
X16049363Y-16872914D01*
X16020791Y-16872914D01*
X15992220Y-16858629D01*
X15977934Y-16844343D01*
X15963648Y-16815772D01*
X15949363Y-16758629D01*
X15949363Y-16687200D01*
X15963648Y-16630057D01*
X15977934Y-16601486D01*
X15992220Y-16587200D01*
X16020791Y-16572914D01*
X16377934Y-16672914D02*
X16377934Y-16872914D01*
X16306506Y-16558629D02*
X16235077Y-16772914D01*
X16420791Y-16772914D01*
X16592220Y-16572914D02*
X16620791Y-16572914D01*
X16649363Y-16587200D01*
X16663648Y-16601486D01*
X16677934Y-16630057D01*
X16692220Y-16687200D01*
X16692220Y-16758629D01*
X16677934Y-16815772D01*
X16663648Y-16844343D01*
X16649363Y-16858629D01*
X16620791Y-16872914D01*
X16592220Y-16872914D01*
X16563648Y-16858629D01*
X16549363Y-16844343D01*
X16535077Y-16815772D01*
X16520791Y-16758629D01*
X16520791Y-16687200D01*
X16535077Y-16630057D01*
X16549363Y-16601486D01*
X16563648Y-16587200D01*
X16592220Y-16572914D01*
X16806506Y-16572914D02*
X16806506Y-16630057D01*
X16920791Y-16572914D02*
X16920791Y-16630057D01*
X17363648Y-16987200D02*
X17349363Y-16972914D01*
X17320791Y-16930057D01*
X17306506Y-16901486D01*
X17292220Y-16858629D01*
X17277934Y-16787200D01*
X17277934Y-16730057D01*
X17292220Y-16658629D01*
X17306506Y-16615771D01*
X17320791Y-16587200D01*
X17349363Y-16544343D01*
X17363648Y-16530057D01*
X17606506Y-16572914D02*
X17549363Y-16572914D01*
X17520791Y-16587200D01*
X17506506Y-16601486D01*
X17477934Y-16644343D01*
X17463648Y-16701486D01*
X17463648Y-16815772D01*
X17477934Y-16844343D01*
X17492220Y-16858629D01*
X17520791Y-16872914D01*
X17577934Y-16872914D01*
X17606506Y-16858629D01*
X17620791Y-16844343D01*
X17635077Y-16815772D01*
X17635077Y-16744343D01*
X17620791Y-16715771D01*
X17606506Y-16701486D01*
X17577934Y-16687200D01*
X17520791Y-16687200D01*
X17492220Y-16701486D01*
X17477934Y-16715771D01*
X17463648Y-16744343D01*
X17906506Y-16572914D02*
X17763648Y-16572914D01*
X17749363Y-16715771D01*
X17763648Y-16701486D01*
X17792220Y-16687200D01*
X17863648Y-16687200D01*
X17892220Y-16701486D01*
X17906506Y-16715771D01*
X17920791Y-16744343D01*
X17920791Y-16815772D01*
X17906506Y-16844343D01*
X17892220Y-16858629D01*
X17863648Y-16872914D01*
X17792220Y-16872914D01*
X17763648Y-16858629D01*
X17749363Y-16844343D01*
X18277934Y-16872914D02*
X18277934Y-16572914D01*
X18406506Y-16872914D02*
X18406506Y-16715771D01*
X18392220Y-16687200D01*
X18363648Y-16672914D01*
X18320791Y-16672914D01*
X18292220Y-16687200D01*
X18277934Y-16701486D01*
X18592220Y-16872914D02*
X18563648Y-16858629D01*
X18549363Y-16844343D01*
X18535077Y-16815772D01*
X18535077Y-16730057D01*
X18549363Y-16701486D01*
X18563648Y-16687200D01*
X18592220Y-16672914D01*
X18635077Y-16672914D01*
X18663648Y-16687200D01*
X18677934Y-16701486D01*
X18692220Y-16730057D01*
X18692220Y-16815772D01*
X18677934Y-16844343D01*
X18663648Y-16858629D01*
X18635077Y-16872914D01*
X18592220Y-16872914D01*
X18863648Y-16872914D02*
X18835077Y-16858629D01*
X18820791Y-16830057D01*
X18820791Y-16572914D01*
X19092220Y-16858629D02*
X19063648Y-16872914D01*
X19006506Y-16872914D01*
X18977934Y-16858629D01*
X18963648Y-16830057D01*
X18963648Y-16715771D01*
X18977934Y-16687200D01*
X19006506Y-16672914D01*
X19063648Y-16672914D01*
X19092220Y-16687200D01*
X19106506Y-16715771D01*
X19106506Y-16744343D01*
X18963648Y-16772914D01*
X19220791Y-16858629D02*
X19249363Y-16872914D01*
X19306506Y-16872914D01*
X19335077Y-16858629D01*
X19349363Y-16830057D01*
X19349363Y-16815772D01*
X19335077Y-16787200D01*
X19306506Y-16772914D01*
X19263648Y-16772914D01*
X19235077Y-16758629D01*
X19220791Y-16730057D01*
X19220791Y-16715771D01*
X19235077Y-16687200D01*
X19263648Y-16672914D01*
X19306506Y-16672914D01*
X19335077Y-16687200D01*
X19449363Y-16987200D02*
X19463648Y-16972914D01*
X19492220Y-16930057D01*
X19506506Y-16901486D01*
X19520791Y-16858629D01*
X19535077Y-16787200D01*
X19535077Y-16730057D01*
X19520791Y-16658629D01*
X19506506Y-16615771D01*
X19492220Y-16587200D01*
X19463648Y-16544343D01*
X19449363Y-16530057D01*
X12457220Y-17023200D02*
X12677220Y-17243200D01*
X12677220Y-17023200D02*
X12457220Y-17243200D01*
X12567220Y-17023200D02*
X12567220Y-17243200D01*
X12457220Y-17133200D02*
X12677220Y-17133200D01*
X12949363Y-16997486D02*
X12963648Y-16983200D01*
X12992220Y-16968914D01*
X13063648Y-16968914D01*
X13092220Y-16983200D01*
X13106506Y-16997486D01*
X13120791Y-17026057D01*
X13120791Y-17054629D01*
X13106506Y-17097486D01*
X12935077Y-17268914D01*
X13120791Y-17268914D01*
X13249363Y-17240343D02*
X13263648Y-17254629D01*
X13249363Y-17268914D01*
X13235077Y-17254629D01*
X13249363Y-17240343D01*
X13249363Y-17268914D01*
X13377934Y-16997486D02*
X13392220Y-16983200D01*
X13420791Y-16968914D01*
X13492220Y-16968914D01*
X13520791Y-16983200D01*
X13535077Y-16997486D01*
X13549363Y-17026057D01*
X13549363Y-17054629D01*
X13535077Y-17097486D01*
X13363648Y-17268914D01*
X13549363Y-17268914D01*
X13735077Y-16968914D02*
X13763648Y-16968914D01*
X13792220Y-16983200D01*
X13806506Y-16997486D01*
X13820791Y-17026057D01*
X13835077Y-17083200D01*
X13835077Y-17154629D01*
X13820791Y-17211772D01*
X13806506Y-17240343D01*
X13792220Y-17254629D01*
X13763648Y-17268914D01*
X13735077Y-17268914D01*
X13706506Y-17254629D01*
X13692220Y-17240343D01*
X13677934Y-17211772D01*
X13663648Y-17154629D01*
X13663648Y-17083200D01*
X13677934Y-17026057D01*
X13692220Y-16997486D01*
X13706506Y-16983200D01*
X13735077Y-16968914D01*
X13963648Y-17268914D02*
X13963648Y-17068914D01*
X13963648Y-17097486D02*
X13977934Y-17083200D01*
X14006506Y-17068914D01*
X14049363Y-17068914D01*
X14077934Y-17083200D01*
X14092220Y-17111772D01*
X14092220Y-17268914D01*
X14092220Y-17111772D02*
X14106506Y-17083200D01*
X14135077Y-17068914D01*
X14177934Y-17068914D01*
X14206506Y-17083200D01*
X14220791Y-17111772D01*
X14220791Y-17268914D01*
X14363648Y-17268914D02*
X14363648Y-17068914D01*
X14363648Y-17097486D02*
X14377934Y-17083200D01*
X14406506Y-17068914D01*
X14449363Y-17068914D01*
X14477934Y-17083200D01*
X14492220Y-17111772D01*
X14492220Y-17268914D01*
X14492220Y-17111772D02*
X14506506Y-17083200D01*
X14535077Y-17068914D01*
X14577934Y-17068914D01*
X14606506Y-17083200D01*
X14620791Y-17111772D01*
X14620791Y-17268914D01*
X15206506Y-16954629D02*
X14949363Y-17340343D01*
X15592220Y-16968914D02*
X15620791Y-16968914D01*
X15649363Y-16983200D01*
X15663648Y-16997486D01*
X15677934Y-17026057D01*
X15692220Y-17083200D01*
X15692220Y-17154629D01*
X15677934Y-17211772D01*
X15663648Y-17240343D01*
X15649363Y-17254629D01*
X15620791Y-17268914D01*
X15592220Y-17268914D01*
X15563648Y-17254629D01*
X15549363Y-17240343D01*
X15535077Y-17211772D01*
X15520791Y-17154629D01*
X15520791Y-17083200D01*
X15535077Y-17026057D01*
X15549363Y-16997486D01*
X15563648Y-16983200D01*
X15592220Y-16968914D01*
X15820791Y-17240343D02*
X15835077Y-17254629D01*
X15820791Y-17268914D01*
X15806506Y-17254629D01*
X15820791Y-17240343D01*
X15820791Y-17268914D01*
X16020791Y-16968914D02*
X16049363Y-16968914D01*
X16077934Y-16983200D01*
X16092220Y-16997486D01*
X16106506Y-17026057D01*
X16120791Y-17083200D01*
X16120791Y-17154629D01*
X16106506Y-17211772D01*
X16092220Y-17240343D01*
X16077934Y-17254629D01*
X16049363Y-17268914D01*
X16020791Y-17268914D01*
X15992220Y-17254629D01*
X15977934Y-17240343D01*
X15963648Y-17211772D01*
X15949363Y-17154629D01*
X15949363Y-17083200D01*
X15963648Y-17026057D01*
X15977934Y-16997486D01*
X15992220Y-16983200D01*
X16020791Y-16968914D01*
X16292220Y-17097486D02*
X16263648Y-17083200D01*
X16249363Y-17068914D01*
X16235077Y-17040343D01*
X16235077Y-17026057D01*
X16249363Y-16997486D01*
X16263648Y-16983200D01*
X16292220Y-16968914D01*
X16349363Y-16968914D01*
X16377934Y-16983200D01*
X16392220Y-16997486D01*
X16406506Y-17026057D01*
X16406506Y-17040343D01*
X16392220Y-17068914D01*
X16377934Y-17083200D01*
X16349363Y-17097486D01*
X16292220Y-17097486D01*
X16263648Y-17111772D01*
X16249363Y-17126057D01*
X16235077Y-17154629D01*
X16235077Y-17211772D01*
X16249363Y-17240343D01*
X16263648Y-17254629D01*
X16292220Y-17268914D01*
X16349363Y-17268914D01*
X16377934Y-17254629D01*
X16392220Y-17240343D01*
X16406506Y-17211772D01*
X16406506Y-17154629D01*
X16392220Y-17126057D01*
X16377934Y-17111772D01*
X16349363Y-17097486D01*
X16506506Y-16968914D02*
X16706506Y-16968914D01*
X16577934Y-17268914D01*
X16806506Y-16968914D02*
X16806506Y-17026057D01*
X16920791Y-16968914D02*
X16920791Y-17026057D01*
X17363648Y-17383200D02*
X17349363Y-17368914D01*
X17320791Y-17326057D01*
X17306506Y-17297486D01*
X17292220Y-17254629D01*
X17277934Y-17183200D01*
X17277934Y-17126057D01*
X17292220Y-17054629D01*
X17306506Y-17011772D01*
X17320791Y-16983200D01*
X17349363Y-16940343D01*
X17363648Y-16926057D01*
X17606506Y-17068914D02*
X17606506Y-17268914D01*
X17535077Y-16954629D02*
X17463648Y-17168914D01*
X17649363Y-17168914D01*
X17992220Y-17268914D02*
X17992220Y-16968914D01*
X18120791Y-17268914D02*
X18120791Y-17111772D01*
X18106506Y-17083200D01*
X18077934Y-17068914D01*
X18035077Y-17068914D01*
X18006506Y-17083200D01*
X17992220Y-17097486D01*
X18306506Y-17268914D02*
X18277934Y-17254629D01*
X18263648Y-17240343D01*
X18249363Y-17211772D01*
X18249363Y-17126057D01*
X18263648Y-17097486D01*
X18277934Y-17083200D01*
X18306506Y-17068914D01*
X18349363Y-17068914D01*
X18377934Y-17083200D01*
X18392220Y-17097486D01*
X18406506Y-17126057D01*
X18406506Y-17211772D01*
X18392220Y-17240343D01*
X18377934Y-17254629D01*
X18349363Y-17268914D01*
X18306506Y-17268914D01*
X18577934Y-17268914D02*
X18549363Y-17254629D01*
X18535077Y-17226057D01*
X18535077Y-16968914D01*
X18806506Y-17254629D02*
X18777934Y-17268914D01*
X18720791Y-17268914D01*
X18692220Y-17254629D01*
X18677934Y-17226057D01*
X18677934Y-17111772D01*
X18692220Y-17083200D01*
X18720791Y-17068914D01*
X18777934Y-17068914D01*
X18806506Y-17083200D01*
X18820791Y-17111772D01*
X18820791Y-17140343D01*
X18677934Y-17168914D01*
X18935077Y-17254629D02*
X18963648Y-17268914D01*
X19020791Y-17268914D01*
X19049363Y-17254629D01*
X19063648Y-17226057D01*
X19063648Y-17211772D01*
X19049363Y-17183200D01*
X19020791Y-17168914D01*
X18977934Y-17168914D01*
X18949363Y-17154629D01*
X18935077Y-17126057D01*
X18935077Y-17111772D01*
X18949363Y-17083200D01*
X18977934Y-17068914D01*
X19020791Y-17068914D01*
X19049363Y-17083200D01*
X19163648Y-17383200D02*
X19177934Y-17368914D01*
X19206506Y-17326057D01*
X19220791Y-17297486D01*
X19235077Y-17254629D01*
X19249363Y-17183200D01*
X19249363Y-17126057D01*
X19235077Y-17054629D01*
X19220791Y-17011772D01*
X19206506Y-16983200D01*
X19177934Y-16940343D01*
X19163648Y-16926057D01*
X12359720Y-17370450D02*
X12677220Y-17687950D01*
X12677220Y-17370450D02*
X12359720Y-17687950D01*
X12630724Y-17641454D02*
X12630724Y-17416946D01*
X12406216Y-17416946D01*
X12406216Y-17641454D01*
X12630724Y-17641454D01*
X12935077Y-17364914D02*
X13120791Y-17364914D01*
X13020791Y-17479200D01*
X13063648Y-17479200D01*
X13092220Y-17493486D01*
X13106506Y-17507772D01*
X13120791Y-17536343D01*
X13120791Y-17607772D01*
X13106506Y-17636343D01*
X13092220Y-17650629D01*
X13063648Y-17664914D01*
X12977934Y-17664914D01*
X12949363Y-17650629D01*
X12935077Y-17636343D01*
X13249363Y-17636343D02*
X13263648Y-17650629D01*
X13249363Y-17664914D01*
X13235077Y-17650629D01*
X13249363Y-17636343D01*
X13249363Y-17664914D01*
X13549363Y-17664914D02*
X13377934Y-17664914D01*
X13463648Y-17664914D02*
X13463648Y-17364914D01*
X13435077Y-17407772D01*
X13406506Y-17436343D01*
X13377934Y-17450629D01*
X13649363Y-17364914D02*
X13849363Y-17364914D01*
X13720791Y-17664914D01*
X13963648Y-17664914D02*
X13963648Y-17464914D01*
X13963648Y-17493486D02*
X13977934Y-17479200D01*
X14006506Y-17464914D01*
X14049363Y-17464914D01*
X14077934Y-17479200D01*
X14092220Y-17507772D01*
X14092220Y-17664914D01*
X14092220Y-17507772D02*
X14106506Y-17479200D01*
X14135077Y-17464914D01*
X14177934Y-17464914D01*
X14206506Y-17479200D01*
X14220791Y-17507772D01*
X14220791Y-17664914D01*
X14363648Y-17664914D02*
X14363648Y-17464914D01*
X14363648Y-17493486D02*
X14377934Y-17479200D01*
X14406506Y-17464914D01*
X14449363Y-17464914D01*
X14477934Y-17479200D01*
X14492220Y-17507772D01*
X14492220Y-17664914D01*
X14492220Y-17507772D02*
X14506506Y-17479200D01*
X14535077Y-17464914D01*
X14577934Y-17464914D01*
X14606506Y-17479200D01*
X14620791Y-17507772D01*
X14620791Y-17664914D01*
X15206506Y-17350629D02*
X14949363Y-17736343D01*
X15592220Y-17364914D02*
X15620791Y-17364914D01*
X15649363Y-17379200D01*
X15663648Y-17393486D01*
X15677934Y-17422057D01*
X15692220Y-17479200D01*
X15692220Y-17550629D01*
X15677934Y-17607772D01*
X15663648Y-17636343D01*
X15649363Y-17650629D01*
X15620791Y-17664914D01*
X15592220Y-17664914D01*
X15563648Y-17650629D01*
X15549363Y-17636343D01*
X15535077Y-17607772D01*
X15520791Y-17550629D01*
X15520791Y-17479200D01*
X15535077Y-17422057D01*
X15549363Y-17393486D01*
X15563648Y-17379200D01*
X15592220Y-17364914D01*
X15820791Y-17636343D02*
X15835077Y-17650629D01*
X15820791Y-17664914D01*
X15806506Y-17650629D01*
X15820791Y-17636343D01*
X15820791Y-17664914D01*
X16120791Y-17664914D02*
X15949363Y-17664914D01*
X16035077Y-17664914D02*
X16035077Y-17364914D01*
X16006506Y-17407772D01*
X15977934Y-17436343D01*
X15949363Y-17450629D01*
X16235077Y-17393486D02*
X16249363Y-17379200D01*
X16277934Y-17364914D01*
X16349363Y-17364914D01*
X16377934Y-17379200D01*
X16392220Y-17393486D01*
X16406506Y-17422057D01*
X16406506Y-17450629D01*
X16392220Y-17493486D01*
X16220791Y-17664914D01*
X16406506Y-17664914D01*
X16677934Y-17364914D02*
X16535077Y-17364914D01*
X16520791Y-17507772D01*
X16535077Y-17493486D01*
X16563648Y-17479200D01*
X16635077Y-17479200D01*
X16663648Y-17493486D01*
X16677934Y-17507772D01*
X16692220Y-17536343D01*
X16692220Y-17607772D01*
X16677934Y-17636343D01*
X16663648Y-17650629D01*
X16635077Y-17664914D01*
X16563648Y-17664914D01*
X16535077Y-17650629D01*
X16520791Y-17636343D01*
X16806506Y-17364914D02*
X16806506Y-17422057D01*
X16920791Y-17364914D02*
X16920791Y-17422057D01*
X17363648Y-17779200D02*
X17349363Y-17764914D01*
X17320791Y-17722057D01*
X17306506Y-17693486D01*
X17292220Y-17650629D01*
X17277934Y-17579200D01*
X17277934Y-17522057D01*
X17292220Y-17450629D01*
X17306506Y-17407772D01*
X17320791Y-17379200D01*
X17349363Y-17336343D01*
X17363648Y-17322057D01*
X17606506Y-17464914D02*
X17606506Y-17664914D01*
X17535077Y-17350629D02*
X17463648Y-17564914D01*
X17649363Y-17564914D01*
X17992220Y-17664914D02*
X17992220Y-17364914D01*
X18120791Y-17664914D02*
X18120791Y-17507772D01*
X18106506Y-17479200D01*
X18077934Y-17464914D01*
X18035077Y-17464914D01*
X18006506Y-17479200D01*
X17992220Y-17493486D01*
X18306506Y-17664914D02*
X18277934Y-17650629D01*
X18263648Y-17636343D01*
X18249363Y-17607772D01*
X18249363Y-17522057D01*
X18263648Y-17493486D01*
X18277934Y-17479200D01*
X18306506Y-17464914D01*
X18349363Y-17464914D01*
X18377934Y-17479200D01*
X18392220Y-17493486D01*
X18406506Y-17522057D01*
X18406506Y-17607772D01*
X18392220Y-17636343D01*
X18377934Y-17650629D01*
X18349363Y-17664914D01*
X18306506Y-17664914D01*
X18577934Y-17664914D02*
X18549363Y-17650629D01*
X18535077Y-17622057D01*
X18535077Y-17364914D01*
X18806506Y-17650629D02*
X18777934Y-17664914D01*
X18720791Y-17664914D01*
X18692220Y-17650629D01*
X18677934Y-17622057D01*
X18677934Y-17507772D01*
X18692220Y-17479200D01*
X18720791Y-17464914D01*
X18777934Y-17464914D01*
X18806506Y-17479200D01*
X18820791Y-17507772D01*
X18820791Y-17536343D01*
X18677934Y-17564914D01*
X18935077Y-17650629D02*
X18963648Y-17664914D01*
X19020791Y-17664914D01*
X19049363Y-17650629D01*
X19063648Y-17622057D01*
X19063648Y-17607772D01*
X19049363Y-17579200D01*
X19020791Y-17564914D01*
X18977934Y-17564914D01*
X18949363Y-17550629D01*
X18935077Y-17522057D01*
X18935077Y-17507772D01*
X18949363Y-17479200D01*
X18977934Y-17464914D01*
X19020791Y-17464914D01*
X19049363Y-17479200D01*
X19163648Y-17779200D02*
X19177934Y-17764914D01*
X19206506Y-17722057D01*
X19220791Y-17693486D01*
X19235077Y-17650629D01*
X19249363Y-17579200D01*
X19249363Y-17522057D01*
X19235077Y-17450629D01*
X19220791Y-17407772D01*
X19206506Y-17379200D01*
X19177934Y-17336343D01*
X19163648Y-17322057D01*
X19706506Y-17779200D02*
X19692220Y-17764914D01*
X19663648Y-17722057D01*
X19649363Y-17693486D01*
X19635077Y-17650629D01*
X19620791Y-17579200D01*
X19620791Y-17522057D01*
X19635077Y-17450629D01*
X19649363Y-17407772D01*
X19663648Y-17379200D01*
X19692220Y-17336343D01*
X19706506Y-17322057D01*
X19820791Y-17464914D02*
X19820791Y-17664914D01*
X19820791Y-17493486D02*
X19835077Y-17479200D01*
X19863648Y-17464914D01*
X19906506Y-17464914D01*
X19935077Y-17479200D01*
X19949363Y-17507772D01*
X19949363Y-17664914D01*
X20135077Y-17664914D02*
X20106506Y-17650629D01*
X20092220Y-17636343D01*
X20077934Y-17607772D01*
X20077934Y-17522057D01*
X20092220Y-17493486D01*
X20106506Y-17479200D01*
X20135077Y-17464914D01*
X20177934Y-17464914D01*
X20206506Y-17479200D01*
X20220791Y-17493486D01*
X20235077Y-17522057D01*
X20235077Y-17607772D01*
X20220791Y-17636343D01*
X20206506Y-17650629D01*
X20177934Y-17664914D01*
X20135077Y-17664914D01*
X20320791Y-17464914D02*
X20435077Y-17464914D01*
X20363648Y-17364914D02*
X20363648Y-17622057D01*
X20377934Y-17650629D01*
X20406506Y-17664914D01*
X20435077Y-17664914D01*
X20763648Y-17464914D02*
X20763648Y-17764914D01*
X20763648Y-17479200D02*
X20792220Y-17464914D01*
X20849363Y-17464914D01*
X20877934Y-17479200D01*
X20892220Y-17493486D01*
X20906506Y-17522057D01*
X20906506Y-17607772D01*
X20892220Y-17636343D01*
X20877934Y-17650629D01*
X20849363Y-17664914D01*
X20792220Y-17664914D01*
X20763648Y-17650629D01*
X21077934Y-17664914D02*
X21049363Y-17650629D01*
X21035077Y-17622057D01*
X21035077Y-17364914D01*
X21320791Y-17664914D02*
X21320791Y-17507772D01*
X21306506Y-17479200D01*
X21277934Y-17464914D01*
X21220791Y-17464914D01*
X21192220Y-17479200D01*
X21320791Y-17650629D02*
X21292220Y-17664914D01*
X21220791Y-17664914D01*
X21192220Y-17650629D01*
X21177934Y-17622057D01*
X21177934Y-17593486D01*
X21192220Y-17564914D01*
X21220791Y-17550629D01*
X21292220Y-17550629D01*
X21320791Y-17536343D01*
X21420791Y-17464914D02*
X21535077Y-17464914D01*
X21463648Y-17364914D02*
X21463648Y-17622057D01*
X21477934Y-17650629D01*
X21506506Y-17664914D01*
X21535077Y-17664914D01*
X21749363Y-17650629D02*
X21720791Y-17664914D01*
X21663648Y-17664914D01*
X21635077Y-17650629D01*
X21620791Y-17622057D01*
X21620791Y-17507772D01*
X21635077Y-17479200D01*
X21663648Y-17464914D01*
X21720791Y-17464914D01*
X21749363Y-17479200D01*
X21763648Y-17507772D01*
X21763648Y-17536343D01*
X21620791Y-17564914D01*
X22020791Y-17664914D02*
X22020791Y-17364914D01*
X22020791Y-17650629D02*
X21992220Y-17664914D01*
X21935077Y-17664914D01*
X21906506Y-17650629D01*
X21892220Y-17636343D01*
X21877934Y-17607772D01*
X21877934Y-17522057D01*
X21892220Y-17493486D01*
X21906506Y-17479200D01*
X21935077Y-17464914D01*
X21992220Y-17464914D01*
X22020791Y-17479200D01*
X22135077Y-17779200D02*
X22149363Y-17764914D01*
X22177934Y-17722057D01*
X22192220Y-17693486D01*
X22206506Y-17650629D01*
X22220791Y-17579200D01*
X22220791Y-17522057D01*
X22206506Y-17450629D01*
X22192220Y-17407772D01*
X22177934Y-17379200D01*
X22149363Y-17336343D01*
X22135077Y-17322057D01*
M02*
