G04 #@! TF.FileFunction,Legend,Top*
%FSLAX46Y46*%
G04 Gerber Fmt 4.6, Leading zero omitted, Abs format (unit mm)*
G04 Created by KiCad (PCBNEW 4.1.0-alpha+201605121532+6803~44~ubuntu14.04.1-product) date Sat May 14 23:12:31 2016*
%MOMM*%
%LPD*%
G01*
G04 APERTURE LIST*
%ADD10C,0.100000*%
%ADD11C,0.250000*%
%ADD12C,0.300000*%
%ADD13C,0.150000*%
%ADD14C,0.203200*%
%ADD15C,0.381000*%
%ADD16C,0.254000*%
%ADD17C,0.152400*%
G04 APERTURE END LIST*
D10*
D11*
X174845814Y-90420486D02*
X175322004Y-90420486D01*
X174750576Y-90706200D02*
X175083909Y-89706200D01*
X175417242Y-90706200D01*
X175750576Y-90706200D02*
X175750576Y-89706200D01*
X175988671Y-89706200D01*
X176131528Y-89753820D01*
X176226766Y-89849058D01*
X176274385Y-89944296D01*
X176322004Y-90134772D01*
X176322004Y-90277629D01*
X176274385Y-90468105D01*
X176226766Y-90563343D01*
X176131528Y-90658581D01*
X175988671Y-90706200D01*
X175750576Y-90706200D01*
X177179147Y-89706200D02*
X176988671Y-89706200D01*
X176893433Y-89753820D01*
X176845814Y-89801439D01*
X176750576Y-89944296D01*
X176702957Y-90134772D01*
X176702957Y-90515724D01*
X176750576Y-90610962D01*
X176798195Y-90658581D01*
X176893433Y-90706200D01*
X177083909Y-90706200D01*
X177179147Y-90658581D01*
X177226766Y-90610962D01*
X177274385Y-90515724D01*
X177274385Y-90277629D01*
X177226766Y-90182391D01*
X177179147Y-90134772D01*
X177083909Y-90087153D01*
X176893433Y-90087153D01*
X176798195Y-90134772D01*
X176750576Y-90182391D01*
X176702957Y-90277629D01*
X169872494Y-90420486D02*
X170348684Y-90420486D01*
X169777256Y-90706200D02*
X170110589Y-89706200D01*
X170443922Y-90706200D01*
X170777256Y-90706200D02*
X170777256Y-89706200D01*
X171015351Y-89706200D01*
X171158208Y-89753820D01*
X171253446Y-89849058D01*
X171301065Y-89944296D01*
X171348684Y-90134772D01*
X171348684Y-90277629D01*
X171301065Y-90468105D01*
X171253446Y-90563343D01*
X171158208Y-90658581D01*
X171015351Y-90706200D01*
X170777256Y-90706200D01*
X171682018Y-89706200D02*
X172348684Y-89706200D01*
X171920113Y-90706200D01*
X165005854Y-90527166D02*
X165482044Y-90527166D01*
X164910616Y-90812880D02*
X165243949Y-89812880D01*
X165577282Y-90812880D01*
X165910616Y-90812880D02*
X165910616Y-89812880D01*
X166148711Y-89812880D01*
X166291568Y-89860500D01*
X166386806Y-89955738D01*
X166434425Y-90050976D01*
X166482044Y-90241452D01*
X166482044Y-90384309D01*
X166434425Y-90574785D01*
X166386806Y-90670023D01*
X166291568Y-90765261D01*
X166148711Y-90812880D01*
X165910616Y-90812880D01*
X167053473Y-90241452D02*
X166958235Y-90193833D01*
X166910616Y-90146214D01*
X166862997Y-90050976D01*
X166862997Y-90003357D01*
X166910616Y-89908119D01*
X166958235Y-89860500D01*
X167053473Y-89812880D01*
X167243949Y-89812880D01*
X167339187Y-89860500D01*
X167386806Y-89908119D01*
X167434425Y-90003357D01*
X167434425Y-90050976D01*
X167386806Y-90146214D01*
X167339187Y-90193833D01*
X167243949Y-90241452D01*
X167053473Y-90241452D01*
X166958235Y-90289071D01*
X166910616Y-90336690D01*
X166862997Y-90431928D01*
X166862997Y-90622404D01*
X166910616Y-90717642D01*
X166958235Y-90765261D01*
X167053473Y-90812880D01*
X167243949Y-90812880D01*
X167339187Y-90765261D01*
X167386806Y-90717642D01*
X167434425Y-90622404D01*
X167434425Y-90431928D01*
X167386806Y-90336690D01*
X167339187Y-90289071D01*
X167243949Y-90241452D01*
X157337594Y-96442826D02*
X157813784Y-96442826D01*
X157242356Y-96728540D02*
X157575689Y-95728540D01*
X157909022Y-96728540D01*
X158242356Y-96728540D02*
X158242356Y-95728540D01*
X158480451Y-95728540D01*
X158623308Y-95776160D01*
X158718546Y-95871398D01*
X158766165Y-95966636D01*
X158813784Y-96157112D01*
X158813784Y-96299969D01*
X158766165Y-96490445D01*
X158718546Y-96585683D01*
X158623308Y-96680921D01*
X158480451Y-96728540D01*
X158242356Y-96728540D01*
X159289975Y-96728540D02*
X159480451Y-96728540D01*
X159575689Y-96680921D01*
X159623308Y-96633302D01*
X159718546Y-96490445D01*
X159766165Y-96299969D01*
X159766165Y-95919017D01*
X159718546Y-95823779D01*
X159670927Y-95776160D01*
X159575689Y-95728540D01*
X159385213Y-95728540D01*
X159289975Y-95776160D01*
X159242356Y-95823779D01*
X159194737Y-95919017D01*
X159194737Y-96157112D01*
X159242356Y-96252350D01*
X159289975Y-96299969D01*
X159385213Y-96347588D01*
X159575689Y-96347588D01*
X159670927Y-96299969D01*
X159718546Y-96252350D01*
X159766165Y-96157112D01*
X157303363Y-93750426D02*
X157779554Y-93750426D01*
X157208125Y-94036140D02*
X157541459Y-93036140D01*
X157874792Y-94036140D01*
X158208125Y-94036140D02*
X158208125Y-93036140D01*
X158446220Y-93036140D01*
X158589078Y-93083760D01*
X158684316Y-93178998D01*
X158731935Y-93274236D01*
X158779554Y-93464712D01*
X158779554Y-93607569D01*
X158731935Y-93798045D01*
X158684316Y-93893283D01*
X158589078Y-93988521D01*
X158446220Y-94036140D01*
X158208125Y-94036140D01*
X159731935Y-94036140D02*
X159160506Y-94036140D01*
X159446220Y-94036140D02*
X159446220Y-93036140D01*
X159350982Y-93178998D01*
X159255744Y-93274236D01*
X159160506Y-93321855D01*
X160350982Y-93036140D02*
X160446220Y-93036140D01*
X160541459Y-93083760D01*
X160589078Y-93131379D01*
X160636697Y-93226617D01*
X160684316Y-93417093D01*
X160684316Y-93655188D01*
X160636697Y-93845664D01*
X160589078Y-93940902D01*
X160541459Y-93988521D01*
X160446220Y-94036140D01*
X160350982Y-94036140D01*
X160255744Y-93988521D01*
X160208125Y-93940902D01*
X160160506Y-93845664D01*
X160112887Y-93655188D01*
X160112887Y-93417093D01*
X160160506Y-93226617D01*
X160208125Y-93131379D01*
X160255744Y-93083760D01*
X160350982Y-93036140D01*
X157344003Y-90905626D02*
X157820194Y-90905626D01*
X157248765Y-91191340D02*
X157582099Y-90191340D01*
X157915432Y-91191340D01*
X158248765Y-91191340D02*
X158248765Y-90191340D01*
X158486860Y-90191340D01*
X158629718Y-90238960D01*
X158724956Y-90334198D01*
X158772575Y-90429436D01*
X158820194Y-90619912D01*
X158820194Y-90762769D01*
X158772575Y-90953245D01*
X158724956Y-91048483D01*
X158629718Y-91143721D01*
X158486860Y-91191340D01*
X158248765Y-91191340D01*
X159772575Y-91191340D02*
X159201146Y-91191340D01*
X159486860Y-91191340D02*
X159486860Y-90191340D01*
X159391622Y-90334198D01*
X159296384Y-90429436D01*
X159201146Y-90477055D01*
X160724956Y-91191340D02*
X160153527Y-91191340D01*
X160439241Y-91191340D02*
X160439241Y-90191340D01*
X160344003Y-90334198D01*
X160248765Y-90429436D01*
X160153527Y-90477055D01*
D12*
X139730942Y-97047857D02*
X139945228Y-97119285D01*
X140016657Y-97190714D01*
X140088085Y-97333571D01*
X140088085Y-97547857D01*
X140016657Y-97690714D01*
X139945228Y-97762142D01*
X139802371Y-97833571D01*
X139230942Y-97833571D01*
X139230942Y-96333571D01*
X139730942Y-96333571D01*
X139873800Y-96405000D01*
X139945228Y-96476428D01*
X140016657Y-96619285D01*
X140016657Y-96762142D01*
X139945228Y-96905000D01*
X139873800Y-96976428D01*
X139730942Y-97047857D01*
X139230942Y-97047857D01*
X139940457Y-94042800D02*
X139797600Y-93971371D01*
X139583314Y-93971371D01*
X139369028Y-94042800D01*
X139226171Y-94185657D01*
X139154742Y-94328514D01*
X139083314Y-94614228D01*
X139083314Y-94828514D01*
X139154742Y-95114228D01*
X139226171Y-95257085D01*
X139369028Y-95399942D01*
X139583314Y-95471371D01*
X139726171Y-95471371D01*
X139940457Y-95399942D01*
X140011885Y-95328514D01*
X140011885Y-94828514D01*
X139726171Y-94828514D01*
X140011885Y-91585171D02*
X139511885Y-90870885D01*
X139154742Y-91585171D02*
X139154742Y-90085171D01*
X139726171Y-90085171D01*
X139869028Y-90156600D01*
X139940457Y-90228028D01*
X140011885Y-90370885D01*
X140011885Y-90585171D01*
X139940457Y-90728028D01*
X139869028Y-90799457D01*
X139726171Y-90870885D01*
X139154742Y-90870885D01*
X144379285Y-133520571D02*
X143665000Y-133520571D01*
X143665000Y-132020571D01*
X144879285Y-133520571D02*
X144879285Y-132020571D01*
X145236428Y-132020571D01*
X145450714Y-132092000D01*
X145593571Y-132234857D01*
X145665000Y-132377714D01*
X145736428Y-132663428D01*
X145736428Y-132877714D01*
X145665000Y-133163428D01*
X145593571Y-133306285D01*
X145450714Y-133449142D01*
X145236428Y-133520571D01*
X144879285Y-133520571D01*
X147236428Y-133520571D02*
X146736428Y-132806285D01*
X146379285Y-133520571D02*
X146379285Y-132020571D01*
X146950714Y-132020571D01*
X147093571Y-132092000D01*
X147165000Y-132163428D01*
X147236428Y-132306285D01*
X147236428Y-132520571D01*
X147165000Y-132663428D01*
X147093571Y-132734857D01*
X146950714Y-132806285D01*
X146379285Y-132806285D01*
D13*
X176682660Y-118517895D02*
X175682660Y-118517895D01*
X175682660Y-118279800D01*
X175730280Y-118136942D01*
X175825518Y-118041704D01*
X175920756Y-117994085D01*
X176111232Y-117946466D01*
X176254089Y-117946466D01*
X176444565Y-117994085D01*
X176539803Y-118041704D01*
X176635041Y-118136942D01*
X176682660Y-118279800D01*
X176682660Y-118517895D01*
X175777899Y-117565514D02*
X175730280Y-117517895D01*
X175682660Y-117422657D01*
X175682660Y-117184561D01*
X175730280Y-117089323D01*
X175777899Y-117041704D01*
X175873137Y-116994085D01*
X175968375Y-116994085D01*
X176111232Y-117041704D01*
X176682660Y-117613133D01*
X176682660Y-116994085D01*
X171428184Y-106573580D02*
X171428184Y-105573580D01*
X171666280Y-105573580D01*
X171809137Y-105621200D01*
X171904375Y-105716438D01*
X171951994Y-105811676D01*
X171999613Y-106002152D01*
X171999613Y-106145009D01*
X171951994Y-106335485D01*
X171904375Y-106430723D01*
X171809137Y-106525961D01*
X171666280Y-106573580D01*
X171428184Y-106573580D01*
X172332946Y-105573580D02*
X172951994Y-105573580D01*
X172618660Y-105954533D01*
X172761518Y-105954533D01*
X172856756Y-106002152D01*
X172904375Y-106049771D01*
X172951994Y-106145009D01*
X172951994Y-106383104D01*
X172904375Y-106478342D01*
X172856756Y-106525961D01*
X172761518Y-106573580D01*
X172475803Y-106573580D01*
X172380565Y-106525961D01*
X172332946Y-106478342D01*
X157520379Y-114745544D02*
X158520379Y-114745544D01*
X158520379Y-114983640D01*
X158472760Y-115126497D01*
X158377521Y-115221735D01*
X158282283Y-115269354D01*
X158091807Y-115316973D01*
X157948950Y-115316973D01*
X157758474Y-115269354D01*
X157663236Y-115221735D01*
X157567998Y-115126497D01*
X157520379Y-114983640D01*
X157520379Y-114745544D01*
X158187045Y-116174116D02*
X157520379Y-116174116D01*
X158567998Y-115936020D02*
X157853712Y-115697925D01*
X157853712Y-116316973D01*
X184030880Y-99099595D02*
X183030880Y-99099595D01*
X183030880Y-98861500D01*
X183078500Y-98718642D01*
X183173738Y-98623404D01*
X183268976Y-98575785D01*
X183459452Y-98528166D01*
X183602309Y-98528166D01*
X183792785Y-98575785D01*
X183888023Y-98623404D01*
X183983261Y-98718642D01*
X184030880Y-98861500D01*
X184030880Y-99099595D01*
X183030880Y-97623404D02*
X183030880Y-98099595D01*
X183507071Y-98147214D01*
X183459452Y-98099595D01*
X183411833Y-98004357D01*
X183411833Y-97766261D01*
X183459452Y-97671023D01*
X183507071Y-97623404D01*
X183602309Y-97575785D01*
X183840404Y-97575785D01*
X183935642Y-97623404D01*
X183983261Y-97671023D01*
X184030880Y-97766261D01*
X184030880Y-98004357D01*
X183983261Y-98099595D01*
X183935642Y-98147214D01*
X177495034Y-124829866D02*
X177971224Y-124829866D01*
X177399796Y-125115580D02*
X177733129Y-124115580D01*
X178066462Y-125115580D01*
X178399796Y-125115580D02*
X178399796Y-124115580D01*
X178637891Y-124115580D01*
X178780748Y-124163200D01*
X178875986Y-124258438D01*
X178923605Y-124353676D01*
X178971224Y-124544152D01*
X178971224Y-124687009D01*
X178923605Y-124877485D01*
X178875986Y-124972723D01*
X178780748Y-125067961D01*
X178637891Y-125115580D01*
X178399796Y-125115580D01*
X179875986Y-124115580D02*
X179399796Y-124115580D01*
X179352177Y-124591771D01*
X179399796Y-124544152D01*
X179495034Y-124496533D01*
X179733129Y-124496533D01*
X179828367Y-124544152D01*
X179875986Y-124591771D01*
X179923605Y-124687009D01*
X179923605Y-124925104D01*
X179875986Y-125020342D01*
X179828367Y-125067961D01*
X179733129Y-125115580D01*
X179495034Y-125115580D01*
X179399796Y-125067961D01*
X179352177Y-125020342D01*
X175844034Y-129300266D02*
X176320224Y-129300266D01*
X175748796Y-129585980D02*
X176082129Y-128585980D01*
X176415462Y-129585980D01*
X176748796Y-129585980D02*
X176748796Y-128585980D01*
X176986891Y-128585980D01*
X177129748Y-128633600D01*
X177224986Y-128728838D01*
X177272605Y-128824076D01*
X177320224Y-129014552D01*
X177320224Y-129157409D01*
X177272605Y-129347885D01*
X177224986Y-129443123D01*
X177129748Y-129538361D01*
X176986891Y-129585980D01*
X176748796Y-129585980D01*
X178177367Y-128919314D02*
X178177367Y-129585980D01*
X177939272Y-128538361D02*
X177701177Y-129252647D01*
X178320224Y-129252647D01*
X147380794Y-106653626D02*
X147856984Y-106653626D01*
X147285556Y-106939340D02*
X147618889Y-105939340D01*
X147952222Y-106939340D01*
X148285556Y-106939340D02*
X148285556Y-105939340D01*
X148523651Y-105939340D01*
X148666508Y-105986960D01*
X148761746Y-106082198D01*
X148809365Y-106177436D01*
X148856984Y-106367912D01*
X148856984Y-106510769D01*
X148809365Y-106701245D01*
X148761746Y-106796483D01*
X148666508Y-106891721D01*
X148523651Y-106939340D01*
X148285556Y-106939340D01*
X149237937Y-106034579D02*
X149285556Y-105986960D01*
X149380794Y-105939340D01*
X149618889Y-105939340D01*
X149714127Y-105986960D01*
X149761746Y-106034579D01*
X149809365Y-106129817D01*
X149809365Y-106225055D01*
X149761746Y-106367912D01*
X149190318Y-106939340D01*
X149809365Y-106939340D01*
X147324914Y-119008186D02*
X147801104Y-119008186D01*
X147229676Y-119293900D02*
X147563009Y-118293900D01*
X147896342Y-119293900D01*
X148229676Y-119293900D02*
X148229676Y-118293900D01*
X148467771Y-118293900D01*
X148610628Y-118341520D01*
X148705866Y-118436758D01*
X148753485Y-118531996D01*
X148801104Y-118722472D01*
X148801104Y-118865329D01*
X148753485Y-119055805D01*
X148705866Y-119151043D01*
X148610628Y-119246281D01*
X148467771Y-119293900D01*
X148229676Y-119293900D01*
X149753485Y-119293900D02*
X149182057Y-119293900D01*
X149467771Y-119293900D02*
X149467771Y-118293900D01*
X149372533Y-118436758D01*
X149277295Y-118531996D01*
X149182057Y-118579615D01*
X150134154Y-131123986D02*
X150610344Y-131123986D01*
X150038916Y-131409700D02*
X150372249Y-130409700D01*
X150705582Y-131409700D01*
X151038916Y-131409700D02*
X151038916Y-130409700D01*
X151277011Y-130409700D01*
X151419868Y-130457320D01*
X151515106Y-130552558D01*
X151562725Y-130647796D01*
X151610344Y-130838272D01*
X151610344Y-130981129D01*
X151562725Y-131171605D01*
X151515106Y-131266843D01*
X151419868Y-131362081D01*
X151277011Y-131409700D01*
X151038916Y-131409700D01*
X152229392Y-130409700D02*
X152324630Y-130409700D01*
X152419868Y-130457320D01*
X152467487Y-130504939D01*
X152515106Y-130600177D01*
X152562725Y-130790653D01*
X152562725Y-131028748D01*
X152515106Y-131219224D01*
X152467487Y-131314462D01*
X152419868Y-131362081D01*
X152324630Y-131409700D01*
X152229392Y-131409700D01*
X152134154Y-131362081D01*
X152086535Y-131314462D01*
X152038916Y-131219224D01*
X151991297Y-131028748D01*
X151991297Y-130790653D01*
X152038916Y-130600177D01*
X152086535Y-130504939D01*
X152134154Y-130457320D01*
X152229392Y-130409700D01*
D11*
X128283912Y-106598980D02*
X128283912Y-105598980D01*
X128283912Y-105979933D02*
X128379150Y-105932314D01*
X128569626Y-105932314D01*
X128664864Y-105979933D01*
X128712483Y-106027552D01*
X128760102Y-106122790D01*
X128760102Y-106408504D01*
X128712483Y-106503742D01*
X128664864Y-106551361D01*
X128569626Y-106598980D01*
X128379150Y-106598980D01*
X128283912Y-106551361D01*
X129093436Y-105932314D02*
X129331531Y-106598980D01*
X129569626Y-105932314D02*
X129331531Y-106598980D01*
X129236293Y-106837076D01*
X129188674Y-106884695D01*
X129093436Y-106932314D01*
X131045817Y-106075171D02*
X131188674Y-106122790D01*
X131236293Y-106170409D01*
X131283912Y-106265647D01*
X131283912Y-106408504D01*
X131236293Y-106503742D01*
X131188674Y-106551361D01*
X131093436Y-106598980D01*
X130712483Y-106598980D01*
X130712483Y-105598980D01*
X131045817Y-105598980D01*
X131141055Y-105646600D01*
X131188674Y-105694219D01*
X131236293Y-105789457D01*
X131236293Y-105884695D01*
X131188674Y-105979933D01*
X131141055Y-106027552D01*
X131045817Y-106075171D01*
X130712483Y-106075171D01*
X131712483Y-106598980D02*
X131712483Y-105932314D01*
X131712483Y-106122790D02*
X131760102Y-106027552D01*
X131807721Y-105979933D01*
X131902960Y-105932314D01*
X131998198Y-105932314D01*
X132331531Y-106598980D02*
X132331531Y-105932314D01*
X132331531Y-105598980D02*
X132283912Y-105646600D01*
X132331531Y-105694219D01*
X132379150Y-105646600D01*
X132331531Y-105598980D01*
X132331531Y-105694219D01*
X133236293Y-106551361D02*
X133141055Y-106598980D01*
X132950579Y-106598980D01*
X132855340Y-106551361D01*
X132807721Y-106503742D01*
X132760102Y-106408504D01*
X132760102Y-106122790D01*
X132807721Y-106027552D01*
X132855340Y-105979933D01*
X132950579Y-105932314D01*
X133141055Y-105932314D01*
X133236293Y-105979933D01*
X133807721Y-106598980D02*
X133712483Y-106551361D01*
X133664864Y-106503742D01*
X133617245Y-106408504D01*
X133617245Y-106122790D01*
X133664864Y-106027552D01*
X133712483Y-105979933D01*
X133807721Y-105932314D01*
X133950579Y-105932314D01*
X134045817Y-105979933D01*
X134093436Y-106027552D01*
X134141055Y-106122790D01*
X134141055Y-106408504D01*
X134093436Y-106503742D01*
X134045817Y-106551361D01*
X133950579Y-106598980D01*
X133807721Y-106598980D01*
X135045817Y-106598980D02*
X134569626Y-106598980D01*
X134569626Y-105598980D01*
X135807721Y-106598980D02*
X135807721Y-106075171D01*
X135760102Y-105979933D01*
X135664864Y-105932314D01*
X135474388Y-105932314D01*
X135379150Y-105979933D01*
X135807721Y-106551361D02*
X135712483Y-106598980D01*
X135474388Y-106598980D01*
X135379150Y-106551361D01*
X135331531Y-106456123D01*
X135331531Y-106360885D01*
X135379150Y-106265647D01*
X135474388Y-106218028D01*
X135712483Y-106218028D01*
X135807721Y-106170409D01*
X136283912Y-106598980D02*
X136283912Y-105598980D01*
X136283912Y-105979933D02*
X136379150Y-105932314D01*
X136569626Y-105932314D01*
X136664864Y-105979933D01*
X136712483Y-106027552D01*
X136760102Y-106122790D01*
X136760102Y-106408504D01*
X136712483Y-106503742D01*
X136664864Y-106551361D01*
X136569626Y-106598980D01*
X136379150Y-106598980D01*
X136283912Y-106551361D01*
X137141055Y-106551361D02*
X137236293Y-106598980D01*
X137426769Y-106598980D01*
X137522007Y-106551361D01*
X137569626Y-106456123D01*
X137569626Y-106408504D01*
X137522007Y-106313266D01*
X137426769Y-106265647D01*
X137283912Y-106265647D01*
X137188674Y-106218028D01*
X137141055Y-106122790D01*
X137141055Y-106075171D01*
X137188674Y-105979933D01*
X137283912Y-105932314D01*
X137426769Y-105932314D01*
X137522007Y-105979933D01*
D14*
X174163990Y-122440700D02*
X169845990Y-122440700D01*
X169845990Y-128536700D02*
X174163990Y-128536700D01*
X175052990Y-124493020D02*
X175052990Y-126504700D01*
X168956990Y-124462540D02*
X168956990Y-126504700D01*
X173782990Y-125488700D02*
G75*
G03X173782990Y-125488700I-1778000J0D01*
G01*
D13*
X134200900Y-101546660D02*
X134561580Y-103017320D01*
X134561580Y-103017320D02*
X134840980Y-101955600D01*
X134840980Y-101955600D02*
X135150860Y-103027480D01*
X135150860Y-103027480D02*
X135491220Y-101577140D01*
X132781040Y-102237540D02*
X133570980Y-102227380D01*
X133570980Y-102227380D02*
X133581140Y-102237540D01*
X133581140Y-102237540D02*
X133581140Y-102227380D01*
X133621780Y-101516180D02*
X133621780Y-103057960D01*
X132732780Y-101506020D02*
X132732780Y-103075740D01*
X132732780Y-103075740D02*
X132742940Y-103065580D01*
X132181600Y-101607620D02*
X131831080Y-101526340D01*
X131831080Y-101526340D02*
X131511040Y-101516180D01*
X131511040Y-101516180D02*
X131272280Y-101716840D01*
X131272280Y-101716840D02*
X131241800Y-101986080D01*
X131241800Y-101986080D02*
X131483100Y-102227380D01*
X131483100Y-102227380D02*
X131871720Y-102356920D01*
X131871720Y-102356920D02*
X132052060Y-102516940D01*
X132052060Y-102516940D02*
X132092700Y-102816660D01*
X132092700Y-102816660D02*
X131861560Y-103037640D01*
X131861560Y-103037640D02*
X131541520Y-103065580D01*
X131541520Y-103065580D02*
X131191000Y-102956360D01*
X130152140Y-101506020D02*
X129903220Y-101526340D01*
X129903220Y-101526340D02*
X129661920Y-101767640D01*
X129661920Y-101767640D02*
X129573020Y-102257860D01*
X129573020Y-102257860D02*
X129600960Y-102605840D01*
X129600960Y-102605840D02*
X129801620Y-102925880D01*
X129801620Y-102925880D02*
X130053080Y-103047800D01*
X130053080Y-103047800D02*
X130362960Y-102976680D01*
X130362960Y-102976680D02*
X130581400Y-102796340D01*
X130581400Y-102796340D02*
X130652520Y-102336600D01*
X130652520Y-102336600D02*
X130601720Y-101927660D01*
X130601720Y-101927660D02*
X130492500Y-101645720D01*
X130492500Y-101645720D02*
X130131820Y-101516180D01*
X130751580Y-99786440D02*
X130492500Y-100347780D01*
X130492500Y-100347780D02*
X131030980Y-100865940D01*
X131030980Y-100865940D02*
X131551680Y-100596700D01*
X131551680Y-100596700D02*
X131831080Y-100756720D01*
X133271260Y-100736400D02*
X133601460Y-100545900D01*
X133601460Y-100545900D02*
X134040880Y-100876100D01*
X134040880Y-100876100D02*
X134513320Y-100385880D01*
X134513320Y-100385880D02*
X134231380Y-99905820D01*
X134231380Y-99905820D02*
X134421880Y-99435920D01*
X134421880Y-99435920D02*
X135031480Y-99247960D01*
X135031480Y-99247960D02*
X135031480Y-98567240D01*
X135031480Y-98567240D02*
X134472680Y-98427540D01*
X134472680Y-98427540D02*
X134272020Y-97856040D01*
X134272020Y-97856040D02*
X134541260Y-97386140D01*
X134541260Y-97386140D02*
X134071360Y-96875600D01*
X134071360Y-96875600D02*
X133553200Y-97137220D01*
X133553200Y-97137220D02*
X133083300Y-96936560D01*
X133083300Y-96936560D02*
X132913120Y-96395540D01*
X132913120Y-96395540D02*
X132222240Y-96377760D01*
X132222240Y-96377760D02*
X132011420Y-96926400D01*
X132011420Y-96926400D02*
X131592320Y-97096580D01*
X131592320Y-97096580D02*
X131041140Y-96827340D01*
X131041140Y-96827340D02*
X130522980Y-97355660D01*
X130522980Y-97355660D02*
X130771900Y-97896680D01*
X130771900Y-97896680D02*
X130601720Y-98376740D01*
X130601720Y-98376740D02*
X130053080Y-98475800D01*
X130053080Y-98475800D02*
X130042920Y-99176840D01*
X130042920Y-99176840D02*
X130601720Y-99377500D01*
X130601720Y-99377500D02*
X130741420Y-99776280D01*
X132882640Y-99755960D02*
X133182360Y-99606100D01*
X133182360Y-99606100D02*
X133383020Y-99407980D01*
X133383020Y-99407980D02*
X133532880Y-99006660D01*
X133532880Y-99006660D02*
X133532880Y-98607880D01*
X133532880Y-98607880D02*
X133383020Y-98257360D01*
X133383020Y-98257360D02*
X132930900Y-97906840D01*
X132930900Y-97906840D02*
X132481320Y-97856040D01*
X132481320Y-97856040D02*
X132082540Y-97957640D01*
X132082540Y-97957640D02*
X131681220Y-98305620D01*
X131681220Y-98305620D02*
X131531360Y-98757740D01*
X131531360Y-98757740D02*
X131582160Y-99255580D01*
X131582160Y-99255580D02*
X131831080Y-99557840D01*
X131831080Y-99557840D02*
X132181600Y-99755960D01*
X132181600Y-99755960D02*
X131831080Y-100756720D01*
X132882640Y-99755960D02*
X133281420Y-100756720D01*
D15*
X143149174Y-92481494D02*
X143149174Y-93179994D01*
X142948514Y-89880534D02*
X141348314Y-89880534D01*
D14*
X180919120Y-101020880D02*
X181554120Y-100385880D01*
X181554120Y-100385880D02*
X182824120Y-100385880D01*
X182824120Y-100385880D02*
X183459120Y-101020880D01*
X183459120Y-102290880D02*
X182824120Y-102925880D01*
X182824120Y-102925880D02*
X181554120Y-102925880D01*
X181554120Y-102925880D02*
X180919120Y-102290880D01*
X176474120Y-100385880D02*
X177744120Y-100385880D01*
X177744120Y-100385880D02*
X178379120Y-101020880D01*
X178379120Y-102290880D02*
X177744120Y-102925880D01*
X178379120Y-101020880D02*
X179014120Y-100385880D01*
X179014120Y-100385880D02*
X180284120Y-100385880D01*
X180284120Y-100385880D02*
X180919120Y-101020880D01*
X180919120Y-102290880D02*
X180284120Y-102925880D01*
X180284120Y-102925880D02*
X179014120Y-102925880D01*
X179014120Y-102925880D02*
X178379120Y-102290880D01*
X175839120Y-101020880D02*
X175839120Y-102290880D01*
X176474120Y-100385880D02*
X175839120Y-101020880D01*
X175839120Y-102290880D02*
X176474120Y-102925880D01*
X177744120Y-102925880D02*
X176474120Y-102925880D01*
X183459120Y-101020880D02*
X183459120Y-102290880D01*
X134264400Y-130606800D02*
X129946400Y-130606800D01*
X129946400Y-136702800D02*
X134264400Y-136702800D01*
X135153400Y-132659120D02*
X135153400Y-134670800D01*
X129057400Y-132628640D02*
X129057400Y-134670800D01*
X133883400Y-133654800D02*
G75*
G03X133883400Y-133654800I-1778000J0D01*
G01*
X174163990Y-114782600D02*
X169845990Y-114782600D01*
X169845990Y-120878600D02*
X174163990Y-120878600D01*
X175052990Y-116834920D02*
X175052990Y-118846600D01*
X168956990Y-116804440D02*
X168956990Y-118846600D01*
X173782990Y-117830600D02*
G75*
G03X173782990Y-117830600I-1778000J0D01*
G01*
X169845990Y-113220500D02*
X174163990Y-113220500D01*
X174163990Y-107124500D02*
X169845990Y-107124500D01*
X168956990Y-111168180D02*
X168956990Y-109156500D01*
X175052990Y-111198660D02*
X175052990Y-109156500D01*
X173782990Y-110172500D02*
G75*
G03X173782990Y-110172500I-1778000J0D01*
G01*
X165140640Y-114782600D02*
X160822640Y-114782600D01*
X160822640Y-120878600D02*
X165140640Y-120878600D01*
X166029640Y-116834920D02*
X166029640Y-118846600D01*
X159933640Y-116804440D02*
X159933640Y-118846600D01*
X164759640Y-117830600D02*
G75*
G03X164759640Y-117830600I-1778000J0D01*
G01*
X183187340Y-114782600D02*
X178869340Y-114782600D01*
X178869340Y-120878600D02*
X183187340Y-120878600D01*
X184076340Y-116834920D02*
X184076340Y-118846600D01*
X177980340Y-116804440D02*
X177980340Y-118846600D01*
X182806340Y-117830600D02*
G75*
G03X182806340Y-117830600I-1778000J0D01*
G01*
D13*
X133563360Y-88539320D02*
G75*
G03X133563360Y-88539320I-1000760J0D01*
G01*
X138762740Y-88539320D02*
G75*
G03X138762740Y-88539320I-6200140J0D01*
G01*
X140467080Y-126136400D02*
X145547080Y-126136400D01*
X145547080Y-126136400D02*
X145547080Y-128676400D01*
X145547080Y-128676400D02*
X140467080Y-128676400D01*
X140467080Y-128676400D02*
X140467080Y-126136400D01*
X140467080Y-127406400D02*
X139197080Y-127406400D01*
X145547080Y-127406400D02*
X146817080Y-127406400D01*
X145516600Y-131333240D02*
X140436600Y-131333240D01*
X140436600Y-131333240D02*
X140436600Y-128793240D01*
X140436600Y-128793240D02*
X145516600Y-128793240D01*
X145516600Y-128793240D02*
X145516600Y-131333240D01*
X145516600Y-130063240D02*
X146786600Y-130063240D01*
X140436600Y-130063240D02*
X139166600Y-130063240D01*
X160365440Y-104056180D02*
X155285440Y-104056180D01*
X155285440Y-104056180D02*
X155285440Y-101516180D01*
X155285440Y-101516180D02*
X160365440Y-101516180D01*
X160365440Y-101516180D02*
X160365440Y-104056180D01*
X160365440Y-102786180D02*
X161635440Y-102786180D01*
X155285440Y-102786180D02*
X154015440Y-102786180D01*
X160365440Y-106726355D02*
X155285440Y-106726355D01*
X155285440Y-106726355D02*
X155285440Y-104186355D01*
X155285440Y-104186355D02*
X160365440Y-104186355D01*
X160365440Y-104186355D02*
X160365440Y-106726355D01*
X160365440Y-105456355D02*
X161635440Y-105456355D01*
X155285440Y-105456355D02*
X154015440Y-105456355D01*
X160365440Y-109288580D02*
X155285440Y-109288580D01*
X155285440Y-109288580D02*
X155285440Y-106748580D01*
X155285440Y-106748580D02*
X160365440Y-106748580D01*
X160365440Y-106748580D02*
X160365440Y-109288580D01*
X160365440Y-108018580D02*
X161635440Y-108018580D01*
X155285440Y-108018580D02*
X154015440Y-108018580D01*
X147990560Y-89839800D02*
X153070560Y-89839800D01*
X153070560Y-89839800D02*
X153070560Y-92379800D01*
X153070560Y-92379800D02*
X147990560Y-92379800D01*
X147990560Y-92379800D02*
X147990560Y-89839800D01*
X147990560Y-91109800D02*
X146720560Y-91109800D01*
X153070560Y-91109800D02*
X154340560Y-91109800D01*
X147995640Y-92407740D02*
X153075640Y-92407740D01*
X153075640Y-92407740D02*
X153075640Y-94947740D01*
X153075640Y-94947740D02*
X147995640Y-94947740D01*
X147995640Y-94947740D02*
X147995640Y-92407740D01*
X147995640Y-93677740D02*
X146725640Y-93677740D01*
X153075640Y-93677740D02*
X154345640Y-93677740D01*
X147995640Y-95036640D02*
X153075640Y-95036640D01*
X153075640Y-95036640D02*
X153075640Y-97576640D01*
X153075640Y-97576640D02*
X147995640Y-97576640D01*
X147995640Y-97576640D02*
X147995640Y-95036640D01*
X147995640Y-96306640D02*
X146725640Y-96306640D01*
X153075640Y-96306640D02*
X154345640Y-96306640D01*
X163885880Y-124841000D02*
X158805880Y-124841000D01*
X158805880Y-124841000D02*
X158805880Y-122301000D01*
X158805880Y-122301000D02*
X163885880Y-122301000D01*
X163885880Y-122301000D02*
X163885880Y-124841000D01*
X163885880Y-123571000D02*
X165155880Y-123571000D01*
X158805880Y-123571000D02*
X157535880Y-123571000D01*
X179283360Y-109113320D02*
X184363360Y-109113320D01*
X184363360Y-109113320D02*
X184363360Y-111653320D01*
X184363360Y-111653320D02*
X179283360Y-111653320D01*
X179283360Y-111653320D02*
X179283360Y-109113320D01*
X179283360Y-110383320D02*
X178013360Y-110383320D01*
X184363360Y-110383320D02*
X185633360Y-110383320D01*
X164010340Y-111493300D02*
X169090340Y-111493300D01*
X169090340Y-111493300D02*
X169090340Y-114033300D01*
X169090340Y-114033300D02*
X164010340Y-114033300D01*
X164010340Y-114033300D02*
X164010340Y-111493300D01*
X164010340Y-112763300D02*
X162740340Y-112763300D01*
X169090340Y-112763300D02*
X170360340Y-112763300D01*
X163885880Y-127482600D02*
X158805880Y-127482600D01*
X158805880Y-127482600D02*
X158805880Y-124942600D01*
X158805880Y-124942600D02*
X163885880Y-124942600D01*
X163885880Y-124942600D02*
X163885880Y-127482600D01*
X163885880Y-126212600D02*
X165155880Y-126212600D01*
X158805880Y-126212600D02*
X157535880Y-126212600D01*
X181924960Y-121686320D02*
X187004960Y-121686320D01*
X187004960Y-121686320D02*
X187004960Y-124226320D01*
X187004960Y-124226320D02*
X181924960Y-124226320D01*
X181924960Y-124226320D02*
X181924960Y-121686320D01*
X181924960Y-122956320D02*
X180654960Y-122956320D01*
X187004960Y-122956320D02*
X188274960Y-122956320D01*
D14*
X163499800Y-97028000D02*
X167309800Y-97028000D01*
D16*
X167312468Y-97025997D02*
G75*
G03X163499800Y-97028000I-1907668J2537997D01*
G01*
D17*
X167944800Y-94488000D02*
G75*
G03X167944800Y-94488000I-2540000J0D01*
G01*
D14*
X170307000Y-97028000D02*
X174117000Y-97028000D01*
D16*
X174119668Y-97025997D02*
G75*
G03X170307000Y-97028000I-1907668J2537997D01*
G01*
D17*
X174752000Y-94488000D02*
G75*
G03X174752000Y-94488000I-2540000J0D01*
G01*
D14*
X177292000Y-97028000D02*
X181102000Y-97028000D01*
D16*
X181104668Y-97025997D02*
G75*
G03X177292000Y-97028000I-1907668J2537997D01*
G01*
D17*
X181737000Y-94488000D02*
G75*
G03X181737000Y-94488000I-2540000J0D01*
G01*
D13*
X129004820Y-104073651D02*
X129147678Y-104121270D01*
X129195297Y-104168889D01*
X129242916Y-104264127D01*
X129242916Y-104406984D01*
X129195297Y-104502222D01*
X129147678Y-104549841D01*
X129052440Y-104597460D01*
X128671487Y-104597460D01*
X128671487Y-103597460D01*
X129004820Y-103597460D01*
X129100059Y-103645080D01*
X129147678Y-103692699D01*
X129195297Y-103787937D01*
X129195297Y-103883175D01*
X129147678Y-103978413D01*
X129100059Y-104026032D01*
X129004820Y-104073651D01*
X128671487Y-104073651D01*
X129623868Y-104311746D02*
X130100059Y-104311746D01*
X129528630Y-104597460D02*
X129861963Y-103597460D01*
X130195297Y-104597460D01*
X130385773Y-103597460D02*
X130957201Y-103597460D01*
X130671487Y-104597460D02*
X130671487Y-103597460D01*
X131242916Y-104549841D02*
X131385773Y-104597460D01*
X131623868Y-104597460D01*
X131719106Y-104549841D01*
X131766725Y-104502222D01*
X131814344Y-104406984D01*
X131814344Y-104311746D01*
X131766725Y-104216508D01*
X131719106Y-104168889D01*
X131623868Y-104121270D01*
X131433392Y-104073651D01*
X131338154Y-104026032D01*
X131290535Y-103978413D01*
X131242916Y-103883175D01*
X131242916Y-103787937D01*
X131290535Y-103692699D01*
X131338154Y-103645080D01*
X131433392Y-103597460D01*
X131671487Y-103597460D01*
X131814344Y-103645080D01*
X132909582Y-103930794D02*
X133147678Y-104597460D01*
X133385773Y-103930794D01*
X134481011Y-103692699D02*
X134528630Y-103645080D01*
X134623868Y-103597460D01*
X134861963Y-103597460D01*
X134957201Y-103645080D01*
X135004820Y-103692699D01*
X135052440Y-103787937D01*
X135052440Y-103883175D01*
X135004820Y-104026032D01*
X134433392Y-104597460D01*
X135052440Y-104597460D01*
X135481011Y-104502222D02*
X135528630Y-104549841D01*
X135481011Y-104597460D01*
X135433392Y-104549841D01*
X135481011Y-104502222D01*
X135481011Y-104597460D01*
X136481011Y-104597460D02*
X135909582Y-104597460D01*
X136195297Y-104597460D02*
X136195297Y-103597460D01*
X136100059Y-103740318D01*
X136004820Y-103835556D01*
X135909582Y-103883175D01*
X131912455Y-85177380D02*
X131912455Y-85986904D01*
X131960074Y-86082142D01*
X132007693Y-86129761D01*
X132102931Y-86177380D01*
X132293407Y-86177380D01*
X132388645Y-86129761D01*
X132436264Y-86082142D01*
X132483883Y-85986904D01*
X132483883Y-85177380D01*
X133483883Y-86177380D02*
X132912455Y-86177380D01*
X133198169Y-86177380D02*
X133198169Y-85177380D01*
X133102931Y-85320238D01*
X133007693Y-85415476D01*
X132912455Y-85463095D01*
X135966247Y-86314588D02*
X136728152Y-86314588D01*
X136347200Y-86695540D02*
X136347200Y-85933636D01*
X143013133Y-127838460D02*
X142679800Y-127362270D01*
X142441704Y-127838460D02*
X142441704Y-126838460D01*
X142822657Y-126838460D01*
X142917895Y-126886080D01*
X142965514Y-126933699D01*
X143013133Y-127028937D01*
X143013133Y-127171794D01*
X142965514Y-127267032D01*
X142917895Y-127314651D01*
X142822657Y-127362270D01*
X142441704Y-127362270D01*
X143965514Y-127838460D02*
X143394085Y-127838460D01*
X143679800Y-127838460D02*
X143679800Y-126838460D01*
X143584561Y-126981318D01*
X143489323Y-127076556D01*
X143394085Y-127124175D01*
X142962333Y-130561340D02*
X142629000Y-130085150D01*
X142390904Y-130561340D02*
X142390904Y-129561340D01*
X142771857Y-129561340D01*
X142867095Y-129608960D01*
X142914714Y-129656579D01*
X142962333Y-129751817D01*
X142962333Y-129894674D01*
X142914714Y-129989912D01*
X142867095Y-130037531D01*
X142771857Y-130085150D01*
X142390904Y-130085150D01*
X143343285Y-129656579D02*
X143390904Y-129608960D01*
X143486142Y-129561340D01*
X143724238Y-129561340D01*
X143819476Y-129608960D01*
X143867095Y-129656579D01*
X143914714Y-129751817D01*
X143914714Y-129847055D01*
X143867095Y-129989912D01*
X143295666Y-130561340D01*
X143914714Y-130561340D01*
X156843433Y-103347780D02*
X156510100Y-102871590D01*
X156272004Y-103347780D02*
X156272004Y-102347780D01*
X156652957Y-102347780D01*
X156748195Y-102395400D01*
X156795814Y-102443019D01*
X156843433Y-102538257D01*
X156843433Y-102681114D01*
X156795814Y-102776352D01*
X156748195Y-102823971D01*
X156652957Y-102871590D01*
X156272004Y-102871590D01*
X157176766Y-102347780D02*
X157795814Y-102347780D01*
X157462480Y-102728733D01*
X157605338Y-102728733D01*
X157700576Y-102776352D01*
X157748195Y-102823971D01*
X157795814Y-102919209D01*
X157795814Y-103157304D01*
X157748195Y-103252542D01*
X157700576Y-103300161D01*
X157605338Y-103347780D01*
X157319623Y-103347780D01*
X157224385Y-103300161D01*
X157176766Y-103252542D01*
X156843433Y-106017955D02*
X156510100Y-105541765D01*
X156272004Y-106017955D02*
X156272004Y-105017955D01*
X156652957Y-105017955D01*
X156748195Y-105065575D01*
X156795814Y-105113194D01*
X156843433Y-105208432D01*
X156843433Y-105351289D01*
X156795814Y-105446527D01*
X156748195Y-105494146D01*
X156652957Y-105541765D01*
X156272004Y-105541765D01*
X157700576Y-105351289D02*
X157700576Y-106017955D01*
X157462480Y-104970336D02*
X157224385Y-105684622D01*
X157843433Y-105684622D01*
X156843433Y-108580180D02*
X156510100Y-108103990D01*
X156272004Y-108580180D02*
X156272004Y-107580180D01*
X156652957Y-107580180D01*
X156748195Y-107627800D01*
X156795814Y-107675419D01*
X156843433Y-107770657D01*
X156843433Y-107913514D01*
X156795814Y-108008752D01*
X156748195Y-108056371D01*
X156652957Y-108103990D01*
X156272004Y-108103990D01*
X157748195Y-107580180D02*
X157272004Y-107580180D01*
X157224385Y-108056371D01*
X157272004Y-108008752D01*
X157367242Y-107961133D01*
X157605338Y-107961133D01*
X157700576Y-108008752D01*
X157748195Y-108056371D01*
X157795814Y-108151609D01*
X157795814Y-108389704D01*
X157748195Y-108484942D01*
X157700576Y-108532561D01*
X157605338Y-108580180D01*
X157367242Y-108580180D01*
X157272004Y-108532561D01*
X157224385Y-108484942D01*
X149474893Y-91493600D02*
X149141560Y-91017410D01*
X148903464Y-91493600D02*
X148903464Y-90493600D01*
X149284417Y-90493600D01*
X149379655Y-90541220D01*
X149427274Y-90588839D01*
X149474893Y-90684077D01*
X149474893Y-90826934D01*
X149427274Y-90922172D01*
X149379655Y-90969791D01*
X149284417Y-91017410D01*
X148903464Y-91017410D01*
X150332036Y-90493600D02*
X150141560Y-90493600D01*
X150046321Y-90541220D01*
X149998702Y-90588839D01*
X149903464Y-90731696D01*
X149855845Y-90922172D01*
X149855845Y-91303124D01*
X149903464Y-91398362D01*
X149951083Y-91445981D01*
X150046321Y-91493600D01*
X150236798Y-91493600D01*
X150332036Y-91445981D01*
X150379655Y-91398362D01*
X150427274Y-91303124D01*
X150427274Y-91065029D01*
X150379655Y-90969791D01*
X150332036Y-90922172D01*
X150236798Y-90874553D01*
X150046321Y-90874553D01*
X149951083Y-90922172D01*
X149903464Y-90969791D01*
X149855845Y-91065029D01*
X149479973Y-94061540D02*
X149146640Y-93585350D01*
X148908544Y-94061540D02*
X148908544Y-93061540D01*
X149289497Y-93061540D01*
X149384735Y-93109160D01*
X149432354Y-93156779D01*
X149479973Y-93252017D01*
X149479973Y-93394874D01*
X149432354Y-93490112D01*
X149384735Y-93537731D01*
X149289497Y-93585350D01*
X148908544Y-93585350D01*
X149813306Y-93061540D02*
X150479973Y-93061540D01*
X150051401Y-94061540D01*
X149479973Y-96690440D02*
X149146640Y-96214250D01*
X148908544Y-96690440D02*
X148908544Y-95690440D01*
X149289497Y-95690440D01*
X149384735Y-95738060D01*
X149432354Y-95785679D01*
X149479973Y-95880917D01*
X149479973Y-96023774D01*
X149432354Y-96119012D01*
X149384735Y-96166631D01*
X149289497Y-96214250D01*
X148908544Y-96214250D01*
X150051401Y-96119012D02*
X149956163Y-96071393D01*
X149908544Y-96023774D01*
X149860925Y-95928536D01*
X149860925Y-95880917D01*
X149908544Y-95785679D01*
X149956163Y-95738060D01*
X150051401Y-95690440D01*
X150241878Y-95690440D01*
X150337116Y-95738060D01*
X150384735Y-95785679D01*
X150432354Y-95880917D01*
X150432354Y-95928536D01*
X150384735Y-96023774D01*
X150337116Y-96071393D01*
X150241878Y-96119012D01*
X150051401Y-96119012D01*
X149956163Y-96166631D01*
X149908544Y-96214250D01*
X149860925Y-96309488D01*
X149860925Y-96499964D01*
X149908544Y-96595202D01*
X149956163Y-96642821D01*
X150051401Y-96690440D01*
X150241878Y-96690440D01*
X150337116Y-96642821D01*
X150384735Y-96595202D01*
X150432354Y-96499964D01*
X150432354Y-96309488D01*
X150384735Y-96214250D01*
X150337116Y-96166631D01*
X150241878Y-96119012D01*
X161230013Y-123972580D02*
X160896680Y-123496390D01*
X160658584Y-123972580D02*
X160658584Y-122972580D01*
X161039537Y-122972580D01*
X161134775Y-123020200D01*
X161182394Y-123067819D01*
X161230013Y-123163057D01*
X161230013Y-123305914D01*
X161182394Y-123401152D01*
X161134775Y-123448771D01*
X161039537Y-123496390D01*
X160658584Y-123496390D01*
X161706203Y-123972580D02*
X161896680Y-123972580D01*
X161991918Y-123924961D01*
X162039537Y-123877342D01*
X162134775Y-123734485D01*
X162182394Y-123544009D01*
X162182394Y-123163057D01*
X162134775Y-123067819D01*
X162087156Y-123020200D01*
X161991918Y-122972580D01*
X161801441Y-122972580D01*
X161706203Y-123020200D01*
X161658584Y-123067819D01*
X161610965Y-123163057D01*
X161610965Y-123401152D01*
X161658584Y-123496390D01*
X161706203Y-123544009D01*
X161801441Y-123591628D01*
X161991918Y-123591628D01*
X162087156Y-123544009D01*
X162134775Y-123496390D01*
X162182394Y-123401152D01*
X181261782Y-110835700D02*
X180928449Y-110359510D01*
X180690354Y-110835700D02*
X180690354Y-109835700D01*
X181071306Y-109835700D01*
X181166544Y-109883320D01*
X181214163Y-109930939D01*
X181261782Y-110026177D01*
X181261782Y-110169034D01*
X181214163Y-110264272D01*
X181166544Y-110311891D01*
X181071306Y-110359510D01*
X180690354Y-110359510D01*
X182214163Y-110835700D02*
X181642735Y-110835700D01*
X181928449Y-110835700D02*
X181928449Y-109835700D01*
X181833211Y-109978558D01*
X181737973Y-110073796D01*
X181642735Y-110121415D01*
X182833211Y-109835700D02*
X182928449Y-109835700D01*
X183023687Y-109883320D01*
X183071306Y-109930939D01*
X183118925Y-110026177D01*
X183166544Y-110216653D01*
X183166544Y-110454748D01*
X183118925Y-110645224D01*
X183071306Y-110740462D01*
X183023687Y-110788081D01*
X182928449Y-110835700D01*
X182833211Y-110835700D01*
X182737973Y-110788081D01*
X182690354Y-110740462D01*
X182642735Y-110645224D01*
X182595116Y-110454748D01*
X182595116Y-110216653D01*
X182642735Y-110026177D01*
X182690354Y-109930939D01*
X182737973Y-109883320D01*
X182833211Y-109835700D01*
X166011622Y-113162340D02*
X165678289Y-112686150D01*
X165440194Y-113162340D02*
X165440194Y-112162340D01*
X165821146Y-112162340D01*
X165916384Y-112209960D01*
X165964003Y-112257579D01*
X166011622Y-112352817D01*
X166011622Y-112495674D01*
X165964003Y-112590912D01*
X165916384Y-112638531D01*
X165821146Y-112686150D01*
X165440194Y-112686150D01*
X166964003Y-113162340D02*
X166392575Y-113162340D01*
X166678289Y-113162340D02*
X166678289Y-112162340D01*
X166583051Y-112305198D01*
X166487813Y-112400436D01*
X166392575Y-112448055D01*
X167916384Y-113162340D02*
X167344956Y-113162340D01*
X167630670Y-113162340D02*
X167630670Y-112162340D01*
X167535432Y-112305198D01*
X167440194Y-112400436D01*
X167344956Y-112448055D01*
X160753822Y-126614180D02*
X160420489Y-126137990D01*
X160182394Y-126614180D02*
X160182394Y-125614180D01*
X160563346Y-125614180D01*
X160658584Y-125661800D01*
X160706203Y-125709419D01*
X160753822Y-125804657D01*
X160753822Y-125947514D01*
X160706203Y-126042752D01*
X160658584Y-126090371D01*
X160563346Y-126137990D01*
X160182394Y-126137990D01*
X161706203Y-126614180D02*
X161134775Y-126614180D01*
X161420489Y-126614180D02*
X161420489Y-125614180D01*
X161325251Y-125757038D01*
X161230013Y-125852276D01*
X161134775Y-125899895D01*
X162087156Y-125709419D02*
X162134775Y-125661800D01*
X162230013Y-125614180D01*
X162468108Y-125614180D01*
X162563346Y-125661800D01*
X162610965Y-125709419D01*
X162658584Y-125804657D01*
X162658584Y-125899895D01*
X162610965Y-126042752D01*
X162039537Y-126614180D01*
X162658584Y-126614180D01*
X183949102Y-123449340D02*
X183615769Y-122973150D01*
X183377674Y-123449340D02*
X183377674Y-122449340D01*
X183758626Y-122449340D01*
X183853864Y-122496960D01*
X183901483Y-122544579D01*
X183949102Y-122639817D01*
X183949102Y-122782674D01*
X183901483Y-122877912D01*
X183853864Y-122925531D01*
X183758626Y-122973150D01*
X183377674Y-122973150D01*
X184901483Y-123449340D02*
X184330055Y-123449340D01*
X184615769Y-123449340D02*
X184615769Y-122449340D01*
X184520531Y-122592198D01*
X184425293Y-122687436D01*
X184330055Y-122735055D01*
X185234817Y-122449340D02*
X185853864Y-122449340D01*
X185520531Y-122830293D01*
X185663388Y-122830293D01*
X185758626Y-122877912D01*
X185806245Y-122925531D01*
X185853864Y-123020769D01*
X185853864Y-123258864D01*
X185806245Y-123354102D01*
X185758626Y-123401721D01*
X185663388Y-123449340D01*
X185377674Y-123449340D01*
X185282436Y-123401721D01*
X185234817Y-123354102D01*
M02*
