M48
;DRILL file {KiCad 4.1.0-alpha+201605121532+6803~44~ubuntu14.04.1-product} date Sat May 14 23:12:36 2016
;FORMAT={-:-/ absolute / inch / decimal}
FMAT,2
INCH,TZ
T1C0.030
T2C0.032
T3C0.032
T4C0.039
T5C0.039
T6C0.040
T7C0.087
T8C0.125
%
G90
G05
M72
T1
X5.429Y-5.1206
X5.4302Y-5.016
X5.7264Y-3.587
X5.7266Y-3.6881
X5.7266Y-3.7916
X5.829Y-5.1206
X5.8302Y-5.016
X6.0136Y-4.0467
X6.0136Y-4.1518
X6.0136Y-4.2527
X6.1264Y-3.587
X6.1266Y-3.6881
X6.1266Y-3.7916
X6.1522Y-4.865
X6.1522Y-4.969
X6.3571Y-4.4395
X6.4136Y-4.0467
X6.4136Y-4.1518
X6.4136Y-4.2527
X6.5522Y-4.865
X6.5522Y-4.969
X6.7571Y-4.4395
X6.9584Y-4.3458
X7.0624Y-4.8408
X7.3584Y-4.3458
X7.4624Y-4.8408
T2
X5.5964Y-3.578
X5.5964Y-3.6567
X5.5964Y-3.7355
X5.5964Y-3.8142
T3
X6.512Y-3.67
X6.512Y-3.77
X6.78Y-3.67
X6.78Y-3.77
X7.055Y-3.67
X7.055Y-3.77
T4
X5.7446Y-4.0943
X5.7446Y-4.1927
X5.7446Y-4.2911
X5.7466Y-4.5792
X5.7466Y-4.6776
X5.7466Y-4.776
T5
X5.0694Y-3.4858
X5.3686Y-3.4858
T6
X5.073Y-5.173
X5.073Y-5.351
X5.329Y-5.173
X5.329Y-5.351
X5.7384Y-3.4252
X5.8384Y-3.4252
X5.9384Y-3.4252
X6.0384Y-3.4252
X6.0984Y-5.3252
X6.1384Y-3.4252
X6.1984Y-5.3252
X6.2384Y-3.4252
X6.2886Y-4.55
X6.2886Y-4.728
X6.2984Y-5.3252
X6.3384Y-3.4252
X6.3984Y-5.3252
X6.4384Y-3.4252
X6.4984Y-5.3252
X6.5384Y-3.4252
X6.5446Y-4.55
X6.5446Y-4.728
X6.5984Y-5.3252
X6.6384Y-3.4252
X6.6438Y-4.2485
X6.6438Y-4.4265
X6.6438Y-4.55
X6.6438Y-4.728
X6.6438Y-4.8515
X6.6438Y-5.0295
X6.6984Y-5.3252
X6.7984Y-3.4252
X6.7984Y-5.3252
X6.8984Y-3.4252
X6.8998Y-4.2485
X6.8998Y-4.4265
X6.8998Y-4.55
X6.8998Y-4.728
X6.8998Y-4.8515
X6.8998Y-5.0295
X6.9728Y-4.0022
X6.9984Y-3.4252
X6.9984Y-5.3252
X6.9991Y-4.55
X6.9991Y-4.728
X7.0728Y-4.0022
X7.0984Y-3.4252
X7.0984Y-5.3252
X7.1728Y-4.0022
X7.1984Y-3.4252
X7.1984Y-5.3252
X7.2551Y-4.55
X7.2551Y-4.728
X7.2984Y-3.4252
X7.2984Y-5.3252
X7.3984Y-3.4252
X7.3984Y-5.3252
X7.4984Y-3.4252
X7.4984Y-4.2252
X7.4984Y-4.3252
X7.4984Y-4.4252
X7.4984Y-5.3252
X7.5984Y-4.2252
X7.5984Y-4.3252
X7.5984Y-4.4252
T7
X5.469Y-4.0234
X5.469Y-4.362
X5.471Y-4.5083
X5.471Y-4.8469
T8
X5.5484Y-5.3252
X5.5984Y-3.4252
X7.5984Y-4.0252
X7.5984Y-5.1252
T0
M30
