G04 #@! TF.FileFunction,Copper,L2,Bot,Signal*
%FSLAX46Y46*%
G04 Gerber Fmt 4.6, Leading zero omitted, Abs format (unit mm)*
G04 Created by KiCad (PCBNEW 4.1.0-alpha+201605121532+6803~44~ubuntu14.04.1-product) date Sat May 14 23:12:31 2016*
%MOMM*%
%LPD*%
G01*
G04 APERTURE LIST*
%ADD10C,0.100000*%
%ADD11O,1.524000X2.540000*%
%ADD12C,1.524000*%
%ADD13O,1.524000X1.524000*%
%ADD14C,3.200000*%
%ADD15C,1.800000*%
%ADD16C,1.300480*%
%ADD17R,1.300480X1.300480*%
%ADD18C,2.000000*%
%ADD19C,1.998980*%
%ADD20O,1.219200X1.219200*%
%ADD21C,0.609600*%
%ADD22C,0.508000*%
%ADD23C,0.254000*%
G04 APERTURE END LIST*
D10*
D11*
X190459360Y-135260080D03*
X187919360Y-135260080D03*
X185379360Y-135260080D03*
X177759360Y-135260080D03*
X180299360Y-135260080D03*
X182839360Y-135260080D03*
X172679360Y-135260080D03*
X170139360Y-135260080D03*
X167599360Y-135260080D03*
X162519360Y-135260080D03*
X159979360Y-135260080D03*
X190459360Y-87000080D03*
X187919360Y-87000080D03*
X185379360Y-87000080D03*
X182839360Y-87000080D03*
X180299360Y-87000080D03*
X177759360Y-87000080D03*
X175219360Y-87000080D03*
X172679360Y-87000080D03*
X168615360Y-87000080D03*
X166075360Y-87000080D03*
X163535360Y-87000080D03*
X160995360Y-87000080D03*
X158455360Y-87000080D03*
X155915360Y-87000080D03*
X153375360Y-87000080D03*
X150835360Y-87000080D03*
X165059360Y-135260080D03*
X148295360Y-87000080D03*
X145755360Y-87000080D03*
X157439360Y-135260080D03*
X154899360Y-135260080D03*
D12*
X190459360Y-107320080D03*
X192999360Y-107320080D03*
X190459360Y-109860080D03*
X192999360Y-109860080D03*
X190459360Y-112400080D03*
X192999360Y-112400080D03*
D13*
X168753790Y-123228100D03*
X175256190Y-123228100D03*
X168753790Y-127749300D03*
X175256190Y-127749300D03*
D14*
X138963400Y-123111040D03*
X138963400Y-114511040D03*
D15*
X145963400Y-118811040D03*
X145963400Y-121311040D03*
X145963400Y-116311040D03*
D16*
X142148414Y-96880774D03*
X142148414Y-90881294D03*
D17*
X142148414Y-92880274D03*
D16*
X142148414Y-94881794D03*
D13*
X177109120Y-101655880D03*
X179649120Y-101655880D03*
X182189120Y-101655880D03*
D14*
X138912600Y-110794800D03*
X138912600Y-102194800D03*
D15*
X145912600Y-106494800D03*
X145912600Y-108994800D03*
X145912600Y-103994800D03*
D13*
X128854200Y-131394200D03*
X135356600Y-131394200D03*
X128854200Y-135915400D03*
X135356600Y-135915400D03*
X168753790Y-115570000D03*
X175256190Y-115570000D03*
X168753790Y-120091200D03*
X175256190Y-120091200D03*
X175256190Y-112433100D03*
X168753790Y-112433100D03*
X175256190Y-107911900D03*
X168753790Y-107911900D03*
X159730440Y-115570000D03*
X166232840Y-115570000D03*
X159730440Y-120091200D03*
X166232840Y-120091200D03*
X177777140Y-115570000D03*
X184279540Y-115570000D03*
X177777140Y-120091200D03*
X184279540Y-120091200D03*
D18*
X128762760Y-88539320D03*
X136362440Y-88539320D03*
D19*
X137927080Y-127406400D03*
X148087080Y-127406400D03*
X148056600Y-130063240D03*
X137896600Y-130063240D03*
X162905440Y-102786180D03*
X152745440Y-102786180D03*
X162905440Y-105456355D03*
X152745440Y-105456355D03*
X162905440Y-108018580D03*
X152745440Y-108018580D03*
X145450560Y-91109800D03*
X155610560Y-91109800D03*
X145455640Y-93677740D03*
X155615640Y-93677740D03*
X145455640Y-96306640D03*
X155615640Y-96306640D03*
X166425880Y-123571000D03*
X156265880Y-123571000D03*
X176743360Y-110383320D03*
X186903360Y-110383320D03*
X161470340Y-112763300D03*
X171630340Y-112763300D03*
X166425880Y-126212600D03*
X156265880Y-126212600D03*
X179384960Y-122956320D03*
X189544960Y-122956320D03*
D20*
X165404800Y-93218000D03*
X165404800Y-95758000D03*
X172212000Y-93218000D03*
X172212000Y-95758000D03*
X179197000Y-93218000D03*
X179197000Y-95758000D03*
D21*
X175256190Y-120091200D02*
X168753790Y-120091200D01*
X177109120Y-101655880D02*
X168753790Y-110011210D01*
X168753790Y-110011210D02*
X168753790Y-112433100D01*
D22*
X159730440Y-115570000D02*
X153989400Y-121311040D01*
X153989400Y-121311040D02*
X145963400Y-121311040D01*
D23*
G36*
X140942060Y-85114838D02*
X140316315Y-85739491D01*
X139977247Y-86556058D01*
X139976475Y-87440223D01*
X140314118Y-88257380D01*
X140938771Y-88883125D01*
X141755338Y-89222193D01*
X142639503Y-89222965D01*
X143456660Y-88885322D01*
X144082405Y-88260669D01*
X144365178Y-87579676D01*
X144464700Y-88080010D01*
X144767532Y-88533229D01*
X145220751Y-88836061D01*
X145755360Y-88942401D01*
X146289969Y-88836061D01*
X146743188Y-88533229D01*
X147025360Y-88110930D01*
X147307532Y-88533229D01*
X147760751Y-88836061D01*
X148295360Y-88942401D01*
X148829969Y-88836061D01*
X149283188Y-88533229D01*
X149565360Y-88110930D01*
X149847532Y-88533229D01*
X150300751Y-88836061D01*
X150835360Y-88942401D01*
X151369969Y-88836061D01*
X151823188Y-88533229D01*
X152114690Y-88096967D01*
X152133301Y-88160021D01*
X152477334Y-88585710D01*
X152958083Y-88847340D01*
X153032290Y-88862300D01*
X153248360Y-88739800D01*
X153248360Y-87127080D01*
X153228360Y-87127080D01*
X153228360Y-86873080D01*
X153248360Y-86873080D01*
X153248360Y-85260360D01*
X153502360Y-85260360D01*
X153502360Y-86873080D01*
X153522360Y-86873080D01*
X153522360Y-87127080D01*
X153502360Y-87127080D01*
X153502360Y-88739800D01*
X153718430Y-88862300D01*
X153792637Y-88847340D01*
X154273386Y-88585710D01*
X154617419Y-88160021D01*
X154636030Y-88096967D01*
X154927532Y-88533229D01*
X155380751Y-88836061D01*
X155915360Y-88942401D01*
X156449969Y-88836061D01*
X156903188Y-88533229D01*
X157185360Y-88110930D01*
X157467532Y-88533229D01*
X157920751Y-88836061D01*
X158455360Y-88942401D01*
X158989969Y-88836061D01*
X159443188Y-88533229D01*
X159725360Y-88110930D01*
X160007532Y-88533229D01*
X160460751Y-88836061D01*
X160995360Y-88942401D01*
X161529969Y-88836061D01*
X161983188Y-88533229D01*
X162265360Y-88110930D01*
X162547532Y-88533229D01*
X163000751Y-88836061D01*
X163535360Y-88942401D01*
X164069969Y-88836061D01*
X164523188Y-88533229D01*
X164805360Y-88110930D01*
X165087532Y-88533229D01*
X165540751Y-88836061D01*
X166075360Y-88942401D01*
X166609969Y-88836061D01*
X167063188Y-88533229D01*
X167345360Y-88110930D01*
X167627532Y-88533229D01*
X168080751Y-88836061D01*
X168615360Y-88942401D01*
X169149969Y-88836061D01*
X169603188Y-88533229D01*
X169906020Y-88080010D01*
X170012360Y-87545401D01*
X170012360Y-86454759D01*
X171282360Y-86454759D01*
X171282360Y-87545401D01*
X171388700Y-88080010D01*
X171691532Y-88533229D01*
X172144751Y-88836061D01*
X172679360Y-88942401D01*
X173213969Y-88836061D01*
X173667188Y-88533229D01*
X173949360Y-88110930D01*
X174231532Y-88533229D01*
X174684751Y-88836061D01*
X175219360Y-88942401D01*
X175753969Y-88836061D01*
X176207188Y-88533229D01*
X176489360Y-88110930D01*
X176771532Y-88533229D01*
X177224751Y-88836061D01*
X177759360Y-88942401D01*
X178293969Y-88836061D01*
X178747188Y-88533229D01*
X179029360Y-88110930D01*
X179311532Y-88533229D01*
X179764751Y-88836061D01*
X180299360Y-88942401D01*
X180833969Y-88836061D01*
X181287188Y-88533229D01*
X181569360Y-88110930D01*
X181851532Y-88533229D01*
X182304751Y-88836061D01*
X182839360Y-88942401D01*
X183373969Y-88836061D01*
X183827188Y-88533229D01*
X184109360Y-88110930D01*
X184391532Y-88533229D01*
X184844751Y-88836061D01*
X185379360Y-88942401D01*
X185913969Y-88836061D01*
X186367188Y-88533229D01*
X186649360Y-88110930D01*
X186931532Y-88533229D01*
X187384751Y-88836061D01*
X187919360Y-88942401D01*
X188453969Y-88836061D01*
X188907188Y-88533229D01*
X189189360Y-88110930D01*
X189471532Y-88533229D01*
X189924751Y-88836061D01*
X190459360Y-88942401D01*
X190993969Y-88836061D01*
X191447188Y-88533229D01*
X191750020Y-88080010D01*
X191856360Y-87545401D01*
X191856360Y-86454759D01*
X191750020Y-85920150D01*
X191447188Y-85466931D01*
X190993969Y-85164099D01*
X190459360Y-85057759D01*
X189924751Y-85164099D01*
X189471532Y-85466931D01*
X189189360Y-85889230D01*
X188907188Y-85466931D01*
X188453969Y-85164099D01*
X187919360Y-85057759D01*
X187384751Y-85164099D01*
X186931532Y-85466931D01*
X186649360Y-85889230D01*
X186367188Y-85466931D01*
X185913969Y-85164099D01*
X185379360Y-85057759D01*
X184844751Y-85164099D01*
X184391532Y-85466931D01*
X184109360Y-85889230D01*
X183827188Y-85466931D01*
X183373969Y-85164099D01*
X182839360Y-85057759D01*
X182304751Y-85164099D01*
X181851532Y-85466931D01*
X181569360Y-85889230D01*
X181287188Y-85466931D01*
X180833969Y-85164099D01*
X180299360Y-85057759D01*
X179764751Y-85164099D01*
X179311532Y-85466931D01*
X179029360Y-85889230D01*
X178747188Y-85466931D01*
X178293969Y-85164099D01*
X177759360Y-85057759D01*
X177224751Y-85164099D01*
X176771532Y-85466931D01*
X176489360Y-85889230D01*
X176207188Y-85466931D01*
X175753969Y-85164099D01*
X175219360Y-85057759D01*
X174684751Y-85164099D01*
X174231532Y-85466931D01*
X173949360Y-85889230D01*
X173667188Y-85466931D01*
X173213969Y-85164099D01*
X172679360Y-85057759D01*
X172144751Y-85164099D01*
X171691532Y-85466931D01*
X171388700Y-85920150D01*
X171282360Y-86454759D01*
X170012360Y-86454759D01*
X169906020Y-85920150D01*
X169603188Y-85466931D01*
X169149969Y-85164099D01*
X168615360Y-85057759D01*
X168080751Y-85164099D01*
X167627532Y-85466931D01*
X167345360Y-85889230D01*
X167063188Y-85466931D01*
X166609969Y-85164099D01*
X166075360Y-85057759D01*
X165540751Y-85164099D01*
X165087532Y-85466931D01*
X164805360Y-85889230D01*
X164523188Y-85466931D01*
X164069969Y-85164099D01*
X163535360Y-85057759D01*
X163000751Y-85164099D01*
X162547532Y-85466931D01*
X162265360Y-85889230D01*
X161983188Y-85466931D01*
X161529969Y-85164099D01*
X160995360Y-85057759D01*
X160460751Y-85164099D01*
X160007532Y-85466931D01*
X159725360Y-85889230D01*
X159443188Y-85466931D01*
X158989969Y-85164099D01*
X158455360Y-85057759D01*
X157920751Y-85164099D01*
X157467532Y-85466931D01*
X157185360Y-85889230D01*
X156903188Y-85466931D01*
X156449969Y-85164099D01*
X155915360Y-85057759D01*
X155380751Y-85164099D01*
X154927532Y-85466931D01*
X154636030Y-85903193D01*
X154617419Y-85840139D01*
X154273386Y-85414450D01*
X153792637Y-85152820D01*
X153718430Y-85137860D01*
X153502360Y-85260360D01*
X153248360Y-85260360D01*
X153032290Y-85137860D01*
X152958083Y-85152820D01*
X152477334Y-85414450D01*
X152133301Y-85840139D01*
X152114690Y-85903193D01*
X151823188Y-85466931D01*
X151369969Y-85164099D01*
X150835360Y-85057759D01*
X150300751Y-85164099D01*
X149847532Y-85466931D01*
X149565360Y-85889230D01*
X149283188Y-85466931D01*
X148829969Y-85164099D01*
X148295360Y-85057759D01*
X147760751Y-85164099D01*
X147307532Y-85466931D01*
X147025360Y-85889230D01*
X146743188Y-85466931D01*
X146289969Y-85164099D01*
X145755360Y-85057759D01*
X145220751Y-85164099D01*
X144767532Y-85466931D01*
X144464700Y-85920150D01*
X144364998Y-86421388D01*
X144084602Y-85742780D01*
X143459949Y-85117035D01*
X143087065Y-84962200D01*
X191511664Y-84962200D01*
X192482000Y-85932536D01*
X192482000Y-97078800D01*
X192534143Y-97340938D01*
X192682632Y-97563168D01*
X194996600Y-99877136D01*
X194996600Y-101253835D01*
X194884602Y-100982780D01*
X194259949Y-100357035D01*
X193443382Y-100017967D01*
X192559217Y-100017195D01*
X191742060Y-100354838D01*
X191116315Y-100979491D01*
X190777247Y-101796058D01*
X190776475Y-102680223D01*
X191114118Y-103497380D01*
X191738771Y-104123125D01*
X192555338Y-104462193D01*
X193439503Y-104462965D01*
X194256660Y-104125322D01*
X194882405Y-103500669D01*
X194996600Y-103225657D01*
X194996600Y-129193835D01*
X194884602Y-128922780D01*
X194259949Y-128297035D01*
X193443382Y-127957967D01*
X192559217Y-127957195D01*
X191742060Y-128294838D01*
X191116315Y-128919491D01*
X190777247Y-129736058D01*
X190776475Y-130620223D01*
X191114118Y-131437380D01*
X191738771Y-132063125D01*
X192555338Y-132402193D01*
X193439503Y-132402965D01*
X194256660Y-132065322D01*
X194882405Y-131440669D01*
X194996600Y-131165657D01*
X194996600Y-132482064D01*
X192682632Y-134796032D01*
X192534143Y-135018262D01*
X192482000Y-135280400D01*
X192482000Y-137237000D01*
X141964783Y-137237000D01*
X142186660Y-137145322D01*
X142812405Y-136520669D01*
X143151473Y-135704102D01*
X143152245Y-134819937D01*
X143108787Y-134714759D01*
X153502360Y-134714759D01*
X153502360Y-135805401D01*
X153608700Y-136340010D01*
X153911532Y-136793229D01*
X154364751Y-137096061D01*
X154899360Y-137202401D01*
X155433969Y-137096061D01*
X155887188Y-136793229D01*
X156169360Y-136370930D01*
X156451532Y-136793229D01*
X156904751Y-137096061D01*
X157439360Y-137202401D01*
X157973969Y-137096061D01*
X158427188Y-136793229D01*
X158709360Y-136370930D01*
X158991532Y-136793229D01*
X159444751Y-137096061D01*
X159979360Y-137202401D01*
X160513969Y-137096061D01*
X160967188Y-136793229D01*
X161249360Y-136370930D01*
X161531532Y-136793229D01*
X161984751Y-137096061D01*
X162519360Y-137202401D01*
X163053969Y-137096061D01*
X163507188Y-136793229D01*
X163789360Y-136370930D01*
X164071532Y-136793229D01*
X164524751Y-137096061D01*
X165059360Y-137202401D01*
X165593969Y-137096061D01*
X166047188Y-136793229D01*
X166338690Y-136356967D01*
X166357301Y-136420021D01*
X166701334Y-136845710D01*
X167182083Y-137107340D01*
X167256290Y-137122300D01*
X167472360Y-136999800D01*
X167472360Y-135387080D01*
X167726360Y-135387080D01*
X167726360Y-136999800D01*
X167942430Y-137122300D01*
X168016637Y-137107340D01*
X168497386Y-136845710D01*
X168841419Y-136420021D01*
X168869360Y-136325357D01*
X168897301Y-136420021D01*
X169241334Y-136845710D01*
X169722083Y-137107340D01*
X169796290Y-137122300D01*
X170012360Y-136999800D01*
X170012360Y-135387080D01*
X167726360Y-135387080D01*
X167472360Y-135387080D01*
X167452360Y-135387080D01*
X167452360Y-135133080D01*
X167472360Y-135133080D01*
X167472360Y-133520360D01*
X167726360Y-133520360D01*
X167726360Y-135133080D01*
X170012360Y-135133080D01*
X170012360Y-133520360D01*
X170266360Y-133520360D01*
X170266360Y-135133080D01*
X170286360Y-135133080D01*
X170286360Y-135387080D01*
X170266360Y-135387080D01*
X170266360Y-136999800D01*
X170482430Y-137122300D01*
X170556637Y-137107340D01*
X171037386Y-136845710D01*
X171381419Y-136420021D01*
X171400030Y-136356967D01*
X171691532Y-136793229D01*
X172144751Y-137096061D01*
X172679360Y-137202401D01*
X173213969Y-137096061D01*
X173667188Y-136793229D01*
X173970020Y-136340010D01*
X174076360Y-135805401D01*
X174076360Y-134714759D01*
X176362360Y-134714759D01*
X176362360Y-135805401D01*
X176468700Y-136340010D01*
X176771532Y-136793229D01*
X177224751Y-137096061D01*
X177759360Y-137202401D01*
X178293969Y-137096061D01*
X178747188Y-136793229D01*
X179029360Y-136370930D01*
X179311532Y-136793229D01*
X179764751Y-137096061D01*
X180299360Y-137202401D01*
X180833969Y-137096061D01*
X181287188Y-136793229D01*
X181569360Y-136370930D01*
X181851532Y-136793229D01*
X182304751Y-137096061D01*
X182839360Y-137202401D01*
X183373969Y-137096061D01*
X183827188Y-136793229D01*
X184109360Y-136370930D01*
X184391532Y-136793229D01*
X184844751Y-137096061D01*
X185379360Y-137202401D01*
X185913969Y-137096061D01*
X186367188Y-136793229D01*
X186649360Y-136370930D01*
X186931532Y-136793229D01*
X187384751Y-137096061D01*
X187919360Y-137202401D01*
X188453969Y-137096061D01*
X188907188Y-136793229D01*
X189189360Y-136370930D01*
X189471532Y-136793229D01*
X189924751Y-137096061D01*
X190459360Y-137202401D01*
X190993969Y-137096061D01*
X191447188Y-136793229D01*
X191750020Y-136340010D01*
X191856360Y-135805401D01*
X191856360Y-134714759D01*
X191750020Y-134180150D01*
X191447188Y-133726931D01*
X190993969Y-133424099D01*
X190459360Y-133317759D01*
X189924751Y-133424099D01*
X189471532Y-133726931D01*
X189189360Y-134149230D01*
X188907188Y-133726931D01*
X188453969Y-133424099D01*
X187919360Y-133317759D01*
X187384751Y-133424099D01*
X186931532Y-133726931D01*
X186649360Y-134149230D01*
X186367188Y-133726931D01*
X185913969Y-133424099D01*
X185379360Y-133317759D01*
X184844751Y-133424099D01*
X184391532Y-133726931D01*
X184109360Y-134149230D01*
X183827188Y-133726931D01*
X183373969Y-133424099D01*
X182839360Y-133317759D01*
X182304751Y-133424099D01*
X181851532Y-133726931D01*
X181569360Y-134149230D01*
X181287188Y-133726931D01*
X180833969Y-133424099D01*
X180299360Y-133317759D01*
X179764751Y-133424099D01*
X179311532Y-133726931D01*
X179029360Y-134149230D01*
X178747188Y-133726931D01*
X178293969Y-133424099D01*
X177759360Y-133317759D01*
X177224751Y-133424099D01*
X176771532Y-133726931D01*
X176468700Y-134180150D01*
X176362360Y-134714759D01*
X174076360Y-134714759D01*
X173970020Y-134180150D01*
X173667188Y-133726931D01*
X173213969Y-133424099D01*
X172679360Y-133317759D01*
X172144751Y-133424099D01*
X171691532Y-133726931D01*
X171400030Y-134163193D01*
X171381419Y-134100139D01*
X171037386Y-133674450D01*
X170556637Y-133412820D01*
X170482430Y-133397860D01*
X170266360Y-133520360D01*
X170012360Y-133520360D01*
X169796290Y-133397860D01*
X169722083Y-133412820D01*
X169241334Y-133674450D01*
X168897301Y-134100139D01*
X168869360Y-134194803D01*
X168841419Y-134100139D01*
X168497386Y-133674450D01*
X168016637Y-133412820D01*
X167942430Y-133397860D01*
X167726360Y-133520360D01*
X167472360Y-133520360D01*
X167256290Y-133397860D01*
X167182083Y-133412820D01*
X166701334Y-133674450D01*
X166357301Y-134100139D01*
X166338690Y-134163193D01*
X166047188Y-133726931D01*
X165593969Y-133424099D01*
X165059360Y-133317759D01*
X164524751Y-133424099D01*
X164071532Y-133726931D01*
X163789360Y-134149230D01*
X163507188Y-133726931D01*
X163053969Y-133424099D01*
X162519360Y-133317759D01*
X161984751Y-133424099D01*
X161531532Y-133726931D01*
X161249360Y-134149230D01*
X160967188Y-133726931D01*
X160513969Y-133424099D01*
X159979360Y-133317759D01*
X159444751Y-133424099D01*
X158991532Y-133726931D01*
X158709360Y-134149230D01*
X158427188Y-133726931D01*
X157973969Y-133424099D01*
X157439360Y-133317759D01*
X156904751Y-133424099D01*
X156451532Y-133726931D01*
X156169360Y-134149230D01*
X155887188Y-133726931D01*
X155433969Y-133424099D01*
X154899360Y-133317759D01*
X154364751Y-133424099D01*
X153911532Y-133726931D01*
X153608700Y-134180150D01*
X153502360Y-134714759D01*
X143108787Y-134714759D01*
X142814602Y-134002780D01*
X142189949Y-133377035D01*
X141373382Y-133037967D01*
X140489217Y-133037195D01*
X139672060Y-133374838D01*
X139046315Y-133999491D01*
X138707247Y-134816058D01*
X138706475Y-135700223D01*
X139044118Y-136517380D01*
X139668771Y-137143125D01*
X139894847Y-137237000D01*
X135763032Y-137237000D01*
X135918578Y-137206060D01*
X136371797Y-136903228D01*
X136674629Y-136450009D01*
X136780969Y-135915400D01*
X136674629Y-135380791D01*
X136371797Y-134927572D01*
X135918578Y-134624740D01*
X135383969Y-134518400D01*
X135329231Y-134518400D01*
X134794622Y-134624740D01*
X134341403Y-134927572D01*
X134038571Y-135380791D01*
X133932231Y-135915400D01*
X134038571Y-136450009D01*
X134341403Y-136903228D01*
X134794622Y-137206060D01*
X134950168Y-137237000D01*
X129260632Y-137237000D01*
X129416178Y-137206060D01*
X129869397Y-136903228D01*
X130172229Y-136450009D01*
X130278569Y-135915400D01*
X130172229Y-135380791D01*
X129869397Y-134927572D01*
X129416178Y-134624740D01*
X128881569Y-134518400D01*
X128826831Y-134518400D01*
X128292222Y-134624740D01*
X127839003Y-134927572D01*
X127536171Y-135380791D01*
X127507200Y-135526439D01*
X127507200Y-131754702D01*
X127654026Y-132109197D01*
X128019001Y-132514058D01*
X128511128Y-132748431D01*
X128727200Y-132626676D01*
X128727200Y-131521200D01*
X128981200Y-131521200D01*
X128981200Y-132626676D01*
X129197272Y-132748431D01*
X129689399Y-132514058D01*
X130054374Y-132109197D01*
X130208420Y-131737270D01*
X134002380Y-131737270D01*
X134156426Y-132109197D01*
X134521401Y-132514058D01*
X135013528Y-132748431D01*
X135229600Y-132626676D01*
X135229600Y-131521200D01*
X135483600Y-131521200D01*
X135483600Y-132626676D01*
X135699672Y-132748431D01*
X136191799Y-132514058D01*
X136556774Y-132109197D01*
X136710820Y-131737270D01*
X136588320Y-131521200D01*
X135483600Y-131521200D01*
X135229600Y-131521200D01*
X134124880Y-131521200D01*
X134002380Y-131737270D01*
X130208420Y-131737270D01*
X130085920Y-131521200D01*
X128981200Y-131521200D01*
X128727200Y-131521200D01*
X128707200Y-131521200D01*
X128707200Y-131267200D01*
X128727200Y-131267200D01*
X128727200Y-130161724D01*
X128981200Y-130161724D01*
X128981200Y-131267200D01*
X130085920Y-131267200D01*
X130208420Y-131051130D01*
X134002380Y-131051130D01*
X134124880Y-131267200D01*
X135229600Y-131267200D01*
X135229600Y-130161724D01*
X135483600Y-130161724D01*
X135483600Y-131267200D01*
X136588320Y-131267200D01*
X136617686Y-131215403D01*
X136924043Y-131215403D01*
X137022642Y-131482205D01*
X137632182Y-131708641D01*
X138281977Y-131684581D01*
X138770558Y-131482205D01*
X138869157Y-131215403D01*
X137896600Y-130242845D01*
X136924043Y-131215403D01*
X136617686Y-131215403D01*
X136710820Y-131051130D01*
X136697246Y-131018357D01*
X136744437Y-131035797D01*
X137716995Y-130063240D01*
X138076205Y-130063240D01*
X139048763Y-131035797D01*
X139315565Y-130937198D01*
X139519980Y-130386934D01*
X146421826Y-130386934D01*
X146670138Y-130987895D01*
X147129527Y-131448086D01*
X147730053Y-131697446D01*
X148380294Y-131698014D01*
X148981255Y-131449702D01*
X149441446Y-130990313D01*
X149690806Y-130389787D01*
X149691374Y-129739546D01*
X149443062Y-129138585D01*
X149054913Y-128749759D01*
X149471926Y-128333473D01*
X149721286Y-127732947D01*
X149721607Y-127364763D01*
X155293323Y-127364763D01*
X155391922Y-127631565D01*
X156001462Y-127858001D01*
X156651257Y-127833941D01*
X157139838Y-127631565D01*
X157238437Y-127364763D01*
X156265880Y-126392205D01*
X155293323Y-127364763D01*
X149721607Y-127364763D01*
X149721854Y-127082706D01*
X149473542Y-126481745D01*
X149014153Y-126021554D01*
X148837454Y-125948182D01*
X154620479Y-125948182D01*
X154644539Y-126597977D01*
X154846915Y-127086558D01*
X155113717Y-127185157D01*
X156086275Y-126212600D01*
X156445485Y-126212600D01*
X157418043Y-127185157D01*
X157684845Y-127086558D01*
X157911281Y-126477018D01*
X157887221Y-125827223D01*
X157684845Y-125338642D01*
X157418043Y-125240043D01*
X156445485Y-126212600D01*
X156086275Y-126212600D01*
X155113717Y-125240043D01*
X154846915Y-125338642D01*
X154620479Y-125948182D01*
X148837454Y-125948182D01*
X148413627Y-125772194D01*
X147763386Y-125771626D01*
X147162425Y-126019938D01*
X146702234Y-126479327D01*
X146452874Y-127079853D01*
X146452306Y-127730094D01*
X146700618Y-128331055D01*
X147088767Y-128719881D01*
X146671754Y-129136167D01*
X146422394Y-129736693D01*
X146421826Y-130386934D01*
X139519980Y-130386934D01*
X139542001Y-130327658D01*
X139517941Y-129677863D01*
X139315565Y-129189282D01*
X139048763Y-129090683D01*
X138076205Y-130063240D01*
X137716995Y-130063240D01*
X136744437Y-129090683D01*
X136477635Y-129189282D01*
X136251199Y-129798822D01*
X136272105Y-130363424D01*
X136191799Y-130274342D01*
X135699672Y-130039969D01*
X135483600Y-130161724D01*
X135229600Y-130161724D01*
X135013528Y-130039969D01*
X134521401Y-130274342D01*
X134156426Y-130679203D01*
X134002380Y-131051130D01*
X130208420Y-131051130D01*
X130054374Y-130679203D01*
X129689399Y-130274342D01*
X129197272Y-130039969D01*
X128981200Y-130161724D01*
X128727200Y-130161724D01*
X128511128Y-130039969D01*
X128019001Y-130274342D01*
X127654026Y-130679203D01*
X127507200Y-131033698D01*
X127507200Y-127730094D01*
X136292306Y-127730094D01*
X136540618Y-128331055D01*
X136976887Y-128768085D01*
X136924043Y-128911077D01*
X137896600Y-129883635D01*
X138869157Y-128911077D01*
X138828949Y-128802277D01*
X138851735Y-128792862D01*
X139311926Y-128333473D01*
X139561286Y-127732947D01*
X139561854Y-127082706D01*
X139313542Y-126481745D01*
X138854153Y-126021554D01*
X138253627Y-125772194D01*
X137603386Y-125771626D01*
X137002425Y-126019938D01*
X136542234Y-126479327D01*
X136292874Y-127079853D01*
X136292306Y-127730094D01*
X127507200Y-127730094D01*
X127507200Y-123553659D01*
X136728013Y-123553659D01*
X137067555Y-124375412D01*
X137695721Y-125004676D01*
X138516881Y-125345651D01*
X139406019Y-125346427D01*
X140227772Y-125006885D01*
X140511989Y-124723163D01*
X155293323Y-124723163D01*
X155355644Y-124891800D01*
X155293323Y-125060437D01*
X156265880Y-126032995D01*
X157238437Y-125060437D01*
X157176116Y-124891800D01*
X157238437Y-124723163D01*
X156265880Y-123750605D01*
X155293323Y-124723163D01*
X140511989Y-124723163D01*
X140857036Y-124378719D01*
X141198011Y-123557559D01*
X141198230Y-123306582D01*
X154620479Y-123306582D01*
X154644539Y-123956377D01*
X154846915Y-124444958D01*
X155113717Y-124543557D01*
X156086275Y-123571000D01*
X156445485Y-123571000D01*
X157418043Y-124543557D01*
X157684845Y-124444958D01*
X157889260Y-123894694D01*
X164791106Y-123894694D01*
X165039418Y-124495655D01*
X165435160Y-124892088D01*
X165041034Y-125285527D01*
X164791674Y-125886053D01*
X164791106Y-126536294D01*
X165039418Y-127137255D01*
X165498807Y-127597446D01*
X166099333Y-127846806D01*
X166749574Y-127847374D01*
X167350535Y-127599062D01*
X167361478Y-127588138D01*
X167329421Y-127749300D01*
X167435761Y-128283909D01*
X167738593Y-128737128D01*
X168191812Y-129039960D01*
X168726421Y-129146300D01*
X168781159Y-129146300D01*
X169315768Y-129039960D01*
X169768987Y-128737128D01*
X170071819Y-128283909D01*
X170178159Y-127749300D01*
X173831821Y-127749300D01*
X173938161Y-128283909D01*
X174240993Y-128737128D01*
X174694212Y-129039960D01*
X175228821Y-129146300D01*
X175283559Y-129146300D01*
X175818168Y-129039960D01*
X176271387Y-128737128D01*
X176574219Y-128283909D01*
X176680559Y-127749300D01*
X176574219Y-127214691D01*
X176271387Y-126761472D01*
X175818168Y-126458640D01*
X175283559Y-126352300D01*
X175228821Y-126352300D01*
X174694212Y-126458640D01*
X174240993Y-126761472D01*
X173938161Y-127214691D01*
X173831821Y-127749300D01*
X170178159Y-127749300D01*
X170071819Y-127214691D01*
X169768987Y-126761472D01*
X169315768Y-126458640D01*
X168781159Y-126352300D01*
X168726421Y-126352300D01*
X168191812Y-126458640D01*
X168055770Y-126549540D01*
X168060086Y-126539147D01*
X168060654Y-125888906D01*
X167812342Y-125287945D01*
X167416600Y-124891512D01*
X167810726Y-124498073D01*
X167886771Y-124314937D01*
X168191812Y-124518760D01*
X168726421Y-124625100D01*
X168781159Y-124625100D01*
X169315768Y-124518760D01*
X169768987Y-124215928D01*
X170071819Y-123762709D01*
X170178159Y-123228100D01*
X173831821Y-123228100D01*
X173938161Y-123762709D01*
X174240993Y-124215928D01*
X174694212Y-124518760D01*
X175228821Y-124625100D01*
X175283559Y-124625100D01*
X175818168Y-124518760D01*
X176271387Y-124215928D01*
X176574219Y-123762709D01*
X176670232Y-123280014D01*
X177750186Y-123280014D01*
X177998498Y-123880975D01*
X178457887Y-124341166D01*
X179058413Y-124590526D01*
X179708654Y-124591094D01*
X180309615Y-124342782D01*
X180544323Y-124108483D01*
X188572403Y-124108483D01*
X188671002Y-124375285D01*
X189280542Y-124601721D01*
X189930337Y-124577661D01*
X190418918Y-124375285D01*
X190517517Y-124108483D01*
X189544960Y-123135925D01*
X188572403Y-124108483D01*
X180544323Y-124108483D01*
X180769806Y-123883393D01*
X181019166Y-123282867D01*
X181019682Y-122691902D01*
X187899559Y-122691902D01*
X187923619Y-123341697D01*
X188125995Y-123830278D01*
X188392797Y-123928877D01*
X189365355Y-122956320D01*
X189724565Y-122956320D01*
X190697123Y-123928877D01*
X190963925Y-123830278D01*
X191190361Y-123220738D01*
X191166301Y-122570943D01*
X190963925Y-122082362D01*
X190697123Y-121983763D01*
X189724565Y-122956320D01*
X189365355Y-122956320D01*
X188392797Y-121983763D01*
X188125995Y-122082362D01*
X187899559Y-122691902D01*
X181019682Y-122691902D01*
X181019734Y-122632626D01*
X180771422Y-122031665D01*
X180544311Y-121804157D01*
X188572403Y-121804157D01*
X189544960Y-122776715D01*
X190517517Y-121804157D01*
X190418918Y-121537355D01*
X189809378Y-121310919D01*
X189159583Y-121334979D01*
X188671002Y-121537355D01*
X188572403Y-121804157D01*
X180544311Y-121804157D01*
X180312033Y-121571474D01*
X179711507Y-121322114D01*
X179061266Y-121321546D01*
X178460305Y-121569858D01*
X178000114Y-122029247D01*
X177750754Y-122629773D01*
X177750186Y-123280014D01*
X176670232Y-123280014D01*
X176680559Y-123228100D01*
X176574219Y-122693491D01*
X176271387Y-122240272D01*
X175818168Y-121937440D01*
X175283559Y-121831100D01*
X175228821Y-121831100D01*
X174694212Y-121937440D01*
X174240993Y-122240272D01*
X173938161Y-122693491D01*
X173831821Y-123228100D01*
X170178159Y-123228100D01*
X170071819Y-122693491D01*
X169768987Y-122240272D01*
X169315768Y-121937440D01*
X168781159Y-121831100D01*
X168726421Y-121831100D01*
X168191812Y-121937440D01*
X167738593Y-122240272D01*
X167605627Y-122439269D01*
X167352953Y-122186154D01*
X166752427Y-121936794D01*
X166102186Y-121936226D01*
X165501225Y-122184538D01*
X165041034Y-122643927D01*
X164791674Y-123244453D01*
X164791106Y-123894694D01*
X157889260Y-123894694D01*
X157911281Y-123835418D01*
X157887221Y-123185623D01*
X157684845Y-122697042D01*
X157418043Y-122598443D01*
X156445485Y-123571000D01*
X156086275Y-123571000D01*
X155113717Y-122598443D01*
X154846915Y-122697042D01*
X154620479Y-123306582D01*
X141198230Y-123306582D01*
X141198787Y-122668421D01*
X140859245Y-121846668D01*
X140231079Y-121217404D01*
X139409919Y-120876429D01*
X138520781Y-120875653D01*
X137699028Y-121215195D01*
X137069764Y-121843361D01*
X136728789Y-122664521D01*
X136728013Y-123553659D01*
X127507200Y-123553659D01*
X127507200Y-119115031D01*
X144428135Y-119115031D01*
X144661332Y-119679411D01*
X145042582Y-120061328D01*
X144662849Y-120440397D01*
X144428667Y-121004370D01*
X144428135Y-121615031D01*
X144661332Y-122179411D01*
X145092757Y-122611591D01*
X145656730Y-122845773D01*
X146267391Y-122846305D01*
X146831771Y-122613108D01*
X147026382Y-122418837D01*
X155293323Y-122418837D01*
X156265880Y-123391395D01*
X157238437Y-122418837D01*
X157139838Y-122152035D01*
X156530298Y-121925599D01*
X155880503Y-121949659D01*
X155391922Y-122152035D01*
X155293323Y-122418837D01*
X147026382Y-122418837D01*
X147245562Y-122200040D01*
X153989400Y-122200040D01*
X154329606Y-122132369D01*
X154618018Y-121939658D01*
X156466476Y-120091200D01*
X158306071Y-120091200D01*
X158412411Y-120625809D01*
X158715243Y-121079028D01*
X159168462Y-121381860D01*
X159703071Y-121488200D01*
X159757809Y-121488200D01*
X160292418Y-121381860D01*
X160745637Y-121079028D01*
X161048469Y-120625809D01*
X161154809Y-120091200D01*
X164808471Y-120091200D01*
X164914811Y-120625809D01*
X165217643Y-121079028D01*
X165670862Y-121381860D01*
X166205471Y-121488200D01*
X166260209Y-121488200D01*
X166794818Y-121381860D01*
X167248037Y-121079028D01*
X167493315Y-120711944D01*
X167738593Y-121079028D01*
X168191812Y-121381860D01*
X168726421Y-121488200D01*
X168781159Y-121488200D01*
X169315768Y-121381860D01*
X169768987Y-121079028D01*
X169801078Y-121031000D01*
X174208902Y-121031000D01*
X174240993Y-121079028D01*
X174694212Y-121381860D01*
X175228821Y-121488200D01*
X175283559Y-121488200D01*
X175818168Y-121381860D01*
X176271387Y-121079028D01*
X176516665Y-120711944D01*
X176761943Y-121079028D01*
X177215162Y-121381860D01*
X177749771Y-121488200D01*
X177804509Y-121488200D01*
X178339118Y-121381860D01*
X178792337Y-121079028D01*
X179095169Y-120625809D01*
X179201509Y-120091200D01*
X182855171Y-120091200D01*
X182961511Y-120625809D01*
X183264343Y-121079028D01*
X183717562Y-121381860D01*
X184252171Y-121488200D01*
X184306909Y-121488200D01*
X184841518Y-121381860D01*
X185294737Y-121079028D01*
X185597569Y-120625809D01*
X185703909Y-120091200D01*
X185597569Y-119556591D01*
X185294737Y-119103372D01*
X184841518Y-118800540D01*
X184306909Y-118694200D01*
X184252171Y-118694200D01*
X183717562Y-118800540D01*
X183264343Y-119103372D01*
X182961511Y-119556591D01*
X182855171Y-120091200D01*
X179201509Y-120091200D01*
X179095169Y-119556591D01*
X178792337Y-119103372D01*
X178339118Y-118800540D01*
X177804509Y-118694200D01*
X177749771Y-118694200D01*
X177215162Y-118800540D01*
X176761943Y-119103372D01*
X176516665Y-119470456D01*
X176271387Y-119103372D01*
X175818168Y-118800540D01*
X175283559Y-118694200D01*
X175228821Y-118694200D01*
X174694212Y-118800540D01*
X174240993Y-119103372D01*
X174208902Y-119151400D01*
X169801078Y-119151400D01*
X169768987Y-119103372D01*
X169315768Y-118800540D01*
X168781159Y-118694200D01*
X168726421Y-118694200D01*
X168191812Y-118800540D01*
X167738593Y-119103372D01*
X167493315Y-119470456D01*
X167248037Y-119103372D01*
X166794818Y-118800540D01*
X166260209Y-118694200D01*
X166205471Y-118694200D01*
X165670862Y-118800540D01*
X165217643Y-119103372D01*
X164914811Y-119556591D01*
X164808471Y-120091200D01*
X161154809Y-120091200D01*
X161048469Y-119556591D01*
X160745637Y-119103372D01*
X160292418Y-118800540D01*
X159757809Y-118694200D01*
X159703071Y-118694200D01*
X159168462Y-118800540D01*
X158715243Y-119103372D01*
X158412411Y-119556591D01*
X158306071Y-120091200D01*
X156466476Y-120091200D01*
X159609323Y-116948353D01*
X159703071Y-116967000D01*
X159757809Y-116967000D01*
X160292418Y-116860660D01*
X160745637Y-116557828D01*
X161048469Y-116104609D01*
X161154809Y-115570000D01*
X164808471Y-115570000D01*
X164914811Y-116104609D01*
X165217643Y-116557828D01*
X165670862Y-116860660D01*
X166205471Y-116967000D01*
X166260209Y-116967000D01*
X166794818Y-116860660D01*
X167248037Y-116557828D01*
X167493315Y-116190744D01*
X167738593Y-116557828D01*
X168191812Y-116860660D01*
X168726421Y-116967000D01*
X168781159Y-116967000D01*
X169315768Y-116860660D01*
X169768987Y-116557828D01*
X170071819Y-116104609D01*
X170178159Y-115570000D01*
X173831821Y-115570000D01*
X173938161Y-116104609D01*
X174240993Y-116557828D01*
X174694212Y-116860660D01*
X175228821Y-116967000D01*
X175283559Y-116967000D01*
X175818168Y-116860660D01*
X176271387Y-116557828D01*
X176516665Y-116190744D01*
X176761943Y-116557828D01*
X177215162Y-116860660D01*
X177749771Y-116967000D01*
X177804509Y-116967000D01*
X178339118Y-116860660D01*
X178792337Y-116557828D01*
X179095169Y-116104609D01*
X179201509Y-115570000D01*
X182855171Y-115570000D01*
X182961511Y-116104609D01*
X183264343Y-116557828D01*
X183717562Y-116860660D01*
X184252171Y-116967000D01*
X184306909Y-116967000D01*
X184841518Y-116860660D01*
X185294737Y-116557828D01*
X185597569Y-116104609D01*
X185703909Y-115570000D01*
X185597569Y-115035391D01*
X185294737Y-114582172D01*
X184841518Y-114279340D01*
X184306909Y-114173000D01*
X184252171Y-114173000D01*
X183717562Y-114279340D01*
X183264343Y-114582172D01*
X182961511Y-115035391D01*
X182855171Y-115570000D01*
X179201509Y-115570000D01*
X179095169Y-115035391D01*
X178792337Y-114582172D01*
X178339118Y-114279340D01*
X177804509Y-114173000D01*
X177749771Y-114173000D01*
X177215162Y-114279340D01*
X176761943Y-114582172D01*
X176516665Y-114949256D01*
X176271387Y-114582172D01*
X175818168Y-114279340D01*
X175283559Y-114173000D01*
X175228821Y-114173000D01*
X174694212Y-114279340D01*
X174240993Y-114582172D01*
X173938161Y-115035391D01*
X173831821Y-115570000D01*
X170178159Y-115570000D01*
X170071819Y-115035391D01*
X169768987Y-114582172D01*
X169315768Y-114279340D01*
X168781159Y-114173000D01*
X168726421Y-114173000D01*
X168191812Y-114279340D01*
X167738593Y-114582172D01*
X167493315Y-114949256D01*
X167248037Y-114582172D01*
X166794818Y-114279340D01*
X166260209Y-114173000D01*
X166205471Y-114173000D01*
X165670862Y-114279340D01*
X165217643Y-114582172D01*
X164914811Y-115035391D01*
X164808471Y-115570000D01*
X161154809Y-115570000D01*
X161048469Y-115035391D01*
X160745637Y-114582172D01*
X160292418Y-114279340D01*
X159757809Y-114173000D01*
X159703071Y-114173000D01*
X159168462Y-114279340D01*
X158715243Y-114582172D01*
X158412411Y-115035391D01*
X158306071Y-115570000D01*
X158333800Y-115709404D01*
X153621164Y-120422040D01*
X147244875Y-120422040D01*
X146884218Y-120060752D01*
X147263951Y-119681683D01*
X147498133Y-119117710D01*
X147498665Y-118507049D01*
X147265468Y-117942669D01*
X146834043Y-117510489D01*
X146825028Y-117506746D01*
X146863954Y-117391199D01*
X145963400Y-116490645D01*
X145062846Y-117391199D01*
X145101607Y-117506254D01*
X145095029Y-117508972D01*
X144662849Y-117940397D01*
X144428667Y-118504370D01*
X144428135Y-119115031D01*
X127507200Y-119115031D01*
X127507200Y-111237419D01*
X136677213Y-111237419D01*
X137016755Y-112059172D01*
X137635307Y-112678805D01*
X137069764Y-113243361D01*
X136728789Y-114064521D01*
X136728013Y-114953659D01*
X137067555Y-115775412D01*
X137695721Y-116404676D01*
X138516881Y-116745651D01*
X139406019Y-116746427D01*
X140227772Y-116406885D01*
X140564869Y-116070376D01*
X144416942Y-116070376D01*
X144442561Y-116680500D01*
X144626757Y-117125188D01*
X144883241Y-117211594D01*
X145783795Y-116311040D01*
X146143005Y-116311040D01*
X147043559Y-117211594D01*
X147300043Y-117125188D01*
X147509858Y-116551704D01*
X147484239Y-115941580D01*
X147300043Y-115496892D01*
X147043559Y-115410486D01*
X146143005Y-116311040D01*
X145783795Y-116311040D01*
X144883241Y-115410486D01*
X144626757Y-115496892D01*
X144416942Y-116070376D01*
X140564869Y-116070376D01*
X140857036Y-115778719D01*
X141084517Y-115230881D01*
X145062846Y-115230881D01*
X145963400Y-116131435D01*
X146863954Y-115230881D01*
X146777548Y-114974397D01*
X146204064Y-114764582D01*
X145593940Y-114790201D01*
X145149252Y-114974397D01*
X145062846Y-115230881D01*
X141084517Y-115230881D01*
X141198011Y-114957559D01*
X141198787Y-114068421D01*
X140859245Y-113246668D01*
X140699850Y-113086994D01*
X159835566Y-113086994D01*
X160083878Y-113687955D01*
X160543267Y-114148146D01*
X161143793Y-114397506D01*
X161794034Y-114398074D01*
X162394995Y-114149762D01*
X162629703Y-113915463D01*
X170657783Y-113915463D01*
X170756382Y-114182265D01*
X171365922Y-114408701D01*
X172015717Y-114384641D01*
X172504298Y-114182265D01*
X172602897Y-113915463D01*
X171630340Y-112942905D01*
X170657783Y-113915463D01*
X162629703Y-113915463D01*
X162855186Y-113690373D01*
X163104546Y-113089847D01*
X163105114Y-112439606D01*
X162856802Y-111838645D01*
X162397413Y-111378454D01*
X161796887Y-111129094D01*
X161146646Y-111128526D01*
X160545685Y-111376838D01*
X160085494Y-111836227D01*
X159836134Y-112436753D01*
X159835566Y-113086994D01*
X140699850Y-113086994D01*
X140240693Y-112627035D01*
X140806236Y-112062479D01*
X141147211Y-111241319D01*
X141147987Y-110352181D01*
X140808445Y-109530428D01*
X140180279Y-108901164D01*
X139359119Y-108560189D01*
X138469981Y-108559413D01*
X137648228Y-108898955D01*
X137018964Y-109527121D01*
X136677989Y-110348281D01*
X136677213Y-111237419D01*
X127507200Y-111237419D01*
X127507200Y-106798791D01*
X144377335Y-106798791D01*
X144610532Y-107363171D01*
X144991782Y-107745088D01*
X144612049Y-108124157D01*
X144377867Y-108688130D01*
X144377335Y-109298791D01*
X144610532Y-109863171D01*
X145041957Y-110295351D01*
X145605930Y-110529533D01*
X146216591Y-110530065D01*
X146780971Y-110296868D01*
X147213151Y-109865443D01*
X147447333Y-109301470D01*
X147447446Y-109170743D01*
X151772883Y-109170743D01*
X151871482Y-109437545D01*
X152481022Y-109663981D01*
X153130817Y-109639921D01*
X153619398Y-109437545D01*
X153717997Y-109170743D01*
X152745440Y-108198185D01*
X151772883Y-109170743D01*
X147447446Y-109170743D01*
X147447865Y-108690809D01*
X147214668Y-108126429D01*
X146843052Y-107754162D01*
X151100039Y-107754162D01*
X151124099Y-108403957D01*
X151326475Y-108892538D01*
X151593277Y-108991137D01*
X152565835Y-108018580D01*
X152925045Y-108018580D01*
X153897603Y-108991137D01*
X154164405Y-108892538D01*
X154390841Y-108282998D01*
X154366781Y-107633203D01*
X154164405Y-107144622D01*
X153897603Y-107046023D01*
X152925045Y-108018580D01*
X152565835Y-108018580D01*
X151593277Y-107046023D01*
X151326475Y-107144622D01*
X151100039Y-107754162D01*
X146843052Y-107754162D01*
X146833418Y-107744512D01*
X147213151Y-107365443D01*
X147447333Y-106801470D01*
X147447501Y-106608518D01*
X151772883Y-106608518D01*
X151820537Y-106737468D01*
X151772883Y-106866417D01*
X152745440Y-107838975D01*
X153717997Y-106866417D01*
X153670343Y-106737468D01*
X153717997Y-106608518D01*
X152745440Y-105635960D01*
X151772883Y-106608518D01*
X147447501Y-106608518D01*
X147447865Y-106190809D01*
X147214668Y-105626429D01*
X146783243Y-105194249D01*
X146777675Y-105191937D01*
X151100039Y-105191937D01*
X151124099Y-105841732D01*
X151326475Y-106330313D01*
X151593277Y-106428912D01*
X152565835Y-105456355D01*
X152925045Y-105456355D01*
X153897603Y-106428912D01*
X154164405Y-106330313D01*
X154390841Y-105720773D01*
X154366781Y-105070978D01*
X154164405Y-104582397D01*
X153897603Y-104483798D01*
X152925045Y-105456355D01*
X152565835Y-105456355D01*
X151593277Y-104483798D01*
X151326475Y-104582397D01*
X151100039Y-105191937D01*
X146777675Y-105191937D01*
X146774228Y-105190506D01*
X146813154Y-105074959D01*
X145912600Y-104174405D01*
X145012046Y-105074959D01*
X145050807Y-105190014D01*
X145044229Y-105192732D01*
X144612049Y-105624157D01*
X144377867Y-106188130D01*
X144377335Y-106798791D01*
X127507200Y-106798791D01*
X127507200Y-102637419D01*
X136677213Y-102637419D01*
X137016755Y-103459172D01*
X137644921Y-104088436D01*
X138466081Y-104429411D01*
X139355219Y-104430187D01*
X140176972Y-104090645D01*
X140514069Y-103754136D01*
X144366142Y-103754136D01*
X144391761Y-104364260D01*
X144575957Y-104808948D01*
X144832441Y-104895354D01*
X145732995Y-103994800D01*
X146092205Y-103994800D01*
X146992759Y-104895354D01*
X147249243Y-104808948D01*
X147459058Y-104235464D01*
X147446582Y-103938343D01*
X151772883Y-103938343D01*
X151840484Y-104121267D01*
X151772883Y-104304192D01*
X152745440Y-105276750D01*
X153717997Y-104304192D01*
X153650396Y-104121268D01*
X153717997Y-103938343D01*
X152745440Y-102965785D01*
X151772883Y-103938343D01*
X147446582Y-103938343D01*
X147433439Y-103625340D01*
X147249243Y-103180652D01*
X146992759Y-103094246D01*
X146092205Y-103994800D01*
X145732995Y-103994800D01*
X144832441Y-103094246D01*
X144575957Y-103180652D01*
X144366142Y-103754136D01*
X140514069Y-103754136D01*
X140806236Y-103462479D01*
X141033717Y-102914641D01*
X145012046Y-102914641D01*
X145912600Y-103815195D01*
X146813154Y-102914641D01*
X146726748Y-102658157D01*
X146353942Y-102521762D01*
X151100039Y-102521762D01*
X151124099Y-103171557D01*
X151326475Y-103660138D01*
X151593277Y-103758737D01*
X152565835Y-102786180D01*
X152925045Y-102786180D01*
X153897603Y-103758737D01*
X154164405Y-103660138D01*
X154368820Y-103109874D01*
X161270666Y-103109874D01*
X161518978Y-103710835D01*
X161929007Y-104121580D01*
X161520594Y-104529282D01*
X161271234Y-105129808D01*
X161270666Y-105780049D01*
X161518978Y-106381010D01*
X161875033Y-106737686D01*
X161520594Y-107091507D01*
X161271234Y-107692033D01*
X161270666Y-108342274D01*
X161518978Y-108943235D01*
X161978367Y-109403426D01*
X162578893Y-109652786D01*
X163229134Y-109653354D01*
X163830095Y-109405042D01*
X164290286Y-108945653D01*
X164539646Y-108345127D01*
X164540024Y-107911900D01*
X167329421Y-107911900D01*
X167435761Y-108446509D01*
X167738593Y-108899728D01*
X168191812Y-109202560D01*
X168226468Y-109209454D01*
X168089251Y-109346671D01*
X167885528Y-109651564D01*
X167813990Y-110011210D01*
X167813990Y-111394893D01*
X167738593Y-111445272D01*
X167435761Y-111898491D01*
X167329421Y-112433100D01*
X167435761Y-112967709D01*
X167738593Y-113420928D01*
X168191812Y-113723760D01*
X168726421Y-113830100D01*
X168781159Y-113830100D01*
X169315768Y-113723760D01*
X169768987Y-113420928D01*
X170005948Y-113066291D01*
X170008999Y-113148677D01*
X170211375Y-113637258D01*
X170478177Y-113735857D01*
X171450735Y-112763300D01*
X171809945Y-112763300D01*
X172782503Y-113735857D01*
X173049305Y-113637258D01*
X173275741Y-113027718D01*
X173251681Y-112377923D01*
X173049305Y-111889342D01*
X172782503Y-111790743D01*
X171809945Y-112763300D01*
X171450735Y-112763300D01*
X170478177Y-111790743D01*
X170211375Y-111889342D01*
X170119300Y-112137197D01*
X170071819Y-111898491D01*
X169879815Y-111611137D01*
X170657783Y-111611137D01*
X171630340Y-112583695D01*
X172602897Y-111611137D01*
X172504298Y-111344335D01*
X171894758Y-111117899D01*
X171244963Y-111141959D01*
X170756382Y-111344335D01*
X170657783Y-111611137D01*
X169879815Y-111611137D01*
X169768987Y-111445272D01*
X169693590Y-111394893D01*
X169693590Y-110400488D01*
X172182178Y-107911900D01*
X173831821Y-107911900D01*
X173938161Y-108446509D01*
X174240993Y-108899728D01*
X174694212Y-109202560D01*
X175228821Y-109308900D01*
X175283559Y-109308900D01*
X175561501Y-109253614D01*
X175358514Y-109456247D01*
X175109154Y-110056773D01*
X175108586Y-110707014D01*
X175244562Y-111036100D01*
X175228821Y-111036100D01*
X174694212Y-111142440D01*
X174240993Y-111445272D01*
X173938161Y-111898491D01*
X173831821Y-112433100D01*
X173938161Y-112967709D01*
X174240993Y-113420928D01*
X174694212Y-113723760D01*
X175228821Y-113830100D01*
X175283559Y-113830100D01*
X175818168Y-113723760D01*
X176271387Y-113420928D01*
X176574219Y-112967709D01*
X176680559Y-112433100D01*
X176597928Y-112017684D01*
X177067054Y-112018094D01*
X177668015Y-111769782D01*
X177902723Y-111535483D01*
X185930803Y-111535483D01*
X186029402Y-111802285D01*
X186638942Y-112028721D01*
X187288737Y-112004661D01*
X187777318Y-111802285D01*
X187875917Y-111535483D01*
X186903360Y-110562925D01*
X185930803Y-111535483D01*
X177902723Y-111535483D01*
X178128206Y-111310393D01*
X178377566Y-110709867D01*
X178378082Y-110118902D01*
X185257959Y-110118902D01*
X185282019Y-110768697D01*
X185484395Y-111257278D01*
X185751197Y-111355877D01*
X186723755Y-110383320D01*
X187082965Y-110383320D01*
X188055523Y-111355877D01*
X188322325Y-111257278D01*
X188548761Y-110647738D01*
X188524701Y-109997943D01*
X188322325Y-109509362D01*
X188055523Y-109410763D01*
X187082965Y-110383320D01*
X186723755Y-110383320D01*
X185751197Y-109410763D01*
X185484395Y-109509362D01*
X185257959Y-110118902D01*
X178378082Y-110118902D01*
X178378134Y-110059626D01*
X178129822Y-109458665D01*
X177902711Y-109231157D01*
X185930803Y-109231157D01*
X186903360Y-110203715D01*
X187875917Y-109231157D01*
X187777318Y-108964355D01*
X187167778Y-108737919D01*
X186517983Y-108761979D01*
X186029402Y-108964355D01*
X185930803Y-109231157D01*
X177902711Y-109231157D01*
X177670433Y-108998474D01*
X177069907Y-108749114D01*
X176419666Y-108748546D01*
X176354379Y-108775522D01*
X176574219Y-108446509D01*
X176680559Y-107911900D01*
X176617871Y-107596741D01*
X189062118Y-107596741D01*
X189274350Y-108110383D01*
X189666990Y-108503709D01*
X189874872Y-108590029D01*
X189669057Y-108675070D01*
X189275731Y-109067710D01*
X189062603Y-109580980D01*
X189062118Y-110136741D01*
X189274350Y-110650383D01*
X189666990Y-111043709D01*
X189874872Y-111130029D01*
X189669057Y-111215070D01*
X189275731Y-111607710D01*
X189062603Y-112120980D01*
X189062118Y-112676741D01*
X189274350Y-113190383D01*
X189666990Y-113583709D01*
X190180260Y-113796837D01*
X190736021Y-113797322D01*
X191249663Y-113585090D01*
X191642989Y-113192450D01*
X191729309Y-112984568D01*
X191814350Y-113190383D01*
X192206990Y-113583709D01*
X192720260Y-113796837D01*
X193276021Y-113797322D01*
X193789663Y-113585090D01*
X194182989Y-113192450D01*
X194396117Y-112679180D01*
X194396602Y-112123419D01*
X194184370Y-111609777D01*
X193791730Y-111216451D01*
X193583848Y-111130131D01*
X193789663Y-111045090D01*
X194182989Y-110652450D01*
X194396117Y-110139180D01*
X194396602Y-109583419D01*
X194184370Y-109069777D01*
X193791730Y-108676451D01*
X193583848Y-108590131D01*
X193789663Y-108505090D01*
X194182989Y-108112450D01*
X194396117Y-107599180D01*
X194396602Y-107043419D01*
X194184370Y-106529777D01*
X193791730Y-106136451D01*
X193278460Y-105923323D01*
X192722699Y-105922838D01*
X192209057Y-106135070D01*
X191815731Y-106527710D01*
X191729411Y-106735592D01*
X191644370Y-106529777D01*
X191251730Y-106136451D01*
X190738460Y-105923323D01*
X190182699Y-105922838D01*
X189669057Y-106135070D01*
X189275731Y-106527710D01*
X189062603Y-107040980D01*
X189062118Y-107596741D01*
X176617871Y-107596741D01*
X176574219Y-107377291D01*
X176271387Y-106924072D01*
X175818168Y-106621240D01*
X175283559Y-106514900D01*
X175228821Y-106514900D01*
X174694212Y-106621240D01*
X174240993Y-106924072D01*
X173938161Y-107377291D01*
X173831821Y-107911900D01*
X172182178Y-107911900D01*
X177029639Y-103064439D01*
X177109120Y-103080249D01*
X177643729Y-102973909D01*
X178096948Y-102671077D01*
X178379120Y-102248778D01*
X178661292Y-102671077D01*
X179114511Y-102973909D01*
X179649120Y-103080249D01*
X180183729Y-102973909D01*
X180636948Y-102671077D01*
X180939407Y-102218416D01*
X181069262Y-102491079D01*
X181474123Y-102856054D01*
X181846050Y-103010100D01*
X182062120Y-102887600D01*
X182062120Y-101782880D01*
X182316120Y-101782880D01*
X182316120Y-102887600D01*
X182532190Y-103010100D01*
X182904117Y-102856054D01*
X183308978Y-102491079D01*
X183543351Y-101998952D01*
X183421596Y-101782880D01*
X182316120Y-101782880D01*
X182062120Y-101782880D01*
X182042120Y-101782880D01*
X182042120Y-101528880D01*
X182062120Y-101528880D01*
X182062120Y-100424160D01*
X182316120Y-100424160D01*
X182316120Y-101528880D01*
X183421596Y-101528880D01*
X183543351Y-101312808D01*
X183308978Y-100820681D01*
X182904117Y-100455706D01*
X182532190Y-100301660D01*
X182316120Y-100424160D01*
X182062120Y-100424160D01*
X181846050Y-100301660D01*
X181474123Y-100455706D01*
X181069262Y-100820681D01*
X180939407Y-101093344D01*
X180636948Y-100640683D01*
X180183729Y-100337851D01*
X179649120Y-100231511D01*
X179114511Y-100337851D01*
X178661292Y-100640683D01*
X178379120Y-101062982D01*
X178096948Y-100640683D01*
X177643729Y-100337851D01*
X177109120Y-100231511D01*
X176574511Y-100337851D01*
X176121292Y-100640683D01*
X175818460Y-101093902D01*
X175712120Y-101628511D01*
X175712120Y-101683249D01*
X175718848Y-101717074D01*
X170066537Y-107369385D01*
X169768987Y-106924072D01*
X169315768Y-106621240D01*
X168781159Y-106514900D01*
X168726421Y-106514900D01*
X168191812Y-106621240D01*
X167738593Y-106924072D01*
X167435761Y-107377291D01*
X167329421Y-107911900D01*
X164540024Y-107911900D01*
X164540214Y-107694886D01*
X164291902Y-107093925D01*
X163935847Y-106737249D01*
X164290286Y-106383428D01*
X164539646Y-105782902D01*
X164540214Y-105132661D01*
X164291902Y-104531700D01*
X163881873Y-104120955D01*
X164290286Y-103713253D01*
X164539646Y-103112727D01*
X164540214Y-102462486D01*
X164291902Y-101861525D01*
X163832513Y-101401334D01*
X163231987Y-101151974D01*
X162581746Y-101151406D01*
X161980785Y-101399718D01*
X161520594Y-101859107D01*
X161271234Y-102459633D01*
X161270666Y-103109874D01*
X154368820Y-103109874D01*
X154390841Y-103050598D01*
X154366781Y-102400803D01*
X154164405Y-101912222D01*
X153897603Y-101813623D01*
X152925045Y-102786180D01*
X152565835Y-102786180D01*
X151593277Y-101813623D01*
X151326475Y-101912222D01*
X151100039Y-102521762D01*
X146353942Y-102521762D01*
X146153264Y-102448342D01*
X145543140Y-102473961D01*
X145098452Y-102658157D01*
X145012046Y-102914641D01*
X141033717Y-102914641D01*
X141147211Y-102641319D01*
X141147987Y-101752181D01*
X141099163Y-101634017D01*
X151772883Y-101634017D01*
X152745440Y-102606575D01*
X153717997Y-101634017D01*
X153619398Y-101367215D01*
X153009858Y-101140779D01*
X152360063Y-101164839D01*
X151871482Y-101367215D01*
X151772883Y-101634017D01*
X141099163Y-101634017D01*
X140808445Y-100930428D01*
X140180279Y-100301164D01*
X139359119Y-99960189D01*
X138469981Y-99959413D01*
X137648228Y-100298955D01*
X137018964Y-100927121D01*
X136677989Y-101748281D01*
X136677213Y-102637419D01*
X127507200Y-102637419D01*
X127507200Y-95136322D01*
X140862952Y-95136322D01*
X141058206Y-95608873D01*
X141330300Y-95881442D01*
X141059476Y-96151794D01*
X140863398Y-96624002D01*
X140862952Y-97135302D01*
X141058206Y-97607853D01*
X141419434Y-97969712D01*
X141891642Y-98165790D01*
X142402942Y-98166236D01*
X142875493Y-97970982D01*
X143237352Y-97609754D01*
X143433430Y-97137546D01*
X143433876Y-96626246D01*
X143238622Y-96153695D01*
X142966528Y-95881126D01*
X143237352Y-95610774D01*
X143433430Y-95138566D01*
X143433876Y-94627266D01*
X143238622Y-94154715D01*
X143154494Y-94070440D01*
X143158353Y-94068841D01*
X143336981Y-93890212D01*
X143433654Y-93656823D01*
X143433654Y-93166024D01*
X143274904Y-93007274D01*
X142275414Y-93007274D01*
X142275414Y-93027274D01*
X142021414Y-93027274D01*
X142021414Y-93007274D01*
X141021924Y-93007274D01*
X140863174Y-93166024D01*
X140863174Y-93656823D01*
X140959847Y-93890212D01*
X141138475Y-94068841D01*
X141142094Y-94070340D01*
X141059476Y-94152814D01*
X140863398Y-94625022D01*
X140862952Y-95136322D01*
X127507200Y-95136322D01*
X127507200Y-91135822D01*
X140862952Y-91135822D01*
X141058206Y-91608373D01*
X141140541Y-91690851D01*
X141138475Y-91691707D01*
X140959847Y-91870336D01*
X140863174Y-92103725D01*
X140863174Y-92594524D01*
X141021924Y-92753274D01*
X142021414Y-92753274D01*
X142021414Y-92733274D01*
X142275414Y-92733274D01*
X142275414Y-92753274D01*
X143274904Y-92753274D01*
X143433654Y-92594524D01*
X143433654Y-92103725D01*
X143336981Y-91870336D01*
X143158353Y-91691707D01*
X143156532Y-91690953D01*
X143237352Y-91610274D01*
X143310757Y-91433494D01*
X143815786Y-91433494D01*
X144064098Y-92034455D01*
X144425546Y-92396534D01*
X144070794Y-92750667D01*
X143821434Y-93351193D01*
X143820866Y-94001434D01*
X144069178Y-94602395D01*
X144458570Y-94992467D01*
X144070794Y-95379567D01*
X143821434Y-95980093D01*
X143820866Y-96630334D01*
X144069178Y-97231295D01*
X144528567Y-97691486D01*
X145129093Y-97940846D01*
X145779334Y-97941414D01*
X146380295Y-97693102D01*
X146840486Y-97233713D01*
X147089846Y-96633187D01*
X147090414Y-95982946D01*
X146842102Y-95381985D01*
X146452710Y-94991913D01*
X146840486Y-94604813D01*
X147089846Y-94004287D01*
X147090414Y-93354046D01*
X146842102Y-92753085D01*
X146480654Y-92391006D01*
X146835406Y-92036873D01*
X147084766Y-91436347D01*
X147084768Y-91433494D01*
X153975786Y-91433494D01*
X154224098Y-92034455D01*
X154585546Y-92396534D01*
X154230794Y-92750667D01*
X153981434Y-93351193D01*
X153980866Y-94001434D01*
X154229178Y-94602395D01*
X154618570Y-94992467D01*
X154230794Y-95379567D01*
X153981434Y-95980093D01*
X153980866Y-96630334D01*
X154229178Y-97231295D01*
X154688567Y-97691486D01*
X155289093Y-97940846D01*
X155939334Y-97941414D01*
X156540295Y-97693102D01*
X157000486Y-97233713D01*
X157249846Y-96633187D01*
X157250414Y-95982946D01*
X157147394Y-95733617D01*
X164160200Y-95733617D01*
X164160200Y-95782383D01*
X164254940Y-96258671D01*
X164524735Y-96662448D01*
X164928512Y-96932243D01*
X165404800Y-97026983D01*
X165881088Y-96932243D01*
X166284865Y-96662448D01*
X166554660Y-96258671D01*
X166649400Y-95782383D01*
X166649400Y-95733617D01*
X170967400Y-95733617D01*
X170967400Y-95782383D01*
X171062140Y-96258671D01*
X171331935Y-96662448D01*
X171735712Y-96932243D01*
X172212000Y-97026983D01*
X172688288Y-96932243D01*
X173092065Y-96662448D01*
X173361860Y-96258671D01*
X173456600Y-95782383D01*
X173456600Y-95733617D01*
X177952400Y-95733617D01*
X177952400Y-95782383D01*
X178047140Y-96258671D01*
X178316935Y-96662448D01*
X178720712Y-96932243D01*
X179197000Y-97026983D01*
X179673288Y-96932243D01*
X180077065Y-96662448D01*
X180346860Y-96258671D01*
X180441600Y-95782383D01*
X180441600Y-95733617D01*
X180346860Y-95257329D01*
X180077065Y-94853552D01*
X179673288Y-94583757D01*
X179197000Y-94489017D01*
X178720712Y-94583757D01*
X178316935Y-94853552D01*
X178047140Y-95257329D01*
X177952400Y-95733617D01*
X173456600Y-95733617D01*
X173361860Y-95257329D01*
X173092065Y-94853552D01*
X172688288Y-94583757D01*
X172212000Y-94489017D01*
X171735712Y-94583757D01*
X171331935Y-94853552D01*
X171062140Y-95257329D01*
X170967400Y-95733617D01*
X166649400Y-95733617D01*
X166554660Y-95257329D01*
X166284865Y-94853552D01*
X165881088Y-94583757D01*
X165404800Y-94489017D01*
X164928512Y-94583757D01*
X164524735Y-94853552D01*
X164254940Y-95257329D01*
X164160200Y-95733617D01*
X157147394Y-95733617D01*
X157002102Y-95381985D01*
X156612710Y-94991913D01*
X157000486Y-94604813D01*
X157249846Y-94004287D01*
X157250414Y-93354046D01*
X157184127Y-93193617D01*
X164160200Y-93193617D01*
X164160200Y-93242383D01*
X164254940Y-93718671D01*
X164524735Y-94122448D01*
X164928512Y-94392243D01*
X165404800Y-94486983D01*
X165881088Y-94392243D01*
X166284865Y-94122448D01*
X166554660Y-93718671D01*
X166649400Y-93242383D01*
X166649400Y-93193617D01*
X170967400Y-93193617D01*
X170967400Y-93242383D01*
X171062140Y-93718671D01*
X171331935Y-94122448D01*
X171735712Y-94392243D01*
X172212000Y-94486983D01*
X172688288Y-94392243D01*
X173092065Y-94122448D01*
X173361860Y-93718671D01*
X173456600Y-93242383D01*
X173456600Y-93193617D01*
X177952400Y-93193617D01*
X177952400Y-93242383D01*
X178047140Y-93718671D01*
X178316935Y-94122448D01*
X178720712Y-94392243D01*
X179197000Y-94486983D01*
X179673288Y-94392243D01*
X180077065Y-94122448D01*
X180346860Y-93718671D01*
X180441600Y-93242383D01*
X180441600Y-93193617D01*
X180346860Y-92717329D01*
X180077065Y-92313552D01*
X179673288Y-92043757D01*
X179197000Y-91949017D01*
X178720712Y-92043757D01*
X178316935Y-92313552D01*
X178047140Y-92717329D01*
X177952400Y-93193617D01*
X173456600Y-93193617D01*
X173361860Y-92717329D01*
X173092065Y-92313552D01*
X172688288Y-92043757D01*
X172212000Y-91949017D01*
X171735712Y-92043757D01*
X171331935Y-92313552D01*
X171062140Y-92717329D01*
X170967400Y-93193617D01*
X166649400Y-93193617D01*
X166554660Y-92717329D01*
X166284865Y-92313552D01*
X165881088Y-92043757D01*
X165404800Y-91949017D01*
X164928512Y-92043757D01*
X164524735Y-92313552D01*
X164254940Y-92717329D01*
X164160200Y-93193617D01*
X157184127Y-93193617D01*
X157002102Y-92753085D01*
X156640654Y-92391006D01*
X156995406Y-92036873D01*
X157244766Y-91436347D01*
X157245334Y-90786106D01*
X156997022Y-90185145D01*
X156537633Y-89724954D01*
X155937107Y-89475594D01*
X155286866Y-89475026D01*
X154685905Y-89723338D01*
X154225714Y-90182727D01*
X153976354Y-90783253D01*
X153975786Y-91433494D01*
X147084768Y-91433494D01*
X147085334Y-90786106D01*
X146837022Y-90185145D01*
X146377633Y-89724954D01*
X145777107Y-89475594D01*
X145126866Y-89475026D01*
X144525905Y-89723338D01*
X144065714Y-90182727D01*
X143816354Y-90783253D01*
X143815786Y-91433494D01*
X143310757Y-91433494D01*
X143433430Y-91138066D01*
X143433876Y-90626766D01*
X143238622Y-90154215D01*
X142877394Y-89792356D01*
X142405186Y-89596278D01*
X141893886Y-89595832D01*
X141421335Y-89791086D01*
X141059476Y-90152314D01*
X140863398Y-90624522D01*
X140862952Y-91135822D01*
X127507200Y-91135822D01*
X127507200Y-89691852D01*
X127789833Y-89691852D01*
X127888496Y-89958707D01*
X128498221Y-90185228D01*
X129148220Y-90161176D01*
X129637024Y-89958707D01*
X129735687Y-89691852D01*
X128762760Y-88718925D01*
X127789833Y-89691852D01*
X127507200Y-89691852D01*
X127507200Y-89474155D01*
X127610228Y-89512247D01*
X128583155Y-88539320D01*
X128942365Y-88539320D01*
X129915292Y-89512247D01*
X130182147Y-89413584D01*
X130386653Y-88863115D01*
X134727156Y-88863115D01*
X134975546Y-89464263D01*
X135435077Y-89924598D01*
X136035792Y-90174036D01*
X136686235Y-90174604D01*
X137287383Y-89926214D01*
X137747718Y-89466683D01*
X137997156Y-88865968D01*
X137997724Y-88215525D01*
X137749334Y-87614377D01*
X137289803Y-87154042D01*
X136689088Y-86904604D01*
X136038645Y-86904036D01*
X135437497Y-87152426D01*
X134977162Y-87611957D01*
X134727724Y-88212672D01*
X134727156Y-88863115D01*
X130386653Y-88863115D01*
X130408668Y-88803859D01*
X130384616Y-88153860D01*
X130182147Y-87665056D01*
X129915292Y-87566393D01*
X128942365Y-88539320D01*
X128583155Y-88539320D01*
X127610228Y-87566393D01*
X127507200Y-87604485D01*
X127507200Y-87386788D01*
X127789833Y-87386788D01*
X128762760Y-88359715D01*
X129735687Y-87386788D01*
X129637024Y-87119933D01*
X129027299Y-86893412D01*
X128377300Y-86917464D01*
X127888496Y-87119933D01*
X127789833Y-87386788D01*
X127507200Y-87386788D01*
X127507200Y-84962200D01*
X141311472Y-84962200D01*
X140942060Y-85114838D01*
X140942060Y-85114838D01*
G37*
X140942060Y-85114838D02*
X140316315Y-85739491D01*
X139977247Y-86556058D01*
X139976475Y-87440223D01*
X140314118Y-88257380D01*
X140938771Y-88883125D01*
X141755338Y-89222193D01*
X142639503Y-89222965D01*
X143456660Y-88885322D01*
X144082405Y-88260669D01*
X144365178Y-87579676D01*
X144464700Y-88080010D01*
X144767532Y-88533229D01*
X145220751Y-88836061D01*
X145755360Y-88942401D01*
X146289969Y-88836061D01*
X146743188Y-88533229D01*
X147025360Y-88110930D01*
X147307532Y-88533229D01*
X147760751Y-88836061D01*
X148295360Y-88942401D01*
X148829969Y-88836061D01*
X149283188Y-88533229D01*
X149565360Y-88110930D01*
X149847532Y-88533229D01*
X150300751Y-88836061D01*
X150835360Y-88942401D01*
X151369969Y-88836061D01*
X151823188Y-88533229D01*
X152114690Y-88096967D01*
X152133301Y-88160021D01*
X152477334Y-88585710D01*
X152958083Y-88847340D01*
X153032290Y-88862300D01*
X153248360Y-88739800D01*
X153248360Y-87127080D01*
X153228360Y-87127080D01*
X153228360Y-86873080D01*
X153248360Y-86873080D01*
X153248360Y-85260360D01*
X153502360Y-85260360D01*
X153502360Y-86873080D01*
X153522360Y-86873080D01*
X153522360Y-87127080D01*
X153502360Y-87127080D01*
X153502360Y-88739800D01*
X153718430Y-88862300D01*
X153792637Y-88847340D01*
X154273386Y-88585710D01*
X154617419Y-88160021D01*
X154636030Y-88096967D01*
X154927532Y-88533229D01*
X155380751Y-88836061D01*
X155915360Y-88942401D01*
X156449969Y-88836061D01*
X156903188Y-88533229D01*
X157185360Y-88110930D01*
X157467532Y-88533229D01*
X157920751Y-88836061D01*
X158455360Y-88942401D01*
X158989969Y-88836061D01*
X159443188Y-88533229D01*
X159725360Y-88110930D01*
X160007532Y-88533229D01*
X160460751Y-88836061D01*
X160995360Y-88942401D01*
X161529969Y-88836061D01*
X161983188Y-88533229D01*
X162265360Y-88110930D01*
X162547532Y-88533229D01*
X163000751Y-88836061D01*
X163535360Y-88942401D01*
X164069969Y-88836061D01*
X164523188Y-88533229D01*
X164805360Y-88110930D01*
X165087532Y-88533229D01*
X165540751Y-88836061D01*
X166075360Y-88942401D01*
X166609969Y-88836061D01*
X167063188Y-88533229D01*
X167345360Y-88110930D01*
X167627532Y-88533229D01*
X168080751Y-88836061D01*
X168615360Y-88942401D01*
X169149969Y-88836061D01*
X169603188Y-88533229D01*
X169906020Y-88080010D01*
X170012360Y-87545401D01*
X170012360Y-86454759D01*
X171282360Y-86454759D01*
X171282360Y-87545401D01*
X171388700Y-88080010D01*
X171691532Y-88533229D01*
X172144751Y-88836061D01*
X172679360Y-88942401D01*
X173213969Y-88836061D01*
X173667188Y-88533229D01*
X173949360Y-88110930D01*
X174231532Y-88533229D01*
X174684751Y-88836061D01*
X175219360Y-88942401D01*
X175753969Y-88836061D01*
X176207188Y-88533229D01*
X176489360Y-88110930D01*
X176771532Y-88533229D01*
X177224751Y-88836061D01*
X177759360Y-88942401D01*
X178293969Y-88836061D01*
X178747188Y-88533229D01*
X179029360Y-88110930D01*
X179311532Y-88533229D01*
X179764751Y-88836061D01*
X180299360Y-88942401D01*
X180833969Y-88836061D01*
X181287188Y-88533229D01*
X181569360Y-88110930D01*
X181851532Y-88533229D01*
X182304751Y-88836061D01*
X182839360Y-88942401D01*
X183373969Y-88836061D01*
X183827188Y-88533229D01*
X184109360Y-88110930D01*
X184391532Y-88533229D01*
X184844751Y-88836061D01*
X185379360Y-88942401D01*
X185913969Y-88836061D01*
X186367188Y-88533229D01*
X186649360Y-88110930D01*
X186931532Y-88533229D01*
X187384751Y-88836061D01*
X187919360Y-88942401D01*
X188453969Y-88836061D01*
X188907188Y-88533229D01*
X189189360Y-88110930D01*
X189471532Y-88533229D01*
X189924751Y-88836061D01*
X190459360Y-88942401D01*
X190993969Y-88836061D01*
X191447188Y-88533229D01*
X191750020Y-88080010D01*
X191856360Y-87545401D01*
X191856360Y-86454759D01*
X191750020Y-85920150D01*
X191447188Y-85466931D01*
X190993969Y-85164099D01*
X190459360Y-85057759D01*
X189924751Y-85164099D01*
X189471532Y-85466931D01*
X189189360Y-85889230D01*
X188907188Y-85466931D01*
X188453969Y-85164099D01*
X187919360Y-85057759D01*
X187384751Y-85164099D01*
X186931532Y-85466931D01*
X186649360Y-85889230D01*
X186367188Y-85466931D01*
X185913969Y-85164099D01*
X185379360Y-85057759D01*
X184844751Y-85164099D01*
X184391532Y-85466931D01*
X184109360Y-85889230D01*
X183827188Y-85466931D01*
X183373969Y-85164099D01*
X182839360Y-85057759D01*
X182304751Y-85164099D01*
X181851532Y-85466931D01*
X181569360Y-85889230D01*
X181287188Y-85466931D01*
X180833969Y-85164099D01*
X180299360Y-85057759D01*
X179764751Y-85164099D01*
X179311532Y-85466931D01*
X179029360Y-85889230D01*
X178747188Y-85466931D01*
X178293969Y-85164099D01*
X177759360Y-85057759D01*
X177224751Y-85164099D01*
X176771532Y-85466931D01*
X176489360Y-85889230D01*
X176207188Y-85466931D01*
X175753969Y-85164099D01*
X175219360Y-85057759D01*
X174684751Y-85164099D01*
X174231532Y-85466931D01*
X173949360Y-85889230D01*
X173667188Y-85466931D01*
X173213969Y-85164099D01*
X172679360Y-85057759D01*
X172144751Y-85164099D01*
X171691532Y-85466931D01*
X171388700Y-85920150D01*
X171282360Y-86454759D01*
X170012360Y-86454759D01*
X169906020Y-85920150D01*
X169603188Y-85466931D01*
X169149969Y-85164099D01*
X168615360Y-85057759D01*
X168080751Y-85164099D01*
X167627532Y-85466931D01*
X167345360Y-85889230D01*
X167063188Y-85466931D01*
X166609969Y-85164099D01*
X166075360Y-85057759D01*
X165540751Y-85164099D01*
X165087532Y-85466931D01*
X164805360Y-85889230D01*
X164523188Y-85466931D01*
X164069969Y-85164099D01*
X163535360Y-85057759D01*
X163000751Y-85164099D01*
X162547532Y-85466931D01*
X162265360Y-85889230D01*
X161983188Y-85466931D01*
X161529969Y-85164099D01*
X160995360Y-85057759D01*
X160460751Y-85164099D01*
X160007532Y-85466931D01*
X159725360Y-85889230D01*
X159443188Y-85466931D01*
X158989969Y-85164099D01*
X158455360Y-85057759D01*
X157920751Y-85164099D01*
X157467532Y-85466931D01*
X157185360Y-85889230D01*
X156903188Y-85466931D01*
X156449969Y-85164099D01*
X155915360Y-85057759D01*
X155380751Y-85164099D01*
X154927532Y-85466931D01*
X154636030Y-85903193D01*
X154617419Y-85840139D01*
X154273386Y-85414450D01*
X153792637Y-85152820D01*
X153718430Y-85137860D01*
X153502360Y-85260360D01*
X153248360Y-85260360D01*
X153032290Y-85137860D01*
X152958083Y-85152820D01*
X152477334Y-85414450D01*
X152133301Y-85840139D01*
X152114690Y-85903193D01*
X151823188Y-85466931D01*
X151369969Y-85164099D01*
X150835360Y-85057759D01*
X150300751Y-85164099D01*
X149847532Y-85466931D01*
X149565360Y-85889230D01*
X149283188Y-85466931D01*
X148829969Y-85164099D01*
X148295360Y-85057759D01*
X147760751Y-85164099D01*
X147307532Y-85466931D01*
X147025360Y-85889230D01*
X146743188Y-85466931D01*
X146289969Y-85164099D01*
X145755360Y-85057759D01*
X145220751Y-85164099D01*
X144767532Y-85466931D01*
X144464700Y-85920150D01*
X144364998Y-86421388D01*
X144084602Y-85742780D01*
X143459949Y-85117035D01*
X143087065Y-84962200D01*
X191511664Y-84962200D01*
X192482000Y-85932536D01*
X192482000Y-97078800D01*
X192534143Y-97340938D01*
X192682632Y-97563168D01*
X194996600Y-99877136D01*
X194996600Y-101253835D01*
X194884602Y-100982780D01*
X194259949Y-100357035D01*
X193443382Y-100017967D01*
X192559217Y-100017195D01*
X191742060Y-100354838D01*
X191116315Y-100979491D01*
X190777247Y-101796058D01*
X190776475Y-102680223D01*
X191114118Y-103497380D01*
X191738771Y-104123125D01*
X192555338Y-104462193D01*
X193439503Y-104462965D01*
X194256660Y-104125322D01*
X194882405Y-103500669D01*
X194996600Y-103225657D01*
X194996600Y-129193835D01*
X194884602Y-128922780D01*
X194259949Y-128297035D01*
X193443382Y-127957967D01*
X192559217Y-127957195D01*
X191742060Y-128294838D01*
X191116315Y-128919491D01*
X190777247Y-129736058D01*
X190776475Y-130620223D01*
X191114118Y-131437380D01*
X191738771Y-132063125D01*
X192555338Y-132402193D01*
X193439503Y-132402965D01*
X194256660Y-132065322D01*
X194882405Y-131440669D01*
X194996600Y-131165657D01*
X194996600Y-132482064D01*
X192682632Y-134796032D01*
X192534143Y-135018262D01*
X192482000Y-135280400D01*
X192482000Y-137237000D01*
X141964783Y-137237000D01*
X142186660Y-137145322D01*
X142812405Y-136520669D01*
X143151473Y-135704102D01*
X143152245Y-134819937D01*
X143108787Y-134714759D01*
X153502360Y-134714759D01*
X153502360Y-135805401D01*
X153608700Y-136340010D01*
X153911532Y-136793229D01*
X154364751Y-137096061D01*
X154899360Y-137202401D01*
X155433969Y-137096061D01*
X155887188Y-136793229D01*
X156169360Y-136370930D01*
X156451532Y-136793229D01*
X156904751Y-137096061D01*
X157439360Y-137202401D01*
X157973969Y-137096061D01*
X158427188Y-136793229D01*
X158709360Y-136370930D01*
X158991532Y-136793229D01*
X159444751Y-137096061D01*
X159979360Y-137202401D01*
X160513969Y-137096061D01*
X160967188Y-136793229D01*
X161249360Y-136370930D01*
X161531532Y-136793229D01*
X161984751Y-137096061D01*
X162519360Y-137202401D01*
X163053969Y-137096061D01*
X163507188Y-136793229D01*
X163789360Y-136370930D01*
X164071532Y-136793229D01*
X164524751Y-137096061D01*
X165059360Y-137202401D01*
X165593969Y-137096061D01*
X166047188Y-136793229D01*
X166338690Y-136356967D01*
X166357301Y-136420021D01*
X166701334Y-136845710D01*
X167182083Y-137107340D01*
X167256290Y-137122300D01*
X167472360Y-136999800D01*
X167472360Y-135387080D01*
X167726360Y-135387080D01*
X167726360Y-136999800D01*
X167942430Y-137122300D01*
X168016637Y-137107340D01*
X168497386Y-136845710D01*
X168841419Y-136420021D01*
X168869360Y-136325357D01*
X168897301Y-136420021D01*
X169241334Y-136845710D01*
X169722083Y-137107340D01*
X169796290Y-137122300D01*
X170012360Y-136999800D01*
X170012360Y-135387080D01*
X167726360Y-135387080D01*
X167472360Y-135387080D01*
X167452360Y-135387080D01*
X167452360Y-135133080D01*
X167472360Y-135133080D01*
X167472360Y-133520360D01*
X167726360Y-133520360D01*
X167726360Y-135133080D01*
X170012360Y-135133080D01*
X170012360Y-133520360D01*
X170266360Y-133520360D01*
X170266360Y-135133080D01*
X170286360Y-135133080D01*
X170286360Y-135387080D01*
X170266360Y-135387080D01*
X170266360Y-136999800D01*
X170482430Y-137122300D01*
X170556637Y-137107340D01*
X171037386Y-136845710D01*
X171381419Y-136420021D01*
X171400030Y-136356967D01*
X171691532Y-136793229D01*
X172144751Y-137096061D01*
X172679360Y-137202401D01*
X173213969Y-137096061D01*
X173667188Y-136793229D01*
X173970020Y-136340010D01*
X174076360Y-135805401D01*
X174076360Y-134714759D01*
X176362360Y-134714759D01*
X176362360Y-135805401D01*
X176468700Y-136340010D01*
X176771532Y-136793229D01*
X177224751Y-137096061D01*
X177759360Y-137202401D01*
X178293969Y-137096061D01*
X178747188Y-136793229D01*
X179029360Y-136370930D01*
X179311532Y-136793229D01*
X179764751Y-137096061D01*
X180299360Y-137202401D01*
X180833969Y-137096061D01*
X181287188Y-136793229D01*
X181569360Y-136370930D01*
X181851532Y-136793229D01*
X182304751Y-137096061D01*
X182839360Y-137202401D01*
X183373969Y-137096061D01*
X183827188Y-136793229D01*
X184109360Y-136370930D01*
X184391532Y-136793229D01*
X184844751Y-137096061D01*
X185379360Y-137202401D01*
X185913969Y-137096061D01*
X186367188Y-136793229D01*
X186649360Y-136370930D01*
X186931532Y-136793229D01*
X187384751Y-137096061D01*
X187919360Y-137202401D01*
X188453969Y-137096061D01*
X188907188Y-136793229D01*
X189189360Y-136370930D01*
X189471532Y-136793229D01*
X189924751Y-137096061D01*
X190459360Y-137202401D01*
X190993969Y-137096061D01*
X191447188Y-136793229D01*
X191750020Y-136340010D01*
X191856360Y-135805401D01*
X191856360Y-134714759D01*
X191750020Y-134180150D01*
X191447188Y-133726931D01*
X190993969Y-133424099D01*
X190459360Y-133317759D01*
X189924751Y-133424099D01*
X189471532Y-133726931D01*
X189189360Y-134149230D01*
X188907188Y-133726931D01*
X188453969Y-133424099D01*
X187919360Y-133317759D01*
X187384751Y-133424099D01*
X186931532Y-133726931D01*
X186649360Y-134149230D01*
X186367188Y-133726931D01*
X185913969Y-133424099D01*
X185379360Y-133317759D01*
X184844751Y-133424099D01*
X184391532Y-133726931D01*
X184109360Y-134149230D01*
X183827188Y-133726931D01*
X183373969Y-133424099D01*
X182839360Y-133317759D01*
X182304751Y-133424099D01*
X181851532Y-133726931D01*
X181569360Y-134149230D01*
X181287188Y-133726931D01*
X180833969Y-133424099D01*
X180299360Y-133317759D01*
X179764751Y-133424099D01*
X179311532Y-133726931D01*
X179029360Y-134149230D01*
X178747188Y-133726931D01*
X178293969Y-133424099D01*
X177759360Y-133317759D01*
X177224751Y-133424099D01*
X176771532Y-133726931D01*
X176468700Y-134180150D01*
X176362360Y-134714759D01*
X174076360Y-134714759D01*
X173970020Y-134180150D01*
X173667188Y-133726931D01*
X173213969Y-133424099D01*
X172679360Y-133317759D01*
X172144751Y-133424099D01*
X171691532Y-133726931D01*
X171400030Y-134163193D01*
X171381419Y-134100139D01*
X171037386Y-133674450D01*
X170556637Y-133412820D01*
X170482430Y-133397860D01*
X170266360Y-133520360D01*
X170012360Y-133520360D01*
X169796290Y-133397860D01*
X169722083Y-133412820D01*
X169241334Y-133674450D01*
X168897301Y-134100139D01*
X168869360Y-134194803D01*
X168841419Y-134100139D01*
X168497386Y-133674450D01*
X168016637Y-133412820D01*
X167942430Y-133397860D01*
X167726360Y-133520360D01*
X167472360Y-133520360D01*
X167256290Y-133397860D01*
X167182083Y-133412820D01*
X166701334Y-133674450D01*
X166357301Y-134100139D01*
X166338690Y-134163193D01*
X166047188Y-133726931D01*
X165593969Y-133424099D01*
X165059360Y-133317759D01*
X164524751Y-133424099D01*
X164071532Y-133726931D01*
X163789360Y-134149230D01*
X163507188Y-133726931D01*
X163053969Y-133424099D01*
X162519360Y-133317759D01*
X161984751Y-133424099D01*
X161531532Y-133726931D01*
X161249360Y-134149230D01*
X160967188Y-133726931D01*
X160513969Y-133424099D01*
X159979360Y-133317759D01*
X159444751Y-133424099D01*
X158991532Y-133726931D01*
X158709360Y-134149230D01*
X158427188Y-133726931D01*
X157973969Y-133424099D01*
X157439360Y-133317759D01*
X156904751Y-133424099D01*
X156451532Y-133726931D01*
X156169360Y-134149230D01*
X155887188Y-133726931D01*
X155433969Y-133424099D01*
X154899360Y-133317759D01*
X154364751Y-133424099D01*
X153911532Y-133726931D01*
X153608700Y-134180150D01*
X153502360Y-134714759D01*
X143108787Y-134714759D01*
X142814602Y-134002780D01*
X142189949Y-133377035D01*
X141373382Y-133037967D01*
X140489217Y-133037195D01*
X139672060Y-133374838D01*
X139046315Y-133999491D01*
X138707247Y-134816058D01*
X138706475Y-135700223D01*
X139044118Y-136517380D01*
X139668771Y-137143125D01*
X139894847Y-137237000D01*
X135763032Y-137237000D01*
X135918578Y-137206060D01*
X136371797Y-136903228D01*
X136674629Y-136450009D01*
X136780969Y-135915400D01*
X136674629Y-135380791D01*
X136371797Y-134927572D01*
X135918578Y-134624740D01*
X135383969Y-134518400D01*
X135329231Y-134518400D01*
X134794622Y-134624740D01*
X134341403Y-134927572D01*
X134038571Y-135380791D01*
X133932231Y-135915400D01*
X134038571Y-136450009D01*
X134341403Y-136903228D01*
X134794622Y-137206060D01*
X134950168Y-137237000D01*
X129260632Y-137237000D01*
X129416178Y-137206060D01*
X129869397Y-136903228D01*
X130172229Y-136450009D01*
X130278569Y-135915400D01*
X130172229Y-135380791D01*
X129869397Y-134927572D01*
X129416178Y-134624740D01*
X128881569Y-134518400D01*
X128826831Y-134518400D01*
X128292222Y-134624740D01*
X127839003Y-134927572D01*
X127536171Y-135380791D01*
X127507200Y-135526439D01*
X127507200Y-131754702D01*
X127654026Y-132109197D01*
X128019001Y-132514058D01*
X128511128Y-132748431D01*
X128727200Y-132626676D01*
X128727200Y-131521200D01*
X128981200Y-131521200D01*
X128981200Y-132626676D01*
X129197272Y-132748431D01*
X129689399Y-132514058D01*
X130054374Y-132109197D01*
X130208420Y-131737270D01*
X134002380Y-131737270D01*
X134156426Y-132109197D01*
X134521401Y-132514058D01*
X135013528Y-132748431D01*
X135229600Y-132626676D01*
X135229600Y-131521200D01*
X135483600Y-131521200D01*
X135483600Y-132626676D01*
X135699672Y-132748431D01*
X136191799Y-132514058D01*
X136556774Y-132109197D01*
X136710820Y-131737270D01*
X136588320Y-131521200D01*
X135483600Y-131521200D01*
X135229600Y-131521200D01*
X134124880Y-131521200D01*
X134002380Y-131737270D01*
X130208420Y-131737270D01*
X130085920Y-131521200D01*
X128981200Y-131521200D01*
X128727200Y-131521200D01*
X128707200Y-131521200D01*
X128707200Y-131267200D01*
X128727200Y-131267200D01*
X128727200Y-130161724D01*
X128981200Y-130161724D01*
X128981200Y-131267200D01*
X130085920Y-131267200D01*
X130208420Y-131051130D01*
X134002380Y-131051130D01*
X134124880Y-131267200D01*
X135229600Y-131267200D01*
X135229600Y-130161724D01*
X135483600Y-130161724D01*
X135483600Y-131267200D01*
X136588320Y-131267200D01*
X136617686Y-131215403D01*
X136924043Y-131215403D01*
X137022642Y-131482205D01*
X137632182Y-131708641D01*
X138281977Y-131684581D01*
X138770558Y-131482205D01*
X138869157Y-131215403D01*
X137896600Y-130242845D01*
X136924043Y-131215403D01*
X136617686Y-131215403D01*
X136710820Y-131051130D01*
X136697246Y-131018357D01*
X136744437Y-131035797D01*
X137716995Y-130063240D01*
X138076205Y-130063240D01*
X139048763Y-131035797D01*
X139315565Y-130937198D01*
X139519980Y-130386934D01*
X146421826Y-130386934D01*
X146670138Y-130987895D01*
X147129527Y-131448086D01*
X147730053Y-131697446D01*
X148380294Y-131698014D01*
X148981255Y-131449702D01*
X149441446Y-130990313D01*
X149690806Y-130389787D01*
X149691374Y-129739546D01*
X149443062Y-129138585D01*
X149054913Y-128749759D01*
X149471926Y-128333473D01*
X149721286Y-127732947D01*
X149721607Y-127364763D01*
X155293323Y-127364763D01*
X155391922Y-127631565D01*
X156001462Y-127858001D01*
X156651257Y-127833941D01*
X157139838Y-127631565D01*
X157238437Y-127364763D01*
X156265880Y-126392205D01*
X155293323Y-127364763D01*
X149721607Y-127364763D01*
X149721854Y-127082706D01*
X149473542Y-126481745D01*
X149014153Y-126021554D01*
X148837454Y-125948182D01*
X154620479Y-125948182D01*
X154644539Y-126597977D01*
X154846915Y-127086558D01*
X155113717Y-127185157D01*
X156086275Y-126212600D01*
X156445485Y-126212600D01*
X157418043Y-127185157D01*
X157684845Y-127086558D01*
X157911281Y-126477018D01*
X157887221Y-125827223D01*
X157684845Y-125338642D01*
X157418043Y-125240043D01*
X156445485Y-126212600D01*
X156086275Y-126212600D01*
X155113717Y-125240043D01*
X154846915Y-125338642D01*
X154620479Y-125948182D01*
X148837454Y-125948182D01*
X148413627Y-125772194D01*
X147763386Y-125771626D01*
X147162425Y-126019938D01*
X146702234Y-126479327D01*
X146452874Y-127079853D01*
X146452306Y-127730094D01*
X146700618Y-128331055D01*
X147088767Y-128719881D01*
X146671754Y-129136167D01*
X146422394Y-129736693D01*
X146421826Y-130386934D01*
X139519980Y-130386934D01*
X139542001Y-130327658D01*
X139517941Y-129677863D01*
X139315565Y-129189282D01*
X139048763Y-129090683D01*
X138076205Y-130063240D01*
X137716995Y-130063240D01*
X136744437Y-129090683D01*
X136477635Y-129189282D01*
X136251199Y-129798822D01*
X136272105Y-130363424D01*
X136191799Y-130274342D01*
X135699672Y-130039969D01*
X135483600Y-130161724D01*
X135229600Y-130161724D01*
X135013528Y-130039969D01*
X134521401Y-130274342D01*
X134156426Y-130679203D01*
X134002380Y-131051130D01*
X130208420Y-131051130D01*
X130054374Y-130679203D01*
X129689399Y-130274342D01*
X129197272Y-130039969D01*
X128981200Y-130161724D01*
X128727200Y-130161724D01*
X128511128Y-130039969D01*
X128019001Y-130274342D01*
X127654026Y-130679203D01*
X127507200Y-131033698D01*
X127507200Y-127730094D01*
X136292306Y-127730094D01*
X136540618Y-128331055D01*
X136976887Y-128768085D01*
X136924043Y-128911077D01*
X137896600Y-129883635D01*
X138869157Y-128911077D01*
X138828949Y-128802277D01*
X138851735Y-128792862D01*
X139311926Y-128333473D01*
X139561286Y-127732947D01*
X139561854Y-127082706D01*
X139313542Y-126481745D01*
X138854153Y-126021554D01*
X138253627Y-125772194D01*
X137603386Y-125771626D01*
X137002425Y-126019938D01*
X136542234Y-126479327D01*
X136292874Y-127079853D01*
X136292306Y-127730094D01*
X127507200Y-127730094D01*
X127507200Y-123553659D01*
X136728013Y-123553659D01*
X137067555Y-124375412D01*
X137695721Y-125004676D01*
X138516881Y-125345651D01*
X139406019Y-125346427D01*
X140227772Y-125006885D01*
X140511989Y-124723163D01*
X155293323Y-124723163D01*
X155355644Y-124891800D01*
X155293323Y-125060437D01*
X156265880Y-126032995D01*
X157238437Y-125060437D01*
X157176116Y-124891800D01*
X157238437Y-124723163D01*
X156265880Y-123750605D01*
X155293323Y-124723163D01*
X140511989Y-124723163D01*
X140857036Y-124378719D01*
X141198011Y-123557559D01*
X141198230Y-123306582D01*
X154620479Y-123306582D01*
X154644539Y-123956377D01*
X154846915Y-124444958D01*
X155113717Y-124543557D01*
X156086275Y-123571000D01*
X156445485Y-123571000D01*
X157418043Y-124543557D01*
X157684845Y-124444958D01*
X157889260Y-123894694D01*
X164791106Y-123894694D01*
X165039418Y-124495655D01*
X165435160Y-124892088D01*
X165041034Y-125285527D01*
X164791674Y-125886053D01*
X164791106Y-126536294D01*
X165039418Y-127137255D01*
X165498807Y-127597446D01*
X166099333Y-127846806D01*
X166749574Y-127847374D01*
X167350535Y-127599062D01*
X167361478Y-127588138D01*
X167329421Y-127749300D01*
X167435761Y-128283909D01*
X167738593Y-128737128D01*
X168191812Y-129039960D01*
X168726421Y-129146300D01*
X168781159Y-129146300D01*
X169315768Y-129039960D01*
X169768987Y-128737128D01*
X170071819Y-128283909D01*
X170178159Y-127749300D01*
X173831821Y-127749300D01*
X173938161Y-128283909D01*
X174240993Y-128737128D01*
X174694212Y-129039960D01*
X175228821Y-129146300D01*
X175283559Y-129146300D01*
X175818168Y-129039960D01*
X176271387Y-128737128D01*
X176574219Y-128283909D01*
X176680559Y-127749300D01*
X176574219Y-127214691D01*
X176271387Y-126761472D01*
X175818168Y-126458640D01*
X175283559Y-126352300D01*
X175228821Y-126352300D01*
X174694212Y-126458640D01*
X174240993Y-126761472D01*
X173938161Y-127214691D01*
X173831821Y-127749300D01*
X170178159Y-127749300D01*
X170071819Y-127214691D01*
X169768987Y-126761472D01*
X169315768Y-126458640D01*
X168781159Y-126352300D01*
X168726421Y-126352300D01*
X168191812Y-126458640D01*
X168055770Y-126549540D01*
X168060086Y-126539147D01*
X168060654Y-125888906D01*
X167812342Y-125287945D01*
X167416600Y-124891512D01*
X167810726Y-124498073D01*
X167886771Y-124314937D01*
X168191812Y-124518760D01*
X168726421Y-124625100D01*
X168781159Y-124625100D01*
X169315768Y-124518760D01*
X169768987Y-124215928D01*
X170071819Y-123762709D01*
X170178159Y-123228100D01*
X173831821Y-123228100D01*
X173938161Y-123762709D01*
X174240993Y-124215928D01*
X174694212Y-124518760D01*
X175228821Y-124625100D01*
X175283559Y-124625100D01*
X175818168Y-124518760D01*
X176271387Y-124215928D01*
X176574219Y-123762709D01*
X176670232Y-123280014D01*
X177750186Y-123280014D01*
X177998498Y-123880975D01*
X178457887Y-124341166D01*
X179058413Y-124590526D01*
X179708654Y-124591094D01*
X180309615Y-124342782D01*
X180544323Y-124108483D01*
X188572403Y-124108483D01*
X188671002Y-124375285D01*
X189280542Y-124601721D01*
X189930337Y-124577661D01*
X190418918Y-124375285D01*
X190517517Y-124108483D01*
X189544960Y-123135925D01*
X188572403Y-124108483D01*
X180544323Y-124108483D01*
X180769806Y-123883393D01*
X181019166Y-123282867D01*
X181019682Y-122691902D01*
X187899559Y-122691902D01*
X187923619Y-123341697D01*
X188125995Y-123830278D01*
X188392797Y-123928877D01*
X189365355Y-122956320D01*
X189724565Y-122956320D01*
X190697123Y-123928877D01*
X190963925Y-123830278D01*
X191190361Y-123220738D01*
X191166301Y-122570943D01*
X190963925Y-122082362D01*
X190697123Y-121983763D01*
X189724565Y-122956320D01*
X189365355Y-122956320D01*
X188392797Y-121983763D01*
X188125995Y-122082362D01*
X187899559Y-122691902D01*
X181019682Y-122691902D01*
X181019734Y-122632626D01*
X180771422Y-122031665D01*
X180544311Y-121804157D01*
X188572403Y-121804157D01*
X189544960Y-122776715D01*
X190517517Y-121804157D01*
X190418918Y-121537355D01*
X189809378Y-121310919D01*
X189159583Y-121334979D01*
X188671002Y-121537355D01*
X188572403Y-121804157D01*
X180544311Y-121804157D01*
X180312033Y-121571474D01*
X179711507Y-121322114D01*
X179061266Y-121321546D01*
X178460305Y-121569858D01*
X178000114Y-122029247D01*
X177750754Y-122629773D01*
X177750186Y-123280014D01*
X176670232Y-123280014D01*
X176680559Y-123228100D01*
X176574219Y-122693491D01*
X176271387Y-122240272D01*
X175818168Y-121937440D01*
X175283559Y-121831100D01*
X175228821Y-121831100D01*
X174694212Y-121937440D01*
X174240993Y-122240272D01*
X173938161Y-122693491D01*
X173831821Y-123228100D01*
X170178159Y-123228100D01*
X170071819Y-122693491D01*
X169768987Y-122240272D01*
X169315768Y-121937440D01*
X168781159Y-121831100D01*
X168726421Y-121831100D01*
X168191812Y-121937440D01*
X167738593Y-122240272D01*
X167605627Y-122439269D01*
X167352953Y-122186154D01*
X166752427Y-121936794D01*
X166102186Y-121936226D01*
X165501225Y-122184538D01*
X165041034Y-122643927D01*
X164791674Y-123244453D01*
X164791106Y-123894694D01*
X157889260Y-123894694D01*
X157911281Y-123835418D01*
X157887221Y-123185623D01*
X157684845Y-122697042D01*
X157418043Y-122598443D01*
X156445485Y-123571000D01*
X156086275Y-123571000D01*
X155113717Y-122598443D01*
X154846915Y-122697042D01*
X154620479Y-123306582D01*
X141198230Y-123306582D01*
X141198787Y-122668421D01*
X140859245Y-121846668D01*
X140231079Y-121217404D01*
X139409919Y-120876429D01*
X138520781Y-120875653D01*
X137699028Y-121215195D01*
X137069764Y-121843361D01*
X136728789Y-122664521D01*
X136728013Y-123553659D01*
X127507200Y-123553659D01*
X127507200Y-119115031D01*
X144428135Y-119115031D01*
X144661332Y-119679411D01*
X145042582Y-120061328D01*
X144662849Y-120440397D01*
X144428667Y-121004370D01*
X144428135Y-121615031D01*
X144661332Y-122179411D01*
X145092757Y-122611591D01*
X145656730Y-122845773D01*
X146267391Y-122846305D01*
X146831771Y-122613108D01*
X147026382Y-122418837D01*
X155293323Y-122418837D01*
X156265880Y-123391395D01*
X157238437Y-122418837D01*
X157139838Y-122152035D01*
X156530298Y-121925599D01*
X155880503Y-121949659D01*
X155391922Y-122152035D01*
X155293323Y-122418837D01*
X147026382Y-122418837D01*
X147245562Y-122200040D01*
X153989400Y-122200040D01*
X154329606Y-122132369D01*
X154618018Y-121939658D01*
X156466476Y-120091200D01*
X158306071Y-120091200D01*
X158412411Y-120625809D01*
X158715243Y-121079028D01*
X159168462Y-121381860D01*
X159703071Y-121488200D01*
X159757809Y-121488200D01*
X160292418Y-121381860D01*
X160745637Y-121079028D01*
X161048469Y-120625809D01*
X161154809Y-120091200D01*
X164808471Y-120091200D01*
X164914811Y-120625809D01*
X165217643Y-121079028D01*
X165670862Y-121381860D01*
X166205471Y-121488200D01*
X166260209Y-121488200D01*
X166794818Y-121381860D01*
X167248037Y-121079028D01*
X167493315Y-120711944D01*
X167738593Y-121079028D01*
X168191812Y-121381860D01*
X168726421Y-121488200D01*
X168781159Y-121488200D01*
X169315768Y-121381860D01*
X169768987Y-121079028D01*
X169801078Y-121031000D01*
X174208902Y-121031000D01*
X174240993Y-121079028D01*
X174694212Y-121381860D01*
X175228821Y-121488200D01*
X175283559Y-121488200D01*
X175818168Y-121381860D01*
X176271387Y-121079028D01*
X176516665Y-120711944D01*
X176761943Y-121079028D01*
X177215162Y-121381860D01*
X177749771Y-121488200D01*
X177804509Y-121488200D01*
X178339118Y-121381860D01*
X178792337Y-121079028D01*
X179095169Y-120625809D01*
X179201509Y-120091200D01*
X182855171Y-120091200D01*
X182961511Y-120625809D01*
X183264343Y-121079028D01*
X183717562Y-121381860D01*
X184252171Y-121488200D01*
X184306909Y-121488200D01*
X184841518Y-121381860D01*
X185294737Y-121079028D01*
X185597569Y-120625809D01*
X185703909Y-120091200D01*
X185597569Y-119556591D01*
X185294737Y-119103372D01*
X184841518Y-118800540D01*
X184306909Y-118694200D01*
X184252171Y-118694200D01*
X183717562Y-118800540D01*
X183264343Y-119103372D01*
X182961511Y-119556591D01*
X182855171Y-120091200D01*
X179201509Y-120091200D01*
X179095169Y-119556591D01*
X178792337Y-119103372D01*
X178339118Y-118800540D01*
X177804509Y-118694200D01*
X177749771Y-118694200D01*
X177215162Y-118800540D01*
X176761943Y-119103372D01*
X176516665Y-119470456D01*
X176271387Y-119103372D01*
X175818168Y-118800540D01*
X175283559Y-118694200D01*
X175228821Y-118694200D01*
X174694212Y-118800540D01*
X174240993Y-119103372D01*
X174208902Y-119151400D01*
X169801078Y-119151400D01*
X169768987Y-119103372D01*
X169315768Y-118800540D01*
X168781159Y-118694200D01*
X168726421Y-118694200D01*
X168191812Y-118800540D01*
X167738593Y-119103372D01*
X167493315Y-119470456D01*
X167248037Y-119103372D01*
X166794818Y-118800540D01*
X166260209Y-118694200D01*
X166205471Y-118694200D01*
X165670862Y-118800540D01*
X165217643Y-119103372D01*
X164914811Y-119556591D01*
X164808471Y-120091200D01*
X161154809Y-120091200D01*
X161048469Y-119556591D01*
X160745637Y-119103372D01*
X160292418Y-118800540D01*
X159757809Y-118694200D01*
X159703071Y-118694200D01*
X159168462Y-118800540D01*
X158715243Y-119103372D01*
X158412411Y-119556591D01*
X158306071Y-120091200D01*
X156466476Y-120091200D01*
X159609323Y-116948353D01*
X159703071Y-116967000D01*
X159757809Y-116967000D01*
X160292418Y-116860660D01*
X160745637Y-116557828D01*
X161048469Y-116104609D01*
X161154809Y-115570000D01*
X164808471Y-115570000D01*
X164914811Y-116104609D01*
X165217643Y-116557828D01*
X165670862Y-116860660D01*
X166205471Y-116967000D01*
X166260209Y-116967000D01*
X166794818Y-116860660D01*
X167248037Y-116557828D01*
X167493315Y-116190744D01*
X167738593Y-116557828D01*
X168191812Y-116860660D01*
X168726421Y-116967000D01*
X168781159Y-116967000D01*
X169315768Y-116860660D01*
X169768987Y-116557828D01*
X170071819Y-116104609D01*
X170178159Y-115570000D01*
X173831821Y-115570000D01*
X173938161Y-116104609D01*
X174240993Y-116557828D01*
X174694212Y-116860660D01*
X175228821Y-116967000D01*
X175283559Y-116967000D01*
X175818168Y-116860660D01*
X176271387Y-116557828D01*
X176516665Y-116190744D01*
X176761943Y-116557828D01*
X177215162Y-116860660D01*
X177749771Y-116967000D01*
X177804509Y-116967000D01*
X178339118Y-116860660D01*
X178792337Y-116557828D01*
X179095169Y-116104609D01*
X179201509Y-115570000D01*
X182855171Y-115570000D01*
X182961511Y-116104609D01*
X183264343Y-116557828D01*
X183717562Y-116860660D01*
X184252171Y-116967000D01*
X184306909Y-116967000D01*
X184841518Y-116860660D01*
X185294737Y-116557828D01*
X185597569Y-116104609D01*
X185703909Y-115570000D01*
X185597569Y-115035391D01*
X185294737Y-114582172D01*
X184841518Y-114279340D01*
X184306909Y-114173000D01*
X184252171Y-114173000D01*
X183717562Y-114279340D01*
X183264343Y-114582172D01*
X182961511Y-115035391D01*
X182855171Y-115570000D01*
X179201509Y-115570000D01*
X179095169Y-115035391D01*
X178792337Y-114582172D01*
X178339118Y-114279340D01*
X177804509Y-114173000D01*
X177749771Y-114173000D01*
X177215162Y-114279340D01*
X176761943Y-114582172D01*
X176516665Y-114949256D01*
X176271387Y-114582172D01*
X175818168Y-114279340D01*
X175283559Y-114173000D01*
X175228821Y-114173000D01*
X174694212Y-114279340D01*
X174240993Y-114582172D01*
X173938161Y-115035391D01*
X173831821Y-115570000D01*
X170178159Y-115570000D01*
X170071819Y-115035391D01*
X169768987Y-114582172D01*
X169315768Y-114279340D01*
X168781159Y-114173000D01*
X168726421Y-114173000D01*
X168191812Y-114279340D01*
X167738593Y-114582172D01*
X167493315Y-114949256D01*
X167248037Y-114582172D01*
X166794818Y-114279340D01*
X166260209Y-114173000D01*
X166205471Y-114173000D01*
X165670862Y-114279340D01*
X165217643Y-114582172D01*
X164914811Y-115035391D01*
X164808471Y-115570000D01*
X161154809Y-115570000D01*
X161048469Y-115035391D01*
X160745637Y-114582172D01*
X160292418Y-114279340D01*
X159757809Y-114173000D01*
X159703071Y-114173000D01*
X159168462Y-114279340D01*
X158715243Y-114582172D01*
X158412411Y-115035391D01*
X158306071Y-115570000D01*
X158333800Y-115709404D01*
X153621164Y-120422040D01*
X147244875Y-120422040D01*
X146884218Y-120060752D01*
X147263951Y-119681683D01*
X147498133Y-119117710D01*
X147498665Y-118507049D01*
X147265468Y-117942669D01*
X146834043Y-117510489D01*
X146825028Y-117506746D01*
X146863954Y-117391199D01*
X145963400Y-116490645D01*
X145062846Y-117391199D01*
X145101607Y-117506254D01*
X145095029Y-117508972D01*
X144662849Y-117940397D01*
X144428667Y-118504370D01*
X144428135Y-119115031D01*
X127507200Y-119115031D01*
X127507200Y-111237419D01*
X136677213Y-111237419D01*
X137016755Y-112059172D01*
X137635307Y-112678805D01*
X137069764Y-113243361D01*
X136728789Y-114064521D01*
X136728013Y-114953659D01*
X137067555Y-115775412D01*
X137695721Y-116404676D01*
X138516881Y-116745651D01*
X139406019Y-116746427D01*
X140227772Y-116406885D01*
X140564869Y-116070376D01*
X144416942Y-116070376D01*
X144442561Y-116680500D01*
X144626757Y-117125188D01*
X144883241Y-117211594D01*
X145783795Y-116311040D01*
X146143005Y-116311040D01*
X147043559Y-117211594D01*
X147300043Y-117125188D01*
X147509858Y-116551704D01*
X147484239Y-115941580D01*
X147300043Y-115496892D01*
X147043559Y-115410486D01*
X146143005Y-116311040D01*
X145783795Y-116311040D01*
X144883241Y-115410486D01*
X144626757Y-115496892D01*
X144416942Y-116070376D01*
X140564869Y-116070376D01*
X140857036Y-115778719D01*
X141084517Y-115230881D01*
X145062846Y-115230881D01*
X145963400Y-116131435D01*
X146863954Y-115230881D01*
X146777548Y-114974397D01*
X146204064Y-114764582D01*
X145593940Y-114790201D01*
X145149252Y-114974397D01*
X145062846Y-115230881D01*
X141084517Y-115230881D01*
X141198011Y-114957559D01*
X141198787Y-114068421D01*
X140859245Y-113246668D01*
X140699850Y-113086994D01*
X159835566Y-113086994D01*
X160083878Y-113687955D01*
X160543267Y-114148146D01*
X161143793Y-114397506D01*
X161794034Y-114398074D01*
X162394995Y-114149762D01*
X162629703Y-113915463D01*
X170657783Y-113915463D01*
X170756382Y-114182265D01*
X171365922Y-114408701D01*
X172015717Y-114384641D01*
X172504298Y-114182265D01*
X172602897Y-113915463D01*
X171630340Y-112942905D01*
X170657783Y-113915463D01*
X162629703Y-113915463D01*
X162855186Y-113690373D01*
X163104546Y-113089847D01*
X163105114Y-112439606D01*
X162856802Y-111838645D01*
X162397413Y-111378454D01*
X161796887Y-111129094D01*
X161146646Y-111128526D01*
X160545685Y-111376838D01*
X160085494Y-111836227D01*
X159836134Y-112436753D01*
X159835566Y-113086994D01*
X140699850Y-113086994D01*
X140240693Y-112627035D01*
X140806236Y-112062479D01*
X141147211Y-111241319D01*
X141147987Y-110352181D01*
X140808445Y-109530428D01*
X140180279Y-108901164D01*
X139359119Y-108560189D01*
X138469981Y-108559413D01*
X137648228Y-108898955D01*
X137018964Y-109527121D01*
X136677989Y-110348281D01*
X136677213Y-111237419D01*
X127507200Y-111237419D01*
X127507200Y-106798791D01*
X144377335Y-106798791D01*
X144610532Y-107363171D01*
X144991782Y-107745088D01*
X144612049Y-108124157D01*
X144377867Y-108688130D01*
X144377335Y-109298791D01*
X144610532Y-109863171D01*
X145041957Y-110295351D01*
X145605930Y-110529533D01*
X146216591Y-110530065D01*
X146780971Y-110296868D01*
X147213151Y-109865443D01*
X147447333Y-109301470D01*
X147447446Y-109170743D01*
X151772883Y-109170743D01*
X151871482Y-109437545D01*
X152481022Y-109663981D01*
X153130817Y-109639921D01*
X153619398Y-109437545D01*
X153717997Y-109170743D01*
X152745440Y-108198185D01*
X151772883Y-109170743D01*
X147447446Y-109170743D01*
X147447865Y-108690809D01*
X147214668Y-108126429D01*
X146843052Y-107754162D01*
X151100039Y-107754162D01*
X151124099Y-108403957D01*
X151326475Y-108892538D01*
X151593277Y-108991137D01*
X152565835Y-108018580D01*
X152925045Y-108018580D01*
X153897603Y-108991137D01*
X154164405Y-108892538D01*
X154390841Y-108282998D01*
X154366781Y-107633203D01*
X154164405Y-107144622D01*
X153897603Y-107046023D01*
X152925045Y-108018580D01*
X152565835Y-108018580D01*
X151593277Y-107046023D01*
X151326475Y-107144622D01*
X151100039Y-107754162D01*
X146843052Y-107754162D01*
X146833418Y-107744512D01*
X147213151Y-107365443D01*
X147447333Y-106801470D01*
X147447501Y-106608518D01*
X151772883Y-106608518D01*
X151820537Y-106737468D01*
X151772883Y-106866417D01*
X152745440Y-107838975D01*
X153717997Y-106866417D01*
X153670343Y-106737468D01*
X153717997Y-106608518D01*
X152745440Y-105635960D01*
X151772883Y-106608518D01*
X147447501Y-106608518D01*
X147447865Y-106190809D01*
X147214668Y-105626429D01*
X146783243Y-105194249D01*
X146777675Y-105191937D01*
X151100039Y-105191937D01*
X151124099Y-105841732D01*
X151326475Y-106330313D01*
X151593277Y-106428912D01*
X152565835Y-105456355D01*
X152925045Y-105456355D01*
X153897603Y-106428912D01*
X154164405Y-106330313D01*
X154390841Y-105720773D01*
X154366781Y-105070978D01*
X154164405Y-104582397D01*
X153897603Y-104483798D01*
X152925045Y-105456355D01*
X152565835Y-105456355D01*
X151593277Y-104483798D01*
X151326475Y-104582397D01*
X151100039Y-105191937D01*
X146777675Y-105191937D01*
X146774228Y-105190506D01*
X146813154Y-105074959D01*
X145912600Y-104174405D01*
X145012046Y-105074959D01*
X145050807Y-105190014D01*
X145044229Y-105192732D01*
X144612049Y-105624157D01*
X144377867Y-106188130D01*
X144377335Y-106798791D01*
X127507200Y-106798791D01*
X127507200Y-102637419D01*
X136677213Y-102637419D01*
X137016755Y-103459172D01*
X137644921Y-104088436D01*
X138466081Y-104429411D01*
X139355219Y-104430187D01*
X140176972Y-104090645D01*
X140514069Y-103754136D01*
X144366142Y-103754136D01*
X144391761Y-104364260D01*
X144575957Y-104808948D01*
X144832441Y-104895354D01*
X145732995Y-103994800D01*
X146092205Y-103994800D01*
X146992759Y-104895354D01*
X147249243Y-104808948D01*
X147459058Y-104235464D01*
X147446582Y-103938343D01*
X151772883Y-103938343D01*
X151840484Y-104121267D01*
X151772883Y-104304192D01*
X152745440Y-105276750D01*
X153717997Y-104304192D01*
X153650396Y-104121268D01*
X153717997Y-103938343D01*
X152745440Y-102965785D01*
X151772883Y-103938343D01*
X147446582Y-103938343D01*
X147433439Y-103625340D01*
X147249243Y-103180652D01*
X146992759Y-103094246D01*
X146092205Y-103994800D01*
X145732995Y-103994800D01*
X144832441Y-103094246D01*
X144575957Y-103180652D01*
X144366142Y-103754136D01*
X140514069Y-103754136D01*
X140806236Y-103462479D01*
X141033717Y-102914641D01*
X145012046Y-102914641D01*
X145912600Y-103815195D01*
X146813154Y-102914641D01*
X146726748Y-102658157D01*
X146353942Y-102521762D01*
X151100039Y-102521762D01*
X151124099Y-103171557D01*
X151326475Y-103660138D01*
X151593277Y-103758737D01*
X152565835Y-102786180D01*
X152925045Y-102786180D01*
X153897603Y-103758737D01*
X154164405Y-103660138D01*
X154368820Y-103109874D01*
X161270666Y-103109874D01*
X161518978Y-103710835D01*
X161929007Y-104121580D01*
X161520594Y-104529282D01*
X161271234Y-105129808D01*
X161270666Y-105780049D01*
X161518978Y-106381010D01*
X161875033Y-106737686D01*
X161520594Y-107091507D01*
X161271234Y-107692033D01*
X161270666Y-108342274D01*
X161518978Y-108943235D01*
X161978367Y-109403426D01*
X162578893Y-109652786D01*
X163229134Y-109653354D01*
X163830095Y-109405042D01*
X164290286Y-108945653D01*
X164539646Y-108345127D01*
X164540024Y-107911900D01*
X167329421Y-107911900D01*
X167435761Y-108446509D01*
X167738593Y-108899728D01*
X168191812Y-109202560D01*
X168226468Y-109209454D01*
X168089251Y-109346671D01*
X167885528Y-109651564D01*
X167813990Y-110011210D01*
X167813990Y-111394893D01*
X167738593Y-111445272D01*
X167435761Y-111898491D01*
X167329421Y-112433100D01*
X167435761Y-112967709D01*
X167738593Y-113420928D01*
X168191812Y-113723760D01*
X168726421Y-113830100D01*
X168781159Y-113830100D01*
X169315768Y-113723760D01*
X169768987Y-113420928D01*
X170005948Y-113066291D01*
X170008999Y-113148677D01*
X170211375Y-113637258D01*
X170478177Y-113735857D01*
X171450735Y-112763300D01*
X171809945Y-112763300D01*
X172782503Y-113735857D01*
X173049305Y-113637258D01*
X173275741Y-113027718D01*
X173251681Y-112377923D01*
X173049305Y-111889342D01*
X172782503Y-111790743D01*
X171809945Y-112763300D01*
X171450735Y-112763300D01*
X170478177Y-111790743D01*
X170211375Y-111889342D01*
X170119300Y-112137197D01*
X170071819Y-111898491D01*
X169879815Y-111611137D01*
X170657783Y-111611137D01*
X171630340Y-112583695D01*
X172602897Y-111611137D01*
X172504298Y-111344335D01*
X171894758Y-111117899D01*
X171244963Y-111141959D01*
X170756382Y-111344335D01*
X170657783Y-111611137D01*
X169879815Y-111611137D01*
X169768987Y-111445272D01*
X169693590Y-111394893D01*
X169693590Y-110400488D01*
X172182178Y-107911900D01*
X173831821Y-107911900D01*
X173938161Y-108446509D01*
X174240993Y-108899728D01*
X174694212Y-109202560D01*
X175228821Y-109308900D01*
X175283559Y-109308900D01*
X175561501Y-109253614D01*
X175358514Y-109456247D01*
X175109154Y-110056773D01*
X175108586Y-110707014D01*
X175244562Y-111036100D01*
X175228821Y-111036100D01*
X174694212Y-111142440D01*
X174240993Y-111445272D01*
X173938161Y-111898491D01*
X173831821Y-112433100D01*
X173938161Y-112967709D01*
X174240993Y-113420928D01*
X174694212Y-113723760D01*
X175228821Y-113830100D01*
X175283559Y-113830100D01*
X175818168Y-113723760D01*
X176271387Y-113420928D01*
X176574219Y-112967709D01*
X176680559Y-112433100D01*
X176597928Y-112017684D01*
X177067054Y-112018094D01*
X177668015Y-111769782D01*
X177902723Y-111535483D01*
X185930803Y-111535483D01*
X186029402Y-111802285D01*
X186638942Y-112028721D01*
X187288737Y-112004661D01*
X187777318Y-111802285D01*
X187875917Y-111535483D01*
X186903360Y-110562925D01*
X185930803Y-111535483D01*
X177902723Y-111535483D01*
X178128206Y-111310393D01*
X178377566Y-110709867D01*
X178378082Y-110118902D01*
X185257959Y-110118902D01*
X185282019Y-110768697D01*
X185484395Y-111257278D01*
X185751197Y-111355877D01*
X186723755Y-110383320D01*
X187082965Y-110383320D01*
X188055523Y-111355877D01*
X188322325Y-111257278D01*
X188548761Y-110647738D01*
X188524701Y-109997943D01*
X188322325Y-109509362D01*
X188055523Y-109410763D01*
X187082965Y-110383320D01*
X186723755Y-110383320D01*
X185751197Y-109410763D01*
X185484395Y-109509362D01*
X185257959Y-110118902D01*
X178378082Y-110118902D01*
X178378134Y-110059626D01*
X178129822Y-109458665D01*
X177902711Y-109231157D01*
X185930803Y-109231157D01*
X186903360Y-110203715D01*
X187875917Y-109231157D01*
X187777318Y-108964355D01*
X187167778Y-108737919D01*
X186517983Y-108761979D01*
X186029402Y-108964355D01*
X185930803Y-109231157D01*
X177902711Y-109231157D01*
X177670433Y-108998474D01*
X177069907Y-108749114D01*
X176419666Y-108748546D01*
X176354379Y-108775522D01*
X176574219Y-108446509D01*
X176680559Y-107911900D01*
X176617871Y-107596741D01*
X189062118Y-107596741D01*
X189274350Y-108110383D01*
X189666990Y-108503709D01*
X189874872Y-108590029D01*
X189669057Y-108675070D01*
X189275731Y-109067710D01*
X189062603Y-109580980D01*
X189062118Y-110136741D01*
X189274350Y-110650383D01*
X189666990Y-111043709D01*
X189874872Y-111130029D01*
X189669057Y-111215070D01*
X189275731Y-111607710D01*
X189062603Y-112120980D01*
X189062118Y-112676741D01*
X189274350Y-113190383D01*
X189666990Y-113583709D01*
X190180260Y-113796837D01*
X190736021Y-113797322D01*
X191249663Y-113585090D01*
X191642989Y-113192450D01*
X191729309Y-112984568D01*
X191814350Y-113190383D01*
X192206990Y-113583709D01*
X192720260Y-113796837D01*
X193276021Y-113797322D01*
X193789663Y-113585090D01*
X194182989Y-113192450D01*
X194396117Y-112679180D01*
X194396602Y-112123419D01*
X194184370Y-111609777D01*
X193791730Y-111216451D01*
X193583848Y-111130131D01*
X193789663Y-111045090D01*
X194182989Y-110652450D01*
X194396117Y-110139180D01*
X194396602Y-109583419D01*
X194184370Y-109069777D01*
X193791730Y-108676451D01*
X193583848Y-108590131D01*
X193789663Y-108505090D01*
X194182989Y-108112450D01*
X194396117Y-107599180D01*
X194396602Y-107043419D01*
X194184370Y-106529777D01*
X193791730Y-106136451D01*
X193278460Y-105923323D01*
X192722699Y-105922838D01*
X192209057Y-106135070D01*
X191815731Y-106527710D01*
X191729411Y-106735592D01*
X191644370Y-106529777D01*
X191251730Y-106136451D01*
X190738460Y-105923323D01*
X190182699Y-105922838D01*
X189669057Y-106135070D01*
X189275731Y-106527710D01*
X189062603Y-107040980D01*
X189062118Y-107596741D01*
X176617871Y-107596741D01*
X176574219Y-107377291D01*
X176271387Y-106924072D01*
X175818168Y-106621240D01*
X175283559Y-106514900D01*
X175228821Y-106514900D01*
X174694212Y-106621240D01*
X174240993Y-106924072D01*
X173938161Y-107377291D01*
X173831821Y-107911900D01*
X172182178Y-107911900D01*
X177029639Y-103064439D01*
X177109120Y-103080249D01*
X177643729Y-102973909D01*
X178096948Y-102671077D01*
X178379120Y-102248778D01*
X178661292Y-102671077D01*
X179114511Y-102973909D01*
X179649120Y-103080249D01*
X180183729Y-102973909D01*
X180636948Y-102671077D01*
X180939407Y-102218416D01*
X181069262Y-102491079D01*
X181474123Y-102856054D01*
X181846050Y-103010100D01*
X182062120Y-102887600D01*
X182062120Y-101782880D01*
X182316120Y-101782880D01*
X182316120Y-102887600D01*
X182532190Y-103010100D01*
X182904117Y-102856054D01*
X183308978Y-102491079D01*
X183543351Y-101998952D01*
X183421596Y-101782880D01*
X182316120Y-101782880D01*
X182062120Y-101782880D01*
X182042120Y-101782880D01*
X182042120Y-101528880D01*
X182062120Y-101528880D01*
X182062120Y-100424160D01*
X182316120Y-100424160D01*
X182316120Y-101528880D01*
X183421596Y-101528880D01*
X183543351Y-101312808D01*
X183308978Y-100820681D01*
X182904117Y-100455706D01*
X182532190Y-100301660D01*
X182316120Y-100424160D01*
X182062120Y-100424160D01*
X181846050Y-100301660D01*
X181474123Y-100455706D01*
X181069262Y-100820681D01*
X180939407Y-101093344D01*
X180636948Y-100640683D01*
X180183729Y-100337851D01*
X179649120Y-100231511D01*
X179114511Y-100337851D01*
X178661292Y-100640683D01*
X178379120Y-101062982D01*
X178096948Y-100640683D01*
X177643729Y-100337851D01*
X177109120Y-100231511D01*
X176574511Y-100337851D01*
X176121292Y-100640683D01*
X175818460Y-101093902D01*
X175712120Y-101628511D01*
X175712120Y-101683249D01*
X175718848Y-101717074D01*
X170066537Y-107369385D01*
X169768987Y-106924072D01*
X169315768Y-106621240D01*
X168781159Y-106514900D01*
X168726421Y-106514900D01*
X168191812Y-106621240D01*
X167738593Y-106924072D01*
X167435761Y-107377291D01*
X167329421Y-107911900D01*
X164540024Y-107911900D01*
X164540214Y-107694886D01*
X164291902Y-107093925D01*
X163935847Y-106737249D01*
X164290286Y-106383428D01*
X164539646Y-105782902D01*
X164540214Y-105132661D01*
X164291902Y-104531700D01*
X163881873Y-104120955D01*
X164290286Y-103713253D01*
X164539646Y-103112727D01*
X164540214Y-102462486D01*
X164291902Y-101861525D01*
X163832513Y-101401334D01*
X163231987Y-101151974D01*
X162581746Y-101151406D01*
X161980785Y-101399718D01*
X161520594Y-101859107D01*
X161271234Y-102459633D01*
X161270666Y-103109874D01*
X154368820Y-103109874D01*
X154390841Y-103050598D01*
X154366781Y-102400803D01*
X154164405Y-101912222D01*
X153897603Y-101813623D01*
X152925045Y-102786180D01*
X152565835Y-102786180D01*
X151593277Y-101813623D01*
X151326475Y-101912222D01*
X151100039Y-102521762D01*
X146353942Y-102521762D01*
X146153264Y-102448342D01*
X145543140Y-102473961D01*
X145098452Y-102658157D01*
X145012046Y-102914641D01*
X141033717Y-102914641D01*
X141147211Y-102641319D01*
X141147987Y-101752181D01*
X141099163Y-101634017D01*
X151772883Y-101634017D01*
X152745440Y-102606575D01*
X153717997Y-101634017D01*
X153619398Y-101367215D01*
X153009858Y-101140779D01*
X152360063Y-101164839D01*
X151871482Y-101367215D01*
X151772883Y-101634017D01*
X141099163Y-101634017D01*
X140808445Y-100930428D01*
X140180279Y-100301164D01*
X139359119Y-99960189D01*
X138469981Y-99959413D01*
X137648228Y-100298955D01*
X137018964Y-100927121D01*
X136677989Y-101748281D01*
X136677213Y-102637419D01*
X127507200Y-102637419D01*
X127507200Y-95136322D01*
X140862952Y-95136322D01*
X141058206Y-95608873D01*
X141330300Y-95881442D01*
X141059476Y-96151794D01*
X140863398Y-96624002D01*
X140862952Y-97135302D01*
X141058206Y-97607853D01*
X141419434Y-97969712D01*
X141891642Y-98165790D01*
X142402942Y-98166236D01*
X142875493Y-97970982D01*
X143237352Y-97609754D01*
X143433430Y-97137546D01*
X143433876Y-96626246D01*
X143238622Y-96153695D01*
X142966528Y-95881126D01*
X143237352Y-95610774D01*
X143433430Y-95138566D01*
X143433876Y-94627266D01*
X143238622Y-94154715D01*
X143154494Y-94070440D01*
X143158353Y-94068841D01*
X143336981Y-93890212D01*
X143433654Y-93656823D01*
X143433654Y-93166024D01*
X143274904Y-93007274D01*
X142275414Y-93007274D01*
X142275414Y-93027274D01*
X142021414Y-93027274D01*
X142021414Y-93007274D01*
X141021924Y-93007274D01*
X140863174Y-93166024D01*
X140863174Y-93656823D01*
X140959847Y-93890212D01*
X141138475Y-94068841D01*
X141142094Y-94070340D01*
X141059476Y-94152814D01*
X140863398Y-94625022D01*
X140862952Y-95136322D01*
X127507200Y-95136322D01*
X127507200Y-91135822D01*
X140862952Y-91135822D01*
X141058206Y-91608373D01*
X141140541Y-91690851D01*
X141138475Y-91691707D01*
X140959847Y-91870336D01*
X140863174Y-92103725D01*
X140863174Y-92594524D01*
X141021924Y-92753274D01*
X142021414Y-92753274D01*
X142021414Y-92733274D01*
X142275414Y-92733274D01*
X142275414Y-92753274D01*
X143274904Y-92753274D01*
X143433654Y-92594524D01*
X143433654Y-92103725D01*
X143336981Y-91870336D01*
X143158353Y-91691707D01*
X143156532Y-91690953D01*
X143237352Y-91610274D01*
X143310757Y-91433494D01*
X143815786Y-91433494D01*
X144064098Y-92034455D01*
X144425546Y-92396534D01*
X144070794Y-92750667D01*
X143821434Y-93351193D01*
X143820866Y-94001434D01*
X144069178Y-94602395D01*
X144458570Y-94992467D01*
X144070794Y-95379567D01*
X143821434Y-95980093D01*
X143820866Y-96630334D01*
X144069178Y-97231295D01*
X144528567Y-97691486D01*
X145129093Y-97940846D01*
X145779334Y-97941414D01*
X146380295Y-97693102D01*
X146840486Y-97233713D01*
X147089846Y-96633187D01*
X147090414Y-95982946D01*
X146842102Y-95381985D01*
X146452710Y-94991913D01*
X146840486Y-94604813D01*
X147089846Y-94004287D01*
X147090414Y-93354046D01*
X146842102Y-92753085D01*
X146480654Y-92391006D01*
X146835406Y-92036873D01*
X147084766Y-91436347D01*
X147084768Y-91433494D01*
X153975786Y-91433494D01*
X154224098Y-92034455D01*
X154585546Y-92396534D01*
X154230794Y-92750667D01*
X153981434Y-93351193D01*
X153980866Y-94001434D01*
X154229178Y-94602395D01*
X154618570Y-94992467D01*
X154230794Y-95379567D01*
X153981434Y-95980093D01*
X153980866Y-96630334D01*
X154229178Y-97231295D01*
X154688567Y-97691486D01*
X155289093Y-97940846D01*
X155939334Y-97941414D01*
X156540295Y-97693102D01*
X157000486Y-97233713D01*
X157249846Y-96633187D01*
X157250414Y-95982946D01*
X157147394Y-95733617D01*
X164160200Y-95733617D01*
X164160200Y-95782383D01*
X164254940Y-96258671D01*
X164524735Y-96662448D01*
X164928512Y-96932243D01*
X165404800Y-97026983D01*
X165881088Y-96932243D01*
X166284865Y-96662448D01*
X166554660Y-96258671D01*
X166649400Y-95782383D01*
X166649400Y-95733617D01*
X170967400Y-95733617D01*
X170967400Y-95782383D01*
X171062140Y-96258671D01*
X171331935Y-96662448D01*
X171735712Y-96932243D01*
X172212000Y-97026983D01*
X172688288Y-96932243D01*
X173092065Y-96662448D01*
X173361860Y-96258671D01*
X173456600Y-95782383D01*
X173456600Y-95733617D01*
X177952400Y-95733617D01*
X177952400Y-95782383D01*
X178047140Y-96258671D01*
X178316935Y-96662448D01*
X178720712Y-96932243D01*
X179197000Y-97026983D01*
X179673288Y-96932243D01*
X180077065Y-96662448D01*
X180346860Y-96258671D01*
X180441600Y-95782383D01*
X180441600Y-95733617D01*
X180346860Y-95257329D01*
X180077065Y-94853552D01*
X179673288Y-94583757D01*
X179197000Y-94489017D01*
X178720712Y-94583757D01*
X178316935Y-94853552D01*
X178047140Y-95257329D01*
X177952400Y-95733617D01*
X173456600Y-95733617D01*
X173361860Y-95257329D01*
X173092065Y-94853552D01*
X172688288Y-94583757D01*
X172212000Y-94489017D01*
X171735712Y-94583757D01*
X171331935Y-94853552D01*
X171062140Y-95257329D01*
X170967400Y-95733617D01*
X166649400Y-95733617D01*
X166554660Y-95257329D01*
X166284865Y-94853552D01*
X165881088Y-94583757D01*
X165404800Y-94489017D01*
X164928512Y-94583757D01*
X164524735Y-94853552D01*
X164254940Y-95257329D01*
X164160200Y-95733617D01*
X157147394Y-95733617D01*
X157002102Y-95381985D01*
X156612710Y-94991913D01*
X157000486Y-94604813D01*
X157249846Y-94004287D01*
X157250414Y-93354046D01*
X157184127Y-93193617D01*
X164160200Y-93193617D01*
X164160200Y-93242383D01*
X164254940Y-93718671D01*
X164524735Y-94122448D01*
X164928512Y-94392243D01*
X165404800Y-94486983D01*
X165881088Y-94392243D01*
X166284865Y-94122448D01*
X166554660Y-93718671D01*
X166649400Y-93242383D01*
X166649400Y-93193617D01*
X170967400Y-93193617D01*
X170967400Y-93242383D01*
X171062140Y-93718671D01*
X171331935Y-94122448D01*
X171735712Y-94392243D01*
X172212000Y-94486983D01*
X172688288Y-94392243D01*
X173092065Y-94122448D01*
X173361860Y-93718671D01*
X173456600Y-93242383D01*
X173456600Y-93193617D01*
X177952400Y-93193617D01*
X177952400Y-93242383D01*
X178047140Y-93718671D01*
X178316935Y-94122448D01*
X178720712Y-94392243D01*
X179197000Y-94486983D01*
X179673288Y-94392243D01*
X180077065Y-94122448D01*
X180346860Y-93718671D01*
X180441600Y-93242383D01*
X180441600Y-93193617D01*
X180346860Y-92717329D01*
X180077065Y-92313552D01*
X179673288Y-92043757D01*
X179197000Y-91949017D01*
X178720712Y-92043757D01*
X178316935Y-92313552D01*
X178047140Y-92717329D01*
X177952400Y-93193617D01*
X173456600Y-93193617D01*
X173361860Y-92717329D01*
X173092065Y-92313552D01*
X172688288Y-92043757D01*
X172212000Y-91949017D01*
X171735712Y-92043757D01*
X171331935Y-92313552D01*
X171062140Y-92717329D01*
X170967400Y-93193617D01*
X166649400Y-93193617D01*
X166554660Y-92717329D01*
X166284865Y-92313552D01*
X165881088Y-92043757D01*
X165404800Y-91949017D01*
X164928512Y-92043757D01*
X164524735Y-92313552D01*
X164254940Y-92717329D01*
X164160200Y-93193617D01*
X157184127Y-93193617D01*
X157002102Y-92753085D01*
X156640654Y-92391006D01*
X156995406Y-92036873D01*
X157244766Y-91436347D01*
X157245334Y-90786106D01*
X156997022Y-90185145D01*
X156537633Y-89724954D01*
X155937107Y-89475594D01*
X155286866Y-89475026D01*
X154685905Y-89723338D01*
X154225714Y-90182727D01*
X153976354Y-90783253D01*
X153975786Y-91433494D01*
X147084768Y-91433494D01*
X147085334Y-90786106D01*
X146837022Y-90185145D01*
X146377633Y-89724954D01*
X145777107Y-89475594D01*
X145126866Y-89475026D01*
X144525905Y-89723338D01*
X144065714Y-90182727D01*
X143816354Y-90783253D01*
X143815786Y-91433494D01*
X143310757Y-91433494D01*
X143433430Y-91138066D01*
X143433876Y-90626766D01*
X143238622Y-90154215D01*
X142877394Y-89792356D01*
X142405186Y-89596278D01*
X141893886Y-89595832D01*
X141421335Y-89791086D01*
X141059476Y-90152314D01*
X140863398Y-90624522D01*
X140862952Y-91135822D01*
X127507200Y-91135822D01*
X127507200Y-89691852D01*
X127789833Y-89691852D01*
X127888496Y-89958707D01*
X128498221Y-90185228D01*
X129148220Y-90161176D01*
X129637024Y-89958707D01*
X129735687Y-89691852D01*
X128762760Y-88718925D01*
X127789833Y-89691852D01*
X127507200Y-89691852D01*
X127507200Y-89474155D01*
X127610228Y-89512247D01*
X128583155Y-88539320D01*
X128942365Y-88539320D01*
X129915292Y-89512247D01*
X130182147Y-89413584D01*
X130386653Y-88863115D01*
X134727156Y-88863115D01*
X134975546Y-89464263D01*
X135435077Y-89924598D01*
X136035792Y-90174036D01*
X136686235Y-90174604D01*
X137287383Y-89926214D01*
X137747718Y-89466683D01*
X137997156Y-88865968D01*
X137997724Y-88215525D01*
X137749334Y-87614377D01*
X137289803Y-87154042D01*
X136689088Y-86904604D01*
X136038645Y-86904036D01*
X135437497Y-87152426D01*
X134977162Y-87611957D01*
X134727724Y-88212672D01*
X134727156Y-88863115D01*
X130386653Y-88863115D01*
X130408668Y-88803859D01*
X130384616Y-88153860D01*
X130182147Y-87665056D01*
X129915292Y-87566393D01*
X128942365Y-88539320D01*
X128583155Y-88539320D01*
X127610228Y-87566393D01*
X127507200Y-87604485D01*
X127507200Y-87386788D01*
X127789833Y-87386788D01*
X128762760Y-88359715D01*
X129735687Y-87386788D01*
X129637024Y-87119933D01*
X129027299Y-86893412D01*
X128377300Y-86917464D01*
X127888496Y-87119933D01*
X127789833Y-87386788D01*
X127507200Y-87386788D01*
X127507200Y-84962200D01*
X141311472Y-84962200D01*
X140942060Y-85114838D01*
M02*
