<?xml version="1.0" standalone="no"?>
 <!DOCTYPE svg PUBLIC "-//W3C//DTD SVG 1.1//EN" 
 "http://www.w3.org/Graphics/SVG/1.1/DTD/svg11.dtd"> 
<svg xmlns="http://www.w3.org/2000/svg" version="1.1" 
    width="29.7002cm" height="21.0007cm" viewBox="0 0 116930 82680 ">
<title>SVG Picture created as bats-B.Cu.svg date 2016/11/25 18:30:55 </title>
  <desc>Picture generated by PCBNEW </desc>
<g style="fill:#000000; fill-opacity:1;stroke:#000000; stroke-opacity:1;
stroke-linecap:round; stroke-linejoin:round; "
 transform="translate(0 0) scale(1 1)">
</g>
<g style="fill:#000000; fill-opacity:0.0; 
stroke:#000000; stroke-width:-0.000393701; stroke-opacity:1; 
stroke-linecap:round; stroke-linejoin:round;">
</g>
<g style="fill:#000000; fill-opacity:0.0; 
stroke:#000000; stroke-width:600; stroke-opacity:1; 
stroke-linecap:round; stroke-linejoin:round;">
<path d="M64125 48095
L64125 48095
" />
<path d="M66685 48095
L66685 48095
" />
<path d="M64125 49875
L64125 49875
" />
<path d="M66685 49875
L66685 49875
" />
</g>
<g style="fill:#000000; fill-opacity:1.0; 
stroke:#000000; stroke-width:0; stroke-opacity:1; 
stroke-linecap:round; stroke-linejoin:round;">
<circle cx="73250" cy="46900" r="393.5" /> 
</g>
<g style="fill:#000000; fill-opacity:1.0; 
stroke:#000000; stroke-width:39.3701; stroke-opacity:1; 
stroke-linecap:round; stroke-linejoin:round;">
</g>
<g style="fill:#000000; fill-opacity:1.0; 
stroke:#000000; stroke-width:0; stroke-opacity:1; 
stroke-linecap:round; stroke-linejoin:round;">
<circle cx="69250" cy="46900" r="393.5" /> 
</g>
<g style="fill:#000000; fill-opacity:1.0; 
stroke:#000000; stroke-width:39.3701; stroke-opacity:1; 
stroke-linecap:round; stroke-linejoin:round;">
</g>
<g style="fill:#000000; fill-opacity:1.0; 
stroke:#000000; stroke-width:600; stroke-opacity:1; 
stroke-linecap:round; stroke-linejoin:round;">
</g>
<g style="fill:#000000; fill-opacity:0.0; 
stroke:#000000; stroke-width:600; stroke-opacity:1; 
stroke-linecap:round; stroke-linejoin:round;">
<path d="M71340 48150
L71340 48150
" />
<path d="M73900 48150
L73900 48150
" />
<path d="M71340 49930
L71340 49930
" />
<path d="M73900 49930
L73900 49930
" />
</g>
<g style="fill:#000000; fill-opacity:0.0; 
stroke:#000000; stroke-width:480; stroke-opacity:1; 
stroke-linecap:round; stroke-linejoin:round;">
<path d="M70921 38945
L70921 38945
" />
<path d="M70921 39945
L70921 39945
" />
<path d="M73551 38945
L73551 38945
" />
<path d="M73551 39945
L73551 39945
" />
</g>
<g style="fill:#000000; fill-opacity:1.0; 
stroke:#000000; stroke-width:0; stroke-opacity:1; 
stroke-linecap:round; stroke-linejoin:round;">
<circle cx="63600" cy="44700" r="393.5" /> 
</g>
<g style="fill:#000000; fill-opacity:1.0; 
stroke:#000000; stroke-width:39.3701; stroke-opacity:1; 
stroke-linecap:round; stroke-linejoin:round;">
</g>
<g style="fill:#000000; fill-opacity:1.0; 
stroke:#000000; stroke-width:0; stroke-opacity:1; 
stroke-linecap:round; stroke-linejoin:round;">
<circle cx="59600" cy="44700" r="393.5" /> 
</g>
<g style="fill:#000000; fill-opacity:1.0; 
stroke:#000000; stroke-width:39.3701; stroke-opacity:1; 
stroke-linecap:round; stroke-linejoin:round;">
</g>
<g style="fill:#000000; fill-opacity:1.0; 
stroke:#000000; stroke-width:0; stroke-opacity:1; 
stroke-linecap:round; stroke-linejoin:round;">
<circle cx="63600" cy="45650" r="393.5" /> 
</g>
<g style="fill:#000000; fill-opacity:1.0; 
stroke:#000000; stroke-width:39.3701; stroke-opacity:1; 
stroke-linecap:round; stroke-linejoin:round;">
</g>
<g style="fill:#000000; fill-opacity:1.0; 
stroke:#000000; stroke-width:0; stroke-opacity:1; 
stroke-linecap:round; stroke-linejoin:round;">
<circle cx="59600" cy="45650" r="393.5" /> 
</g>
<g style="fill:#000000; fill-opacity:1.0; 
stroke:#000000; stroke-width:39.3701; stroke-opacity:1; 
stroke-linecap:round; stroke-linejoin:round;">
</g>
<g style="fill:#000000; fill-opacity:1.0; 
stroke:#000000; stroke-width:600; stroke-opacity:1; 
stroke-linecap:round; stroke-linejoin:round;">
</g>
<g style="fill:#000000; fill-opacity:0.0; 
stroke:#000000; stroke-width:600; stroke-opacity:1; 
stroke-linecap:round; stroke-linejoin:round;">
<path d="M67590 48095
L67590 48095
" />
<path d="M70150 48095
L70150 48095
" />
<path d="M67590 49875
L67590 49875
" />
<path d="M70150 49875
L70150 49875
" />
<path d="M74984 53452
L74984 53052
" />
<path d="M73984 53452
L73984 53052
" />
<path d="M72984 53452
L72984 53052
" />
<path d="M69984 53452
L69984 53052
" />
<path d="M70984 53452
L70984 53052
" />
<path d="M71984 53452
L71984 53052
" />
<path d="M67984 53452
L67984 53052
" />
<path d="M66984 53452
L66984 53052
" />
<path d="M65984 53452
L65984 53052
" />
<path d="M63984 53452
L63984 53052
" />
<path d="M62984 53452
L62984 53052
" />
<path d="M74984 34452
L74984 34052
" />
<path d="M73984 34452
L73984 34052
" />
<path d="M72984 34452
L72984 34052
" />
<path d="M71984 34452
L71984 34052
" />
<path d="M70984 34452
L70984 34052
" />
<path d="M69984 34452
L69984 34052
" />
<path d="M68984 34452
L68984 34052
" />
<path d="M67984 34452
L67984 34052
" />
<path d="M66384 34452
L66384 34052
" />
<path d="M65384 34452
L65384 34052
" />
<path d="M64384 34452
L64384 34052
" />
<path d="M63384 34452
L63384 34052
" />
<path d="M62384 34452
L62384 34052
" />
<path d="M61384 34452
L61384 34052
" />
<path d="M60384 34452
L60384 34052
" />
<path d="M59384 34452
L59384 34052
" />
<path d="M64984 53452
L64984 53052
" />
<path d="M58384 34452
L58384 34052
" />
<path d="M57384 34452
L57384 34052
" />
<path d="M61984 53452
L61984 53052
" />
<path d="M60984 53452
L60984 53052
" />
</g>
<g style="fill:#000000; fill-opacity:1.0; 
stroke:#000000; stroke-width:0; stroke-opacity:1; 
stroke-linecap:round; stroke-linejoin:round;">
<circle cx="74984" cy="42252" r="300" /> 
</g>
<g style="fill:#000000; fill-opacity:1.0; 
stroke:#000000; stroke-width:39.3701; stroke-opacity:1; 
stroke-linecap:round; stroke-linejoin:round;">
</g>
<g style="fill:#000000; fill-opacity:1.0; 
stroke:#000000; stroke-width:0; stroke-opacity:1; 
stroke-linecap:round; stroke-linejoin:round;">
<circle cx="75984" cy="42252" r="300" /> 
</g>
<g style="fill:#000000; fill-opacity:1.0; 
stroke:#000000; stroke-width:39.3701; stroke-opacity:1; 
stroke-linecap:round; stroke-linejoin:round;">
</g>
<g style="fill:#000000; fill-opacity:1.0; 
stroke:#000000; stroke-width:0; stroke-opacity:1; 
stroke-linecap:round; stroke-linejoin:round;">
<circle cx="74984" cy="43252" r="300" /> 
</g>
<g style="fill:#000000; fill-opacity:1.0; 
stroke:#000000; stroke-width:39.3701; stroke-opacity:1; 
stroke-linecap:round; stroke-linejoin:round;">
</g>
<g style="fill:#000000; fill-opacity:1.0; 
stroke:#000000; stroke-width:0; stroke-opacity:1; 
stroke-linecap:round; stroke-linejoin:round;">
<circle cx="75984" cy="43252" r="300" /> 
</g>
<g style="fill:#000000; fill-opacity:1.0; 
stroke:#000000; stroke-width:39.3701; stroke-opacity:1; 
stroke-linecap:round; stroke-linejoin:round;">
</g>
<g style="fill:#000000; fill-opacity:1.0; 
stroke:#000000; stroke-width:0; stroke-opacity:1; 
stroke-linecap:round; stroke-linejoin:round;">
<circle cx="74984" cy="44252" r="300" /> 
</g>
<g style="fill:#000000; fill-opacity:1.0; 
stroke:#000000; stroke-width:39.3701; stroke-opacity:1; 
stroke-linecap:round; stroke-linejoin:round;">
</g>
<g style="fill:#000000; fill-opacity:1.0; 
stroke:#000000; stroke-width:0; stroke-opacity:1; 
stroke-linecap:round; stroke-linejoin:round;">
<circle cx="75984" cy="44252" r="300" /> 
</g>
<g style="fill:#000000; fill-opacity:1.0; 
stroke:#000000; stroke-width:39.3701; stroke-opacity:1; 
stroke-linecap:round; stroke-linejoin:round;">
</g>
<g style="fill:#000000; fill-opacity:1.0; 
stroke:#000000; stroke-width:0; stroke-opacity:1; 
stroke-linecap:round; stroke-linejoin:round;">
<circle cx="54710" cy="48468.9" r="629.921" /> 
</g>
<g style="fill:#000000; fill-opacity:1.0; 
stroke:#000000; stroke-width:39.3701; stroke-opacity:1; 
stroke-linecap:round; stroke-linejoin:round;">
</g>
<g style="fill:#000000; fill-opacity:1.0; 
stroke:#000000; stroke-width:0; stroke-opacity:1; 
stroke-linecap:round; stroke-linejoin:round;">
<circle cx="54710" cy="45083.1" r="629.921" /> 
</g>
<g style="fill:#000000; fill-opacity:1.0; 
stroke:#000000; stroke-width:39.3701; stroke-opacity:1; 
stroke-linecap:round; stroke-linejoin:round;">
</g>
<g style="fill:#000000; fill-opacity:1.0; 
stroke:#000000; stroke-width:0; stroke-opacity:1; 
stroke-linecap:round; stroke-linejoin:round;">
<circle cx="57465.9" cy="46776" r="354.331" /> 
</g>
<g style="fill:#000000; fill-opacity:1.0; 
stroke:#000000; stroke-width:39.3701; stroke-opacity:1; 
stroke-linecap:round; stroke-linejoin:round;">
</g>
<g style="fill:#000000; fill-opacity:1.0; 
stroke:#000000; stroke-width:0; stroke-opacity:1; 
stroke-linecap:round; stroke-linejoin:round;">
<circle cx="57465.9" cy="47760.3" r="354.331" /> 
</g>
<g style="fill:#000000; fill-opacity:1.0; 
stroke:#000000; stroke-width:39.3701; stroke-opacity:1; 
stroke-linecap:round; stroke-linejoin:round;">
</g>
<g style="fill:#000000; fill-opacity:1.0; 
stroke:#000000; stroke-width:0; stroke-opacity:1; 
stroke-linecap:round; stroke-linejoin:round;">
<circle cx="57465.9" cy="45791.7" r="354.331" /> 
</g>
<g style="fill:#000000; fill-opacity:1.0; 
stroke:#000000; stroke-width:39.3701; stroke-opacity:1; 
stroke-linecap:round; stroke-linejoin:round;">
</g>
<g style="fill:#000000; fill-opacity:1.0; 
stroke:#000000; stroke-width:0; stroke-opacity:1; 
stroke-linecap:round; stroke-linejoin:round;">
<circle cx="55963.9" cy="38142" r="256" /> 
</g>
<g style="fill:#000000; fill-opacity:1.0; 
stroke:#000000; stroke-width:39.3701; stroke-opacity:1; 
stroke-linecap:round; stroke-linejoin:round;">
</g>
<g style="fill:#000000; fill-opacity:1.0; 
stroke:#000000; stroke-width:0; stroke-opacity:1; 
stroke-linecap:round; stroke-linejoin:round;">
<circle cx="55963.9" cy="35780" r="256" /> 
</g>
<g style="fill:#000000; fill-opacity:1.0; 
stroke:#000000; stroke-width:39.3701; stroke-opacity:1; 
stroke-linecap:round; stroke-linejoin:round;">
</g>
<g style="fill:#000000; fill-opacity:1.0; 
stroke:#000000; stroke-width:0; stroke-opacity:1; 
stroke-linecap:round; stroke-linejoin:round;">
<polyline style="fill-rule:evenodd;"
points="55707,36311
56219,36311
56219,36823
55707,36823
55707,36311
" /> 
<circle cx="55963.9" cy="37355" r="256" /> 
</g>
<g style="fill:#000000; fill-opacity:1.0; 
stroke:#000000; stroke-width:39.3701; stroke-opacity:1; 
stroke-linecap:round; stroke-linejoin:round;">
</g>
<g style="fill:#000000; fill-opacity:1.0; 
stroke:#000000; stroke-width:600; stroke-opacity:1; 
stroke-linecap:round; stroke-linejoin:round;">
</g>
<g style="fill:#000000; fill-opacity:0.0; 
stroke:#000000; stroke-width:600; stroke-opacity:1; 
stroke-linecap:round; stroke-linejoin:round;">
<path d="M71700 43125
L71700 43125
" />
<path d="M70700 43125
L70700 43125
" />
<path d="M69700 43125
L69700 43125
" />
</g>
<g style="fill:#000000; fill-opacity:1.0; 
stroke:#000000; stroke-width:0; stroke-opacity:1; 
stroke-linecap:round; stroke-linejoin:round;">
<circle cx="54690" cy="43620" r="629.921" /> 
</g>
<g style="fill:#000000; fill-opacity:1.0; 
stroke:#000000; stroke-width:39.3701; stroke-opacity:1; 
stroke-linecap:round; stroke-linejoin:round;">
</g>
<g style="fill:#000000; fill-opacity:1.0; 
stroke:#000000; stroke-width:0; stroke-opacity:1; 
stroke-linecap:round; stroke-linejoin:round;">
<circle cx="54690" cy="40234.2" r="629.921" /> 
</g>
<g style="fill:#000000; fill-opacity:1.0; 
stroke:#000000; stroke-width:39.3701; stroke-opacity:1; 
stroke-linecap:round; stroke-linejoin:round;">
</g>
<g style="fill:#000000; fill-opacity:1.0; 
stroke:#000000; stroke-width:0; stroke-opacity:1; 
stroke-linecap:round; stroke-linejoin:round;">
<circle cx="57445.9" cy="41927.1" r="354.331" /> 
</g>
<g style="fill:#000000; fill-opacity:1.0; 
stroke:#000000; stroke-width:39.3701; stroke-opacity:1; 
stroke-linecap:round; stroke-linejoin:round;">
</g>
<g style="fill:#000000; fill-opacity:1.0; 
stroke:#000000; stroke-width:0; stroke-opacity:1; 
stroke-linecap:round; stroke-linejoin:round;">
<circle cx="57445.9" cy="42911.3" r="354.331" /> 
</g>
<g style="fill:#000000; fill-opacity:1.0; 
stroke:#000000; stroke-width:39.3701; stroke-opacity:1; 
stroke-linecap:round; stroke-linejoin:round;">
</g>
<g style="fill:#000000; fill-opacity:1.0; 
stroke:#000000; stroke-width:0; stroke-opacity:1; 
stroke-linecap:round; stroke-linejoin:round;">
<circle cx="57445.9" cy="40942.8" r="354.331" /> 
</g>
<g style="fill:#000000; fill-opacity:1.0; 
stroke:#000000; stroke-width:39.3701; stroke-opacity:1; 
stroke-linecap:round; stroke-linejoin:round;">
</g>
<g style="fill:#000000; fill-opacity:1.0; 
stroke:#000000; stroke-width:600; stroke-opacity:1; 
stroke-linecap:round; stroke-linejoin:round;">
</g>
<g style="fill:#000000; fill-opacity:0.0; 
stroke:#000000; stroke-width:600; stroke-opacity:1; 
stroke-linecap:round; stroke-linejoin:round;">
<path d="M50730 51730
L50730 51730
" />
<path d="M53290 51730
L53290 51730
" />
<path d="M50730 53510
L50730 53510
" />
<path d="M53290 53510
L53290 53510
" />
</g>
<g style="fill:#000000; fill-opacity:1.0; 
stroke:#000000; stroke-width:0; stroke-opacity:1; 
stroke-linecap:round; stroke-linejoin:round;">
<circle cx="50694" cy="34858" r="393.701" /> 
</g>
<g style="fill:#000000; fill-opacity:1.0; 
stroke:#000000; stroke-width:39.3701; stroke-opacity:1; 
stroke-linecap:round; stroke-linejoin:round;">
</g>
<g style="fill:#000000; fill-opacity:1.0; 
stroke:#000000; stroke-width:0; stroke-opacity:1; 
stroke-linecap:round; stroke-linejoin:round;">
<circle cx="53686" cy="34858" r="393.701" /> 
</g>
<g style="fill:#000000; fill-opacity:1.0; 
stroke:#000000; stroke-width:39.3701; stroke-opacity:1; 
stroke-linecap:round; stroke-linejoin:round;">
</g>
<g style="fill:#000000; fill-opacity:1.0; 
stroke:#000000; stroke-width:0; stroke-opacity:1; 
stroke-linecap:round; stroke-linejoin:round;">
<circle cx="54302" cy="50160" r="393.5" /> 
</g>
<g style="fill:#000000; fill-opacity:1.0; 
stroke:#000000; stroke-width:39.3701; stroke-opacity:1; 
stroke-linecap:round; stroke-linejoin:round;">
</g>
<g style="fill:#000000; fill-opacity:1.0; 
stroke:#000000; stroke-width:0; stroke-opacity:1; 
stroke-linecap:round; stroke-linejoin:round;">
<circle cx="58302" cy="50160" r="393.5" /> 
</g>
<g style="fill:#000000; fill-opacity:1.0; 
stroke:#000000; stroke-width:39.3701; stroke-opacity:1; 
stroke-linecap:round; stroke-linejoin:round;">
</g>
<g style="fill:#000000; fill-opacity:1.0; 
stroke:#000000; stroke-width:0; stroke-opacity:1; 
stroke-linecap:round; stroke-linejoin:round;">
<circle cx="58290" cy="51206" r="393.5" /> 
</g>
<g style="fill:#000000; fill-opacity:1.0; 
stroke:#000000; stroke-width:39.3701; stroke-opacity:1; 
stroke-linecap:round; stroke-linejoin:round;">
</g>
<g style="fill:#000000; fill-opacity:1.0; 
stroke:#000000; stroke-width:0; stroke-opacity:1; 
stroke-linecap:round; stroke-linejoin:round;">
<circle cx="54290" cy="51206" r="393.5" /> 
</g>
<g style="fill:#000000; fill-opacity:1.0; 
stroke:#000000; stroke-width:39.3701; stroke-opacity:1; 
stroke-linecap:round; stroke-linejoin:round;">
</g>
<g style="fill:#000000; fill-opacity:1.0; 
stroke:#000000; stroke-width:0; stroke-opacity:1; 
stroke-linecap:round; stroke-linejoin:round;">
<circle cx="63611" cy="41617" r="393.5" /> 
</g>
<g style="fill:#000000; fill-opacity:1.0; 
stroke:#000000; stroke-width:39.3701; stroke-opacity:1; 
stroke-linecap:round; stroke-linejoin:round;">
</g>
<g style="fill:#000000; fill-opacity:1.0; 
stroke:#000000; stroke-width:0; stroke-opacity:1; 
stroke-linecap:round; stroke-linejoin:round;">
<circle cx="59611" cy="41617" r="393.5" /> 
</g>
<g style="fill:#000000; fill-opacity:1.0; 
stroke:#000000; stroke-width:39.3701; stroke-opacity:1; 
stroke-linecap:round; stroke-linejoin:round;">
</g>
<g style="fill:#000000; fill-opacity:1.0; 
stroke:#000000; stroke-width:0; stroke-opacity:1; 
stroke-linecap:round; stroke-linejoin:round;">
<circle cx="63611" cy="42668.2" r="393.5" /> 
</g>
<g style="fill:#000000; fill-opacity:1.0; 
stroke:#000000; stroke-width:39.3701; stroke-opacity:1; 
stroke-linecap:round; stroke-linejoin:round;">
</g>
<g style="fill:#000000; fill-opacity:1.0; 
stroke:#000000; stroke-width:0; stroke-opacity:1; 
stroke-linecap:round; stroke-linejoin:round;">
<circle cx="59611" cy="42668.2" r="393.5" /> 
</g>
<g style="fill:#000000; fill-opacity:1.0; 
stroke:#000000; stroke-width:39.3701; stroke-opacity:1; 
stroke-linecap:round; stroke-linejoin:round;">
</g>
<g style="fill:#000000; fill-opacity:1.0; 
stroke:#000000; stroke-width:0; stroke-opacity:1; 
stroke-linecap:round; stroke-linejoin:round;">
<circle cx="63611" cy="43677" r="393.5" /> 
</g>
<g style="fill:#000000; fill-opacity:1.0; 
stroke:#000000; stroke-width:39.3701; stroke-opacity:1; 
stroke-linecap:round; stroke-linejoin:round;">
</g>
<g style="fill:#000000; fill-opacity:1.0; 
stroke:#000000; stroke-width:0; stroke-opacity:1; 
stroke-linecap:round; stroke-linejoin:round;">
<circle cx="59611" cy="43677" r="393.5" /> 
</g>
<g style="fill:#000000; fill-opacity:1.0; 
stroke:#000000; stroke-width:39.3701; stroke-opacity:1; 
stroke-linecap:round; stroke-linejoin:round;">
</g>
<g style="fill:#000000; fill-opacity:1.0; 
stroke:#000000; stroke-width:0; stroke-opacity:1; 
stroke-linecap:round; stroke-linejoin:round;">
<circle cx="57264" cy="35870" r="393.5" /> 
</g>
<g style="fill:#000000; fill-opacity:1.0; 
stroke:#000000; stroke-width:39.3701; stroke-opacity:1; 
stroke-linecap:round; stroke-linejoin:round;">
</g>
<g style="fill:#000000; fill-opacity:1.0; 
stroke:#000000; stroke-width:0; stroke-opacity:1; 
stroke-linecap:round; stroke-linejoin:round;">
<circle cx="61264" cy="35870" r="393.5" /> 
</g>
<g style="fill:#000000; fill-opacity:1.0; 
stroke:#000000; stroke-width:39.3701; stroke-opacity:1; 
stroke-linecap:round; stroke-linejoin:round;">
</g>
<g style="fill:#000000; fill-opacity:1.0; 
stroke:#000000; stroke-width:0; stroke-opacity:1; 
stroke-linecap:round; stroke-linejoin:round;">
<circle cx="57266" cy="36881" r="393.5" /> 
</g>
<g style="fill:#000000; fill-opacity:1.0; 
stroke:#000000; stroke-width:39.3701; stroke-opacity:1; 
stroke-linecap:round; stroke-linejoin:round;">
</g>
<g style="fill:#000000; fill-opacity:1.0; 
stroke:#000000; stroke-width:0; stroke-opacity:1; 
stroke-linecap:round; stroke-linejoin:round;">
<circle cx="61266" cy="36881" r="393.5" /> 
</g>
<g style="fill:#000000; fill-opacity:1.0; 
stroke:#000000; stroke-width:39.3701; stroke-opacity:1; 
stroke-linecap:round; stroke-linejoin:round;">
</g>
<g style="fill:#000000; fill-opacity:1.0; 
stroke:#000000; stroke-width:0; stroke-opacity:1; 
stroke-linecap:round; stroke-linejoin:round;">
<circle cx="57266" cy="37916" r="393.5" /> 
</g>
<g style="fill:#000000; fill-opacity:1.0; 
stroke:#000000; stroke-width:39.3701; stroke-opacity:1; 
stroke-linecap:round; stroke-linejoin:round;">
</g>
<g style="fill:#000000; fill-opacity:1.0; 
stroke:#000000; stroke-width:0; stroke-opacity:1; 
stroke-linecap:round; stroke-linejoin:round;">
<circle cx="61266" cy="37916" r="393.5" /> 
</g>
<g style="fill:#000000; fill-opacity:1.0; 
stroke:#000000; stroke-width:39.3701; stroke-opacity:1; 
stroke-linecap:round; stroke-linejoin:round;">
</g>
<g style="fill:#000000; fill-opacity:1.0; 
stroke:#000000; stroke-width:0; stroke-opacity:1; 
stroke-linecap:round; stroke-linejoin:round;">
<circle cx="71625" cy="45500" r="393.5" /> 
</g>
<g style="fill:#000000; fill-opacity:1.0; 
stroke:#000000; stroke-width:39.3701; stroke-opacity:1; 
stroke-linecap:round; stroke-linejoin:round;">
</g>
<g style="fill:#000000; fill-opacity:1.0; 
stroke:#000000; stroke-width:0; stroke-opacity:1; 
stroke-linecap:round; stroke-linejoin:round;">
<circle cx="67625" cy="45500" r="393.5" /> 
</g>
<g style="fill:#000000; fill-opacity:1.0; 
stroke:#000000; stroke-width:39.3701; stroke-opacity:1; 
stroke-linecap:round; stroke-linejoin:round;">
</g>
<g style="fill:#000000; fill-opacity:1.0; 
stroke:#000000; stroke-width:0; stroke-opacity:1; 
stroke-linecap:round; stroke-linejoin:round;">
<circle cx="63571" cy="46850" r="393.5" /> 
</g>
<g style="fill:#000000; fill-opacity:1.0; 
stroke:#000000; stroke-width:39.3701; stroke-opacity:1; 
stroke-linecap:round; stroke-linejoin:round;">
</g>
<g style="fill:#000000; fill-opacity:1.0; 
stroke:#000000; stroke-width:0; stroke-opacity:1; 
stroke-linecap:round; stroke-linejoin:round;">
<circle cx="67571" cy="46850" r="393.5" /> 
</g>
<g style="fill:#000000; fill-opacity:1.0; 
stroke:#000000; stroke-width:39.3701; stroke-opacity:1; 
stroke-linecap:round; stroke-linejoin:round;">
</g>
<g style="fill:#000000; fill-opacity:1.0; 
stroke:#000000; stroke-width:480; stroke-opacity:1; 
stroke-linecap:round; stroke-linejoin:round;">
</g>
<g style="fill:#000000; fill-opacity:0.0; 
stroke:#000000; stroke-width:480; stroke-opacity:1; 
stroke-linecap:round; stroke-linejoin:round;">
<path d="M62970 39000
L62970 39000
" />
<path d="M62970 40000
L62970 40000
" />
<path d="M65650 39000
L65650 39000
" />
<path d="M65650 40000
L65650 40000
" />
<path d="M68400 39000
L68400 39000
" />
<path d="M68400 40000
L68400 40000
" />
</g>
<g style="fill:#000000; fill-opacity:0.0; 
stroke:#000000; stroke-width:200; stroke-opacity:1; 
stroke-linecap:round; stroke-linejoin:round;">
<path d="M64125 48095
L57800 48095
" />
<path d="M57800 48095
L57465 47760
" />
<path d="M64984 53252
L64984 48954
" />
<path d="M64984 48954
L64125 48095
" />
<path d="M70150 48095
L71285 48095
" />
<path d="M71285 48095
L71340 48150
" />
</g>
<g style="fill:#000000; fill-opacity:1.0; 
stroke:#000000; stroke-width:100; stroke-opacity:1; 
stroke-linecap:round; stroke-linejoin:round;">
<polyline style="fill-rule:evenodd;"
points="55489,33509
55242,33755
55109,34077
55108,34425
55241,34747
55487,34993
55809,35126
56157,35127
56479,34994
56725,34748
56836,34480
56875,34677
56995,34855
57173,34974
57384,35016
57594,34974
57772,34855
57884,34689
57995,34855
58173,34974
58384,35016
58594,34974
58772,34855
58884,34689
58995,34855
59173,34974
59384,35016
59594,34974
59772,34855
59887,34683
59895,34708
60030,34876
60219,34979
60248,34985
60334,34936
60334,34302
60326,34302
60326,34202
60334,34202
60334,33567
60434,33567
60434,34202
60441,34202
60441,34302
60434,34302
60434,34936
60519,34985
60548,34979
60737,34876
60872,34708
60880,34683
60995,34855
61173,34974
61384,35016
61594,34974
61772,34855
61884,34689
61995,34855
62173,34974
62384,35016
62594,34974
62772,34855
62884,34689
62995,34855
63173,34974
63384,35016
63594,34974
63772,34855
63884,34689
63995,34855
64173,34974
64384,35016
64594,34974
64772,34855
64884,34689
64995,34855
65173,34974
65384,35016
65594,34974
65772,34855
65884,34689
65995,34855
66173,34974
66384,35016
66594,34974
66772,34855
66892,34677
66934,34466
66934,34037
67434,34037
67434,34466
67475,34677
67595,34855
67773,34974
67984,35016
68194,34974
68372,34855
68484,34689
68595,34855
68773,34974
68984,35016
69194,34974
69372,34855
69484,34689
69595,34855
69773,34974
69984,35016
70194,34974
70372,34855
70484,34689
70595,34855
70773,34974
70984,35016
71194,34974
71372,34855
71484,34689
71595,34855
71773,34974
71984,35016
72194,34974
72372,34855
72484,34689
72595,34855
72773,34974
72984,35016
73194,34974
73372,34855
73484,34689
73595,34855
73773,34974
73984,35016
74194,34974
74372,34855
74484,34689
74595,34855
74773,34974
74984,35016
75194,34974
75372,34855
75492,34677
75534,34466
75534,34037
75492,33826
75372,33648
75194,33529
74984,33487
74773,33529
74595,33648
74484,33814
74372,33648
74194,33529
73984,33487
73773,33529
73595,33648
73484,33814
73372,33648
73194,33529
72984,33487
72773,33529
72595,33648
72484,33814
72372,33648
72194,33529
71984,33487
71773,33529
71595,33648
71484,33814
71372,33648
71194,33529
70984,33487
70773,33529
70595,33648
70484,33814
70372,33648
70194,33529
69984,33487
69773,33529
69595,33648
69484,33814
69372,33648
69194,33529
68984,33487
68773,33529
68595,33648
68484,33814
68372,33648
68194,33529
67984,33487
67773,33529
67595,33648
67475,33826
67434,34037
66934,34037
66892,33826
66772,33648
66594,33529
66384,33487
66173,33529
65995,33648
65884,33814
65772,33648
65594,33529
65384,33487
65173,33529
64995,33648
64884,33814
64772,33648
64594,33529
64384,33487
64173,33529
63995,33648
63884,33814
63772,33648
63594,33529
63384,33487
63173,33529
62995,33648
62884,33814
62772,33648
62594,33529
62384,33487
62173,33529
61995,33648
61884,33814
61772,33648
61594,33529
61384,33487
61173,33529
60995,33648
60880,33820
60872,33795
60737,33627
60548,33524
60519,33518
60434,33567
60334,33567
60248,33518
60219,33524
60030,33627
59895,33795
59887,33820
59772,33648
59594,33529
59384,33487
59173,33529
58995,33648
58884,33814
58772,33648
58594,33529
58384,33487
58173,33529
57995,33648
57884,33814
57772,33648
57594,33529
57384,33487
57173,33529
56995,33648
56875,33826
56836,34024
56726,33757
56480,33510
56333,33449
75398,33449
75780,33831
75780,38220
75800,38323
75859,38410
76770,39321
76770,39863
76726,39757
76480,39510
76158,39377
75810,39376
75489,39509
75242,39755
75109,40077
75108,40425
75241,40747
75487,40993
75809,41126
76157,41127
76479,40994
76725,40748
76770,40640
76770,50863
76726,50757
76480,50510
76158,50377
75810,50376
75489,50509
75242,50755
75109,51077
75108,51425
75241,51747
75487,51993
75809,52126
76157,52127
76479,51994
76725,51748
76770,51640
76770,52158
75859,53069
75800,53156
75780,53260
75780,54030
55891,54030
55979,53994
56225,53748
56358,53426
56359,53078
56226,52757
55980,52510
55658,52377
55310,52376
54989,52509
54742,52755
54609,53077
54608,53425
54741,53747
54987,53993
55076,54030
53450,54030
53511,54018
53689,53898
53808,53720
53850,53510
53808,53299
53689,53121
53511,53001
53300,52960
53279,52960
53068,53001
52890,53121
52771,53299
52729,53510
52771,53720
52890,53898
53068,54018
53129,54030
50890,54030
50951,54018
51129,53898
51248,53720
51290,53510
51248,53299
51129,53121
50951,53001
50740,52960
50719,52960
50508,53001
50330,53121
50211,53299
50199,53356
50199,51871
50257,52011
50401,52170
50594,52263
50680,52215
50680,51780
50780,51780
50780,52215
50865,52263
51058,52170
51202,52011
51263,51865
52756,51865
52817,52011
52961,52170
53154,52263
53240,52215
53240,51780
53340,51780
53340,52215
53425,52263
53618,52170
53762,52011
53823,51865
53774,51780
53340,51780
53240,51780
52805,51780
52756,51865
51263,51865
51214,51780
50780,51780
50680,51780
50672,51780
50672,51680
50680,51680
50680,51244
50780,51244
50780,51680
51214,51680
51263,51594
52756,51594
52805,51680
53240,51680
53240,51244
53340,51244
53340,51680
53774,51680
53786,51659
53907,51659
53945,51764
54185,51853
54441,51844
54634,51764
54672,51659
54290,51276
53907,51659
53786,51659
53823,51594
53817,51582
53836,51588
54219,51206
54360,51206
54743,51588
54848,51550
54929,51333
57646,51333
57744,51570
57925,51751
58161,51849
58417,51849
58654,51751
58835,51570
58933,51334
58933,51078
58835,50841
58683,50688
58847,50524
58945,50288
58945,50032
58847,49795
58666,49614
58430,49516
58174,49516
57937,49614
57756,49795
57658,50031
57658,50287
57756,50524
57908,50677
57744,50841
57646,51077
57646,51333
54929,51333
54937,51310
54928,51054
54848,50861
54743,50823
54360,51206
54219,51206
53836,50823
53731,50861
53642,51101
53650,51324
53618,51289
53425,51196
53340,51244
53240,51244
53154,51196
52961,51289
52817,51448
52756,51594
51263,51594
51202,51448
51058,51289
50865,51196
50780,51244
50680,51244
50594,51196
50401,51289
50257,51448
50199,51588
50199,50287
53658,50287
53756,50524
53927,50696
53907,50752
54290,51135
54672,50752
54657,50709
54666,50705
54847,50524
54945,50288
54945,50032
54847,49795
54666,49614
54430,49516
54174,49516
53937,49614
53756,49795
53658,50031
53658,50287
50199,50287
50199,48643
53829,48643
53963,48966
54210,49214
54534,49348
54884,49348
55207,49215
55455,48967
55589,48644
55590,48294
55456,47971
55209,47723
54885,47589
54535,47588
54212,47722
53964,47969
53830,48293
53829,48643
50199,48643
50199,46895
56861,46895
56953,47117
57103,47268
56953,47417
56861,47639
56861,47879
56953,48102
57123,48272
57345,48364
57585,48364
57586,48364
57666,48418
57800,48445
63699,48445
63725,48483
63903,48603
64114,48645
64135,48645
64172,48637
64634,49098
64634,49649
64524,49486
64346,49366
64135,49325
64114,49325
63903,49366
63725,49486
63606,49664
63564,49875
63606,50085
63725,50263
63903,50383
64114,50425
64135,50425
64346,50383
64524,50263
64634,50100
64634,52622
64595,52648
64484,52814
64372,52648
64194,52529
63984,52487
63773,52529
63595,52648
63484,52814
63372,52648
63194,52529
62984,52487
62773,52529
62595,52648
62484,52814
62372,52648
62194,52529
61984,52487
61773,52529
61595,52648
61484,52814
61372,52648
61194,52529
60984,52487
60773,52529
60595,52648
60475,52826
60434,53037
60434,53466
60475,53677
60595,53855
60773,53974
60984,54016
61194,53974
61372,53855
61484,53689
61595,53855
61773,53974
61984,54016
62194,53974
62372,53855
62484,53689
62595,53855
62773,53974
62984,54016
63194,53974
63372,53855
63484,53689
63595,53855
63773,53974
63984,54016
64194,53974
64372,53855
64484,53689
64595,53855
64773,53974
64984,54016
65194,53974
65372,53855
65487,53683
65495,53708
65630,53876
65819,53979
65848,53985
65934,53936
65934,53302
66034,53302
66034,53936
66119,53985
66148,53979
66337,53876
66472,53708
66484,53671
66495,53708
66630,53876
66819,53979
66848,53985
66934,53936
66934,53302
66034,53302
65934,53302
65926,53302
65926,53202
65934,53202
65934,52567
66034,52567
66034,53202
66934,53202
66934,52567
67034,52567
67034,53202
67041,53202
67041,53302
67034,53302
67034,53936
67119,53985
67148,53979
67337,53876
67472,53708
67480,53683
67595,53855
67773,53974
67984,54016
68194,53974
68372,53855
68492,53677
68534,53466
68534,53037
69434,53037
69434,53466
69475,53677
69595,53855
69773,53974
69984,54016
70194,53974
70372,53855
70484,53689
70595,53855
70773,53974
70984,54016
71194,53974
71372,53855
71484,53689
71595,53855
71773,53974
71984,54016
72194,53974
72372,53855
72484,53689
72595,53855
72773,53974
72984,54016
73194,53974
73372,53855
73484,53689
73595,53855
73773,53974
73984,54016
74194,53974
74372,53855
74484,53689
74595,53855
74773,53974
74984,54016
75194,53974
75372,53855
75492,53677
75534,53466
75534,53037
75492,52826
75372,52648
75194,52529
74984,52487
74773,52529
74595,52648
74484,52814
74372,52648
74194,52529
73984,52487
73773,52529
73595,52648
73484,52814
73372,52648
73194,52529
72984,52487
72773,52529
72595,52648
72484,52814
72372,52648
72194,52529
71984,52487
71773,52529
71595,52648
71484,52814
71372,52648
71194,52529
70984,52487
70773,52529
70595,52648
70484,52814
70372,52648
70194,52529
69984,52487
69773,52529
69595,52648
69475,52826
69434,53037
68534,53037
68492,52826
68372,52648
68194,52529
67984,52487
67773,52529
67595,52648
67480,52820
67472,52795
67337,52627
67148,52524
67119,52518
67034,52567
66934,52567
66848,52518
66819,52524
66630,52627
66495,52795
66484,52832
66472,52795
66337,52627
66148,52524
66119,52518
66034,52567
65934,52567
65848,52518
65819,52524
65630,52627
65495,52795
65487,52820
65372,52648
65334,52622
65334,49875
66124,49875
66166,50085
66285,50263
66463,50383
66674,50425
66695,50425
66906,50383
67084,50263
67137,50184
67190,50263
67368,50383
67579,50425
67600,50425
67811,50383
67989,50263
68108,50085
68150,49875
69589,49875
69631,50085
69750,50263
69928,50383
70139,50425
70160,50425
70371,50383
70549,50263
70668,50085
70699,49930
70779,49930
70821,50140
70940,50318
71118,50438
71329,50480
71350,50480
71561,50438
71739,50318
71858,50140
71900,49930
73339,49930
73381,50140
73500,50318
73678,50438
73889,50480
73910,50480
74121,50438
74299,50318
74418,50140
74460,49930
74418,49719
74299,49541
74121,49421
73910,49380
73889,49380
73678,49421
73500,49541
73381,49719
73339,49930
71900,49930
71858,49719
71739,49541
71561,49421
71350,49380
71329,49380
71118,49421
70940,49541
70821,49719
70779,49930
70699,49930
70710,49875
70668,49664
70549,49486
70371,49366
70160,49325
70139,49325
69928,49366
69750,49486
69631,49664
69589,49875
68150,49875
68108,49664
67989,49486
67811,49366
67600,49325
67579,49325
67368,49366
67190,49486
67137,49565
67084,49486
66906,49366
66695,49325
66674,49325
66463,49366
66285,49486
66166,49664
66124,49875
65334,49875
65334,48954
65307,48820
65231,48706
64674,48149
64685,48095
66124,48095
66166,48305
66285,48483
66463,48603
66674,48645
66695,48645
66906,48603
67084,48483
67137,48404
67190,48483
67368,48603
67579,48645
67600,48645
67811,48603
67989,48483
68108,48305
68150,48095
69589,48095
69631,48305
69750,48483
69928,48603
70139,48645
70160,48645
70371,48603
70549,48483
70575,48445
70877,48445
70940,48538
71118,48658
71329,48700
71350,48700
71561,48658
71739,48538
71858,48360
71900,48150
73339,48150
73381,48360
73500,48538
73678,48658
73889,48700
73910,48700
74121,48658
74299,48538
74418,48360
74460,48150
74418,47939
74299,47761
74121,47641
73910,47600
73889,47600
73678,47641
73500,47761
73381,47939
73339,48150
71900,48150
71858,47939
71739,47761
71561,47641
71350,47600
71329,47600
71118,47641
70964,47745
70575,47745
70549,47706
70371,47586
70160,47545
70139,47545
69928,47586
69750,47706
69631,47884
69589,48095
68150,48095
68108,47884
67989,47706
67811,47586
67600,47545
67579,47545
67368,47586
67190,47706
67137,47785
67084,47706
66906,47586
66695,47545
66674,47545
66463,47586
66285,47706
66166,47884
66124,48095
64685,48095
64643,47884
64524,47706
64346,47586
64135,47545
64114,47545
63903,47586
63725,47706
63699,47745
58070,47745
58070,47640
57978,47418
57828,47268
57977,47118
58036,46977
62927,46977
63025,47214
63206,47395
63442,47493
63698,47493
63935,47395
64027,47303
67188,47303
67226,47408
67466,47497
67722,47488
67915,47408
67935,47353
68867,47353
68905,47458
69145,47547
69401,47538
69594,47458
69632,47353
69250,46970
68867,47353
67935,47353
67953,47303
67571,46920
67188,47303
64027,47303
64116,47214
64214,46978
64214,46745
66923,46745
66932,47001
67012,47194
67117,47232
67500,46850
67641,46850
68024,47232
68129,47194
68218,46954
68212,46795
68602,46795
68611,47051
68691,47244
68796,47282
69179,46900
69320,46900
69703,47282
69808,47244
69889,47027
72606,47027
72704,47264
72885,47445
73121,47543
73377,47543
73614,47445
73795,47264
73893,47028
73893,46772
73795,46535
73614,46354
73378,46256
73122,46256
72885,46354
72704,46535
72606,46771
72606,47027
69889,47027
69897,47004
69888,46748
69808,46555
69703,46517
69320,46900
69179,46900
68796,46517
68691,46555
68602,46795
68212,46795
68209,46698
68129,46505
68024,46467
67641,46850
67500,46850
67117,46467
67012,46505
66923,46745
64214,46745
64214,46722
64116,46485
64027,46396
67188,46396
67571,46779
67903,46446
68867,46446
69250,46829
69632,46446
69594,46341
69354,46252
69098,46261
68905,46341
68867,46446
67903,46446
67953,46396
67915,46291
67675,46202
67419,46211
67226,46291
67188,46396
64027,46396
63935,46304
63818,46255
63964,46195
64145,46014
64170,45953
67242,45953
67280,46058
67520,46147
67776,46138
67969,46058
68007,45953
67625,45570
67242,45953
64170,45953
64243,45778
64243,45522
64191,45395
66977,45395
66986,45651
67066,45844
67171,45882
67554,45500
67695,45500
68078,45882
68183,45844
68264,45627
70981,45627
71079,45864
71260,46045
71496,46143
71752,46143
71989,46045
72170,45864
72268,45628
72268,45372
72170,45135
71989,44954
71753,44856
71497,44856
71260,44954
71079,45135
70981,45371
70981,45627
68264,45627
68272,45604
68263,45348
68183,45155
68078,45117
67695,45500
67554,45500
67171,45117
67066,45155
66977,45395
64191,45395
64145,45285
64035,45174
64145,45064
64152,45046
67242,45046
67625,45429
68007,45046
67969,44941
67729,44852
67473,44861
67280,44941
67242,45046
64152,45046
64243,44828
64243,44572
64145,44335
64004,44193
64156,44041
64254,43805
64254,43549
64156,43312
64104,43260
69166,43260
69259,43453
69418,43597
69564,43658
69650,43609
69650,43175
69214,43175
69166,43260
64104,43260
64016,43172
64156,43033
64174,42989
69166,42989
69214,43075
69650,43075
69650,42640
69750,42640
69750,43075
69757,43075
69757,43175
69750,43175
69750,43609
69835,43658
69981,43597
70140,43453
70192,43346
70311,43524
70489,43643
70700,43685
70910,43643
71088,43524
71200,43358
71311,43524
71489,43643
71700,43685
71910,43643
72088,43524
72208,43346
72250,43135
72250,43114
72208,42903
72088,42725
71910,42606
71700,42564
71489,42606
71311,42725
71200,42891
71088,42725
70910,42606
70700,42564
70489,42606
70311,42725
70192,42903
70140,42796
69981,42652
69835,42591
69750,42640
69650,42640
69564,42591
69418,42652
69259,42796
69166,42989
64174,42989
64254,42796
64254,42540
64180,42360
74433,42360
74517,42563
74672,42717
74753,42751
74672,42785
74518,42940
74434,43142
74433,43360
74517,43563
74672,43717
74753,43751
74672,43785
74518,43940
74434,44142
74433,44360
74517,44563
74672,44717
74874,44801
75092,44802
75295,44718
75449,44563
75483,44482
75517,44563
75672,44717
75874,44801
76092,44802
76295,44718
76449,44563
76533,44361
76534,44143
76450,43940
76295,43786
76214,43752
76295,43718
76449,43563
76533,43361
76534,43143
76450,42940
76295,42786
76214,42752
76295,42718
76449,42563
76533,42361
76534,42143
76450,41940
76295,41786
76093,41702
75875,41701
75672,41785
75518,41940
75484,42021
75450,41940
75295,41786
75093,41702
74875,41701
74672,41785
74518,41940
74434,42142
74433,42360
64180,42360
64156,42304
63995,42142
64156,41981
64254,41745
64254,41489
64156,41252
63975,41071
63739,40973
63483,40973
63246,41071
63065,41252
62967,41488
62967,41744
63065,41981
63226,42142
63065,42303
62967,42539
62967,42795
63065,43032
63205,43172
63065,43312
62967,43548
62967,43804
63065,44041
63206,44183
63054,44335
62956,44571
62956,44827
63054,45064
63164,45175
63054,45285
62956,45521
62956,45777
63054,46014
63235,46195
63352,46244
63206,46304
63025,46485
62927,46721
62927,46977
58036,46977
58070,46896
58070,46656
57978,46434
57808,46263
57805,46262
57820,46217
57465,45862
57111,46217
57126,46262
57124,46263
56953,46433
56861,46655
56861,46895
50199,46895
50199,43794
53809,43794
53943,44117
54187,44361
53964,44584
53830,44907
53829,45257
53963,45580
54210,45828
54534,45962
54884,45963
55207,45829
55340,45696
56857,45696
56867,45937
56939,46112
57040,46146
57395,45791
57536,45791
57891,46146
57992,46112
57995,46103
59217,46103
59255,46208
59495,46297
59751,46288
59944,46208
59982,46103
59600,45720
59217,46103
57995,46103
58074,45886
58064,45646
58023,45545
58952,45545
58961,45801
59041,45994
59146,46032
59529,45650
59670,45650
60053,46032
60158,45994
60247,45754
60238,45498
60158,45305
60053,45267
59670,45650
59529,45650
59146,45267
59041,45305
58952,45545
58023,45545
57992,45471
57891,45437
57536,45791
57395,45791
57040,45437
56939,45471
56857,45696
55340,45696
55455,45582
55545,45366
57111,45366
57465,45721
57820,45366
57786,45265
57560,45182
57320,45192
57145,45265
57111,45366
55545,45366
55589,45258
55589,45153
59217,45153
59225,45175
59217,45196
59242,45221
59255,45258
59293,45272
59600,45579
59904,45275
59944,45258
59957,45221
59982,45196
59974,45175
59982,45153
59957,45128
59944,45091
59906,45077
59600,44770
59295,45074
59255,45091
59242,45128
59217,45153
55589,45153
55590,44908
55460,44595
58952,44595
58961,44851
59041,45044
59146,45082
59529,44700
59670,44700
60053,45082
60158,45044
60247,44804
60238,44548
60158,44355
60053,44317
59670,44700
59529,44700
59146,44317
59041,44355
58952,44595
55460,44595
55456,44585
55212,44341
55307,44246
59217,44246
59600,44629
59982,44246
59967,44203
59993,44130
59611,43747
59228,44130
59243,44173
59217,44246
55307,44246
55435,44119
55569,43795
55569,43572
58963,43572
58972,43828
59052,44021
59157,44059
59540,43677
59681,43677
60064,44059
60169,44021
60258,43781
60249,43525
60169,43332
60064,43294
59681,43677
59540,43677
59157,43294
59052,43332
58963,43572
55569,43572
55570,43445
55436,43122
55189,42874
54865,42740
54515,42739
54192,42873
53944,43120
53810,43444
53809,43794
50199,43794
50199,42046
56841,42046
56933,42268
57083,42419
56933,42568
56841,42790
56841,43031
56933,43253
57103,43423
57325,43515
57565,43515
57787,43423
57957,43254
58012,43121
59228,43121
59246,43172
59228,43223
59611,43606
59993,43223
59975,43172
59993,43121
59611,42738
59228,43121
58012,43121
58050,43032
58050,42791
57958,42569
57953,42564
58963,42564
58972,42819
59052,43012
59157,43051
59540,42668
59681,42668
60064,43051
60169,43012
60258,42772
60249,42516
60169,42324
60064,42285
59681,42668
59540,42668
59157,42285
59052,42324
58963,42564
57953,42564
57808,42419
57957,42269
58040,42070
59228,42070
59254,42142
59228,42214
59611,42597
59993,42214
59967,42142
59993,42070
59611,41687
59228,42070
58040,42070
58050,42047
58050,41807
57958,41585
57886,41512
58963,41512
58972,41768
59052,41961
59157,41999
59540,41617
59681,41617
60064,41999
60169,41961
60258,41721
60249,41465
60169,41272
60064,41234
59681,41617
59540,41617
59157,41234
59052,41272
58963,41512
57886,41512
57788,41415
57785,41413
57800,41368
57445,41013
57091,41368
57106,41413
57104,41414
56933,41584
56841,41806
56841,42046
50199,42046
50199,40408
53809,40408
53943,40731
54190,40979
54514,41113
54864,41114
55187,40980
55320,40848
56837,40848
56847,41088
56919,41263
57020,41297
57375,40942
57516,40942
57871,41297
57972,41263
58008,41163
59228,41163
59611,41546
59993,41163
59955,41058
59715,40969
59459,40978
59266,41058
59228,41163
58008,41163
58054,41037
58044,40797
57972,40622
57871,40588
57516,40942
57375,40942
57020,40588
56919,40622
56837,40848
55320,40848
55435,40733
55525,40517
57091,40517
57445,40872
57800,40517
57766,40416
57540,40333
57300,40344
57125,40416
57091,40517
55525,40517
55569,40409
55570,40059
55541,39990
62480,39990
62480,40009
62517,40197
62623,40356
62782,40462
62970,40499
63157,40462
63316,40356
63422,40197
63460,40009
63460,39990
65160,39990
65160,40009
65197,40197
65303,40356
65462,40462
65650,40499
65837,40462
65996,40356
66102,40197
66140,40009
66140,39990
67910,39990
67910,40009
67947,40197
68053,40356
68212,40462
68400,40499
68587,40462
68746,40356
68852,40197
68890,40009
68890,39990
68879,39935
70431,39935
70431,39955
70468,40142
70574,40301
70733,40407
70921,40445
71108,40407
71267,40301
71374,40142
71411,39955
71411,39935
73061,39935
73061,39955
73098,40142
73204,40301
73363,40407
73551,40445
73738,40407
73897,40301
74004,40142
74041,39955
74041,39935
74004,39748
73897,39589
73738,39483
73551,39445
73363,39483
73204,39589
73098,39748
73061,39935
71411,39935
71374,39748
71267,39589
71108,39483
70921,39445
70733,39483
70574,39589
70468,39748
70431,39935
68879,39935
68852,39802
68746,39643
68587,39537
68400,39500
68212,39537
68053,39643
67947,39802
67910,39990
66140,39990
66102,39802
65996,39643
65837,39537
65650,39500
65462,39537
65303,39643
65197,39802
65160,39990
63460,39990
63422,39802
63316,39643
63157,39537
62970,39500
62782,39537
62623,39643
62517,39802
62480,39990
55541,39990
55436,39736
55189,39488
54865,39354
54515,39354
54192,39487
53944,39735
53810,40058
53809,40408
50199,40408
50199,38990
62480,38990
62480,39009
62517,39197
62623,39356
62782,39462
62970,39499
63157,39462
63316,39356
63422,39197
63460,39009
63460,38990
65160,38990
65160,39009
65197,39197
65303,39356
65462,39462
65650,39499
65837,39462
65996,39356
66102,39197
66140,39009
66140,38990
67910,38990
67910,39009
67947,39197
68053,39356
68212,39462
68400,39499
68587,39462
68746,39356
68852,39197
68890,39009
68890,38990
68879,38935
70431,38935
70431,38955
70468,39142
70574,39301
70733,39407
70921,39445
71108,39407
71267,39301
71374,39142
71411,38955
71411,38935
73061,38935
73061,38955
73098,39142
73204,39301
73363,39407
73551,39445
73738,39407
73897,39301
74004,39142
74041,38955
74041,38935
74004,38748
73897,38589
73738,38483
73551,38445
73363,38483
73204,38589
73098,38748
73061,38935
71411,38935
71374,38748
71267,38589
71108,38483
70921,38445
70733,38483
70574,38589
70468,38748
70431,38935
68879,38935
68852,38802
68746,38643
68587,38537
68400,38500
68212,38537
68053,38643
67947,38802
67910,38990
66140,38990
66102,38802
65996,38643
65837,38537
65650,38500
65462,38537
65303,38643
65197,38802
65160,38990
63460,38990
63422,38802
63316,38643
63157,38537
62970,38500
62782,38537
62623,38643
62517,38802
62480,38990
50199,38990
50199,37455
55457,37455
55534,37641
55641,37748
55535,37855
55458,38040
55457,38242
55534,38428
55676,38570
55862,38647
56064,38648
56250,38571
56392,38429
56469,38243
56470,38041
56393,37855
56286,37748
56392,37642
56469,37456
56470,37254
56393,37068
56360,37035
56361,37034
56431,36964
56469,36872
56469,36679
56407,36617
56013,36617
56013,36624
55913,36624
55913,36617
55520,36617
55457,36679
55457,36872
55496,36964
55566,37034
55567,37035
55535,37068
55458,37253
55457,37455
50199,37455
50199,35880
55457,35880
55534,36066
55567,36098
55566,36099
55496,36169
55457,36261
55457,36454
55520,36517
55913,36517
55913,36509
56013,36509
56013,36517
56407,36517
56469,36454
56469,36261
56431,36169
56361,36099
56360,36098
56392,36067
56421,35997
56620,35997
56718,36234
56860,36376
56720,36516
56622,36752
56622,37008
56720,37245
56873,37398
56720,37551
56622,37787
56622,38043
56720,38280
56901,38461
57137,38559
57393,38559
57630,38461
57811,38280
57909,38044
57909,37788
57811,37551
57658,37398
57811,37245
57909,37009
57909,36753
57811,36516
57669,36374
57809,36234
57907,35998
57907,35997
60620,35997
60718,36234
60860,36376
60720,36516
60622,36752
60622,37008
60720,37245
60873,37398
60720,37551
60622,37787
60622,38043
60720,38280
60901,38461
61137,38559
61393,38559
61630,38461
61811,38280
61909,38044
61909,37788
61811,37551
61658,37398
61811,37245
61909,37009
61909,36753
61811,36516
61669,36374
61809,36234
61907,35998
61907,35742
61809,35505
61628,35324
61392,35226
61136,35226
60899,35324
60718,35505
60620,35741
60620,35997
57907,35997
57907,35742
57809,35505
57628,35324
57392,35226
57136,35226
56899,35324
56718,35505
56620,35741
56620,35997
56421,35997
56469,35881
56470,35679
56393,35493
56250,35351
56065,35274
55863,35273
55677,35350
55535,35493
55458,35678
55457,35880
50199,35880
50199,35311
50310,35311
50349,35416
50589,35505
50845,35496
51038,35416
51077,35311
50694,34928
50310,35311
50199,35311
50199,35226
50240,35241
50623,34858
50764,34858
51147,35241
51252,35202
51333,34985
53042,34985
53139,35222
53320,35403
53557,35501
53813,35501
54050,35404
54231,35223
54329,34986
54329,34730
54232,34493
54051,34312
53814,34214
53558,34214
53321,34311
53140,34492
53042,34729
53042,34985
51333,34985
51341,34962
51332,34706
51252,34513
51147,34474
50764,34858
50623,34858
50240,34474
50199,34489
50199,34404
50310,34404
50694,34787
51077,34404
51038,34299
50798,34210
50542,34219
50349,34299
50310,34404
50199,34404
50199,33449
55634,33449
55489,33509
" /> 
</g> 
</svg>
