<?xml version="1.0" standalone="no"?>
 <!DOCTYPE svg PUBLIC "-//W3C//DTD SVG 1.1//EN" 
 "http://www.w3.org/Graphics/SVG/1.1/DTD/svg11.dtd"> 
<svg xmlns="http://www.w3.org/2000/svg" version="1.1" 
    width="29.7002cm" height="21.0007cm" viewBox="0 0 116930 82680 ">
<title>SVG Picture created as bats-B.SilkS.svg date 2016/11/25 18:30:55 </title>
  <desc>Picture generated by PCBNEW </desc>
<g style="fill:#000000; fill-opacity:1;stroke:#000000; stroke-opacity:1;
stroke-linecap:round; stroke-linejoin:round; "
 transform="translate(0 0) scale(1 1)">
</g>
<g style="fill:#000000; fill-opacity:0.0; 
stroke:#000000; stroke-width:-0.000393701; stroke-opacity:1; 
stroke-linecap:round; stroke-linejoin:round;">
</g>
<g style="fill:#000000; fill-opacity:1.0; 
stroke:#000000; stroke-width:3.93701; stroke-opacity:1; 
stroke-linecap:round; stroke-linejoin:round;">
<polyline style="fill-rule:evenodd;"
points="57344,50773
57370,50767
57399,50753
57435,50728
57484,50689
57551,50632
57594,50595
57959,50279
58323,49974
58681,49679
59034,49398
59379,49129
59714,48876
60038,48639
60349,48420
60645,48220
60925,48039
61186,47880
61428,47743
61560,47674
61793,47556
62011,47589
62229,47622
62323,47712
62381,47766
62445,47819
62497,47858
62556,47909
62608,47981
62653,48075
62692,48195
62727,48342
62759,48520
62767,48575
62778,48650
62788,48713
62796,48756
62800,48772
62809,48760
62830,48723
62861,48664
62900,48590
62942,48506
63078,48233
63422,48232
63577,48230
63705,48225
63815,48215
63914,48200
64008,48179
64106,48150
64154,48133
64257,48095
64366,48048
64467,47999
64542,47957
64602,47921
64950,48143
64954,47742
64958,47341
65028,47298
65076,47262
65134,47214
65180,47170
65264,47087
65427,47107
65537,47122
65672,47146
65824,47175
65986,47209
66150,47246
66310,47284
66458,47322
66491,47331
66972,47476
67462,47651
67958,47852
68456,48079
68952,48330
69443,48603
69925,48896
70206,49079
70429,49228
70539,49183
70722,49106
70928,49015
71150,48913
71383,48803
71621,48689
71857,48572
72086,48457
72301,48346
72496,48242
72633,48166
73061,47916
73456,47669
73819,47424
74149,47182
74446,46943
74710,46707
74942,46474
75140,46243
75306,46016
75438,45792
75537,45571
75582,45435
75607,45348
75621,45289
75623,45252
75613,45233
75588,45228
75549,45232
75529,45235
75412,45247
75282,45250
75150,45245
75027,45232
74924,45212
74916,45210
74753,45154
74579,45072
74401,44971
74225,44852
74059,44721
73993,44663
73925,44600
73875,44557
73836,44531
73801,44522
73762,44526
73710,44544
73640,44572
73620,44580
73294,44693
72958,44773
72613,44823
72259,44840
71896,44826
71527,44781
71150,44703
70767,44594
70711,44576
70524,44509
70336,44433
70149,44350
69968,44261
69795,44169
69635,44077
69490,43984
69365,43895
69263,43811
69187,43733
69156,43691
69129,43650
69020,43751
68856,43883
68670,43988
68465,44067
68333,44101
68242,44115
68128,44125
68000,44129
67869,44129
67743,44123
67634,44113
67608,44109
67309,44044
67013,43948
66724,43823
66446,43670
66181,43493
65935,43292
65709,43069
65688,43046
65616,42962
65540,42868
65469,42775
65413,42695
65300,42524
65200,42537
65109,42544
64995,42549
64865,42549
64729,42547
64595,42542
64474,42533
64372,42522
64341,42518
64016,42451
63677,42360
63322,42244
62949,42102
62846,42060
62768,42028
62701,42002
62650,41983
62622,41975
62620,41975
62601,41985
62561,42013
62504,42057
62435,42112
62358,42175
62357,42176
62170,42329
61999,42459
61840,42570
61687,42664
61537,42745
61384,42814
61223,42876
61190,42888
61061,42929
60912,42970
60757,43009
60610,43041
60544,43053
60471,43066
60406,43266
60296,43553
60160,43829
60000,44091
59819,44334
59619,44557
59402,44755
59172,44925
59159,44933
58952,45053
58721,45159
58478,45248
58230,45316
58158,45331
57922,45371
57688,45394
57447,45401
57193,45391
56917,45366
56902,45364
56822,45355
56755,45348
56707,45344
56684,45344
56684,45344
56673,45359
56646,45395
56609,45446
56582,45483
56399,45715
56192,45945
55968,46166
55732,46373
55492,46559
55266,46711
54931,46901
54587,47062
54230,47197
53858,47304
53467,47386
53058,47443
52973,47450
52864,47455
52737,47460
52600,47463
52459,47464
52321,47465
52194,47463
52083,47460
51996,47455
51972,47453
51844,47440
51799,47578
51714,47794
51609,47986
51482,48157
51332,48307
51158,48438
50958,48550
50731,48645
50475,48724
50470,48725
50406,48743
50356,48761
50328,48774
50325,48779
50335,48816
50364,48871
50406,48936
50456,49005
50511,49071
50547,49109
50695,49238
50875,49363
51089,49486
51334,49605
51611,49720
51920,49831
52260,49939
52631,50043
53032,50143
53464,50239
53925,50330
54416,50418
54936,50501
55092,50524
55243,50545
55409,50568
55586,50591
55773,50614
55964,50637
56156,50660
56345,50682
56529,50702
56702,50721
56862,50738
57005,50752
57128,50763
57226,50770
57296,50774
57316,50775
57344,50773
" /> 
</g> 
</svg>
