<?xml version="1.0" standalone="no"?>
 <!DOCTYPE svg PUBLIC "-//W3C//DTD SVG 1.1//EN" 
 "http://www.w3.org/Graphics/SVG/1.1/DTD/svg11.dtd"> 
<svg xmlns="http://www.w3.org/2000/svg" version="1.1" 
    width="29.7002cm" height="21.0007cm" viewBox="0 0 116930 82680 ">
<title>SVG Picture created as bats-F.Cu.svg date 2016/11/25 18:30:55 </title>
  <desc>Picture generated by PCBNEW </desc>
<g style="fill:#000000; fill-opacity:1;stroke:#000000; stroke-opacity:1;
stroke-linecap:round; stroke-linejoin:round; "
 transform="translate(0 0) scale(1 1)">
</g>
<g style="fill:#000000; fill-opacity:0.0; 
stroke:#000000; stroke-width:-0.000393701; stroke-opacity:1; 
stroke-linecap:round; stroke-linejoin:round;">
</g>
<g style="fill:#000000; fill-opacity:0.0; 
stroke:#000000; stroke-width:600; stroke-opacity:1; 
stroke-linecap:round; stroke-linejoin:round;">
<path d="M64125 48095
L64125 48095
" />
<path d="M66685 48095
L66685 48095
" />
<path d="M64125 49875
L64125 49875
" />
<path d="M66685 49875
L66685 49875
" />
</g>
<g style="fill:#000000; fill-opacity:1.0; 
stroke:#000000; stroke-width:0; stroke-opacity:1; 
stroke-linecap:round; stroke-linejoin:round;">
<circle cx="73250" cy="46900" r="393.5" /> 
</g>
<g style="fill:#000000; fill-opacity:1.0; 
stroke:#000000; stroke-width:39.3701; stroke-opacity:1; 
stroke-linecap:round; stroke-linejoin:round;">
</g>
<g style="fill:#000000; fill-opacity:1.0; 
stroke:#000000; stroke-width:0; stroke-opacity:1; 
stroke-linecap:round; stroke-linejoin:round;">
<circle cx="69250" cy="46900" r="393.5" /> 
</g>
<g style="fill:#000000; fill-opacity:1.0; 
stroke:#000000; stroke-width:39.3701; stroke-opacity:1; 
stroke-linecap:round; stroke-linejoin:round;">
</g>
<g style="fill:#000000; fill-opacity:1.0; 
stroke:#000000; stroke-width:600; stroke-opacity:1; 
stroke-linecap:round; stroke-linejoin:round;">
</g>
<g style="fill:#000000; fill-opacity:0.0; 
stroke:#000000; stroke-width:600; stroke-opacity:1; 
stroke-linecap:round; stroke-linejoin:round;">
<path d="M71340 48150
L71340 48150
" />
<path d="M73900 48150
L73900 48150
" />
<path d="M71340 49930
L71340 49930
" />
<path d="M73900 49930
L73900 49930
" />
</g>
<g style="fill:#000000; fill-opacity:0.0; 
stroke:#000000; stroke-width:480; stroke-opacity:1; 
stroke-linecap:round; stroke-linejoin:round;">
<path d="M70921 38945
L70921 38945
" />
<path d="M70921 39945
L70921 39945
" />
<path d="M73551 38945
L73551 38945
" />
<path d="M73551 39945
L73551 39945
" />
</g>
<g style="fill:#000000; fill-opacity:1.0; 
stroke:#000000; stroke-width:0; stroke-opacity:1; 
stroke-linecap:round; stroke-linejoin:round;">
<circle cx="63600" cy="44700" r="393.5" /> 
</g>
<g style="fill:#000000; fill-opacity:1.0; 
stroke:#000000; stroke-width:39.3701; stroke-opacity:1; 
stroke-linecap:round; stroke-linejoin:round;">
</g>
<g style="fill:#000000; fill-opacity:1.0; 
stroke:#000000; stroke-width:0; stroke-opacity:1; 
stroke-linecap:round; stroke-linejoin:round;">
<circle cx="59600" cy="44700" r="393.5" /> 
</g>
<g style="fill:#000000; fill-opacity:1.0; 
stroke:#000000; stroke-width:39.3701; stroke-opacity:1; 
stroke-linecap:round; stroke-linejoin:round;">
</g>
<g style="fill:#000000; fill-opacity:1.0; 
stroke:#000000; stroke-width:0; stroke-opacity:1; 
stroke-linecap:round; stroke-linejoin:round;">
<circle cx="63600" cy="45650" r="393.5" /> 
</g>
<g style="fill:#000000; fill-opacity:1.0; 
stroke:#000000; stroke-width:39.3701; stroke-opacity:1; 
stroke-linecap:round; stroke-linejoin:round;">
</g>
<g style="fill:#000000; fill-opacity:1.0; 
stroke:#000000; stroke-width:0; stroke-opacity:1; 
stroke-linecap:round; stroke-linejoin:round;">
<circle cx="59600" cy="45650" r="393.5" /> 
</g>
<g style="fill:#000000; fill-opacity:1.0; 
stroke:#000000; stroke-width:39.3701; stroke-opacity:1; 
stroke-linecap:round; stroke-linejoin:round;">
</g>
<g style="fill:#000000; fill-opacity:1.0; 
stroke:#000000; stroke-width:600; stroke-opacity:1; 
stroke-linecap:round; stroke-linejoin:round;">
</g>
<g style="fill:#000000; fill-opacity:0.0; 
stroke:#000000; stroke-width:600; stroke-opacity:1; 
stroke-linecap:round; stroke-linejoin:round;">
<path d="M67590 48095
L67590 48095
" />
<path d="M70150 48095
L70150 48095
" />
<path d="M67590 49875
L67590 49875
" />
<path d="M70150 49875
L70150 49875
" />
<path d="M74984 53452
L74984 53052
" />
<path d="M73984 53452
L73984 53052
" />
<path d="M72984 53452
L72984 53052
" />
<path d="M69984 53452
L69984 53052
" />
<path d="M70984 53452
L70984 53052
" />
<path d="M71984 53452
L71984 53052
" />
<path d="M67984 53452
L67984 53052
" />
<path d="M66984 53452
L66984 53052
" />
<path d="M65984 53452
L65984 53052
" />
<path d="M63984 53452
L63984 53052
" />
<path d="M62984 53452
L62984 53052
" />
<path d="M74984 34452
L74984 34052
" />
<path d="M73984 34452
L73984 34052
" />
<path d="M72984 34452
L72984 34052
" />
<path d="M71984 34452
L71984 34052
" />
<path d="M70984 34452
L70984 34052
" />
<path d="M69984 34452
L69984 34052
" />
<path d="M68984 34452
L68984 34052
" />
<path d="M67984 34452
L67984 34052
" />
<path d="M66384 34452
L66384 34052
" />
<path d="M65384 34452
L65384 34052
" />
<path d="M64384 34452
L64384 34052
" />
<path d="M63384 34452
L63384 34052
" />
<path d="M62384 34452
L62384 34052
" />
<path d="M61384 34452
L61384 34052
" />
<path d="M60384 34452
L60384 34052
" />
<path d="M59384 34452
L59384 34052
" />
<path d="M64984 53452
L64984 53052
" />
<path d="M58384 34452
L58384 34052
" />
<path d="M57384 34452
L57384 34052
" />
<path d="M61984 53452
L61984 53052
" />
<path d="M60984 53452
L60984 53052
" />
</g>
<g style="fill:#000000; fill-opacity:1.0; 
stroke:#000000; stroke-width:0; stroke-opacity:1; 
stroke-linecap:round; stroke-linejoin:round;">
<circle cx="74984" cy="42252" r="300" /> 
</g>
<g style="fill:#000000; fill-opacity:1.0; 
stroke:#000000; stroke-width:39.3701; stroke-opacity:1; 
stroke-linecap:round; stroke-linejoin:round;">
</g>
<g style="fill:#000000; fill-opacity:1.0; 
stroke:#000000; stroke-width:0; stroke-opacity:1; 
stroke-linecap:round; stroke-linejoin:round;">
<circle cx="75984" cy="42252" r="300" /> 
</g>
<g style="fill:#000000; fill-opacity:1.0; 
stroke:#000000; stroke-width:39.3701; stroke-opacity:1; 
stroke-linecap:round; stroke-linejoin:round;">
</g>
<g style="fill:#000000; fill-opacity:1.0; 
stroke:#000000; stroke-width:0; stroke-opacity:1; 
stroke-linecap:round; stroke-linejoin:round;">
<circle cx="74984" cy="43252" r="300" /> 
</g>
<g style="fill:#000000; fill-opacity:1.0; 
stroke:#000000; stroke-width:39.3701; stroke-opacity:1; 
stroke-linecap:round; stroke-linejoin:round;">
</g>
<g style="fill:#000000; fill-opacity:1.0; 
stroke:#000000; stroke-width:0; stroke-opacity:1; 
stroke-linecap:round; stroke-linejoin:round;">
<circle cx="75984" cy="43252" r="300" /> 
</g>
<g style="fill:#000000; fill-opacity:1.0; 
stroke:#000000; stroke-width:39.3701; stroke-opacity:1; 
stroke-linecap:round; stroke-linejoin:round;">
</g>
<g style="fill:#000000; fill-opacity:1.0; 
stroke:#000000; stroke-width:0; stroke-opacity:1; 
stroke-linecap:round; stroke-linejoin:round;">
<circle cx="74984" cy="44252" r="300" /> 
</g>
<g style="fill:#000000; fill-opacity:1.0; 
stroke:#000000; stroke-width:39.3701; stroke-opacity:1; 
stroke-linecap:round; stroke-linejoin:round;">
</g>
<g style="fill:#000000; fill-opacity:1.0; 
stroke:#000000; stroke-width:0; stroke-opacity:1; 
stroke-linecap:round; stroke-linejoin:round;">
<circle cx="75984" cy="44252" r="300" /> 
</g>
<g style="fill:#000000; fill-opacity:1.0; 
stroke:#000000; stroke-width:39.3701; stroke-opacity:1; 
stroke-linecap:round; stroke-linejoin:round;">
</g>
<g style="fill:#000000; fill-opacity:1.0; 
stroke:#000000; stroke-width:0; stroke-opacity:1; 
stroke-linecap:round; stroke-linejoin:round;">
<circle cx="54710" cy="48468.9" r="629.921" /> 
</g>
<g style="fill:#000000; fill-opacity:1.0; 
stroke:#000000; stroke-width:39.3701; stroke-opacity:1; 
stroke-linecap:round; stroke-linejoin:round;">
</g>
<g style="fill:#000000; fill-opacity:1.0; 
stroke:#000000; stroke-width:0; stroke-opacity:1; 
stroke-linecap:round; stroke-linejoin:round;">
<circle cx="54710" cy="45083.1" r="629.921" /> 
</g>
<g style="fill:#000000; fill-opacity:1.0; 
stroke:#000000; stroke-width:39.3701; stroke-opacity:1; 
stroke-linecap:round; stroke-linejoin:round;">
</g>
<g style="fill:#000000; fill-opacity:1.0; 
stroke:#000000; stroke-width:0; stroke-opacity:1; 
stroke-linecap:round; stroke-linejoin:round;">
<circle cx="57465.9" cy="46776" r="354.331" /> 
</g>
<g style="fill:#000000; fill-opacity:1.0; 
stroke:#000000; stroke-width:39.3701; stroke-opacity:1; 
stroke-linecap:round; stroke-linejoin:round;">
</g>
<g style="fill:#000000; fill-opacity:1.0; 
stroke:#000000; stroke-width:0; stroke-opacity:1; 
stroke-linecap:round; stroke-linejoin:round;">
<circle cx="57465.9" cy="47760.3" r="354.331" /> 
</g>
<g style="fill:#000000; fill-opacity:1.0; 
stroke:#000000; stroke-width:39.3701; stroke-opacity:1; 
stroke-linecap:round; stroke-linejoin:round;">
</g>
<g style="fill:#000000; fill-opacity:1.0; 
stroke:#000000; stroke-width:0; stroke-opacity:1; 
stroke-linecap:round; stroke-linejoin:round;">
<circle cx="57465.9" cy="45791.7" r="354.331" /> 
</g>
<g style="fill:#000000; fill-opacity:1.0; 
stroke:#000000; stroke-width:39.3701; stroke-opacity:1; 
stroke-linecap:round; stroke-linejoin:round;">
</g>
<g style="fill:#000000; fill-opacity:1.0; 
stroke:#000000; stroke-width:0; stroke-opacity:1; 
stroke-linecap:round; stroke-linejoin:round;">
<circle cx="55963.9" cy="38142" r="256" /> 
</g>
<g style="fill:#000000; fill-opacity:1.0; 
stroke:#000000; stroke-width:39.3701; stroke-opacity:1; 
stroke-linecap:round; stroke-linejoin:round;">
</g>
<g style="fill:#000000; fill-opacity:1.0; 
stroke:#000000; stroke-width:0; stroke-opacity:1; 
stroke-linecap:round; stroke-linejoin:round;">
<circle cx="55963.9" cy="35780" r="256" /> 
</g>
<g style="fill:#000000; fill-opacity:1.0; 
stroke:#000000; stroke-width:39.3701; stroke-opacity:1; 
stroke-linecap:round; stroke-linejoin:round;">
</g>
<g style="fill:#000000; fill-opacity:1.0; 
stroke:#000000; stroke-width:0; stroke-opacity:1; 
stroke-linecap:round; stroke-linejoin:round;">
<polyline style="fill-rule:evenodd;"
points="55707,36311
56219,36311
56219,36823
55707,36823
55707,36311
" /> 
<circle cx="55963.9" cy="37355" r="256" /> 
</g>
<g style="fill:#000000; fill-opacity:1.0; 
stroke:#000000; stroke-width:39.3701; stroke-opacity:1; 
stroke-linecap:round; stroke-linejoin:round;">
</g>
<g style="fill:#000000; fill-opacity:1.0; 
stroke:#000000; stroke-width:600; stroke-opacity:1; 
stroke-linecap:round; stroke-linejoin:round;">
</g>
<g style="fill:#000000; fill-opacity:0.0; 
stroke:#000000; stroke-width:600; stroke-opacity:1; 
stroke-linecap:round; stroke-linejoin:round;">
<path d="M71700 43125
L71700 43125
" />
<path d="M70700 43125
L70700 43125
" />
<path d="M69700 43125
L69700 43125
" />
</g>
<g style="fill:#000000; fill-opacity:1.0; 
stroke:#000000; stroke-width:0; stroke-opacity:1; 
stroke-linecap:round; stroke-linejoin:round;">
<circle cx="54690" cy="43620" r="629.921" /> 
</g>
<g style="fill:#000000; fill-opacity:1.0; 
stroke:#000000; stroke-width:39.3701; stroke-opacity:1; 
stroke-linecap:round; stroke-linejoin:round;">
</g>
<g style="fill:#000000; fill-opacity:1.0; 
stroke:#000000; stroke-width:0; stroke-opacity:1; 
stroke-linecap:round; stroke-linejoin:round;">
<circle cx="54690" cy="40234.2" r="629.921" /> 
</g>
<g style="fill:#000000; fill-opacity:1.0; 
stroke:#000000; stroke-width:39.3701; stroke-opacity:1; 
stroke-linecap:round; stroke-linejoin:round;">
</g>
<g style="fill:#000000; fill-opacity:1.0; 
stroke:#000000; stroke-width:0; stroke-opacity:1; 
stroke-linecap:round; stroke-linejoin:round;">
<circle cx="57445.9" cy="41927.1" r="354.331" /> 
</g>
<g style="fill:#000000; fill-opacity:1.0; 
stroke:#000000; stroke-width:39.3701; stroke-opacity:1; 
stroke-linecap:round; stroke-linejoin:round;">
</g>
<g style="fill:#000000; fill-opacity:1.0; 
stroke:#000000; stroke-width:0; stroke-opacity:1; 
stroke-linecap:round; stroke-linejoin:round;">
<circle cx="57445.9" cy="42911.3" r="354.331" /> 
</g>
<g style="fill:#000000; fill-opacity:1.0; 
stroke:#000000; stroke-width:39.3701; stroke-opacity:1; 
stroke-linecap:round; stroke-linejoin:round;">
</g>
<g style="fill:#000000; fill-opacity:1.0; 
stroke:#000000; stroke-width:0; stroke-opacity:1; 
stroke-linecap:round; stroke-linejoin:round;">
<circle cx="57445.9" cy="40942.8" r="354.331" /> 
</g>
<g style="fill:#000000; fill-opacity:1.0; 
stroke:#000000; stroke-width:39.3701; stroke-opacity:1; 
stroke-linecap:round; stroke-linejoin:round;">
</g>
<g style="fill:#000000; fill-opacity:1.0; 
stroke:#000000; stroke-width:600; stroke-opacity:1; 
stroke-linecap:round; stroke-linejoin:round;">
</g>
<g style="fill:#000000; fill-opacity:0.0; 
stroke:#000000; stroke-width:600; stroke-opacity:1; 
stroke-linecap:round; stroke-linejoin:round;">
<path d="M50730 51730
L50730 51730
" />
<path d="M53290 51730
L53290 51730
" />
<path d="M50730 53510
L50730 53510
" />
<path d="M53290 53510
L53290 53510
" />
</g>
<g style="fill:#000000; fill-opacity:1.0; 
stroke:#000000; stroke-width:0; stroke-opacity:1; 
stroke-linecap:round; stroke-linejoin:round;">
<circle cx="50694" cy="34858" r="393.701" /> 
</g>
<g style="fill:#000000; fill-opacity:1.0; 
stroke:#000000; stroke-width:39.3701; stroke-opacity:1; 
stroke-linecap:round; stroke-linejoin:round;">
</g>
<g style="fill:#000000; fill-opacity:1.0; 
stroke:#000000; stroke-width:0; stroke-opacity:1; 
stroke-linecap:round; stroke-linejoin:round;">
<circle cx="53686" cy="34858" r="393.701" /> 
</g>
<g style="fill:#000000; fill-opacity:1.0; 
stroke:#000000; stroke-width:39.3701; stroke-opacity:1; 
stroke-linecap:round; stroke-linejoin:round;">
</g>
<g style="fill:#000000; fill-opacity:1.0; 
stroke:#000000; stroke-width:0; stroke-opacity:1; 
stroke-linecap:round; stroke-linejoin:round;">
<circle cx="54302" cy="50160" r="393.5" /> 
</g>
<g style="fill:#000000; fill-opacity:1.0; 
stroke:#000000; stroke-width:39.3701; stroke-opacity:1; 
stroke-linecap:round; stroke-linejoin:round;">
</g>
<g style="fill:#000000; fill-opacity:1.0; 
stroke:#000000; stroke-width:0; stroke-opacity:1; 
stroke-linecap:round; stroke-linejoin:round;">
<circle cx="58302" cy="50160" r="393.5" /> 
</g>
<g style="fill:#000000; fill-opacity:1.0; 
stroke:#000000; stroke-width:39.3701; stroke-opacity:1; 
stroke-linecap:round; stroke-linejoin:round;">
</g>
<g style="fill:#000000; fill-opacity:1.0; 
stroke:#000000; stroke-width:0; stroke-opacity:1; 
stroke-linecap:round; stroke-linejoin:round;">
<circle cx="58290" cy="51206" r="393.5" /> 
</g>
<g style="fill:#000000; fill-opacity:1.0; 
stroke:#000000; stroke-width:39.3701; stroke-opacity:1; 
stroke-linecap:round; stroke-linejoin:round;">
</g>
<g style="fill:#000000; fill-opacity:1.0; 
stroke:#000000; stroke-width:0; stroke-opacity:1; 
stroke-linecap:round; stroke-linejoin:round;">
<circle cx="54290" cy="51206" r="393.5" /> 
</g>
<g style="fill:#000000; fill-opacity:1.0; 
stroke:#000000; stroke-width:39.3701; stroke-opacity:1; 
stroke-linecap:round; stroke-linejoin:round;">
</g>
<g style="fill:#000000; fill-opacity:1.0; 
stroke:#000000; stroke-width:0; stroke-opacity:1; 
stroke-linecap:round; stroke-linejoin:round;">
<circle cx="63611" cy="41617" r="393.5" /> 
</g>
<g style="fill:#000000; fill-opacity:1.0; 
stroke:#000000; stroke-width:39.3701; stroke-opacity:1; 
stroke-linecap:round; stroke-linejoin:round;">
</g>
<g style="fill:#000000; fill-opacity:1.0; 
stroke:#000000; stroke-width:0; stroke-opacity:1; 
stroke-linecap:round; stroke-linejoin:round;">
<circle cx="59611" cy="41617" r="393.5" /> 
</g>
<g style="fill:#000000; fill-opacity:1.0; 
stroke:#000000; stroke-width:39.3701; stroke-opacity:1; 
stroke-linecap:round; stroke-linejoin:round;">
</g>
<g style="fill:#000000; fill-opacity:1.0; 
stroke:#000000; stroke-width:0; stroke-opacity:1; 
stroke-linecap:round; stroke-linejoin:round;">
<circle cx="63611" cy="42668.2" r="393.5" /> 
</g>
<g style="fill:#000000; fill-opacity:1.0; 
stroke:#000000; stroke-width:39.3701; stroke-opacity:1; 
stroke-linecap:round; stroke-linejoin:round;">
</g>
<g style="fill:#000000; fill-opacity:1.0; 
stroke:#000000; stroke-width:0; stroke-opacity:1; 
stroke-linecap:round; stroke-linejoin:round;">
<circle cx="59611" cy="42668.2" r="393.5" /> 
</g>
<g style="fill:#000000; fill-opacity:1.0; 
stroke:#000000; stroke-width:39.3701; stroke-opacity:1; 
stroke-linecap:round; stroke-linejoin:round;">
</g>
<g style="fill:#000000; fill-opacity:1.0; 
stroke:#000000; stroke-width:0; stroke-opacity:1; 
stroke-linecap:round; stroke-linejoin:round;">
<circle cx="63611" cy="43677" r="393.5" /> 
</g>
<g style="fill:#000000; fill-opacity:1.0; 
stroke:#000000; stroke-width:39.3701; stroke-opacity:1; 
stroke-linecap:round; stroke-linejoin:round;">
</g>
<g style="fill:#000000; fill-opacity:1.0; 
stroke:#000000; stroke-width:0; stroke-opacity:1; 
stroke-linecap:round; stroke-linejoin:round;">
<circle cx="59611" cy="43677" r="393.5" /> 
</g>
<g style="fill:#000000; fill-opacity:1.0; 
stroke:#000000; stroke-width:39.3701; stroke-opacity:1; 
stroke-linecap:round; stroke-linejoin:round;">
</g>
<g style="fill:#000000; fill-opacity:1.0; 
stroke:#000000; stroke-width:0; stroke-opacity:1; 
stroke-linecap:round; stroke-linejoin:round;">
<circle cx="57264" cy="35870" r="393.5" /> 
</g>
<g style="fill:#000000; fill-opacity:1.0; 
stroke:#000000; stroke-width:39.3701; stroke-opacity:1; 
stroke-linecap:round; stroke-linejoin:round;">
</g>
<g style="fill:#000000; fill-opacity:1.0; 
stroke:#000000; stroke-width:0; stroke-opacity:1; 
stroke-linecap:round; stroke-linejoin:round;">
<circle cx="61264" cy="35870" r="393.5" /> 
</g>
<g style="fill:#000000; fill-opacity:1.0; 
stroke:#000000; stroke-width:39.3701; stroke-opacity:1; 
stroke-linecap:round; stroke-linejoin:round;">
</g>
<g style="fill:#000000; fill-opacity:1.0; 
stroke:#000000; stroke-width:0; stroke-opacity:1; 
stroke-linecap:round; stroke-linejoin:round;">
<circle cx="57266" cy="36881" r="393.5" /> 
</g>
<g style="fill:#000000; fill-opacity:1.0; 
stroke:#000000; stroke-width:39.3701; stroke-opacity:1; 
stroke-linecap:round; stroke-linejoin:round;">
</g>
<g style="fill:#000000; fill-opacity:1.0; 
stroke:#000000; stroke-width:0; stroke-opacity:1; 
stroke-linecap:round; stroke-linejoin:round;">
<circle cx="61266" cy="36881" r="393.5" /> 
</g>
<g style="fill:#000000; fill-opacity:1.0; 
stroke:#000000; stroke-width:39.3701; stroke-opacity:1; 
stroke-linecap:round; stroke-linejoin:round;">
</g>
<g style="fill:#000000; fill-opacity:1.0; 
stroke:#000000; stroke-width:0; stroke-opacity:1; 
stroke-linecap:round; stroke-linejoin:round;">
<circle cx="57266" cy="37916" r="393.5" /> 
</g>
<g style="fill:#000000; fill-opacity:1.0; 
stroke:#000000; stroke-width:39.3701; stroke-opacity:1; 
stroke-linecap:round; stroke-linejoin:round;">
</g>
<g style="fill:#000000; fill-opacity:1.0; 
stroke:#000000; stroke-width:0; stroke-opacity:1; 
stroke-linecap:round; stroke-linejoin:round;">
<circle cx="61266" cy="37916" r="393.5" /> 
</g>
<g style="fill:#000000; fill-opacity:1.0; 
stroke:#000000; stroke-width:39.3701; stroke-opacity:1; 
stroke-linecap:round; stroke-linejoin:round;">
</g>
<g style="fill:#000000; fill-opacity:1.0; 
stroke:#000000; stroke-width:0; stroke-opacity:1; 
stroke-linecap:round; stroke-linejoin:round;">
<circle cx="71625" cy="45500" r="393.5" /> 
</g>
<g style="fill:#000000; fill-opacity:1.0; 
stroke:#000000; stroke-width:39.3701; stroke-opacity:1; 
stroke-linecap:round; stroke-linejoin:round;">
</g>
<g style="fill:#000000; fill-opacity:1.0; 
stroke:#000000; stroke-width:0; stroke-opacity:1; 
stroke-linecap:round; stroke-linejoin:round;">
<circle cx="67625" cy="45500" r="393.5" /> 
</g>
<g style="fill:#000000; fill-opacity:1.0; 
stroke:#000000; stroke-width:39.3701; stroke-opacity:1; 
stroke-linecap:round; stroke-linejoin:round;">
</g>
<g style="fill:#000000; fill-opacity:1.0; 
stroke:#000000; stroke-width:0; stroke-opacity:1; 
stroke-linecap:round; stroke-linejoin:round;">
<circle cx="63571" cy="46850" r="393.5" /> 
</g>
<g style="fill:#000000; fill-opacity:1.0; 
stroke:#000000; stroke-width:39.3701; stroke-opacity:1; 
stroke-linecap:round; stroke-linejoin:round;">
</g>
<g style="fill:#000000; fill-opacity:1.0; 
stroke:#000000; stroke-width:0; stroke-opacity:1; 
stroke-linecap:round; stroke-linejoin:round;">
<circle cx="67571" cy="46850" r="393.5" /> 
</g>
<g style="fill:#000000; fill-opacity:1.0; 
stroke:#000000; stroke-width:39.3701; stroke-opacity:1; 
stroke-linecap:round; stroke-linejoin:round;">
</g>
<g style="fill:#000000; fill-opacity:1.0; 
stroke:#000000; stroke-width:480; stroke-opacity:1; 
stroke-linecap:round; stroke-linejoin:round;">
</g>
<g style="fill:#000000; fill-opacity:0.0; 
stroke:#000000; stroke-width:480; stroke-opacity:1; 
stroke-linecap:round; stroke-linejoin:round;">
<path d="M62970 39000
L62970 39000
" />
<path d="M62970 40000
L62970 40000
" />
<path d="M65650 39000
L65650 39000
" />
<path d="M65650 40000
L65650 40000
" />
<path d="M68400 39000
L68400 39000
" />
<path d="M68400 40000
L68400 40000
" />
</g>
<g style="fill:#000000; fill-opacity:0.0; 
stroke:#000000; stroke-width:200; stroke-opacity:1; 
stroke-linecap:round; stroke-linejoin:round;">
<path d="M62970 40000
L62970 40976
" />
<path d="M62970 40976
L63611 41617
" />
<path d="M65650 40000
L65650 40629
" />
<path d="M65650 40629
L63611 42668
" />
<path d="M68400 40000
L64723 43677
" />
<path d="M64723 43677
L63611 43677
" />
</g>
<g style="fill:#000000; fill-opacity:0.0; 
stroke:#000000; stroke-width:240; stroke-opacity:1; 
stroke-linecap:round; stroke-linejoin:round;">
<path d="M57278 37954
L56151 37954
" />
<path d="M56151 37954
L55963 38142
" />
<path d="M57303 35869
L56052 35869
" />
<path d="M56052 35869
L55963 35780
" />
<path d="M57278 36919
L56841 37355
" />
<path d="M56841 37355
L55963 37355
" />
<path d="M62984 53252
L62975 53252
" />
<path d="M54433 52366
L53290 53510
" />
<path d="M62975 53252
L62090 52366
" />
<path d="M62090 52366
L54433 52366
" />
</g>
<g style="fill:#000000; fill-opacity:0.0; 
stroke:#000000; stroke-width:320; stroke-opacity:1; 
stroke-linecap:round; stroke-linejoin:round;">
<path d="M50730 53510
L53290 53510
" />
</g>
<g style="fill:#000000; fill-opacity:0.0; 
stroke:#000000; stroke-width:240; stroke-opacity:1; 
stroke-linecap:round; stroke-linejoin:round;">
<path d="M63384 34252
L63384 34452
" />
<path d="M63384 34452
L61967 35869
" />
<path d="M61967 35869
L61303 35869
" />
<path d="M64384 34252
L64384 34452
" />
<path d="M64384 34452
L61917 36919
" />
<path d="M61917 36919
L61278 36919
" />
<path d="M61384 34252
L61384 34452
" />
<path d="M61384 34452
L60698 35137
" />
<path d="M60698 35137
L54521 35137
" />
<path d="M54521 35137
L54242 34858
" />
<path d="M54242 34858
L53686 34858
" />
</g>
<g style="fill:#000000; fill-opacity:0.0; 
stroke:#000000; stroke-width:200; stroke-opacity:1; 
stroke-linecap:round; stroke-linejoin:round;">
<path d="M66384 34252
L66384 35586
" />
<path d="M66384 35586
L62970 39000
" />
<path d="M67984 34252
L67984 36666
" />
<path d="M67984 36666
L65650 39000
" />
<path d="M68984 34252
L68984 38416
" />
<path d="M68984 38416
L68400 39000
" />
</g>
<g style="fill:#000000; fill-opacity:0.0; 
stroke:#000000; stroke-width:240; stroke-opacity:1; 
stroke-linecap:round; stroke-linejoin:round;">
<path d="M65384 34252
L65384 34452
" />
<path d="M65384 34452
L61882 37954
" />
<path d="M61882 37954
L61278 37954
" />
</g>
<g style="fill:#000000; fill-opacity:0.0; 
stroke:#000000; stroke-width:200; stroke-opacity:1; 
stroke-linecap:round; stroke-linejoin:round;">
<path d="M70700 43125
L70999 42825
" />
<path d="M69984 38718
L69984 34252
" />
<path d="M70999 42825
L71152 42825
" />
<path d="M71152 42825
L73552 40425
" />
<path d="M73552 40425
L73781 40425
" />
<path d="M74031 40175
L74031 39715
" />
<path d="M73781 40425
L74031 40175
" />
<path d="M74031 39715
L73781 39465
" />
<path d="M73781 39465
L70731 39465
" />
<path d="M70731 39465
L69984 38718
" />
</g>
<g style="fill:#000000; fill-opacity:0.0; 
stroke:#000000; stroke-width:240; stroke-opacity:1; 
stroke-linecap:round; stroke-linejoin:round;">
<path d="M69988 34240
L69996 34240
" />
</g>
<g style="fill:#000000; fill-opacity:0.0; 
stroke:#000000; stroke-width:200; stroke-opacity:1; 
stroke-linecap:round; stroke-linejoin:round;">
<path d="M71984 34252
L71984 37378
" />
<path d="M71984 37378
L73551 38945
" />
<path d="M70984 34252
L70984 38882
" />
<path d="M70984 38882
L70921 38945
" />
<path d="M63025 52350
L61881 51206
" />
<path d="M61881 51206
L58290 51206
" />
<path d="M69282 52350
L63025 52350
" />
<path d="M69984 53252
L69984 53052
" />
<path d="M69984 53052
L69282 52350
" />
</g>
<g style="fill:#000000; fill-opacity:0.0; 
stroke:#000000; stroke-width:240; stroke-opacity:1; 
stroke-linecap:round; stroke-linejoin:round;">
<path d="M58275 50180
L58275 51240
" />
<path d="M58275 51240
L58280 51245
" />
</g>
<g style="fill:#000000; fill-opacity:0.0; 
stroke:#000000; stroke-width:120; stroke-opacity:1; 
stroke-linecap:round; stroke-linejoin:round;">
<path d="M58280 50185
L58275 50180
" />
</g>
<g style="fill:#000000; fill-opacity:0.0; 
stroke:#000000; stroke-width:200; stroke-opacity:1; 
stroke-linecap:round; stroke-linejoin:round;">
<path d="M69782 51850
L63005 51850
" />
<path d="M63005 51850
L58286 47130
" />
<path d="M58286 47130
L57820 47130
" />
<path d="M57820 47130
L57465 46776
" />
<path d="M70984 53252
L70984 53052
" />
<path d="M70984 53052
L69782 51850
" />
<path d="M70282 51350
L64362 51350
" />
<path d="M64362 51350
L58040 45027
" />
<path d="M58040 45027
L58040 42521
" />
<path d="M58040 42521
L57445 41927
" />
<path d="M71984 53052
L70282 51350
" />
<path d="M71984 53052
L71984 53252
" />
</g>
<g style="fill:#000000; fill-opacity:0.0; 
stroke:#000000; stroke-width:240; stroke-opacity:1; 
stroke-linecap:round; stroke-linejoin:round;">
<path d="M71984 53252
L71975 53252
" />
</g>
<g style="fill:#000000; fill-opacity:0.0; 
stroke:#000000; stroke-width:200; stroke-opacity:1; 
stroke-linecap:round; stroke-linejoin:round;">
<path d="M70921 39945
L66166 44700
" />
<path d="M66166 44700
L63600 44700
" />
<path d="M73551 39945
L73071 40425
" />
<path d="M73071 40425
L70922 40425
" />
<path d="M70922 40425
L65697 45650
" />
<path d="M65697 45650
L63600 45650
" />
<path d="M70150 49875
L70799 49225
" />
<path d="M70799 49225
L70799 46325
" />
<path d="M70799 46325
L71625 45500
" />
<path d="M70150 49875
L67590 49875
" />
<path d="M73984 53252
L73984 53052
" />
<path d="M70745 50470
L70150 49875
" />
<path d="M73984 53052
L71402 50470
" />
<path d="M71402 50470
L70745 50470
" />
</g>
<g style="fill:#000000; fill-opacity:0.0; 
stroke:#000000; stroke-width:240; stroke-opacity:1; 
stroke-linecap:round; stroke-linejoin:round;">
<path d="M73984 53252
L73975 53252
" />
</g>
<g style="fill:#000000; fill-opacity:0.0; 
stroke:#000000; stroke-width:200; stroke-opacity:1; 
stroke-linecap:round; stroke-linejoin:round;">
<path d="M63571 46850
L63177 47243
" />
<path d="M63177 47243
L63177 48927
" />
<path d="M63177 48927
L64125 49875
" />
<path d="M66685 49875
L64125 49875
" />
<path d="M70832 50900
L67710 50900
" />
<path d="M67710 50900
L66685 49875
" />
<path d="M72984 53252
L72984 53052
" />
<path d="M72984 53052
L70832 50900
" />
<path d="M71340 49930
L73250 48020
" />
<path d="M73250 48020
L73250 46900
" />
<path d="M71340 49930
L73900 49930
" />
<path d="M73900 49930
L74984 51014
" />
<path d="M74984 51014
L74984 53252
" />
</g>
<g style="fill:#000000; fill-opacity:1.0; 
stroke:#000000; stroke-width:100; stroke-opacity:1; 
stroke-linecap:round; stroke-linejoin:round;">
<polyline style="fill-rule:evenodd;"
points="76770,52158
75859,53069
75800,53156
75780,53260
75780,54030
55891,54030
55979,53994
56225,53748
56358,53426
56359,53078
56226,52757
56206,52736
60535,52736
60475,52826
60434,53037
60434,53466
60475,53677
60595,53855
60773,53974
60984,54016
61194,53974
61372,53855
61484,53689
61595,53855
61773,53974
61984,54016
62194,53974
62372,53855
62484,53689
62595,53855
62773,53974
62984,54016
63194,53974
63372,53855
63484,53689
63595,53855
63773,53974
63984,54016
64194,53974
64372,53855
64487,53683
64495,53708
64630,53876
64819,53979
64848,53985
64934,53936
64934,53302
64926,53302
64926,53202
64934,53202
64934,53194
65034,53194
65034,53202
65041,53202
65041,53302
65034,53302
65034,53936
65119,53985
65148,53979
65337,53876
65472,53708
65480,53683
65595,53855
65773,53974
65984,54016
66194,53974
66372,53855
66484,53689
66595,53855
66773,53974
66984,54016
67194,53974
67372,53855
67484,53689
67595,53855
67773,53974
67984,54016
68194,53974
68372,53855
68492,53677
68534,53466
68534,53037
68492,52826
68407,52700
69137,52700
69440,53003
69434,53037
69434,53466
69475,53677
69595,53855
69773,53974
69984,54016
70194,53974
70372,53855
70484,53689
70595,53855
70773,53974
70984,54016
71194,53974
71372,53855
71484,53689
71595,53855
71773,53974
71984,54016
72194,53974
72372,53855
72484,53689
72595,53855
72773,53974
72984,54016
73194,53974
73372,53855
73484,53689
73595,53855
73773,53974
73984,54016
74194,53974
74372,53855
74484,53689
74595,53855
74773,53974
74984,54016
75194,53974
75372,53855
75492,53677
75534,53466
75534,53037
75492,52826
75372,52648
75334,52622
75334,51839
75487,51993
75809,52126
76157,52127
76479,51994
76725,51748
76770,51640
76770,52158
" /> 
<polyline style="fill-rule:evenodd;"
points="55489,33509
55242,33755
55109,34077
55108,34425
55241,34747
55261,34767
54675,34767
54504,34596
54384,34516
54242,34488
54226,34488
54051,34312
53814,34214
53558,34214
53321,34311
53140,34492
53042,34729
53042,34985
53139,35222
53320,35403
53557,35501
53813,35501
54050,35404
54157,35296
54260,35398
54380,35478
54521,35507
55529,35507
55458,35678
55457,35880
55534,36066
55570,36102
55527,36130
55472,36213
55453,36311
55453,36823
55472,36920
55527,37003
55571,37032
55535,37068
55458,37253
55457,37455
55534,37641
55641,37748
55535,37855
55458,38040
55457,38242
55534,38428
55676,38570
55862,38647
56064,38648
56250,38571
56392,38429
56436,38324
56764,38324
56901,38461
57137,38559
57393,38559
57630,38461
57811,38280
57909,38044
57909,37788
57811,37551
57658,37398
57811,37245
57909,37009
57909,36753
57811,36516
57669,36374
57809,36234
57907,35998
57907,35742
57810,35507
60698,35507
60721,35502
60718,35505
60620,35741
60620,35997
60718,36234
60860,36376
60720,36516
60622,36752
60622,37008
60720,37245
60873,37398
60720,37551
60622,37787
60622,38043
60720,38280
60901,38461
61137,38559
61393,38559
61630,38461
61768,38324
61882,38324
62023,38295
62143,38215
65349,35009
65384,35016
65594,34974
65772,34855
65884,34689
65995,34855
66034,34881
66034,35441
62973,38501
62970,38500
62782,38537
62623,38643
62517,38802
62480,38990
62480,39009
62517,39197
62623,39356
62782,39462
62970,39499
63157,39462
63316,39356
63422,39197
63460,39009
63460,39004
66631,35833
66707,35719
66734,35586
66734,34881
66772,34855
66892,34677
66934,34466
66934,34037
66892,33826
66772,33648
66594,33529
66384,33487
66173,33529
65995,33648
65884,33814
65772,33648
65594,33529
65384,33487
65173,33529
64995,33648
64884,33814
64772,33648
64594,33529
64384,33487
64173,33529
63995,33648
63884,33814
63772,33648
63594,33529
63384,33487
63173,33529
62995,33648
62884,33814
62772,33648
62594,33529
62384,33487
62173,33529
61995,33648
61884,33814
61772,33648
61594,33529
61384,33487
61173,33529
60995,33648
60884,33814
60772,33648
60594,33529
60384,33487
60173,33529
59995,33648
59884,33814
59772,33648
59594,33529
59384,33487
59173,33529
58995,33648
58884,33814
58772,33648
58594,33529
58384,33487
58173,33529
57995,33648
57884,33814
57772,33648
57594,33529
57384,33487
57173,33529
56995,33648
56875,33826
56836,34024
56726,33757
56480,33510
56333,33449
75398,33449
75780,33831
75780,38220
75800,38323
75859,38410
76770,39321
76770,39863
76726,39757
76480,39510
76158,39377
75810,39376
75489,39509
75242,39755
75109,40077
75108,40425
75241,40747
75487,40993
75809,41126
76157,41127
76479,40994
76725,40748
76770,40640
76770,50863
76726,50757
76480,50510
76158,50377
75810,50376
75489,50509
75242,50755
75235,50772
75231,50766
74449,49984
74460,49930
74418,49719
74299,49541
74121,49421
73910,49380
73889,49380
73678,49421
73500,49541
73474,49580
72184,49580
73399,48365
73427,48431
73571,48590
73764,48683
73850,48635
73850,48200
73950,48200
73950,48635
74035,48683
74228,48590
74372,48431
74433,48285
74384,48200
73950,48200
73850,48200
73842,48200
73842,48100
73850,48100
73850,47664
73950,47664
73950,48100
74384,48100
74433,48014
74372,47868
74228,47709
74035,47616
73950,47664
73850,47664
73764,47616
73600,47695
73600,47451
73614,47445
73795,47264
73893,47028
73893,46772
73795,46535
73614,46354
73378,46256
73122,46256
72885,46354
72704,46535
72606,46771
72606,47027
72704,47264
72885,47445
72900,47451
72900,47875
71387,49387
71350,49380
71329,49380
71118,49421
71051,49467
71109,49380
71123,49358
71149,49225
71149,48657
71204,48683
71290,48635
71290,48200
71390,48200
71390,48635
71475,48683
71668,48590
71812,48431
71873,48285
71824,48200
71390,48200
71290,48200
71282,48200
71282,48100
71290,48100
71290,47664
71390,47664
71390,48100
71824,48100
71873,48014
71812,47868
71668,47709
71475,47616
71390,47664
71290,47664
71204,47616
71149,47642
71149,46469
71482,46137
71496,46143
71752,46143
71989,46045
72170,45864
72268,45628
72268,45372
72170,45135
71989,44954
71753,44856
71497,44856
71260,44954
71079,45135
70981,45371
70981,45627
70987,45642
70552,46077
70476,46191
70449,46325
70449,47640
70285,47561
70200,47609
70200,48045
70207,48045
70207,48145
70200,48145
70200,48580
70285,48628
70449,48549
70449,49080
70197,49332
70160,49325
70139,49325
69928,49366
69750,49486
69724,49525
68015,49525
67989,49486
67811,49366
67600,49325
67579,49325
67368,49366
67190,49486
67137,49565
67084,49486
66906,49366
66695,49325
66674,49325
66463,49366
66285,49486
66259,49525
64550,49525
64524,49486
64346,49366
64135,49325
64114,49325
64077,49332
63527,48782
63527,48230
63591,48230
63652,48376
63796,48535
63989,48628
64075,48580
64075,48145
64175,48145
64175,48580
64260,48628
64453,48535
64597,48376
64658,48230
66151,48230
66212,48376
66356,48535
66549,48628
66635,48580
66635,48145
66735,48145
66735,48580
66820,48628
67013,48535
67137,48398
67261,48535
67454,48628
67540,48580
67540,48145
67640,48145
67640,48580
67725,48628
67918,48535
68062,48376
68123,48230
69616,48230
69677,48376
69821,48535
70014,48628
70100,48580
70100,48145
69665,48145
69616,48230
68123,48230
68074,48145
67640,48145
67540,48145
66735,48145
66635,48145
66200,48145
66151,48230
64658,48230
64609,48145
64175,48145
64075,48145
63640,48145
63591,48230
63527,48230
63527,47959
63591,47959
63640,48045
64075,48045
64075,47609
64175,47609
64175,48045
64609,48045
64658,47959
66151,47959
66200,48045
66635,48045
66635,47609
66735,47609
66735,48045
67540,48045
67540,47609
67640,47609
67640,48045
68074,48045
68123,47959
69616,47959
69665,48045
70100,48045
70100,47609
70014,47561
69821,47654
69677,47813
69616,47959
68123,47959
68062,47813
67918,47654
67725,47561
67640,47609
67540,47609
67454,47561
67261,47654
67137,47791
67013,47654
66820,47561
66735,47609
66635,47609
66549,47561
66356,47654
66212,47813
66151,47959
64658,47959
64597,47813
64453,47654
64260,47561
64175,47609
64075,47609
63989,47561
63796,47654
63652,47813
63591,47959
63527,47959
63527,47493
63698,47493
63935,47395
64116,47214
64214,46978
64214,46977
66927,46977
67025,47214
67206,47395
67442,47493
67698,47493
67935,47395
68116,47214
68194,47027
68606,47027
68704,47264
68885,47445
69121,47543
69377,47543
69614,47445
69795,47264
69893,47028
69893,46772
69795,46535
69614,46354
69378,46256
69122,46256
68885,46354
68704,46535
68606,46771
68606,47027
68194,47027
68214,46978
68214,46722
68116,46485
67935,46304
67699,46206
67443,46206
67206,46304
67025,46485
66927,46721
66927,46977
64214,46977
64214,46722
64116,46485
63935,46304
63818,46255
63964,46195
64145,46014
64151,46000
65697,46000
65831,45973
65945,45897
66215,45627
66981,45627
67079,45864
67260,46045
67496,46143
67752,46143
67989,46045
68170,45864
68268,45628
68268,45372
68170,45135
67989,44954
67753,44856
67497,44856
67260,44954
67079,45135
66981,45371
66981,45627
66215,45627
71067,40775
72707,40775
71007,42475
70999,42475
70866,42501
70755,42575
70700,42564
70489,42606
70311,42725
70200,42891
70088,42725
69910,42606
69700,42564
69489,42606
69311,42725
69191,42903
69150,43114
69150,43135
69191,43346
69311,43524
69489,43643
69700,43685
69910,43643
70088,43524
70200,43358
70311,43524
70489,43643
70700,43685
70910,43643
71088,43524
71207,43346
71259,43453
71418,43597
71564,43658
71650,43609
71650,43175
71750,43175
71750,43609
71835,43658
71981,43597
72140,43453
72233,43260
72185,43175
71750,43175
71650,43175
71642,43175
71642,43075
71650,43075
71650,43067
71750,43067
71750,43075
72185,43075
72233,42989
72140,42796
71981,42652
71867,42605
72111,42360
74433,42360
74517,42563
74672,42717
74753,42751
74672,42785
74518,42940
74434,43142
74433,43360
74517,43563
74672,43717
74753,43751
74672,43785
74518,43940
74434,44142
74433,44360
74517,44563
74672,44717
74874,44801
75092,44802
75295,44718
75449,44563
75483,44482
75517,44563
75672,44717
75874,44801
76092,44802
76295,44718
76449,44563
76533,44361
76534,44143
76450,43940
76295,43786
76214,43752
76295,43718
76449,43563
76533,43361
76534,43143
76450,42940
76295,42786
76214,42752
76295,42718
76449,42563
76533,42361
76534,42143
76450,41940
76295,41786
76093,41702
75875,41701
75672,41785
75518,41940
75484,42021
75450,41940
75295,41786
75093,41702
74875,41701
74672,41785
74518,41940
74434,42142
74433,42360
72111,42360
73697,40775
73781,40775
73915,40748
74029,40672
74278,40423
74288,40408
74354,40309
74381,40175
74381,39715
74354,39581
74278,39467
74029,39217
73991,39192
73977,39183
74004,39142
74041,38955
74041,38935
74004,38748
73897,38589
73738,38483
73551,38445
73547,38446
72334,37233
72334,34881
72372,34855
72484,34689
72595,34855
72773,34974
72984,35016
73194,34974
73372,34855
73484,34689
73595,34855
73773,34974
73984,35016
74194,34974
74372,34855
74484,34689
74595,34855
74773,34974
74984,35016
75194,34974
75372,34855
75492,34677
75534,34466
75534,34037
75492,33826
75372,33648
75194,33529
74984,33487
74773,33529
74595,33648
74484,33814
74372,33648
74194,33529
73984,33487
73773,33529
73595,33648
73484,33814
73372,33648
73194,33529
72984,33487
72773,33529
72595,33648
72484,33814
72372,33648
72194,33529
71984,33487
71773,33529
71595,33648
71484,33814
71372,33648
71194,33529
70984,33487
70773,33529
70595,33648
70484,33814
70372,33648
70194,33529
69984,33487
69773,33529
69595,33648
69484,33814
69372,33648
69194,33529
68984,33487
68773,33529
68595,33648
68484,33814
68372,33648
68194,33529
67984,33487
67773,33529
67595,33648
67475,33826
67434,34037
67434,34466
67475,34677
67595,34855
67634,34881
67634,36521
65653,38501
65650,38500
65462,38537
65303,38643
65197,38802
65160,38990
65160,39009
65197,39197
65303,39356
65462,39462
65650,39499
65837,39462
65996,39356
66102,39197
66140,39009
66140,39004
68231,36913
68291,36823
68307,36799
68334,36666
68334,34881
68372,34855
68484,34689
68595,34855
68634,34881
68634,38271
68403,38501
68400,38500
68212,38537
68053,38643
67947,38802
67910,38990
67910,39009
67947,39197
68053,39356
68212,39462
68400,39499
68587,39462
68746,39356
68852,39197
68890,39009
68890,39004
69231,38663
69241,38647
69307,38549
69334,38416
69334,34881
69372,34855
69484,34689
69595,34855
69634,34881
69634,38718
69660,38852
69729,38955
69736,38965
70483,39712
70489,39716
70468,39748
70431,39935
70431,39940
66021,44350
64151,44350
64145,44335
64004,44193
64156,44041
64162,44027
64723,44027
64856,44000
64970,43924
68396,40498
68400,40499
68587,40462
68746,40356
68852,40197
68890,40009
68890,39990
68852,39802
68746,39643
68587,39537
68400,39500
68212,39537
68053,39643
67947,39802
67910,39990
67910,39995
64578,43327
64162,43327
64156,43312
64016,43172
64156,43033
64254,42796
64254,42540
64248,42525
65897,40876
65965,40775
65973,40763
66000,40629
66000,40350
66102,40197
66140,40009
66140,39990
66102,39802
65996,39643
65837,39537
65650,39500
65462,39537
65303,39643
65197,39802
65160,39990
65160,40009
65197,40197
65300,40350
65300,40484
64254,41529
64254,41489
64156,41252
63975,41071
63739,40973
63483,40973
63468,40979
63320,40831
63320,40350
63422,40197
63460,40009
63460,39990
63422,39802
63316,39643
63157,39537
62970,39500
62782,39537
62623,39643
62517,39802
62480,39990
62480,40009
62517,40197
62620,40350
62620,40976
62646,41109
62722,41223
62973,41474
62967,41488
62967,41744
63065,41981
63226,42142
63065,42303
62967,42539
62967,42795
63065,43032
63205,43172
63065,43312
62967,43548
62967,43804
63065,44041
63206,44183
63054,44335
62956,44571
62956,44827
63054,45064
63164,45175
63054,45285
62956,45521
62956,45777
63054,46014
63235,46195
63352,46244
63206,46304
63025,46485
62927,46721
62927,46977
62933,46992
62930,46996
62854,47109
62827,47243
62827,48927
62854,49061
62930,49174
63575,49820
63564,49875
63606,50085
63632,50125
59779,46272
59964,46195
60145,46014
60243,45778
60243,45522
60145,45285
60035,45174
60145,45064
60243,44828
60243,44572
60145,44335
60004,44193
60156,44041
60254,43805
60254,43549
60156,43312
60016,43172
60156,43033
60254,42796
60254,42540
60156,42304
59995,42142
60156,41981
60254,41745
60254,41489
60156,41252
59975,41071
59739,40973
59483,40973
59246,41071
59065,41252
58967,41488
58967,41744
59065,41981
59226,42142
59065,42303
58967,42539
58967,42795
59065,43032
59205,43172
59065,43312
58967,43548
58967,43804
59065,44041
59206,44183
59054,44335
58956,44571
58956,44827
59054,45064
59164,45175
59054,45285
58977,45470
58390,44882
58390,42521
58363,42387
58287,42273
58050,42036
58050,41807
57958,41585
57808,41434
57957,41285
58050,41063
58050,40823
57958,40600
57788,40430
57566,40338
57326,40338
57104,40430
56933,40600
56841,40822
56841,41062
56933,41284
57083,41435
56933,41584
56841,41806
56841,42046
56933,42268
57103,42439
57106,42440
57091,42486
57445,42840
57451,42835
57522,42905
57516,42911
57522,42916
57451,42987
57445,42982
57091,43336
57125,43437
57351,43520
57591,43510
57690,43469
57690,45027
57716,45161
57777,45252
57790,45272
57586,45187
57346,45187
57124,45279
56953,45448
56861,45671
56861,45911
56953,46133
57103,46283
56953,46433
56861,46655
56861,46895
56953,47117
57123,47288
57126,47289
57111,47334
57465,47689
57471,47683
57542,47754
57536,47760
57891,48114
57992,48080
58074,47855
58064,47614
58008,47480
58141,47480
61516,50856
58841,50856
58835,50841
58683,50688
58847,50524
58945,50288
58945,50032
58847,49795
58666,49614
58430,49516
58174,49516
57937,49614
57756,49795
57658,50031
57658,50287
57756,50524
57905,50673
57905,50681
57744,50841
57646,51077
57646,51333
57744,51570
57925,51751
58161,51849
58417,51849
58654,51751
58835,51570
58841,51556
61736,51556
62198,52018
62090,51996
54433,51996
54291,52025
54183,52097
54171,52105
53314,52962
53300,52960
53279,52960
53068,53001
52921,53100
51098,53100
50951,53001
50740,52960
50719,52960
50508,53001
50330,53121
50211,53299
50199,53356
50199,51883
50211,51940
50330,52118
50508,52238
50719,52280
50740,52280
50951,52238
51129,52118
51248,51940
51290,51730
52729,51730
52771,51940
52890,52118
53068,52238
53279,52280
53300,52280
53511,52238
53689,52118
53808,51940
53850,51730
53837,51663
53925,51751
54161,51849
54417,51849
54654,51751
54835,51570
54933,51334
54933,51078
54835,50841
54664,50669
54684,50613
54302,50230
53919,50613
53934,50656
53925,50660
53744,50841
53646,51077
53646,51312
53511,51221
53300,51180
53279,51180
53068,51221
52890,51341
52771,51519
52729,51730
51290,51730
51248,51519
51129,51341
50951,51221
50740,51180
50719,51180
50508,51221
50330,51341
50211,51519
50199,51576
50199,50055
53654,50055
53663,50311
53743,50504
53848,50542
54231,50160
54372,50160
54755,50542
54860,50504
54949,50264
54940,50008
54860,49815
54755,49777
54372,50160
54231,50160
53848,49777
53743,49815
53654,50055
50199,50055
50199,49706
53919,49706
54302,50089
54684,49706
54646,49601
54406,49512
54150,49521
53957,49601
53919,49706
50199,49706
50199,48643
53829,48643
53963,48966
54210,49214
54534,49348
54884,49348
55207,49215
55455,48967
55589,48644
55590,48294
55544,48185
57111,48185
57145,48286
57371,48369
57611,48359
57786,48286
57820,48185
57465,47830
57111,48185
55544,48185
55456,47971
55209,47723
55069,47665
56857,47665
56867,47905
56939,48080
57040,48114
57395,47760
57040,47405
56939,47439
56857,47665
55069,47665
54885,47589
54535,47588
54212,47722
53964,47969
53830,48293
53829,48643
50199,48643
50199,43794
53809,43794
53943,44117
54187,44361
53964,44584
53830,44907
53829,45257
53963,45580
54210,45828
54534,45962
54884,45963
55207,45829
55455,45582
55589,45258
55590,44908
55456,44585
55212,44341
55435,44119
55569,43795
55570,43445
55436,43122
55189,42874
55049,42816
56837,42816
56847,43056
56919,43231
57020,43265
57375,42911
57020,42556
56919,42590
56837,42816
55049,42816
54865,42740
54515,42739
54192,42873
53944,43120
53810,43444
53809,43794
50199,43794
50199,40408
53809,40408
53943,40731
54190,40979
54514,41113
54864,41114
55187,40980
55435,40733
55569,40409
55570,40059
55436,39736
55189,39488
54865,39354
54515,39354
54192,39487
53944,39735
53810,40058
53809,40408
50199,40408
50199,35273
50328,35403
50565,35501
50821,35501
51058,35404
51239,35223
51337,34986
51337,34730
51240,34493
51059,34312
50822,34214
50566,34214
50329,34311
50199,34441
50199,33449
55634,33449
55489,33509
" /> 
</g> 
</svg>
