<?xml version="1.0" standalone="no"?>
 <!DOCTYPE svg PUBLIC "-//W3C//DTD SVG 1.1//EN" 
 "http://www.w3.org/Graphics/SVG/1.1/DTD/svg11.dtd"> 
<svg xmlns="http://www.w3.org/2000/svg" version="1.1" 
    width="29.7002cm" height="21.0007cm" viewBox="0 0 116930 82680 ">
<title>SVG Picture created as bats-F.SilkS.svg date 2016/11/25 18:30:55 </title>
  <desc>Picture generated by PCBNEW </desc>
<g style="fill:#000000; fill-opacity:1;stroke:#000000; stroke-opacity:1;
stroke-linecap:round; stroke-linejoin:round; "
 transform="translate(0 0) scale(1 1)">
</g>
<g style="fill:#000000; fill-opacity:0.0; 
stroke:#000000; stroke-width:-0.000393701; stroke-opacity:1; 
stroke-linecap:round; stroke-linejoin:round;">
</g>
<g style="fill:#000000; fill-opacity:0.0; 
stroke:#000000; stroke-width:59.0551; stroke-opacity:1; 
stroke-linecap:round; stroke-linejoin:round;">
<path d="M72196 50640
L72384 50640
" />
<path d="M72159 50753
L72290 50359
L72421 50753
" />
<path d="M72553 50753
L72553 50359
L72646 50359
L72703 50378
L72740 50415
L72759 50453
L72778 50528
L72778 50584
L72759 50659
L72740 50696
L72703 50734
L72646 50753
L72553 50753
" />
<path d="M73134 50359
L72946 50359
L72928 50546
L72946 50528
L72984 50509
L73078 50509
L73115 50528
L73134 50546
L73153 50584
L73153 50678
L73134 50715
L73115 50734
L73078 50753
L72984 50753
L72946 50734
L72928 50715
" />
<path d="M68421 50615
L68609 50615
" />
<path d="M68384 50728
L68515 50334
L68646 50728
" />
<path d="M68778 50728
L68778 50334
L68871 50334
L68928 50353
L68965 50390
L68984 50428
L69003 50503
L69003 50559
L68984 50634
L68965 50671
L68928 50709
L68871 50728
L68778 50728
" />
<path d="M69340 50465
L69340 50728
" />
<path d="M69246 50315
L69153 50596
L69396 50596
" />
<path d="M65021 50765
L65209 50765
" />
<path d="M64984 50878
L65115 50484
L65246 50878
" />
<path d="M65378 50878
L65378 50484
L65471 50484
L65528 50503
L65565 50540
L65584 50578
L65603 50653
L65603 50709
L65584 50784
L65565 50821
L65528 50859
L65471 50878
L65378 50878
" />
<path d="M65734 50484
L65978 50484
L65846 50634
L65903 50634
L65940 50653
L65959 50671
L65978 50709
L65978 50803
L65959 50840
L65940 50859
L65903 50878
L65790 50878
L65753 50859
L65734 50840
" />
</g>
<g style="fill:#000000; fill-opacity:0.0; 
stroke:#000000; stroke-width:98.4252; stroke-opacity:1; 
stroke-linecap:round; stroke-linejoin:round;">
<path d="M73334 37928
L73334 37534
L73428 37534
L73484 37553
L73521 37590
L73540 37628
L73559 37703
L73559 37759
L73540 37834
L73521 37871
L73484 37909
L73428 37928
L73334 37928
" />
<path d="M73690 37534
L73934 37534
L73803 37684
L73859 37684
L73896 37703
L73915 37721
L73934 37759
L73934 37853
L73915 37890
L73896 37909
L73859 37928
L73746 37928
L73709 37909
L73690 37890
" />
<path d="M70634 37828
L70634 37434
L70728 37434
L70784 37453
L70821 37490
L70840 37528
L70859 37603
L70859 37659
L70840 37734
L70821 37771
L70784 37809
L70728 37828
L70634 37828
" />
<path d="M71196 37565
L71196 37828
" />
<path d="M71103 37415
L71009 37696
L71253 37696
" />
<path d="M70384 42403
L70384 42009
L70478 42009
L70534 42028
L70571 42065
L70590 42103
L70609 42178
L70609 42234
L70590 42309
L70571 42346
L70534 42384
L70478 42403
L70384 42403
" />
<path d="M70965 42009
L70778 42009
L70759 42196
L70778 42178
L70815 42159
L70909 42159
L70946 42178
L70965 42196
L70984 42234
L70984 42328
L70965 42365
L70946 42384
L70909 42403
L70815 42403
L70778 42384
L70759 42365
" />
<path d="M68109 37978
L68109 37584
L68203 37584
L68259 37603
L68296 37640
L68315 37678
L68334 37753
L68334 37809
L68315 37884
L68296 37921
L68259 37959
L68203 37978
L68109 37978
" />
<path d="M68671 37584
L68596 37584
L68559 37603
L68540 37621
L68503 37678
L68484 37753
L68484 37903
L68503 37940
L68521 37959
L68559 37978
L68634 37978
L68671 37959
L68690 37940
L68709 37903
L68709 37809
L68690 37771
L68671 37753
L68634 37734
L68559 37734
L68521 37753
L68503 37771
L68484 37809
" />
<path d="M65384 38078
L65384 37684
L65478 37684
L65534 37703
L65571 37740
L65590 37778
L65609 37853
L65609 37909
L65590 37984
L65571 38021
L65534 38059
L65478 38078
L65384 38078
" />
<path d="M65740 37684
L66003 37684
L65834 38078
" />
<path d="M63734 38128
L63734 37734
L63828 37734
L63884 37753
L63921 37790
L63940 37828
L63959 37903
L63959 37959
L63940 38034
L63921 38071
L63884 38109
L63828 38128
L63734 38128
" />
<path d="M64184 37903
L64146 37884
L64128 37865
L64109 37828
L64109 37809
L64128 37771
L64146 37753
L64184 37734
L64259 37734
L64296 37753
L64315 37771
L64334 37809
L64334 37828
L64315 37865
L64296 37884
L64259 37903
L64184 37903
L64146 37921
L64128 37940
L64109 37978
L64109 38053
L64128 38090
L64146 38109
L64184 38128
L64259 38128
L64296 38109
L64315 38090
L64334 38053
L64334 37978
L64315 37940
L64296 37921
L64259 37903
" />
<path d="M62131 38082
L62131 37688
L62225 37688
L62281 37707
L62318 37744
L62337 37782
L62356 37857
L62356 37913
L62337 37988
L62318 38025
L62281 38063
L62225 38082
L62131 38082
" />
<path d="M62543 38082
L62618 38082
L62656 38063
L62675 38044
L62712 37988
L62731 37913
L62731 37763
L62712 37725
L62693 37707
L62656 37688
L62581 37688
L62543 37707
L62525 37725
L62506 37763
L62506 37857
L62525 37894
L62543 37913
L62581 37932
L62656 37932
L62693 37913
L62712 37894
L62731 37857
" />
<path d="M62117 37022
L62117 36628
L62211 36628
L62267 36647
L62305 36684
L62324 36722
L62342 36797
L62342 36853
L62324 36928
L62305 36965
L62267 37003
L62211 37022
L62117 37022
" />
<path d="M62717 37022
L62492 37022
" />
<path d="M62605 37022
L62605 36628
L62567 36684
L62530 36722
L62492 36740
" />
<path d="M62961 36628
L62999 36628
L63036 36647
L63055 36665
L63074 36703
L63092 36778
L63092 36872
L63074 36947
L63055 36984
L63036 37003
L62999 37022
L62961 37022
L62924 37003
L62905 36984
L62886 36947
L62867 36872
L62867 36778
L62886 36703
L62905 36665
L62924 36647
L62961 36628
" />
<path d="M62133 35902
L62133 35508
L62227 35508
L62283 35527
L62321 35564
L62340 35602
L62358 35677
L62358 35733
L62340 35808
L62321 35845
L62283 35883
L62227 35902
L62133 35902
" />
<path d="M62733 35902
L62508 35902
" />
<path d="M62621 35902
L62621 35508
L62583 35564
L62546 35602
L62508 35620
" />
<path d="M63108 35902
L62883 35902
" />
<path d="M62996 35902
L62996 35508
L62958 35564
L62921 35602
L62883 35620
" />
</g>
<g style="fill:#000000; fill-opacity:0.0; 
stroke:#000000; stroke-width:118.11; stroke-opacity:1; 
stroke-linecap:round; stroke-linejoin:round;">
<path d="M55012 38207
L55096 38235
L55124 38264
L55152 38320
L55152 38404
L55124 38460
L55096 38489
L55040 38517
L54815 38517
L54815 37926
L55012 37926
L55068 37954
L55096 37982
L55124 38039
L55124 38095
L55096 38151
L55068 38179
L55012 38207
L54815 38207
" />
<path d="M55094 37024
L55038 36996
L54954 36996
L54869 37024
L54813 37080
L54785 37137
L54757 37249
L54757 37334
L54785 37446
L54813 37502
L54869 37559
L54954 37587
L55010 37587
L55094 37559
L55122 37530
L55122 37334
L55010 37334
" />
<path d="M55122 36057
L54925 35775
" />
<path d="M54785 36057
L54785 35466
L55010 35466
L55066 35494
L55094 35522
L55122 35579
L55122 35663
L55094 35719
L55066 35747
L55010 35775
L54785 35775
" />
<path d="M56842 52567
L56561 52567
L56561 51976
" />
<path d="M57039 52567
L57039 51976
L57179 51976
L57264 52004
L57320 52060
L57348 52117
L57376 52229
L57376 52314
L57348 52426
L57320 52482
L57264 52539
L57179 52567
L57039 52567
" />
<path d="M57967 52567
L57770 52285
" />
<path d="M57629 52567
L57629 51976
L57854 51976
L57910 52004
L57938 52032
L57967 52089
L57967 52173
L57938 52229
L57910 52257
L57854 52285
L57629 52285
" />
</g>
<g style="fill:#000000; fill-opacity:0.0; 
stroke:#000000; stroke-width:59.0551; stroke-opacity:1; 
stroke-linecap:round; stroke-linejoin:round;">
<path d="M58023 41989
L58211 41989
" />
<path d="M57986 42102
L58117 41708
L58248 42102
" />
<path d="M58380 42102
L58380 41708
L58473 41708
L58530 41727
L58567 41764
L58586 41802
L58605 41877
L58605 41933
L58586 42008
L58567 42045
L58530 42083
L58473 42102
L58380 42102
" />
<path d="M58755 41745
L58773 41727
L58811 41708
L58905 41708
L58942 41727
L58961 41745
L58980 41783
L58980 41820
L58961 41877
L58736 42102
L58980 42102
" />
<path d="M58001 46853
L58189 46853
" />
<path d="M57964 46966
L58095 46572
L58226 46966
" />
<path d="M58358 46966
L58358 46572
L58451 46572
L58508 46591
L58545 46628
L58564 46666
L58583 46741
L58583 46797
L58564 46872
L58545 46909
L58508 46947
L58451 46966
L58358 46966
" />
<path d="M58958 46966
L58733 46966
" />
<path d="M58845 46966
L58845 46572
L58808 46628
L58770 46666
L58733 46684
" />
<path d="M59107 51623
L59295 51623
" />
<path d="M59070 51736
L59201 51342
L59332 51736
" />
<path d="M59464 51736
L59464 51342
L59557 51342
L59614 51361
L59651 51398
L59670 51436
L59689 51511
L59689 51567
L59670 51642
L59651 51679
L59614 51717
L59557 51736
L59464 51736
" />
<path d="M59932 51342
L59970 51342
L60007 51361
L60026 51379
L60045 51417
L60064 51492
L60064 51586
L60045 51661
L60026 51698
L60007 51717
L59970 51736
L59932 51736
L59895 51717
L59876 51698
L59857 51661
L59839 51586
L59839 51492
L59857 51417
L59876 51379
L59895 51361
L59932 51342
" />
</g>
<g style="fill:#000000; fill-opacity:0.0; 
stroke:#000000; stroke-width:98.4252; stroke-opacity:1; 
stroke-linecap:round; stroke-linejoin:round;">
<path d="M50505 41968
L50505 41574
" />
<path d="M50505 41724
L50542 41705
L50617 41705
L50655 41724
L50674 41743
L50692 41780
L50692 41893
L50674 41930
L50655 41949
L50617 41968
L50542 41968
L50505 41949
" />
<path d="M50824 41705
L50917 41968
" />
<path d="M51011 41705
L50917 41968
L50880 42061
L50861 42080
L50824 42099
" />
<path d="M51592 41761
L51649 41780
L51667 41799
L51686 41836
L51686 41893
L51667 41930
L51649 41949
L51611 41968
L51461 41968
L51461 41574
L51592 41574
L51630 41593
L51649 41611
L51667 41649
L51667 41686
L51649 41724
L51630 41743
L51592 41761
L51461 41761
" />
<path d="M51855 41968
L51855 41705
" />
<path d="M51855 41780
L51874 41743
L51892 41724
L51930 41705
L51967 41705
" />
<path d="M52099 41968
L52099 41705
" />
<path d="M52099 41574
L52080 41593
L52099 41611
L52117 41593
L52099 41574
L52099 41611
" />
<path d="M52455 41949
L52417 41968
L52342 41968
L52305 41949
L52286 41930
L52267 41893
L52267 41780
L52286 41743
L52305 41724
L52342 41705
L52417 41705
L52455 41724
" />
<path d="M52680 41968
L52642 41949
L52623 41930
L52605 41893
L52605 41780
L52623 41743
L52642 41724
L52680 41705
L52736 41705
L52773 41724
L52792 41743
L52811 41780
L52811 41893
L52792 41930
L52773 41949
L52736 41968
L52680 41968
" />
<path d="M53167 41968
L52980 41968
L52980 41574
" />
<path d="M53467 41968
L53467 41761
L53448 41724
L53411 41705
L53336 41705
L53298 41724
" />
<path d="M53467 41949
L53430 41968
L53336 41968
L53298 41949
L53280 41911
L53280 41874
L53298 41836
L53336 41818
L53430 41818
L53467 41799
" />
<path d="M53655 41968
L53655 41574
" />
<path d="M53655 41724
L53692 41705
L53767 41705
L53805 41724
L53823 41743
L53842 41780
L53842 41893
L53823 41930
L53805 41949
L53767 41968
L53692 41968
L53655 41949
" />
<path d="M53992 41949
L54030 41968
L54105 41968
L54142 41949
L54161 41911
L54161 41893
L54142 41855
L54105 41836
L54048 41836
L54011 41818
L53992 41780
L53992 41761
L54011 41724
L54048 41705
L54105 41705
L54142 41724
" />
</g>
<g style="fill:#000000; fill-opacity:0.0; 
stroke:#000000; stroke-width:80; stroke-opacity:1; 
stroke-linecap:round; stroke-linejoin:round;">
<path d="M66255 47785
L64555 47785
" />
<path d="M64555 50185
L66255 50185
" />
<path d="M66605 48593
L66605 49385
" />
<path d="M64205 48581
L64205 49385
" />
<circle cx="65405" cy="48985" r="700" /> 
</g>
<g style="fill:#000000; fill-opacity:0.0; 
stroke:#000000; stroke-width:59.0551; stroke-opacity:1; 
stroke-linecap:round; stroke-linejoin:round;">
<path d="M72250 47400
L70250 47400
" />
<path d="M70250 47400
L70250 46400
" />
<path d="M70250 46400
L72250 46400
" />
<path d="M72250 46400
L72250 47400
" />
<path d="M72250 46900
L72750 46900
" />
<path d="M70250 46900
L69750 46900
" />
</g>
<g style="fill:#000000; fill-opacity:0.0; 
stroke:#000000; stroke-width:80; stroke-opacity:1; 
stroke-linecap:round; stroke-linejoin:round;">
<path d="M73470 47840
L71770 47840
" />
<path d="M71770 50240
L73470 50240
" />
<path d="M73820 48648
L73820 49440
" />
<path d="M71420 48636
L71420 49440
" />
<circle cx="72620" cy="49040" r="700" /> 
<path d="M70171 40445
L71671 40445
" />
</g>
<g style="fill:#000000; fill-opacity:0.0; 
stroke:#000000; stroke-width:100; stroke-opacity:1; 
stroke-linecap:round; stroke-linejoin:round;">
<path d="M71672.5 40444.6 A1250 1250 0.0 1 0 70171.5 40445.4 " />
</g>
<g style="fill:#000000; fill-opacity:0.0; 
stroke:#000000; stroke-width:60; stroke-opacity:1; 
stroke-linecap:round; stroke-linejoin:round;">
<circle cx="70921.5" cy="39445.4" r="1000" /> 
</g>
<g style="fill:#000000; fill-opacity:0.0; 
stroke:#000000; stroke-width:80; stroke-opacity:1; 
stroke-linecap:round; stroke-linejoin:round;">
<path d="M72801 40445
L74301 40445
" />
</g>
<g style="fill:#000000; fill-opacity:0.0; 
stroke:#000000; stroke-width:100; stroke-opacity:1; 
stroke-linecap:round; stroke-linejoin:round;">
<path d="M74302.4 40444.6 A1250 1250 0.0 1 0 72801.4 40445.4 " />
</g>
<g style="fill:#000000; fill-opacity:0.0; 
stroke:#000000; stroke-width:60; stroke-opacity:1; 
stroke-linecap:round; stroke-linejoin:round;">
<circle cx="73551.4" cy="39445.4" r="1000" /> 
</g>
<g style="fill:#000000; fill-opacity:0.0; 
stroke:#000000; stroke-width:59.0551; stroke-opacity:1; 
stroke-linecap:round; stroke-linejoin:round;">
<path d="M62600 45200
L60600 45200
" />
<path d="M60600 45200
L60600 44200
" />
<path d="M60600 44200
L62600 44200
" />
<path d="M62600 44200
L62600 45200
" />
<path d="M62600 44700
L63100 44700
" />
<path d="M60600 44700
L60100 44700
" />
<path d="M62600 46150
L60600 46150
" />
<path d="M60600 46150
L60600 45150
" />
<path d="M60600 45150
L62600 45150
" />
<path d="M62600 45150
L62600 46150
" />
<path d="M62600 45650
L63100 45650
" />
<path d="M60600 45650
L60100 45650
" />
</g>
<g style="fill:#000000; fill-opacity:0.0; 
stroke:#000000; stroke-width:80; stroke-opacity:1; 
stroke-linecap:round; stroke-linejoin:round;">
<path d="M69720 47785
L68020 47785
" />
<path d="M68020 50185
L69720 50185
" />
<path d="M70070 48593
L70070 49385
" />
<path d="M67670 48581
L67670 49385
" />
<circle cx="68870" cy="48985" r="700" /> 
</g>
<g style="fill:#000000; fill-opacity:0.0; 
stroke:#000000; stroke-width:150; stroke-opacity:1; 
stroke-linecap:round; stroke-linejoin:round;">
<path d="M56357 36410
L56357 36685
" />
<path d="M56278 35386
L55648 35386
" />
</g>
<g style="fill:#000000; fill-opacity:0.0; 
stroke:#000000; stroke-width:80; stroke-opacity:1; 
stroke-linecap:round; stroke-linejoin:round;">
<path d="M70200 43375
L69950 43625
" />
<path d="M69950 43625
L69450 43625
" />
<path d="M69450 43625
L69200 43375
" />
<path d="M69200 42875
L69450 42625
" />
<path d="M69450 42625
L69950 42625
" />
<path d="M69950 42625
L70200 42875
" />
<path d="M71950 43625
L71450 43625
" />
<path d="M71450 43625
L71200 43375
" />
<path d="M71200 42875
L71450 42625
" />
<path d="M71200 43375
L70950 43625
" />
<path d="M70950 43625
L70450 43625
" />
<path d="M70450 43625
L70200 43375
" />
<path d="M70200 42875
L70450 42625
" />
<path d="M70450 42625
L70950 42625
" />
<path d="M70950 42625
L71200 42875
" />
<path d="M72200 43375
L72200 42875
" />
<path d="M71950 43625
L72200 43375
" />
<path d="M72200 42875
L71950 42625
" />
<path d="M71450 42625
L71950 42625
" />
<path d="M69200 43375
L69200 42875
" />
<path d="M52860 51420
L51160 51420
" />
<path d="M51160 53820
L52860 53820
" />
<path d="M53210 52228
L53210 53020
" />
<path d="M50810 52216
L50810 53020
" />
<circle cx="52010" cy="52620" r="700" /> 
</g>
<g style="fill:#000000; fill-opacity:0.0; 
stroke:#000000; stroke-width:59.0551; stroke-opacity:1; 
stroke-linecap:round; stroke-linejoin:round;">
<circle cx="52190" cy="34858" r="394" /> 
<circle cx="52190" cy="34858" r="2441" /> 
<path d="M55302 49660
L57302 49660
" />
<path d="M57302 49660
L57302 50660
" />
<path d="M57302 50660
L55302 50660
" />
<path d="M55302 50660
L55302 49660
" />
<path d="M55302 50160
L54802 50160
" />
<path d="M57302 50160
L57802 50160
" />
<path d="M57290 51706
L55290 51706
" />
<path d="M55290 51706
L55290 50706
" />
<path d="M55290 50706
L57290 50706
" />
<path d="M57290 50706
L57290 51706
" />
<path d="M57290 51206
L57790 51206
" />
<path d="M55290 51206
L54790 51206
" />
<path d="M62611 42117
L60611 42117
" />
<path d="M60611 42117
L60611 41117
" />
<path d="M60611 41117
L62611 41117
" />
<path d="M62611 41117
L62611 42117
" />
<path d="M62611 41617
L63111 41617
" />
<path d="M60611 41617
L60111 41617
" />
<path d="M62611 43168
L60611 43168
" />
<path d="M60611 43168
L60611 42168
" />
<path d="M60611 42168
L62611 42168
" />
<path d="M62611 42168
L62611 43168
" />
<path d="M62611 42668
L63111 42668
" />
<path d="M60611 42668
L60111 42668
" />
<path d="M62611 44177
L60611 44177
" />
<path d="M60611 44177
L60611 43177
" />
<path d="M60611 43177
L62611 43177
" />
<path d="M62611 43177
L62611 44177
" />
<path d="M62611 43677
L63111 43677
" />
<path d="M60611 43677
L60111 43677
" />
<path d="M58264 35370
L60264 35370
" />
<path d="M60264 35370
L60264 36370
" />
<path d="M60264 36370
L58264 36370
" />
<path d="M58264 36370
L58264 35370
" />
<path d="M58264 35870
L57764 35870
" />
<path d="M60264 35870
L60764 35870
" />
<path d="M58266 36381
L60266 36381
" />
<path d="M60266 36381
L60266 37381
" />
<path d="M60266 37381
L58266 37381
" />
<path d="M58266 37381
L58266 36381
" />
<path d="M58266 36881
L57766 36881
" />
<path d="M60266 36881
L60766 36881
" />
<path d="M58266 37416
L60266 37416
" />
<path d="M60266 37416
L60266 38416
" />
<path d="M60266 38416
L58266 38416
" />
<path d="M58266 38416
L58266 37416
" />
<path d="M58266 37916
L57766 37916
" />
<path d="M60266 37916
L60766 37916
" />
<path d="M70625 46000
L68625 46000
" />
<path d="M68625 46000
L68625 45000
" />
<path d="M68625 45000
L70625 45000
" />
<path d="M70625 45000
L70625 46000
" />
<path d="M70625 45500
L71125 45500
" />
<path d="M68625 45500
L68125 45500
" />
<path d="M64571 46350
L66571 46350
" />
<path d="M66571 46350
L66571 47350
" />
<path d="M66571 47350
L64571 47350
" />
<path d="M64571 47350
L64571 46350
" />
<path d="M64571 46850
L64071 46850
" />
<path d="M66571 46850
L67071 46850
" />
</g>
<g style="fill:#000000; fill-opacity:0.0; 
stroke:#000000; stroke-width:80; stroke-opacity:1; 
stroke-linecap:round; stroke-linejoin:round;">
<path d="M62220 40500
L63720 40500
" />
</g>
<g style="fill:#000000; fill-opacity:0.0; 
stroke:#000000; stroke-width:100; stroke-opacity:1; 
stroke-linecap:round; stroke-linejoin:round;">
<path d="M63721.1 40499.2 A1250 1250 0.0 1 0 62220 40500 " />
</g>
<g style="fill:#000000; fill-opacity:0.0; 
stroke:#000000; stroke-width:60; stroke-opacity:1; 
stroke-linecap:round; stroke-linejoin:round;">
<circle cx="62970" cy="39500" r="1000" /> 
</g>
<g style="fill:#000000; fill-opacity:0.0; 
stroke:#000000; stroke-width:80; stroke-opacity:1; 
stroke-linecap:round; stroke-linejoin:round;">
<path d="M64900 40500
L66400 40500
" />
</g>
<g style="fill:#000000; fill-opacity:0.0; 
stroke:#000000; stroke-width:100; stroke-opacity:1; 
stroke-linecap:round; stroke-linejoin:round;">
<path d="M66401.1 40499.2 A1250 1250 0.0 1 0 64900 40500 " />
</g>
<g style="fill:#000000; fill-opacity:0.0; 
stroke:#000000; stroke-width:60; stroke-opacity:1; 
stroke-linecap:round; stroke-linejoin:round;">
<circle cx="65650" cy="39500" r="1000" /> 
</g>
<g style="fill:#000000; fill-opacity:0.0; 
stroke:#000000; stroke-width:80; stroke-opacity:1; 
stroke-linecap:round; stroke-linejoin:round;">
<path d="M67650 40500
L69150 40500
" />
</g>
<g style="fill:#000000; fill-opacity:0.0; 
stroke:#000000; stroke-width:100; stroke-opacity:1; 
stroke-linecap:round; stroke-linejoin:round;">
<path d="M69151.1 40499.2 A1250 1250 0.0 1 0 67650 40500 " />
</g>
<g style="fill:#000000; fill-opacity:0.0; 
stroke:#000000; stroke-width:60; stroke-opacity:1; 
stroke-linecap:round; stroke-linejoin:round;">
<circle cx="68400" cy="39500" r="1000" /> 
</g>
<g style="fill:#000000; fill-opacity:0.0; 
stroke:#000000; stroke-width:59.0551; stroke-opacity:1; 
stroke-linecap:round; stroke-linejoin:round;">
<path d="M52807 40684
L52949 41263
" />
<path d="M52949 41263
L53059 40845
" />
<path d="M53059 40845
L53181 41267
" />
<path d="M53181 41267
L53315 40696
" />
<path d="M52248 40956
L52559 40952
" />
<path d="M52559 40952
L52563 40956
" />
<path d="M52563 40956
L52563 40952
" />
<path d="M52579 40672
L52579 41279
" />
<path d="M52229 40668
L52229 41286
" />
<path d="M52229 41286
L52233 41282
" />
<path d="M52012 40708
L51874 40676
" />
<path d="M51874 40676
L51748 40672
" />
<path d="M51748 40672
L51654 40751
" />
<path d="M51654 40751
L51642 40857
" />
<path d="M51642 40857
L51737 40952
" />
<path d="M51737 40952
L51890 41003
" />
<path d="M51890 41003
L51961 41066
" />
<path d="M51961 41066
L51977 41184
" />
<path d="M51977 41184
L51886 41271
" />
<path d="M51886 41271
L51760 41282
" />
<path d="M51760 41282
L51622 41239
" />
<path d="M51213 40668
L51115 40676
" />
<path d="M51115 40676
L51020 40771
" />
<path d="M51020 40771
L50985 40964
" />
<path d="M50985 40964
L50996 41101
" />
<path d="M50996 41101
L51075 41227
" />
<path d="M51075 41227
L51174 41275
" />
<path d="M51174 41275
L51296 41247
" />
<path d="M51296 41247
L51382 41176
" />
<path d="M51382 41176
L51410 40995
" />
<path d="M51410 40995
L51390 40834
" />
<path d="M51390 40834
L51347 40723
" />
<path d="M51347 40723
L51205 40672
" />
<path d="M51449 39991
L51347 40212
" />
<path d="M51347 40212
L51559 40416
" />
<path d="M51559 40416
L51764 40310
" />
<path d="M51764 40310
L51874 40373
" />
<path d="M52441 40365
L52571 40290
" />
<path d="M52571 40290
L52744 40420
" />
<path d="M52744 40420
L52930 40227
" />
<path d="M52930 40227
L52819 40038
" />
<path d="M52819 40038
L52894 39853
" />
<path d="M52894 39853
L53134 39779
" />
<path d="M53134 39779
L53134 39511
" />
<path d="M53134 39511
L52914 39456
" />
<path d="M52914 39456
L52835 39231
" />
<path d="M52835 39231
L52941 39046
" />
<path d="M52941 39046
L52756 38845
" />
<path d="M52756 38845
L52552 38948
" />
<path d="M52552 38948
L52367 38869
" />
<path d="M52367 38869
L52300 38656
" />
<path d="M52300 38656
L52028 38649
" />
<path d="M52028 38649
L51945 38865
" />
<path d="M51945 38865
L51780 38932
" />
<path d="M51780 38932
L51563 38826
" />
<path d="M51563 38826
L51359 39034
" />
<path d="M51359 39034
L51457 39247
" />
<path d="M51457 39247
L51390 39436
" />
<path d="M51390 39436
L51174 39475
" />
<path d="M51174 39475
L51170 39751
" />
<path d="M51170 39751
L51390 39830
" />
<path d="M51390 39830
L51445 39987
" />
<path d="M52288 39979
L52406 39920
" />
<path d="M52406 39920
L52485 39842
" />
<path d="M52485 39842
L52544 39684
" />
<path d="M52544 39684
L52544 39527
" />
<path d="M52544 39527
L52485 39389
" />
<path d="M52485 39389
L52307 39251
" />
<path d="M52307 39251
L52130 39231
" />
<path d="M52130 39231
L51973 39271
" />
<path d="M51973 39271
L51815 39408
" />
<path d="M51815 39408
L51756 39586
" />
<path d="M51756 39586
L51776 39782
" />
<path d="M51776 39782
L51874 39901
" />
<path d="M51874 39901
L52012 39979
" />
<path d="M52012 39979
L51874 40373
" />
<path d="M52288 39979
L52445 40373
" />
<path d="M70946 47062
L70815 46874
" />
<path d="M70721 47062
L70721 46668
L70871 46668
L70909 46687
L70928 46705
L70946 46743
L70946 46799
L70928 46837
L70909 46855
L70871 46874
L70721 46874
" />
<path d="M71321 47062
L71096 47062
" />
<path d="M71209 47062
L71209 46668
L71171 46724
L71134 46762
L71096 46780
" />
<path d="M71453 46668
L71696 46668
L71565 46818
L71621 46818
L71659 46837
L71678 46855
L71696 46893
L71696 46987
L71678 47024
L71659 47043
L71621 47062
L71509 47062
L71471 47043
L71453 47024
" />
<path d="M60921 44778
L60790 44590
" />
<path d="M60696 44778
L60696 44384
L60846 44384
L60884 44403
L60903 44421
L60921 44459
L60921 44515
L60903 44553
L60884 44571
L60846 44590
L60696 44590
" />
<path d="M61296 44778
L61071 44778
" />
<path d="M61184 44778
L61184 44384
L61146 44440
L61109 44478
L61071 44496
" />
<path d="M61540 44384
L61578 44384
L61615 44403
L61634 44421
L61653 44459
L61671 44534
L61671 44628
L61653 44703
L61634 44740
L61615 44759
L61578 44778
L61540 44778
L61503 44759
L61484 44740
L61465 44703
L61446 44628
L61446 44534
L61465 44459
L61484 44421
L61503 44403
L61540 44384
" />
<path d="M60896 45653
L60765 45465
" />
<path d="M60671 45653
L60671 45259
L60821 45259
L60859 45278
L60878 45296
L60896 45334
L60896 45390
L60878 45428
L60859 45446
L60821 45465
L60671 45465
" />
<path d="M61271 45653
L61046 45653
" />
<path d="M61159 45653
L61159 45259
L61121 45315
L61084 45353
L61046 45371
" />
<path d="M61421 45296
L61440 45278
L61478 45259
L61571 45259
L61609 45278
L61628 45296
L61646 45334
L61646 45371
L61628 45428
L61403 45653
L61646 45653
" />
<path d="M51934 33534
L51934 33853
L51952 33890
L51971 33909
L52009 33928
L52084 33928
L52121 33909
L52140 33890
L52159 33853
L52159 33534
" />
<path d="M52552 33928
L52327 33928
" />
<path d="M52440 33928
L52440 33534
L52402 33590
L52365 33628
L52327 33646
" />
<path d="M53530 33982
L53829 33982
" />
<path d="M53680 34132
L53680 33832
" />
<path d="M56304 50330
L56173 50142
" />
<path d="M56079 50330
L56079 49936
L56229 49936
L56266 49955
L56285 49973
L56304 50011
L56304 50067
L56285 50105
L56266 50123
L56229 50142
L56079 50142
" />
<path d="M56679 50330
L56454 50330
" />
<path d="M56566 50330
L56566 49936
L56529 49992
L56491 50030
L56454 50048
" />
<path d="M56284 51402
L56153 51214
" />
<path d="M56059 51402
L56059 51008
L56209 51008
L56246 51027
L56265 51045
L56284 51083
L56284 51139
L56265 51177
L56246 51195
L56209 51214
L56059 51214
" />
<path d="M56434 51045
L56453 51027
L56490 51008
L56584 51008
L56621 51027
L56640 51045
L56659 51083
L56659 51120
L56640 51177
L56415 51402
L56659 51402
" />
<path d="M61224 41838
L61093 41650
" />
<path d="M60999 41838
L60999 41444
L61149 41444
L61186 41463
L61205 41481
L61224 41519
L61224 41575
L61205 41613
L61186 41631
L61149 41650
L60999 41650
" />
<path d="M61355 41444
L61599 41444
L61468 41594
L61524 41594
L61561 41613
L61580 41631
L61599 41669
L61599 41763
L61580 41800
L61561 41819
L61524 41838
L61411 41838
L61374 41819
L61355 41800
" />
<path d="M61224 42889
L61093 42701
" />
<path d="M60999 42889
L60999 42495
L61149 42495
L61186 42514
L61205 42533
L61224 42570
L61224 42626
L61205 42664
L61186 42683
L61149 42701
L60999 42701
" />
<path d="M61561 42626
L61561 42889
" />
<path d="M61468 42476
L61374 42758
L61618 42758
" />
<path d="M61224 43898
L61093 43710
" />
<path d="M60999 43898
L60999 43504
L61149 43504
L61186 43523
L61205 43541
L61224 43579
L61224 43635
L61205 43673
L61186 43691
L61149 43710
L60999 43710
" />
<path d="M61580 43504
L61393 43504
L61374 43691
L61393 43673
L61430 43654
L61524 43654
L61561 43673
L61580 43691
L61599 43729
L61599 43823
L61580 43860
L61561 43879
L61524 43898
L61430 43898
L61393 43879
L61374 43860
" />
<path d="M58848 36021
L58717 35833
" />
<path d="M58623 36021
L58623 35627
L58773 35627
L58810 35646
L58829 35664
L58848 35702
L58848 35758
L58829 35796
L58810 35814
L58773 35833
L58623 35833
" />
<path d="M59185 35627
L59110 35627
L59073 35646
L59054 35664
L59017 35721
L58998 35796
L58998 35946
L59017 35983
L59035 36002
L59073 36021
L59148 36021
L59185 36002
L59204 35983
L59223 35946
L59223 35852
L59204 35814
L59185 35796
L59148 35777
L59073 35777
L59035 35796
L59017 35814
L58998 35852
" />
<path d="M58850 37032
L58719 36844
" />
<path d="M58625 37032
L58625 36638
L58775 36638
L58812 36657
L58831 36675
L58850 36713
L58850 36769
L58831 36807
L58812 36825
L58775 36844
L58625 36844
" />
<path d="M58981 36638
L59244 36638
L59075 37032
" />
<path d="M58850 38067
L58719 37879
" />
<path d="M58625 38067
L58625 37673
L58775 37673
L58812 37692
L58831 37710
L58850 37748
L58850 37804
L58831 37842
L58812 37860
L58775 37879
L58625 37879
" />
<path d="M59075 37842
L59037 37823
L59019 37804
L59000 37767
L59000 37748
L59019 37710
L59037 37692
L59075 37673
L59150 37673
L59187 37692
L59206 37710
L59225 37748
L59225 37767
L59206 37804
L59187 37823
L59150 37842
L59075 37842
L59037 37860
L59019 37879
L59000 37917
L59000 37992
L59019 38029
L59037 38048
L59075 38067
L59150 38067
L59187 38048
L59206 38029
L59225 37992
L59225 37917
L59206 37879
L59187 37860
L59150 37842
" />
<path d="M69579 45658
L69448 45470
" />
<path d="M69354 45658
L69354 45264
L69504 45264
L69541 45283
L69560 45301
L69579 45339
L69579 45395
L69560 45433
L69541 45451
L69504 45470
L69354 45470
" />
<path d="M69766 45658
L69841 45658
L69879 45639
L69898 45620
L69935 45564
L69954 45489
L69954 45339
L69935 45301
L69916 45283
L69879 45264
L69804 45264
L69766 45283
L69748 45301
L69729 45339
L69729 45433
L69748 45470
L69766 45489
L69804 45508
L69879 45508
L69916 45489
L69935 45470
L69954 45433
" />
<path d="M65358 47007
L65227 46819
" />
<path d="M65133 47007
L65133 46613
L65283 46613
L65321 46632
L65340 46650
L65358 46688
L65358 46744
L65340 46782
L65321 46800
L65283 46819
L65133 46819
" />
<path d="M65733 47007
L65508 47007
" />
<path d="M65621 47007
L65621 46613
L65583 46669
L65546 46707
L65508 46725
" />
<path d="M66108 47007
L65883 47007
" />
<path d="M65996 47007
L65996 46613
L65958 46669
L65921 46707
L65883 46725
" />
<path d="M51092 37868
L51148 37887
L51167 37906
L51186 37943
L51186 38000
L51167 38037
L51148 38056
L51111 38075
L50961 38075
L50961 37681
L51092 37681
L51129 37700
L51148 37718
L51167 37756
L51167 37793
L51148 37831
L51129 37850
L51092 37868
L50961 37868
" />
<path d="M51335 37962
L51523 37962
" />
<path d="M51298 38075
L51429 37681
L51560 38075
" />
<path d="M51635 37681
L51860 37681
" />
<path d="M51748 38075
L51748 37681
" />
<path d="M51973 38056
L52029 38075
L52123 38075
L52160 38056
L52179 38037
L52198 38000
L52198 37962
L52179 37925
L52160 37906
L52123 37887
L52048 37868
L52010 37850
L51992 37831
L51973 37793
L51973 37756
L51992 37718
L52010 37700
L52048 37681
L52142 37681
L52198 37700
" />
<path d="M52648 37718
L52667 37700
L52704 37681
L52798 37681
L52835 37700
L52854 37718
L52873 37756
L52873 37793
L52854 37850
L52629 38075
L52873 38075
" />
<path d="M53042 38037
L53060 38056
L53042 38075
L53023 38056
L53042 38037
L53042 38075
" />
<path d="M53304 37681
L53341 37681
L53379 37700
L53398 37718
L53416 37756
L53435 37831
L53435 37925
L53416 38000
L53398 38037
L53379 38056
L53341 38075
L53304 38075
L53266 38056
L53248 38037
L53229 38000
L53210 37925
L53210 37831
L53229 37756
L53248 37718
L53266 37700
L53304 37681
" />
</g> 
</svg>
