G04 #@! TF.FileFunction,Legend,Top*
%FSLAX46Y46*%
G04 Gerber Fmt 4.6, Leading zero omitted, Abs format (unit mm)*
G04 Created by KiCad (PCBNEW 4.0.5+dfsg1-4~bpo8+1) date Wed Sep 27 19:22:00 2017*
%MOMM*%
%LPD*%
G01*
G04 APERTURE LIST*
%ADD10C,0.100000*%
%ADD11C,0.150000*%
%ADD12C,0.250000*%
%ADD13C,0.300000*%
%ADD14C,0.203200*%
%ADD15C,0.254000*%
%ADD16C,0.152400*%
%ADD17C,0.381000*%
G04 APERTURE END LIST*
D10*
D11*
X183380214Y-128627167D02*
X183856405Y-128627167D01*
X183284976Y-128912881D02*
X183618309Y-127912881D01*
X183951643Y-128912881D01*
X184284976Y-128912881D02*
X184284976Y-127912881D01*
X184523071Y-127912881D01*
X184665929Y-127960500D01*
X184761167Y-128055738D01*
X184808786Y-128150976D01*
X184856405Y-128341452D01*
X184856405Y-128484310D01*
X184808786Y-128674786D01*
X184761167Y-128770024D01*
X184665929Y-128865262D01*
X184523071Y-128912881D01*
X184284976Y-128912881D01*
X185761167Y-127912881D02*
X185284976Y-127912881D01*
X185237357Y-128389071D01*
X185284976Y-128341452D01*
X185380214Y-128293833D01*
X185618310Y-128293833D01*
X185713548Y-128341452D01*
X185761167Y-128389071D01*
X185808786Y-128484310D01*
X185808786Y-128722405D01*
X185761167Y-128817643D01*
X185713548Y-128865262D01*
X185618310Y-128912881D01*
X185380214Y-128912881D01*
X185284976Y-128865262D01*
X185237357Y-128817643D01*
X173791714Y-128563667D02*
X174267905Y-128563667D01*
X173696476Y-128849381D02*
X174029809Y-127849381D01*
X174363143Y-128849381D01*
X174696476Y-128849381D02*
X174696476Y-127849381D01*
X174934571Y-127849381D01*
X175077429Y-127897000D01*
X175172667Y-127992238D01*
X175220286Y-128087476D01*
X175267905Y-128277952D01*
X175267905Y-128420810D01*
X175220286Y-128611286D01*
X175172667Y-128706524D01*
X175077429Y-128801762D01*
X174934571Y-128849381D01*
X174696476Y-128849381D01*
X176125048Y-128182714D02*
X176125048Y-128849381D01*
X175886952Y-127801762D02*
X175648857Y-128516048D01*
X176267905Y-128516048D01*
X165155714Y-128944667D02*
X165631905Y-128944667D01*
X165060476Y-129230381D02*
X165393809Y-128230381D01*
X165727143Y-129230381D01*
X166060476Y-129230381D02*
X166060476Y-128230381D01*
X166298571Y-128230381D01*
X166441429Y-128278000D01*
X166536667Y-128373238D01*
X166584286Y-128468476D01*
X166631905Y-128658952D01*
X166631905Y-128801810D01*
X166584286Y-128992286D01*
X166536667Y-129087524D01*
X166441429Y-129182762D01*
X166298571Y-129230381D01*
X166060476Y-129230381D01*
X166965238Y-128230381D02*
X167584286Y-128230381D01*
X167250952Y-128611333D01*
X167393810Y-128611333D01*
X167489048Y-128658952D01*
X167536667Y-128706571D01*
X167584286Y-128801810D01*
X167584286Y-129039905D01*
X167536667Y-129135143D01*
X167489048Y-129182762D01*
X167393810Y-129230381D01*
X167108095Y-129230381D01*
X167012857Y-129182762D01*
X166965238Y-129135143D01*
D12*
X186269405Y-96337381D02*
X186269405Y-95337381D01*
X186507500Y-95337381D01*
X186650358Y-95385000D01*
X186745596Y-95480238D01*
X186793215Y-95575476D01*
X186840834Y-95765952D01*
X186840834Y-95908810D01*
X186793215Y-96099286D01*
X186745596Y-96194524D01*
X186650358Y-96289762D01*
X186507500Y-96337381D01*
X186269405Y-96337381D01*
X187174167Y-95337381D02*
X187793215Y-95337381D01*
X187459881Y-95718333D01*
X187602739Y-95718333D01*
X187697977Y-95765952D01*
X187745596Y-95813571D01*
X187793215Y-95908810D01*
X187793215Y-96146905D01*
X187745596Y-96242143D01*
X187697977Y-96289762D01*
X187602739Y-96337381D01*
X187317024Y-96337381D01*
X187221786Y-96289762D01*
X187174167Y-96242143D01*
X179411405Y-96083381D02*
X179411405Y-95083381D01*
X179649500Y-95083381D01*
X179792358Y-95131000D01*
X179887596Y-95226238D01*
X179935215Y-95321476D01*
X179982834Y-95511952D01*
X179982834Y-95654810D01*
X179935215Y-95845286D01*
X179887596Y-95940524D01*
X179792358Y-96035762D01*
X179649500Y-96083381D01*
X179411405Y-96083381D01*
X180839977Y-95416714D02*
X180839977Y-96083381D01*
X180601881Y-95035762D02*
X180363786Y-95750048D01*
X180982834Y-95750048D01*
X178776405Y-107703881D02*
X178776405Y-106703881D01*
X179014500Y-106703881D01*
X179157358Y-106751500D01*
X179252596Y-106846738D01*
X179300215Y-106941976D01*
X179347834Y-107132452D01*
X179347834Y-107275310D01*
X179300215Y-107465786D01*
X179252596Y-107561024D01*
X179157358Y-107656262D01*
X179014500Y-107703881D01*
X178776405Y-107703881D01*
X180252596Y-106703881D02*
X179776405Y-106703881D01*
X179728786Y-107180071D01*
X179776405Y-107132452D01*
X179871643Y-107084833D01*
X180109739Y-107084833D01*
X180204977Y-107132452D01*
X180252596Y-107180071D01*
X180300215Y-107275310D01*
X180300215Y-107513405D01*
X180252596Y-107608643D01*
X180204977Y-107656262D01*
X180109739Y-107703881D01*
X179871643Y-107703881D01*
X179776405Y-107656262D01*
X179728786Y-107608643D01*
X172997905Y-96464381D02*
X172997905Y-95464381D01*
X173236000Y-95464381D01*
X173378858Y-95512000D01*
X173474096Y-95607238D01*
X173521715Y-95702476D01*
X173569334Y-95892952D01*
X173569334Y-96035810D01*
X173521715Y-96226286D01*
X173474096Y-96321524D01*
X173378858Y-96416762D01*
X173236000Y-96464381D01*
X172997905Y-96464381D01*
X174426477Y-95464381D02*
X174236000Y-95464381D01*
X174140762Y-95512000D01*
X174093143Y-95559619D01*
X173997905Y-95702476D01*
X173950286Y-95892952D01*
X173950286Y-96273905D01*
X173997905Y-96369143D01*
X174045524Y-96416762D01*
X174140762Y-96464381D01*
X174331239Y-96464381D01*
X174426477Y-96416762D01*
X174474096Y-96369143D01*
X174521715Y-96273905D01*
X174521715Y-96035810D01*
X174474096Y-95940571D01*
X174426477Y-95892952D01*
X174331239Y-95845333D01*
X174140762Y-95845333D01*
X174045524Y-95892952D01*
X173997905Y-95940571D01*
X173950286Y-96035810D01*
X166076405Y-96718381D02*
X166076405Y-95718381D01*
X166314500Y-95718381D01*
X166457358Y-95766000D01*
X166552596Y-95861238D01*
X166600215Y-95956476D01*
X166647834Y-96146952D01*
X166647834Y-96289810D01*
X166600215Y-96480286D01*
X166552596Y-96575524D01*
X166457358Y-96670762D01*
X166314500Y-96718381D01*
X166076405Y-96718381D01*
X166981167Y-95718381D02*
X167647834Y-95718381D01*
X167219262Y-96718381D01*
X161885405Y-96845381D02*
X161885405Y-95845381D01*
X162123500Y-95845381D01*
X162266358Y-95893000D01*
X162361596Y-95988238D01*
X162409215Y-96083476D01*
X162456834Y-96273952D01*
X162456834Y-96416810D01*
X162409215Y-96607286D01*
X162361596Y-96702524D01*
X162266358Y-96797762D01*
X162123500Y-96845381D01*
X161885405Y-96845381D01*
X163028262Y-96273952D02*
X162933024Y-96226333D01*
X162885405Y-96178714D01*
X162837786Y-96083476D01*
X162837786Y-96035857D01*
X162885405Y-95940619D01*
X162933024Y-95893000D01*
X163028262Y-95845381D01*
X163218739Y-95845381D01*
X163313977Y-95893000D01*
X163361596Y-95940619D01*
X163409215Y-96035857D01*
X163409215Y-96083476D01*
X163361596Y-96178714D01*
X163313977Y-96226333D01*
X163218739Y-96273952D01*
X163028262Y-96273952D01*
X162933024Y-96321571D01*
X162885405Y-96369190D01*
X162837786Y-96464429D01*
X162837786Y-96654905D01*
X162885405Y-96750143D01*
X162933024Y-96797762D01*
X163028262Y-96845381D01*
X163218739Y-96845381D01*
X163313977Y-96797762D01*
X163361596Y-96750143D01*
X163409215Y-96654905D01*
X163409215Y-96464429D01*
X163361596Y-96369190D01*
X163313977Y-96321571D01*
X163218739Y-96273952D01*
X157813785Y-96728541D02*
X157813785Y-95728541D01*
X158051880Y-95728541D01*
X158194738Y-95776160D01*
X158289976Y-95871398D01*
X158337595Y-95966636D01*
X158385214Y-96157112D01*
X158385214Y-96299970D01*
X158337595Y-96490446D01*
X158289976Y-96585684D01*
X158194738Y-96680922D01*
X158051880Y-96728541D01*
X157813785Y-96728541D01*
X158861404Y-96728541D02*
X159051880Y-96728541D01*
X159147119Y-96680922D01*
X159194738Y-96633303D01*
X159289976Y-96490446D01*
X159337595Y-96299970D01*
X159337595Y-95919017D01*
X159289976Y-95823779D01*
X159242357Y-95776160D01*
X159147119Y-95728541D01*
X158956642Y-95728541D01*
X158861404Y-95776160D01*
X158813785Y-95823779D01*
X158766166Y-95919017D01*
X158766166Y-96157112D01*
X158813785Y-96252350D01*
X158861404Y-96299970D01*
X158956642Y-96347589D01*
X159147119Y-96347589D01*
X159242357Y-96299970D01*
X159289976Y-96252350D01*
X159337595Y-96157112D01*
X157779554Y-94036141D02*
X157779554Y-93036141D01*
X158017649Y-93036141D01*
X158160507Y-93083760D01*
X158255745Y-93178998D01*
X158303364Y-93274236D01*
X158350983Y-93464712D01*
X158350983Y-93607570D01*
X158303364Y-93798046D01*
X158255745Y-93893284D01*
X158160507Y-93988522D01*
X158017649Y-94036141D01*
X157779554Y-94036141D01*
X159303364Y-94036141D02*
X158731935Y-94036141D01*
X159017649Y-94036141D02*
X159017649Y-93036141D01*
X158922411Y-93178998D01*
X158827173Y-93274236D01*
X158731935Y-93321855D01*
X159922411Y-93036141D02*
X160017650Y-93036141D01*
X160112888Y-93083760D01*
X160160507Y-93131379D01*
X160208126Y-93226617D01*
X160255745Y-93417093D01*
X160255745Y-93655189D01*
X160208126Y-93845665D01*
X160160507Y-93940903D01*
X160112888Y-93988522D01*
X160017650Y-94036141D01*
X159922411Y-94036141D01*
X159827173Y-93988522D01*
X159779554Y-93940903D01*
X159731935Y-93845665D01*
X159684316Y-93655189D01*
X159684316Y-93417093D01*
X159731935Y-93226617D01*
X159779554Y-93131379D01*
X159827173Y-93083760D01*
X159922411Y-93036141D01*
X157820194Y-91191341D02*
X157820194Y-90191341D01*
X158058289Y-90191341D01*
X158201147Y-90238960D01*
X158296385Y-90334198D01*
X158344004Y-90429436D01*
X158391623Y-90619912D01*
X158391623Y-90762770D01*
X158344004Y-90953246D01*
X158296385Y-91048484D01*
X158201147Y-91143722D01*
X158058289Y-91191341D01*
X157820194Y-91191341D01*
X159344004Y-91191341D02*
X158772575Y-91191341D01*
X159058289Y-91191341D02*
X159058289Y-90191341D01*
X158963051Y-90334198D01*
X158867813Y-90429436D01*
X158772575Y-90477055D01*
X160296385Y-91191341D02*
X159724956Y-91191341D01*
X160010670Y-91191341D02*
X160010670Y-90191341D01*
X159915432Y-90334198D01*
X159820194Y-90429436D01*
X159724956Y-90477055D01*
D13*
X139730943Y-97047857D02*
X139945229Y-97119286D01*
X140016657Y-97190714D01*
X140088086Y-97333571D01*
X140088086Y-97547857D01*
X140016657Y-97690714D01*
X139945229Y-97762143D01*
X139802371Y-97833571D01*
X139230943Y-97833571D01*
X139230943Y-96333571D01*
X139730943Y-96333571D01*
X139873800Y-96405000D01*
X139945229Y-96476429D01*
X140016657Y-96619286D01*
X140016657Y-96762143D01*
X139945229Y-96905000D01*
X139873800Y-96976429D01*
X139730943Y-97047857D01*
X139230943Y-97047857D01*
X139940457Y-94042800D02*
X139797600Y-93971371D01*
X139583314Y-93971371D01*
X139369029Y-94042800D01*
X139226171Y-94185657D01*
X139154743Y-94328514D01*
X139083314Y-94614229D01*
X139083314Y-94828514D01*
X139154743Y-95114229D01*
X139226171Y-95257086D01*
X139369029Y-95399943D01*
X139583314Y-95471371D01*
X139726171Y-95471371D01*
X139940457Y-95399943D01*
X140011886Y-95328514D01*
X140011886Y-94828514D01*
X139726171Y-94828514D01*
X140011886Y-91585171D02*
X139511886Y-90870886D01*
X139154743Y-91585171D02*
X139154743Y-90085171D01*
X139726171Y-90085171D01*
X139869029Y-90156600D01*
X139940457Y-90228029D01*
X140011886Y-90370886D01*
X140011886Y-90585171D01*
X139940457Y-90728029D01*
X139869029Y-90799457D01*
X139726171Y-90870886D01*
X139154743Y-90870886D01*
X144379286Y-133520571D02*
X143665000Y-133520571D01*
X143665000Y-132020571D01*
X144879286Y-133520571D02*
X144879286Y-132020571D01*
X145236429Y-132020571D01*
X145450714Y-132092000D01*
X145593572Y-132234857D01*
X145665000Y-132377714D01*
X145736429Y-132663429D01*
X145736429Y-132877714D01*
X145665000Y-133163429D01*
X145593572Y-133306286D01*
X145450714Y-133449143D01*
X145236429Y-133520571D01*
X144879286Y-133520571D01*
X147236429Y-133520571D02*
X146736429Y-132806286D01*
X146379286Y-133520571D02*
X146379286Y-132020571D01*
X146950714Y-132020571D01*
X147093572Y-132092000D01*
X147165000Y-132163429D01*
X147236429Y-132306286D01*
X147236429Y-132520571D01*
X147165000Y-132663429D01*
X147093572Y-132734857D01*
X146950714Y-132806286D01*
X146379286Y-132806286D01*
D11*
X147380794Y-106653627D02*
X147856985Y-106653627D01*
X147285556Y-106939341D02*
X147618889Y-105939341D01*
X147952223Y-106939341D01*
X148285556Y-106939341D02*
X148285556Y-105939341D01*
X148523651Y-105939341D01*
X148666509Y-105986960D01*
X148761747Y-106082198D01*
X148809366Y-106177436D01*
X148856985Y-106367912D01*
X148856985Y-106510770D01*
X148809366Y-106701246D01*
X148761747Y-106796484D01*
X148666509Y-106891722D01*
X148523651Y-106939341D01*
X148285556Y-106939341D01*
X149237937Y-106034579D02*
X149285556Y-105986960D01*
X149380794Y-105939341D01*
X149618890Y-105939341D01*
X149714128Y-105986960D01*
X149761747Y-106034579D01*
X149809366Y-106129817D01*
X149809366Y-106225055D01*
X149761747Y-106367912D01*
X149190318Y-106939341D01*
X149809366Y-106939341D01*
X147324914Y-119008187D02*
X147801105Y-119008187D01*
X147229676Y-119293901D02*
X147563009Y-118293901D01*
X147896343Y-119293901D01*
X148229676Y-119293901D02*
X148229676Y-118293901D01*
X148467771Y-118293901D01*
X148610629Y-118341520D01*
X148705867Y-118436758D01*
X148753486Y-118531996D01*
X148801105Y-118722472D01*
X148801105Y-118865330D01*
X148753486Y-119055806D01*
X148705867Y-119151044D01*
X148610629Y-119246282D01*
X148467771Y-119293901D01*
X148229676Y-119293901D01*
X149753486Y-119293901D02*
X149182057Y-119293901D01*
X149467771Y-119293901D02*
X149467771Y-118293901D01*
X149372533Y-118436758D01*
X149277295Y-118531996D01*
X149182057Y-118579615D01*
X150134154Y-131123987D02*
X150610345Y-131123987D01*
X150038916Y-131409701D02*
X150372249Y-130409701D01*
X150705583Y-131409701D01*
X151038916Y-131409701D02*
X151038916Y-130409701D01*
X151277011Y-130409701D01*
X151419869Y-130457320D01*
X151515107Y-130552558D01*
X151562726Y-130647796D01*
X151610345Y-130838272D01*
X151610345Y-130981130D01*
X151562726Y-131171606D01*
X151515107Y-131266844D01*
X151419869Y-131362082D01*
X151277011Y-131409701D01*
X151038916Y-131409701D01*
X152229392Y-130409701D02*
X152324631Y-130409701D01*
X152419869Y-130457320D01*
X152467488Y-130504939D01*
X152515107Y-130600177D01*
X152562726Y-130790653D01*
X152562726Y-131028749D01*
X152515107Y-131219225D01*
X152467488Y-131314463D01*
X152419869Y-131362082D01*
X152324631Y-131409701D01*
X152229392Y-131409701D01*
X152134154Y-131362082D01*
X152086535Y-131314463D01*
X152038916Y-131219225D01*
X151991297Y-131028749D01*
X151991297Y-130790653D01*
X152038916Y-130600177D01*
X152086535Y-130504939D01*
X152134154Y-130457320D01*
X152229392Y-130409701D01*
D12*
X128283912Y-106598981D02*
X128283912Y-105598981D01*
X128283912Y-105979933D02*
X128379150Y-105932314D01*
X128569627Y-105932314D01*
X128664865Y-105979933D01*
X128712484Y-106027552D01*
X128760103Y-106122790D01*
X128760103Y-106408505D01*
X128712484Y-106503743D01*
X128664865Y-106551362D01*
X128569627Y-106598981D01*
X128379150Y-106598981D01*
X128283912Y-106551362D01*
X129093436Y-105932314D02*
X129331531Y-106598981D01*
X129569627Y-105932314D02*
X129331531Y-106598981D01*
X129236293Y-106837076D01*
X129188674Y-106884695D01*
X129093436Y-106932314D01*
X131045818Y-106075171D02*
X131188675Y-106122790D01*
X131236294Y-106170410D01*
X131283913Y-106265648D01*
X131283913Y-106408505D01*
X131236294Y-106503743D01*
X131188675Y-106551362D01*
X131093437Y-106598981D01*
X130712484Y-106598981D01*
X130712484Y-105598981D01*
X131045818Y-105598981D01*
X131141056Y-105646600D01*
X131188675Y-105694219D01*
X131236294Y-105789457D01*
X131236294Y-105884695D01*
X131188675Y-105979933D01*
X131141056Y-106027552D01*
X131045818Y-106075171D01*
X130712484Y-106075171D01*
X131712484Y-106598981D02*
X131712484Y-105932314D01*
X131712484Y-106122790D02*
X131760103Y-106027552D01*
X131807722Y-105979933D01*
X131902960Y-105932314D01*
X131998199Y-105932314D01*
X132331532Y-106598981D02*
X132331532Y-105932314D01*
X132331532Y-105598981D02*
X132283913Y-105646600D01*
X132331532Y-105694219D01*
X132379151Y-105646600D01*
X132331532Y-105598981D01*
X132331532Y-105694219D01*
X133236294Y-106551362D02*
X133141056Y-106598981D01*
X132950579Y-106598981D01*
X132855341Y-106551362D01*
X132807722Y-106503743D01*
X132760103Y-106408505D01*
X132760103Y-106122790D01*
X132807722Y-106027552D01*
X132855341Y-105979933D01*
X132950579Y-105932314D01*
X133141056Y-105932314D01*
X133236294Y-105979933D01*
X133807722Y-106598981D02*
X133712484Y-106551362D01*
X133664865Y-106503743D01*
X133617246Y-106408505D01*
X133617246Y-106122790D01*
X133664865Y-106027552D01*
X133712484Y-105979933D01*
X133807722Y-105932314D01*
X133950580Y-105932314D01*
X134045818Y-105979933D01*
X134093437Y-106027552D01*
X134141056Y-106122790D01*
X134141056Y-106408505D01*
X134093437Y-106503743D01*
X134045818Y-106551362D01*
X133950580Y-106598981D01*
X133807722Y-106598981D01*
X135045818Y-106598981D02*
X134569627Y-106598981D01*
X134569627Y-105598981D01*
X135807723Y-106598981D02*
X135807723Y-106075171D01*
X135760104Y-105979933D01*
X135664866Y-105932314D01*
X135474389Y-105932314D01*
X135379151Y-105979933D01*
X135807723Y-106551362D02*
X135712485Y-106598981D01*
X135474389Y-106598981D01*
X135379151Y-106551362D01*
X135331532Y-106456124D01*
X135331532Y-106360886D01*
X135379151Y-106265648D01*
X135474389Y-106218029D01*
X135712485Y-106218029D01*
X135807723Y-106170410D01*
X136283913Y-106598981D02*
X136283913Y-105598981D01*
X136283913Y-105979933D02*
X136379151Y-105932314D01*
X136569628Y-105932314D01*
X136664866Y-105979933D01*
X136712485Y-106027552D01*
X136760104Y-106122790D01*
X136760104Y-106408505D01*
X136712485Y-106503743D01*
X136664866Y-106551362D01*
X136569628Y-106598981D01*
X136379151Y-106598981D01*
X136283913Y-106551362D01*
X137141056Y-106551362D02*
X137236294Y-106598981D01*
X137426770Y-106598981D01*
X137522009Y-106551362D01*
X137569628Y-106456124D01*
X137569628Y-106408505D01*
X137522009Y-106313267D01*
X137426770Y-106265648D01*
X137283913Y-106265648D01*
X137188675Y-106218029D01*
X137141056Y-106122790D01*
X137141056Y-106075171D01*
X137188675Y-105979933D01*
X137283913Y-105932314D01*
X137426770Y-105932314D01*
X137522009Y-105979933D01*
D14*
X190169800Y-121513600D02*
X185851800Y-121513600D01*
X185851800Y-127609600D02*
X190169800Y-127609600D01*
X191058800Y-123565920D02*
X191058800Y-125577600D01*
X184962800Y-123535440D02*
X184962800Y-125577600D01*
X189788800Y-124561600D02*
G75*
G03X189788800Y-124561600I-1778000J0D01*
G01*
X171843700Y-121373900D02*
X167525700Y-121373900D01*
X167525700Y-127469900D02*
X171843700Y-127469900D01*
X172732700Y-123426220D02*
X172732700Y-125437900D01*
X166636700Y-123395740D02*
X166636700Y-125437900D01*
X171462700Y-124421900D02*
G75*
G03X171462700Y-124421900I-1778000J0D01*
G01*
D11*
X187071000Y-120396000D02*
X181991000Y-120396000D01*
X181991000Y-120396000D02*
X181991000Y-117856000D01*
X181991000Y-117856000D02*
X187071000Y-117856000D01*
X187071000Y-117856000D02*
X187071000Y-120396000D01*
X187071000Y-119126000D02*
X188341000Y-119126000D01*
X181991000Y-119126000D02*
X180721000Y-119126000D01*
X159004000Y-114808000D02*
X153924000Y-114808000D01*
X153924000Y-114808000D02*
X153924000Y-112268000D01*
X153924000Y-112268000D02*
X159004000Y-112268000D01*
X159004000Y-112268000D02*
X159004000Y-114808000D01*
X159004000Y-113538000D02*
X160274000Y-113538000D01*
X153924000Y-113538000D02*
X152654000Y-113538000D01*
X159004000Y-117221000D02*
X153924000Y-117221000D01*
X153924000Y-117221000D02*
X153924000Y-114681000D01*
X153924000Y-114681000D02*
X159004000Y-114681000D01*
X159004000Y-114681000D02*
X159004000Y-117221000D01*
X159004000Y-115951000D02*
X160274000Y-115951000D01*
X153924000Y-115951000D02*
X152654000Y-115951000D01*
D14*
X180644800Y-121373900D02*
X176326800Y-121373900D01*
X176326800Y-127469900D02*
X180644800Y-127469900D01*
X181533800Y-123426220D02*
X181533800Y-125437900D01*
X175437800Y-123395740D02*
X175437800Y-125437900D01*
X180263800Y-124421900D02*
G75*
G03X180263800Y-124421900I-1778000J0D01*
G01*
X178308000Y-110172500D02*
X177673000Y-110807500D01*
X177673000Y-110807500D02*
X176403000Y-110807500D01*
X176403000Y-110807500D02*
X175768000Y-110172500D01*
X175768000Y-108902500D02*
X176403000Y-108267500D01*
X176403000Y-108267500D02*
X177673000Y-108267500D01*
X177673000Y-108267500D02*
X178308000Y-108902500D01*
X182753000Y-110807500D02*
X181483000Y-110807500D01*
X181483000Y-110807500D02*
X180848000Y-110172500D01*
X180848000Y-108902500D02*
X181483000Y-108267500D01*
X180848000Y-110172500D02*
X180213000Y-110807500D01*
X180213000Y-110807500D02*
X178943000Y-110807500D01*
X178943000Y-110807500D02*
X178308000Y-110172500D01*
X178308000Y-108902500D02*
X178943000Y-108267500D01*
X178943000Y-108267500D02*
X180213000Y-108267500D01*
X180213000Y-108267500D02*
X180848000Y-108902500D01*
X183388000Y-110172500D02*
X183388000Y-108902500D01*
X182753000Y-110807500D02*
X183388000Y-110172500D01*
X183388000Y-108902500D02*
X182753000Y-108267500D01*
X181483000Y-108267500D02*
X182753000Y-108267500D01*
X175768000Y-110172500D02*
X175768000Y-108902500D01*
X134264400Y-130606800D02*
X129946400Y-130606800D01*
X129946400Y-136702800D02*
X134264400Y-136702800D01*
X135153400Y-132659120D02*
X135153400Y-134670800D01*
X129057400Y-132628640D02*
X129057400Y-134670800D01*
X133883400Y-133654800D02*
G75*
G03X133883400Y-133654800I-1778000J0D01*
G01*
D11*
X133563360Y-88539320D02*
G75*
G03X133563360Y-88539320I-1000760J0D01*
G01*
X138762740Y-88539320D02*
G75*
G03X138762740Y-88539320I-6200140J0D01*
G01*
X140467080Y-126136400D02*
X145547080Y-126136400D01*
X145547080Y-126136400D02*
X145547080Y-128676400D01*
X145547080Y-128676400D02*
X140467080Y-128676400D01*
X140467080Y-128676400D02*
X140467080Y-126136400D01*
X140467080Y-127406400D02*
X139197080Y-127406400D01*
X145547080Y-127406400D02*
X146817080Y-127406400D01*
X145516600Y-131333240D02*
X140436600Y-131333240D01*
X140436600Y-131333240D02*
X140436600Y-128793240D01*
X140436600Y-128793240D02*
X145516600Y-128793240D01*
X145516600Y-128793240D02*
X145516600Y-131333240D01*
X145516600Y-130063240D02*
X146786600Y-130063240D01*
X140436600Y-130063240D02*
X139166600Y-130063240D01*
X159031940Y-106977180D02*
X153951940Y-106977180D01*
X153951940Y-106977180D02*
X153951940Y-104437180D01*
X153951940Y-104437180D02*
X159031940Y-104437180D01*
X159031940Y-104437180D02*
X159031940Y-106977180D01*
X159031940Y-105707180D02*
X160301940Y-105707180D01*
X153951940Y-105707180D02*
X152681940Y-105707180D01*
X159031940Y-109647355D02*
X153951940Y-109647355D01*
X153951940Y-109647355D02*
X153951940Y-107107355D01*
X153951940Y-107107355D02*
X159031940Y-107107355D01*
X159031940Y-107107355D02*
X159031940Y-109647355D01*
X159031940Y-108377355D02*
X160301940Y-108377355D01*
X153951940Y-108377355D02*
X152681940Y-108377355D01*
X159031940Y-112209580D02*
X153951940Y-112209580D01*
X153951940Y-112209580D02*
X153951940Y-109669580D01*
X153951940Y-109669580D02*
X159031940Y-109669580D01*
X159031940Y-109669580D02*
X159031940Y-112209580D01*
X159031940Y-110939580D02*
X160301940Y-110939580D01*
X153951940Y-110939580D02*
X152681940Y-110939580D01*
X147990560Y-89839800D02*
X153070560Y-89839800D01*
X153070560Y-89839800D02*
X153070560Y-92379800D01*
X153070560Y-92379800D02*
X147990560Y-92379800D01*
X147990560Y-92379800D02*
X147990560Y-89839800D01*
X147990560Y-91109800D02*
X146720560Y-91109800D01*
X153070560Y-91109800D02*
X154340560Y-91109800D01*
X147995640Y-92407740D02*
X153075640Y-92407740D01*
X153075640Y-92407740D02*
X153075640Y-94947740D01*
X153075640Y-94947740D02*
X147995640Y-94947740D01*
X147995640Y-94947740D02*
X147995640Y-92407740D01*
X147995640Y-93677740D02*
X146725640Y-93677740D01*
X153075640Y-93677740D02*
X154345640Y-93677740D01*
X147995640Y-95036640D02*
X153075640Y-95036640D01*
X153075640Y-95036640D02*
X153075640Y-97576640D01*
X153075640Y-97576640D02*
X147995640Y-97576640D01*
X147995640Y-97576640D02*
X147995640Y-95036640D01*
X147995640Y-96306640D02*
X146725640Y-96306640D01*
X153075640Y-96306640D02*
X154345640Y-96306640D01*
X182880000Y-116840000D02*
X177800000Y-116840000D01*
X177800000Y-116840000D02*
X177800000Y-114300000D01*
X177800000Y-114300000D02*
X182880000Y-114300000D01*
X182880000Y-114300000D02*
X182880000Y-116840000D01*
X182880000Y-115570000D02*
X184150000Y-115570000D01*
X177800000Y-115570000D02*
X176530000Y-115570000D01*
X167566340Y-117729000D02*
X172646340Y-117729000D01*
X172646340Y-117729000D02*
X172646340Y-120269000D01*
X172646340Y-120269000D02*
X167566340Y-120269000D01*
X167566340Y-120269000D02*
X167566340Y-117729000D01*
X167566340Y-118999000D02*
X166296340Y-118999000D01*
X172646340Y-118999000D02*
X173916340Y-118999000D01*
D14*
X158038800Y-102870000D02*
X161848800Y-102870000D01*
D15*
X161851468Y-102867997D02*
G75*
G03X158038800Y-102870000I-1907668J2537997D01*
G01*
D16*
X162483800Y-100330000D02*
G75*
G03X162483800Y-100330000I-2540000J0D01*
G01*
D14*
X164846000Y-102870000D02*
X168656000Y-102870000D01*
D15*
X168658668Y-102867997D02*
G75*
G03X164846000Y-102870000I-1907668J2537997D01*
G01*
D16*
X169291000Y-100330000D02*
G75*
G03X169291000Y-100330000I-2540000J0D01*
G01*
D14*
X171831000Y-102870000D02*
X175641000Y-102870000D01*
D15*
X175643668Y-102867997D02*
G75*
G03X171831000Y-102870000I-1907668J2537997D01*
G01*
D16*
X176276000Y-100330000D02*
G75*
G03X176276000Y-100330000I-2540000J0D01*
G01*
D14*
X178235493Y-102731321D02*
X182045493Y-102731321D01*
D15*
X182048161Y-102729318D02*
G75*
G03X178235493Y-102731321I-1907668J2537997D01*
G01*
D16*
X182680493Y-100191321D02*
G75*
G03X182680493Y-100191321I-2540000J0D01*
G01*
D14*
X184915493Y-102731321D02*
X188725493Y-102731321D01*
D15*
X188728161Y-102729318D02*
G75*
G03X184915493Y-102731321I-1907668J2537997D01*
G01*
D16*
X189360493Y-100191321D02*
G75*
G03X189360493Y-100191321I-2540000J0D01*
G01*
D17*
X143149174Y-92481494D02*
X143149174Y-93179994D01*
X142948514Y-89880534D02*
X141348314Y-89880534D01*
D11*
X183761143Y-119537741D02*
X183427809Y-119061550D01*
X183189714Y-119537741D02*
X183189714Y-118537741D01*
X183570667Y-118537741D01*
X183665905Y-118585360D01*
X183713524Y-118632979D01*
X183761143Y-118728217D01*
X183761143Y-118871074D01*
X183713524Y-118966312D01*
X183665905Y-119013931D01*
X183570667Y-119061550D01*
X183189714Y-119061550D01*
X184713524Y-119537741D02*
X184142095Y-119537741D01*
X184427809Y-119537741D02*
X184427809Y-118537741D01*
X184332571Y-118680598D01*
X184237333Y-118775836D01*
X184142095Y-118823455D01*
X185046857Y-118537741D02*
X185665905Y-118537741D01*
X185332571Y-118918693D01*
X185475429Y-118918693D01*
X185570667Y-118966312D01*
X185618286Y-119013931D01*
X185665905Y-119109170D01*
X185665905Y-119347265D01*
X185618286Y-119442503D01*
X185570667Y-119490122D01*
X185475429Y-119537741D01*
X185189714Y-119537741D01*
X185094476Y-119490122D01*
X185046857Y-119442503D01*
X154741643Y-113736381D02*
X154408309Y-113260190D01*
X154170214Y-113736381D02*
X154170214Y-112736381D01*
X154551167Y-112736381D01*
X154646405Y-112784000D01*
X154694024Y-112831619D01*
X154741643Y-112926857D01*
X154741643Y-113069714D01*
X154694024Y-113164952D01*
X154646405Y-113212571D01*
X154551167Y-113260190D01*
X154170214Y-113260190D01*
X155694024Y-113736381D02*
X155122595Y-113736381D01*
X155408309Y-113736381D02*
X155408309Y-112736381D01*
X155313071Y-112879238D01*
X155217833Y-112974476D01*
X155122595Y-113022095D01*
X156313071Y-112736381D02*
X156408310Y-112736381D01*
X156503548Y-112784000D01*
X156551167Y-112831619D01*
X156598786Y-112926857D01*
X156646405Y-113117333D01*
X156646405Y-113355429D01*
X156598786Y-113545905D01*
X156551167Y-113641143D01*
X156503548Y-113688762D01*
X156408310Y-113736381D01*
X156313071Y-113736381D01*
X156217833Y-113688762D01*
X156170214Y-113641143D01*
X156122595Y-113545905D01*
X156074976Y-113355429D01*
X156074976Y-113117333D01*
X156122595Y-112926857D01*
X156170214Y-112831619D01*
X156217833Y-112784000D01*
X156313071Y-112736381D01*
X154678143Y-115958881D02*
X154344809Y-115482690D01*
X154106714Y-115958881D02*
X154106714Y-114958881D01*
X154487667Y-114958881D01*
X154582905Y-115006500D01*
X154630524Y-115054119D01*
X154678143Y-115149357D01*
X154678143Y-115292214D01*
X154630524Y-115387452D01*
X154582905Y-115435071D01*
X154487667Y-115482690D01*
X154106714Y-115482690D01*
X155630524Y-115958881D02*
X155059095Y-115958881D01*
X155344809Y-115958881D02*
X155344809Y-114958881D01*
X155249571Y-115101738D01*
X155154333Y-115196976D01*
X155059095Y-115244595D01*
X156011476Y-115054119D02*
X156059095Y-115006500D01*
X156154333Y-114958881D01*
X156392429Y-114958881D01*
X156487667Y-115006500D01*
X156535286Y-115054119D01*
X156582905Y-115149357D01*
X156582905Y-115244595D01*
X156535286Y-115387452D01*
X155963857Y-115958881D01*
X156582905Y-115958881D01*
X131912455Y-85177381D02*
X131912455Y-85986905D01*
X131960074Y-86082143D01*
X132007693Y-86129762D01*
X132102931Y-86177381D01*
X132293408Y-86177381D01*
X132388646Y-86129762D01*
X132436265Y-86082143D01*
X132483884Y-85986905D01*
X132483884Y-85177381D01*
X133483884Y-86177381D02*
X132912455Y-86177381D01*
X133198169Y-86177381D02*
X133198169Y-85177381D01*
X133102931Y-85320238D01*
X133007693Y-85415476D01*
X132912455Y-85463095D01*
X135966248Y-86314589D02*
X136728153Y-86314589D01*
X136347201Y-86695541D02*
X136347201Y-85933636D01*
X143013134Y-127838461D02*
X142679800Y-127362270D01*
X142441705Y-127838461D02*
X142441705Y-126838461D01*
X142822658Y-126838461D01*
X142917896Y-126886080D01*
X142965515Y-126933699D01*
X143013134Y-127028937D01*
X143013134Y-127171794D01*
X142965515Y-127267032D01*
X142917896Y-127314651D01*
X142822658Y-127362270D01*
X142441705Y-127362270D01*
X143965515Y-127838461D02*
X143394086Y-127838461D01*
X143679800Y-127838461D02*
X143679800Y-126838461D01*
X143584562Y-126981318D01*
X143489324Y-127076556D01*
X143394086Y-127124175D01*
X142962334Y-130561341D02*
X142629000Y-130085150D01*
X142390905Y-130561341D02*
X142390905Y-129561341D01*
X142771858Y-129561341D01*
X142867096Y-129608960D01*
X142914715Y-129656579D01*
X142962334Y-129751817D01*
X142962334Y-129894674D01*
X142914715Y-129989912D01*
X142867096Y-130037531D01*
X142771858Y-130085150D01*
X142390905Y-130085150D01*
X143343286Y-129656579D02*
X143390905Y-129608960D01*
X143486143Y-129561341D01*
X143724239Y-129561341D01*
X143819477Y-129608960D01*
X143867096Y-129656579D01*
X143914715Y-129751817D01*
X143914715Y-129847055D01*
X143867096Y-129989912D01*
X143295667Y-130561341D01*
X143914715Y-130561341D01*
X155509934Y-106268781D02*
X155176600Y-105792590D01*
X154938505Y-106268781D02*
X154938505Y-105268781D01*
X155319458Y-105268781D01*
X155414696Y-105316400D01*
X155462315Y-105364019D01*
X155509934Y-105459257D01*
X155509934Y-105602114D01*
X155462315Y-105697352D01*
X155414696Y-105744971D01*
X155319458Y-105792590D01*
X154938505Y-105792590D01*
X155843267Y-105268781D02*
X156462315Y-105268781D01*
X156128981Y-105649733D01*
X156271839Y-105649733D01*
X156367077Y-105697352D01*
X156414696Y-105744971D01*
X156462315Y-105840210D01*
X156462315Y-106078305D01*
X156414696Y-106173543D01*
X156367077Y-106221162D01*
X156271839Y-106268781D01*
X155986124Y-106268781D01*
X155890886Y-106221162D01*
X155843267Y-106173543D01*
X155509934Y-108938956D02*
X155176600Y-108462765D01*
X154938505Y-108938956D02*
X154938505Y-107938956D01*
X155319458Y-107938956D01*
X155414696Y-107986575D01*
X155462315Y-108034194D01*
X155509934Y-108129432D01*
X155509934Y-108272289D01*
X155462315Y-108367527D01*
X155414696Y-108415146D01*
X155319458Y-108462765D01*
X154938505Y-108462765D01*
X156367077Y-108272289D02*
X156367077Y-108938956D01*
X156128981Y-107891337D02*
X155890886Y-108605623D01*
X156509934Y-108605623D01*
X155509934Y-111501181D02*
X155176600Y-111024990D01*
X154938505Y-111501181D02*
X154938505Y-110501181D01*
X155319458Y-110501181D01*
X155414696Y-110548800D01*
X155462315Y-110596419D01*
X155509934Y-110691657D01*
X155509934Y-110834514D01*
X155462315Y-110929752D01*
X155414696Y-110977371D01*
X155319458Y-111024990D01*
X154938505Y-111024990D01*
X156414696Y-110501181D02*
X155938505Y-110501181D01*
X155890886Y-110977371D01*
X155938505Y-110929752D01*
X156033743Y-110882133D01*
X156271839Y-110882133D01*
X156367077Y-110929752D01*
X156414696Y-110977371D01*
X156462315Y-111072610D01*
X156462315Y-111310705D01*
X156414696Y-111405943D01*
X156367077Y-111453562D01*
X156271839Y-111501181D01*
X156033743Y-111501181D01*
X155938505Y-111453562D01*
X155890886Y-111405943D01*
X149474894Y-91493601D02*
X149141560Y-91017410D01*
X148903465Y-91493601D02*
X148903465Y-90493601D01*
X149284418Y-90493601D01*
X149379656Y-90541220D01*
X149427275Y-90588839D01*
X149474894Y-90684077D01*
X149474894Y-90826934D01*
X149427275Y-90922172D01*
X149379656Y-90969791D01*
X149284418Y-91017410D01*
X148903465Y-91017410D01*
X150332037Y-90493601D02*
X150141560Y-90493601D01*
X150046322Y-90541220D01*
X149998703Y-90588839D01*
X149903465Y-90731696D01*
X149855846Y-90922172D01*
X149855846Y-91303125D01*
X149903465Y-91398363D01*
X149951084Y-91445982D01*
X150046322Y-91493601D01*
X150236799Y-91493601D01*
X150332037Y-91445982D01*
X150379656Y-91398363D01*
X150427275Y-91303125D01*
X150427275Y-91065030D01*
X150379656Y-90969791D01*
X150332037Y-90922172D01*
X150236799Y-90874553D01*
X150046322Y-90874553D01*
X149951084Y-90922172D01*
X149903465Y-90969791D01*
X149855846Y-91065030D01*
X149479974Y-94061541D02*
X149146640Y-93585350D01*
X148908545Y-94061541D02*
X148908545Y-93061541D01*
X149289498Y-93061541D01*
X149384736Y-93109160D01*
X149432355Y-93156779D01*
X149479974Y-93252017D01*
X149479974Y-93394874D01*
X149432355Y-93490112D01*
X149384736Y-93537731D01*
X149289498Y-93585350D01*
X148908545Y-93585350D01*
X149813307Y-93061541D02*
X150479974Y-93061541D01*
X150051402Y-94061541D01*
X149479974Y-96690441D02*
X149146640Y-96214250D01*
X148908545Y-96690441D02*
X148908545Y-95690441D01*
X149289498Y-95690441D01*
X149384736Y-95738060D01*
X149432355Y-95785679D01*
X149479974Y-95880917D01*
X149479974Y-96023774D01*
X149432355Y-96119012D01*
X149384736Y-96166631D01*
X149289498Y-96214250D01*
X148908545Y-96214250D01*
X150051402Y-96119012D02*
X149956164Y-96071393D01*
X149908545Y-96023774D01*
X149860926Y-95928536D01*
X149860926Y-95880917D01*
X149908545Y-95785679D01*
X149956164Y-95738060D01*
X150051402Y-95690441D01*
X150241879Y-95690441D01*
X150337117Y-95738060D01*
X150384736Y-95785679D01*
X150432355Y-95880917D01*
X150432355Y-95928536D01*
X150384736Y-96023774D01*
X150337117Y-96071393D01*
X150241879Y-96119012D01*
X150051402Y-96119012D01*
X149956164Y-96166631D01*
X149908545Y-96214250D01*
X149860926Y-96309489D01*
X149860926Y-96499965D01*
X149908545Y-96595203D01*
X149956164Y-96642822D01*
X150051402Y-96690441D01*
X150241879Y-96690441D01*
X150337117Y-96642822D01*
X150384736Y-96595203D01*
X150432355Y-96499965D01*
X150432355Y-96309489D01*
X150384736Y-96214250D01*
X150337117Y-96166631D01*
X150241879Y-96119012D01*
X180224134Y-115971581D02*
X179890800Y-115495390D01*
X179652705Y-115971581D02*
X179652705Y-114971581D01*
X180033658Y-114971581D01*
X180128896Y-115019200D01*
X180176515Y-115066819D01*
X180224134Y-115162057D01*
X180224134Y-115304914D01*
X180176515Y-115400152D01*
X180128896Y-115447771D01*
X180033658Y-115495390D01*
X179652705Y-115495390D01*
X180700324Y-115971581D02*
X180890800Y-115971581D01*
X180986039Y-115923962D01*
X181033658Y-115876343D01*
X181128896Y-115733486D01*
X181176515Y-115543010D01*
X181176515Y-115162057D01*
X181128896Y-115066819D01*
X181081277Y-115019200D01*
X180986039Y-114971581D01*
X180795562Y-114971581D01*
X180700324Y-115019200D01*
X180652705Y-115066819D01*
X180605086Y-115162057D01*
X180605086Y-115400152D01*
X180652705Y-115495390D01*
X180700324Y-115543010D01*
X180795562Y-115590629D01*
X180986039Y-115590629D01*
X181081277Y-115543010D01*
X181128896Y-115495390D01*
X181176515Y-115400152D01*
X169567623Y-119398041D02*
X169234289Y-118921850D01*
X168996194Y-119398041D02*
X168996194Y-118398041D01*
X169377147Y-118398041D01*
X169472385Y-118445660D01*
X169520004Y-118493279D01*
X169567623Y-118588517D01*
X169567623Y-118731374D01*
X169520004Y-118826612D01*
X169472385Y-118874231D01*
X169377147Y-118921850D01*
X168996194Y-118921850D01*
X170520004Y-119398041D02*
X169948575Y-119398041D01*
X170234289Y-119398041D02*
X170234289Y-118398041D01*
X170139051Y-118540898D01*
X170043813Y-118636136D01*
X169948575Y-118683755D01*
X171472385Y-119398041D02*
X170900956Y-119398041D01*
X171186670Y-119398041D02*
X171186670Y-118398041D01*
X171091432Y-118540898D01*
X170996194Y-118636136D01*
X170900956Y-118683755D01*
M02*
