G04 #@! TF.FileFunction,Copper,L1,Top,Signal*
%FSLAX46Y46*%
G04 Gerber Fmt 4.6, Leading zero omitted, Abs format (unit mm)*
G04 Created by KiCad (PCBNEW 0.201603210401+6634~43~ubuntu14.04.1-product) date dom 03 abr 2016 17:36:57 CEST*
%MOMM*%
G01*
G04 APERTURE LIST*
%ADD10C,0.100000*%
%ADD11C,1.998980*%
%ADD12O,1.524000X2.540000*%
%ADD13C,1.524000*%
%ADD14O,1.524000X1.524000*%
%ADD15C,3.200000*%
%ADD16C,1.800000*%
%ADD17O,1.219200X1.219200*%
%ADD18C,1.300480*%
%ADD19R,1.300480X1.300480*%
%ADD20C,2.000000*%
%ADD21C,0.609600*%
%ADD22C,0.812800*%
%ADD23C,0.508000*%
%ADD24C,0.304800*%
%ADD25C,0.254000*%
G04 APERTURE END LIST*
D10*
D11*
X148031200Y-130162300D03*
X137871200Y-130162300D03*
D12*
X190459360Y-135260080D03*
X187919360Y-135260080D03*
X185379360Y-135260080D03*
X177759360Y-135260080D03*
X180299360Y-135260080D03*
X182839360Y-135260080D03*
X172679360Y-135260080D03*
X170139360Y-135260080D03*
X167599360Y-135260080D03*
X162519360Y-135260080D03*
X159979360Y-135260080D03*
X190459360Y-87000080D03*
X187919360Y-87000080D03*
X185379360Y-87000080D03*
X182839360Y-87000080D03*
X180299360Y-87000080D03*
X177759360Y-87000080D03*
X175219360Y-87000080D03*
X172679360Y-87000080D03*
X168615360Y-87000080D03*
X166075360Y-87000080D03*
X163535360Y-87000080D03*
X160995360Y-87000080D03*
X158455360Y-87000080D03*
X155915360Y-87000080D03*
X153375360Y-87000080D03*
X150835360Y-87000080D03*
X165059360Y-135260080D03*
X148295360Y-87000080D03*
X145755360Y-87000080D03*
X157439360Y-135260080D03*
X154899360Y-135260080D03*
D13*
X190459360Y-107320080D03*
X192999360Y-107320080D03*
X190459360Y-109860080D03*
X192999360Y-109860080D03*
X190459360Y-112400080D03*
X192999360Y-112400080D03*
D14*
X168753790Y-123228100D03*
X175256190Y-123228100D03*
X168753790Y-127749300D03*
X175256190Y-127749300D03*
D11*
X145486120Y-93774260D03*
X155646120Y-93774260D03*
D15*
X138963400Y-123111040D03*
X138963400Y-114511040D03*
D16*
X145963400Y-118811040D03*
X145963400Y-121311040D03*
X145963400Y-116311040D03*
D17*
X166903479Y-91711408D03*
X166903479Y-94251408D03*
X171983479Y-91505889D03*
X171983479Y-94045889D03*
X177063479Y-91624937D03*
X177063479Y-94164937D03*
D18*
X142148414Y-96880774D03*
X142148414Y-90881294D03*
D19*
X142148414Y-92880274D03*
D18*
X142148414Y-94881794D03*
D14*
X179872640Y-98506280D03*
X182412640Y-98506280D03*
X184952640Y-98506280D03*
D11*
X145549620Y-91107260D03*
X155709620Y-91107260D03*
X166423340Y-123583700D03*
X156263340Y-123583700D03*
X176735740Y-110197900D03*
X186895740Y-110197900D03*
X156390340Y-112763300D03*
X166550340Y-112763300D03*
X166423340Y-126199900D03*
X156263340Y-126199900D03*
X177840640Y-122847100D03*
X188000640Y-122847100D03*
D15*
X138912600Y-110794800D03*
X138912600Y-102194800D03*
D16*
X145912600Y-106494800D03*
X145912600Y-108994800D03*
X145912600Y-103994800D03*
D11*
X137858500Y-127457200D03*
X148018500Y-127457200D03*
D14*
X128854200Y-131394200D03*
X135356600Y-131394200D03*
X128854200Y-135915400D03*
X135356600Y-135915400D03*
X168753790Y-115570000D03*
X175256190Y-115570000D03*
X168753790Y-120091200D03*
X175256190Y-120091200D03*
X175256190Y-112433100D03*
X168753790Y-112433100D03*
X175256190Y-107911900D03*
X168753790Y-107911900D03*
X159730440Y-115570000D03*
X166232840Y-115570000D03*
X159730440Y-120091200D03*
X166232840Y-120091200D03*
D11*
X164287200Y-99453700D03*
X154127200Y-99453700D03*
X164287200Y-102123875D03*
X154127200Y-102123875D03*
X164287200Y-104686100D03*
X154127200Y-104686100D03*
X145486120Y-96403160D03*
X155646120Y-96403160D03*
D14*
X177777140Y-115570000D03*
X184279540Y-115570000D03*
X177777140Y-120091200D03*
X184279540Y-120091200D03*
D20*
X128762760Y-88539320D03*
X136362440Y-88539320D03*
D21*
X166903479Y-94251408D02*
X166903479Y-96837421D01*
X166903479Y-96837421D02*
X164287200Y-99453700D01*
X171983479Y-94045889D02*
X171373880Y-94655488D01*
X165286689Y-101124386D02*
X164287200Y-102123875D01*
X171373880Y-94655488D02*
X171373880Y-95037195D01*
X171373880Y-95037195D02*
X165286689Y-101124386D01*
X177063479Y-94164937D02*
X174808363Y-94164937D01*
X174808363Y-94164937D02*
X164287200Y-104686100D01*
X145486120Y-96403160D02*
X142626028Y-96403160D01*
X142626028Y-96403160D02*
X142148414Y-96880774D01*
X145549620Y-91107260D02*
X142374380Y-91107260D01*
X142374380Y-91107260D02*
X142148414Y-90881294D01*
X145486120Y-93774260D02*
X144378586Y-94881794D01*
X144378586Y-94881794D02*
X142148414Y-94881794D01*
X159979360Y-135260080D02*
X159958951Y-135260080D01*
X136118599Y-135153401D02*
X135356600Y-135915400D01*
X159958951Y-135260080D02*
X157711050Y-133012179D01*
X157711050Y-133012179D02*
X138259821Y-133012179D01*
X138259821Y-133012179D02*
X136118599Y-135153401D01*
D22*
X128854200Y-135915400D02*
X135356600Y-135915400D01*
D21*
X160995360Y-87000080D02*
X160995360Y-87508080D01*
X160995360Y-87508080D02*
X157396180Y-91107260D01*
X157396180Y-91107260D02*
X157123112Y-91107260D01*
X157123112Y-91107260D02*
X155709620Y-91107260D01*
X163535360Y-87000080D02*
X163535360Y-87508080D01*
X163535360Y-87508080D02*
X157269180Y-93774260D01*
X157269180Y-93774260D02*
X157059612Y-93774260D01*
X157059612Y-93774260D02*
X155646120Y-93774260D01*
X155915360Y-87000080D02*
X155915360Y-87508080D01*
X155915360Y-87508080D02*
X154175459Y-89247981D01*
X154175459Y-89247981D02*
X138485314Y-89247981D01*
X138485314Y-89247981D02*
X137776653Y-88539320D01*
X137776653Y-88539320D02*
X136362440Y-88539320D01*
X168626600Y-86969600D02*
X168626600Y-89988287D01*
X168626600Y-89988287D02*
X166903479Y-91711408D01*
X172690600Y-86969600D02*
X172690600Y-90798768D01*
X172690600Y-90798768D02*
X171983479Y-91505889D01*
X175230600Y-86969600D02*
X175230600Y-89792058D01*
X175230600Y-89792058D02*
X177063479Y-91624937D01*
X166075360Y-87000080D02*
X166075360Y-87508080D01*
X166075360Y-87508080D02*
X157180280Y-96403160D01*
X157180280Y-96403160D02*
X157059612Y-96403160D01*
X157059612Y-96403160D02*
X155646120Y-96403160D01*
X177759360Y-87000080D02*
X177759360Y-88879680D01*
X177759360Y-88879680D02*
X182412640Y-93532960D01*
X182412640Y-93532960D02*
X182412640Y-97428650D01*
X182412640Y-97428650D02*
X182412640Y-98506280D01*
X177770600Y-86969600D02*
X177791009Y-86969600D01*
D23*
X179836979Y-110408720D02*
X179836979Y-115510411D01*
X179836979Y-115510411D02*
X175256190Y-120091200D01*
X185379360Y-87000080D02*
X185379360Y-90073581D01*
X185379360Y-90073581D02*
X190240929Y-94935150D01*
X190240929Y-94935150D02*
X190240929Y-100004770D01*
X190240929Y-100004770D02*
X179836979Y-110408720D01*
D21*
X185379360Y-87000080D02*
X185399769Y-87000080D01*
X168753790Y-120091200D02*
X166423340Y-122421650D01*
X166423340Y-122421650D02*
X166423340Y-123583700D01*
D23*
X182839360Y-87000080D02*
X182839360Y-88754909D01*
X182839360Y-88754909D02*
X189377319Y-95292868D01*
X189377319Y-95292868D02*
X189377319Y-99647052D01*
X189377319Y-99647052D02*
X181112471Y-107911900D01*
X181112471Y-107911900D02*
X176333820Y-107911900D01*
X176333820Y-107911900D02*
X175256190Y-107911900D01*
D21*
X175256190Y-107911900D02*
X168753790Y-107911900D01*
X175256190Y-107911900D02*
X175256190Y-108718350D01*
X175256190Y-108718350D02*
X176735740Y-110197900D01*
D23*
X180299360Y-87000080D02*
X180299360Y-87436237D01*
X180299360Y-87436237D02*
X188092441Y-95229318D01*
X188092441Y-95229318D02*
X188092441Y-99501599D01*
X161872420Y-112763300D02*
X156390340Y-112763300D01*
X188092441Y-99501599D02*
X181053741Y-106540299D01*
X181053741Y-106540299D02*
X168095421Y-106540299D01*
X168095421Y-106540299D02*
X161872420Y-112763300D01*
D21*
X166232840Y-120091200D02*
X159730440Y-120091200D01*
X159730440Y-120091200D02*
X156390340Y-116751100D01*
X156390340Y-116751100D02*
X156390340Y-112763300D01*
D23*
X165033960Y-130139440D02*
X165011100Y-130162300D01*
X165011100Y-130162300D02*
X148031200Y-130162300D01*
X165811220Y-130916700D02*
X165033960Y-130139440D01*
X177759360Y-135260080D02*
X177759360Y-133482080D01*
X177759360Y-133482080D02*
X175193980Y-130916700D01*
X175193980Y-130916700D02*
X165811220Y-130916700D01*
D21*
X148018500Y-127457200D02*
X148018500Y-130149600D01*
X148018500Y-130149600D02*
X148031200Y-130162300D01*
D24*
X148031200Y-127469900D02*
X148018500Y-127457200D01*
D21*
X187919360Y-135260080D02*
X187898951Y-135260080D01*
X187898951Y-135260080D02*
X180388171Y-127749300D01*
X180388171Y-127749300D02*
X176333820Y-127749300D01*
X176333820Y-127749300D02*
X175256190Y-127749300D01*
X175256190Y-127749300D02*
X168753790Y-127749300D01*
X166423340Y-126199900D02*
X167204390Y-126199900D01*
X167204390Y-126199900D02*
X168753790Y-127749300D01*
X190459360Y-135260080D02*
X190459360Y-134052328D01*
X190459360Y-134052328D02*
X179254132Y-122847100D01*
X179254132Y-122847100D02*
X177840640Y-122847100D01*
X184279540Y-120091200D02*
X177777140Y-120091200D01*
X177777140Y-120091200D02*
X177777140Y-122783600D01*
X177777140Y-122783600D02*
X177840640Y-122847100D01*
D23*
X155193902Y-118805960D02*
X155188822Y-118811040D01*
X155188822Y-118811040D02*
X145963400Y-118811040D01*
X166441032Y-130053090D02*
X155193902Y-118805960D01*
X180299360Y-135260080D02*
X180299360Y-133482080D01*
X180299360Y-133482080D02*
X176870370Y-130053090D01*
X176870370Y-130053090D02*
X166441032Y-130053090D01*
X166798750Y-129189480D02*
X177276760Y-129189480D01*
X177276760Y-129189480D02*
X182839360Y-134752080D01*
X182839360Y-134752080D02*
X182839360Y-135260080D01*
X145912600Y-106494800D02*
X155475930Y-116058130D01*
X155475930Y-116058130D02*
X155475930Y-117866660D01*
X155475930Y-117866660D02*
X166798750Y-129189480D01*
D21*
X182839360Y-135260080D02*
X182818951Y-135260080D01*
X190470600Y-86969600D02*
X190470600Y-87477600D01*
X190470600Y-87477600D02*
X190500000Y-87507000D01*
D25*
G36*
X140942060Y-85114838D02*
X140316315Y-85739491D01*
X139977247Y-86556058D01*
X139976475Y-87440223D01*
X140314118Y-88257380D01*
X140364830Y-88308181D01*
X138874592Y-88308181D01*
X138441192Y-87874781D01*
X138136299Y-87671058D01*
X137776653Y-87599520D01*
X137734503Y-87599520D01*
X137289803Y-87154042D01*
X136689088Y-86904604D01*
X136038645Y-86904036D01*
X135437497Y-87152426D01*
X134977162Y-87611957D01*
X134727724Y-88212672D01*
X134727156Y-88863115D01*
X134975546Y-89464263D01*
X135435077Y-89924598D01*
X136035792Y-90174036D01*
X136686235Y-90174604D01*
X137287383Y-89926214D01*
X137561165Y-89652910D01*
X137820775Y-89912520D01*
X138125668Y-90116243D01*
X138485314Y-90187781D01*
X141044749Y-90187781D01*
X140863398Y-90624522D01*
X140862952Y-91135822D01*
X141058206Y-91608373D01*
X141149186Y-91699512D01*
X141040365Y-91772225D01*
X140900017Y-91982269D01*
X140850734Y-92230034D01*
X140850734Y-93530514D01*
X140900017Y-93778279D01*
X141040365Y-93988323D01*
X141150521Y-94061928D01*
X141059476Y-94152814D01*
X140863398Y-94625022D01*
X140862952Y-95136322D01*
X141058206Y-95608873D01*
X141330300Y-95881442D01*
X141059476Y-96151794D01*
X140863398Y-96624002D01*
X140862952Y-97135302D01*
X141058206Y-97607853D01*
X141419434Y-97969712D01*
X141891642Y-98165790D01*
X142402942Y-98166236D01*
X142875493Y-97970982D01*
X143237352Y-97609754D01*
X143348135Y-97342960D01*
X144114777Y-97342960D01*
X144559047Y-97788006D01*
X145159573Y-98037366D01*
X145809814Y-98037934D01*
X146410775Y-97789622D01*
X146870966Y-97330233D01*
X147120326Y-96729707D01*
X147120894Y-96079466D01*
X146872582Y-95478505D01*
X146483190Y-95088433D01*
X146870966Y-94701333D01*
X147120326Y-94100807D01*
X147120894Y-93450566D01*
X146872582Y-92849605D01*
X146495835Y-92472200D01*
X146934466Y-92034333D01*
X147183826Y-91433807D01*
X147184394Y-90783566D01*
X146938221Y-90187781D01*
X154175459Y-90187781D01*
X154352430Y-90152579D01*
X154324774Y-90180187D01*
X154075414Y-90780713D01*
X154074846Y-91430954D01*
X154323158Y-92031915D01*
X154699905Y-92409320D01*
X154261274Y-92847187D01*
X154011914Y-93447713D01*
X154011346Y-94097954D01*
X154259658Y-94698915D01*
X154649050Y-95088987D01*
X154261274Y-95476087D01*
X154011914Y-96076613D01*
X154011346Y-96726854D01*
X154259658Y-97327815D01*
X154719047Y-97788006D01*
X155319573Y-98037366D01*
X155969814Y-98037934D01*
X156570775Y-97789622D01*
X157018217Y-97342960D01*
X157180280Y-97342960D01*
X157539926Y-97271422D01*
X157844819Y-97067699D01*
X165987578Y-88924940D01*
X166075360Y-88942401D01*
X166609969Y-88836061D01*
X167063188Y-88533229D01*
X167345360Y-88110930D01*
X167627532Y-88533229D01*
X167686800Y-88572831D01*
X167686800Y-89599009D01*
X166828462Y-90457347D01*
X166427191Y-90537165D01*
X166023414Y-90806960D01*
X165753619Y-91210737D01*
X165658879Y-91687025D01*
X165658879Y-91735791D01*
X165753619Y-92212079D01*
X166023414Y-92615856D01*
X166427191Y-92885651D01*
X166903479Y-92980391D01*
X167379767Y-92885651D01*
X167783544Y-92615856D01*
X168053339Y-92212079D01*
X168133157Y-91810808D01*
X169291139Y-90652826D01*
X169494862Y-90347933D01*
X169566400Y-89988287D01*
X169566400Y-88557810D01*
X169603188Y-88533229D01*
X169906020Y-88080010D01*
X170012360Y-87545401D01*
X170012360Y-86454759D01*
X169906020Y-85920150D01*
X169603188Y-85466931D01*
X169149969Y-85164099D01*
X168615360Y-85057759D01*
X168080751Y-85164099D01*
X167627532Y-85466931D01*
X167345360Y-85889230D01*
X167063188Y-85466931D01*
X166609969Y-85164099D01*
X166075360Y-85057759D01*
X165540751Y-85164099D01*
X165087532Y-85466931D01*
X164805360Y-85889230D01*
X164523188Y-85466931D01*
X164069969Y-85164099D01*
X163535360Y-85057759D01*
X163000751Y-85164099D01*
X162547532Y-85466931D01*
X162265360Y-85889230D01*
X161983188Y-85466931D01*
X161529969Y-85164099D01*
X160995360Y-85057759D01*
X160460751Y-85164099D01*
X160007532Y-85466931D01*
X159725360Y-85889230D01*
X159443188Y-85466931D01*
X158989969Y-85164099D01*
X158455360Y-85057759D01*
X157920751Y-85164099D01*
X157467532Y-85466931D01*
X157185360Y-85889230D01*
X156903188Y-85466931D01*
X156449969Y-85164099D01*
X155915360Y-85057759D01*
X155380751Y-85164099D01*
X154927532Y-85466931D01*
X154645360Y-85889230D01*
X154363188Y-85466931D01*
X153909969Y-85164099D01*
X153375360Y-85057759D01*
X152840751Y-85164099D01*
X152387532Y-85466931D01*
X152105360Y-85889230D01*
X151823188Y-85466931D01*
X151369969Y-85164099D01*
X150835360Y-85057759D01*
X150300751Y-85164099D01*
X149847532Y-85466931D01*
X149565360Y-85889230D01*
X149283188Y-85466931D01*
X148829969Y-85164099D01*
X148295360Y-85057759D01*
X147760751Y-85164099D01*
X147307532Y-85466931D01*
X147025360Y-85889230D01*
X146743188Y-85466931D01*
X146289969Y-85164099D01*
X145755360Y-85057759D01*
X145220751Y-85164099D01*
X144767532Y-85466931D01*
X144464700Y-85920150D01*
X144364998Y-86421388D01*
X144084602Y-85742780D01*
X143459949Y-85117035D01*
X143087065Y-84962200D01*
X191511664Y-84962200D01*
X192482000Y-85932536D01*
X192482000Y-97078800D01*
X192534143Y-97340938D01*
X192682632Y-97563168D01*
X194996600Y-99877136D01*
X194996600Y-101253835D01*
X194884602Y-100982780D01*
X194259949Y-100357035D01*
X193443382Y-100017967D01*
X192559217Y-100017195D01*
X191742060Y-100354838D01*
X191116315Y-100979491D01*
X190777247Y-101796058D01*
X190776475Y-102680223D01*
X191114118Y-103497380D01*
X191738771Y-104123125D01*
X192555338Y-104462193D01*
X193439503Y-104462965D01*
X194256660Y-104125322D01*
X194882405Y-103500669D01*
X194996600Y-103225657D01*
X194996600Y-129193835D01*
X194884602Y-128922780D01*
X194259949Y-128297035D01*
X193443382Y-127957967D01*
X192559217Y-127957195D01*
X191742060Y-128294838D01*
X191116315Y-128919491D01*
X190777247Y-129736058D01*
X190776475Y-130620223D01*
X191114118Y-131437380D01*
X191738771Y-132063125D01*
X192555338Y-132402193D01*
X193439503Y-132402965D01*
X194256660Y-132065322D01*
X194882405Y-131440669D01*
X194996600Y-131165657D01*
X194996600Y-132482064D01*
X192682632Y-134796032D01*
X192534143Y-135018262D01*
X192482000Y-135280400D01*
X192482000Y-137237000D01*
X141964783Y-137237000D01*
X142186660Y-137145322D01*
X142812405Y-136520669D01*
X143151473Y-135704102D01*
X143152245Y-134819937D01*
X142814602Y-134002780D01*
X142763890Y-133951979D01*
X153761159Y-133951979D01*
X153608700Y-134180150D01*
X153502360Y-134714759D01*
X153502360Y-135805401D01*
X153608700Y-136340010D01*
X153911532Y-136793229D01*
X154364751Y-137096061D01*
X154899360Y-137202401D01*
X155433969Y-137096061D01*
X155887188Y-136793229D01*
X156169360Y-136370930D01*
X156451532Y-136793229D01*
X156904751Y-137096061D01*
X157439360Y-137202401D01*
X157973969Y-137096061D01*
X158427188Y-136793229D01*
X158709360Y-136370930D01*
X158991532Y-136793229D01*
X159444751Y-137096061D01*
X159979360Y-137202401D01*
X160513969Y-137096061D01*
X160967188Y-136793229D01*
X161249360Y-136370930D01*
X161531532Y-136793229D01*
X161984751Y-137096061D01*
X162519360Y-137202401D01*
X163053969Y-137096061D01*
X163507188Y-136793229D01*
X163798690Y-136356967D01*
X163817301Y-136420021D01*
X164161334Y-136845710D01*
X164642083Y-137107340D01*
X164716290Y-137122300D01*
X164932360Y-136999800D01*
X164932360Y-135387080D01*
X164912360Y-135387080D01*
X164912360Y-135133080D01*
X164932360Y-135133080D01*
X164932360Y-133520360D01*
X165186360Y-133520360D01*
X165186360Y-135133080D01*
X165206360Y-135133080D01*
X165206360Y-135387080D01*
X165186360Y-135387080D01*
X165186360Y-136999800D01*
X165402430Y-137122300D01*
X165476637Y-137107340D01*
X165957386Y-136845710D01*
X166301419Y-136420021D01*
X166320030Y-136356967D01*
X166611532Y-136793229D01*
X167064751Y-137096061D01*
X167599360Y-137202401D01*
X168133969Y-137096061D01*
X168587188Y-136793229D01*
X168869360Y-136370930D01*
X169151532Y-136793229D01*
X169604751Y-137096061D01*
X170139360Y-137202401D01*
X170673969Y-137096061D01*
X171127188Y-136793229D01*
X171409360Y-136370930D01*
X171691532Y-136793229D01*
X172144751Y-137096061D01*
X172679360Y-137202401D01*
X173213969Y-137096061D01*
X173667188Y-136793229D01*
X173970020Y-136340010D01*
X174076360Y-135805401D01*
X174076360Y-134714759D01*
X173970020Y-134180150D01*
X173667188Y-133726931D01*
X173213969Y-133424099D01*
X172679360Y-133317759D01*
X172144751Y-133424099D01*
X171691532Y-133726931D01*
X171409360Y-134149230D01*
X171127188Y-133726931D01*
X170673969Y-133424099D01*
X170139360Y-133317759D01*
X169604751Y-133424099D01*
X169151532Y-133726931D01*
X168869360Y-134149230D01*
X168587188Y-133726931D01*
X168133969Y-133424099D01*
X167599360Y-133317759D01*
X167064751Y-133424099D01*
X166611532Y-133726931D01*
X166320030Y-134163193D01*
X166301419Y-134100139D01*
X165957386Y-133674450D01*
X165476637Y-133412820D01*
X165402430Y-133397860D01*
X165186360Y-133520360D01*
X164932360Y-133520360D01*
X164716290Y-133397860D01*
X164642083Y-133412820D01*
X164161334Y-133674450D01*
X163817301Y-134100139D01*
X163798690Y-134163193D01*
X163507188Y-133726931D01*
X163053969Y-133424099D01*
X162519360Y-133317759D01*
X161984751Y-133424099D01*
X161531532Y-133726931D01*
X161249360Y-134149230D01*
X160967188Y-133726931D01*
X160513969Y-133424099D01*
X159979360Y-133317759D01*
X159450837Y-133422888D01*
X158375589Y-132347640D01*
X158070696Y-132143917D01*
X157711050Y-132072379D01*
X138259821Y-132072379D01*
X137900175Y-132143917D01*
X137595282Y-132347640D01*
X135417794Y-134525128D01*
X135383969Y-134518400D01*
X135329231Y-134518400D01*
X134794622Y-134624740D01*
X134421579Y-134874000D01*
X129789221Y-134874000D01*
X129416178Y-134624740D01*
X128881569Y-134518400D01*
X128826831Y-134518400D01*
X128292222Y-134624740D01*
X127839003Y-134927572D01*
X127536171Y-135380791D01*
X127507200Y-135526439D01*
X127507200Y-131783161D01*
X127536171Y-131928809D01*
X127839003Y-132382028D01*
X128292222Y-132684860D01*
X128826831Y-132791200D01*
X128881569Y-132791200D01*
X129416178Y-132684860D01*
X129869397Y-132382028D01*
X130172229Y-131928809D01*
X130278569Y-131394200D01*
X133932231Y-131394200D01*
X134038571Y-131928809D01*
X134341403Y-132382028D01*
X134794622Y-132684860D01*
X135329231Y-132791200D01*
X135383969Y-132791200D01*
X135918578Y-132684860D01*
X136371797Y-132382028D01*
X136674629Y-131928809D01*
X136780969Y-131394200D01*
X136778361Y-131381091D01*
X136944127Y-131547146D01*
X137544653Y-131796506D01*
X138194894Y-131797074D01*
X138795855Y-131548762D01*
X139256046Y-131089373D01*
X139505406Y-130488847D01*
X139505974Y-129838606D01*
X139257662Y-129237645D01*
X138798273Y-128777454D01*
X138772840Y-128766893D01*
X138831057Y-128609363D01*
X137858500Y-127636805D01*
X136885943Y-128609363D01*
X136947343Y-128775508D01*
X136946545Y-128775838D01*
X136486354Y-129235227D01*
X136236994Y-129835753D01*
X136236574Y-130316019D01*
X135918578Y-130103540D01*
X135383969Y-129997200D01*
X135329231Y-129997200D01*
X134794622Y-130103540D01*
X134341403Y-130406372D01*
X134038571Y-130859591D01*
X133932231Y-131394200D01*
X130278569Y-131394200D01*
X130172229Y-130859591D01*
X129869397Y-130406372D01*
X129416178Y-130103540D01*
X128881569Y-129997200D01*
X128826831Y-129997200D01*
X128292222Y-130103540D01*
X127839003Y-130406372D01*
X127536171Y-130859591D01*
X127507200Y-131005239D01*
X127507200Y-127192782D01*
X136213099Y-127192782D01*
X136237159Y-127842577D01*
X136439535Y-128331158D01*
X136706337Y-128429757D01*
X137678895Y-127457200D01*
X138038105Y-127457200D01*
X139010663Y-128429757D01*
X139277465Y-128331158D01*
X139503901Y-127721618D01*
X139479841Y-127071823D01*
X139277465Y-126583242D01*
X139010663Y-126484643D01*
X138038105Y-127457200D01*
X137678895Y-127457200D01*
X136706337Y-126484643D01*
X136439535Y-126583242D01*
X136213099Y-127192782D01*
X127507200Y-127192782D01*
X127507200Y-126305037D01*
X136885943Y-126305037D01*
X137858500Y-127277595D01*
X138831057Y-126305037D01*
X138732458Y-126038235D01*
X138122918Y-125811799D01*
X137473123Y-125835859D01*
X136984542Y-126038235D01*
X136885943Y-126305037D01*
X127507200Y-126305037D01*
X127507200Y-123553659D01*
X136728013Y-123553659D01*
X137067555Y-124375412D01*
X137695721Y-125004676D01*
X138516881Y-125345651D01*
X139406019Y-125346427D01*
X140227772Y-125006885D01*
X140857036Y-124378719D01*
X141052746Y-123907394D01*
X154628566Y-123907394D01*
X154876878Y-124508355D01*
X155259920Y-124892066D01*
X154878494Y-125272827D01*
X154629134Y-125873353D01*
X154628566Y-126523594D01*
X154876878Y-127124555D01*
X155336267Y-127584746D01*
X155936793Y-127834106D01*
X156587034Y-127834674D01*
X157187995Y-127586362D01*
X157648186Y-127126973D01*
X157897546Y-126526447D01*
X157898114Y-125876206D01*
X157649802Y-125275245D01*
X157266760Y-124891534D01*
X157648186Y-124510773D01*
X157897546Y-123910247D01*
X157898114Y-123260006D01*
X157649802Y-122659045D01*
X157190413Y-122198854D01*
X156589887Y-121949494D01*
X155939646Y-121948926D01*
X155338685Y-122197238D01*
X154878494Y-122656627D01*
X154629134Y-123257153D01*
X154628566Y-123907394D01*
X141052746Y-123907394D01*
X141198011Y-123557559D01*
X141198787Y-122668421D01*
X141084242Y-122391199D01*
X145062846Y-122391199D01*
X145149252Y-122647683D01*
X145722736Y-122857498D01*
X146332860Y-122831879D01*
X146777548Y-122647683D01*
X146863954Y-122391199D01*
X145963400Y-121490645D01*
X145062846Y-122391199D01*
X141084242Y-122391199D01*
X140859245Y-121846668D01*
X140231079Y-121217404D01*
X139876996Y-121070376D01*
X144416942Y-121070376D01*
X144442561Y-121680500D01*
X144626757Y-122125188D01*
X144883241Y-122211594D01*
X145783795Y-121311040D01*
X146143005Y-121311040D01*
X147043559Y-122211594D01*
X147300043Y-122125188D01*
X147509858Y-121551704D01*
X147484239Y-120941580D01*
X147300043Y-120496892D01*
X147043559Y-120410486D01*
X146143005Y-121311040D01*
X145783795Y-121311040D01*
X144883241Y-120410486D01*
X144626757Y-120496892D01*
X144416942Y-121070376D01*
X139876996Y-121070376D01*
X139409919Y-120876429D01*
X138520781Y-120875653D01*
X137699028Y-121215195D01*
X137069764Y-121843361D01*
X136728789Y-122664521D01*
X136728013Y-123553659D01*
X127507200Y-123553659D01*
X127507200Y-111237419D01*
X136677213Y-111237419D01*
X137016755Y-112059172D01*
X137635307Y-112678805D01*
X137069764Y-113243361D01*
X136728789Y-114064521D01*
X136728013Y-114953659D01*
X137067555Y-115775412D01*
X137695721Y-116404676D01*
X138516881Y-116745651D01*
X139406019Y-116746427D01*
X140227772Y-116406885D01*
X140857036Y-115778719D01*
X141198011Y-114957559D01*
X141198787Y-114068421D01*
X140859245Y-113246668D01*
X140240693Y-112627035D01*
X140806236Y-112062479D01*
X141147211Y-111241319D01*
X141147987Y-110352181D01*
X141033442Y-110074959D01*
X145012046Y-110074959D01*
X145098452Y-110331443D01*
X145671936Y-110541258D01*
X146282060Y-110515639D01*
X146726748Y-110331443D01*
X146813154Y-110074959D01*
X145912600Y-109174405D01*
X145012046Y-110074959D01*
X141033442Y-110074959D01*
X140808445Y-109530428D01*
X140180279Y-108901164D01*
X139826196Y-108754136D01*
X144366142Y-108754136D01*
X144391761Y-109364260D01*
X144575957Y-109808948D01*
X144832441Y-109895354D01*
X145732995Y-108994800D01*
X144832441Y-108094246D01*
X144575957Y-108180652D01*
X144366142Y-108754136D01*
X139826196Y-108754136D01*
X139359119Y-108560189D01*
X138469981Y-108559413D01*
X137648228Y-108898955D01*
X137018964Y-109527121D01*
X136677989Y-110348281D01*
X136677213Y-111237419D01*
X127507200Y-111237419D01*
X127507200Y-102637419D01*
X136677213Y-102637419D01*
X137016755Y-103459172D01*
X137644921Y-104088436D01*
X138466081Y-104429411D01*
X139355219Y-104430187D01*
X139673221Y-104298791D01*
X144377335Y-104298791D01*
X144610532Y-104863171D01*
X144991782Y-105245088D01*
X144612049Y-105624157D01*
X144377867Y-106188130D01*
X144377335Y-106798791D01*
X144610532Y-107363171D01*
X145041957Y-107795351D01*
X145050972Y-107799094D01*
X145012046Y-107914641D01*
X145912600Y-108815195D01*
X145926743Y-108801053D01*
X146106348Y-108980658D01*
X146092205Y-108994800D01*
X146992759Y-109895354D01*
X147249243Y-109808948D01*
X147442175Y-109281611D01*
X154586930Y-116426366D01*
X154586930Y-117866660D01*
X154597946Y-117922040D01*
X147244875Y-117922040D01*
X146884218Y-117560752D01*
X147263951Y-117181683D01*
X147498133Y-116617710D01*
X147498665Y-116007049D01*
X147265468Y-115442669D01*
X146834043Y-115010489D01*
X146270070Y-114776307D01*
X145659409Y-114775775D01*
X145095029Y-115008972D01*
X144662849Y-115440397D01*
X144428667Y-116004370D01*
X144428135Y-116615031D01*
X144661332Y-117179411D01*
X145042582Y-117561328D01*
X144662849Y-117940397D01*
X144428667Y-118504370D01*
X144428135Y-119115031D01*
X144661332Y-119679411D01*
X145092757Y-120111591D01*
X145101772Y-120115334D01*
X145062846Y-120230881D01*
X145963400Y-121131435D01*
X146863954Y-120230881D01*
X146825193Y-120115826D01*
X146831771Y-120113108D01*
X147245562Y-119700040D01*
X154830746Y-119700040D01*
X164404006Y-129273300D01*
X149432394Y-129273300D01*
X149417662Y-129237645D01*
X148983831Y-128803057D01*
X149403346Y-128384273D01*
X149652706Y-127783747D01*
X149653274Y-127133506D01*
X149404962Y-126532545D01*
X148945573Y-126072354D01*
X148345047Y-125822994D01*
X147694806Y-125822426D01*
X147093845Y-126070738D01*
X146633654Y-126530127D01*
X146384294Y-127130653D01*
X146383726Y-127780894D01*
X146632038Y-128381855D01*
X147065869Y-128816443D01*
X146646354Y-129235227D01*
X146396994Y-129835753D01*
X146396426Y-130485994D01*
X146644738Y-131086955D01*
X147104127Y-131547146D01*
X147704653Y-131796506D01*
X148354894Y-131797074D01*
X148955855Y-131548762D01*
X149416046Y-131089373D01*
X149431855Y-131051300D01*
X164688584Y-131051300D01*
X165182602Y-131545318D01*
X165471015Y-131738030D01*
X165811220Y-131805700D01*
X174825744Y-131805700D01*
X176761696Y-133741652D01*
X176468700Y-134180150D01*
X176362360Y-134714759D01*
X176362360Y-135805401D01*
X176468700Y-136340010D01*
X176771532Y-136793229D01*
X177224751Y-137096061D01*
X177759360Y-137202401D01*
X178293969Y-137096061D01*
X178747188Y-136793229D01*
X179029360Y-136370930D01*
X179311532Y-136793229D01*
X179764751Y-137096061D01*
X180299360Y-137202401D01*
X180833969Y-137096061D01*
X181287188Y-136793229D01*
X181569360Y-136370930D01*
X181851532Y-136793229D01*
X182304751Y-137096061D01*
X182839360Y-137202401D01*
X183373969Y-137096061D01*
X183827188Y-136793229D01*
X184109360Y-136370930D01*
X184391532Y-136793229D01*
X184844751Y-137096061D01*
X185379360Y-137202401D01*
X185913969Y-137096061D01*
X186367188Y-136793229D01*
X186649360Y-136370930D01*
X186931532Y-136793229D01*
X187384751Y-137096061D01*
X187919360Y-137202401D01*
X188453969Y-137096061D01*
X188907188Y-136793229D01*
X189189360Y-136370930D01*
X189471532Y-136793229D01*
X189924751Y-137096061D01*
X190459360Y-137202401D01*
X190993969Y-137096061D01*
X191447188Y-136793229D01*
X191750020Y-136340010D01*
X191856360Y-135805401D01*
X191856360Y-134714759D01*
X191750020Y-134180150D01*
X191447188Y-133726931D01*
X191272526Y-133610226D01*
X191123899Y-133387789D01*
X180906904Y-123170794D01*
X186365866Y-123170794D01*
X186614178Y-123771755D01*
X187073567Y-124231946D01*
X187674093Y-124481306D01*
X188324334Y-124481874D01*
X188925295Y-124233562D01*
X189385486Y-123774173D01*
X189634846Y-123173647D01*
X189635414Y-122523406D01*
X189387102Y-121922445D01*
X188927713Y-121462254D01*
X188327187Y-121212894D01*
X187676946Y-121212326D01*
X187075985Y-121460638D01*
X186615794Y-121920027D01*
X186366434Y-122520553D01*
X186365866Y-123170794D01*
X180906904Y-123170794D01*
X179918671Y-122182561D01*
X179613778Y-121978838D01*
X179254132Y-121907300D01*
X179211983Y-121907300D01*
X178767713Y-121462254D01*
X178716940Y-121441171D01*
X178716940Y-121129407D01*
X178792337Y-121079028D01*
X178824428Y-121031000D01*
X183232252Y-121031000D01*
X183264343Y-121079028D01*
X183717562Y-121381860D01*
X184252171Y-121488200D01*
X184306909Y-121488200D01*
X184841518Y-121381860D01*
X185294737Y-121079028D01*
X185597569Y-120625809D01*
X185703909Y-120091200D01*
X185597569Y-119556591D01*
X185294737Y-119103372D01*
X184841518Y-118800540D01*
X184306909Y-118694200D01*
X184252171Y-118694200D01*
X183717562Y-118800540D01*
X183264343Y-119103372D01*
X183232252Y-119151400D01*
X178824428Y-119151400D01*
X178792337Y-119103372D01*
X178339118Y-118800540D01*
X177892853Y-118711773D01*
X180465597Y-116139029D01*
X180616578Y-115913070D01*
X182925320Y-115913070D01*
X183079366Y-116284997D01*
X183444341Y-116689858D01*
X183936468Y-116924231D01*
X184152540Y-116802476D01*
X184152540Y-115697000D01*
X184406540Y-115697000D01*
X184406540Y-116802476D01*
X184622612Y-116924231D01*
X185114739Y-116689858D01*
X185479714Y-116284997D01*
X185633760Y-115913070D01*
X185511260Y-115697000D01*
X184406540Y-115697000D01*
X184152540Y-115697000D01*
X183047820Y-115697000D01*
X182925320Y-115913070D01*
X180616578Y-115913070D01*
X180658308Y-115850617D01*
X180725979Y-115510411D01*
X180725979Y-115226930D01*
X182925320Y-115226930D01*
X183047820Y-115443000D01*
X184152540Y-115443000D01*
X184152540Y-114337524D01*
X184406540Y-114337524D01*
X184406540Y-115443000D01*
X185511260Y-115443000D01*
X185633760Y-115226930D01*
X185479714Y-114855003D01*
X185114739Y-114450142D01*
X184622612Y-114215769D01*
X184406540Y-114337524D01*
X184152540Y-114337524D01*
X183936468Y-114215769D01*
X183444341Y-114450142D01*
X183079366Y-114855003D01*
X182925320Y-115226930D01*
X180725979Y-115226930D01*
X180725979Y-110776956D01*
X180981341Y-110521594D01*
X185260966Y-110521594D01*
X185509278Y-111122555D01*
X185968667Y-111582746D01*
X186569193Y-111832106D01*
X187219434Y-111832674D01*
X187820395Y-111584362D01*
X188280586Y-111124973D01*
X188529946Y-110524447D01*
X188530514Y-109874206D01*
X188282202Y-109273245D01*
X187822813Y-108813054D01*
X187222287Y-108563694D01*
X186572046Y-108563126D01*
X185971085Y-108811438D01*
X185510894Y-109270827D01*
X185261534Y-109871353D01*
X185260966Y-110521594D01*
X180981341Y-110521594D01*
X183906194Y-107596741D01*
X189062118Y-107596741D01*
X189274350Y-108110383D01*
X189666990Y-108503709D01*
X189874872Y-108590029D01*
X189669057Y-108675070D01*
X189275731Y-109067710D01*
X189062603Y-109580980D01*
X189062118Y-110136741D01*
X189274350Y-110650383D01*
X189666990Y-111043709D01*
X189874872Y-111130029D01*
X189669057Y-111215070D01*
X189275731Y-111607710D01*
X189062603Y-112120980D01*
X189062118Y-112676741D01*
X189274350Y-113190383D01*
X189666990Y-113583709D01*
X190180260Y-113796837D01*
X190736021Y-113797322D01*
X191249663Y-113585090D01*
X191642989Y-113192450D01*
X191729309Y-112984568D01*
X191814350Y-113190383D01*
X192206990Y-113583709D01*
X192720260Y-113796837D01*
X193276021Y-113797322D01*
X193789663Y-113585090D01*
X194182989Y-113192450D01*
X194396117Y-112679180D01*
X194396602Y-112123419D01*
X194184370Y-111609777D01*
X193791730Y-111216451D01*
X193583848Y-111130131D01*
X193789663Y-111045090D01*
X194182989Y-110652450D01*
X194396117Y-110139180D01*
X194396602Y-109583419D01*
X194184370Y-109069777D01*
X193791730Y-108676451D01*
X193583848Y-108590131D01*
X193789663Y-108505090D01*
X194182989Y-108112450D01*
X194396117Y-107599180D01*
X194396602Y-107043419D01*
X194184370Y-106529777D01*
X193791730Y-106136451D01*
X193278460Y-105923323D01*
X192722699Y-105922838D01*
X192209057Y-106135070D01*
X191815731Y-106527710D01*
X191729411Y-106735592D01*
X191644370Y-106529777D01*
X191251730Y-106136451D01*
X190738460Y-105923323D01*
X190182699Y-105922838D01*
X189669057Y-106135070D01*
X189275731Y-106527710D01*
X189062603Y-107040980D01*
X189062118Y-107596741D01*
X183906194Y-107596741D01*
X190869547Y-100633388D01*
X190965577Y-100489669D01*
X191062258Y-100344976D01*
X191129929Y-100004770D01*
X191129929Y-94935150D01*
X191062258Y-94594944D01*
X190869547Y-94306532D01*
X186268360Y-89705345D01*
X186268360Y-88599264D01*
X186367188Y-88533229D01*
X186649360Y-88110930D01*
X186931532Y-88533229D01*
X187384751Y-88836061D01*
X187919360Y-88942401D01*
X188453969Y-88836061D01*
X188907188Y-88533229D01*
X189189360Y-88110930D01*
X189471532Y-88533229D01*
X189924751Y-88836061D01*
X190459360Y-88942401D01*
X190993969Y-88836061D01*
X191447188Y-88533229D01*
X191750020Y-88080010D01*
X191856360Y-87545401D01*
X191856360Y-86454759D01*
X191750020Y-85920150D01*
X191447188Y-85466931D01*
X190993969Y-85164099D01*
X190459360Y-85057759D01*
X189924751Y-85164099D01*
X189471532Y-85466931D01*
X189189360Y-85889230D01*
X188907188Y-85466931D01*
X188453969Y-85164099D01*
X187919360Y-85057759D01*
X187384751Y-85164099D01*
X186931532Y-85466931D01*
X186649360Y-85889230D01*
X186367188Y-85466931D01*
X185913969Y-85164099D01*
X185379360Y-85057759D01*
X184844751Y-85164099D01*
X184391532Y-85466931D01*
X184109360Y-85889230D01*
X183827188Y-85466931D01*
X183373969Y-85164099D01*
X182839360Y-85057759D01*
X182304751Y-85164099D01*
X181851532Y-85466931D01*
X181569360Y-85889230D01*
X181287188Y-85466931D01*
X180833969Y-85164099D01*
X180299360Y-85057759D01*
X179764751Y-85164099D01*
X179311532Y-85466931D01*
X179029360Y-85889230D01*
X178747188Y-85466931D01*
X178293969Y-85164099D01*
X177759360Y-85057759D01*
X177224751Y-85164099D01*
X176771532Y-85466931D01*
X176489360Y-85889230D01*
X176207188Y-85466931D01*
X175753969Y-85164099D01*
X175219360Y-85057759D01*
X174684751Y-85164099D01*
X174231532Y-85466931D01*
X173949360Y-85889230D01*
X173667188Y-85466931D01*
X173213969Y-85164099D01*
X172679360Y-85057759D01*
X172144751Y-85164099D01*
X171691532Y-85466931D01*
X171388700Y-85920150D01*
X171282360Y-86454759D01*
X171282360Y-87545401D01*
X171388700Y-88080010D01*
X171691532Y-88533229D01*
X171750800Y-88572831D01*
X171750800Y-90283189D01*
X171507191Y-90331646D01*
X171103414Y-90601441D01*
X170833619Y-91005218D01*
X170738879Y-91481506D01*
X170738879Y-91530272D01*
X170833619Y-92006560D01*
X171103414Y-92410337D01*
X171507191Y-92680132D01*
X171983479Y-92774872D01*
X172459767Y-92680132D01*
X172863544Y-92410337D01*
X173133339Y-92006560D01*
X173213157Y-91605289D01*
X173355139Y-91463307D01*
X173558862Y-91158414D01*
X173630400Y-90798768D01*
X173630400Y-88557810D01*
X173667188Y-88533229D01*
X173949360Y-88110930D01*
X174231532Y-88533229D01*
X174290800Y-88572831D01*
X174290800Y-89792058D01*
X174362338Y-90151704D01*
X174566061Y-90456597D01*
X175833801Y-91724337D01*
X175913619Y-92125608D01*
X176183414Y-92529385D01*
X176587191Y-92799180D01*
X177063479Y-92893920D01*
X177539767Y-92799180D01*
X177943544Y-92529385D01*
X178213339Y-92125608D01*
X178308079Y-91649320D01*
X178308079Y-91600554D01*
X178213339Y-91124266D01*
X177943544Y-90720489D01*
X177539767Y-90450694D01*
X177138496Y-90370876D01*
X176170400Y-89402780D01*
X176170400Y-88557810D01*
X176207188Y-88533229D01*
X176489360Y-88110930D01*
X176771532Y-88533229D01*
X176819560Y-88565320D01*
X176819560Y-88879680D01*
X176891098Y-89239326D01*
X177094821Y-89544219D01*
X181472840Y-93922238D01*
X181472840Y-97458992D01*
X181424812Y-97491083D01*
X181122353Y-97943744D01*
X180992498Y-97671081D01*
X180587637Y-97306106D01*
X180215710Y-97152060D01*
X179999640Y-97274560D01*
X179999640Y-98379280D01*
X180019640Y-98379280D01*
X180019640Y-98633280D01*
X179999640Y-98633280D01*
X179999640Y-99738000D01*
X180215710Y-99860500D01*
X180587637Y-99706454D01*
X180992498Y-99341479D01*
X181122353Y-99068816D01*
X181424812Y-99521477D01*
X181878031Y-99824309D01*
X182412640Y-99930649D01*
X182947249Y-99824309D01*
X183400468Y-99521477D01*
X183682640Y-99099178D01*
X183964812Y-99521477D01*
X184418031Y-99824309D01*
X184952640Y-99930649D01*
X185487249Y-99824309D01*
X185940468Y-99521477D01*
X186243300Y-99068258D01*
X186349640Y-98533649D01*
X186349640Y-98478911D01*
X186243300Y-97944302D01*
X185940468Y-97491083D01*
X185487249Y-97188251D01*
X184952640Y-97081911D01*
X184418031Y-97188251D01*
X183964812Y-97491083D01*
X183682640Y-97913382D01*
X183400468Y-97491083D01*
X183352440Y-97458992D01*
X183352440Y-93532960D01*
X183280902Y-93173314D01*
X183077179Y-92868421D01*
X178744070Y-88535312D01*
X178747188Y-88533229D01*
X179029360Y-88110930D01*
X179311532Y-88533229D01*
X179764751Y-88836061D01*
X180299360Y-88942401D01*
X180506988Y-88901101D01*
X187203441Y-95597554D01*
X187203441Y-99133363D01*
X180685505Y-105651299D01*
X168095421Y-105651299D01*
X167755215Y-105718970D01*
X167466803Y-105911681D01*
X161504184Y-111874300D01*
X157791534Y-111874300D01*
X157776802Y-111838645D01*
X157317413Y-111378454D01*
X156716887Y-111129094D01*
X156066646Y-111128526D01*
X155465685Y-111376838D01*
X155005494Y-111836227D01*
X154756134Y-112436753D01*
X154755566Y-113086994D01*
X155003878Y-113687955D01*
X155450540Y-114135397D01*
X155450540Y-114775504D01*
X147447358Y-106772322D01*
X147447865Y-106190809D01*
X147214668Y-105626429D01*
X146833418Y-105244512D01*
X147213151Y-104865443D01*
X147447333Y-104301470D01*
X147447865Y-103690809D01*
X147214668Y-103126429D01*
X146783243Y-102694249D01*
X146219270Y-102460067D01*
X145608609Y-102459535D01*
X145044229Y-102692732D01*
X144612049Y-103124157D01*
X144377867Y-103688130D01*
X144377335Y-104298791D01*
X139673221Y-104298791D01*
X140176972Y-104090645D01*
X140806236Y-103462479D01*
X141147211Y-102641319D01*
X141147987Y-101752181D01*
X140808445Y-100930428D01*
X140180279Y-100301164D01*
X139359119Y-99960189D01*
X138469981Y-99959413D01*
X137648228Y-100298955D01*
X137018964Y-100927121D01*
X136677989Y-101748281D01*
X136677213Y-102637419D01*
X127507200Y-102637419D01*
X127507200Y-99777394D01*
X152492426Y-99777394D01*
X152740738Y-100378355D01*
X153150767Y-100789100D01*
X152742354Y-101196802D01*
X152492994Y-101797328D01*
X152492426Y-102447569D01*
X152740738Y-103048530D01*
X153096793Y-103405206D01*
X152742354Y-103759027D01*
X152492994Y-104359553D01*
X152492426Y-105009794D01*
X152740738Y-105610755D01*
X153200127Y-106070946D01*
X153800653Y-106320306D01*
X154450894Y-106320874D01*
X155051855Y-106072562D01*
X155512046Y-105613173D01*
X155761406Y-105012647D01*
X155761974Y-104362406D01*
X155513662Y-103761445D01*
X155157607Y-103404769D01*
X155512046Y-103050948D01*
X155761406Y-102450422D01*
X155761974Y-101800181D01*
X155513662Y-101199220D01*
X155103633Y-100788475D01*
X155512046Y-100380773D01*
X155761406Y-99780247D01*
X155761408Y-99777394D01*
X162652426Y-99777394D01*
X162900738Y-100378355D01*
X163310767Y-100789100D01*
X162902354Y-101196802D01*
X162652994Y-101797328D01*
X162652426Y-102447569D01*
X162900738Y-103048530D01*
X163256793Y-103405206D01*
X162902354Y-103759027D01*
X162652994Y-104359553D01*
X162652426Y-105009794D01*
X162900738Y-105610755D01*
X163360127Y-106070946D01*
X163960653Y-106320306D01*
X164610894Y-106320874D01*
X165211855Y-106072562D01*
X165672046Y-105613173D01*
X165921406Y-105012647D01*
X165921958Y-104380420D01*
X171453026Y-98849352D01*
X178518409Y-98849352D01*
X178752782Y-99341479D01*
X179157643Y-99706454D01*
X179529570Y-99860500D01*
X179745640Y-99738000D01*
X179745640Y-98633280D01*
X178640164Y-98633280D01*
X178518409Y-98849352D01*
X171453026Y-98849352D01*
X172139170Y-98163208D01*
X178518409Y-98163208D01*
X178640164Y-98379280D01*
X179745640Y-98379280D01*
X179745640Y-97274560D01*
X179529570Y-97152060D01*
X179157643Y-97306106D01*
X178752782Y-97671081D01*
X178518409Y-98163208D01*
X172139170Y-98163208D01*
X175197641Y-95104737D01*
X176236322Y-95104737D01*
X176587191Y-95339180D01*
X177063479Y-95433920D01*
X177539767Y-95339180D01*
X177943544Y-95069385D01*
X178213339Y-94665608D01*
X178308079Y-94189320D01*
X178308079Y-94140554D01*
X178213339Y-93664266D01*
X177943544Y-93260489D01*
X177539767Y-92990694D01*
X177063479Y-92895954D01*
X176587191Y-92990694D01*
X176236322Y-93225137D01*
X174808363Y-93225137D01*
X174448717Y-93296675D01*
X174143824Y-93500398D01*
X173142198Y-94502024D01*
X173228079Y-94070272D01*
X173228079Y-94021506D01*
X173133339Y-93545218D01*
X172863544Y-93141441D01*
X172459767Y-92871646D01*
X171983479Y-92776906D01*
X171507191Y-92871646D01*
X171103414Y-93141441D01*
X170833619Y-93545218D01*
X170753801Y-93946489D01*
X170709341Y-93990949D01*
X170505618Y-94295842D01*
X170435960Y-94646037D01*
X165921948Y-99160049D01*
X165921958Y-99148020D01*
X167568018Y-97501960D01*
X167771741Y-97197067D01*
X167843279Y-96837421D01*
X167843279Y-95066456D01*
X168053339Y-94752079D01*
X168148079Y-94275791D01*
X168148079Y-94227025D01*
X168053339Y-93750737D01*
X167783544Y-93346960D01*
X167379767Y-93077165D01*
X166903479Y-92982425D01*
X166427191Y-93077165D01*
X166023414Y-93346960D01*
X165753619Y-93750737D01*
X165658879Y-94227025D01*
X165658879Y-94275791D01*
X165753619Y-94752079D01*
X165963679Y-95066456D01*
X165963679Y-96448143D01*
X164592347Y-97819475D01*
X163963506Y-97818926D01*
X163362545Y-98067238D01*
X162902354Y-98526627D01*
X162652994Y-99127153D01*
X162652426Y-99777394D01*
X155761408Y-99777394D01*
X155761974Y-99130006D01*
X155513662Y-98529045D01*
X155054273Y-98068854D01*
X154453747Y-97819494D01*
X153803506Y-97818926D01*
X153202545Y-98067238D01*
X152742354Y-98526627D01*
X152492994Y-99127153D01*
X152492426Y-99777394D01*
X127507200Y-99777394D01*
X127507200Y-89595827D01*
X127835397Y-89924598D01*
X128436112Y-90174036D01*
X129086555Y-90174604D01*
X129687703Y-89926214D01*
X130148038Y-89466683D01*
X130397476Y-88865968D01*
X130398044Y-88215525D01*
X130149654Y-87614377D01*
X129690123Y-87154042D01*
X129089408Y-86904604D01*
X128438965Y-86904036D01*
X127837817Y-87152426D01*
X127507200Y-87482466D01*
X127507200Y-84962200D01*
X141311472Y-84962200D01*
X140942060Y-85114838D01*
X140942060Y-85114838D01*
G37*
X140942060Y-85114838D02*
X140316315Y-85739491D01*
X139977247Y-86556058D01*
X139976475Y-87440223D01*
X140314118Y-88257380D01*
X140364830Y-88308181D01*
X138874592Y-88308181D01*
X138441192Y-87874781D01*
X138136299Y-87671058D01*
X137776653Y-87599520D01*
X137734503Y-87599520D01*
X137289803Y-87154042D01*
X136689088Y-86904604D01*
X136038645Y-86904036D01*
X135437497Y-87152426D01*
X134977162Y-87611957D01*
X134727724Y-88212672D01*
X134727156Y-88863115D01*
X134975546Y-89464263D01*
X135435077Y-89924598D01*
X136035792Y-90174036D01*
X136686235Y-90174604D01*
X137287383Y-89926214D01*
X137561165Y-89652910D01*
X137820775Y-89912520D01*
X138125668Y-90116243D01*
X138485314Y-90187781D01*
X141044749Y-90187781D01*
X140863398Y-90624522D01*
X140862952Y-91135822D01*
X141058206Y-91608373D01*
X141149186Y-91699512D01*
X141040365Y-91772225D01*
X140900017Y-91982269D01*
X140850734Y-92230034D01*
X140850734Y-93530514D01*
X140900017Y-93778279D01*
X141040365Y-93988323D01*
X141150521Y-94061928D01*
X141059476Y-94152814D01*
X140863398Y-94625022D01*
X140862952Y-95136322D01*
X141058206Y-95608873D01*
X141330300Y-95881442D01*
X141059476Y-96151794D01*
X140863398Y-96624002D01*
X140862952Y-97135302D01*
X141058206Y-97607853D01*
X141419434Y-97969712D01*
X141891642Y-98165790D01*
X142402942Y-98166236D01*
X142875493Y-97970982D01*
X143237352Y-97609754D01*
X143348135Y-97342960D01*
X144114777Y-97342960D01*
X144559047Y-97788006D01*
X145159573Y-98037366D01*
X145809814Y-98037934D01*
X146410775Y-97789622D01*
X146870966Y-97330233D01*
X147120326Y-96729707D01*
X147120894Y-96079466D01*
X146872582Y-95478505D01*
X146483190Y-95088433D01*
X146870966Y-94701333D01*
X147120326Y-94100807D01*
X147120894Y-93450566D01*
X146872582Y-92849605D01*
X146495835Y-92472200D01*
X146934466Y-92034333D01*
X147183826Y-91433807D01*
X147184394Y-90783566D01*
X146938221Y-90187781D01*
X154175459Y-90187781D01*
X154352430Y-90152579D01*
X154324774Y-90180187D01*
X154075414Y-90780713D01*
X154074846Y-91430954D01*
X154323158Y-92031915D01*
X154699905Y-92409320D01*
X154261274Y-92847187D01*
X154011914Y-93447713D01*
X154011346Y-94097954D01*
X154259658Y-94698915D01*
X154649050Y-95088987D01*
X154261274Y-95476087D01*
X154011914Y-96076613D01*
X154011346Y-96726854D01*
X154259658Y-97327815D01*
X154719047Y-97788006D01*
X155319573Y-98037366D01*
X155969814Y-98037934D01*
X156570775Y-97789622D01*
X157018217Y-97342960D01*
X157180280Y-97342960D01*
X157539926Y-97271422D01*
X157844819Y-97067699D01*
X165987578Y-88924940D01*
X166075360Y-88942401D01*
X166609969Y-88836061D01*
X167063188Y-88533229D01*
X167345360Y-88110930D01*
X167627532Y-88533229D01*
X167686800Y-88572831D01*
X167686800Y-89599009D01*
X166828462Y-90457347D01*
X166427191Y-90537165D01*
X166023414Y-90806960D01*
X165753619Y-91210737D01*
X165658879Y-91687025D01*
X165658879Y-91735791D01*
X165753619Y-92212079D01*
X166023414Y-92615856D01*
X166427191Y-92885651D01*
X166903479Y-92980391D01*
X167379767Y-92885651D01*
X167783544Y-92615856D01*
X168053339Y-92212079D01*
X168133157Y-91810808D01*
X169291139Y-90652826D01*
X169494862Y-90347933D01*
X169566400Y-89988287D01*
X169566400Y-88557810D01*
X169603188Y-88533229D01*
X169906020Y-88080010D01*
X170012360Y-87545401D01*
X170012360Y-86454759D01*
X169906020Y-85920150D01*
X169603188Y-85466931D01*
X169149969Y-85164099D01*
X168615360Y-85057759D01*
X168080751Y-85164099D01*
X167627532Y-85466931D01*
X167345360Y-85889230D01*
X167063188Y-85466931D01*
X166609969Y-85164099D01*
X166075360Y-85057759D01*
X165540751Y-85164099D01*
X165087532Y-85466931D01*
X164805360Y-85889230D01*
X164523188Y-85466931D01*
X164069969Y-85164099D01*
X163535360Y-85057759D01*
X163000751Y-85164099D01*
X162547532Y-85466931D01*
X162265360Y-85889230D01*
X161983188Y-85466931D01*
X161529969Y-85164099D01*
X160995360Y-85057759D01*
X160460751Y-85164099D01*
X160007532Y-85466931D01*
X159725360Y-85889230D01*
X159443188Y-85466931D01*
X158989969Y-85164099D01*
X158455360Y-85057759D01*
X157920751Y-85164099D01*
X157467532Y-85466931D01*
X157185360Y-85889230D01*
X156903188Y-85466931D01*
X156449969Y-85164099D01*
X155915360Y-85057759D01*
X155380751Y-85164099D01*
X154927532Y-85466931D01*
X154645360Y-85889230D01*
X154363188Y-85466931D01*
X153909969Y-85164099D01*
X153375360Y-85057759D01*
X152840751Y-85164099D01*
X152387532Y-85466931D01*
X152105360Y-85889230D01*
X151823188Y-85466931D01*
X151369969Y-85164099D01*
X150835360Y-85057759D01*
X150300751Y-85164099D01*
X149847532Y-85466931D01*
X149565360Y-85889230D01*
X149283188Y-85466931D01*
X148829969Y-85164099D01*
X148295360Y-85057759D01*
X147760751Y-85164099D01*
X147307532Y-85466931D01*
X147025360Y-85889230D01*
X146743188Y-85466931D01*
X146289969Y-85164099D01*
X145755360Y-85057759D01*
X145220751Y-85164099D01*
X144767532Y-85466931D01*
X144464700Y-85920150D01*
X144364998Y-86421388D01*
X144084602Y-85742780D01*
X143459949Y-85117035D01*
X143087065Y-84962200D01*
X191511664Y-84962200D01*
X192482000Y-85932536D01*
X192482000Y-97078800D01*
X192534143Y-97340938D01*
X192682632Y-97563168D01*
X194996600Y-99877136D01*
X194996600Y-101253835D01*
X194884602Y-100982780D01*
X194259949Y-100357035D01*
X193443382Y-100017967D01*
X192559217Y-100017195D01*
X191742060Y-100354838D01*
X191116315Y-100979491D01*
X190777247Y-101796058D01*
X190776475Y-102680223D01*
X191114118Y-103497380D01*
X191738771Y-104123125D01*
X192555338Y-104462193D01*
X193439503Y-104462965D01*
X194256660Y-104125322D01*
X194882405Y-103500669D01*
X194996600Y-103225657D01*
X194996600Y-129193835D01*
X194884602Y-128922780D01*
X194259949Y-128297035D01*
X193443382Y-127957967D01*
X192559217Y-127957195D01*
X191742060Y-128294838D01*
X191116315Y-128919491D01*
X190777247Y-129736058D01*
X190776475Y-130620223D01*
X191114118Y-131437380D01*
X191738771Y-132063125D01*
X192555338Y-132402193D01*
X193439503Y-132402965D01*
X194256660Y-132065322D01*
X194882405Y-131440669D01*
X194996600Y-131165657D01*
X194996600Y-132482064D01*
X192682632Y-134796032D01*
X192534143Y-135018262D01*
X192482000Y-135280400D01*
X192482000Y-137237000D01*
X141964783Y-137237000D01*
X142186660Y-137145322D01*
X142812405Y-136520669D01*
X143151473Y-135704102D01*
X143152245Y-134819937D01*
X142814602Y-134002780D01*
X142763890Y-133951979D01*
X153761159Y-133951979D01*
X153608700Y-134180150D01*
X153502360Y-134714759D01*
X153502360Y-135805401D01*
X153608700Y-136340010D01*
X153911532Y-136793229D01*
X154364751Y-137096061D01*
X154899360Y-137202401D01*
X155433969Y-137096061D01*
X155887188Y-136793229D01*
X156169360Y-136370930D01*
X156451532Y-136793229D01*
X156904751Y-137096061D01*
X157439360Y-137202401D01*
X157973969Y-137096061D01*
X158427188Y-136793229D01*
X158709360Y-136370930D01*
X158991532Y-136793229D01*
X159444751Y-137096061D01*
X159979360Y-137202401D01*
X160513969Y-137096061D01*
X160967188Y-136793229D01*
X161249360Y-136370930D01*
X161531532Y-136793229D01*
X161984751Y-137096061D01*
X162519360Y-137202401D01*
X163053969Y-137096061D01*
X163507188Y-136793229D01*
X163798690Y-136356967D01*
X163817301Y-136420021D01*
X164161334Y-136845710D01*
X164642083Y-137107340D01*
X164716290Y-137122300D01*
X164932360Y-136999800D01*
X164932360Y-135387080D01*
X164912360Y-135387080D01*
X164912360Y-135133080D01*
X164932360Y-135133080D01*
X164932360Y-133520360D01*
X165186360Y-133520360D01*
X165186360Y-135133080D01*
X165206360Y-135133080D01*
X165206360Y-135387080D01*
X165186360Y-135387080D01*
X165186360Y-136999800D01*
X165402430Y-137122300D01*
X165476637Y-137107340D01*
X165957386Y-136845710D01*
X166301419Y-136420021D01*
X166320030Y-136356967D01*
X166611532Y-136793229D01*
X167064751Y-137096061D01*
X167599360Y-137202401D01*
X168133969Y-137096061D01*
X168587188Y-136793229D01*
X168869360Y-136370930D01*
X169151532Y-136793229D01*
X169604751Y-137096061D01*
X170139360Y-137202401D01*
X170673969Y-137096061D01*
X171127188Y-136793229D01*
X171409360Y-136370930D01*
X171691532Y-136793229D01*
X172144751Y-137096061D01*
X172679360Y-137202401D01*
X173213969Y-137096061D01*
X173667188Y-136793229D01*
X173970020Y-136340010D01*
X174076360Y-135805401D01*
X174076360Y-134714759D01*
X173970020Y-134180150D01*
X173667188Y-133726931D01*
X173213969Y-133424099D01*
X172679360Y-133317759D01*
X172144751Y-133424099D01*
X171691532Y-133726931D01*
X171409360Y-134149230D01*
X171127188Y-133726931D01*
X170673969Y-133424099D01*
X170139360Y-133317759D01*
X169604751Y-133424099D01*
X169151532Y-133726931D01*
X168869360Y-134149230D01*
X168587188Y-133726931D01*
X168133969Y-133424099D01*
X167599360Y-133317759D01*
X167064751Y-133424099D01*
X166611532Y-133726931D01*
X166320030Y-134163193D01*
X166301419Y-134100139D01*
X165957386Y-133674450D01*
X165476637Y-133412820D01*
X165402430Y-133397860D01*
X165186360Y-133520360D01*
X164932360Y-133520360D01*
X164716290Y-133397860D01*
X164642083Y-133412820D01*
X164161334Y-133674450D01*
X163817301Y-134100139D01*
X163798690Y-134163193D01*
X163507188Y-133726931D01*
X163053969Y-133424099D01*
X162519360Y-133317759D01*
X161984751Y-133424099D01*
X161531532Y-133726931D01*
X161249360Y-134149230D01*
X160967188Y-133726931D01*
X160513969Y-133424099D01*
X159979360Y-133317759D01*
X159450837Y-133422888D01*
X158375589Y-132347640D01*
X158070696Y-132143917D01*
X157711050Y-132072379D01*
X138259821Y-132072379D01*
X137900175Y-132143917D01*
X137595282Y-132347640D01*
X135417794Y-134525128D01*
X135383969Y-134518400D01*
X135329231Y-134518400D01*
X134794622Y-134624740D01*
X134421579Y-134874000D01*
X129789221Y-134874000D01*
X129416178Y-134624740D01*
X128881569Y-134518400D01*
X128826831Y-134518400D01*
X128292222Y-134624740D01*
X127839003Y-134927572D01*
X127536171Y-135380791D01*
X127507200Y-135526439D01*
X127507200Y-131783161D01*
X127536171Y-131928809D01*
X127839003Y-132382028D01*
X128292222Y-132684860D01*
X128826831Y-132791200D01*
X128881569Y-132791200D01*
X129416178Y-132684860D01*
X129869397Y-132382028D01*
X130172229Y-131928809D01*
X130278569Y-131394200D01*
X133932231Y-131394200D01*
X134038571Y-131928809D01*
X134341403Y-132382028D01*
X134794622Y-132684860D01*
X135329231Y-132791200D01*
X135383969Y-132791200D01*
X135918578Y-132684860D01*
X136371797Y-132382028D01*
X136674629Y-131928809D01*
X136780969Y-131394200D01*
X136778361Y-131381091D01*
X136944127Y-131547146D01*
X137544653Y-131796506D01*
X138194894Y-131797074D01*
X138795855Y-131548762D01*
X139256046Y-131089373D01*
X139505406Y-130488847D01*
X139505974Y-129838606D01*
X139257662Y-129237645D01*
X138798273Y-128777454D01*
X138772840Y-128766893D01*
X138831057Y-128609363D01*
X137858500Y-127636805D01*
X136885943Y-128609363D01*
X136947343Y-128775508D01*
X136946545Y-128775838D01*
X136486354Y-129235227D01*
X136236994Y-129835753D01*
X136236574Y-130316019D01*
X135918578Y-130103540D01*
X135383969Y-129997200D01*
X135329231Y-129997200D01*
X134794622Y-130103540D01*
X134341403Y-130406372D01*
X134038571Y-130859591D01*
X133932231Y-131394200D01*
X130278569Y-131394200D01*
X130172229Y-130859591D01*
X129869397Y-130406372D01*
X129416178Y-130103540D01*
X128881569Y-129997200D01*
X128826831Y-129997200D01*
X128292222Y-130103540D01*
X127839003Y-130406372D01*
X127536171Y-130859591D01*
X127507200Y-131005239D01*
X127507200Y-127192782D01*
X136213099Y-127192782D01*
X136237159Y-127842577D01*
X136439535Y-128331158D01*
X136706337Y-128429757D01*
X137678895Y-127457200D01*
X138038105Y-127457200D01*
X139010663Y-128429757D01*
X139277465Y-128331158D01*
X139503901Y-127721618D01*
X139479841Y-127071823D01*
X139277465Y-126583242D01*
X139010663Y-126484643D01*
X138038105Y-127457200D01*
X137678895Y-127457200D01*
X136706337Y-126484643D01*
X136439535Y-126583242D01*
X136213099Y-127192782D01*
X127507200Y-127192782D01*
X127507200Y-126305037D01*
X136885943Y-126305037D01*
X137858500Y-127277595D01*
X138831057Y-126305037D01*
X138732458Y-126038235D01*
X138122918Y-125811799D01*
X137473123Y-125835859D01*
X136984542Y-126038235D01*
X136885943Y-126305037D01*
X127507200Y-126305037D01*
X127507200Y-123553659D01*
X136728013Y-123553659D01*
X137067555Y-124375412D01*
X137695721Y-125004676D01*
X138516881Y-125345651D01*
X139406019Y-125346427D01*
X140227772Y-125006885D01*
X140857036Y-124378719D01*
X141052746Y-123907394D01*
X154628566Y-123907394D01*
X154876878Y-124508355D01*
X155259920Y-124892066D01*
X154878494Y-125272827D01*
X154629134Y-125873353D01*
X154628566Y-126523594D01*
X154876878Y-127124555D01*
X155336267Y-127584746D01*
X155936793Y-127834106D01*
X156587034Y-127834674D01*
X157187995Y-127586362D01*
X157648186Y-127126973D01*
X157897546Y-126526447D01*
X157898114Y-125876206D01*
X157649802Y-125275245D01*
X157266760Y-124891534D01*
X157648186Y-124510773D01*
X157897546Y-123910247D01*
X157898114Y-123260006D01*
X157649802Y-122659045D01*
X157190413Y-122198854D01*
X156589887Y-121949494D01*
X155939646Y-121948926D01*
X155338685Y-122197238D01*
X154878494Y-122656627D01*
X154629134Y-123257153D01*
X154628566Y-123907394D01*
X141052746Y-123907394D01*
X141198011Y-123557559D01*
X141198787Y-122668421D01*
X141084242Y-122391199D01*
X145062846Y-122391199D01*
X145149252Y-122647683D01*
X145722736Y-122857498D01*
X146332860Y-122831879D01*
X146777548Y-122647683D01*
X146863954Y-122391199D01*
X145963400Y-121490645D01*
X145062846Y-122391199D01*
X141084242Y-122391199D01*
X140859245Y-121846668D01*
X140231079Y-121217404D01*
X139876996Y-121070376D01*
X144416942Y-121070376D01*
X144442561Y-121680500D01*
X144626757Y-122125188D01*
X144883241Y-122211594D01*
X145783795Y-121311040D01*
X146143005Y-121311040D01*
X147043559Y-122211594D01*
X147300043Y-122125188D01*
X147509858Y-121551704D01*
X147484239Y-120941580D01*
X147300043Y-120496892D01*
X147043559Y-120410486D01*
X146143005Y-121311040D01*
X145783795Y-121311040D01*
X144883241Y-120410486D01*
X144626757Y-120496892D01*
X144416942Y-121070376D01*
X139876996Y-121070376D01*
X139409919Y-120876429D01*
X138520781Y-120875653D01*
X137699028Y-121215195D01*
X137069764Y-121843361D01*
X136728789Y-122664521D01*
X136728013Y-123553659D01*
X127507200Y-123553659D01*
X127507200Y-111237419D01*
X136677213Y-111237419D01*
X137016755Y-112059172D01*
X137635307Y-112678805D01*
X137069764Y-113243361D01*
X136728789Y-114064521D01*
X136728013Y-114953659D01*
X137067555Y-115775412D01*
X137695721Y-116404676D01*
X138516881Y-116745651D01*
X139406019Y-116746427D01*
X140227772Y-116406885D01*
X140857036Y-115778719D01*
X141198011Y-114957559D01*
X141198787Y-114068421D01*
X140859245Y-113246668D01*
X140240693Y-112627035D01*
X140806236Y-112062479D01*
X141147211Y-111241319D01*
X141147987Y-110352181D01*
X141033442Y-110074959D01*
X145012046Y-110074959D01*
X145098452Y-110331443D01*
X145671936Y-110541258D01*
X146282060Y-110515639D01*
X146726748Y-110331443D01*
X146813154Y-110074959D01*
X145912600Y-109174405D01*
X145012046Y-110074959D01*
X141033442Y-110074959D01*
X140808445Y-109530428D01*
X140180279Y-108901164D01*
X139826196Y-108754136D01*
X144366142Y-108754136D01*
X144391761Y-109364260D01*
X144575957Y-109808948D01*
X144832441Y-109895354D01*
X145732995Y-108994800D01*
X144832441Y-108094246D01*
X144575957Y-108180652D01*
X144366142Y-108754136D01*
X139826196Y-108754136D01*
X139359119Y-108560189D01*
X138469981Y-108559413D01*
X137648228Y-108898955D01*
X137018964Y-109527121D01*
X136677989Y-110348281D01*
X136677213Y-111237419D01*
X127507200Y-111237419D01*
X127507200Y-102637419D01*
X136677213Y-102637419D01*
X137016755Y-103459172D01*
X137644921Y-104088436D01*
X138466081Y-104429411D01*
X139355219Y-104430187D01*
X139673221Y-104298791D01*
X144377335Y-104298791D01*
X144610532Y-104863171D01*
X144991782Y-105245088D01*
X144612049Y-105624157D01*
X144377867Y-106188130D01*
X144377335Y-106798791D01*
X144610532Y-107363171D01*
X145041957Y-107795351D01*
X145050972Y-107799094D01*
X145012046Y-107914641D01*
X145912600Y-108815195D01*
X145926743Y-108801053D01*
X146106348Y-108980658D01*
X146092205Y-108994800D01*
X146992759Y-109895354D01*
X147249243Y-109808948D01*
X147442175Y-109281611D01*
X154586930Y-116426366D01*
X154586930Y-117866660D01*
X154597946Y-117922040D01*
X147244875Y-117922040D01*
X146884218Y-117560752D01*
X147263951Y-117181683D01*
X147498133Y-116617710D01*
X147498665Y-116007049D01*
X147265468Y-115442669D01*
X146834043Y-115010489D01*
X146270070Y-114776307D01*
X145659409Y-114775775D01*
X145095029Y-115008972D01*
X144662849Y-115440397D01*
X144428667Y-116004370D01*
X144428135Y-116615031D01*
X144661332Y-117179411D01*
X145042582Y-117561328D01*
X144662849Y-117940397D01*
X144428667Y-118504370D01*
X144428135Y-119115031D01*
X144661332Y-119679411D01*
X145092757Y-120111591D01*
X145101772Y-120115334D01*
X145062846Y-120230881D01*
X145963400Y-121131435D01*
X146863954Y-120230881D01*
X146825193Y-120115826D01*
X146831771Y-120113108D01*
X147245562Y-119700040D01*
X154830746Y-119700040D01*
X164404006Y-129273300D01*
X149432394Y-129273300D01*
X149417662Y-129237645D01*
X148983831Y-128803057D01*
X149403346Y-128384273D01*
X149652706Y-127783747D01*
X149653274Y-127133506D01*
X149404962Y-126532545D01*
X148945573Y-126072354D01*
X148345047Y-125822994D01*
X147694806Y-125822426D01*
X147093845Y-126070738D01*
X146633654Y-126530127D01*
X146384294Y-127130653D01*
X146383726Y-127780894D01*
X146632038Y-128381855D01*
X147065869Y-128816443D01*
X146646354Y-129235227D01*
X146396994Y-129835753D01*
X146396426Y-130485994D01*
X146644738Y-131086955D01*
X147104127Y-131547146D01*
X147704653Y-131796506D01*
X148354894Y-131797074D01*
X148955855Y-131548762D01*
X149416046Y-131089373D01*
X149431855Y-131051300D01*
X164688584Y-131051300D01*
X165182602Y-131545318D01*
X165471015Y-131738030D01*
X165811220Y-131805700D01*
X174825744Y-131805700D01*
X176761696Y-133741652D01*
X176468700Y-134180150D01*
X176362360Y-134714759D01*
X176362360Y-135805401D01*
X176468700Y-136340010D01*
X176771532Y-136793229D01*
X177224751Y-137096061D01*
X177759360Y-137202401D01*
X178293969Y-137096061D01*
X178747188Y-136793229D01*
X179029360Y-136370930D01*
X179311532Y-136793229D01*
X179764751Y-137096061D01*
X180299360Y-137202401D01*
X180833969Y-137096061D01*
X181287188Y-136793229D01*
X181569360Y-136370930D01*
X181851532Y-136793229D01*
X182304751Y-137096061D01*
X182839360Y-137202401D01*
X183373969Y-137096061D01*
X183827188Y-136793229D01*
X184109360Y-136370930D01*
X184391532Y-136793229D01*
X184844751Y-137096061D01*
X185379360Y-137202401D01*
X185913969Y-137096061D01*
X186367188Y-136793229D01*
X186649360Y-136370930D01*
X186931532Y-136793229D01*
X187384751Y-137096061D01*
X187919360Y-137202401D01*
X188453969Y-137096061D01*
X188907188Y-136793229D01*
X189189360Y-136370930D01*
X189471532Y-136793229D01*
X189924751Y-137096061D01*
X190459360Y-137202401D01*
X190993969Y-137096061D01*
X191447188Y-136793229D01*
X191750020Y-136340010D01*
X191856360Y-135805401D01*
X191856360Y-134714759D01*
X191750020Y-134180150D01*
X191447188Y-133726931D01*
X191272526Y-133610226D01*
X191123899Y-133387789D01*
X180906904Y-123170794D01*
X186365866Y-123170794D01*
X186614178Y-123771755D01*
X187073567Y-124231946D01*
X187674093Y-124481306D01*
X188324334Y-124481874D01*
X188925295Y-124233562D01*
X189385486Y-123774173D01*
X189634846Y-123173647D01*
X189635414Y-122523406D01*
X189387102Y-121922445D01*
X188927713Y-121462254D01*
X188327187Y-121212894D01*
X187676946Y-121212326D01*
X187075985Y-121460638D01*
X186615794Y-121920027D01*
X186366434Y-122520553D01*
X186365866Y-123170794D01*
X180906904Y-123170794D01*
X179918671Y-122182561D01*
X179613778Y-121978838D01*
X179254132Y-121907300D01*
X179211983Y-121907300D01*
X178767713Y-121462254D01*
X178716940Y-121441171D01*
X178716940Y-121129407D01*
X178792337Y-121079028D01*
X178824428Y-121031000D01*
X183232252Y-121031000D01*
X183264343Y-121079028D01*
X183717562Y-121381860D01*
X184252171Y-121488200D01*
X184306909Y-121488200D01*
X184841518Y-121381860D01*
X185294737Y-121079028D01*
X185597569Y-120625809D01*
X185703909Y-120091200D01*
X185597569Y-119556591D01*
X185294737Y-119103372D01*
X184841518Y-118800540D01*
X184306909Y-118694200D01*
X184252171Y-118694200D01*
X183717562Y-118800540D01*
X183264343Y-119103372D01*
X183232252Y-119151400D01*
X178824428Y-119151400D01*
X178792337Y-119103372D01*
X178339118Y-118800540D01*
X177892853Y-118711773D01*
X180465597Y-116139029D01*
X180616578Y-115913070D01*
X182925320Y-115913070D01*
X183079366Y-116284997D01*
X183444341Y-116689858D01*
X183936468Y-116924231D01*
X184152540Y-116802476D01*
X184152540Y-115697000D01*
X184406540Y-115697000D01*
X184406540Y-116802476D01*
X184622612Y-116924231D01*
X185114739Y-116689858D01*
X185479714Y-116284997D01*
X185633760Y-115913070D01*
X185511260Y-115697000D01*
X184406540Y-115697000D01*
X184152540Y-115697000D01*
X183047820Y-115697000D01*
X182925320Y-115913070D01*
X180616578Y-115913070D01*
X180658308Y-115850617D01*
X180725979Y-115510411D01*
X180725979Y-115226930D01*
X182925320Y-115226930D01*
X183047820Y-115443000D01*
X184152540Y-115443000D01*
X184152540Y-114337524D01*
X184406540Y-114337524D01*
X184406540Y-115443000D01*
X185511260Y-115443000D01*
X185633760Y-115226930D01*
X185479714Y-114855003D01*
X185114739Y-114450142D01*
X184622612Y-114215769D01*
X184406540Y-114337524D01*
X184152540Y-114337524D01*
X183936468Y-114215769D01*
X183444341Y-114450142D01*
X183079366Y-114855003D01*
X182925320Y-115226930D01*
X180725979Y-115226930D01*
X180725979Y-110776956D01*
X180981341Y-110521594D01*
X185260966Y-110521594D01*
X185509278Y-111122555D01*
X185968667Y-111582746D01*
X186569193Y-111832106D01*
X187219434Y-111832674D01*
X187820395Y-111584362D01*
X188280586Y-111124973D01*
X188529946Y-110524447D01*
X188530514Y-109874206D01*
X188282202Y-109273245D01*
X187822813Y-108813054D01*
X187222287Y-108563694D01*
X186572046Y-108563126D01*
X185971085Y-108811438D01*
X185510894Y-109270827D01*
X185261534Y-109871353D01*
X185260966Y-110521594D01*
X180981341Y-110521594D01*
X183906194Y-107596741D01*
X189062118Y-107596741D01*
X189274350Y-108110383D01*
X189666990Y-108503709D01*
X189874872Y-108590029D01*
X189669057Y-108675070D01*
X189275731Y-109067710D01*
X189062603Y-109580980D01*
X189062118Y-110136741D01*
X189274350Y-110650383D01*
X189666990Y-111043709D01*
X189874872Y-111130029D01*
X189669057Y-111215070D01*
X189275731Y-111607710D01*
X189062603Y-112120980D01*
X189062118Y-112676741D01*
X189274350Y-113190383D01*
X189666990Y-113583709D01*
X190180260Y-113796837D01*
X190736021Y-113797322D01*
X191249663Y-113585090D01*
X191642989Y-113192450D01*
X191729309Y-112984568D01*
X191814350Y-113190383D01*
X192206990Y-113583709D01*
X192720260Y-113796837D01*
X193276021Y-113797322D01*
X193789663Y-113585090D01*
X194182989Y-113192450D01*
X194396117Y-112679180D01*
X194396602Y-112123419D01*
X194184370Y-111609777D01*
X193791730Y-111216451D01*
X193583848Y-111130131D01*
X193789663Y-111045090D01*
X194182989Y-110652450D01*
X194396117Y-110139180D01*
X194396602Y-109583419D01*
X194184370Y-109069777D01*
X193791730Y-108676451D01*
X193583848Y-108590131D01*
X193789663Y-108505090D01*
X194182989Y-108112450D01*
X194396117Y-107599180D01*
X194396602Y-107043419D01*
X194184370Y-106529777D01*
X193791730Y-106136451D01*
X193278460Y-105923323D01*
X192722699Y-105922838D01*
X192209057Y-106135070D01*
X191815731Y-106527710D01*
X191729411Y-106735592D01*
X191644370Y-106529777D01*
X191251730Y-106136451D01*
X190738460Y-105923323D01*
X190182699Y-105922838D01*
X189669057Y-106135070D01*
X189275731Y-106527710D01*
X189062603Y-107040980D01*
X189062118Y-107596741D01*
X183906194Y-107596741D01*
X190869547Y-100633388D01*
X190965577Y-100489669D01*
X191062258Y-100344976D01*
X191129929Y-100004770D01*
X191129929Y-94935150D01*
X191062258Y-94594944D01*
X190869547Y-94306532D01*
X186268360Y-89705345D01*
X186268360Y-88599264D01*
X186367188Y-88533229D01*
X186649360Y-88110930D01*
X186931532Y-88533229D01*
X187384751Y-88836061D01*
X187919360Y-88942401D01*
X188453969Y-88836061D01*
X188907188Y-88533229D01*
X189189360Y-88110930D01*
X189471532Y-88533229D01*
X189924751Y-88836061D01*
X190459360Y-88942401D01*
X190993969Y-88836061D01*
X191447188Y-88533229D01*
X191750020Y-88080010D01*
X191856360Y-87545401D01*
X191856360Y-86454759D01*
X191750020Y-85920150D01*
X191447188Y-85466931D01*
X190993969Y-85164099D01*
X190459360Y-85057759D01*
X189924751Y-85164099D01*
X189471532Y-85466931D01*
X189189360Y-85889230D01*
X188907188Y-85466931D01*
X188453969Y-85164099D01*
X187919360Y-85057759D01*
X187384751Y-85164099D01*
X186931532Y-85466931D01*
X186649360Y-85889230D01*
X186367188Y-85466931D01*
X185913969Y-85164099D01*
X185379360Y-85057759D01*
X184844751Y-85164099D01*
X184391532Y-85466931D01*
X184109360Y-85889230D01*
X183827188Y-85466931D01*
X183373969Y-85164099D01*
X182839360Y-85057759D01*
X182304751Y-85164099D01*
X181851532Y-85466931D01*
X181569360Y-85889230D01*
X181287188Y-85466931D01*
X180833969Y-85164099D01*
X180299360Y-85057759D01*
X179764751Y-85164099D01*
X179311532Y-85466931D01*
X179029360Y-85889230D01*
X178747188Y-85466931D01*
X178293969Y-85164099D01*
X177759360Y-85057759D01*
X177224751Y-85164099D01*
X176771532Y-85466931D01*
X176489360Y-85889230D01*
X176207188Y-85466931D01*
X175753969Y-85164099D01*
X175219360Y-85057759D01*
X174684751Y-85164099D01*
X174231532Y-85466931D01*
X173949360Y-85889230D01*
X173667188Y-85466931D01*
X173213969Y-85164099D01*
X172679360Y-85057759D01*
X172144751Y-85164099D01*
X171691532Y-85466931D01*
X171388700Y-85920150D01*
X171282360Y-86454759D01*
X171282360Y-87545401D01*
X171388700Y-88080010D01*
X171691532Y-88533229D01*
X171750800Y-88572831D01*
X171750800Y-90283189D01*
X171507191Y-90331646D01*
X171103414Y-90601441D01*
X170833619Y-91005218D01*
X170738879Y-91481506D01*
X170738879Y-91530272D01*
X170833619Y-92006560D01*
X171103414Y-92410337D01*
X171507191Y-92680132D01*
X171983479Y-92774872D01*
X172459767Y-92680132D01*
X172863544Y-92410337D01*
X173133339Y-92006560D01*
X173213157Y-91605289D01*
X173355139Y-91463307D01*
X173558862Y-91158414D01*
X173630400Y-90798768D01*
X173630400Y-88557810D01*
X173667188Y-88533229D01*
X173949360Y-88110930D01*
X174231532Y-88533229D01*
X174290800Y-88572831D01*
X174290800Y-89792058D01*
X174362338Y-90151704D01*
X174566061Y-90456597D01*
X175833801Y-91724337D01*
X175913619Y-92125608D01*
X176183414Y-92529385D01*
X176587191Y-92799180D01*
X177063479Y-92893920D01*
X177539767Y-92799180D01*
X177943544Y-92529385D01*
X178213339Y-92125608D01*
X178308079Y-91649320D01*
X178308079Y-91600554D01*
X178213339Y-91124266D01*
X177943544Y-90720489D01*
X177539767Y-90450694D01*
X177138496Y-90370876D01*
X176170400Y-89402780D01*
X176170400Y-88557810D01*
X176207188Y-88533229D01*
X176489360Y-88110930D01*
X176771532Y-88533229D01*
X176819560Y-88565320D01*
X176819560Y-88879680D01*
X176891098Y-89239326D01*
X177094821Y-89544219D01*
X181472840Y-93922238D01*
X181472840Y-97458992D01*
X181424812Y-97491083D01*
X181122353Y-97943744D01*
X180992498Y-97671081D01*
X180587637Y-97306106D01*
X180215710Y-97152060D01*
X179999640Y-97274560D01*
X179999640Y-98379280D01*
X180019640Y-98379280D01*
X180019640Y-98633280D01*
X179999640Y-98633280D01*
X179999640Y-99738000D01*
X180215710Y-99860500D01*
X180587637Y-99706454D01*
X180992498Y-99341479D01*
X181122353Y-99068816D01*
X181424812Y-99521477D01*
X181878031Y-99824309D01*
X182412640Y-99930649D01*
X182947249Y-99824309D01*
X183400468Y-99521477D01*
X183682640Y-99099178D01*
X183964812Y-99521477D01*
X184418031Y-99824309D01*
X184952640Y-99930649D01*
X185487249Y-99824309D01*
X185940468Y-99521477D01*
X186243300Y-99068258D01*
X186349640Y-98533649D01*
X186349640Y-98478911D01*
X186243300Y-97944302D01*
X185940468Y-97491083D01*
X185487249Y-97188251D01*
X184952640Y-97081911D01*
X184418031Y-97188251D01*
X183964812Y-97491083D01*
X183682640Y-97913382D01*
X183400468Y-97491083D01*
X183352440Y-97458992D01*
X183352440Y-93532960D01*
X183280902Y-93173314D01*
X183077179Y-92868421D01*
X178744070Y-88535312D01*
X178747188Y-88533229D01*
X179029360Y-88110930D01*
X179311532Y-88533229D01*
X179764751Y-88836061D01*
X180299360Y-88942401D01*
X180506988Y-88901101D01*
X187203441Y-95597554D01*
X187203441Y-99133363D01*
X180685505Y-105651299D01*
X168095421Y-105651299D01*
X167755215Y-105718970D01*
X167466803Y-105911681D01*
X161504184Y-111874300D01*
X157791534Y-111874300D01*
X157776802Y-111838645D01*
X157317413Y-111378454D01*
X156716887Y-111129094D01*
X156066646Y-111128526D01*
X155465685Y-111376838D01*
X155005494Y-111836227D01*
X154756134Y-112436753D01*
X154755566Y-113086994D01*
X155003878Y-113687955D01*
X155450540Y-114135397D01*
X155450540Y-114775504D01*
X147447358Y-106772322D01*
X147447865Y-106190809D01*
X147214668Y-105626429D01*
X146833418Y-105244512D01*
X147213151Y-104865443D01*
X147447333Y-104301470D01*
X147447865Y-103690809D01*
X147214668Y-103126429D01*
X146783243Y-102694249D01*
X146219270Y-102460067D01*
X145608609Y-102459535D01*
X145044229Y-102692732D01*
X144612049Y-103124157D01*
X144377867Y-103688130D01*
X144377335Y-104298791D01*
X139673221Y-104298791D01*
X140176972Y-104090645D01*
X140806236Y-103462479D01*
X141147211Y-102641319D01*
X141147987Y-101752181D01*
X140808445Y-100930428D01*
X140180279Y-100301164D01*
X139359119Y-99960189D01*
X138469981Y-99959413D01*
X137648228Y-100298955D01*
X137018964Y-100927121D01*
X136677989Y-101748281D01*
X136677213Y-102637419D01*
X127507200Y-102637419D01*
X127507200Y-99777394D01*
X152492426Y-99777394D01*
X152740738Y-100378355D01*
X153150767Y-100789100D01*
X152742354Y-101196802D01*
X152492994Y-101797328D01*
X152492426Y-102447569D01*
X152740738Y-103048530D01*
X153096793Y-103405206D01*
X152742354Y-103759027D01*
X152492994Y-104359553D01*
X152492426Y-105009794D01*
X152740738Y-105610755D01*
X153200127Y-106070946D01*
X153800653Y-106320306D01*
X154450894Y-106320874D01*
X155051855Y-106072562D01*
X155512046Y-105613173D01*
X155761406Y-105012647D01*
X155761974Y-104362406D01*
X155513662Y-103761445D01*
X155157607Y-103404769D01*
X155512046Y-103050948D01*
X155761406Y-102450422D01*
X155761974Y-101800181D01*
X155513662Y-101199220D01*
X155103633Y-100788475D01*
X155512046Y-100380773D01*
X155761406Y-99780247D01*
X155761408Y-99777394D01*
X162652426Y-99777394D01*
X162900738Y-100378355D01*
X163310767Y-100789100D01*
X162902354Y-101196802D01*
X162652994Y-101797328D01*
X162652426Y-102447569D01*
X162900738Y-103048530D01*
X163256793Y-103405206D01*
X162902354Y-103759027D01*
X162652994Y-104359553D01*
X162652426Y-105009794D01*
X162900738Y-105610755D01*
X163360127Y-106070946D01*
X163960653Y-106320306D01*
X164610894Y-106320874D01*
X165211855Y-106072562D01*
X165672046Y-105613173D01*
X165921406Y-105012647D01*
X165921958Y-104380420D01*
X171453026Y-98849352D01*
X178518409Y-98849352D01*
X178752782Y-99341479D01*
X179157643Y-99706454D01*
X179529570Y-99860500D01*
X179745640Y-99738000D01*
X179745640Y-98633280D01*
X178640164Y-98633280D01*
X178518409Y-98849352D01*
X171453026Y-98849352D01*
X172139170Y-98163208D01*
X178518409Y-98163208D01*
X178640164Y-98379280D01*
X179745640Y-98379280D01*
X179745640Y-97274560D01*
X179529570Y-97152060D01*
X179157643Y-97306106D01*
X178752782Y-97671081D01*
X178518409Y-98163208D01*
X172139170Y-98163208D01*
X175197641Y-95104737D01*
X176236322Y-95104737D01*
X176587191Y-95339180D01*
X177063479Y-95433920D01*
X177539767Y-95339180D01*
X177943544Y-95069385D01*
X178213339Y-94665608D01*
X178308079Y-94189320D01*
X178308079Y-94140554D01*
X178213339Y-93664266D01*
X177943544Y-93260489D01*
X177539767Y-92990694D01*
X177063479Y-92895954D01*
X176587191Y-92990694D01*
X176236322Y-93225137D01*
X174808363Y-93225137D01*
X174448717Y-93296675D01*
X174143824Y-93500398D01*
X173142198Y-94502024D01*
X173228079Y-94070272D01*
X173228079Y-94021506D01*
X173133339Y-93545218D01*
X172863544Y-93141441D01*
X172459767Y-92871646D01*
X171983479Y-92776906D01*
X171507191Y-92871646D01*
X171103414Y-93141441D01*
X170833619Y-93545218D01*
X170753801Y-93946489D01*
X170709341Y-93990949D01*
X170505618Y-94295842D01*
X170435960Y-94646037D01*
X165921948Y-99160049D01*
X165921958Y-99148020D01*
X167568018Y-97501960D01*
X167771741Y-97197067D01*
X167843279Y-96837421D01*
X167843279Y-95066456D01*
X168053339Y-94752079D01*
X168148079Y-94275791D01*
X168148079Y-94227025D01*
X168053339Y-93750737D01*
X167783544Y-93346960D01*
X167379767Y-93077165D01*
X166903479Y-92982425D01*
X166427191Y-93077165D01*
X166023414Y-93346960D01*
X165753619Y-93750737D01*
X165658879Y-94227025D01*
X165658879Y-94275791D01*
X165753619Y-94752079D01*
X165963679Y-95066456D01*
X165963679Y-96448143D01*
X164592347Y-97819475D01*
X163963506Y-97818926D01*
X163362545Y-98067238D01*
X162902354Y-98526627D01*
X162652994Y-99127153D01*
X162652426Y-99777394D01*
X155761408Y-99777394D01*
X155761974Y-99130006D01*
X155513662Y-98529045D01*
X155054273Y-98068854D01*
X154453747Y-97819494D01*
X153803506Y-97818926D01*
X153202545Y-98067238D01*
X152742354Y-98526627D01*
X152492994Y-99127153D01*
X152492426Y-99777394D01*
X127507200Y-99777394D01*
X127507200Y-89595827D01*
X127835397Y-89924598D01*
X128436112Y-90174036D01*
X129086555Y-90174604D01*
X129687703Y-89926214D01*
X130148038Y-89466683D01*
X130397476Y-88865968D01*
X130398044Y-88215525D01*
X130149654Y-87614377D01*
X129690123Y-87154042D01*
X129089408Y-86904604D01*
X128438965Y-86904036D01*
X127837817Y-87152426D01*
X127507200Y-87482466D01*
X127507200Y-84962200D01*
X141311472Y-84962200D01*
X140942060Y-85114838D01*
G36*
X167738593Y-108899728D02*
X168191812Y-109202560D01*
X168726421Y-109308900D01*
X168781159Y-109308900D01*
X169315768Y-109202560D01*
X169768987Y-108899728D01*
X169801078Y-108851700D01*
X174208902Y-108851700D01*
X174240993Y-108899728D01*
X174369555Y-108985631D01*
X174387928Y-109077996D01*
X174591651Y-109382889D01*
X175101515Y-109892753D01*
X175100966Y-110521594D01*
X175349278Y-111122555D01*
X175411363Y-111184749D01*
X175383190Y-111200624D01*
X175383190Y-112306100D01*
X176487910Y-112306100D01*
X176610410Y-112090030D01*
X176503616Y-111832188D01*
X177059434Y-111832674D01*
X177660395Y-111584362D01*
X178120586Y-111124973D01*
X178369946Y-110524447D01*
X178370514Y-109874206D01*
X178122202Y-109273245D01*
X177662813Y-108813054D01*
X177633543Y-108800900D01*
X180187563Y-108800900D01*
X179208361Y-109780102D01*
X179015650Y-110068514D01*
X178947979Y-110408720D01*
X178947979Y-114822462D01*
X178612339Y-114450142D01*
X178120212Y-114215769D01*
X177904140Y-114337524D01*
X177904140Y-115443000D01*
X177924140Y-115443000D01*
X177924140Y-115697000D01*
X177904140Y-115697000D01*
X177904140Y-115717000D01*
X177650140Y-115717000D01*
X177650140Y-115697000D01*
X176545420Y-115697000D01*
X176516665Y-115747719D01*
X176487910Y-115697000D01*
X175383190Y-115697000D01*
X175383190Y-116802476D01*
X175599262Y-116924231D01*
X176091389Y-116689858D01*
X176456364Y-116284997D01*
X176516665Y-116139407D01*
X176576966Y-116284997D01*
X176941941Y-116689858D01*
X177252428Y-116837726D01*
X175377307Y-118712847D01*
X175283559Y-118694200D01*
X175228821Y-118694200D01*
X174694212Y-118800540D01*
X174240993Y-119103372D01*
X173938161Y-119556591D01*
X173831821Y-120091200D01*
X173938161Y-120625809D01*
X174240993Y-121079028D01*
X174694212Y-121381860D01*
X175228821Y-121488200D01*
X175283559Y-121488200D01*
X175818168Y-121381860D01*
X176271387Y-121079028D01*
X176516665Y-120711944D01*
X176761943Y-121079028D01*
X176837340Y-121129407D01*
X176837340Y-121539146D01*
X176455794Y-121920027D01*
X176287369Y-122325640D01*
X176091389Y-122108242D01*
X175599262Y-121873869D01*
X175383190Y-121995624D01*
X175383190Y-123101100D01*
X175403190Y-123101100D01*
X175403190Y-123355100D01*
X175383190Y-123355100D01*
X175383190Y-124460576D01*
X175599262Y-124582331D01*
X176091389Y-124347958D01*
X176456364Y-123943097D01*
X176505880Y-123823547D01*
X176913567Y-124231946D01*
X177514093Y-124481306D01*
X178164334Y-124481874D01*
X178765295Y-124233562D01*
X179038644Y-123960690D01*
X188598879Y-133520925D01*
X188453969Y-133424099D01*
X187919360Y-133317759D01*
X187390837Y-133422888D01*
X181052710Y-127084761D01*
X180747817Y-126881038D01*
X180388171Y-126809500D01*
X176303478Y-126809500D01*
X176271387Y-126761472D01*
X175818168Y-126458640D01*
X175283559Y-126352300D01*
X175228821Y-126352300D01*
X174694212Y-126458640D01*
X174240993Y-126761472D01*
X174208902Y-126809500D01*
X169801078Y-126809500D01*
X169768987Y-126761472D01*
X169315768Y-126458640D01*
X168781159Y-126352300D01*
X168726421Y-126352300D01*
X168692596Y-126359028D01*
X167951325Y-125617757D01*
X167809802Y-125275245D01*
X167426760Y-124891534D01*
X167808186Y-124510773D01*
X167889289Y-124315454D01*
X167918591Y-124347958D01*
X168410718Y-124582331D01*
X168626790Y-124460576D01*
X168626790Y-123355100D01*
X168880790Y-123355100D01*
X168880790Y-124460576D01*
X169096862Y-124582331D01*
X169588989Y-124347958D01*
X169953964Y-123943097D01*
X170108010Y-123571170D01*
X173901970Y-123571170D01*
X174056016Y-123943097D01*
X174420991Y-124347958D01*
X174913118Y-124582331D01*
X175129190Y-124460576D01*
X175129190Y-123355100D01*
X174024470Y-123355100D01*
X173901970Y-123571170D01*
X170108010Y-123571170D01*
X169985510Y-123355100D01*
X168880790Y-123355100D01*
X168626790Y-123355100D01*
X168606790Y-123355100D01*
X168606790Y-123101100D01*
X168626790Y-123101100D01*
X168626790Y-121995624D01*
X168880790Y-121995624D01*
X168880790Y-123101100D01*
X169985510Y-123101100D01*
X170108010Y-122885030D01*
X173901970Y-122885030D01*
X174024470Y-123101100D01*
X175129190Y-123101100D01*
X175129190Y-121995624D01*
X174913118Y-121873869D01*
X174420991Y-122108242D01*
X174056016Y-122513103D01*
X173901970Y-122885030D01*
X170108010Y-122885030D01*
X169953964Y-122513103D01*
X169588989Y-122108242D01*
X169096862Y-121873869D01*
X168880790Y-121995624D01*
X168626790Y-121995624D01*
X168410718Y-121873869D01*
X168199705Y-121974363D01*
X168692596Y-121481472D01*
X168726421Y-121488200D01*
X168781159Y-121488200D01*
X169315768Y-121381860D01*
X169768987Y-121079028D01*
X170071819Y-120625809D01*
X170178159Y-120091200D01*
X170071819Y-119556591D01*
X169768987Y-119103372D01*
X169315768Y-118800540D01*
X168781159Y-118694200D01*
X168726421Y-118694200D01*
X168191812Y-118800540D01*
X167738593Y-119103372D01*
X167493315Y-119470456D01*
X167248037Y-119103372D01*
X166794818Y-118800540D01*
X166260209Y-118694200D01*
X166205471Y-118694200D01*
X165670862Y-118800540D01*
X165217643Y-119103372D01*
X165185552Y-119151400D01*
X160777728Y-119151400D01*
X160745637Y-119103372D01*
X160292418Y-118800540D01*
X159757809Y-118694200D01*
X159703071Y-118694200D01*
X159669246Y-118700928D01*
X157330140Y-116361822D01*
X157330140Y-115913070D01*
X158376220Y-115913070D01*
X158530266Y-116284997D01*
X158895241Y-116689858D01*
X159387368Y-116924231D01*
X159603440Y-116802476D01*
X159603440Y-115697000D01*
X159857440Y-115697000D01*
X159857440Y-116802476D01*
X160073512Y-116924231D01*
X160565639Y-116689858D01*
X160930614Y-116284997D01*
X161084660Y-115913070D01*
X164878620Y-115913070D01*
X165032666Y-116284997D01*
X165397641Y-116689858D01*
X165889768Y-116924231D01*
X166105840Y-116802476D01*
X166105840Y-115697000D01*
X166359840Y-115697000D01*
X166359840Y-116802476D01*
X166575912Y-116924231D01*
X167068039Y-116689858D01*
X167433014Y-116284997D01*
X167493315Y-116139407D01*
X167553616Y-116284997D01*
X167918591Y-116689858D01*
X168410718Y-116924231D01*
X168626790Y-116802476D01*
X168626790Y-115697000D01*
X168880790Y-115697000D01*
X168880790Y-116802476D01*
X169096862Y-116924231D01*
X169588989Y-116689858D01*
X169953964Y-116284997D01*
X170108010Y-115913070D01*
X173901970Y-115913070D01*
X174056016Y-116284997D01*
X174420991Y-116689858D01*
X174913118Y-116924231D01*
X175129190Y-116802476D01*
X175129190Y-115697000D01*
X174024470Y-115697000D01*
X173901970Y-115913070D01*
X170108010Y-115913070D01*
X169985510Y-115697000D01*
X168880790Y-115697000D01*
X168626790Y-115697000D01*
X167522070Y-115697000D01*
X167493315Y-115747719D01*
X167464560Y-115697000D01*
X166359840Y-115697000D01*
X166105840Y-115697000D01*
X165001120Y-115697000D01*
X164878620Y-115913070D01*
X161084660Y-115913070D01*
X160962160Y-115697000D01*
X159857440Y-115697000D01*
X159603440Y-115697000D01*
X158498720Y-115697000D01*
X158376220Y-115913070D01*
X157330140Y-115913070D01*
X157330140Y-115226930D01*
X158376220Y-115226930D01*
X158498720Y-115443000D01*
X159603440Y-115443000D01*
X159603440Y-114337524D01*
X159857440Y-114337524D01*
X159857440Y-115443000D01*
X160962160Y-115443000D01*
X161084660Y-115226930D01*
X164878620Y-115226930D01*
X165001120Y-115443000D01*
X166105840Y-115443000D01*
X166105840Y-115423000D01*
X166359840Y-115423000D01*
X166359840Y-115443000D01*
X167464560Y-115443000D01*
X167493315Y-115392281D01*
X167522070Y-115443000D01*
X168626790Y-115443000D01*
X168626790Y-114337524D01*
X168880790Y-114337524D01*
X168880790Y-115443000D01*
X169985510Y-115443000D01*
X170108010Y-115226930D01*
X173901970Y-115226930D01*
X174024470Y-115443000D01*
X175129190Y-115443000D01*
X175129190Y-114337524D01*
X175383190Y-114337524D01*
X175383190Y-115443000D01*
X176487910Y-115443000D01*
X176516665Y-115392281D01*
X176545420Y-115443000D01*
X177650140Y-115443000D01*
X177650140Y-114337524D01*
X177434068Y-114215769D01*
X176941941Y-114450142D01*
X176576966Y-114855003D01*
X176516665Y-115000593D01*
X176456364Y-114855003D01*
X176091389Y-114450142D01*
X175599262Y-114215769D01*
X175383190Y-114337524D01*
X175129190Y-114337524D01*
X174913118Y-114215769D01*
X174420991Y-114450142D01*
X174056016Y-114855003D01*
X173901970Y-115226930D01*
X170108010Y-115226930D01*
X169953964Y-114855003D01*
X169588989Y-114450142D01*
X169096862Y-114215769D01*
X168880790Y-114337524D01*
X168626790Y-114337524D01*
X168410718Y-114215769D01*
X167918591Y-114450142D01*
X167553616Y-114855003D01*
X167493315Y-115000593D01*
X167433014Y-114855003D01*
X167068039Y-114450142D01*
X166919373Y-114379340D01*
X167474995Y-114149762D01*
X167935186Y-113690373D01*
X167980085Y-113582244D01*
X168410718Y-113787331D01*
X168626790Y-113665576D01*
X168626790Y-112560100D01*
X168880790Y-112560100D01*
X168880790Y-113665576D01*
X169096862Y-113787331D01*
X169588989Y-113552958D01*
X169953964Y-113148097D01*
X170108010Y-112776170D01*
X173901970Y-112776170D01*
X174056016Y-113148097D01*
X174420991Y-113552958D01*
X174913118Y-113787331D01*
X175129190Y-113665576D01*
X175129190Y-112560100D01*
X175383190Y-112560100D01*
X175383190Y-113665576D01*
X175599262Y-113787331D01*
X176091389Y-113552958D01*
X176456364Y-113148097D01*
X176610410Y-112776170D01*
X176487910Y-112560100D01*
X175383190Y-112560100D01*
X175129190Y-112560100D01*
X174024470Y-112560100D01*
X173901970Y-112776170D01*
X170108010Y-112776170D01*
X169985510Y-112560100D01*
X168880790Y-112560100D01*
X168626790Y-112560100D01*
X168606790Y-112560100D01*
X168606790Y-112306100D01*
X168626790Y-112306100D01*
X168626790Y-111200624D01*
X168880790Y-111200624D01*
X168880790Y-112306100D01*
X169985510Y-112306100D01*
X170108010Y-112090030D01*
X173901970Y-112090030D01*
X174024470Y-112306100D01*
X175129190Y-112306100D01*
X175129190Y-111200624D01*
X174913118Y-111078869D01*
X174420991Y-111313242D01*
X174056016Y-111718103D01*
X173901970Y-112090030D01*
X170108010Y-112090030D01*
X169953964Y-111718103D01*
X169588989Y-111313242D01*
X169096862Y-111078869D01*
X168880790Y-111200624D01*
X168626790Y-111200624D01*
X168410718Y-111078869D01*
X167918591Y-111313242D01*
X167678348Y-111579740D01*
X167477413Y-111378454D01*
X166876887Y-111129094D01*
X166226646Y-111128526D01*
X165625685Y-111376838D01*
X165165494Y-111836227D01*
X164916134Y-112436753D01*
X164915566Y-113086994D01*
X165163878Y-113687955D01*
X165623267Y-114148146D01*
X165841491Y-114238761D01*
X165397641Y-114450142D01*
X165032666Y-114855003D01*
X164878620Y-115226930D01*
X161084660Y-115226930D01*
X160930614Y-114855003D01*
X160565639Y-114450142D01*
X160073512Y-114215769D01*
X159857440Y-114337524D01*
X159603440Y-114337524D01*
X159387368Y-114215769D01*
X158895241Y-114450142D01*
X158530266Y-114855003D01*
X158376220Y-115226930D01*
X157330140Y-115226930D01*
X157330140Y-114134643D01*
X157775186Y-113690373D01*
X157790995Y-113652300D01*
X161872420Y-113652300D01*
X162212626Y-113584629D01*
X162501038Y-113391918D01*
X167440041Y-108452915D01*
X167738593Y-108899728D01*
X167738593Y-108899728D01*
G37*
X167738593Y-108899728D02*
X168191812Y-109202560D01*
X168726421Y-109308900D01*
X168781159Y-109308900D01*
X169315768Y-109202560D01*
X169768987Y-108899728D01*
X169801078Y-108851700D01*
X174208902Y-108851700D01*
X174240993Y-108899728D01*
X174369555Y-108985631D01*
X174387928Y-109077996D01*
X174591651Y-109382889D01*
X175101515Y-109892753D01*
X175100966Y-110521594D01*
X175349278Y-111122555D01*
X175411363Y-111184749D01*
X175383190Y-111200624D01*
X175383190Y-112306100D01*
X176487910Y-112306100D01*
X176610410Y-112090030D01*
X176503616Y-111832188D01*
X177059434Y-111832674D01*
X177660395Y-111584362D01*
X178120586Y-111124973D01*
X178369946Y-110524447D01*
X178370514Y-109874206D01*
X178122202Y-109273245D01*
X177662813Y-108813054D01*
X177633543Y-108800900D01*
X180187563Y-108800900D01*
X179208361Y-109780102D01*
X179015650Y-110068514D01*
X178947979Y-110408720D01*
X178947979Y-114822462D01*
X178612339Y-114450142D01*
X178120212Y-114215769D01*
X177904140Y-114337524D01*
X177904140Y-115443000D01*
X177924140Y-115443000D01*
X177924140Y-115697000D01*
X177904140Y-115697000D01*
X177904140Y-115717000D01*
X177650140Y-115717000D01*
X177650140Y-115697000D01*
X176545420Y-115697000D01*
X176516665Y-115747719D01*
X176487910Y-115697000D01*
X175383190Y-115697000D01*
X175383190Y-116802476D01*
X175599262Y-116924231D01*
X176091389Y-116689858D01*
X176456364Y-116284997D01*
X176516665Y-116139407D01*
X176576966Y-116284997D01*
X176941941Y-116689858D01*
X177252428Y-116837726D01*
X175377307Y-118712847D01*
X175283559Y-118694200D01*
X175228821Y-118694200D01*
X174694212Y-118800540D01*
X174240993Y-119103372D01*
X173938161Y-119556591D01*
X173831821Y-120091200D01*
X173938161Y-120625809D01*
X174240993Y-121079028D01*
X174694212Y-121381860D01*
X175228821Y-121488200D01*
X175283559Y-121488200D01*
X175818168Y-121381860D01*
X176271387Y-121079028D01*
X176516665Y-120711944D01*
X176761943Y-121079028D01*
X176837340Y-121129407D01*
X176837340Y-121539146D01*
X176455794Y-121920027D01*
X176287369Y-122325640D01*
X176091389Y-122108242D01*
X175599262Y-121873869D01*
X175383190Y-121995624D01*
X175383190Y-123101100D01*
X175403190Y-123101100D01*
X175403190Y-123355100D01*
X175383190Y-123355100D01*
X175383190Y-124460576D01*
X175599262Y-124582331D01*
X176091389Y-124347958D01*
X176456364Y-123943097D01*
X176505880Y-123823547D01*
X176913567Y-124231946D01*
X177514093Y-124481306D01*
X178164334Y-124481874D01*
X178765295Y-124233562D01*
X179038644Y-123960690D01*
X188598879Y-133520925D01*
X188453969Y-133424099D01*
X187919360Y-133317759D01*
X187390837Y-133422888D01*
X181052710Y-127084761D01*
X180747817Y-126881038D01*
X180388171Y-126809500D01*
X176303478Y-126809500D01*
X176271387Y-126761472D01*
X175818168Y-126458640D01*
X175283559Y-126352300D01*
X175228821Y-126352300D01*
X174694212Y-126458640D01*
X174240993Y-126761472D01*
X174208902Y-126809500D01*
X169801078Y-126809500D01*
X169768987Y-126761472D01*
X169315768Y-126458640D01*
X168781159Y-126352300D01*
X168726421Y-126352300D01*
X168692596Y-126359028D01*
X167951325Y-125617757D01*
X167809802Y-125275245D01*
X167426760Y-124891534D01*
X167808186Y-124510773D01*
X167889289Y-124315454D01*
X167918591Y-124347958D01*
X168410718Y-124582331D01*
X168626790Y-124460576D01*
X168626790Y-123355100D01*
X168880790Y-123355100D01*
X168880790Y-124460576D01*
X169096862Y-124582331D01*
X169588989Y-124347958D01*
X169953964Y-123943097D01*
X170108010Y-123571170D01*
X173901970Y-123571170D01*
X174056016Y-123943097D01*
X174420991Y-124347958D01*
X174913118Y-124582331D01*
X175129190Y-124460576D01*
X175129190Y-123355100D01*
X174024470Y-123355100D01*
X173901970Y-123571170D01*
X170108010Y-123571170D01*
X169985510Y-123355100D01*
X168880790Y-123355100D01*
X168626790Y-123355100D01*
X168606790Y-123355100D01*
X168606790Y-123101100D01*
X168626790Y-123101100D01*
X168626790Y-121995624D01*
X168880790Y-121995624D01*
X168880790Y-123101100D01*
X169985510Y-123101100D01*
X170108010Y-122885030D01*
X173901970Y-122885030D01*
X174024470Y-123101100D01*
X175129190Y-123101100D01*
X175129190Y-121995624D01*
X174913118Y-121873869D01*
X174420991Y-122108242D01*
X174056016Y-122513103D01*
X173901970Y-122885030D01*
X170108010Y-122885030D01*
X169953964Y-122513103D01*
X169588989Y-122108242D01*
X169096862Y-121873869D01*
X168880790Y-121995624D01*
X168626790Y-121995624D01*
X168410718Y-121873869D01*
X168199705Y-121974363D01*
X168692596Y-121481472D01*
X168726421Y-121488200D01*
X168781159Y-121488200D01*
X169315768Y-121381860D01*
X169768987Y-121079028D01*
X170071819Y-120625809D01*
X170178159Y-120091200D01*
X170071819Y-119556591D01*
X169768987Y-119103372D01*
X169315768Y-118800540D01*
X168781159Y-118694200D01*
X168726421Y-118694200D01*
X168191812Y-118800540D01*
X167738593Y-119103372D01*
X167493315Y-119470456D01*
X167248037Y-119103372D01*
X166794818Y-118800540D01*
X166260209Y-118694200D01*
X166205471Y-118694200D01*
X165670862Y-118800540D01*
X165217643Y-119103372D01*
X165185552Y-119151400D01*
X160777728Y-119151400D01*
X160745637Y-119103372D01*
X160292418Y-118800540D01*
X159757809Y-118694200D01*
X159703071Y-118694200D01*
X159669246Y-118700928D01*
X157330140Y-116361822D01*
X157330140Y-115913070D01*
X158376220Y-115913070D01*
X158530266Y-116284997D01*
X158895241Y-116689858D01*
X159387368Y-116924231D01*
X159603440Y-116802476D01*
X159603440Y-115697000D01*
X159857440Y-115697000D01*
X159857440Y-116802476D01*
X160073512Y-116924231D01*
X160565639Y-116689858D01*
X160930614Y-116284997D01*
X161084660Y-115913070D01*
X164878620Y-115913070D01*
X165032666Y-116284997D01*
X165397641Y-116689858D01*
X165889768Y-116924231D01*
X166105840Y-116802476D01*
X166105840Y-115697000D01*
X166359840Y-115697000D01*
X166359840Y-116802476D01*
X166575912Y-116924231D01*
X167068039Y-116689858D01*
X167433014Y-116284997D01*
X167493315Y-116139407D01*
X167553616Y-116284997D01*
X167918591Y-116689858D01*
X168410718Y-116924231D01*
X168626790Y-116802476D01*
X168626790Y-115697000D01*
X168880790Y-115697000D01*
X168880790Y-116802476D01*
X169096862Y-116924231D01*
X169588989Y-116689858D01*
X169953964Y-116284997D01*
X170108010Y-115913070D01*
X173901970Y-115913070D01*
X174056016Y-116284997D01*
X174420991Y-116689858D01*
X174913118Y-116924231D01*
X175129190Y-116802476D01*
X175129190Y-115697000D01*
X174024470Y-115697000D01*
X173901970Y-115913070D01*
X170108010Y-115913070D01*
X169985510Y-115697000D01*
X168880790Y-115697000D01*
X168626790Y-115697000D01*
X167522070Y-115697000D01*
X167493315Y-115747719D01*
X167464560Y-115697000D01*
X166359840Y-115697000D01*
X166105840Y-115697000D01*
X165001120Y-115697000D01*
X164878620Y-115913070D01*
X161084660Y-115913070D01*
X160962160Y-115697000D01*
X159857440Y-115697000D01*
X159603440Y-115697000D01*
X158498720Y-115697000D01*
X158376220Y-115913070D01*
X157330140Y-115913070D01*
X157330140Y-115226930D01*
X158376220Y-115226930D01*
X158498720Y-115443000D01*
X159603440Y-115443000D01*
X159603440Y-114337524D01*
X159857440Y-114337524D01*
X159857440Y-115443000D01*
X160962160Y-115443000D01*
X161084660Y-115226930D01*
X164878620Y-115226930D01*
X165001120Y-115443000D01*
X166105840Y-115443000D01*
X166105840Y-115423000D01*
X166359840Y-115423000D01*
X166359840Y-115443000D01*
X167464560Y-115443000D01*
X167493315Y-115392281D01*
X167522070Y-115443000D01*
X168626790Y-115443000D01*
X168626790Y-114337524D01*
X168880790Y-114337524D01*
X168880790Y-115443000D01*
X169985510Y-115443000D01*
X170108010Y-115226930D01*
X173901970Y-115226930D01*
X174024470Y-115443000D01*
X175129190Y-115443000D01*
X175129190Y-114337524D01*
X175383190Y-114337524D01*
X175383190Y-115443000D01*
X176487910Y-115443000D01*
X176516665Y-115392281D01*
X176545420Y-115443000D01*
X177650140Y-115443000D01*
X177650140Y-114337524D01*
X177434068Y-114215769D01*
X176941941Y-114450142D01*
X176576966Y-114855003D01*
X176516665Y-115000593D01*
X176456364Y-114855003D01*
X176091389Y-114450142D01*
X175599262Y-114215769D01*
X175383190Y-114337524D01*
X175129190Y-114337524D01*
X174913118Y-114215769D01*
X174420991Y-114450142D01*
X174056016Y-114855003D01*
X173901970Y-115226930D01*
X170108010Y-115226930D01*
X169953964Y-114855003D01*
X169588989Y-114450142D01*
X169096862Y-114215769D01*
X168880790Y-114337524D01*
X168626790Y-114337524D01*
X168410718Y-114215769D01*
X167918591Y-114450142D01*
X167553616Y-114855003D01*
X167493315Y-115000593D01*
X167433014Y-114855003D01*
X167068039Y-114450142D01*
X166919373Y-114379340D01*
X167474995Y-114149762D01*
X167935186Y-113690373D01*
X167980085Y-113582244D01*
X168410718Y-113787331D01*
X168626790Y-113665576D01*
X168626790Y-112560100D01*
X168880790Y-112560100D01*
X168880790Y-113665576D01*
X169096862Y-113787331D01*
X169588989Y-113552958D01*
X169953964Y-113148097D01*
X170108010Y-112776170D01*
X173901970Y-112776170D01*
X174056016Y-113148097D01*
X174420991Y-113552958D01*
X174913118Y-113787331D01*
X175129190Y-113665576D01*
X175129190Y-112560100D01*
X175383190Y-112560100D01*
X175383190Y-113665576D01*
X175599262Y-113787331D01*
X176091389Y-113552958D01*
X176456364Y-113148097D01*
X176610410Y-112776170D01*
X176487910Y-112560100D01*
X175383190Y-112560100D01*
X175129190Y-112560100D01*
X174024470Y-112560100D01*
X173901970Y-112776170D01*
X170108010Y-112776170D01*
X169985510Y-112560100D01*
X168880790Y-112560100D01*
X168626790Y-112560100D01*
X168606790Y-112560100D01*
X168606790Y-112306100D01*
X168626790Y-112306100D01*
X168626790Y-111200624D01*
X168880790Y-111200624D01*
X168880790Y-112306100D01*
X169985510Y-112306100D01*
X170108010Y-112090030D01*
X173901970Y-112090030D01*
X174024470Y-112306100D01*
X175129190Y-112306100D01*
X175129190Y-111200624D01*
X174913118Y-111078869D01*
X174420991Y-111313242D01*
X174056016Y-111718103D01*
X173901970Y-112090030D01*
X170108010Y-112090030D01*
X169953964Y-111718103D01*
X169588989Y-111313242D01*
X169096862Y-111078869D01*
X168880790Y-111200624D01*
X168626790Y-111200624D01*
X168410718Y-111078869D01*
X167918591Y-111313242D01*
X167678348Y-111579740D01*
X167477413Y-111378454D01*
X166876887Y-111129094D01*
X166226646Y-111128526D01*
X165625685Y-111376838D01*
X165165494Y-111836227D01*
X164916134Y-112436753D01*
X164915566Y-113086994D01*
X165163878Y-113687955D01*
X165623267Y-114148146D01*
X165841491Y-114238761D01*
X165397641Y-114450142D01*
X165032666Y-114855003D01*
X164878620Y-115226930D01*
X161084660Y-115226930D01*
X160930614Y-114855003D01*
X160565639Y-114450142D01*
X160073512Y-114215769D01*
X159857440Y-114337524D01*
X159603440Y-114337524D01*
X159387368Y-114215769D01*
X158895241Y-114450142D01*
X158530266Y-114855003D01*
X158376220Y-115226930D01*
X157330140Y-115226930D01*
X157330140Y-114134643D01*
X157775186Y-113690373D01*
X157790995Y-113652300D01*
X161872420Y-113652300D01*
X162212626Y-113584629D01*
X162501038Y-113391918D01*
X167440041Y-108452915D01*
X167738593Y-108899728D01*
M02*
