M48
;DRILL file {KiCad 4.1.0-alpha+201606210817+6944~45~ubuntu14.04.1-product} date Tue Jun 21 19:39:42 2016
;FORMAT={-:-/ absolute / inch / decimal}
FMAT,2
INCH,TZ
T1C0.030
T2C0.032
T3C0.032
T4C0.039
T5C0.039
T6C0.040
T7C0.087
%
G90
G05
M72
T1
X5.429Y-5.1206
X5.4302Y-5.016
X5.7264Y-3.587
X5.7266Y-3.6881
X5.7266Y-3.7916
X5.829Y-5.1206
X5.8302Y-5.016
X5.96Y-4.47
X5.96Y-4.565
X5.9611Y-4.1617
X5.9611Y-4.2668
X5.9611Y-4.3677
X6.1264Y-3.587
X6.1266Y-3.6881
X6.1266Y-3.7916
X6.3571Y-4.685
X6.36Y-4.47
X6.36Y-4.565
X6.3611Y-4.1617
X6.3611Y-4.2668
X6.3611Y-4.3677
X6.7571Y-4.685
X6.7625Y-4.55
X6.925Y-4.69
X7.1625Y-4.55
X7.325Y-4.69
T2
X5.5964Y-3.578
X5.5964Y-3.6567
X5.5964Y-3.7355
X5.5964Y-3.8142
T3
X6.297Y-3.9
X6.297Y-4.
X6.565Y-3.9
X6.565Y-4.
X6.84Y-3.9
X6.84Y-4.
X7.0921Y-3.8945
X7.0921Y-3.9945
X7.3551Y-3.8945
X7.3551Y-3.9945
T4
X5.7446Y-4.0943
X5.7446Y-4.1927
X5.7446Y-4.2911
X5.7466Y-4.5792
X5.7466Y-4.6776
X5.7466Y-4.776
T5
X5.0694Y-3.4858
X5.3686Y-3.4858
T6
X5.073Y-5.173
X5.073Y-5.351
X5.329Y-5.173
X5.329Y-5.351
X5.7384Y-3.4252
X5.8384Y-3.4252
X5.9384Y-3.4252
X6.0384Y-3.4252
X6.0984Y-5.3252
X6.1384Y-3.4252
X6.1984Y-5.3252
X6.2384Y-3.4252
X6.2984Y-5.3252
X6.3384Y-3.4252
X6.3984Y-5.3252
X6.4125Y-4.8095
X6.4125Y-4.9875
X6.4384Y-3.4252
X6.4984Y-5.3252
X6.5384Y-3.4252
X6.5984Y-5.3252
X6.6384Y-3.4252
X6.6685Y-4.8095
X6.6685Y-4.9875
X6.6984Y-5.3252
X6.759Y-4.8095
X6.759Y-4.9875
X6.7984Y-3.4252
X6.7984Y-5.3252
X6.8984Y-3.4252
X6.97Y-4.3125
X6.9984Y-3.4252
X6.9984Y-5.3252
X7.015Y-4.8095
X7.015Y-4.9875
X7.07Y-4.3125
X7.0984Y-3.4252
X7.0984Y-5.3252
X7.134Y-4.815
X7.134Y-4.993
X7.17Y-4.3125
X7.1984Y-3.4252
X7.1984Y-5.3252
X7.2984Y-3.4252
X7.2984Y-5.3252
X7.39Y-4.815
X7.39Y-4.993
X7.3984Y-3.4252
X7.3984Y-5.3252
X7.4984Y-3.4252
X7.4984Y-4.2252
X7.4984Y-4.3252
X7.4984Y-4.4252
X7.4984Y-5.3252
X7.5984Y-4.2252
X7.5984Y-4.3252
X7.5984Y-4.4252
T7
X5.469Y-4.0234
X5.469Y-4.362
X5.471Y-4.5083
X5.471Y-4.8469
T0
M30
