G04 #@! TF.FileFunction,Copper,L1,Top,Signal*
%FSLAX46Y46*%
G04 Gerber Fmt 4.6, Leading zero omitted, Abs format (unit mm)*
G04 Created by KiCad (PCBNEW 4.0.5+dfsg1-4~bpo8+1) date Wed Sep 27 19:22:00 2017*
%MOMM*%
%LPD*%
G01*
G04 APERTURE LIST*
%ADD10C,0.100000*%
%ADD11O,1.524000X1.524000*%
%ADD12C,1.998980*%
%ADD13O,1.524000X2.540000*%
%ADD14C,1.524000*%
%ADD15C,2.000000*%
%ADD16C,3.200000*%
%ADD17O,2.200000X1.800000*%
%ADD18O,1.219200X1.519200*%
%ADD19O,1.500480X1.300480*%
%ADD20R,1.500480X1.300480*%
%ADD21C,0.508000*%
%ADD22C,0.609600*%
%ADD23C,0.812800*%
%ADD24C,0.304800*%
%ADD25C,0.254000*%
G04 APERTURE END LIST*
D10*
D11*
X184759600Y-122301000D03*
X191262000Y-122301000D03*
X184759600Y-126822200D03*
X191262000Y-126822200D03*
X166433500Y-122161300D03*
X172935900Y-122161300D03*
X166433500Y-126682500D03*
X172935900Y-126682500D03*
D12*
X189611000Y-119126000D03*
X179451000Y-119126000D03*
X161544000Y-113538000D03*
X151384000Y-113538000D03*
X161544000Y-115951000D03*
X151384000Y-115951000D03*
D11*
X175234600Y-122161300D03*
X181737000Y-122161300D03*
X175234600Y-126682500D03*
X181737000Y-126682500D03*
D13*
X190459360Y-135260080D03*
X187919360Y-135260080D03*
X185379360Y-135260080D03*
X177759360Y-135260080D03*
X180299360Y-135260080D03*
X182839360Y-135260080D03*
X172679360Y-135260080D03*
X170139360Y-135260080D03*
X167599360Y-135260080D03*
X162519360Y-135260080D03*
X159979360Y-135260080D03*
X190459360Y-87000080D03*
X187919360Y-87000080D03*
X185379360Y-87000080D03*
X182839360Y-87000080D03*
X180299360Y-87000080D03*
X177759360Y-87000080D03*
X175219360Y-87000080D03*
X172679360Y-87000080D03*
X168615360Y-87000080D03*
X166075360Y-87000080D03*
X163535360Y-87000080D03*
X160995360Y-87000080D03*
X158455360Y-87000080D03*
X155915360Y-87000080D03*
X153375360Y-87000080D03*
X150835360Y-87000080D03*
X165059360Y-135260080D03*
X148295360Y-87000080D03*
X145755360Y-87000080D03*
X157439360Y-135260080D03*
X154899360Y-135260080D03*
D14*
X190459360Y-107320080D03*
X192999360Y-107320080D03*
X190459360Y-109860080D03*
X192999360Y-109860080D03*
X190459360Y-112400080D03*
X192999360Y-112400080D03*
D11*
X182118000Y-109537500D03*
X179578000Y-109537500D03*
X177038000Y-109537500D03*
X128854200Y-131394200D03*
X135356600Y-131394200D03*
X128854200Y-135915400D03*
X135356600Y-135915400D03*
D15*
X128762760Y-88539320D03*
X136362440Y-88539320D03*
D12*
X137927080Y-127406400D03*
X148087080Y-127406400D03*
X148056600Y-130063240D03*
X137896600Y-130063240D03*
X161571940Y-105707180D03*
X151411940Y-105707180D03*
X161571940Y-108377355D03*
X151411940Y-108377355D03*
X161571940Y-110939580D03*
X151411940Y-110939580D03*
X145450560Y-91109800D03*
X155610560Y-91109800D03*
X145455640Y-93677740D03*
X155615640Y-93677740D03*
X145455640Y-96306640D03*
X155615640Y-96306640D03*
X185420000Y-115570000D03*
X175260000Y-115570000D03*
X165026340Y-118999000D03*
X175186340Y-118999000D03*
D16*
X138963400Y-123111040D03*
X138963400Y-114511040D03*
D17*
X145963400Y-118811040D03*
X145963400Y-121311040D03*
X145963400Y-116311040D03*
D16*
X138912600Y-110794800D03*
X138912600Y-102194800D03*
D17*
X145912600Y-106494800D03*
X145912600Y-108994800D03*
X145912600Y-103994800D03*
D18*
X159943800Y-99060000D03*
X159943800Y-101600000D03*
X166751000Y-99060000D03*
X166751000Y-101600000D03*
X173736000Y-99060000D03*
X173736000Y-101600000D03*
X180140493Y-98921321D03*
X180140493Y-101461321D03*
X186820493Y-98921321D03*
X186820493Y-101461321D03*
D19*
X142148414Y-96880774D03*
X142148414Y-90881294D03*
D20*
X142148414Y-92880274D03*
D19*
X142148414Y-94881794D03*
D21*
X159943800Y-101600000D02*
X159943800Y-104079040D01*
X159943800Y-104079040D02*
X161571940Y-105707180D01*
X166751000Y-101600000D02*
X166751000Y-103198295D01*
X166751000Y-103198295D02*
X161571940Y-108377355D01*
X173736000Y-101600000D02*
X164396420Y-110939580D01*
X164396420Y-110939580D02*
X161571940Y-110939580D01*
D22*
X145486120Y-96403160D02*
X142626028Y-96403160D01*
X142626028Y-96403160D02*
X142148414Y-96880774D01*
X145549620Y-91107260D02*
X142374380Y-91107260D01*
X142374380Y-91107260D02*
X142148414Y-90881294D01*
D21*
X175260000Y-118925340D02*
X175186340Y-118999000D01*
D22*
X145486120Y-93774260D02*
X144378586Y-94881794D01*
X144378586Y-94881794D02*
X142148414Y-94881794D01*
X159979360Y-135260080D02*
X159958951Y-135260080D01*
X138259821Y-133012179D02*
X135356600Y-135915400D01*
X159958951Y-135260080D02*
X157711050Y-133012179D01*
X157711050Y-133012179D02*
X138259821Y-133012179D01*
D23*
X128854200Y-135915400D02*
X135356600Y-135915400D01*
D22*
X160995360Y-87000080D02*
X160995360Y-87508080D01*
X160995360Y-87508080D02*
X157396180Y-91107260D01*
X157396180Y-91107260D02*
X155709620Y-91107260D01*
X163535360Y-87000080D02*
X163535360Y-87508080D01*
X163535360Y-87508080D02*
X157269180Y-93774260D01*
X157269180Y-93774260D02*
X155646120Y-93774260D01*
X155915360Y-87000080D02*
X155915360Y-87508080D01*
X155915360Y-87508080D02*
X154175459Y-89247981D01*
X154175459Y-89247981D02*
X138485314Y-89247981D01*
X138485314Y-89247981D02*
X137776653Y-88539320D01*
X137776653Y-88539320D02*
X136362440Y-88539320D01*
D21*
X168615360Y-87000080D02*
X168615360Y-90388440D01*
X168615360Y-90388440D02*
X159943800Y-99060000D01*
X172679360Y-87000080D02*
X172679360Y-93131640D01*
X172679360Y-93131640D02*
X166751000Y-99060000D01*
X175219360Y-87000080D02*
X175219360Y-97576640D01*
X175219360Y-97576640D02*
X173736000Y-99060000D01*
D22*
X166075360Y-87000080D02*
X166075360Y-87508080D01*
X166075360Y-87508080D02*
X157180280Y-96403160D01*
X157180280Y-96403160D02*
X155646120Y-96403160D01*
X177770600Y-86969600D02*
X177791009Y-86969600D01*
D21*
X182839360Y-87000080D02*
X182839360Y-94940188D01*
X182839360Y-94940188D02*
X186820493Y-98921321D01*
X180299360Y-87000080D02*
X180299360Y-98762454D01*
X180299360Y-98762454D02*
X180140493Y-98921321D01*
D22*
X148018500Y-130149600D02*
X148031200Y-130162300D01*
D24*
X148031200Y-127469900D02*
X148018500Y-127457200D01*
D21*
X180299360Y-135260080D02*
X180299360Y-134752080D01*
X182839360Y-134752080D02*
X182839360Y-135260080D01*
D22*
X182839360Y-135260080D02*
X182818951Y-135260080D01*
D21*
X180140493Y-101461321D02*
X168063814Y-113538000D01*
X168063814Y-113538000D02*
X161544000Y-113538000D01*
X161544000Y-115951000D02*
X168594530Y-115951000D01*
X168594530Y-115951000D02*
X183084209Y-101461321D01*
X183084209Y-101461321D02*
X185702893Y-101461321D01*
X185702893Y-101461321D02*
X186820493Y-101461321D01*
X175234600Y-126682500D02*
X181737000Y-126682500D01*
X185420000Y-115570000D02*
X183108601Y-117881399D01*
X183108601Y-117881399D02*
X183108601Y-125310899D01*
X183108601Y-125310899D02*
X182498999Y-125920501D01*
X182498999Y-125920501D02*
X181737000Y-126682500D01*
X187919360Y-135260080D02*
X187919360Y-132864860D01*
X187919360Y-132864860D02*
X181737000Y-126682500D01*
X187919360Y-135260080D02*
X187919360Y-134752080D01*
D22*
X187919360Y-135260080D02*
X187898951Y-135260080D01*
D21*
X185379360Y-135260080D02*
X185379360Y-134752080D01*
X174523400Y-128270000D02*
X173697899Y-127444499D01*
X185379360Y-134752080D02*
X178897280Y-128270000D01*
X178897280Y-128270000D02*
X174523400Y-128270000D01*
X173697899Y-127444499D02*
X172935900Y-126682500D01*
X166433500Y-126682500D02*
X167805101Y-125310899D01*
X167805101Y-125310899D02*
X167805101Y-120364269D01*
X167805101Y-120364269D02*
X166439832Y-118999000D01*
X166439832Y-118999000D02*
X165026340Y-118999000D01*
X172935900Y-126682500D02*
X166433500Y-126682500D01*
X189611000Y-119126000D02*
X189611000Y-125171200D01*
X189611000Y-125171200D02*
X191262000Y-126822200D01*
X190459360Y-135260080D02*
X190459360Y-130302000D01*
X190459360Y-130302000D02*
X190459360Y-127624840D01*
X184759600Y-126822200D02*
X186979560Y-126822200D01*
X186979560Y-126822200D02*
X190459360Y-130302000D01*
X190459360Y-127624840D02*
X191262000Y-126822200D01*
D25*
G36*
X140942060Y-85114838D02*
X140316315Y-85739491D01*
X139977247Y-86556058D01*
X139976475Y-87440223D01*
X140314118Y-88257380D01*
X140364830Y-88308181D01*
X138874592Y-88308181D01*
X138441192Y-87874781D01*
X138136299Y-87671058D01*
X137776653Y-87599520D01*
X137734503Y-87599520D01*
X137289803Y-87154042D01*
X136689088Y-86904604D01*
X136038645Y-86904036D01*
X135437497Y-87152426D01*
X134977162Y-87611957D01*
X134727724Y-88212672D01*
X134727156Y-88863115D01*
X134975546Y-89464263D01*
X135435077Y-89924598D01*
X136035792Y-90174036D01*
X136686235Y-90174604D01*
X137287383Y-89926214D01*
X137561165Y-89652910D01*
X137820775Y-89912520D01*
X138125668Y-90116243D01*
X138485314Y-90187781D01*
X140968623Y-90187781D01*
X140833869Y-90389454D01*
X140736036Y-90881294D01*
X140833869Y-91373134D01*
X141051353Y-91698623D01*
X140946733Y-91765944D01*
X140801743Y-91978144D01*
X140750734Y-92230034D01*
X140750734Y-93530514D01*
X140795012Y-93765831D01*
X140934084Y-93981955D01*
X141052447Y-94062829D01*
X140833869Y-94389954D01*
X140736036Y-94881794D01*
X140833869Y-95373634D01*
X141112474Y-95790596D01*
X141248198Y-95881284D01*
X141112474Y-95971972D01*
X140833869Y-96388934D01*
X140736036Y-96880774D01*
X140833869Y-97372614D01*
X141112474Y-97789576D01*
X141529436Y-98068181D01*
X142021276Y-98166014D01*
X142275552Y-98166014D01*
X142767392Y-98068181D01*
X143184354Y-97789576D01*
X143462959Y-97372614D01*
X143468858Y-97342960D01*
X144180648Y-97342960D01*
X144528567Y-97691486D01*
X145129093Y-97940846D01*
X145779334Y-97941414D01*
X146380295Y-97693102D01*
X146840486Y-97233713D01*
X147089846Y-96633187D01*
X147090414Y-95982946D01*
X146842102Y-95381985D01*
X146452710Y-94991913D01*
X146840486Y-94604813D01*
X147089846Y-94004287D01*
X147090414Y-93354046D01*
X146842102Y-92753085D01*
X146480654Y-92391006D01*
X146835406Y-92036873D01*
X147084766Y-91436347D01*
X147085334Y-90786106D01*
X146838111Y-90187781D01*
X154175459Y-90187781D01*
X154231897Y-90176555D01*
X154225714Y-90182727D01*
X153976354Y-90783253D01*
X153975786Y-91433494D01*
X154224098Y-92034455D01*
X154585546Y-92396534D01*
X154230794Y-92750667D01*
X153981434Y-93351193D01*
X153980866Y-94001434D01*
X154229178Y-94602395D01*
X154618570Y-94992467D01*
X154230794Y-95379567D01*
X153981434Y-95980093D01*
X153980866Y-96630334D01*
X154229178Y-97231295D01*
X154688567Y-97691486D01*
X155289093Y-97940846D01*
X155939334Y-97941414D01*
X156540295Y-97693102D01*
X156891048Y-97342960D01*
X157180280Y-97342960D01*
X157539926Y-97271422D01*
X157844819Y-97067699D01*
X165987578Y-88924940D01*
X166075360Y-88942401D01*
X166609969Y-88836061D01*
X167063188Y-88533229D01*
X167345360Y-88110930D01*
X167627532Y-88533229D01*
X167726360Y-88599264D01*
X167726360Y-90020204D01*
X160081163Y-97665401D01*
X159943800Y-97638078D01*
X159467512Y-97732818D01*
X159063735Y-98002613D01*
X158793940Y-98406390D01*
X158699200Y-98882678D01*
X158699200Y-99237322D01*
X158793940Y-99713610D01*
X159063735Y-100117387D01*
X159381933Y-100330000D01*
X159063735Y-100542613D01*
X158793940Y-100946390D01*
X158699200Y-101422678D01*
X158699200Y-101777322D01*
X158793940Y-102253610D01*
X159054800Y-102644015D01*
X159054800Y-104079040D01*
X159122471Y-104419246D01*
X159315182Y-104707658D01*
X159952528Y-105345004D01*
X159937734Y-105380633D01*
X159937166Y-106030874D01*
X160185478Y-106631835D01*
X160595507Y-107042580D01*
X160187094Y-107450282D01*
X159937734Y-108050808D01*
X159937166Y-108701049D01*
X160185478Y-109302010D01*
X160541533Y-109658686D01*
X160187094Y-110012507D01*
X159937734Y-110613033D01*
X159937166Y-111263274D01*
X160185478Y-111864235D01*
X160545684Y-112225070D01*
X160159154Y-112610927D01*
X159909794Y-113211453D01*
X159909226Y-113861694D01*
X160157538Y-114462655D01*
X160438980Y-114744589D01*
X160159154Y-115023927D01*
X159909794Y-115624453D01*
X159909226Y-116274694D01*
X160157538Y-116875655D01*
X160616927Y-117335846D01*
X161217453Y-117585206D01*
X161867694Y-117585774D01*
X162468655Y-117337462D01*
X162928846Y-116878073D01*
X162944655Y-116840000D01*
X168594530Y-116840000D01*
X168934736Y-116772329D01*
X169223148Y-116579618D01*
X169909072Y-115893694D01*
X173625226Y-115893694D01*
X173873538Y-116494655D01*
X174332927Y-116954846D01*
X174933453Y-117204206D01*
X175583694Y-117204774D01*
X176184655Y-116956462D01*
X176644846Y-116497073D01*
X176894206Y-115896547D01*
X176894774Y-115246306D01*
X176646462Y-114645345D01*
X176187073Y-114185154D01*
X175586547Y-113935794D01*
X174936306Y-113935226D01*
X174335345Y-114183538D01*
X173875154Y-114642927D01*
X173625794Y-115243453D01*
X173625226Y-115893694D01*
X169909072Y-115893694D01*
X175740031Y-110062735D01*
X175747340Y-110099478D01*
X176050172Y-110552697D01*
X176503391Y-110855529D01*
X177038000Y-110961869D01*
X177572609Y-110855529D01*
X178025828Y-110552697D01*
X178308000Y-110130398D01*
X178590172Y-110552697D01*
X179043391Y-110855529D01*
X179578000Y-110961869D01*
X180112609Y-110855529D01*
X180565828Y-110552697D01*
X180868287Y-110100036D01*
X180998142Y-110372699D01*
X181403003Y-110737674D01*
X181774930Y-110891720D01*
X181991000Y-110769220D01*
X181991000Y-109664500D01*
X182245000Y-109664500D01*
X182245000Y-110769220D01*
X182461070Y-110891720D01*
X182832997Y-110737674D01*
X183237858Y-110372699D01*
X183472231Y-109880572D01*
X183350476Y-109664500D01*
X182245000Y-109664500D01*
X181991000Y-109664500D01*
X181971000Y-109664500D01*
X181971000Y-109410500D01*
X181991000Y-109410500D01*
X181991000Y-108305780D01*
X182245000Y-108305780D01*
X182245000Y-109410500D01*
X183350476Y-109410500D01*
X183472231Y-109194428D01*
X183237858Y-108702301D01*
X182832997Y-108337326D01*
X182461070Y-108183280D01*
X182245000Y-108305780D01*
X181991000Y-108305780D01*
X181774930Y-108183280D01*
X181403003Y-108337326D01*
X180998142Y-108702301D01*
X180868287Y-108974964D01*
X180565828Y-108522303D01*
X180112609Y-108219471D01*
X179578000Y-108113131D01*
X179043391Y-108219471D01*
X178590172Y-108522303D01*
X178308000Y-108944602D01*
X178025828Y-108522303D01*
X177579015Y-108223751D01*
X178206025Y-107596741D01*
X189062118Y-107596741D01*
X189274350Y-108110383D01*
X189666990Y-108503709D01*
X189874872Y-108590029D01*
X189669057Y-108675070D01*
X189275731Y-109067710D01*
X189062603Y-109580980D01*
X189062118Y-110136741D01*
X189274350Y-110650383D01*
X189666990Y-111043709D01*
X189874872Y-111130029D01*
X189669057Y-111215070D01*
X189275731Y-111607710D01*
X189062603Y-112120980D01*
X189062118Y-112676741D01*
X189274350Y-113190383D01*
X189666990Y-113583709D01*
X190180260Y-113796837D01*
X190736021Y-113797322D01*
X191249663Y-113585090D01*
X191642989Y-113192450D01*
X191729309Y-112984568D01*
X191814350Y-113190383D01*
X192206990Y-113583709D01*
X192720260Y-113796837D01*
X193276021Y-113797322D01*
X193789663Y-113585090D01*
X194182989Y-113192450D01*
X194396117Y-112679180D01*
X194396602Y-112123419D01*
X194184370Y-111609777D01*
X193791730Y-111216451D01*
X193583848Y-111130131D01*
X193789663Y-111045090D01*
X194182989Y-110652450D01*
X194396117Y-110139180D01*
X194396602Y-109583419D01*
X194184370Y-109069777D01*
X193791730Y-108676451D01*
X193583848Y-108590131D01*
X193789663Y-108505090D01*
X194182989Y-108112450D01*
X194396117Y-107599180D01*
X194396602Y-107043419D01*
X194184370Y-106529777D01*
X193791730Y-106136451D01*
X193278460Y-105923323D01*
X192722699Y-105922838D01*
X192209057Y-106135070D01*
X191815731Y-106527710D01*
X191729411Y-106735592D01*
X191644370Y-106529777D01*
X191251730Y-106136451D01*
X190738460Y-105923323D01*
X190182699Y-105922838D01*
X189669057Y-106135070D01*
X189275731Y-106527710D01*
X189062603Y-107040980D01*
X189062118Y-107596741D01*
X178206025Y-107596741D01*
X183452445Y-102350321D01*
X185827915Y-102350321D01*
X185940428Y-102518708D01*
X186344205Y-102788503D01*
X186820493Y-102883243D01*
X187296781Y-102788503D01*
X187700558Y-102518708D01*
X187970353Y-102114931D01*
X188065093Y-101638643D01*
X188065093Y-101283999D01*
X187970353Y-100807711D01*
X187700558Y-100403934D01*
X187382360Y-100191321D01*
X187700558Y-99978708D01*
X187970353Y-99574931D01*
X188065093Y-99098643D01*
X188065093Y-98743999D01*
X187970353Y-98267711D01*
X187700558Y-97863934D01*
X187296781Y-97594139D01*
X186820493Y-97499399D01*
X186683130Y-97526722D01*
X183728360Y-94571952D01*
X183728360Y-88599264D01*
X183827188Y-88533229D01*
X184109360Y-88110930D01*
X184391532Y-88533229D01*
X184844751Y-88836061D01*
X185379360Y-88942401D01*
X185913969Y-88836061D01*
X186367188Y-88533229D01*
X186649360Y-88110930D01*
X186931532Y-88533229D01*
X187384751Y-88836061D01*
X187919360Y-88942401D01*
X188453969Y-88836061D01*
X188907188Y-88533229D01*
X189189360Y-88110930D01*
X189471532Y-88533229D01*
X189924751Y-88836061D01*
X190459360Y-88942401D01*
X190993969Y-88836061D01*
X191447188Y-88533229D01*
X191750020Y-88080010D01*
X191856360Y-87545401D01*
X191856360Y-86454759D01*
X191750020Y-85920150D01*
X191447188Y-85466931D01*
X190993969Y-85164099D01*
X190459360Y-85057759D01*
X189924751Y-85164099D01*
X189471532Y-85466931D01*
X189189360Y-85889230D01*
X188907188Y-85466931D01*
X188453969Y-85164099D01*
X187919360Y-85057759D01*
X187384751Y-85164099D01*
X186931532Y-85466931D01*
X186649360Y-85889230D01*
X186367188Y-85466931D01*
X185913969Y-85164099D01*
X185379360Y-85057759D01*
X184844751Y-85164099D01*
X184391532Y-85466931D01*
X184109360Y-85889230D01*
X183827188Y-85466931D01*
X183373969Y-85164099D01*
X182839360Y-85057759D01*
X182304751Y-85164099D01*
X181851532Y-85466931D01*
X181569360Y-85889230D01*
X181287188Y-85466931D01*
X180833969Y-85164099D01*
X180299360Y-85057759D01*
X179764751Y-85164099D01*
X179311532Y-85466931D01*
X179029360Y-85889230D01*
X178747188Y-85466931D01*
X178293969Y-85164099D01*
X177759360Y-85057759D01*
X177224751Y-85164099D01*
X176771532Y-85466931D01*
X176489360Y-85889230D01*
X176207188Y-85466931D01*
X175753969Y-85164099D01*
X175219360Y-85057759D01*
X174684751Y-85164099D01*
X174231532Y-85466931D01*
X173949360Y-85889230D01*
X173667188Y-85466931D01*
X173213969Y-85164099D01*
X172679360Y-85057759D01*
X172144751Y-85164099D01*
X171691532Y-85466931D01*
X171388700Y-85920150D01*
X171282360Y-86454759D01*
X171282360Y-87545401D01*
X171388700Y-88080010D01*
X171691532Y-88533229D01*
X171790360Y-88599264D01*
X171790360Y-92763404D01*
X166888363Y-97665401D01*
X166751000Y-97638078D01*
X166274712Y-97732818D01*
X165870935Y-98002613D01*
X165601140Y-98406390D01*
X165506400Y-98882678D01*
X165506400Y-99237322D01*
X165601140Y-99713610D01*
X165870935Y-100117387D01*
X166189133Y-100330000D01*
X165870935Y-100542613D01*
X165601140Y-100946390D01*
X165506400Y-101422678D01*
X165506400Y-101777322D01*
X165601140Y-102253610D01*
X165862000Y-102644015D01*
X165862000Y-102830059D01*
X163206625Y-105485434D01*
X163206714Y-105383486D01*
X162958402Y-104782525D01*
X162499013Y-104322334D01*
X161898487Y-104072974D01*
X161248246Y-104072406D01*
X161210145Y-104088149D01*
X160832800Y-103710804D01*
X160832800Y-102644015D01*
X161093660Y-102253610D01*
X161188400Y-101777322D01*
X161188400Y-101422678D01*
X161093660Y-100946390D01*
X160823865Y-100542613D01*
X160505667Y-100330000D01*
X160823865Y-100117387D01*
X161093660Y-99713610D01*
X161188400Y-99237322D01*
X161188400Y-99072636D01*
X169243978Y-91017058D01*
X169436689Y-90728646D01*
X169504360Y-90388440D01*
X169504360Y-88599264D01*
X169603188Y-88533229D01*
X169906020Y-88080010D01*
X170012360Y-87545401D01*
X170012360Y-86454759D01*
X169906020Y-85920150D01*
X169603188Y-85466931D01*
X169149969Y-85164099D01*
X168615360Y-85057759D01*
X168080751Y-85164099D01*
X167627532Y-85466931D01*
X167345360Y-85889230D01*
X167063188Y-85466931D01*
X166609969Y-85164099D01*
X166075360Y-85057759D01*
X165540751Y-85164099D01*
X165087532Y-85466931D01*
X164805360Y-85889230D01*
X164523188Y-85466931D01*
X164069969Y-85164099D01*
X163535360Y-85057759D01*
X163000751Y-85164099D01*
X162547532Y-85466931D01*
X162265360Y-85889230D01*
X161983188Y-85466931D01*
X161529969Y-85164099D01*
X160995360Y-85057759D01*
X160460751Y-85164099D01*
X160007532Y-85466931D01*
X159725360Y-85889230D01*
X159443188Y-85466931D01*
X158989969Y-85164099D01*
X158455360Y-85057759D01*
X157920751Y-85164099D01*
X157467532Y-85466931D01*
X157185360Y-85889230D01*
X156903188Y-85466931D01*
X156449969Y-85164099D01*
X155915360Y-85057759D01*
X155380751Y-85164099D01*
X154927532Y-85466931D01*
X154645360Y-85889230D01*
X154363188Y-85466931D01*
X153909969Y-85164099D01*
X153375360Y-85057759D01*
X152840751Y-85164099D01*
X152387532Y-85466931D01*
X152105360Y-85889230D01*
X151823188Y-85466931D01*
X151369969Y-85164099D01*
X150835360Y-85057759D01*
X150300751Y-85164099D01*
X149847532Y-85466931D01*
X149565360Y-85889230D01*
X149283188Y-85466931D01*
X148829969Y-85164099D01*
X148295360Y-85057759D01*
X147760751Y-85164099D01*
X147307532Y-85466931D01*
X147025360Y-85889230D01*
X146743188Y-85466931D01*
X146289969Y-85164099D01*
X145755360Y-85057759D01*
X145220751Y-85164099D01*
X144767532Y-85466931D01*
X144464700Y-85920150D01*
X144364998Y-86421388D01*
X144084602Y-85742780D01*
X143459949Y-85117035D01*
X143087065Y-84962200D01*
X191511664Y-84962200D01*
X192482000Y-85932536D01*
X192482000Y-97078800D01*
X192534143Y-97340938D01*
X192682632Y-97563168D01*
X194996600Y-99877136D01*
X194996600Y-101253835D01*
X194884602Y-100982780D01*
X194259949Y-100357035D01*
X193443382Y-100017967D01*
X192559217Y-100017195D01*
X191742060Y-100354838D01*
X191116315Y-100979491D01*
X190777247Y-101796058D01*
X190776475Y-102680223D01*
X191114118Y-103497380D01*
X191738771Y-104123125D01*
X192555338Y-104462193D01*
X193439503Y-104462965D01*
X194256660Y-104125322D01*
X194882405Y-103500669D01*
X194996600Y-103225657D01*
X194996600Y-129193835D01*
X194884602Y-128922780D01*
X194259949Y-128297035D01*
X193443382Y-127957967D01*
X192559217Y-127957195D01*
X191742060Y-128294838D01*
X191348360Y-128687851D01*
X191348360Y-128207466D01*
X191823978Y-128112860D01*
X192277197Y-127810028D01*
X192580029Y-127356809D01*
X192686369Y-126822200D01*
X192580029Y-126287591D01*
X192277197Y-125834372D01*
X191823978Y-125531540D01*
X191289369Y-125425200D01*
X191234631Y-125425200D01*
X191140883Y-125443847D01*
X190500000Y-124802964D01*
X190500000Y-123455719D01*
X190918928Y-123655231D01*
X191135000Y-123533476D01*
X191135000Y-122428000D01*
X191389000Y-122428000D01*
X191389000Y-123533476D01*
X191605072Y-123655231D01*
X192097199Y-123420858D01*
X192462174Y-123015997D01*
X192616220Y-122644070D01*
X192493720Y-122428000D01*
X191389000Y-122428000D01*
X191135000Y-122428000D01*
X191115000Y-122428000D01*
X191115000Y-122174000D01*
X191135000Y-122174000D01*
X191135000Y-121068524D01*
X191389000Y-121068524D01*
X191389000Y-122174000D01*
X192493720Y-122174000D01*
X192616220Y-121957930D01*
X192462174Y-121586003D01*
X192097199Y-121181142D01*
X191605072Y-120946769D01*
X191389000Y-121068524D01*
X191135000Y-121068524D01*
X190918928Y-120946769D01*
X190500000Y-121146281D01*
X190500000Y-120527194D01*
X190535655Y-120512462D01*
X190995846Y-120053073D01*
X191245206Y-119452547D01*
X191245774Y-118802306D01*
X190997462Y-118201345D01*
X190538073Y-117741154D01*
X189937547Y-117491794D01*
X189287306Y-117491226D01*
X188686345Y-117739538D01*
X188226154Y-118198927D01*
X187976794Y-118799453D01*
X187976226Y-119449694D01*
X188224538Y-120050655D01*
X188683927Y-120510846D01*
X188722000Y-120526655D01*
X188722000Y-125171200D01*
X188789671Y-125511406D01*
X188883015Y-125651105D01*
X188982382Y-125799818D01*
X189865360Y-126682796D01*
X189837631Y-126822200D01*
X189865360Y-126961604D01*
X189830742Y-126996222D01*
X189638031Y-127284634D01*
X189570360Y-127624840D01*
X189570360Y-128155764D01*
X187608178Y-126193582D01*
X187319766Y-126000871D01*
X186979560Y-125933200D01*
X185840832Y-125933200D01*
X185774797Y-125834372D01*
X185321578Y-125531540D01*
X184786969Y-125425200D01*
X184732231Y-125425200D01*
X184197622Y-125531540D01*
X183858346Y-125758237D01*
X183929930Y-125651105D01*
X183997601Y-125310899D01*
X183997601Y-123455719D01*
X184416528Y-123655231D01*
X184632600Y-123533476D01*
X184632600Y-122428000D01*
X184886600Y-122428000D01*
X184886600Y-123533476D01*
X185102672Y-123655231D01*
X185594799Y-123420858D01*
X185959774Y-123015997D01*
X186113820Y-122644070D01*
X185991320Y-122428000D01*
X184886600Y-122428000D01*
X184632600Y-122428000D01*
X184612600Y-122428000D01*
X184612600Y-122174000D01*
X184632600Y-122174000D01*
X184632600Y-121068524D01*
X184886600Y-121068524D01*
X184886600Y-122174000D01*
X185991320Y-122174000D01*
X186113820Y-121957930D01*
X185959774Y-121586003D01*
X185594799Y-121181142D01*
X185102672Y-120946769D01*
X184886600Y-121068524D01*
X184632600Y-121068524D01*
X184416528Y-120946769D01*
X183997601Y-121146281D01*
X183997601Y-118249635D01*
X185057824Y-117189412D01*
X185093453Y-117204206D01*
X185743694Y-117204774D01*
X186344655Y-116956462D01*
X186804846Y-116497073D01*
X187054206Y-115896547D01*
X187054774Y-115246306D01*
X186806462Y-114645345D01*
X186347073Y-114185154D01*
X185746547Y-113935794D01*
X185096306Y-113935226D01*
X184495345Y-114183538D01*
X184035154Y-114642927D01*
X183785794Y-115243453D01*
X183785226Y-115893694D01*
X183800969Y-115931795D01*
X182479983Y-117252781D01*
X182287272Y-117541193D01*
X182219601Y-117881399D01*
X182219601Y-120873519D01*
X182080072Y-120807069D01*
X181864000Y-120928824D01*
X181864000Y-122034300D01*
X181884000Y-122034300D01*
X181884000Y-122288300D01*
X181864000Y-122288300D01*
X181864000Y-123393776D01*
X182080072Y-123515531D01*
X182219601Y-123449081D01*
X182219601Y-124942663D01*
X181858117Y-125304147D01*
X181764369Y-125285500D01*
X181709631Y-125285500D01*
X181175022Y-125391840D01*
X180721803Y-125694672D01*
X180655768Y-125793500D01*
X176315832Y-125793500D01*
X176249797Y-125694672D01*
X175796578Y-125391840D01*
X175261969Y-125285500D01*
X175207231Y-125285500D01*
X174672622Y-125391840D01*
X174219403Y-125694672D01*
X174085250Y-125895446D01*
X173951097Y-125694672D01*
X173497878Y-125391840D01*
X172963269Y-125285500D01*
X172908531Y-125285500D01*
X172373922Y-125391840D01*
X171920703Y-125694672D01*
X171854668Y-125793500D01*
X168531285Y-125793500D01*
X168626430Y-125651105D01*
X168694101Y-125310899D01*
X168694101Y-122504370D01*
X171581680Y-122504370D01*
X171735726Y-122876297D01*
X172100701Y-123281158D01*
X172592828Y-123515531D01*
X172808900Y-123393776D01*
X172808900Y-122288300D01*
X173062900Y-122288300D01*
X173062900Y-123393776D01*
X173278972Y-123515531D01*
X173771099Y-123281158D01*
X174085250Y-122932675D01*
X174399401Y-123281158D01*
X174891528Y-123515531D01*
X175107600Y-123393776D01*
X175107600Y-122288300D01*
X175361600Y-122288300D01*
X175361600Y-123393776D01*
X175577672Y-123515531D01*
X176069799Y-123281158D01*
X176434774Y-122876297D01*
X176588820Y-122504370D01*
X180382780Y-122504370D01*
X180536826Y-122876297D01*
X180901801Y-123281158D01*
X181393928Y-123515531D01*
X181610000Y-123393776D01*
X181610000Y-122288300D01*
X180505280Y-122288300D01*
X180382780Y-122504370D01*
X176588820Y-122504370D01*
X176466320Y-122288300D01*
X175361600Y-122288300D01*
X175107600Y-122288300D01*
X173062900Y-122288300D01*
X172808900Y-122288300D01*
X171704180Y-122288300D01*
X171581680Y-122504370D01*
X168694101Y-122504370D01*
X168694101Y-121818230D01*
X171581680Y-121818230D01*
X171704180Y-122034300D01*
X172808900Y-122034300D01*
X172808900Y-120928824D01*
X173062900Y-120928824D01*
X173062900Y-122034300D01*
X175107600Y-122034300D01*
X175107600Y-120928824D01*
X175361600Y-120928824D01*
X175361600Y-122034300D01*
X176466320Y-122034300D01*
X176588820Y-121818230D01*
X180382780Y-121818230D01*
X180505280Y-122034300D01*
X181610000Y-122034300D01*
X181610000Y-120928824D01*
X181393928Y-120807069D01*
X180901801Y-121041442D01*
X180536826Y-121446303D01*
X180382780Y-121818230D01*
X176588820Y-121818230D01*
X176434774Y-121446303D01*
X176069799Y-121041442D01*
X175577672Y-120807069D01*
X175361600Y-120928824D01*
X175107600Y-120928824D01*
X174891528Y-120807069D01*
X174399401Y-121041442D01*
X174085250Y-121389925D01*
X173771099Y-121041442D01*
X173278972Y-120807069D01*
X173062900Y-120928824D01*
X172808900Y-120928824D01*
X172592828Y-120807069D01*
X172100701Y-121041442D01*
X171735726Y-121446303D01*
X171581680Y-121818230D01*
X168694101Y-121818230D01*
X168694101Y-120364269D01*
X168626430Y-120024063D01*
X168433719Y-119735651D01*
X168020762Y-119322694D01*
X173551566Y-119322694D01*
X173799878Y-119923655D01*
X174259267Y-120383846D01*
X174859793Y-120633206D01*
X175510034Y-120633774D01*
X176110995Y-120385462D01*
X176571186Y-119926073D01*
X176768995Y-119449694D01*
X177816226Y-119449694D01*
X178064538Y-120050655D01*
X178523927Y-120510846D01*
X179124453Y-120760206D01*
X179774694Y-120760774D01*
X180375655Y-120512462D01*
X180835846Y-120053073D01*
X181085206Y-119452547D01*
X181085774Y-118802306D01*
X180837462Y-118201345D01*
X180378073Y-117741154D01*
X179777547Y-117491794D01*
X179127306Y-117491226D01*
X178526345Y-117739538D01*
X178066154Y-118198927D01*
X177816794Y-118799453D01*
X177816226Y-119449694D01*
X176768995Y-119449694D01*
X176820546Y-119325547D01*
X176821114Y-118675306D01*
X176572802Y-118074345D01*
X176113413Y-117614154D01*
X175512887Y-117364794D01*
X174862646Y-117364226D01*
X174261685Y-117612538D01*
X173801494Y-118071927D01*
X173552134Y-118672453D01*
X173551566Y-119322694D01*
X168020762Y-119322694D01*
X167068450Y-118370382D01*
X166780038Y-118177671D01*
X166439832Y-118110000D01*
X166427534Y-118110000D01*
X166412802Y-118074345D01*
X165953413Y-117614154D01*
X165352887Y-117364794D01*
X164702646Y-117364226D01*
X164101685Y-117612538D01*
X163641494Y-118071927D01*
X163392134Y-118672453D01*
X163391566Y-119322694D01*
X163639878Y-119923655D01*
X164099267Y-120383846D01*
X164699793Y-120633206D01*
X165350034Y-120633774D01*
X165950995Y-120385462D01*
X166260296Y-120076700D01*
X166916101Y-120732505D01*
X166916101Y-120873519D01*
X166776572Y-120807069D01*
X166560500Y-120928824D01*
X166560500Y-122034300D01*
X166580500Y-122034300D01*
X166580500Y-122288300D01*
X166560500Y-122288300D01*
X166560500Y-123393776D01*
X166776572Y-123515531D01*
X166916101Y-123449081D01*
X166916101Y-124942663D01*
X166554617Y-125304147D01*
X166460869Y-125285500D01*
X166406131Y-125285500D01*
X165871522Y-125391840D01*
X165418303Y-125694672D01*
X165115471Y-126147891D01*
X165009131Y-126682500D01*
X165115471Y-127217109D01*
X165418303Y-127670328D01*
X165871522Y-127973160D01*
X166406131Y-128079500D01*
X166460869Y-128079500D01*
X166995478Y-127973160D01*
X167448697Y-127670328D01*
X167514732Y-127571500D01*
X171854668Y-127571500D01*
X171920703Y-127670328D01*
X172373922Y-127973160D01*
X172908531Y-128079500D01*
X172963269Y-128079500D01*
X173057017Y-128060853D01*
X173894782Y-128898618D01*
X174183194Y-129091329D01*
X174523400Y-129159000D01*
X178529044Y-129159000D01*
X182712948Y-133342904D01*
X182304751Y-133424099D01*
X181851532Y-133726931D01*
X181569360Y-134149230D01*
X181287188Y-133726931D01*
X180833969Y-133424099D01*
X180299360Y-133317759D01*
X179764751Y-133424099D01*
X179311532Y-133726931D01*
X179029360Y-134149230D01*
X178747188Y-133726931D01*
X178293969Y-133424099D01*
X177759360Y-133317759D01*
X177224751Y-133424099D01*
X176771532Y-133726931D01*
X176468700Y-134180150D01*
X176362360Y-134714759D01*
X176362360Y-135805401D01*
X176468700Y-136340010D01*
X176771532Y-136793229D01*
X177224751Y-137096061D01*
X177759360Y-137202401D01*
X178293969Y-137096061D01*
X178747188Y-136793229D01*
X179029360Y-136370930D01*
X179311532Y-136793229D01*
X179764751Y-137096061D01*
X180299360Y-137202401D01*
X180833969Y-137096061D01*
X181287188Y-136793229D01*
X181569360Y-136370930D01*
X181851532Y-136793229D01*
X182304751Y-137096061D01*
X182839360Y-137202401D01*
X183373969Y-137096061D01*
X183827188Y-136793229D01*
X184109360Y-136370930D01*
X184391532Y-136793229D01*
X184844751Y-137096061D01*
X185379360Y-137202401D01*
X185913969Y-137096061D01*
X186367188Y-136793229D01*
X186649360Y-136370930D01*
X186931532Y-136793229D01*
X187384751Y-137096061D01*
X187919360Y-137202401D01*
X188453969Y-137096061D01*
X188907188Y-136793229D01*
X189189360Y-136370930D01*
X189471532Y-136793229D01*
X189924751Y-137096061D01*
X190459360Y-137202401D01*
X190993969Y-137096061D01*
X191447188Y-136793229D01*
X191750020Y-136340010D01*
X191856360Y-135805401D01*
X191856360Y-134714759D01*
X191750020Y-134180150D01*
X191447188Y-133726931D01*
X191348360Y-133660896D01*
X191348360Y-131672031D01*
X191738771Y-132063125D01*
X192555338Y-132402193D01*
X193439503Y-132402965D01*
X194256660Y-132065322D01*
X194882405Y-131440669D01*
X194996600Y-131165657D01*
X194996600Y-132482064D01*
X192682632Y-134796032D01*
X192534143Y-135018262D01*
X192482000Y-135280400D01*
X192482000Y-137237000D01*
X141964783Y-137237000D01*
X142186660Y-137145322D01*
X142812405Y-136520669D01*
X143151473Y-135704102D01*
X143152245Y-134819937D01*
X142814602Y-134002780D01*
X142763890Y-133951979D01*
X153761159Y-133951979D01*
X153608700Y-134180150D01*
X153502360Y-134714759D01*
X153502360Y-135805401D01*
X153608700Y-136340010D01*
X153911532Y-136793229D01*
X154364751Y-137096061D01*
X154899360Y-137202401D01*
X155433969Y-137096061D01*
X155887188Y-136793229D01*
X156169360Y-136370930D01*
X156451532Y-136793229D01*
X156904751Y-137096061D01*
X157439360Y-137202401D01*
X157973969Y-137096061D01*
X158427188Y-136793229D01*
X158709360Y-136370930D01*
X158991532Y-136793229D01*
X159444751Y-137096061D01*
X159979360Y-137202401D01*
X160513969Y-137096061D01*
X160967188Y-136793229D01*
X161249360Y-136370930D01*
X161531532Y-136793229D01*
X161984751Y-137096061D01*
X162519360Y-137202401D01*
X163053969Y-137096061D01*
X163507188Y-136793229D01*
X163798690Y-136356967D01*
X163817301Y-136420021D01*
X164161334Y-136845710D01*
X164642083Y-137107340D01*
X164716290Y-137122300D01*
X164932360Y-136999800D01*
X164932360Y-135387080D01*
X164912360Y-135387080D01*
X164912360Y-135133080D01*
X164932360Y-135133080D01*
X164932360Y-133520360D01*
X165186360Y-133520360D01*
X165186360Y-135133080D01*
X165206360Y-135133080D01*
X165206360Y-135387080D01*
X165186360Y-135387080D01*
X165186360Y-136999800D01*
X165402430Y-137122300D01*
X165476637Y-137107340D01*
X165957386Y-136845710D01*
X166301419Y-136420021D01*
X166320030Y-136356967D01*
X166611532Y-136793229D01*
X167064751Y-137096061D01*
X167599360Y-137202401D01*
X168133969Y-137096061D01*
X168587188Y-136793229D01*
X168869360Y-136370930D01*
X169151532Y-136793229D01*
X169604751Y-137096061D01*
X170139360Y-137202401D01*
X170673969Y-137096061D01*
X171127188Y-136793229D01*
X171409360Y-136370930D01*
X171691532Y-136793229D01*
X172144751Y-137096061D01*
X172679360Y-137202401D01*
X173213969Y-137096061D01*
X173667188Y-136793229D01*
X173970020Y-136340010D01*
X174076360Y-135805401D01*
X174076360Y-134714759D01*
X173970020Y-134180150D01*
X173667188Y-133726931D01*
X173213969Y-133424099D01*
X172679360Y-133317759D01*
X172144751Y-133424099D01*
X171691532Y-133726931D01*
X171409360Y-134149230D01*
X171127188Y-133726931D01*
X170673969Y-133424099D01*
X170139360Y-133317759D01*
X169604751Y-133424099D01*
X169151532Y-133726931D01*
X168869360Y-134149230D01*
X168587188Y-133726931D01*
X168133969Y-133424099D01*
X167599360Y-133317759D01*
X167064751Y-133424099D01*
X166611532Y-133726931D01*
X166320030Y-134163193D01*
X166301419Y-134100139D01*
X165957386Y-133674450D01*
X165476637Y-133412820D01*
X165402430Y-133397860D01*
X165186360Y-133520360D01*
X164932360Y-133520360D01*
X164716290Y-133397860D01*
X164642083Y-133412820D01*
X164161334Y-133674450D01*
X163817301Y-134100139D01*
X163798690Y-134163193D01*
X163507188Y-133726931D01*
X163053969Y-133424099D01*
X162519360Y-133317759D01*
X161984751Y-133424099D01*
X161531532Y-133726931D01*
X161249360Y-134149230D01*
X160967188Y-133726931D01*
X160513969Y-133424099D01*
X159979360Y-133317759D01*
X159450837Y-133422888D01*
X158375589Y-132347640D01*
X158070696Y-132143917D01*
X157711050Y-132072379D01*
X138259821Y-132072379D01*
X137900175Y-132143917D01*
X137595282Y-132347640D01*
X135417794Y-134525128D01*
X135383969Y-134518400D01*
X135329231Y-134518400D01*
X134794622Y-134624740D01*
X134421579Y-134874000D01*
X129789221Y-134874000D01*
X129416178Y-134624740D01*
X128881569Y-134518400D01*
X128826831Y-134518400D01*
X128292222Y-134624740D01*
X127839003Y-134927572D01*
X127536171Y-135380791D01*
X127507200Y-135526439D01*
X127507200Y-131783161D01*
X127536171Y-131928809D01*
X127839003Y-132382028D01*
X128292222Y-132684860D01*
X128826831Y-132791200D01*
X128881569Y-132791200D01*
X129416178Y-132684860D01*
X129869397Y-132382028D01*
X130172229Y-131928809D01*
X130278569Y-131394200D01*
X133932231Y-131394200D01*
X134038571Y-131928809D01*
X134341403Y-132382028D01*
X134794622Y-132684860D01*
X135329231Y-132791200D01*
X135383969Y-132791200D01*
X135918578Y-132684860D01*
X136371797Y-132382028D01*
X136674629Y-131928809D01*
X136780969Y-131394200D01*
X136747433Y-131225605D01*
X136969527Y-131448086D01*
X137570053Y-131697446D01*
X138220294Y-131698014D01*
X138821255Y-131449702D01*
X139281446Y-130990313D01*
X139530806Y-130389787D01*
X139530808Y-130386934D01*
X146421826Y-130386934D01*
X146670138Y-130987895D01*
X147129527Y-131448086D01*
X147730053Y-131697446D01*
X148380294Y-131698014D01*
X148981255Y-131449702D01*
X149441446Y-130990313D01*
X149690806Y-130389787D01*
X149691374Y-129739546D01*
X149443062Y-129138585D01*
X149054913Y-128749759D01*
X149471926Y-128333473D01*
X149721286Y-127732947D01*
X149721854Y-127082706D01*
X149473542Y-126481745D01*
X149014153Y-126021554D01*
X148413627Y-125772194D01*
X147763386Y-125771626D01*
X147162425Y-126019938D01*
X146702234Y-126479327D01*
X146452874Y-127079853D01*
X146452306Y-127730094D01*
X146700618Y-128331055D01*
X147088767Y-128719881D01*
X146671754Y-129136167D01*
X146422394Y-129736693D01*
X146421826Y-130386934D01*
X139530808Y-130386934D01*
X139531374Y-129739546D01*
X139283062Y-129138585D01*
X138846793Y-128701555D01*
X138899637Y-128558563D01*
X137927080Y-127586005D01*
X136954523Y-128558563D01*
X136994731Y-128667363D01*
X136971945Y-128676778D01*
X136511754Y-129136167D01*
X136262394Y-129736693D01*
X136261873Y-130332923D01*
X135918578Y-130103540D01*
X135383969Y-129997200D01*
X135329231Y-129997200D01*
X134794622Y-130103540D01*
X134341403Y-130406372D01*
X134038571Y-130859591D01*
X133932231Y-131394200D01*
X130278569Y-131394200D01*
X130172229Y-130859591D01*
X129869397Y-130406372D01*
X129416178Y-130103540D01*
X128881569Y-129997200D01*
X128826831Y-129997200D01*
X128292222Y-130103540D01*
X127839003Y-130406372D01*
X127536171Y-130859591D01*
X127507200Y-131005239D01*
X127507200Y-127141982D01*
X136281679Y-127141982D01*
X136305739Y-127791777D01*
X136508115Y-128280358D01*
X136774917Y-128378957D01*
X137747475Y-127406400D01*
X138106685Y-127406400D01*
X139079243Y-128378957D01*
X139346045Y-128280358D01*
X139572481Y-127670818D01*
X139548421Y-127021023D01*
X139346045Y-126532442D01*
X139079243Y-126433843D01*
X138106685Y-127406400D01*
X137747475Y-127406400D01*
X136774917Y-126433843D01*
X136508115Y-126532442D01*
X136281679Y-127141982D01*
X127507200Y-127141982D01*
X127507200Y-126254237D01*
X136954523Y-126254237D01*
X137927080Y-127226795D01*
X138899637Y-126254237D01*
X138801038Y-125987435D01*
X138191498Y-125760999D01*
X137541703Y-125785059D01*
X137053122Y-125987435D01*
X136954523Y-126254237D01*
X127507200Y-126254237D01*
X127507200Y-123553659D01*
X136728013Y-123553659D01*
X137067555Y-124375412D01*
X137695721Y-125004676D01*
X138516881Y-125345651D01*
X139406019Y-125346427D01*
X140227772Y-125006885D01*
X140857036Y-124378719D01*
X141198011Y-123557559D01*
X141198787Y-122668421D01*
X140859245Y-121846668D01*
X140688656Y-121675780D01*
X144272364Y-121675780D01*
X144284925Y-121741065D01*
X144562031Y-122274119D01*
X145022034Y-122660553D01*
X145594903Y-122841536D01*
X145836400Y-122690302D01*
X145836400Y-121438040D01*
X146090400Y-121438040D01*
X146090400Y-122690302D01*
X146331897Y-122841536D01*
X146904766Y-122660553D01*
X147090682Y-122504370D01*
X165079280Y-122504370D01*
X165233326Y-122876297D01*
X165598301Y-123281158D01*
X166090428Y-123515531D01*
X166306500Y-123393776D01*
X166306500Y-122288300D01*
X165201780Y-122288300D01*
X165079280Y-122504370D01*
X147090682Y-122504370D01*
X147364769Y-122274119D01*
X147601761Y-121818230D01*
X165079280Y-121818230D01*
X165201780Y-122034300D01*
X166306500Y-122034300D01*
X166306500Y-120928824D01*
X166090428Y-120807069D01*
X165598301Y-121041442D01*
X165233326Y-121446303D01*
X165079280Y-121818230D01*
X147601761Y-121818230D01*
X147641875Y-121741065D01*
X147654436Y-121675780D01*
X147533778Y-121438040D01*
X146090400Y-121438040D01*
X145836400Y-121438040D01*
X144393022Y-121438040D01*
X144272364Y-121675780D01*
X140688656Y-121675780D01*
X140231079Y-121217404D01*
X139409919Y-120876429D01*
X138520781Y-120875653D01*
X137699028Y-121215195D01*
X137069764Y-121843361D01*
X136728789Y-122664521D01*
X136728013Y-123553659D01*
X127507200Y-123553659D01*
X127507200Y-111237419D01*
X136677213Y-111237419D01*
X137016755Y-112059172D01*
X137635307Y-112678805D01*
X137069764Y-113243361D01*
X136728789Y-114064521D01*
X136728013Y-114953659D01*
X137067555Y-115775412D01*
X137695721Y-116404676D01*
X138516881Y-116745651D01*
X139406019Y-116746427D01*
X140227772Y-116406885D01*
X140323784Y-116311040D01*
X144194409Y-116311040D01*
X144311254Y-116898459D01*
X144644000Y-117396449D01*
X144890328Y-117561040D01*
X144644000Y-117725631D01*
X144311254Y-118223621D01*
X144194409Y-118811040D01*
X144311254Y-119398459D01*
X144644000Y-119896449D01*
X144897707Y-120065970D01*
X144562031Y-120347961D01*
X144284925Y-120881015D01*
X144272364Y-120946300D01*
X144393022Y-121184040D01*
X145836400Y-121184040D01*
X145836400Y-121164040D01*
X146090400Y-121164040D01*
X146090400Y-121184040D01*
X147533778Y-121184040D01*
X147654436Y-120946300D01*
X147641875Y-120881015D01*
X147364769Y-120347961D01*
X147029093Y-120065970D01*
X147282800Y-119896449D01*
X147615546Y-119398459D01*
X147732391Y-118811040D01*
X147615546Y-118223621D01*
X147282800Y-117725631D01*
X147036472Y-117561040D01*
X147282800Y-117396449D01*
X147615546Y-116898459D01*
X147732391Y-116311040D01*
X147615546Y-115723621D01*
X147282800Y-115225631D01*
X146784810Y-114892885D01*
X146197391Y-114776040D01*
X145729409Y-114776040D01*
X145141990Y-114892885D01*
X144644000Y-115225631D01*
X144311254Y-115723621D01*
X144194409Y-116311040D01*
X140323784Y-116311040D01*
X140857036Y-115778719D01*
X141198011Y-114957559D01*
X141198787Y-114068421D01*
X141113369Y-113861694D01*
X149749226Y-113861694D01*
X149997538Y-114462655D01*
X150278980Y-114744589D01*
X149999154Y-115023927D01*
X149749794Y-115624453D01*
X149749226Y-116274694D01*
X149997538Y-116875655D01*
X150456927Y-117335846D01*
X151057453Y-117585206D01*
X151707694Y-117585774D01*
X152308655Y-117337462D01*
X152768846Y-116878073D01*
X153018206Y-116277547D01*
X153018774Y-115627306D01*
X152770462Y-115026345D01*
X152489020Y-114744411D01*
X152768846Y-114465073D01*
X153018206Y-113864547D01*
X153018774Y-113214306D01*
X152770462Y-112613345D01*
X152410256Y-112252510D01*
X152796786Y-111866653D01*
X153046146Y-111266127D01*
X153046714Y-110615886D01*
X152798402Y-110014925D01*
X152442347Y-109658249D01*
X152796786Y-109304428D01*
X153046146Y-108703902D01*
X153046714Y-108053661D01*
X152798402Y-107452700D01*
X152388373Y-107041955D01*
X152796786Y-106634253D01*
X153046146Y-106033727D01*
X153046714Y-105383486D01*
X152798402Y-104782525D01*
X152339013Y-104322334D01*
X151738487Y-104072974D01*
X151088246Y-104072406D01*
X150487285Y-104320718D01*
X150027094Y-104780107D01*
X149777734Y-105380633D01*
X149777166Y-106030874D01*
X150025478Y-106631835D01*
X150435507Y-107042580D01*
X150027094Y-107450282D01*
X149777734Y-108050808D01*
X149777166Y-108701049D01*
X150025478Y-109302010D01*
X150381533Y-109658686D01*
X150027094Y-110012507D01*
X149777734Y-110613033D01*
X149777166Y-111263274D01*
X150025478Y-111864235D01*
X150385684Y-112225070D01*
X149999154Y-112610927D01*
X149749794Y-113211453D01*
X149749226Y-113861694D01*
X141113369Y-113861694D01*
X140859245Y-113246668D01*
X140240693Y-112627035D01*
X140806236Y-112062479D01*
X141147211Y-111241319D01*
X141147987Y-110352181D01*
X140808445Y-109530428D01*
X140637856Y-109359540D01*
X144221564Y-109359540D01*
X144234125Y-109424825D01*
X144511231Y-109957879D01*
X144971234Y-110344313D01*
X145544103Y-110525296D01*
X145785600Y-110374062D01*
X145785600Y-109121800D01*
X146039600Y-109121800D01*
X146039600Y-110374062D01*
X146281097Y-110525296D01*
X146853966Y-110344313D01*
X147313969Y-109957879D01*
X147591075Y-109424825D01*
X147603636Y-109359540D01*
X147482978Y-109121800D01*
X146039600Y-109121800D01*
X145785600Y-109121800D01*
X144342222Y-109121800D01*
X144221564Y-109359540D01*
X140637856Y-109359540D01*
X140180279Y-108901164D01*
X139359119Y-108560189D01*
X138469981Y-108559413D01*
X137648228Y-108898955D01*
X137018964Y-109527121D01*
X136677989Y-110348281D01*
X136677213Y-111237419D01*
X127507200Y-111237419D01*
X127507200Y-102637419D01*
X136677213Y-102637419D01*
X137016755Y-103459172D01*
X137644921Y-104088436D01*
X138466081Y-104429411D01*
X139355219Y-104430187D01*
X140176972Y-104090645D01*
X140272984Y-103994800D01*
X144143609Y-103994800D01*
X144260454Y-104582219D01*
X144593200Y-105080209D01*
X144839528Y-105244800D01*
X144593200Y-105409391D01*
X144260454Y-105907381D01*
X144143609Y-106494800D01*
X144260454Y-107082219D01*
X144593200Y-107580209D01*
X144846907Y-107749730D01*
X144511231Y-108031721D01*
X144234125Y-108564775D01*
X144221564Y-108630060D01*
X144342222Y-108867800D01*
X145785600Y-108867800D01*
X145785600Y-108847800D01*
X146039600Y-108847800D01*
X146039600Y-108867800D01*
X147482978Y-108867800D01*
X147603636Y-108630060D01*
X147591075Y-108564775D01*
X147313969Y-108031721D01*
X146978293Y-107749730D01*
X147232000Y-107580209D01*
X147564746Y-107082219D01*
X147681591Y-106494800D01*
X147564746Y-105907381D01*
X147232000Y-105409391D01*
X146985672Y-105244800D01*
X147232000Y-105080209D01*
X147564746Y-104582219D01*
X147681591Y-103994800D01*
X147564746Y-103407381D01*
X147232000Y-102909391D01*
X146734010Y-102576645D01*
X146146591Y-102459800D01*
X145678609Y-102459800D01*
X145091190Y-102576645D01*
X144593200Y-102909391D01*
X144260454Y-103407381D01*
X144143609Y-103994800D01*
X140272984Y-103994800D01*
X140806236Y-103462479D01*
X141147211Y-102641319D01*
X141147987Y-101752181D01*
X140808445Y-100930428D01*
X140180279Y-100301164D01*
X139359119Y-99960189D01*
X138469981Y-99959413D01*
X137648228Y-100298955D01*
X137018964Y-100927121D01*
X136677989Y-101748281D01*
X136677213Y-102637419D01*
X127507200Y-102637419D01*
X127507200Y-89595827D01*
X127835397Y-89924598D01*
X128436112Y-90174036D01*
X129086555Y-90174604D01*
X129687703Y-89926214D01*
X130148038Y-89466683D01*
X130397476Y-88865968D01*
X130398044Y-88215525D01*
X130149654Y-87614377D01*
X129690123Y-87154042D01*
X129089408Y-86904604D01*
X128438965Y-86904036D01*
X127837817Y-87152426D01*
X127507200Y-87482466D01*
X127507200Y-84962200D01*
X141311472Y-84962200D01*
X140942060Y-85114838D01*
X140942060Y-85114838D01*
G37*
X140942060Y-85114838D02*
X140316315Y-85739491D01*
X139977247Y-86556058D01*
X139976475Y-87440223D01*
X140314118Y-88257380D01*
X140364830Y-88308181D01*
X138874592Y-88308181D01*
X138441192Y-87874781D01*
X138136299Y-87671058D01*
X137776653Y-87599520D01*
X137734503Y-87599520D01*
X137289803Y-87154042D01*
X136689088Y-86904604D01*
X136038645Y-86904036D01*
X135437497Y-87152426D01*
X134977162Y-87611957D01*
X134727724Y-88212672D01*
X134727156Y-88863115D01*
X134975546Y-89464263D01*
X135435077Y-89924598D01*
X136035792Y-90174036D01*
X136686235Y-90174604D01*
X137287383Y-89926214D01*
X137561165Y-89652910D01*
X137820775Y-89912520D01*
X138125668Y-90116243D01*
X138485314Y-90187781D01*
X140968623Y-90187781D01*
X140833869Y-90389454D01*
X140736036Y-90881294D01*
X140833869Y-91373134D01*
X141051353Y-91698623D01*
X140946733Y-91765944D01*
X140801743Y-91978144D01*
X140750734Y-92230034D01*
X140750734Y-93530514D01*
X140795012Y-93765831D01*
X140934084Y-93981955D01*
X141052447Y-94062829D01*
X140833869Y-94389954D01*
X140736036Y-94881794D01*
X140833869Y-95373634D01*
X141112474Y-95790596D01*
X141248198Y-95881284D01*
X141112474Y-95971972D01*
X140833869Y-96388934D01*
X140736036Y-96880774D01*
X140833869Y-97372614D01*
X141112474Y-97789576D01*
X141529436Y-98068181D01*
X142021276Y-98166014D01*
X142275552Y-98166014D01*
X142767392Y-98068181D01*
X143184354Y-97789576D01*
X143462959Y-97372614D01*
X143468858Y-97342960D01*
X144180648Y-97342960D01*
X144528567Y-97691486D01*
X145129093Y-97940846D01*
X145779334Y-97941414D01*
X146380295Y-97693102D01*
X146840486Y-97233713D01*
X147089846Y-96633187D01*
X147090414Y-95982946D01*
X146842102Y-95381985D01*
X146452710Y-94991913D01*
X146840486Y-94604813D01*
X147089846Y-94004287D01*
X147090414Y-93354046D01*
X146842102Y-92753085D01*
X146480654Y-92391006D01*
X146835406Y-92036873D01*
X147084766Y-91436347D01*
X147085334Y-90786106D01*
X146838111Y-90187781D01*
X154175459Y-90187781D01*
X154231897Y-90176555D01*
X154225714Y-90182727D01*
X153976354Y-90783253D01*
X153975786Y-91433494D01*
X154224098Y-92034455D01*
X154585546Y-92396534D01*
X154230794Y-92750667D01*
X153981434Y-93351193D01*
X153980866Y-94001434D01*
X154229178Y-94602395D01*
X154618570Y-94992467D01*
X154230794Y-95379567D01*
X153981434Y-95980093D01*
X153980866Y-96630334D01*
X154229178Y-97231295D01*
X154688567Y-97691486D01*
X155289093Y-97940846D01*
X155939334Y-97941414D01*
X156540295Y-97693102D01*
X156891048Y-97342960D01*
X157180280Y-97342960D01*
X157539926Y-97271422D01*
X157844819Y-97067699D01*
X165987578Y-88924940D01*
X166075360Y-88942401D01*
X166609969Y-88836061D01*
X167063188Y-88533229D01*
X167345360Y-88110930D01*
X167627532Y-88533229D01*
X167726360Y-88599264D01*
X167726360Y-90020204D01*
X160081163Y-97665401D01*
X159943800Y-97638078D01*
X159467512Y-97732818D01*
X159063735Y-98002613D01*
X158793940Y-98406390D01*
X158699200Y-98882678D01*
X158699200Y-99237322D01*
X158793940Y-99713610D01*
X159063735Y-100117387D01*
X159381933Y-100330000D01*
X159063735Y-100542613D01*
X158793940Y-100946390D01*
X158699200Y-101422678D01*
X158699200Y-101777322D01*
X158793940Y-102253610D01*
X159054800Y-102644015D01*
X159054800Y-104079040D01*
X159122471Y-104419246D01*
X159315182Y-104707658D01*
X159952528Y-105345004D01*
X159937734Y-105380633D01*
X159937166Y-106030874D01*
X160185478Y-106631835D01*
X160595507Y-107042580D01*
X160187094Y-107450282D01*
X159937734Y-108050808D01*
X159937166Y-108701049D01*
X160185478Y-109302010D01*
X160541533Y-109658686D01*
X160187094Y-110012507D01*
X159937734Y-110613033D01*
X159937166Y-111263274D01*
X160185478Y-111864235D01*
X160545684Y-112225070D01*
X160159154Y-112610927D01*
X159909794Y-113211453D01*
X159909226Y-113861694D01*
X160157538Y-114462655D01*
X160438980Y-114744589D01*
X160159154Y-115023927D01*
X159909794Y-115624453D01*
X159909226Y-116274694D01*
X160157538Y-116875655D01*
X160616927Y-117335846D01*
X161217453Y-117585206D01*
X161867694Y-117585774D01*
X162468655Y-117337462D01*
X162928846Y-116878073D01*
X162944655Y-116840000D01*
X168594530Y-116840000D01*
X168934736Y-116772329D01*
X169223148Y-116579618D01*
X169909072Y-115893694D01*
X173625226Y-115893694D01*
X173873538Y-116494655D01*
X174332927Y-116954846D01*
X174933453Y-117204206D01*
X175583694Y-117204774D01*
X176184655Y-116956462D01*
X176644846Y-116497073D01*
X176894206Y-115896547D01*
X176894774Y-115246306D01*
X176646462Y-114645345D01*
X176187073Y-114185154D01*
X175586547Y-113935794D01*
X174936306Y-113935226D01*
X174335345Y-114183538D01*
X173875154Y-114642927D01*
X173625794Y-115243453D01*
X173625226Y-115893694D01*
X169909072Y-115893694D01*
X175740031Y-110062735D01*
X175747340Y-110099478D01*
X176050172Y-110552697D01*
X176503391Y-110855529D01*
X177038000Y-110961869D01*
X177572609Y-110855529D01*
X178025828Y-110552697D01*
X178308000Y-110130398D01*
X178590172Y-110552697D01*
X179043391Y-110855529D01*
X179578000Y-110961869D01*
X180112609Y-110855529D01*
X180565828Y-110552697D01*
X180868287Y-110100036D01*
X180998142Y-110372699D01*
X181403003Y-110737674D01*
X181774930Y-110891720D01*
X181991000Y-110769220D01*
X181991000Y-109664500D01*
X182245000Y-109664500D01*
X182245000Y-110769220D01*
X182461070Y-110891720D01*
X182832997Y-110737674D01*
X183237858Y-110372699D01*
X183472231Y-109880572D01*
X183350476Y-109664500D01*
X182245000Y-109664500D01*
X181991000Y-109664500D01*
X181971000Y-109664500D01*
X181971000Y-109410500D01*
X181991000Y-109410500D01*
X181991000Y-108305780D01*
X182245000Y-108305780D01*
X182245000Y-109410500D01*
X183350476Y-109410500D01*
X183472231Y-109194428D01*
X183237858Y-108702301D01*
X182832997Y-108337326D01*
X182461070Y-108183280D01*
X182245000Y-108305780D01*
X181991000Y-108305780D01*
X181774930Y-108183280D01*
X181403003Y-108337326D01*
X180998142Y-108702301D01*
X180868287Y-108974964D01*
X180565828Y-108522303D01*
X180112609Y-108219471D01*
X179578000Y-108113131D01*
X179043391Y-108219471D01*
X178590172Y-108522303D01*
X178308000Y-108944602D01*
X178025828Y-108522303D01*
X177579015Y-108223751D01*
X178206025Y-107596741D01*
X189062118Y-107596741D01*
X189274350Y-108110383D01*
X189666990Y-108503709D01*
X189874872Y-108590029D01*
X189669057Y-108675070D01*
X189275731Y-109067710D01*
X189062603Y-109580980D01*
X189062118Y-110136741D01*
X189274350Y-110650383D01*
X189666990Y-111043709D01*
X189874872Y-111130029D01*
X189669057Y-111215070D01*
X189275731Y-111607710D01*
X189062603Y-112120980D01*
X189062118Y-112676741D01*
X189274350Y-113190383D01*
X189666990Y-113583709D01*
X190180260Y-113796837D01*
X190736021Y-113797322D01*
X191249663Y-113585090D01*
X191642989Y-113192450D01*
X191729309Y-112984568D01*
X191814350Y-113190383D01*
X192206990Y-113583709D01*
X192720260Y-113796837D01*
X193276021Y-113797322D01*
X193789663Y-113585090D01*
X194182989Y-113192450D01*
X194396117Y-112679180D01*
X194396602Y-112123419D01*
X194184370Y-111609777D01*
X193791730Y-111216451D01*
X193583848Y-111130131D01*
X193789663Y-111045090D01*
X194182989Y-110652450D01*
X194396117Y-110139180D01*
X194396602Y-109583419D01*
X194184370Y-109069777D01*
X193791730Y-108676451D01*
X193583848Y-108590131D01*
X193789663Y-108505090D01*
X194182989Y-108112450D01*
X194396117Y-107599180D01*
X194396602Y-107043419D01*
X194184370Y-106529777D01*
X193791730Y-106136451D01*
X193278460Y-105923323D01*
X192722699Y-105922838D01*
X192209057Y-106135070D01*
X191815731Y-106527710D01*
X191729411Y-106735592D01*
X191644370Y-106529777D01*
X191251730Y-106136451D01*
X190738460Y-105923323D01*
X190182699Y-105922838D01*
X189669057Y-106135070D01*
X189275731Y-106527710D01*
X189062603Y-107040980D01*
X189062118Y-107596741D01*
X178206025Y-107596741D01*
X183452445Y-102350321D01*
X185827915Y-102350321D01*
X185940428Y-102518708D01*
X186344205Y-102788503D01*
X186820493Y-102883243D01*
X187296781Y-102788503D01*
X187700558Y-102518708D01*
X187970353Y-102114931D01*
X188065093Y-101638643D01*
X188065093Y-101283999D01*
X187970353Y-100807711D01*
X187700558Y-100403934D01*
X187382360Y-100191321D01*
X187700558Y-99978708D01*
X187970353Y-99574931D01*
X188065093Y-99098643D01*
X188065093Y-98743999D01*
X187970353Y-98267711D01*
X187700558Y-97863934D01*
X187296781Y-97594139D01*
X186820493Y-97499399D01*
X186683130Y-97526722D01*
X183728360Y-94571952D01*
X183728360Y-88599264D01*
X183827188Y-88533229D01*
X184109360Y-88110930D01*
X184391532Y-88533229D01*
X184844751Y-88836061D01*
X185379360Y-88942401D01*
X185913969Y-88836061D01*
X186367188Y-88533229D01*
X186649360Y-88110930D01*
X186931532Y-88533229D01*
X187384751Y-88836061D01*
X187919360Y-88942401D01*
X188453969Y-88836061D01*
X188907188Y-88533229D01*
X189189360Y-88110930D01*
X189471532Y-88533229D01*
X189924751Y-88836061D01*
X190459360Y-88942401D01*
X190993969Y-88836061D01*
X191447188Y-88533229D01*
X191750020Y-88080010D01*
X191856360Y-87545401D01*
X191856360Y-86454759D01*
X191750020Y-85920150D01*
X191447188Y-85466931D01*
X190993969Y-85164099D01*
X190459360Y-85057759D01*
X189924751Y-85164099D01*
X189471532Y-85466931D01*
X189189360Y-85889230D01*
X188907188Y-85466931D01*
X188453969Y-85164099D01*
X187919360Y-85057759D01*
X187384751Y-85164099D01*
X186931532Y-85466931D01*
X186649360Y-85889230D01*
X186367188Y-85466931D01*
X185913969Y-85164099D01*
X185379360Y-85057759D01*
X184844751Y-85164099D01*
X184391532Y-85466931D01*
X184109360Y-85889230D01*
X183827188Y-85466931D01*
X183373969Y-85164099D01*
X182839360Y-85057759D01*
X182304751Y-85164099D01*
X181851532Y-85466931D01*
X181569360Y-85889230D01*
X181287188Y-85466931D01*
X180833969Y-85164099D01*
X180299360Y-85057759D01*
X179764751Y-85164099D01*
X179311532Y-85466931D01*
X179029360Y-85889230D01*
X178747188Y-85466931D01*
X178293969Y-85164099D01*
X177759360Y-85057759D01*
X177224751Y-85164099D01*
X176771532Y-85466931D01*
X176489360Y-85889230D01*
X176207188Y-85466931D01*
X175753969Y-85164099D01*
X175219360Y-85057759D01*
X174684751Y-85164099D01*
X174231532Y-85466931D01*
X173949360Y-85889230D01*
X173667188Y-85466931D01*
X173213969Y-85164099D01*
X172679360Y-85057759D01*
X172144751Y-85164099D01*
X171691532Y-85466931D01*
X171388700Y-85920150D01*
X171282360Y-86454759D01*
X171282360Y-87545401D01*
X171388700Y-88080010D01*
X171691532Y-88533229D01*
X171790360Y-88599264D01*
X171790360Y-92763404D01*
X166888363Y-97665401D01*
X166751000Y-97638078D01*
X166274712Y-97732818D01*
X165870935Y-98002613D01*
X165601140Y-98406390D01*
X165506400Y-98882678D01*
X165506400Y-99237322D01*
X165601140Y-99713610D01*
X165870935Y-100117387D01*
X166189133Y-100330000D01*
X165870935Y-100542613D01*
X165601140Y-100946390D01*
X165506400Y-101422678D01*
X165506400Y-101777322D01*
X165601140Y-102253610D01*
X165862000Y-102644015D01*
X165862000Y-102830059D01*
X163206625Y-105485434D01*
X163206714Y-105383486D01*
X162958402Y-104782525D01*
X162499013Y-104322334D01*
X161898487Y-104072974D01*
X161248246Y-104072406D01*
X161210145Y-104088149D01*
X160832800Y-103710804D01*
X160832800Y-102644015D01*
X161093660Y-102253610D01*
X161188400Y-101777322D01*
X161188400Y-101422678D01*
X161093660Y-100946390D01*
X160823865Y-100542613D01*
X160505667Y-100330000D01*
X160823865Y-100117387D01*
X161093660Y-99713610D01*
X161188400Y-99237322D01*
X161188400Y-99072636D01*
X169243978Y-91017058D01*
X169436689Y-90728646D01*
X169504360Y-90388440D01*
X169504360Y-88599264D01*
X169603188Y-88533229D01*
X169906020Y-88080010D01*
X170012360Y-87545401D01*
X170012360Y-86454759D01*
X169906020Y-85920150D01*
X169603188Y-85466931D01*
X169149969Y-85164099D01*
X168615360Y-85057759D01*
X168080751Y-85164099D01*
X167627532Y-85466931D01*
X167345360Y-85889230D01*
X167063188Y-85466931D01*
X166609969Y-85164099D01*
X166075360Y-85057759D01*
X165540751Y-85164099D01*
X165087532Y-85466931D01*
X164805360Y-85889230D01*
X164523188Y-85466931D01*
X164069969Y-85164099D01*
X163535360Y-85057759D01*
X163000751Y-85164099D01*
X162547532Y-85466931D01*
X162265360Y-85889230D01*
X161983188Y-85466931D01*
X161529969Y-85164099D01*
X160995360Y-85057759D01*
X160460751Y-85164099D01*
X160007532Y-85466931D01*
X159725360Y-85889230D01*
X159443188Y-85466931D01*
X158989969Y-85164099D01*
X158455360Y-85057759D01*
X157920751Y-85164099D01*
X157467532Y-85466931D01*
X157185360Y-85889230D01*
X156903188Y-85466931D01*
X156449969Y-85164099D01*
X155915360Y-85057759D01*
X155380751Y-85164099D01*
X154927532Y-85466931D01*
X154645360Y-85889230D01*
X154363188Y-85466931D01*
X153909969Y-85164099D01*
X153375360Y-85057759D01*
X152840751Y-85164099D01*
X152387532Y-85466931D01*
X152105360Y-85889230D01*
X151823188Y-85466931D01*
X151369969Y-85164099D01*
X150835360Y-85057759D01*
X150300751Y-85164099D01*
X149847532Y-85466931D01*
X149565360Y-85889230D01*
X149283188Y-85466931D01*
X148829969Y-85164099D01*
X148295360Y-85057759D01*
X147760751Y-85164099D01*
X147307532Y-85466931D01*
X147025360Y-85889230D01*
X146743188Y-85466931D01*
X146289969Y-85164099D01*
X145755360Y-85057759D01*
X145220751Y-85164099D01*
X144767532Y-85466931D01*
X144464700Y-85920150D01*
X144364998Y-86421388D01*
X144084602Y-85742780D01*
X143459949Y-85117035D01*
X143087065Y-84962200D01*
X191511664Y-84962200D01*
X192482000Y-85932536D01*
X192482000Y-97078800D01*
X192534143Y-97340938D01*
X192682632Y-97563168D01*
X194996600Y-99877136D01*
X194996600Y-101253835D01*
X194884602Y-100982780D01*
X194259949Y-100357035D01*
X193443382Y-100017967D01*
X192559217Y-100017195D01*
X191742060Y-100354838D01*
X191116315Y-100979491D01*
X190777247Y-101796058D01*
X190776475Y-102680223D01*
X191114118Y-103497380D01*
X191738771Y-104123125D01*
X192555338Y-104462193D01*
X193439503Y-104462965D01*
X194256660Y-104125322D01*
X194882405Y-103500669D01*
X194996600Y-103225657D01*
X194996600Y-129193835D01*
X194884602Y-128922780D01*
X194259949Y-128297035D01*
X193443382Y-127957967D01*
X192559217Y-127957195D01*
X191742060Y-128294838D01*
X191348360Y-128687851D01*
X191348360Y-128207466D01*
X191823978Y-128112860D01*
X192277197Y-127810028D01*
X192580029Y-127356809D01*
X192686369Y-126822200D01*
X192580029Y-126287591D01*
X192277197Y-125834372D01*
X191823978Y-125531540D01*
X191289369Y-125425200D01*
X191234631Y-125425200D01*
X191140883Y-125443847D01*
X190500000Y-124802964D01*
X190500000Y-123455719D01*
X190918928Y-123655231D01*
X191135000Y-123533476D01*
X191135000Y-122428000D01*
X191389000Y-122428000D01*
X191389000Y-123533476D01*
X191605072Y-123655231D01*
X192097199Y-123420858D01*
X192462174Y-123015997D01*
X192616220Y-122644070D01*
X192493720Y-122428000D01*
X191389000Y-122428000D01*
X191135000Y-122428000D01*
X191115000Y-122428000D01*
X191115000Y-122174000D01*
X191135000Y-122174000D01*
X191135000Y-121068524D01*
X191389000Y-121068524D01*
X191389000Y-122174000D01*
X192493720Y-122174000D01*
X192616220Y-121957930D01*
X192462174Y-121586003D01*
X192097199Y-121181142D01*
X191605072Y-120946769D01*
X191389000Y-121068524D01*
X191135000Y-121068524D01*
X190918928Y-120946769D01*
X190500000Y-121146281D01*
X190500000Y-120527194D01*
X190535655Y-120512462D01*
X190995846Y-120053073D01*
X191245206Y-119452547D01*
X191245774Y-118802306D01*
X190997462Y-118201345D01*
X190538073Y-117741154D01*
X189937547Y-117491794D01*
X189287306Y-117491226D01*
X188686345Y-117739538D01*
X188226154Y-118198927D01*
X187976794Y-118799453D01*
X187976226Y-119449694D01*
X188224538Y-120050655D01*
X188683927Y-120510846D01*
X188722000Y-120526655D01*
X188722000Y-125171200D01*
X188789671Y-125511406D01*
X188883015Y-125651105D01*
X188982382Y-125799818D01*
X189865360Y-126682796D01*
X189837631Y-126822200D01*
X189865360Y-126961604D01*
X189830742Y-126996222D01*
X189638031Y-127284634D01*
X189570360Y-127624840D01*
X189570360Y-128155764D01*
X187608178Y-126193582D01*
X187319766Y-126000871D01*
X186979560Y-125933200D01*
X185840832Y-125933200D01*
X185774797Y-125834372D01*
X185321578Y-125531540D01*
X184786969Y-125425200D01*
X184732231Y-125425200D01*
X184197622Y-125531540D01*
X183858346Y-125758237D01*
X183929930Y-125651105D01*
X183997601Y-125310899D01*
X183997601Y-123455719D01*
X184416528Y-123655231D01*
X184632600Y-123533476D01*
X184632600Y-122428000D01*
X184886600Y-122428000D01*
X184886600Y-123533476D01*
X185102672Y-123655231D01*
X185594799Y-123420858D01*
X185959774Y-123015997D01*
X186113820Y-122644070D01*
X185991320Y-122428000D01*
X184886600Y-122428000D01*
X184632600Y-122428000D01*
X184612600Y-122428000D01*
X184612600Y-122174000D01*
X184632600Y-122174000D01*
X184632600Y-121068524D01*
X184886600Y-121068524D01*
X184886600Y-122174000D01*
X185991320Y-122174000D01*
X186113820Y-121957930D01*
X185959774Y-121586003D01*
X185594799Y-121181142D01*
X185102672Y-120946769D01*
X184886600Y-121068524D01*
X184632600Y-121068524D01*
X184416528Y-120946769D01*
X183997601Y-121146281D01*
X183997601Y-118249635D01*
X185057824Y-117189412D01*
X185093453Y-117204206D01*
X185743694Y-117204774D01*
X186344655Y-116956462D01*
X186804846Y-116497073D01*
X187054206Y-115896547D01*
X187054774Y-115246306D01*
X186806462Y-114645345D01*
X186347073Y-114185154D01*
X185746547Y-113935794D01*
X185096306Y-113935226D01*
X184495345Y-114183538D01*
X184035154Y-114642927D01*
X183785794Y-115243453D01*
X183785226Y-115893694D01*
X183800969Y-115931795D01*
X182479983Y-117252781D01*
X182287272Y-117541193D01*
X182219601Y-117881399D01*
X182219601Y-120873519D01*
X182080072Y-120807069D01*
X181864000Y-120928824D01*
X181864000Y-122034300D01*
X181884000Y-122034300D01*
X181884000Y-122288300D01*
X181864000Y-122288300D01*
X181864000Y-123393776D01*
X182080072Y-123515531D01*
X182219601Y-123449081D01*
X182219601Y-124942663D01*
X181858117Y-125304147D01*
X181764369Y-125285500D01*
X181709631Y-125285500D01*
X181175022Y-125391840D01*
X180721803Y-125694672D01*
X180655768Y-125793500D01*
X176315832Y-125793500D01*
X176249797Y-125694672D01*
X175796578Y-125391840D01*
X175261969Y-125285500D01*
X175207231Y-125285500D01*
X174672622Y-125391840D01*
X174219403Y-125694672D01*
X174085250Y-125895446D01*
X173951097Y-125694672D01*
X173497878Y-125391840D01*
X172963269Y-125285500D01*
X172908531Y-125285500D01*
X172373922Y-125391840D01*
X171920703Y-125694672D01*
X171854668Y-125793500D01*
X168531285Y-125793500D01*
X168626430Y-125651105D01*
X168694101Y-125310899D01*
X168694101Y-122504370D01*
X171581680Y-122504370D01*
X171735726Y-122876297D01*
X172100701Y-123281158D01*
X172592828Y-123515531D01*
X172808900Y-123393776D01*
X172808900Y-122288300D01*
X173062900Y-122288300D01*
X173062900Y-123393776D01*
X173278972Y-123515531D01*
X173771099Y-123281158D01*
X174085250Y-122932675D01*
X174399401Y-123281158D01*
X174891528Y-123515531D01*
X175107600Y-123393776D01*
X175107600Y-122288300D01*
X175361600Y-122288300D01*
X175361600Y-123393776D01*
X175577672Y-123515531D01*
X176069799Y-123281158D01*
X176434774Y-122876297D01*
X176588820Y-122504370D01*
X180382780Y-122504370D01*
X180536826Y-122876297D01*
X180901801Y-123281158D01*
X181393928Y-123515531D01*
X181610000Y-123393776D01*
X181610000Y-122288300D01*
X180505280Y-122288300D01*
X180382780Y-122504370D01*
X176588820Y-122504370D01*
X176466320Y-122288300D01*
X175361600Y-122288300D01*
X175107600Y-122288300D01*
X173062900Y-122288300D01*
X172808900Y-122288300D01*
X171704180Y-122288300D01*
X171581680Y-122504370D01*
X168694101Y-122504370D01*
X168694101Y-121818230D01*
X171581680Y-121818230D01*
X171704180Y-122034300D01*
X172808900Y-122034300D01*
X172808900Y-120928824D01*
X173062900Y-120928824D01*
X173062900Y-122034300D01*
X175107600Y-122034300D01*
X175107600Y-120928824D01*
X175361600Y-120928824D01*
X175361600Y-122034300D01*
X176466320Y-122034300D01*
X176588820Y-121818230D01*
X180382780Y-121818230D01*
X180505280Y-122034300D01*
X181610000Y-122034300D01*
X181610000Y-120928824D01*
X181393928Y-120807069D01*
X180901801Y-121041442D01*
X180536826Y-121446303D01*
X180382780Y-121818230D01*
X176588820Y-121818230D01*
X176434774Y-121446303D01*
X176069799Y-121041442D01*
X175577672Y-120807069D01*
X175361600Y-120928824D01*
X175107600Y-120928824D01*
X174891528Y-120807069D01*
X174399401Y-121041442D01*
X174085250Y-121389925D01*
X173771099Y-121041442D01*
X173278972Y-120807069D01*
X173062900Y-120928824D01*
X172808900Y-120928824D01*
X172592828Y-120807069D01*
X172100701Y-121041442D01*
X171735726Y-121446303D01*
X171581680Y-121818230D01*
X168694101Y-121818230D01*
X168694101Y-120364269D01*
X168626430Y-120024063D01*
X168433719Y-119735651D01*
X168020762Y-119322694D01*
X173551566Y-119322694D01*
X173799878Y-119923655D01*
X174259267Y-120383846D01*
X174859793Y-120633206D01*
X175510034Y-120633774D01*
X176110995Y-120385462D01*
X176571186Y-119926073D01*
X176768995Y-119449694D01*
X177816226Y-119449694D01*
X178064538Y-120050655D01*
X178523927Y-120510846D01*
X179124453Y-120760206D01*
X179774694Y-120760774D01*
X180375655Y-120512462D01*
X180835846Y-120053073D01*
X181085206Y-119452547D01*
X181085774Y-118802306D01*
X180837462Y-118201345D01*
X180378073Y-117741154D01*
X179777547Y-117491794D01*
X179127306Y-117491226D01*
X178526345Y-117739538D01*
X178066154Y-118198927D01*
X177816794Y-118799453D01*
X177816226Y-119449694D01*
X176768995Y-119449694D01*
X176820546Y-119325547D01*
X176821114Y-118675306D01*
X176572802Y-118074345D01*
X176113413Y-117614154D01*
X175512887Y-117364794D01*
X174862646Y-117364226D01*
X174261685Y-117612538D01*
X173801494Y-118071927D01*
X173552134Y-118672453D01*
X173551566Y-119322694D01*
X168020762Y-119322694D01*
X167068450Y-118370382D01*
X166780038Y-118177671D01*
X166439832Y-118110000D01*
X166427534Y-118110000D01*
X166412802Y-118074345D01*
X165953413Y-117614154D01*
X165352887Y-117364794D01*
X164702646Y-117364226D01*
X164101685Y-117612538D01*
X163641494Y-118071927D01*
X163392134Y-118672453D01*
X163391566Y-119322694D01*
X163639878Y-119923655D01*
X164099267Y-120383846D01*
X164699793Y-120633206D01*
X165350034Y-120633774D01*
X165950995Y-120385462D01*
X166260296Y-120076700D01*
X166916101Y-120732505D01*
X166916101Y-120873519D01*
X166776572Y-120807069D01*
X166560500Y-120928824D01*
X166560500Y-122034300D01*
X166580500Y-122034300D01*
X166580500Y-122288300D01*
X166560500Y-122288300D01*
X166560500Y-123393776D01*
X166776572Y-123515531D01*
X166916101Y-123449081D01*
X166916101Y-124942663D01*
X166554617Y-125304147D01*
X166460869Y-125285500D01*
X166406131Y-125285500D01*
X165871522Y-125391840D01*
X165418303Y-125694672D01*
X165115471Y-126147891D01*
X165009131Y-126682500D01*
X165115471Y-127217109D01*
X165418303Y-127670328D01*
X165871522Y-127973160D01*
X166406131Y-128079500D01*
X166460869Y-128079500D01*
X166995478Y-127973160D01*
X167448697Y-127670328D01*
X167514732Y-127571500D01*
X171854668Y-127571500D01*
X171920703Y-127670328D01*
X172373922Y-127973160D01*
X172908531Y-128079500D01*
X172963269Y-128079500D01*
X173057017Y-128060853D01*
X173894782Y-128898618D01*
X174183194Y-129091329D01*
X174523400Y-129159000D01*
X178529044Y-129159000D01*
X182712948Y-133342904D01*
X182304751Y-133424099D01*
X181851532Y-133726931D01*
X181569360Y-134149230D01*
X181287188Y-133726931D01*
X180833969Y-133424099D01*
X180299360Y-133317759D01*
X179764751Y-133424099D01*
X179311532Y-133726931D01*
X179029360Y-134149230D01*
X178747188Y-133726931D01*
X178293969Y-133424099D01*
X177759360Y-133317759D01*
X177224751Y-133424099D01*
X176771532Y-133726931D01*
X176468700Y-134180150D01*
X176362360Y-134714759D01*
X176362360Y-135805401D01*
X176468700Y-136340010D01*
X176771532Y-136793229D01*
X177224751Y-137096061D01*
X177759360Y-137202401D01*
X178293969Y-137096061D01*
X178747188Y-136793229D01*
X179029360Y-136370930D01*
X179311532Y-136793229D01*
X179764751Y-137096061D01*
X180299360Y-137202401D01*
X180833969Y-137096061D01*
X181287188Y-136793229D01*
X181569360Y-136370930D01*
X181851532Y-136793229D01*
X182304751Y-137096061D01*
X182839360Y-137202401D01*
X183373969Y-137096061D01*
X183827188Y-136793229D01*
X184109360Y-136370930D01*
X184391532Y-136793229D01*
X184844751Y-137096061D01*
X185379360Y-137202401D01*
X185913969Y-137096061D01*
X186367188Y-136793229D01*
X186649360Y-136370930D01*
X186931532Y-136793229D01*
X187384751Y-137096061D01*
X187919360Y-137202401D01*
X188453969Y-137096061D01*
X188907188Y-136793229D01*
X189189360Y-136370930D01*
X189471532Y-136793229D01*
X189924751Y-137096061D01*
X190459360Y-137202401D01*
X190993969Y-137096061D01*
X191447188Y-136793229D01*
X191750020Y-136340010D01*
X191856360Y-135805401D01*
X191856360Y-134714759D01*
X191750020Y-134180150D01*
X191447188Y-133726931D01*
X191348360Y-133660896D01*
X191348360Y-131672031D01*
X191738771Y-132063125D01*
X192555338Y-132402193D01*
X193439503Y-132402965D01*
X194256660Y-132065322D01*
X194882405Y-131440669D01*
X194996600Y-131165657D01*
X194996600Y-132482064D01*
X192682632Y-134796032D01*
X192534143Y-135018262D01*
X192482000Y-135280400D01*
X192482000Y-137237000D01*
X141964783Y-137237000D01*
X142186660Y-137145322D01*
X142812405Y-136520669D01*
X143151473Y-135704102D01*
X143152245Y-134819937D01*
X142814602Y-134002780D01*
X142763890Y-133951979D01*
X153761159Y-133951979D01*
X153608700Y-134180150D01*
X153502360Y-134714759D01*
X153502360Y-135805401D01*
X153608700Y-136340010D01*
X153911532Y-136793229D01*
X154364751Y-137096061D01*
X154899360Y-137202401D01*
X155433969Y-137096061D01*
X155887188Y-136793229D01*
X156169360Y-136370930D01*
X156451532Y-136793229D01*
X156904751Y-137096061D01*
X157439360Y-137202401D01*
X157973969Y-137096061D01*
X158427188Y-136793229D01*
X158709360Y-136370930D01*
X158991532Y-136793229D01*
X159444751Y-137096061D01*
X159979360Y-137202401D01*
X160513969Y-137096061D01*
X160967188Y-136793229D01*
X161249360Y-136370930D01*
X161531532Y-136793229D01*
X161984751Y-137096061D01*
X162519360Y-137202401D01*
X163053969Y-137096061D01*
X163507188Y-136793229D01*
X163798690Y-136356967D01*
X163817301Y-136420021D01*
X164161334Y-136845710D01*
X164642083Y-137107340D01*
X164716290Y-137122300D01*
X164932360Y-136999800D01*
X164932360Y-135387080D01*
X164912360Y-135387080D01*
X164912360Y-135133080D01*
X164932360Y-135133080D01*
X164932360Y-133520360D01*
X165186360Y-133520360D01*
X165186360Y-135133080D01*
X165206360Y-135133080D01*
X165206360Y-135387080D01*
X165186360Y-135387080D01*
X165186360Y-136999800D01*
X165402430Y-137122300D01*
X165476637Y-137107340D01*
X165957386Y-136845710D01*
X166301419Y-136420021D01*
X166320030Y-136356967D01*
X166611532Y-136793229D01*
X167064751Y-137096061D01*
X167599360Y-137202401D01*
X168133969Y-137096061D01*
X168587188Y-136793229D01*
X168869360Y-136370930D01*
X169151532Y-136793229D01*
X169604751Y-137096061D01*
X170139360Y-137202401D01*
X170673969Y-137096061D01*
X171127188Y-136793229D01*
X171409360Y-136370930D01*
X171691532Y-136793229D01*
X172144751Y-137096061D01*
X172679360Y-137202401D01*
X173213969Y-137096061D01*
X173667188Y-136793229D01*
X173970020Y-136340010D01*
X174076360Y-135805401D01*
X174076360Y-134714759D01*
X173970020Y-134180150D01*
X173667188Y-133726931D01*
X173213969Y-133424099D01*
X172679360Y-133317759D01*
X172144751Y-133424099D01*
X171691532Y-133726931D01*
X171409360Y-134149230D01*
X171127188Y-133726931D01*
X170673969Y-133424099D01*
X170139360Y-133317759D01*
X169604751Y-133424099D01*
X169151532Y-133726931D01*
X168869360Y-134149230D01*
X168587188Y-133726931D01*
X168133969Y-133424099D01*
X167599360Y-133317759D01*
X167064751Y-133424099D01*
X166611532Y-133726931D01*
X166320030Y-134163193D01*
X166301419Y-134100139D01*
X165957386Y-133674450D01*
X165476637Y-133412820D01*
X165402430Y-133397860D01*
X165186360Y-133520360D01*
X164932360Y-133520360D01*
X164716290Y-133397860D01*
X164642083Y-133412820D01*
X164161334Y-133674450D01*
X163817301Y-134100139D01*
X163798690Y-134163193D01*
X163507188Y-133726931D01*
X163053969Y-133424099D01*
X162519360Y-133317759D01*
X161984751Y-133424099D01*
X161531532Y-133726931D01*
X161249360Y-134149230D01*
X160967188Y-133726931D01*
X160513969Y-133424099D01*
X159979360Y-133317759D01*
X159450837Y-133422888D01*
X158375589Y-132347640D01*
X158070696Y-132143917D01*
X157711050Y-132072379D01*
X138259821Y-132072379D01*
X137900175Y-132143917D01*
X137595282Y-132347640D01*
X135417794Y-134525128D01*
X135383969Y-134518400D01*
X135329231Y-134518400D01*
X134794622Y-134624740D01*
X134421579Y-134874000D01*
X129789221Y-134874000D01*
X129416178Y-134624740D01*
X128881569Y-134518400D01*
X128826831Y-134518400D01*
X128292222Y-134624740D01*
X127839003Y-134927572D01*
X127536171Y-135380791D01*
X127507200Y-135526439D01*
X127507200Y-131783161D01*
X127536171Y-131928809D01*
X127839003Y-132382028D01*
X128292222Y-132684860D01*
X128826831Y-132791200D01*
X128881569Y-132791200D01*
X129416178Y-132684860D01*
X129869397Y-132382028D01*
X130172229Y-131928809D01*
X130278569Y-131394200D01*
X133932231Y-131394200D01*
X134038571Y-131928809D01*
X134341403Y-132382028D01*
X134794622Y-132684860D01*
X135329231Y-132791200D01*
X135383969Y-132791200D01*
X135918578Y-132684860D01*
X136371797Y-132382028D01*
X136674629Y-131928809D01*
X136780969Y-131394200D01*
X136747433Y-131225605D01*
X136969527Y-131448086D01*
X137570053Y-131697446D01*
X138220294Y-131698014D01*
X138821255Y-131449702D01*
X139281446Y-130990313D01*
X139530806Y-130389787D01*
X139530808Y-130386934D01*
X146421826Y-130386934D01*
X146670138Y-130987895D01*
X147129527Y-131448086D01*
X147730053Y-131697446D01*
X148380294Y-131698014D01*
X148981255Y-131449702D01*
X149441446Y-130990313D01*
X149690806Y-130389787D01*
X149691374Y-129739546D01*
X149443062Y-129138585D01*
X149054913Y-128749759D01*
X149471926Y-128333473D01*
X149721286Y-127732947D01*
X149721854Y-127082706D01*
X149473542Y-126481745D01*
X149014153Y-126021554D01*
X148413627Y-125772194D01*
X147763386Y-125771626D01*
X147162425Y-126019938D01*
X146702234Y-126479327D01*
X146452874Y-127079853D01*
X146452306Y-127730094D01*
X146700618Y-128331055D01*
X147088767Y-128719881D01*
X146671754Y-129136167D01*
X146422394Y-129736693D01*
X146421826Y-130386934D01*
X139530808Y-130386934D01*
X139531374Y-129739546D01*
X139283062Y-129138585D01*
X138846793Y-128701555D01*
X138899637Y-128558563D01*
X137927080Y-127586005D01*
X136954523Y-128558563D01*
X136994731Y-128667363D01*
X136971945Y-128676778D01*
X136511754Y-129136167D01*
X136262394Y-129736693D01*
X136261873Y-130332923D01*
X135918578Y-130103540D01*
X135383969Y-129997200D01*
X135329231Y-129997200D01*
X134794622Y-130103540D01*
X134341403Y-130406372D01*
X134038571Y-130859591D01*
X133932231Y-131394200D01*
X130278569Y-131394200D01*
X130172229Y-130859591D01*
X129869397Y-130406372D01*
X129416178Y-130103540D01*
X128881569Y-129997200D01*
X128826831Y-129997200D01*
X128292222Y-130103540D01*
X127839003Y-130406372D01*
X127536171Y-130859591D01*
X127507200Y-131005239D01*
X127507200Y-127141982D01*
X136281679Y-127141982D01*
X136305739Y-127791777D01*
X136508115Y-128280358D01*
X136774917Y-128378957D01*
X137747475Y-127406400D01*
X138106685Y-127406400D01*
X139079243Y-128378957D01*
X139346045Y-128280358D01*
X139572481Y-127670818D01*
X139548421Y-127021023D01*
X139346045Y-126532442D01*
X139079243Y-126433843D01*
X138106685Y-127406400D01*
X137747475Y-127406400D01*
X136774917Y-126433843D01*
X136508115Y-126532442D01*
X136281679Y-127141982D01*
X127507200Y-127141982D01*
X127507200Y-126254237D01*
X136954523Y-126254237D01*
X137927080Y-127226795D01*
X138899637Y-126254237D01*
X138801038Y-125987435D01*
X138191498Y-125760999D01*
X137541703Y-125785059D01*
X137053122Y-125987435D01*
X136954523Y-126254237D01*
X127507200Y-126254237D01*
X127507200Y-123553659D01*
X136728013Y-123553659D01*
X137067555Y-124375412D01*
X137695721Y-125004676D01*
X138516881Y-125345651D01*
X139406019Y-125346427D01*
X140227772Y-125006885D01*
X140857036Y-124378719D01*
X141198011Y-123557559D01*
X141198787Y-122668421D01*
X140859245Y-121846668D01*
X140688656Y-121675780D01*
X144272364Y-121675780D01*
X144284925Y-121741065D01*
X144562031Y-122274119D01*
X145022034Y-122660553D01*
X145594903Y-122841536D01*
X145836400Y-122690302D01*
X145836400Y-121438040D01*
X146090400Y-121438040D01*
X146090400Y-122690302D01*
X146331897Y-122841536D01*
X146904766Y-122660553D01*
X147090682Y-122504370D01*
X165079280Y-122504370D01*
X165233326Y-122876297D01*
X165598301Y-123281158D01*
X166090428Y-123515531D01*
X166306500Y-123393776D01*
X166306500Y-122288300D01*
X165201780Y-122288300D01*
X165079280Y-122504370D01*
X147090682Y-122504370D01*
X147364769Y-122274119D01*
X147601761Y-121818230D01*
X165079280Y-121818230D01*
X165201780Y-122034300D01*
X166306500Y-122034300D01*
X166306500Y-120928824D01*
X166090428Y-120807069D01*
X165598301Y-121041442D01*
X165233326Y-121446303D01*
X165079280Y-121818230D01*
X147601761Y-121818230D01*
X147641875Y-121741065D01*
X147654436Y-121675780D01*
X147533778Y-121438040D01*
X146090400Y-121438040D01*
X145836400Y-121438040D01*
X144393022Y-121438040D01*
X144272364Y-121675780D01*
X140688656Y-121675780D01*
X140231079Y-121217404D01*
X139409919Y-120876429D01*
X138520781Y-120875653D01*
X137699028Y-121215195D01*
X137069764Y-121843361D01*
X136728789Y-122664521D01*
X136728013Y-123553659D01*
X127507200Y-123553659D01*
X127507200Y-111237419D01*
X136677213Y-111237419D01*
X137016755Y-112059172D01*
X137635307Y-112678805D01*
X137069764Y-113243361D01*
X136728789Y-114064521D01*
X136728013Y-114953659D01*
X137067555Y-115775412D01*
X137695721Y-116404676D01*
X138516881Y-116745651D01*
X139406019Y-116746427D01*
X140227772Y-116406885D01*
X140323784Y-116311040D01*
X144194409Y-116311040D01*
X144311254Y-116898459D01*
X144644000Y-117396449D01*
X144890328Y-117561040D01*
X144644000Y-117725631D01*
X144311254Y-118223621D01*
X144194409Y-118811040D01*
X144311254Y-119398459D01*
X144644000Y-119896449D01*
X144897707Y-120065970D01*
X144562031Y-120347961D01*
X144284925Y-120881015D01*
X144272364Y-120946300D01*
X144393022Y-121184040D01*
X145836400Y-121184040D01*
X145836400Y-121164040D01*
X146090400Y-121164040D01*
X146090400Y-121184040D01*
X147533778Y-121184040D01*
X147654436Y-120946300D01*
X147641875Y-120881015D01*
X147364769Y-120347961D01*
X147029093Y-120065970D01*
X147282800Y-119896449D01*
X147615546Y-119398459D01*
X147732391Y-118811040D01*
X147615546Y-118223621D01*
X147282800Y-117725631D01*
X147036472Y-117561040D01*
X147282800Y-117396449D01*
X147615546Y-116898459D01*
X147732391Y-116311040D01*
X147615546Y-115723621D01*
X147282800Y-115225631D01*
X146784810Y-114892885D01*
X146197391Y-114776040D01*
X145729409Y-114776040D01*
X145141990Y-114892885D01*
X144644000Y-115225631D01*
X144311254Y-115723621D01*
X144194409Y-116311040D01*
X140323784Y-116311040D01*
X140857036Y-115778719D01*
X141198011Y-114957559D01*
X141198787Y-114068421D01*
X141113369Y-113861694D01*
X149749226Y-113861694D01*
X149997538Y-114462655D01*
X150278980Y-114744589D01*
X149999154Y-115023927D01*
X149749794Y-115624453D01*
X149749226Y-116274694D01*
X149997538Y-116875655D01*
X150456927Y-117335846D01*
X151057453Y-117585206D01*
X151707694Y-117585774D01*
X152308655Y-117337462D01*
X152768846Y-116878073D01*
X153018206Y-116277547D01*
X153018774Y-115627306D01*
X152770462Y-115026345D01*
X152489020Y-114744411D01*
X152768846Y-114465073D01*
X153018206Y-113864547D01*
X153018774Y-113214306D01*
X152770462Y-112613345D01*
X152410256Y-112252510D01*
X152796786Y-111866653D01*
X153046146Y-111266127D01*
X153046714Y-110615886D01*
X152798402Y-110014925D01*
X152442347Y-109658249D01*
X152796786Y-109304428D01*
X153046146Y-108703902D01*
X153046714Y-108053661D01*
X152798402Y-107452700D01*
X152388373Y-107041955D01*
X152796786Y-106634253D01*
X153046146Y-106033727D01*
X153046714Y-105383486D01*
X152798402Y-104782525D01*
X152339013Y-104322334D01*
X151738487Y-104072974D01*
X151088246Y-104072406D01*
X150487285Y-104320718D01*
X150027094Y-104780107D01*
X149777734Y-105380633D01*
X149777166Y-106030874D01*
X150025478Y-106631835D01*
X150435507Y-107042580D01*
X150027094Y-107450282D01*
X149777734Y-108050808D01*
X149777166Y-108701049D01*
X150025478Y-109302010D01*
X150381533Y-109658686D01*
X150027094Y-110012507D01*
X149777734Y-110613033D01*
X149777166Y-111263274D01*
X150025478Y-111864235D01*
X150385684Y-112225070D01*
X149999154Y-112610927D01*
X149749794Y-113211453D01*
X149749226Y-113861694D01*
X141113369Y-113861694D01*
X140859245Y-113246668D01*
X140240693Y-112627035D01*
X140806236Y-112062479D01*
X141147211Y-111241319D01*
X141147987Y-110352181D01*
X140808445Y-109530428D01*
X140637856Y-109359540D01*
X144221564Y-109359540D01*
X144234125Y-109424825D01*
X144511231Y-109957879D01*
X144971234Y-110344313D01*
X145544103Y-110525296D01*
X145785600Y-110374062D01*
X145785600Y-109121800D01*
X146039600Y-109121800D01*
X146039600Y-110374062D01*
X146281097Y-110525296D01*
X146853966Y-110344313D01*
X147313969Y-109957879D01*
X147591075Y-109424825D01*
X147603636Y-109359540D01*
X147482978Y-109121800D01*
X146039600Y-109121800D01*
X145785600Y-109121800D01*
X144342222Y-109121800D01*
X144221564Y-109359540D01*
X140637856Y-109359540D01*
X140180279Y-108901164D01*
X139359119Y-108560189D01*
X138469981Y-108559413D01*
X137648228Y-108898955D01*
X137018964Y-109527121D01*
X136677989Y-110348281D01*
X136677213Y-111237419D01*
X127507200Y-111237419D01*
X127507200Y-102637419D01*
X136677213Y-102637419D01*
X137016755Y-103459172D01*
X137644921Y-104088436D01*
X138466081Y-104429411D01*
X139355219Y-104430187D01*
X140176972Y-104090645D01*
X140272984Y-103994800D01*
X144143609Y-103994800D01*
X144260454Y-104582219D01*
X144593200Y-105080209D01*
X144839528Y-105244800D01*
X144593200Y-105409391D01*
X144260454Y-105907381D01*
X144143609Y-106494800D01*
X144260454Y-107082219D01*
X144593200Y-107580209D01*
X144846907Y-107749730D01*
X144511231Y-108031721D01*
X144234125Y-108564775D01*
X144221564Y-108630060D01*
X144342222Y-108867800D01*
X145785600Y-108867800D01*
X145785600Y-108847800D01*
X146039600Y-108847800D01*
X146039600Y-108867800D01*
X147482978Y-108867800D01*
X147603636Y-108630060D01*
X147591075Y-108564775D01*
X147313969Y-108031721D01*
X146978293Y-107749730D01*
X147232000Y-107580209D01*
X147564746Y-107082219D01*
X147681591Y-106494800D01*
X147564746Y-105907381D01*
X147232000Y-105409391D01*
X146985672Y-105244800D01*
X147232000Y-105080209D01*
X147564746Y-104582219D01*
X147681591Y-103994800D01*
X147564746Y-103407381D01*
X147232000Y-102909391D01*
X146734010Y-102576645D01*
X146146591Y-102459800D01*
X145678609Y-102459800D01*
X145091190Y-102576645D01*
X144593200Y-102909391D01*
X144260454Y-103407381D01*
X144143609Y-103994800D01*
X140272984Y-103994800D01*
X140806236Y-103462479D01*
X141147211Y-102641319D01*
X141147987Y-101752181D01*
X140808445Y-100930428D01*
X140180279Y-100301164D01*
X139359119Y-99960189D01*
X138469981Y-99959413D01*
X137648228Y-100298955D01*
X137018964Y-100927121D01*
X136677989Y-101748281D01*
X136677213Y-102637419D01*
X127507200Y-102637419D01*
X127507200Y-89595827D01*
X127835397Y-89924598D01*
X128436112Y-90174036D01*
X129086555Y-90174604D01*
X129687703Y-89926214D01*
X130148038Y-89466683D01*
X130397476Y-88865968D01*
X130398044Y-88215525D01*
X130149654Y-87614377D01*
X129690123Y-87154042D01*
X129089408Y-86904604D01*
X128438965Y-86904036D01*
X127837817Y-87152426D01*
X127507200Y-87482466D01*
X127507200Y-84962200D01*
X141311472Y-84962200D01*
X140942060Y-85114838D01*
M02*
