G04 #@! TF.FileFunction,Legend,Bot*
%FSLAX46Y46*%
G04 Gerber Fmt 4.6, Leading zero omitted, Abs format (unit mm)*
G04 Created by KiCad (PCBNEW 4.0.5+dfsg1-4~bpo8+1) date Wed Sep 27 19:54:48 2017*
%MOMM*%
%LPD*%
G01*
G04 APERTURE LIST*
%ADD10C,0.100000*%
%ADD11C,0.010000*%
G04 APERTURE END LIST*
D10*
D11*
G36*
X146354238Y-123567650D02*
X146420280Y-123552233D01*
X146493329Y-123516704D01*
X146585800Y-123453015D01*
X146710109Y-123353122D01*
X146878671Y-123208977D01*
X146987340Y-123114380D01*
X147916732Y-122313019D01*
X148839211Y-121536944D01*
X149750431Y-120789357D01*
X150646045Y-120073457D01*
X151521706Y-119392447D01*
X152373068Y-118749526D01*
X153195783Y-118147895D01*
X153985506Y-117590757D01*
X154737889Y-117081310D01*
X155448586Y-116622756D01*
X156113249Y-116218297D01*
X156727533Y-115871132D01*
X157061113Y-115696228D01*
X157655018Y-115394876D01*
X158208144Y-115478756D01*
X158761269Y-115562636D01*
X158999051Y-115793293D01*
X159148442Y-115929638D01*
X159309103Y-116063051D01*
X159442600Y-116162065D01*
X159592139Y-116292858D01*
X159723024Y-116475087D01*
X159837609Y-116715004D01*
X159938249Y-117018862D01*
X160027295Y-117392914D01*
X160107102Y-117843412D01*
X160127953Y-117983000D01*
X160156747Y-118175706D01*
X160182451Y-118335137D01*
X160202168Y-118444114D01*
X160212684Y-118485234D01*
X160235160Y-118454284D01*
X160288865Y-118358922D01*
X160367653Y-118210706D01*
X160465377Y-118021193D01*
X160572918Y-117807901D01*
X160918646Y-117115167D01*
X161792240Y-117113340D01*
X162184817Y-117108857D01*
X162511436Y-117095553D01*
X162790567Y-117070937D01*
X163040683Y-117032519D01*
X163280254Y-116977809D01*
X163527751Y-116904316D01*
X163652033Y-116862590D01*
X163912378Y-116763884D01*
X164188186Y-116644712D01*
X164446184Y-116520189D01*
X164637276Y-116415059D01*
X164788386Y-116324092D01*
X165671500Y-116885896D01*
X165682835Y-115868171D01*
X165694171Y-114850446D01*
X165869659Y-114739665D01*
X165993966Y-114649400D01*
X166140708Y-114526097D01*
X166257547Y-114416484D01*
X166469947Y-114204085D01*
X166884831Y-114254368D01*
X167163864Y-114294557D01*
X167505682Y-114353980D01*
X167891636Y-114428703D01*
X168303075Y-114514791D01*
X168721350Y-114608309D01*
X169127812Y-114705322D01*
X169503810Y-114801897D01*
X169587333Y-114824541D01*
X170808139Y-115193526D01*
X172052829Y-115636053D01*
X173312134Y-116147759D01*
X174576780Y-116724283D01*
X175837497Y-117361262D01*
X177085012Y-118054333D01*
X178310055Y-118799135D01*
X179023347Y-119264285D01*
X179590528Y-119643882D01*
X179868833Y-119529591D01*
X180333514Y-119332878D01*
X180856108Y-119101392D01*
X181421173Y-118842638D01*
X182013265Y-118564123D01*
X182616943Y-118273352D01*
X183216764Y-117977831D01*
X183797285Y-117685065D01*
X184343065Y-117402559D01*
X184838660Y-117137820D01*
X185187166Y-116944689D01*
X186274185Y-116309865D01*
X187278337Y-115681786D01*
X188199486Y-115060577D01*
X189037502Y-114446359D01*
X189792250Y-113839257D01*
X190463597Y-113239394D01*
X191051410Y-112646892D01*
X191555555Y-112061877D01*
X191975900Y-111484470D01*
X192312312Y-110914795D01*
X192564656Y-110352976D01*
X192678728Y-110009015D01*
X192740866Y-109788015D01*
X192776636Y-109636694D01*
X192782892Y-109543311D01*
X192756489Y-109496124D01*
X192694279Y-109483394D01*
X192593119Y-109493380D01*
X192542583Y-109500873D01*
X192247170Y-109530103D01*
X191917211Y-109537750D01*
X191581428Y-109524986D01*
X191268543Y-109492982D01*
X191007277Y-109442908D01*
X190986833Y-109437432D01*
X190572054Y-109293776D01*
X190130022Y-109087786D01*
X189677551Y-108829428D01*
X189231454Y-108528664D01*
X188808545Y-108195458D01*
X188640737Y-108047185D01*
X188468276Y-107888011D01*
X188342472Y-107777972D01*
X188244251Y-107712840D01*
X188154535Y-107688386D01*
X188054250Y-107700384D01*
X187924319Y-107744605D01*
X187745666Y-107816822D01*
X187694424Y-107837448D01*
X186866291Y-108123063D01*
X186012906Y-108328356D01*
X185135788Y-108453331D01*
X184236454Y-108497989D01*
X183316423Y-108462333D01*
X182377213Y-108346364D01*
X181420343Y-108150086D01*
X180447331Y-107873499D01*
X180305686Y-107826959D01*
X179831417Y-107656884D01*
X179352782Y-107463516D01*
X178878673Y-107251913D01*
X178417982Y-107027131D01*
X177979600Y-106794231D01*
X177572418Y-106558268D01*
X177205329Y-106324300D01*
X176887223Y-106097387D01*
X176626993Y-105882584D01*
X176433528Y-105684951D01*
X176355130Y-105579741D01*
X176287379Y-105474314D01*
X176011451Y-105732432D01*
X175592828Y-106066334D01*
X175122626Y-106333171D01*
X174601134Y-106532795D01*
X174265166Y-106619936D01*
X174034206Y-106656050D01*
X173744214Y-106680113D01*
X173420004Y-106691848D01*
X173086389Y-106690977D01*
X172768181Y-106677224D01*
X172490194Y-106650312D01*
X172423666Y-106640498D01*
X171664484Y-106476064D01*
X170913250Y-106232124D01*
X170179263Y-105913824D01*
X169471818Y-105526315D01*
X168800213Y-105074745D01*
X168173745Y-104564262D01*
X167601711Y-104000015D01*
X167546921Y-103939789D01*
X167364308Y-103727870D01*
X167171430Y-103488841D01*
X166991379Y-103252149D01*
X166848421Y-103049019D01*
X166560500Y-102614204D01*
X166306500Y-102646852D01*
X166077054Y-102666681D01*
X165786190Y-102677356D01*
X165456605Y-102679377D01*
X165110994Y-102673241D01*
X164772055Y-102659449D01*
X164462484Y-102638500D01*
X164204977Y-102610893D01*
X164126333Y-102598903D01*
X163300916Y-102430397D01*
X162439334Y-102199214D01*
X161536943Y-101903929D01*
X160589099Y-101543121D01*
X160327606Y-101435464D01*
X160130883Y-101354912D01*
X159959736Y-101287956D01*
X159830557Y-101240782D01*
X159759739Y-101219582D01*
X159754280Y-101219000D01*
X159705709Y-101245078D01*
X159603878Y-101317625D01*
X159459897Y-101428112D01*
X159284876Y-101568010D01*
X159089926Y-101728789D01*
X159086840Y-101731373D01*
X158610800Y-102119793D01*
X158176834Y-102450880D01*
X157772594Y-102732161D01*
X157385737Y-102971166D01*
X157003916Y-103175422D01*
X156614786Y-103352459D01*
X156206002Y-103509804D01*
X156122896Y-103538852D01*
X155794114Y-103643125D01*
X155415779Y-103748630D01*
X155022401Y-103846522D01*
X154648494Y-103927962D01*
X154480972Y-103959512D01*
X154297111Y-103991886D01*
X154130588Y-104499860D01*
X153852176Y-105229089D01*
X153506699Y-105930038D01*
X153100509Y-106594212D01*
X152639956Y-107213120D01*
X152131393Y-107778268D01*
X151581170Y-108281164D01*
X150995639Y-108713315D01*
X150964231Y-108733766D01*
X150436948Y-109037239D01*
X149852079Y-109306597D01*
X149232986Y-109532553D01*
X148603027Y-109705817D01*
X148420666Y-109745078D01*
X147822022Y-109845929D01*
X147226843Y-109904615D01*
X146615876Y-109921635D01*
X145969868Y-109897493D01*
X145269568Y-109832689D01*
X145231173Y-109828201D01*
X145027260Y-109805232D01*
X144856439Y-109788068D01*
X144734775Y-109778169D01*
X144678333Y-109776996D01*
X144676379Y-109777771D01*
X144648304Y-109815673D01*
X144581671Y-109906678D01*
X144487723Y-110035412D01*
X144418696Y-110130167D01*
X143954332Y-110720351D01*
X143428624Y-111304271D01*
X142858049Y-111866556D01*
X142259081Y-112391835D01*
X141648195Y-112864738D01*
X141075833Y-113249002D01*
X140225443Y-113731757D01*
X139350189Y-114142398D01*
X138443264Y-114483185D01*
X137497859Y-114756373D01*
X136507166Y-114964220D01*
X135466666Y-115108741D01*
X135251603Y-115126224D01*
X134974485Y-115140592D01*
X134652846Y-115151681D01*
X134304217Y-115159326D01*
X133946130Y-115163362D01*
X133596118Y-115163625D01*
X133271712Y-115159948D01*
X132990444Y-115152168D01*
X132769846Y-115140120D01*
X132708362Y-115134676D01*
X132384224Y-115101518D01*
X132268771Y-115452176D01*
X132053711Y-115999881D01*
X131786814Y-116489120D01*
X131464672Y-116922835D01*
X131083879Y-117303966D01*
X130641027Y-117635454D01*
X130132709Y-117920238D01*
X129555519Y-118161260D01*
X128906049Y-118361460D01*
X128894416Y-118364514D01*
X128731226Y-118411414D01*
X128604730Y-118455718D01*
X128533315Y-118490597D01*
X128524000Y-118502070D01*
X128550838Y-118596814D01*
X128623433Y-118735937D01*
X128729904Y-118901801D01*
X128858368Y-119076765D01*
X128996946Y-119243190D01*
X129088383Y-119339990D01*
X129464002Y-119667567D01*
X129923058Y-119986838D01*
X130464702Y-120297539D01*
X131088087Y-120599408D01*
X131792366Y-120892180D01*
X132576690Y-121175591D01*
X133440211Y-121449377D01*
X134382083Y-121713275D01*
X135401457Y-121967020D01*
X136497485Y-122210348D01*
X137669321Y-122442997D01*
X138916116Y-122664701D01*
X140237023Y-122875197D01*
X140634473Y-122934201D01*
X141016154Y-122988371D01*
X141437491Y-123045350D01*
X141889269Y-123104100D01*
X142362273Y-123163581D01*
X142847285Y-123222756D01*
X143335091Y-123280585D01*
X143816475Y-123336028D01*
X144282221Y-123388048D01*
X144723114Y-123435604D01*
X145129937Y-123477658D01*
X145493475Y-123513171D01*
X145804512Y-123541104D01*
X146053832Y-123560418D01*
X146232220Y-123570074D01*
X146282788Y-123571000D01*
X146354238Y-123567650D01*
X146354238Y-123567650D01*
G37*
X146354238Y-123567650D02*
X146420280Y-123552233D01*
X146493329Y-123516704D01*
X146585800Y-123453015D01*
X146710109Y-123353122D01*
X146878671Y-123208977D01*
X146987340Y-123114380D01*
X147916732Y-122313019D01*
X148839211Y-121536944D01*
X149750431Y-120789357D01*
X150646045Y-120073457D01*
X151521706Y-119392447D01*
X152373068Y-118749526D01*
X153195783Y-118147895D01*
X153985506Y-117590757D01*
X154737889Y-117081310D01*
X155448586Y-116622756D01*
X156113249Y-116218297D01*
X156727533Y-115871132D01*
X157061113Y-115696228D01*
X157655018Y-115394876D01*
X158208144Y-115478756D01*
X158761269Y-115562636D01*
X158999051Y-115793293D01*
X159148442Y-115929638D01*
X159309103Y-116063051D01*
X159442600Y-116162065D01*
X159592139Y-116292858D01*
X159723024Y-116475087D01*
X159837609Y-116715004D01*
X159938249Y-117018862D01*
X160027295Y-117392914D01*
X160107102Y-117843412D01*
X160127953Y-117983000D01*
X160156747Y-118175706D01*
X160182451Y-118335137D01*
X160202168Y-118444114D01*
X160212684Y-118485234D01*
X160235160Y-118454284D01*
X160288865Y-118358922D01*
X160367653Y-118210706D01*
X160465377Y-118021193D01*
X160572918Y-117807901D01*
X160918646Y-117115167D01*
X161792240Y-117113340D01*
X162184817Y-117108857D01*
X162511436Y-117095553D01*
X162790567Y-117070937D01*
X163040683Y-117032519D01*
X163280254Y-116977809D01*
X163527751Y-116904316D01*
X163652033Y-116862590D01*
X163912378Y-116763884D01*
X164188186Y-116644712D01*
X164446184Y-116520189D01*
X164637276Y-116415059D01*
X164788386Y-116324092D01*
X165671500Y-116885896D01*
X165682835Y-115868171D01*
X165694171Y-114850446D01*
X165869659Y-114739665D01*
X165993966Y-114649400D01*
X166140708Y-114526097D01*
X166257547Y-114416484D01*
X166469947Y-114204085D01*
X166884831Y-114254368D01*
X167163864Y-114294557D01*
X167505682Y-114353980D01*
X167891636Y-114428703D01*
X168303075Y-114514791D01*
X168721350Y-114608309D01*
X169127812Y-114705322D01*
X169503810Y-114801897D01*
X169587333Y-114824541D01*
X170808139Y-115193526D01*
X172052829Y-115636053D01*
X173312134Y-116147759D01*
X174576780Y-116724283D01*
X175837497Y-117361262D01*
X177085012Y-118054333D01*
X178310055Y-118799135D01*
X179023347Y-119264285D01*
X179590528Y-119643882D01*
X179868833Y-119529591D01*
X180333514Y-119332878D01*
X180856108Y-119101392D01*
X181421173Y-118842638D01*
X182013265Y-118564123D01*
X182616943Y-118273352D01*
X183216764Y-117977831D01*
X183797285Y-117685065D01*
X184343065Y-117402559D01*
X184838660Y-117137820D01*
X185187166Y-116944689D01*
X186274185Y-116309865D01*
X187278337Y-115681786D01*
X188199486Y-115060577D01*
X189037502Y-114446359D01*
X189792250Y-113839257D01*
X190463597Y-113239394D01*
X191051410Y-112646892D01*
X191555555Y-112061877D01*
X191975900Y-111484470D01*
X192312312Y-110914795D01*
X192564656Y-110352976D01*
X192678728Y-110009015D01*
X192740866Y-109788015D01*
X192776636Y-109636694D01*
X192782892Y-109543311D01*
X192756489Y-109496124D01*
X192694279Y-109483394D01*
X192593119Y-109493380D01*
X192542583Y-109500873D01*
X192247170Y-109530103D01*
X191917211Y-109537750D01*
X191581428Y-109524986D01*
X191268543Y-109492982D01*
X191007277Y-109442908D01*
X190986833Y-109437432D01*
X190572054Y-109293776D01*
X190130022Y-109087786D01*
X189677551Y-108829428D01*
X189231454Y-108528664D01*
X188808545Y-108195458D01*
X188640737Y-108047185D01*
X188468276Y-107888011D01*
X188342472Y-107777972D01*
X188244251Y-107712840D01*
X188154535Y-107688386D01*
X188054250Y-107700384D01*
X187924319Y-107744605D01*
X187745666Y-107816822D01*
X187694424Y-107837448D01*
X186866291Y-108123063D01*
X186012906Y-108328356D01*
X185135788Y-108453331D01*
X184236454Y-108497989D01*
X183316423Y-108462333D01*
X182377213Y-108346364D01*
X181420343Y-108150086D01*
X180447331Y-107873499D01*
X180305686Y-107826959D01*
X179831417Y-107656884D01*
X179352782Y-107463516D01*
X178878673Y-107251913D01*
X178417982Y-107027131D01*
X177979600Y-106794231D01*
X177572418Y-106558268D01*
X177205329Y-106324300D01*
X176887223Y-106097387D01*
X176626993Y-105882584D01*
X176433528Y-105684951D01*
X176355130Y-105579741D01*
X176287379Y-105474314D01*
X176011451Y-105732432D01*
X175592828Y-106066334D01*
X175122626Y-106333171D01*
X174601134Y-106532795D01*
X174265166Y-106619936D01*
X174034206Y-106656050D01*
X173744214Y-106680113D01*
X173420004Y-106691848D01*
X173086389Y-106690977D01*
X172768181Y-106677224D01*
X172490194Y-106650312D01*
X172423666Y-106640498D01*
X171664484Y-106476064D01*
X170913250Y-106232124D01*
X170179263Y-105913824D01*
X169471818Y-105526315D01*
X168800213Y-105074745D01*
X168173745Y-104564262D01*
X167601711Y-104000015D01*
X167546921Y-103939789D01*
X167364308Y-103727870D01*
X167171430Y-103488841D01*
X166991379Y-103252149D01*
X166848421Y-103049019D01*
X166560500Y-102614204D01*
X166306500Y-102646852D01*
X166077054Y-102666681D01*
X165786190Y-102677356D01*
X165456605Y-102679377D01*
X165110994Y-102673241D01*
X164772055Y-102659449D01*
X164462484Y-102638500D01*
X164204977Y-102610893D01*
X164126333Y-102598903D01*
X163300916Y-102430397D01*
X162439334Y-102199214D01*
X161536943Y-101903929D01*
X160589099Y-101543121D01*
X160327606Y-101435464D01*
X160130883Y-101354912D01*
X159959736Y-101287956D01*
X159830557Y-101240782D01*
X159759739Y-101219582D01*
X159754280Y-101219000D01*
X159705709Y-101245078D01*
X159603878Y-101317625D01*
X159459897Y-101428112D01*
X159284876Y-101568010D01*
X159089926Y-101728789D01*
X159086840Y-101731373D01*
X158610800Y-102119793D01*
X158176834Y-102450880D01*
X157772594Y-102732161D01*
X157385737Y-102971166D01*
X157003916Y-103175422D01*
X156614786Y-103352459D01*
X156206002Y-103509804D01*
X156122896Y-103538852D01*
X155794114Y-103643125D01*
X155415779Y-103748630D01*
X155022401Y-103846522D01*
X154648494Y-103927962D01*
X154480972Y-103959512D01*
X154297111Y-103991886D01*
X154130588Y-104499860D01*
X153852176Y-105229089D01*
X153506699Y-105930038D01*
X153100509Y-106594212D01*
X152639956Y-107213120D01*
X152131393Y-107778268D01*
X151581170Y-108281164D01*
X150995639Y-108713315D01*
X150964231Y-108733766D01*
X150436948Y-109037239D01*
X149852079Y-109306597D01*
X149232986Y-109532553D01*
X148603027Y-109705817D01*
X148420666Y-109745078D01*
X147822022Y-109845929D01*
X147226843Y-109904615D01*
X146615876Y-109921635D01*
X145969868Y-109897493D01*
X145269568Y-109832689D01*
X145231173Y-109828201D01*
X145027260Y-109805232D01*
X144856439Y-109788068D01*
X144734775Y-109778169D01*
X144678333Y-109776996D01*
X144676379Y-109777771D01*
X144648304Y-109815673D01*
X144581671Y-109906678D01*
X144487723Y-110035412D01*
X144418696Y-110130167D01*
X143954332Y-110720351D01*
X143428624Y-111304271D01*
X142858049Y-111866556D01*
X142259081Y-112391835D01*
X141648195Y-112864738D01*
X141075833Y-113249002D01*
X140225443Y-113731757D01*
X139350189Y-114142398D01*
X138443264Y-114483185D01*
X137497859Y-114756373D01*
X136507166Y-114964220D01*
X135466666Y-115108741D01*
X135251603Y-115126224D01*
X134974485Y-115140592D01*
X134652846Y-115151681D01*
X134304217Y-115159326D01*
X133946130Y-115163362D01*
X133596118Y-115163625D01*
X133271712Y-115159948D01*
X132990444Y-115152168D01*
X132769846Y-115140120D01*
X132708362Y-115134676D01*
X132384224Y-115101518D01*
X132268771Y-115452176D01*
X132053711Y-115999881D01*
X131786814Y-116489120D01*
X131464672Y-116922835D01*
X131083879Y-117303966D01*
X130641027Y-117635454D01*
X130132709Y-117920238D01*
X129555519Y-118161260D01*
X128906049Y-118361460D01*
X128894416Y-118364514D01*
X128731226Y-118411414D01*
X128604730Y-118455718D01*
X128533315Y-118490597D01*
X128524000Y-118502070D01*
X128550838Y-118596814D01*
X128623433Y-118735937D01*
X128729904Y-118901801D01*
X128858368Y-119076765D01*
X128996946Y-119243190D01*
X129088383Y-119339990D01*
X129464002Y-119667567D01*
X129923058Y-119986838D01*
X130464702Y-120297539D01*
X131088087Y-120599408D01*
X131792366Y-120892180D01*
X132576690Y-121175591D01*
X133440211Y-121449377D01*
X134382083Y-121713275D01*
X135401457Y-121967020D01*
X136497485Y-122210348D01*
X137669321Y-122442997D01*
X138916116Y-122664701D01*
X140237023Y-122875197D01*
X140634473Y-122934201D01*
X141016154Y-122988371D01*
X141437491Y-123045350D01*
X141889269Y-123104100D01*
X142362273Y-123163581D01*
X142847285Y-123222756D01*
X143335091Y-123280585D01*
X143816475Y-123336028D01*
X144282221Y-123388048D01*
X144723114Y-123435604D01*
X145129937Y-123477658D01*
X145493475Y-123513171D01*
X145804512Y-123541104D01*
X146053832Y-123560418D01*
X146232220Y-123570074D01*
X146282788Y-123571000D01*
X146354238Y-123567650D01*
M02*
