G04 #@! TF.FileFunction,Soldermask,Top*
%FSLAX46Y46*%
G04 Gerber Fmt 4.6, Leading zero omitted, Abs format (unit mm)*
G04 Created by KiCad (PCBNEW 4.1.0-alpha+201605121532+6803~44~ubuntu14.04.1-product) date Sat May 14 23:13:03 2016*
%MOMM*%
%LPD*%
G01*
G04 APERTURE LIST*
%ADD10C,0.100000*%
%ADD11O,1.524000X2.540000*%
%ADD12C,3.175000*%
%ADD13C,1.524000*%
%ADD14O,1.524000X1.524000*%
%ADD15C,3.200000*%
%ADD16C,1.800000*%
%ADD17C,1.351280*%
%ADD18R,1.351280X1.351280*%
%ADD19C,2.000000*%
%ADD20C,1.998980*%
%ADD21O,1.219200X1.219200*%
G04 APERTURE END LIST*
D10*
D11*
X190459360Y-135260080D03*
X187919360Y-135260080D03*
X185379360Y-135260080D03*
X177759360Y-135260080D03*
X180299360Y-135260080D03*
X182839360Y-135260080D03*
X172679360Y-135260080D03*
X170139360Y-135260080D03*
X167599360Y-135260080D03*
X162519360Y-135260080D03*
X159979360Y-135260080D03*
X190459360Y-87000080D03*
X187919360Y-87000080D03*
X185379360Y-87000080D03*
X182839360Y-87000080D03*
X180299360Y-87000080D03*
X177759360Y-87000080D03*
X175219360Y-87000080D03*
X172679360Y-87000080D03*
X168615360Y-87000080D03*
X166075360Y-87000080D03*
X163535360Y-87000080D03*
X160995360Y-87000080D03*
X158455360Y-87000080D03*
X155915360Y-87000080D03*
X153375360Y-87000080D03*
X150835360Y-87000080D03*
X165059360Y-135260080D03*
D12*
X192999360Y-130180080D03*
X192999360Y-102240080D03*
X142199360Y-87000080D03*
X140929360Y-135260080D03*
D11*
X148295360Y-87000080D03*
X145755360Y-87000080D03*
X157439360Y-135260080D03*
X154899360Y-135260080D03*
D13*
X190459360Y-107320080D03*
X192999360Y-107320080D03*
X190459360Y-109860080D03*
X192999360Y-109860080D03*
X190459360Y-112400080D03*
X192999360Y-112400080D03*
D14*
X168753790Y-123228100D03*
X175256190Y-123228100D03*
X168753790Y-127749300D03*
X175256190Y-127749300D03*
D15*
X138963400Y-123111040D03*
X138963400Y-114511040D03*
D16*
X145963400Y-118811040D03*
X145963400Y-121311040D03*
X145963400Y-116311040D03*
D17*
X142148414Y-96880774D03*
X142148414Y-90881294D03*
D18*
X142148414Y-92880274D03*
D17*
X142148414Y-94881794D03*
D14*
X177109120Y-101655880D03*
X179649120Y-101655880D03*
X182189120Y-101655880D03*
D15*
X138912600Y-110794800D03*
X138912600Y-102194800D03*
D16*
X145912600Y-106494800D03*
X145912600Y-108994800D03*
X145912600Y-103994800D03*
D14*
X128854200Y-131394200D03*
X135356600Y-131394200D03*
X128854200Y-135915400D03*
X135356600Y-135915400D03*
X168753790Y-115570000D03*
X175256190Y-115570000D03*
X168753790Y-120091200D03*
X175256190Y-120091200D03*
X175256190Y-112433100D03*
X168753790Y-112433100D03*
X175256190Y-107911900D03*
X168753790Y-107911900D03*
X159730440Y-115570000D03*
X166232840Y-115570000D03*
X159730440Y-120091200D03*
X166232840Y-120091200D03*
X177777140Y-115570000D03*
X184279540Y-115570000D03*
X177777140Y-120091200D03*
X184279540Y-120091200D03*
D19*
X128762760Y-88539320D03*
X136362440Y-88539320D03*
D20*
X137927080Y-127406400D03*
X148087080Y-127406400D03*
X148056600Y-130063240D03*
X137896600Y-130063240D03*
X162905440Y-102786180D03*
X152745440Y-102786180D03*
X162905440Y-105456355D03*
X152745440Y-105456355D03*
X162905440Y-108018580D03*
X152745440Y-108018580D03*
X145450560Y-91109800D03*
X155610560Y-91109800D03*
X145455640Y-93677740D03*
X155615640Y-93677740D03*
X145455640Y-96306640D03*
X155615640Y-96306640D03*
X166425880Y-123571000D03*
X156265880Y-123571000D03*
X176743360Y-110383320D03*
X186903360Y-110383320D03*
X161470340Y-112763300D03*
X171630340Y-112763300D03*
X166425880Y-126212600D03*
X156265880Y-126212600D03*
X179384960Y-122956320D03*
X189544960Y-122956320D03*
D21*
X165404800Y-93218000D03*
X165404800Y-95758000D03*
X172212000Y-93218000D03*
X172212000Y-95758000D03*
X179197000Y-93218000D03*
X179197000Y-95758000D03*
M02*
