M48
;DRILL file {KiCad 0.201603210401+6634~43~ubuntu14.04.1-product} date dom 03 abr 2016 21:58:50 CEST
;FORMAT={-:-/ absolute / inch / decimal}
FMAT,2
INCH,TZ
T1C0.032
T2C0.032
T3C0.039
T4C0.039
T5C0.040
T6C0.087
T7C0.125
%
G90
G05
M72
T1
X5.5964Y-3.578
X5.5964Y-3.6567
X5.5964Y-3.7355
X5.5964Y-3.8142
T2
X6.571Y-3.6107
X6.571Y-3.7107
X6.771Y-3.6026
X6.771Y-3.7026
X6.971Y-3.6073
X6.971Y-3.7073
T3
X5.7446Y-4.0943
X5.7446Y-4.1927
X5.7446Y-4.2911
X5.7466Y-4.5792
X5.7466Y-4.6776
X5.7466Y-4.776
T4
X5.0694Y-3.4858
X5.3686Y-3.4858
X5.4275Y-5.018
X5.428Y-5.1245
X5.7278Y-3.6919
X5.7278Y-3.7954
X5.7303Y-3.5869
X5.8275Y-5.018
X5.828Y-5.1245
X6.068Y-3.9155
X6.068Y-4.0206
X6.068Y-4.1215
X6.1278Y-3.6919
X6.1278Y-3.7954
X6.1303Y-3.5869
X6.1521Y-4.8655
X6.1521Y-4.9685
X6.1571Y-4.4395
X6.468Y-3.9155
X6.468Y-4.0206
X6.468Y-4.1215
X6.5521Y-4.8655
X6.5521Y-4.9685
X6.5571Y-4.4395
X6.9581Y-4.3385
X7.0016Y-4.8365
X7.3581Y-4.3385
X7.4016Y-4.8365
T5
X5.073Y-5.173
X5.073Y-5.351
X5.329Y-5.173
X5.329Y-5.351
X5.7384Y-3.4252
X5.8384Y-3.4252
X5.9384Y-3.4252
X6.0384Y-3.4252
X6.0984Y-5.3252
X6.1384Y-3.4252
X6.1984Y-5.3252
X6.2384Y-3.4252
X6.2886Y-4.55
X6.2886Y-4.728
X6.2984Y-5.3252
X6.3384Y-3.4252
X6.3984Y-5.3252
X6.4384Y-3.4252
X6.4984Y-5.3252
X6.5384Y-3.4252
X6.5446Y-4.55
X6.5446Y-4.728
X6.5984Y-5.3252
X6.6384Y-3.4252
X6.6438Y-4.2485
X6.6438Y-4.4265
X6.6438Y-4.55
X6.6438Y-4.728
X6.6438Y-4.8515
X6.6438Y-5.0295
X6.6984Y-5.3252
X6.7984Y-3.4252
X6.7984Y-5.3252
X6.8984Y-3.4252
X6.8998Y-4.2485
X6.8998Y-4.4265
X6.8998Y-4.55
X6.8998Y-4.728
X6.8998Y-4.8515
X6.8998Y-5.0295
X6.9984Y-3.4252
X6.9984Y-5.3252
X6.9991Y-4.55
X6.9991Y-4.728
X7.0816Y-3.8782
X7.0984Y-3.4252
X7.0984Y-5.3252
X7.1816Y-3.8782
X7.1984Y-3.4252
X7.1984Y-5.3252
X7.2551Y-4.55
X7.2551Y-4.728
X7.2816Y-3.8782
X7.2984Y-3.4252
X7.2984Y-5.3252
X7.3984Y-3.4252
X7.3984Y-5.3252
X7.4984Y-3.4252
X7.4984Y-4.2252
X7.4984Y-4.3252
X7.4984Y-4.4252
X7.4984Y-5.3252
X7.5984Y-4.2252
X7.5984Y-4.3252
X7.5984Y-4.4252
T6
X5.469Y-4.0234
X5.469Y-4.362
X5.471Y-4.5083
X5.471Y-4.8469
T7
X5.5484Y-5.3252
X5.5984Y-3.4252
X7.5984Y-4.0252
X7.5984Y-5.1252
T0
M30
