G04 #@! TF.FileFunction,Soldermask,Bot*
%FSLAX46Y46*%
G04 Gerber Fmt 4.6, Leading zero omitted, Abs format (unit mm)*
G04 Created by KiCad (PCBNEW 4.0.5+dfsg1-4~bpo8+1) date Wed Sep 27 19:54:48 2017*
%MOMM*%
%LPD*%
G01*
G04 APERTURE LIST*
%ADD10C,0.100000*%
%ADD11O,1.524000X1.524000*%
%ADD12C,1.998980*%
%ADD13O,1.524000X2.540000*%
%ADD14C,3.175000*%
%ADD15C,1.524000*%
%ADD16C,2.000000*%
%ADD17C,3.200000*%
%ADD18O,2.200000X1.800000*%
%ADD19O,1.219200X1.519200*%
%ADD20O,1.551280X1.351280*%
%ADD21R,1.551280X1.351280*%
G04 APERTURE END LIST*
D10*
D11*
X184759600Y-122301000D03*
X191262000Y-122301000D03*
X184759600Y-126822200D03*
X191262000Y-126822200D03*
X166433500Y-122161300D03*
X172935900Y-122161300D03*
X166433500Y-126682500D03*
X172935900Y-126682500D03*
D12*
X189611000Y-119126000D03*
X179451000Y-119126000D03*
X161544000Y-113538000D03*
X151384000Y-113538000D03*
X161544000Y-115951000D03*
X151384000Y-115951000D03*
D11*
X175234600Y-122161300D03*
X181737000Y-122161300D03*
X175234600Y-126682500D03*
X181737000Y-126682500D03*
D13*
X190459360Y-135260080D03*
X187919360Y-135260080D03*
X185379360Y-135260080D03*
X177759360Y-135260080D03*
X180299360Y-135260080D03*
X182839360Y-135260080D03*
X172679360Y-135260080D03*
X170139360Y-135260080D03*
X167599360Y-135260080D03*
X162519360Y-135260080D03*
X159979360Y-135260080D03*
X190459360Y-87000080D03*
X187919360Y-87000080D03*
X185379360Y-87000080D03*
X182839360Y-87000080D03*
X180299360Y-87000080D03*
X177759360Y-87000080D03*
X175219360Y-87000080D03*
X172679360Y-87000080D03*
X168615360Y-87000080D03*
X166075360Y-87000080D03*
X163535360Y-87000080D03*
X160995360Y-87000080D03*
X158455360Y-87000080D03*
X155915360Y-87000080D03*
X153375360Y-87000080D03*
X150835360Y-87000080D03*
X165059360Y-135260080D03*
D14*
X192999360Y-130180080D03*
X192999360Y-102240080D03*
X142199360Y-87000080D03*
X140929360Y-135260080D03*
D13*
X148295360Y-87000080D03*
X145755360Y-87000080D03*
X157439360Y-135260080D03*
X154899360Y-135260080D03*
D15*
X190459360Y-107320080D03*
X192999360Y-107320080D03*
X190459360Y-109860080D03*
X192999360Y-109860080D03*
X190459360Y-112400080D03*
X192999360Y-112400080D03*
D11*
X182118000Y-109537500D03*
X179578000Y-109537500D03*
X177038000Y-109537500D03*
X128854200Y-131394200D03*
X135356600Y-131394200D03*
X128854200Y-135915400D03*
X135356600Y-135915400D03*
D16*
X128762760Y-88539320D03*
X136362440Y-88539320D03*
D12*
X137927080Y-127406400D03*
X148087080Y-127406400D03*
X148056600Y-130063240D03*
X137896600Y-130063240D03*
X161571940Y-105707180D03*
X151411940Y-105707180D03*
X161571940Y-108377355D03*
X151411940Y-108377355D03*
X161571940Y-110939580D03*
X151411940Y-110939580D03*
X145450560Y-91109800D03*
X155610560Y-91109800D03*
X145455640Y-93677740D03*
X155615640Y-93677740D03*
X145455640Y-96306640D03*
X155615640Y-96306640D03*
X185420000Y-115570000D03*
X175260000Y-115570000D03*
X165026340Y-118999000D03*
X175186340Y-118999000D03*
D17*
X138963400Y-123111040D03*
X138963400Y-114511040D03*
D18*
X145963400Y-118811040D03*
X145963400Y-121311040D03*
X145963400Y-116311040D03*
D17*
X138912600Y-110794800D03*
X138912600Y-102194800D03*
D18*
X145912600Y-106494800D03*
X145912600Y-108994800D03*
X145912600Y-103994800D03*
D19*
X159943800Y-99060000D03*
X159943800Y-101600000D03*
X166751000Y-99060000D03*
X166751000Y-101600000D03*
X173736000Y-99060000D03*
X173736000Y-101600000D03*
X180140493Y-98921321D03*
X180140493Y-101461321D03*
X186820493Y-98921321D03*
X186820493Y-101461321D03*
D20*
X142148414Y-96880774D03*
X142148414Y-90881294D03*
D21*
X142148414Y-92880274D03*
D20*
X142148414Y-94881794D03*
M02*
