<?xml version="1.0" standalone="no"?>
 <!DOCTYPE svg PUBLIC "-//W3C//DTD SVG 1.1//EN" 
 "http://www.w3.org/Graphics/SVG/1.1/DTD/svg11.dtd"> 
<svg xmlns="http://www.w3.org/2000/svg" version="1.1" 
    width="29.7002cm" height="21.0007cm" viewBox="0 0 116930 82680 ">
<title>SVG Picture created as bats-F.SilkS.svg date 2016/01/25 18:04:48 </title>
  <desc>Picture generated by PCBNEW </desc>
<g style="fill:#000000; fill-opacity:1;stroke:#000000; stroke-opacity:1;
stroke-linecap:round; stroke-linejoin:round; "
 transform="translate(0 0) scale(1 1)">
</g>
<g style="fill:#000000; fill-opacity:0.0; 
stroke:#000000; stroke-width:-0.000393701; stroke-opacity:1; 
stroke-linecap:round; stroke-linejoin:round;">
</g>
<g style="fill:#000000; fill-opacity:0.0; 
stroke:#000000; stroke-width:39.3701; stroke-opacity:1; 
stroke-linecap:round; stroke-linejoin:round;">
</g>
<g style="fill:#000000; fill-opacity:0.0; 
stroke:#000000; stroke-width:59.0551; stroke-opacity:1; 
stroke-linecap:round; stroke-linejoin:round;">
<rect x="69685.9" y="65357.2" width="42519.7" height="12598.4" rx="0" />
</g>
<g style="fill:#000000; fill-opacity:0.0; 
stroke:#000000; stroke-width:39.3701; stroke-opacity:1; 
stroke-linecap:round; stroke-linejoin:round;">
</g>
<g style="fill:#000000; fill-opacity:0.0; 
stroke:#000000; stroke-width:59.0551; stroke-opacity:1; 
stroke-linecap:round; stroke-linejoin:round;">
<rect x="3937.01" y="3937.01" width="109056" height="74806" rx="0" />
</g>
<g style="fill:#000000; fill-opacity:0.0; 
stroke:#000000; stroke-width:39.3701; stroke-opacity:1; 
stroke-linecap:round; stroke-linejoin:round;">
</g>
<g style="fill:#000000; fill-opacity:0.0; 
stroke:#000000; stroke-width:59.0551; stroke-opacity:1; 
stroke-linecap:round; stroke-linejoin:round;">
<rect x="4724.41" y="4724.41" width="107481" height="73231.2" rx="0" />
</g>
<g style="fill:#000000; fill-opacity:0.0; 
stroke:#000000; stroke-width:39.3701; stroke-opacity:1; 
stroke-linecap:round; stroke-linejoin:round;">
</g>
<g style="fill:#000000; fill-opacity:0.0; 
stroke:#000000; stroke-width:59.0551; stroke-opacity:1; 
stroke-linecap:round; stroke-linejoin:round;">
<path d="M23622 4724
L23622 3937
" />
</g>
<g style="fill:#000000; fill-opacity:0.0; 
stroke:#000000; stroke-width:39.3701; stroke-opacity:1; 
stroke-linecap:round; stroke-linejoin:round;">
</g>
<g style="fill:#000000; fill-opacity:0.0; 
stroke:#000000; stroke-width:59.0551; stroke-opacity:1; 
stroke-linecap:round; stroke-linejoin:round;">
<path d="M43307 4724
L43307 3937
" />
</g>
<g style="fill:#000000; fill-opacity:0.0; 
stroke:#000000; stroke-width:39.3701; stroke-opacity:1; 
stroke-linecap:round; stroke-linejoin:round;">
</g>
<g style="fill:#000000; fill-opacity:0.0; 
stroke:#000000; stroke-width:59.0551; stroke-opacity:1; 
stroke-linecap:round; stroke-linejoin:round;">
<path d="M62992 4724
L62992 3937
" />
</g>
<g style="fill:#000000; fill-opacity:0.0; 
stroke:#000000; stroke-width:39.3701; stroke-opacity:1; 
stroke-linecap:round; stroke-linejoin:round;">
</g>
<g style="fill:#000000; fill-opacity:0.0; 
stroke:#000000; stroke-width:59.0551; stroke-opacity:1; 
stroke-linecap:round; stroke-linejoin:round;">
<path d="M82677 4724
L82677 3937
" />
</g>
<g style="fill:#000000; fill-opacity:0.0; 
stroke:#000000; stroke-width:39.3701; stroke-opacity:1; 
stroke-linecap:round; stroke-linejoin:round;">
</g>
<g style="fill:#000000; fill-opacity:0.0; 
stroke:#000000; stroke-width:59.0551; stroke-opacity:1; 
stroke-linecap:round; stroke-linejoin:round;">
<path d="M102362 4724
L102362 3937
" />
</g>
<g style="fill:#000000; fill-opacity:0.0; 
stroke:#000000; stroke-width:39.3701; stroke-opacity:1; 
stroke-linecap:round; stroke-linejoin:round;">
</g>
<g style="fill:#000000; fill-opacity:0.0; 
stroke:#000000; stroke-width:59.0551; stroke-opacity:1; 
stroke-linecap:round; stroke-linejoin:round;">
<path d="M14169 4562
L13877 4562
" />
<path d="M14023 4562
L14023 4050
L13974 4123
L13925 4172
L13877 4196
" />
</g>
<g style="fill:#000000; fill-opacity:0.0; 
stroke:#000000; stroke-width:39.3701; stroke-opacity:1; 
stroke-linecap:round; stroke-linejoin:round;">
</g>
<g style="fill:#000000; fill-opacity:0.0; 
stroke:#000000; stroke-width:59.0551; stroke-opacity:1; 
stroke-linecap:round; stroke-linejoin:round;">
<path d="M33562 4099
L33586 4074
L33635 4050
L33757 4050
L33805 4074
L33830 4099
L33854 4147
L33854 4196
L33830 4269
L33537 4562
L33854 4562
" />
</g>
<g style="fill:#000000; fill-opacity:0.0; 
stroke:#000000; stroke-width:39.3701; stroke-opacity:1; 
stroke-linecap:round; stroke-linejoin:round;">
</g>
<g style="fill:#000000; fill-opacity:0.0; 
stroke:#000000; stroke-width:59.0551; stroke-opacity:1; 
stroke-linecap:round; stroke-linejoin:round;">
<path d="M53222 4050
L53539 4050
L53368 4245
L53442 4245
L53490 4269
L53515 4294
L53539 4342
L53539 4464
L53515 4513
L53490 4537
L53442 4562
L53295 4562
L53247 4537
L53222 4513
" />
</g>
<g style="fill:#000000; fill-opacity:0.0; 
stroke:#000000; stroke-width:39.3701; stroke-opacity:1; 
stroke-linecap:round; stroke-linejoin:round;">
</g>
<g style="fill:#000000; fill-opacity:0.0; 
stroke:#000000; stroke-width:59.0551; stroke-opacity:1; 
stroke-linecap:round; stroke-linejoin:round;">
<path d="M73175 4221
L73175 4562
" />
<path d="M73053 4026
L72932 4391
L73248 4391
" />
</g>
<g style="fill:#000000; fill-opacity:0.0; 
stroke:#000000; stroke-width:39.3701; stroke-opacity:1; 
stroke-linecap:round; stroke-linejoin:round;">
</g>
<g style="fill:#000000; fill-opacity:0.0; 
stroke:#000000; stroke-width:59.0551; stroke-opacity:1; 
stroke-linecap:round; stroke-linejoin:round;">
<path d="M92885 4050
L92641 4050
L92617 4294
L92641 4269
L92690 4245
L92812 4245
L92860 4269
L92885 4294
L92909 4342
L92909 4464
L92885 4513
L92860 4537
L92812 4562
L92690 4562
L92641 4537
L92617 4513
" />
</g>
<g style="fill:#000000; fill-opacity:0.0; 
stroke:#000000; stroke-width:39.3701; stroke-opacity:1; 
stroke-linecap:round; stroke-linejoin:round;">
</g>
<g style="fill:#000000; fill-opacity:0.0; 
stroke:#000000; stroke-width:59.0551; stroke-opacity:1; 
stroke-linecap:round; stroke-linejoin:round;">
<path d="M112545 4050
L112448 4050
L112399 4074
L112375 4099
L112326 4172
L112302 4269
L112302 4464
L112326 4513
L112350 4537
L112399 4562
L112497 4562
L112545 4537
L112570 4513
L112594 4464
L112594 4342
L112570 4294
L112545 4269
L112497 4245
L112399 4245
L112350 4269
L112326 4294
L112302 4342
" />
</g>
<g style="fill:#000000; fill-opacity:0.0; 
stroke:#000000; stroke-width:39.3701; stroke-opacity:1; 
stroke-linecap:round; stroke-linejoin:round;">
</g>
<g style="fill:#000000; fill-opacity:0.0; 
stroke:#000000; stroke-width:59.0551; stroke-opacity:1; 
stroke-linecap:round; stroke-linejoin:round;">
<path d="M23622 77955
L23622 78742
" />
</g>
<g style="fill:#000000; fill-opacity:0.0; 
stroke:#000000; stroke-width:39.3701; stroke-opacity:1; 
stroke-linecap:round; stroke-linejoin:round;">
</g>
<g style="fill:#000000; fill-opacity:0.0; 
stroke:#000000; stroke-width:59.0551; stroke-opacity:1; 
stroke-linecap:round; stroke-linejoin:round;">
<path d="M43307 77955
L43307 78742
" />
</g>
<g style="fill:#000000; fill-opacity:0.0; 
stroke:#000000; stroke-width:39.3701; stroke-opacity:1; 
stroke-linecap:round; stroke-linejoin:round;">
</g>
<g style="fill:#000000; fill-opacity:0.0; 
stroke:#000000; stroke-width:59.0551; stroke-opacity:1; 
stroke-linecap:round; stroke-linejoin:round;">
<path d="M62992 77955
L62992 78742
" />
</g>
<g style="fill:#000000; fill-opacity:0.0; 
stroke:#000000; stroke-width:39.3701; stroke-opacity:1; 
stroke-linecap:round; stroke-linejoin:round;">
</g>
<g style="fill:#000000; fill-opacity:0.0; 
stroke:#000000; stroke-width:59.0551; stroke-opacity:1; 
stroke-linecap:round; stroke-linejoin:round;">
<path d="M82677 77955
L82677 78742
" />
</g>
<g style="fill:#000000; fill-opacity:0.0; 
stroke:#000000; stroke-width:39.3701; stroke-opacity:1; 
stroke-linecap:round; stroke-linejoin:round;">
</g>
<g style="fill:#000000; fill-opacity:0.0; 
stroke:#000000; stroke-width:59.0551; stroke-opacity:1; 
stroke-linecap:round; stroke-linejoin:round;">
<path d="M102362 77955
L102362 78742
" />
</g>
<g style="fill:#000000; fill-opacity:0.0; 
stroke:#000000; stroke-width:39.3701; stroke-opacity:1; 
stroke-linecap:round; stroke-linejoin:round;">
</g>
<g style="fill:#000000; fill-opacity:0.0; 
stroke:#000000; stroke-width:59.0551; stroke-opacity:1; 
stroke-linecap:round; stroke-linejoin:round;">
<path d="M14169 78580
L13877 78580
" />
<path d="M14023 78580
L14023 78069
L13974 78142
L13925 78190
L13877 78215
" />
</g>
<g style="fill:#000000; fill-opacity:0.0; 
stroke:#000000; stroke-width:39.3701; stroke-opacity:1; 
stroke-linecap:round; stroke-linejoin:round;">
</g>
<g style="fill:#000000; fill-opacity:0.0; 
stroke:#000000; stroke-width:59.0551; stroke-opacity:1; 
stroke-linecap:round; stroke-linejoin:round;">
<path d="M33562 78117
L33586 78093
L33635 78069
L33757 78069
L33805 78093
L33830 78117
L33854 78166
L33854 78215
L33830 78288
L33537 78580
L33854 78580
" />
</g>
<g style="fill:#000000; fill-opacity:0.0; 
stroke:#000000; stroke-width:39.3701; stroke-opacity:1; 
stroke-linecap:round; stroke-linejoin:round;">
</g>
<g style="fill:#000000; fill-opacity:0.0; 
stroke:#000000; stroke-width:59.0551; stroke-opacity:1; 
stroke-linecap:round; stroke-linejoin:round;">
<path d="M53222 78069
L53539 78069
L53368 78263
L53442 78263
L53490 78288
L53515 78312
L53539 78361
L53539 78483
L53515 78532
L53490 78556
L53442 78580
L53295 78580
L53247 78556
L53222 78532
" />
</g>
<g style="fill:#000000; fill-opacity:0.0; 
stroke:#000000; stroke-width:39.3701; stroke-opacity:1; 
stroke-linecap:round; stroke-linejoin:round;">
</g>
<g style="fill:#000000; fill-opacity:0.0; 
stroke:#000000; stroke-width:59.0551; stroke-opacity:1; 
stroke-linecap:round; stroke-linejoin:round;">
<path d="M73175 78239
L73175 78580
" />
<path d="M73053 78044
L72932 78410
L73248 78410
" />
</g>
<g style="fill:#000000; fill-opacity:0.0; 
stroke:#000000; stroke-width:39.3701; stroke-opacity:1; 
stroke-linecap:round; stroke-linejoin:round;">
</g>
<g style="fill:#000000; fill-opacity:0.0; 
stroke:#000000; stroke-width:59.0551; stroke-opacity:1; 
stroke-linecap:round; stroke-linejoin:round;">
<path d="M92885 78069
L92641 78069
L92617 78312
L92641 78288
L92690 78263
L92812 78263
L92860 78288
L92885 78312
L92909 78361
L92909 78483
L92885 78532
L92860 78556
L92812 78580
L92690 78580
L92641 78556
L92617 78532
" />
</g>
<g style="fill:#000000; fill-opacity:0.0; 
stroke:#000000; stroke-width:39.3701; stroke-opacity:1; 
stroke-linecap:round; stroke-linejoin:round;">
</g>
<g style="fill:#000000; fill-opacity:0.0; 
stroke:#000000; stroke-width:59.0551; stroke-opacity:1; 
stroke-linecap:round; stroke-linejoin:round;">
<path d="M112545 78069
L112448 78069
L112399 78093
L112375 78117
L112326 78190
L112302 78288
L112302 78483
L112326 78532
L112350 78556
L112399 78580
L112497 78580
L112545 78556
L112570 78532
L112594 78483
L112594 78361
L112570 78312
L112545 78288
L112497 78263
L112399 78263
L112350 78288
L112326 78312
L112302 78361
" />
</g>
<g style="fill:#000000; fill-opacity:0.0; 
stroke:#000000; stroke-width:39.3701; stroke-opacity:1; 
stroke-linecap:round; stroke-linejoin:round;">
</g>
<g style="fill:#000000; fill-opacity:0.0; 
stroke:#000000; stroke-width:59.0551; stroke-opacity:1; 
stroke-linecap:round; stroke-linejoin:round;">
<path d="M3937 23622
L4724 23622
" />
</g>
<g style="fill:#000000; fill-opacity:0.0; 
stroke:#000000; stroke-width:39.3701; stroke-opacity:1; 
stroke-linecap:round; stroke-linejoin:round;">
</g>
<g style="fill:#000000; fill-opacity:0.0; 
stroke:#000000; stroke-width:59.0551; stroke-opacity:1; 
stroke-linecap:round; stroke-linejoin:round;">
<path d="M3937 43307
L4724 43307
" />
</g>
<g style="fill:#000000; fill-opacity:0.0; 
stroke:#000000; stroke-width:39.3701; stroke-opacity:1; 
stroke-linecap:round; stroke-linejoin:round;">
</g>
<g style="fill:#000000; fill-opacity:0.0; 
stroke:#000000; stroke-width:59.0551; stroke-opacity:1; 
stroke-linecap:round; stroke-linejoin:round;">
<path d="M3937 62992
L4724 62992
" />
</g>
<g style="fill:#000000; fill-opacity:0.0; 
stroke:#000000; stroke-width:39.3701; stroke-opacity:1; 
stroke-linecap:round; stroke-linejoin:round;">
</g>
<g style="fill:#000000; fill-opacity:0.0; 
stroke:#000000; stroke-width:59.0551; stroke-opacity:1; 
stroke-linecap:round; stroke-linejoin:round;">
<path d="M4208 13864
L4452 13864
" />
<path d="M4160 14011
L4330 13499
L4501 14011
" />
</g>
<g style="fill:#000000; fill-opacity:0.0; 
stroke:#000000; stroke-width:39.3701; stroke-opacity:1; 
stroke-linecap:round; stroke-linejoin:round;">
</g>
<g style="fill:#000000; fill-opacity:0.0; 
stroke:#000000; stroke-width:59.0551; stroke-opacity:1; 
stroke-linecap:round; stroke-linejoin:round;">
<path d="M4367 33428
L4440 33452
L4464 33476
L4489 33525
L4489 33598
L4464 33647
L4440 33671
L4391 33696
L4196 33696
L4196 33184
L4367 33184
L4416 33208
L4440 33233
L4464 33281
L4464 33330
L4440 33379
L4416 33403
L4367 33428
L4196 33428
" />
</g>
<g style="fill:#000000; fill-opacity:0.0; 
stroke:#000000; stroke-width:39.3701; stroke-opacity:1; 
stroke-linecap:round; stroke-linejoin:round;">
</g>
<g style="fill:#000000; fill-opacity:0.0; 
stroke:#000000; stroke-width:59.0551; stroke-opacity:1; 
stroke-linecap:round; stroke-linejoin:round;">
<path d="M4489 53332
L4464 53356
L4391 53381
L4342 53381
L4269 53356
L4221 53308
L4196 53259
L4172 53161
L4172 53088
L4196 52991
L4221 52942
L4269 52893
L4342 52869
L4391 52869
L4464 52893
L4489 52918
" />
</g>
<g style="fill:#000000; fill-opacity:0.0; 
stroke:#000000; stroke-width:39.3701; stroke-opacity:1; 
stroke-linecap:round; stroke-linejoin:round;">
</g>
<g style="fill:#000000; fill-opacity:0.0; 
stroke:#000000; stroke-width:59.0551; stroke-opacity:1; 
stroke-linecap:round; stroke-linejoin:round;">
<path d="M4196 73066
L4196 72554
L4318 72554
L4391 72578
L4440 72627
L4464 72676
L4489 72773
L4489 72846
L4464 72944
L4440 72993
L4391 73041
L4318 73066
L4196 73066
" />
</g>
<g style="fill:#000000; fill-opacity:0.0; 
stroke:#000000; stroke-width:39.3701; stroke-opacity:1; 
stroke-linecap:round; stroke-linejoin:round;">
</g>
<g style="fill:#000000; fill-opacity:0.0; 
stroke:#000000; stroke-width:59.0551; stroke-opacity:1; 
stroke-linecap:round; stroke-linejoin:round;">
<path d="M112992 23622
L112205 23622
" />
</g>
<g style="fill:#000000; fill-opacity:0.0; 
stroke:#000000; stroke-width:39.3701; stroke-opacity:1; 
stroke-linecap:round; stroke-linejoin:round;">
</g>
<g style="fill:#000000; fill-opacity:0.0; 
stroke:#000000; stroke-width:59.0551; stroke-opacity:1; 
stroke-linecap:round; stroke-linejoin:round;">
<path d="M112992 43307
L112205 43307
" />
</g>
<g style="fill:#000000; fill-opacity:0.0; 
stroke:#000000; stroke-width:39.3701; stroke-opacity:1; 
stroke-linecap:round; stroke-linejoin:round;">
</g>
<g style="fill:#000000; fill-opacity:0.0; 
stroke:#000000; stroke-width:59.0551; stroke-opacity:1; 
stroke-linecap:round; stroke-linejoin:round;">
<path d="M112992 62992
L112205 62992
" />
</g>
<g style="fill:#000000; fill-opacity:0.0; 
stroke:#000000; stroke-width:39.3701; stroke-opacity:1; 
stroke-linecap:round; stroke-linejoin:round;">
</g>
<g style="fill:#000000; fill-opacity:0.0; 
stroke:#000000; stroke-width:59.0551; stroke-opacity:1; 
stroke-linecap:round; stroke-linejoin:round;">
<path d="M112477 13864
L112721 13864
" />
<path d="M112428 14011
L112599 13499
L112769 14011
" />
</g>
<g style="fill:#000000; fill-opacity:0.0; 
stroke:#000000; stroke-width:39.3701; stroke-opacity:1; 
stroke-linecap:round; stroke-linejoin:round;">
</g>
<g style="fill:#000000; fill-opacity:0.0; 
stroke:#000000; stroke-width:59.0551; stroke-opacity:1; 
stroke-linecap:round; stroke-linejoin:round;">
<path d="M112635 33428
L112708 33452
L112733 33476
L112757 33525
L112757 33598
L112733 33647
L112708 33671
L112660 33696
L112465 33696
L112465 33184
L112635 33184
L112684 33208
L112708 33233
L112733 33281
L112733 33330
L112708 33379
L112684 33403
L112635 33428
L112465 33428
" />
</g>
<g style="fill:#000000; fill-opacity:0.0; 
stroke:#000000; stroke-width:39.3701; stroke-opacity:1; 
stroke-linecap:round; stroke-linejoin:round;">
</g>
<g style="fill:#000000; fill-opacity:0.0; 
stroke:#000000; stroke-width:59.0551; stroke-opacity:1; 
stroke-linecap:round; stroke-linejoin:round;">
<path d="M112757 53332
L112733 53356
L112660 53381
L112611 53381
L112538 53356
L112489 53308
L112465 53259
L112440 53161
L112440 53088
L112465 52991
L112489 52942
L112538 52893
L112611 52869
L112660 52869
L112733 52893
L112757 52918
" />
</g>
<g style="fill:#000000; fill-opacity:0.0; 
stroke:#000000; stroke-width:39.3701; stroke-opacity:1; 
stroke-linecap:round; stroke-linejoin:round;">
</g>
<g style="fill:#000000; fill-opacity:0.0; 
stroke:#000000; stroke-width:59.0551; stroke-opacity:1; 
stroke-linecap:round; stroke-linejoin:round;">
<path d="M112465 73066
L112465 72554
L112587 72554
L112660 72578
L112708 72627
L112733 72676
L112757 72773
L112757 72846
L112733 72944
L112708 72993
L112660 73041
L112587 73066
L112465 73066
" />
</g>
<g style="fill:#000000; fill-opacity:0.0; 
stroke:#000000; stroke-width:39.3701; stroke-opacity:1; 
stroke-linecap:round; stroke-linejoin:round;">
</g>
<g style="fill:#000000; fill-opacity:0.0; 
stroke:#000000; stroke-width:59.0551; stroke-opacity:1; 
stroke-linecap:round; stroke-linejoin:round;">
<path d="M78881 76293
L78881 75703
L79022 75703
L79106 75731
L79162 75787
L79190 75843
L79219 75956
L79219 76040
L79190 76153
L79162 76209
L79106 76265
L79022 76293
L78881 76293
" />
<path d="M79725 76293
L79725 75984
L79697 75928
L79640 75899
L79528 75899
L79472 75928
" />
<path d="M79725 76265
L79669 76293
L79528 76293
L79472 76265
L79444 76209
L79444 76153
L79472 76096
L79528 76068
L79669 76068
L79725 76040
" />
<path d="M79922 75899
L80147 75899
" />
<path d="M80006 75703
L80006 76209
L80034 76265
L80090 76293
L80147 76293
" />
<path d="M80568 76265
L80512 76293
L80400 76293
L80343 76265
L80315 76209
L80315 75984
L80343 75928
L80400 75899
L80512 75899
L80568 75928
L80597 75984
L80597 76040
L80315 76096
" />
<path d="M80850 76237
L80878 76265
L80850 76293
L80822 76265
L80850 76237
L80850 76293
" />
<path d="M80850 75928
L80878 75956
L80850 75984
L80822 75956
L80850 75928
L80850 75984
" />
<path d="M81553 75759
L81581 75731
L81637 75703
L81778 75703
L81834 75731
L81862 75759
L81890 75815
L81890 75871
L81862 75956
L81525 76293
L81890 76293
" />
<path d="M82256 75703
L82312 75703
L82368 75731
L82396 75759
L82424 75815
L82453 75928
L82453 76068
L82424 76181
L82396 76237
L82368 76265
L82312 76293
L82256 76293
L82199 76265
L82171 76237
L82143 76181
L82115 76068
L82115 75928
L82143 75815
L82171 75759
L82199 75731
L82256 75703
" />
<path d="M83015 76293
L82678 76293
" />
<path d="M82846 76293
L82846 75703
L82790 75787
L82734 75843
L82678 75871
" />
<path d="M83549 75703
L83268 75703
L83240 75984
L83268 75956
L83324 75928
L83465 75928
L83521 75956
L83549 75984
L83577 76040
L83577 76181
L83549 76237
L83521 76265
L83465 76293
L83324 76293
L83268 76265
L83240 76237
" />
<path d="M83831 76068
L84280 76068
" />
<path d="M84871 76293
L84534 76293
" />
<path d="M84702 76293
L84702 75703
L84646 75787
L84590 75843
L84534 75871
" />
<path d="M85237 75703
L85293 75703
L85349 75731
L85377 75759
L85405 75815
L85433 75928
L85433 76068
L85405 76181
L85377 76237
L85349 76265
L85293 76293
L85237 76293
L85180 76265
L85152 76237
L85124 76181
L85096 76068
L85096 75928
L85124 75815
L85152 75759
L85180 75731
L85237 75703
" />
<path d="M85687 76068
L86136 76068
" />
<path d="M86727 76293
L86390 76293
" />
<path d="M86558 76293
L86558 75703
L86502 75787
L86446 75843
L86390 75871
" />
<path d="M87008 76293
L87121 76293
L87177 76265
L87205 76237
L87261 76153
L87289 76040
L87289 75815
L87261 75759
L87233 75731
L87177 75703
L87064 75703
L87008 75731
L86980 75759
L86952 75815
L86952 75956
L86980 76012
L87008 76040
L87064 76068
L87177 76068
L87233 76040
L87261 76012
L87289 75956
" />
</g>
<g style="fill:#000000; fill-opacity:0.0; 
stroke:#000000; stroke-width:39.3701; stroke-opacity:1; 
stroke-linecap:round; stroke-linejoin:round;">
</g>
<g style="fill:#000000; fill-opacity:0.0; 
stroke:#000000; stroke-width:59.0551; stroke-opacity:1; 
stroke-linecap:round; stroke-linejoin:round;">
<path d="M69685 76577
L112205 76577
" />
</g>
<g style="fill:#000000; fill-opacity:0.0; 
stroke:#000000; stroke-width:39.3701; stroke-opacity:1; 
stroke-linecap:round; stroke-linejoin:round;">
</g>
<g style="fill:#000000; fill-opacity:0.0; 
stroke:#000000; stroke-width:59.0551; stroke-opacity:1; 
stroke-linecap:round; stroke-linejoin:round;">
<path d="M70220 77395
L70220 76805
" />
<path d="M70557 77395
L70304 77058
" />
<path d="M70557 76805
L70220 77142
" />
<path d="M70810 77395
L70810 77002
" />
<path d="M70810 76805
L70782 76833
L70810 76861
L70838 76833
L70810 76805
L70810 76861
" />
<path d="M71429 77339
L71401 77367
L71316 77395
L71260 77395
L71176 77367
L71120 77311
L71091 77255
L71063 77142
L71063 77058
L71091 76946
L71120 76889
L71176 76833
L71260 76805
L71316 76805
L71401 76833
L71429 76861
" />
<path d="M71935 77395
L71935 77086
L71907 77030
L71851 77002
L71738 77002
L71682 77030
" />
<path d="M71935 77367
L71879 77395
L71738 77395
L71682 77367
L71654 77311
L71654 77255
L71682 77199
L71738 77171
L71879 77171
L71935 77142
" />
<path d="M72469 77395
L72469 76805
" />
<path d="M72469 77367
L72413 77395
L72301 77395
L72244 77367
L72216 77339
L72188 77283
L72188 77114
L72216 77058
L72244 77030
L72301 77002
L72413 77002
L72469 77030
" />
<path d="M73201 77086
L73397 77086
" />
<path d="M73482 77395
L73201 77395
L73201 76805
L73482 76805
" />
<path d="M73735 77339
L73763 77367
L73735 77395
L73707 77367
L73735 77339
L73735 77395
" />
<path d="M74016 77395
L74016 76805
L74157 76805
L74241 76833
L74297 76889
L74325 76946
L74354 77058
L74354 77142
L74325 77255
L74297 77311
L74241 77367
L74157 77395
L74016 77395
" />
<path d="M74607 77339
L74635 77367
L74607 77395
L74579 77367
L74607 77339
L74607 77395
" />
<path d="M74860 77227
L75141 77227
" />
<path d="M74804 77395
L75000 76805
L75197 77395
" />
<path d="M75394 77339
L75422 77367
L75394 77395
L75366 77367
L75394 77339
L75394 77395
" />
<path d="M76575 77395
L76575 76805
" />
<path d="M76631 77171
L76800 77395
" />
<path d="M76800 77002
L76575 77227
" />
<path d="M77053 77395
L77053 77002
" />
<path d="M77053 76805
L77025 76833
L77053 76861
L77081 76833
L77053 76805
L77053 76861
" />
<path d="M77588 77367
L77531 77395
L77419 77395
L77363 77367
L77334 77339
L77306 77283
L77306 77114
L77334 77058
L77363 77030
L77419 77002
L77531 77002
L77588 77030
" />
<path d="M78094 77395
L78094 77086
L78066 77030
L78009 77002
L77897 77002
L77841 77030
" />
<path d="M78094 77367
L78037 77395
L77897 77395
L77841 77367
L77813 77311
L77813 77255
L77841 77199
L77897 77171
L78037 77171
L78094 77142
" />
<path d="M78628 77395
L78628 76805
" />
<path d="M78628 77367
L78572 77395
L78459 77395
L78403 77367
L78375 77339
L78347 77283
L78347 77114
L78375 77058
L78403 77030
L78459 77002
L78572 77002
L78628 77030
" />
<path d="M79472 76805
L79528 76805
L79584 76833
L79612 76861
L79640 76917
L79669 77030
L79669 77171
L79640 77283
L79612 77339
L79584 77367
L79528 77395
L79472 77395
L79415 77367
L79387 77339
L79359 77283
L79331 77171
L79331 77030
L79359 76917
L79387 76861
L79415 76833
L79472 76805
" />
<path d="M79922 77339
L79950 77367
L79922 77395
L79894 77367
L79922 77339
L79922 77395
" />
<path d="M80175 76861
L80203 76833
L80259 76805
L80400 76805
L80456 76833
L80484 76861
L80512 76917
L80512 76974
L80484 77058
L80147 77395
L80512 77395
" />
<path d="M80878 76805
L80934 76805
L80990 76833
L81018 76861
L81046 76917
L81075 77030
L81075 77171
L81046 77283
L81018 77339
L80990 77367
L80934 77395
L80878 77395
L80822 77367
L80793 77339
L80765 77283
L80737 77171
L80737 77030
L80765 76917
L80793 76861
L80822 76833
L80878 76805
" />
<path d="M81637 77395
L81300 77395
" />
<path d="M81468 77395
L81468 76805
L81412 76889
L81356 76946
L81300 76974
" />
<path d="M82143 76805
L82031 76805
L81974 76833
L81946 76861
L81890 76946
L81862 77058
L81862 77283
L81890 77339
L81918 77367
L81974 77395
L82087 77395
L82143 77367
L82171 77339
L82199 77283
L82199 77142
L82171 77086
L82143 77058
L82087 77030
L81974 77030
L81918 77058
L81890 77086
L81862 77142
" />
<path d="M82565 76805
L82621 76805
L82678 76833
L82706 76861
L82734 76917
L82762 77030
L82762 77171
L82734 77283
L82706 77339
L82678 77367
L82621 77395
L82565 77395
L82509 77367
L82481 77339
L82453 77283
L82424 77171
L82424 77030
L82453 76917
L82481 76861
L82509 76833
L82565 76805
" />
<path d="M83324 77395
L82987 77395
" />
<path d="M83156 77395
L83156 76805
L83099 76889
L83043 76946
L82987 76974
" />
<path d="M83549 76861
L83577 76833
L83634 76805
L83774 76805
L83831 76833
L83859 76861
L83887 76917
L83887 76974
L83859 77058
L83521 77395
L83887 77395
" />
<path d="M84084 76805
L84449 76805
L84252 77030
L84337 77030
L84393 77058
L84421 77086
L84449 77142
L84449 77283
L84421 77339
L84393 77367
L84337 77395
L84168 77395
L84112 77367
L84084 77339
" />
<path d="M85012 77395
L84674 77395
" />
<path d="M84843 77395
L84843 76805
L84787 76889
L84730 76946
L84674 76974
" />
<path d="M85546 76805
L85265 76805
L85237 77086
L85265 77058
L85321 77030
L85462 77030
L85518 77058
L85546 77086
L85574 77142
L85574 77283
L85546 77339
L85518 77367
L85462 77395
L85321 77395
L85265 77367
L85237 77339
" />
<path d="M85771 76805
L86136 76805
L85940 77030
L86024 77030
L86080 77058
L86108 77086
L86136 77142
L86136 77283
L86108 77339
L86080 77367
L86024 77395
L85855 77395
L85799 77367
L85771 77339
" />
<path d="M86699 77395
L86361 77395
" />
<path d="M86530 77395
L86530 76805
L86474 76889
L86418 76946
L86361 76974
" />
<path d="M86952 77171
L87402 77171
" />
<path d="M87177 77395
L87177 76946
" />
<path d="M87936 76805
L87824 76805
L87768 76833
L87739 76861
L87683 76946
L87655 77058
L87655 77283
L87683 77339
L87711 77367
L87768 77395
L87880 77395
L87936 77367
L87964 77339
L87992 77283
L87992 77142
L87964 77086
L87936 77058
L87880 77030
L87768 77030
L87711 77058
L87683 77086
L87655 77142
" />
<path d="M88527 76805
L88246 76805
L88217 77086
L88246 77058
L88302 77030
L88442 77030
L88499 77058
L88527 77086
L88555 77142
L88555 77283
L88527 77339
L88499 77367
L88442 77395
L88302 77395
L88246 77367
L88217 77339
" />
<path d="M88920 76805
L88977 76805
L89033 76833
L89061 76861
L89089 76917
L89117 77030
L89117 77171
L89089 77283
L89061 77339
L89033 77367
L88977 77395
L88920 77395
L88864 77367
L88836 77339
L88808 77283
L88780 77171
L88780 77030
L88808 76917
L88836 76861
L88864 76833
L88920 76805
" />
<path d="M89455 77058
L89399 77030
L89370 77002
L89342 76946
L89342 76917
L89370 76861
L89399 76833
L89455 76805
L89567 76805
L89624 76833
L89652 76861
L89680 76917
L89680 76946
L89652 77002
L89624 77030
L89567 77058
L89455 77058
L89399 77086
L89370 77114
L89342 77171
L89342 77283
L89370 77339
L89399 77367
L89455 77395
L89567 77395
L89624 77367
L89652 77339
L89680 77283
L89680 77171
L89652 77114
L89624 77086
L89567 77058
" />
<path d="M90186 77002
L90186 77395
" />
<path d="M90045 76777
L89905 77199
L90270 77199
" />
<path d="M90467 76861
L90495 76833
L90552 76805
L90692 76805
L90748 76833
L90777 76861
L90805 76917
L90805 76974
L90777 77058
L90439 77395
L90805 77395
" />
<path d="M89792 76703
L90917 76703
" />
<path d="M91311 77002
L91311 77395
" />
<path d="M91058 77002
L91058 77311
L91086 77367
L91142 77395
L91226 77395
L91283 77367
L91311 77339
" />
<path d="M91592 77395
L91592 76805
" />
<path d="M91592 77030
L91648 77002
L91761 77002
L91817 77030
L91845 77058
L91873 77114
L91873 77283
L91845 77339
L91817 77367
L91761 77395
L91648 77395
L91592 77367
" />
<path d="M92379 77002
L92379 77395
" />
<path d="M92126 77002
L92126 77311
L92154 77367
L92211 77395
L92295 77395
L92351 77367
L92379 77339
" />
<path d="M92661 77002
L92661 77395
" />
<path d="M92661 77058
L92689 77030
L92745 77002
L92829 77002
L92886 77030
L92914 77086
L92914 77395
" />
<path d="M93111 77002
L93336 77002
" />
<path d="M93195 76805
L93195 77311
L93223 77367
L93279 77395
L93336 77395
" />
<path d="M93786 77002
L93786 77395
" />
<path d="M93532 77002
L93532 77311
L93561 77367
L93617 77395
L93701 77395
L93757 77367
L93786 77339
" />
<path d="M94376 77395
L94039 77395
" />
<path d="M94207 77395
L94207 76805
L94151 76889
L94095 76946
L94039 76974
" />
<path d="M94882 77002
L94882 77395
" />
<path d="M94742 76777
L94601 77199
L94967 77199
" />
<path d="M95192 77339
L95220 77367
L95192 77395
L95163 77367
L95192 77339
L95192 77395
" />
<path d="M95585 76805
L95642 76805
L95698 76833
L95726 76861
L95754 76917
L95782 77030
L95782 77171
L95754 77283
L95726 77339
L95698 77367
L95642 77395
L95585 77395
L95529 77367
L95501 77339
L95473 77283
L95445 77171
L95445 77030
L95473 76917
L95501 76861
L95529 76833
L95585 76805
" />
<path d="M96288 77002
L96288 77395
" />
<path d="M96148 76777
L96007 77199
L96373 77199
" />
<path d="M96598 77339
L96626 77367
L96598 77395
L96570 77367
L96598 77339
L96598 77395
" />
<path d="M97188 77395
L96851 77395
" />
<path d="M97019 77395
L97019 76805
L96963 76889
L96907 76946
L96851 76974
" />
<path d="M97441 77171
L97891 77171
" />
<path d="M98172 77002
L98172 77592
" />
<path d="M98172 77030
L98229 77002
L98341 77002
L98397 77030
L98426 77058
L98454 77114
L98454 77283
L98426 77339
L98397 77367
L98341 77395
L98229 77395
L98172 77367
" />
<path d="M98707 77395
L98707 77002
" />
<path d="M98707 77114
L98735 77058
L98763 77030
L98819 77002
L98876 77002
" />
<path d="M99157 77395
L99100 77367
L99072 77339
L99044 77283
L99044 77114
L99072 77058
L99100 77030
L99157 77002
L99241 77002
L99297 77030
L99325 77058
L99354 77114
L99354 77283
L99325 77339
L99297 77367
L99241 77395
L99157 77395
" />
<path d="M99860 77395
L99860 76805
" />
<path d="M99860 77367
L99804 77395
L99691 77395
L99635 77367
L99607 77339
L99579 77283
L99579 77114
L99607 77058
L99635 77030
L99691 77002
L99804 77002
L99860 77030
" />
<path d="M100394 77002
L100394 77395
" />
<path d="M100141 77002
L100141 77311
L100169 77367
L100225 77395
L100310 77395
L100366 77367
L100394 77339
" />
<path d="M100928 77367
L100872 77395
L100760 77395
L100703 77367
L100675 77339
L100647 77283
L100647 77114
L100675 77058
L100703 77030
L100760 77002
L100872 77002
L100928 77030
" />
<path d="M101097 77002
L101322 77002
" />
<path d="M101181 76805
L101181 77311
L101210 77367
L101266 77395
L101322 77395
" />
</g>
<g style="fill:#000000; fill-opacity:0.0; 
stroke:#000000; stroke-width:39.3701; stroke-opacity:1; 
stroke-linecap:round; stroke-linejoin:round;">
</g>
<g style="fill:#000000; fill-opacity:0.0; 
stroke:#000000; stroke-width:59.0551; stroke-opacity:1; 
stroke-linecap:round; stroke-linejoin:round;">
<path d="M69685 75396
L112205 75396
" />
</g>
<g style="fill:#000000; fill-opacity:0.0; 
stroke:#000000; stroke-width:39.3701; stroke-opacity:1; 
stroke-linecap:round; stroke-linejoin:round;">
</g>
<g style="fill:#000000; fill-opacity:0.0; 
stroke:#000000; stroke-width:118.11; stroke-opacity:1; 
stroke-linecap:round; stroke-linejoin:round;">
<path d="M104022 76293
L103825 76012
" />
<path d="M103684 76293
L103684 75703
L103909 75703
L103965 75731
L103994 75759
L104022 75815
L104022 75899
L103994 75956
L103965 75984
L103909 76012
L103684 76012
" />
<path d="M104500 76265
L104444 76293
L104331 76293
L104275 76265
L104247 76209
L104247 75984
L104275 75928
L104331 75899
L104444 75899
L104500 75928
L104528 75984
L104528 76040
L104247 76096
" />
<path d="M104725 75899
L104865 76293
L105006 75899
" />
<path d="M105231 76237
L105259 76265
L105231 76293
L105203 76265
L105231 76237
L105231 76293
" />
<path d="M105231 75928
L105259 75956
L105231 75984
L105203 75956
L105231 75928
L105231 75984
" />
<path d="M106271 76293
L105934 76293
" />
<path d="M106103 76293
L106103 75703
L106046 75787
L105990 75843
L105934 75871
" />
<path d="M106525 76237
L106553 76265
L106525 76293
L106496 76265
L106525 76237
L106525 76293
" />
<path d="M106918 75703
L106974 75703
L107031 75731
L107059 75759
L107087 75815
L107115 75928
L107115 76068
L107087 76181
L107059 76237
L107031 76265
L106974 76293
L106918 76293
L106862 76265
L106834 76237
L106806 76181
L106778 76068
L106778 75928
L106806 75815
L106834 75759
L106862 75731
L106918 75703
" />
</g>
<g style="fill:#000000; fill-opacity:0.0; 
stroke:#000000; stroke-width:39.3701; stroke-opacity:1; 
stroke-linecap:round; stroke-linejoin:round;">
</g>
<g style="fill:#000000; fill-opacity:0.0; 
stroke:#000000; stroke-width:59.0551; stroke-opacity:1; 
stroke-linecap:round; stroke-linejoin:round;">
<path d="M70192 76265
L70276 76293
L70417 76293
L70473 76265
L70501 76237
L70529 76181
L70529 76124
L70501 76068
L70473 76040
L70417 76012
L70304 75984
L70248 75956
L70220 75928
L70192 75871
L70192 75815
L70220 75759
L70248 75731
L70304 75703
L70445 75703
L70529 75731
" />
<path d="M70782 76293
L70782 75899
" />
<path d="M70782 75703
L70754 75731
L70782 75759
L70810 75731
L70782 75703
L70782 75759
" />
<path d="M71007 75899
L71316 75899
L71007 76293
L71316 76293
" />
<path d="M71766 76265
L71710 76293
L71598 76293
L71541 76265
L71513 76209
L71513 75984
L71541 75928
L71598 75899
L71710 75899
L71766 75928
L71795 75984
L71795 76040
L71513 76096
" />
<path d="M72048 76237
L72076 76265
L72048 76293
L72019 76265
L72048 76237
L72048 76293
" />
<path d="M72048 75928
L72076 75956
L72048 75984
L72019 75956
L72048 75928
L72048 75984
" />
<path d="M72751 76124
L73032 76124
" />
<path d="M72694 76293
L72891 75703
L73088 76293
" />
<path d="M73538 75899
L73538 76293
" />
<path d="M73397 75674
L73257 76096
L73622 76096
" />
</g>
<g style="fill:#000000; fill-opacity:0.0; 
stroke:#000000; stroke-width:39.3701; stroke-opacity:1; 
stroke-linecap:round; stroke-linejoin:round;">
</g>
<g style="fill:#000000; fill-opacity:0.0; 
stroke:#000000; stroke-width:59.0551; stroke-opacity:1; 
stroke-linecap:round; stroke-linejoin:round;">
<path d="M103684 77395
L103684 76805
" />
<path d="M104219 77395
L104219 76805
" />
<path d="M104219 77367
L104162 77395
L104050 77395
L103994 77367
L103965 77339
L103937 77283
L103937 77114
L103965 77058
L103994 77030
L104050 77002
L104162 77002
L104219 77030
" />
<path d="M104500 77339
L104528 77367
L104500 77395
L104472 77367
L104500 77339
L104500 77395
" />
<path d="M104500 77030
L104528 77058
L104500 77086
L104472 77058
L104500 77030
L104500 77086
" />
<path d="M105540 77395
L105203 77395
" />
<path d="M105372 77395
L105372 76805
L105315 76889
L105259 76946
L105203 76974
" />
<path d="M106215 76777
L105709 77536
" />
<path d="M106721 77395
L106384 77395
" />
<path d="M106553 77395
L106553 76805
L106496 76889
L106440 76946
L106384 76974
" />
</g>
<g style="fill:#000000; fill-opacity:0.0; 
stroke:#000000; stroke-width:39.3701; stroke-opacity:1; 
stroke-linecap:round; stroke-linejoin:round;">
</g>
<g style="fill:#000000; fill-opacity:0.0; 
stroke:#000000; stroke-width:59.0551; stroke-opacity:1; 
stroke-linecap:round; stroke-linejoin:round;">
<path d="M69685 73821
L112205 73821
" />
</g>
<g style="fill:#000000; fill-opacity:0.0; 
stroke:#000000; stroke-width:39.3701; stroke-opacity:1; 
stroke-linecap:round; stroke-linejoin:round;">
</g>
<g style="fill:#000000; fill-opacity:0.0; 
stroke:#000000; stroke-width:157.48; stroke-opacity:1; 
stroke-linecap:round; stroke-linejoin:round;">
<path d="M70257 74099
L70707 74099
" />
<path d="M70384 74886
L70482 74099
" />
<path d="M70871 74886
L70937 74361
" />
<path d="M70970 74099
L70927 74136
L70960 74174
L71002 74136
L70970 74099
L70960 74174
" />
<path d="M71199 74361
L71499 74361
" />
<path d="M71345 74099
L71260 74774
L71288 74849
L71359 74886
L71434 74886
" />
<path d="M71809 74886
L71738 74849
L71710 74774
L71795 74099
" />
<path d="M72413 74849
L72334 74886
L72184 74886
L72113 74849
L72085 74774
L72123 74474
L72169 74399
L72249 74361
L72399 74361
L72469 74399
L72498 74474
L72488 74549
L72104 74624
" />
<path d="M72793 74811
L72826 74849
L72783 74886
L72751 74849
L72793 74811
L72783 74886
" />
<path d="M72844 74399
L72877 74436
L72835 74474
L72802 74436
L72844 74399
L72835 74474
" />
<path d="M74072 74474
L74180 74511
L74213 74549
L74241 74624
L74227 74736
L74180 74811
L74138 74849
L74058 74886
L73758 74886
L73857 74099
L74119 74099
L74190 74136
L74222 74174
L74250 74249
L74241 74324
L74194 74399
L74152 74436
L74072 74474
L73810 74474
" />
<path d="M74536 74661
L74911 74661
" />
<path d="M74433 74886
L74794 74099
L74958 74886
" />
<path d="M75207 74099
L75657 74099
" />
<path d="M75333 74886
L75432 74099
" />
<path d="M75788 74849
L75896 74886
L76083 74886
L76163 74849
L76205 74811
L76252 74736
L76261 74661
L76233 74586
L76200 74549
L76130 74511
L75985 74474
L75914 74436
L75882 74399
L75853 74324
L75863 74249
L75910 74174
L75952 74136
L76031 74099
L76219 74099
L76327 74136
" />
<path d="M77170 74886
L77269 74099
L77569 74099
L77639 74136
L77672 74174
L77700 74249
L77686 74361
L77639 74436
L77597 74474
L77517 74511
L77217 74511
" />
<path d="M78417 74811
L78375 74849
L78258 74886
L78183 74886
L78075 74849
L78009 74774
L77981 74699
L77962 74549
L77977 74436
L78033 74286
L78080 74211
L78164 74136
L78281 74099
L78356 74099
L78464 74136
L78497 74174
" />
<path d="M79059 74474
L79167 74511
L79200 74549
L79228 74624
L79214 74736
L79167 74811
L79125 74849
L79045 74886
L78745 74886
L78844 74099
L79106 74099
L79176 74136
L79209 74174
L79237 74249
L79228 74324
L79181 74399
L79139 74436
L79059 74474
L78797 74474
" />
</g>
<g style="fill:#000000; fill-opacity:0.0; 
stroke:#000000; stroke-width:39.3701; stroke-opacity:1; 
stroke-linecap:round; stroke-linejoin:round;">
</g>
<g style="fill:#000000; fill-opacity:0.0; 
stroke:#000000; stroke-width:59.0551; stroke-opacity:1; 
stroke-linecap:round; stroke-linejoin:round;">
<path d="M70417 73070
L70220 73070
" />
<path d="M70220 73380
L70220 72789
L70501 72789
" />
<path d="M70726 73380
L70726 72986
" />
<path d="M70726 72789
L70698 72817
L70726 72845
L70754 72817
L70726 72789
L70726 72845
" />
<path d="M71091 73380
L71035 73352
L71007 73295
L71007 72789
" />
<path d="M71541 73352
L71485 73380
L71373 73380
L71316 73352
L71288 73295
L71288 73070
L71316 73014
L71373 72986
L71485 72986
L71541 73014
L71570 73070
L71570 73127
L71288 73183
" />
<path d="M71823 73323
L71851 73352
L71823 73380
L71795 73352
L71823 73323
L71823 73380
" />
<path d="M71823 73014
L71851 73042
L71823 73070
L71795 73042
L71823 73014
L71823 73070
" />
<path d="M72554 73380
L72554 72789
" />
<path d="M72554 73014
L72610 72986
L72723 72986
L72779 73014
L72807 73042
L72835 73099
L72835 73267
L72807 73323
L72779 73352
L72723 73380
L72610 73380
L72554 73352
" />
<path d="M73341 73380
L73341 73070
L73313 73014
L73257 72986
L73144 72986
L73088 73014
" />
<path d="M73341 73352
L73285 73380
L73144 73380
L73088 73352
L73060 73295
L73060 73239
L73088 73183
L73144 73155
L73285 73155
L73341 73127
" />
<path d="M73538 72986
L73763 72986
" />
<path d="M73622 72789
L73622 73295
L73651 73352
L73707 73380
L73763 73380
" />
<path d="M73932 73352
L73988 73380
L74100 73380
L74157 73352
L74185 73295
L74185 73267
L74157 73211
L74100 73183
L74016 73183
L73960 73155
L73932 73099
L73932 73070
L73960 73014
L74016 72986
L74100 72986
L74157 73014
" />
<path d="M74438 73323
L74466 73352
L74438 73380
L74410 73352
L74438 73323
L74438 73380
" />
<path d="M74719 73380
L74719 72789
" />
<path d="M74775 73155
L74944 73380
" />
<path d="M74944 72986
L74719 73211
" />
<path d="M75197 73380
L75197 72986
" />
<path d="M75197 72789
L75169 72817
L75197 72845
L75225 72817
L75197 72789
L75197 72845
" />
<path d="M75732 73352
L75675 73380
L75563 73380
L75507 73352
L75478 73323
L75450 73267
L75450 73099
L75478 73042
L75507 73014
L75563 72986
L75675 72986
L75732 73014
" />
<path d="M76238 73380
L76238 73070
L76210 73014
L76153 72986
L76041 72986
L75985 73014
" />
<path d="M76238 73352
L76181 73380
L76041 73380
L75985 73352
L75956 73295
L75956 73239
L75985 73183
L76041 73155
L76181 73155
L76238 73127
" />
<path d="M76772 73380
L76772 72789
" />
<path d="M76772 73352
L76716 73380
L76603 73380
L76547 73352
L76519 73323
L76491 73267
L76491 73099
L76519 73042
L76547 73014
L76603 72986
L76716 72986
L76772 73014
" />
<path d="M76913 73436
L77363 73436
" />
<path d="M77503 72986
L77503 73577
" />
<path d="M77503 73014
L77559 72986
L77672 72986
L77728 73014
L77756 73042
L77784 73099
L77784 73267
L77756 73323
L77728 73352
L77672 73380
L77559 73380
L77503 73352
" />
<path d="M78291 73352
L78234 73380
L78122 73380
L78066 73352
L78037 73323
L78009 73267
L78009 73099
L78037 73042
L78066 73014
L78122 72986
L78234 72986
L78291 73014
" />
<path d="M78544 73380
L78544 72789
" />
<path d="M78544 73014
L78600 72986
L78712 72986
L78769 73014
L78797 73042
L78825 73099
L78825 73267
L78797 73323
L78769 73352
L78712 73380
L78600 73380
L78544 73352
" />
</g>
<g style="fill:#000000; fill-opacity:0.0; 
stroke:#000000; stroke-width:39.3701; stroke-opacity:1; 
stroke-linecap:round; stroke-linejoin:round;">
</g>
<g style="fill:#000000; fill-opacity:0.0; 
stroke:#000000; stroke-width:59.0551; stroke-opacity:1; 
stroke-linecap:round; stroke-linejoin:round;">
<path d="M69685 71459
L112205 71459
" />
</g>
<g style="fill:#000000; fill-opacity:0.0; 
stroke:#000000; stroke-width:39.3701; stroke-opacity:1; 
stroke-linecap:round; stroke-linejoin:round;">
</g>
<g style="fill:#000000; fill-opacity:0.0; 
stroke:#000000; stroke-width:59.0551; stroke-opacity:1; 
stroke-linecap:round; stroke-linejoin:round;">
<path d="M70192 72289
L70276 72317
L70417 72317
L70473 72289
L70501 72260
L70529 72204
L70529 72148
L70501 72092
L70473 72064
L70417 72036
L70304 72007
L70248 71979
L70220 71951
L70192 71895
L70192 71839
L70220 71782
L70248 71754
L70304 71726
L70445 71726
L70529 71754
" />
<path d="M70782 72317
L70782 71726
" />
<path d="M71035 72317
L71035 72007
L71007 71951
L70951 71923
L70867 71923
L70810 71951
L70782 71979
" />
<path d="M71541 72289
L71485 72317
L71373 72317
L71316 72289
L71288 72232
L71288 72007
L71316 71951
L71373 71923
L71485 71923
L71541 71951
L71570 72007
L71570 72064
L71288 72120
" />
<path d="M72048 72289
L71991 72317
L71879 72317
L71823 72289
L71795 72232
L71795 72007
L71823 71951
L71879 71923
L71991 71923
L72048 71951
L72076 72007
L72076 72064
L71795 72120
" />
<path d="M72244 71923
L72469 71923
" />
<path d="M72329 71726
L72329 72232
L72357 72289
L72413 72317
L72469 72317
" />
<path d="M72666 72260
L72694 72289
L72666 72317
L72638 72289
L72666 72260
L72666 72317
" />
<path d="M72666 71951
L72694 71979
L72666 72007
L72638 71979
L72666 71951
L72666 72007
" />
</g>
<g style="fill:#000000; fill-opacity:0.0; 
stroke:#000000; stroke-width:39.3701; stroke-opacity:1; 
stroke-linecap:round; stroke-linejoin:round;">
</g>
<g style="fill:#000000; fill-opacity:0.0; 
stroke:#000000; stroke-width:118.11; stroke-opacity:1; 
stroke-linecap:round; stroke-linejoin:round;">
<path d="M70417 70826
L70501 70854
L70529 70883
L70557 70939
L70557 71023
L70529 71079
L70501 71108
L70445 71136
L70220 71136
L70220 70545
L70417 70545
L70473 70573
L70501 70601
L70529 70658
L70529 70714
L70501 70770
L70473 70798
L70417 70826
L70220 70826
" />
<path d="M70810 71136
L70810 70742
" />
<path d="M70810 70854
L70838 70798
L70867 70770
L70923 70742
L70979 70742
" />
<path d="M71176 71136
L71176 70742
" />
<path d="M71176 70545
L71148 70573
L71176 70601
L71204 70573
L71176 70545
L71176 70601
" />
<path d="M71710 71108
L71654 71136
L71541 71136
L71485 71108
L71457 71079
L71429 71023
L71429 70854
L71457 70798
L71485 70770
L71541 70742
L71654 70742
L71710 70770
" />
<path d="M72048 71136
L71991 71108
L71963 71079
L71935 71023
L71935 70854
L71963 70798
L71991 70770
L72048 70742
L72132 70742
L72188 70770
L72216 70798
L72244 70854
L72244 71023
L72216 71079
L72188 71108
L72132 71136
L72048 71136
" />
<path d="M72779 71136
L72498 71136
L72498 70545
" />
<path d="M73229 71136
L73229 70826
L73201 70770
L73144 70742
L73032 70742
L72976 70770
" />
<path d="M73229 71108
L73172 71136
L73032 71136
L72976 71108
L72947 71051
L72947 70995
L72976 70939
L73032 70911
L73172 70911
L73229 70883
" />
<path d="M73510 71136
L73510 70545
" />
<path d="M73510 70770
L73566 70742
L73679 70742
L73735 70770
L73763 70798
L73791 70854
L73791 71023
L73763 71079
L73735 71108
L73679 71136
L73566 71136
L73510 71108
" />
<path d="M74016 71108
L74072 71136
L74185 71136
L74241 71108
L74269 71051
L74269 71023
L74241 70967
L74185 70939
L74100 70939
L74044 70911
L74016 70854
L74016 70826
L74044 70770
L74100 70742
L74185 70742
L74241 70770
" />
</g>
<g style="fill:#000000; fill-opacity:0.0; 
stroke:#000000; stroke-width:39.3701; stroke-opacity:1; 
stroke-linecap:round; stroke-linejoin:round;">
</g>
<g style="fill:#000000; fill-opacity:0.0; 
stroke:#000000; stroke-width:59.0551; stroke-opacity:1; 
stroke-linecap:round; stroke-linejoin:round;">
<path d="M77559 75396
L77559 76577
" />
</g>
<g style="fill:#000000; fill-opacity:0.0; 
stroke:#000000; stroke-width:39.3701; stroke-opacity:1; 
stroke-linecap:round; stroke-linejoin:round;">
</g>
<g style="fill:#000000; fill-opacity:0.0; 
stroke:#000000; stroke-width:59.0551; stroke-opacity:1; 
stroke-linecap:round; stroke-linejoin:round;">
<path d="M102756 75396
L102756 77955
" />
</g>
<g style="fill:#008484; fill-opacity:0.0; 
stroke:#008484; stroke-width:59.0551; stroke-opacity:1; 
stroke-linecap:round; stroke-linejoin:round;">
<path d="M69560 46951
L69166 46951
L69166 46857
L69185 46801
L69222 46763
L69260 46744
L69335 46726
L69391 46726
L69466 46744
L69503 46763
L69541 46801
L69560 46857
L69560 46951
" />
<path d="M69560 46557
L69166 46557
" />
<path d="M69185 46163
L69166 46201
L69166 46257
L69185 46313
L69222 46351
L69260 46370
L69335 46388
L69391 46388
L69466 46370
L69503 46351
L69541 46313
L69560 46257
L69560 46220
L69541 46163
L69522 46145
L69391 46145
L69391 46220
" />
<path d="M69203 45995
L69185 45976
L69166 45938
L69166 45845
L69185 45807
L69203 45788
L69241 45770
L69278 45770
L69335 45788
L69560 46013
L69560 45770
" />
<path d="M67200 41958
L67200 41564
L67294 41564
L67350 41583
L67388 41620
L67407 41658
L67425 41733
L67425 41789
L67407 41864
L67388 41901
L67350 41939
L67294 41958
L67200 41958
" />
<path d="M67594 41958
L67594 41564
" />
<path d="M67988 41583
L67950 41564
L67894 41564
L67838 41583
L67800 41620
L67782 41658
L67763 41733
L67763 41789
L67782 41864
L67800 41901
L67838 41939
L67894 41958
L67931 41958
L67988 41939
L68006 41920
L68006 41789
L67931 41789
" />
<path d="M68138 41564
L68381 41564
L68250 41714
L68306 41714
L68344 41733
L68363 41751
L68381 41789
L68381 41883
L68363 41920
L68344 41939
L68306 41958
L68194 41958
L68156 41939
L68138 41920
" />
<path d="M62015 44884
L62409 44884
L62409 44978
L62390 45034
L62353 45072
L62315 45091
L62240 45109
L62184 45109
L62109 45091
L62072 45072
L62034 45034
L62015 44978
L62015 44884
" />
<path d="M62015 45278
L62409 45278
" />
<path d="M62390 45672
L62409 45634
L62409 45578
L62390 45522
L62353 45484
L62315 45466
L62240 45447
L62184 45447
L62109 45466
L62072 45484
L62034 45522
L62015 45578
L62015 45615
L62034 45672
L62053 45690
L62184 45690
L62184 45615
" />
<path d="M62278 46028
L62015 46028
" />
<path d="M62428 45934
L62147 45840
L62147 46084
" />
<path d="M71520 38043
L71126 38043
L71126 37949
L71145 37893
L71182 37855
L71220 37836
L71295 37818
L71351 37818
L71426 37836
L71463 37855
L71501 37893
L71520 37949
L71520 38043
" />
<path d="M71520 37649
L71126 37649
" />
<path d="M71145 37255
L71126 37293
L71126 37349
L71145 37405
L71182 37443
L71220 37462
L71295 37480
L71351 37480
L71426 37462
L71463 37443
L71501 37405
L71520 37349
L71520 37312
L71501 37255
L71482 37237
L71351 37237
L71351 37312
" />
<path d="M71126 36880
L71126 37068
L71313 37087
L71295 37068
L71276 37030
L71276 36937
L71295 36899
L71313 36880
L71351 36862
L71445 36862
L71482 36880
L71501 36899
L71520 36937
L71520 37030
L71501 37068
L71482 37087
" />
<path d="M69879 49145
L70067 49145
" />
<path d="M69842 49258
L69973 48864
L70104 49258
" />
<path d="M70236 49258
L70236 48864
L70329 48864
L70386 48883
L70423 48920
L70442 48958
L70461 49033
L70461 49089
L70442 49164
L70423 49201
L70386 49239
L70329 49258
L70236 49258
" />
<path d="M70817 48864
L70629 48864
L70611 49051
L70629 49033
L70667 49014
L70761 49014
L70798 49033
L70817 49051
L70836 49089
L70836 49183
L70817 49220
L70798 49239
L70761 49258
L70667 49258
L70629 49239
L70611 49220
" />
<path d="M69229 50905
L69417 50905
" />
<path d="M69192 51018
L69323 50624
L69454 51018
" />
<path d="M69586 51018
L69586 50624
L69679 50624
L69736 50643
L69773 50680
L69792 50718
L69811 50793
L69811 50849
L69792 50924
L69773 50961
L69736 50999
L69679 51018
L69586 51018
" />
<path d="M70148 50755
L70148 51018
" />
<path d="M70054 50605
L69961 50886
L70204 50886
" />
<path d="M58023 41989
L58211 41989
" />
<path d="M57986 42102
L58117 41708
L58248 42102
" />
<path d="M58380 42102
L58380 41708
L58473 41708
L58530 41727
L58567 41764
L58586 41802
L58605 41877
L58605 41933
L58586 42008
L58567 42045
L58530 42083
L58473 42102
L58380 42102
" />
<path d="M58755 41745
L58773 41727
L58811 41708
L58905 41708
L58942 41727
L58961 41745
L58980 41783
L58980 41820
L58961 41877
L58736 42102
L58980 42102
" />
<path d="M58001 46853
L58189 46853
" />
<path d="M57964 46966
L58095 46572
L58226 46966
" />
<path d="M58358 46966
L58358 46572
L58451 46572
L58508 46591
L58545 46628
L58564 46666
L58583 46741
L58583 46797
L58564 46872
L58545 46909
L58508 46947
L58451 46966
L58358 46966
" />
<path d="M58958 46966
L58733 46966
" />
<path d="M58845 46966
L58845 46572
L58808 46628
L58770 46666
L58733 46684
" />
<path d="M59107 51623
L59295 51623
" />
<path d="M59070 51736
L59201 51342
L59332 51736
" />
<path d="M59464 51736
L59464 51342
L59557 51342
L59614 51361
L59651 51398
L59670 51436
L59689 51511
L59689 51567
L59670 51642
L59651 51679
L59614 51717
L59557 51736
L59464 51736
" />
<path d="M59932 51342
L59970 51342
L60007 51361
L60026 51379
L60045 51417
L60064 51492
L60064 51586
L60045 51661
L60026 51698
L60007 51717
L59970 51736
L59932 51736
L59895 51717
L59876 51698
L59857 51661
L59839 51586
L59839 51492
L59857 51417
L59876 51379
L59895 51361
L59932 51342
" />
</g>
<g style="fill:#008484; fill-opacity:0.0; 
stroke:#008484; stroke-width:98.4252; stroke-opacity:1; 
stroke-linecap:round; stroke-linejoin:round;">
<path d="M76684 48594
L76290 48594
" />
<path d="M76440 48594
L76421 48557
L76421 48482
L76440 48444
L76459 48425
L76496 48407
L76609 48407
L76646 48425
L76665 48444
L76684 48482
L76684 48557
L76665 48594
" />
<path d="M76421 48275
L76684 48182
" />
<path d="M76421 48088
L76684 48182
L76777 48219
L76796 48238
L76815 48275
" />
<path d="M76477 47507
L76496 47450
L76515 47432
L76552 47413
L76609 47413
L76646 47432
L76665 47450
L76684 47488
L76684 47638
L76290 47638
L76290 47507
L76309 47469
L76327 47450
L76365 47432
L76402 47432
L76440 47450
L76459 47469
L76477 47507
L76477 47638
" />
<path d="M76684 47244
L76421 47244
" />
<path d="M76496 47244
L76459 47225
L76440 47207
L76421 47169
L76421 47132
" />
<path d="M76684 47000
L76421 47000
" />
<path d="M76290 47000
L76309 47019
L76327 47000
L76309 46982
L76290 47000
L76327 47000
" />
<path d="M76665 46644
L76684 46682
L76684 46757
L76665 46794
L76646 46813
L76609 46832
L76496 46832
L76459 46813
L76440 46794
L76421 46757
L76421 46682
L76440 46644
" />
<path d="M76684 46419
L76665 46457
L76646 46476
L76609 46494
L76496 46494
L76459 46476
L76440 46457
L76421 46419
L76421 46363
L76440 46326
L76459 46307
L76496 46288
L76609 46288
L76646 46307
L76665 46326
L76684 46363
L76684 46419
" />
<path d="M76684 45932
L76684 46119
L76290 46119
" />
<path d="M76684 45632
L76477 45632
L76440 45651
L76421 45688
L76421 45763
L76440 45801
" />
<path d="M76665 45632
L76684 45669
L76684 45763
L76665 45801
L76627 45819
L76590 45819
L76552 45801
L76534 45763
L76534 45669
L76515 45632
" />
<path d="M76684 45444
L76290 45444
" />
<path d="M76440 45444
L76421 45407
L76421 45332
L76440 45294
L76459 45276
L76496 45257
L76609 45257
L76646 45276
L76665 45294
L76684 45332
L76684 45407
L76665 45444
" />
<path d="M76665 45107
L76684 45069
L76684 44994
L76665 44957
L76627 44938
L76609 44938
L76571 44957
L76552 44994
L76552 45051
L76534 45088
L76496 45107
L76477 45107
L76440 45088
L76421 45051
L76421 44994
L76440 44957
" />
</g>
<g style="fill:#C2C200; fill-opacity:0.0; 
stroke:#C2C200; stroke-width:98.4252; stroke-opacity:1; 
stroke-linecap:round; stroke-linejoin:round;">
</g>
<g style="fill:#C2C200; fill-opacity:0.0; 
stroke:#C2C200; stroke-width:39.3701; stroke-opacity:1; 
stroke-linecap:round; stroke-linejoin:round;">
<path d="M49930 54300
L49930 33460
" />
<path d="M76050 54300
L49930 54300
" />
<path d="M76050 53260
L76050 54300
" />
<path d="M77040 52270
L76050 53260
" />
<path d="M77040 39210
L77040 52270
" />
<path d="M76050 38220
L77040 39210
" />
<path d="M76050 33720
L76050 38220
" />
<path d="M75510 33180
L76050 33720
" />
<path d="M49930 33180
L75510 33180
" />
<path d="M49930 33460
L49930 33180
" />
</g>
<g style="fill:#008484; fill-opacity:0.0; 
stroke:#008484; stroke-width:39.3701; stroke-opacity:1; 
stroke-linecap:round; stroke-linejoin:round;">
</g>
<g style="fill:#008484; fill-opacity:0.0; 
stroke:#008484; stroke-width:120; stroke-opacity:1; 
stroke-linecap:round; stroke-linejoin:round;">
<path d="M50505 31994
L50591 32023
L50734 32023
L50791 31994
L50819 31966
L50848 31909
L50848 31852
L50819 31794
L50791 31766
L50734 31737
L50619 31709
L50562 31680
L50534 31652
L50505 31594
L50505 31537
L50534 31480
L50562 31452
L50619 31423
L50762 31423
L50848 31452
" />
<path d="M51105 32023
L51105 31423
" />
<path d="M51105 31709
L51448 31709
" />
<path d="M51448 32023
L51448 31423
" />
<path d="M51734 32023
L51734 31423
" />
<path d="M52019 31709
L52219 31709
" />
<path d="M52305 32023
L52019 32023
L52019 31423
L52305 31423
" />
<path d="M52848 32023
L52562 32023
L52562 31423
" />
<path d="M53048 32023
L53048 31423
L53191 31423
L53276 31452
L53333 31509
L53362 31566
L53391 31680
L53391 31766
L53362 31880
L53333 31937
L53276 31994
L53191 32023
L53048 32023
" />
<path d="M53962 32023
L53619 32023
" />
<path d="M53791 32023
L53791 31423
L53733 31509
L53676 31566
L53619 31594
" />
</g>
<g style="fill:#C2C200; fill-opacity:0.0; 
stroke:#C2C200; stroke-width:120; stroke-opacity:1; 
stroke-linecap:round; stroke-linejoin:round;">
</g>
<g style="fill:#C2C200; fill-opacity:0.0; 
stroke:#C2C200; stroke-width:59.0551; stroke-opacity:1; 
stroke-linecap:round; stroke-linejoin:round;">
<path d="M75769 48218
L75788 48162
L75807 48143
L75844 48124
L75901 48124
L75938 48143
L75957 48162
L75976 48199
L75976 48349
L75582 48349
L75582 48218
L75601 48181
L75619 48162
L75657 48143
L75694 48143
L75732 48162
L75751 48181
L75769 48218
L75769 48349
" />
<path d="M75863 47974
L75863 47787
" />
<path d="M75976 48012
L75582 47881
L75976 47750
" />
<path d="M75582 47675
L75582 47450
" />
<path d="M75976 47562
L75582 47562
" />
<path d="M75957 47337
L75976 47281
L75976 47187
L75957 47150
L75938 47131
L75901 47112
L75863 47112
L75826 47131
L75807 47150
L75788 47187
L75769 47262
L75751 47300
L75732 47318
L75694 47337
L75657 47337
L75619 47318
L75601 47300
L75582 47262
L75582 47168
L75601 47112
" />
<path d="M75713 46681
L75976 46587
L75713 46493
" />
<path d="M75619 46062
L75601 46043
L75582 46006
L75582 45912
L75601 45875
L75619 45856
L75657 45837
L75694 45837
L75751 45856
L75976 46081
L75976 45837
" />
<path d="M75938 45669
L75957 45650
L75976 45669
L75957 45687
L75938 45669
L75976 45669
" />
<path d="M75582 45406
L75582 45369
L75601 45331
L75619 45312
L75657 45294
L75732 45275
L75826 45275
L75901 45294
L75938 45312
L75957 45331
L75976 45369
L75976 45406
L75957 45444
L75938 45462
L75901 45481
L75826 45500
L75732 45500
L75657 45481
L75619 45462
L75601 45444
L75582 45406
" />
<path d="M59310 37097
L59179 36909
" />
<path d="M59085 37097
L59085 36703
L59235 36703
L59272 36722
L59291 36740
L59310 36778
L59310 36834
L59291 36872
L59272 36890
L59235 36909
L59085 36909
" />
<path d="M59441 36703
L59704 36703
L59535 37097
" />
<path d="M59237 36047
L59106 35859
" />
<path d="M59012 36047
L59012 35653
L59162 35653
L59199 35672
L59218 35690
L59237 35728
L59237 35784
L59218 35822
L59199 35840
L59162 35859
L59012 35859
" />
<path d="M59574 35653
L59499 35653
L59462 35672
L59443 35690
L59406 35747
L59387 35822
L59387 35972
L59406 36009
L59424 36028
L59462 36047
L59537 36047
L59574 36028
L59593 36009
L59612 35972
L59612 35878
L59593 35840
L59574 35822
L59537 35803
L59462 35803
L59424 35822
L59406 35840
L59387 35878
" />
<path d="M63455 48833
L63324 48645
" />
<path d="M63230 48833
L63230 48439
L63380 48439
L63417 48458
L63436 48476
L63455 48514
L63455 48570
L63436 48608
L63417 48626
L63380 48645
L63230 48645
" />
<path d="M63642 48833
L63717 48833
L63755 48814
L63774 48795
L63811 48739
L63830 48664
L63830 48514
L63811 48476
L63792 48458
L63755 48439
L63680 48439
L63642 48458
L63624 48476
L63605 48514
L63605 48608
L63624 48645
L63642 48664
L63680 48683
L63755 48683
L63792 48664
L63811 48645
L63830 48608
" />
<path d="M71327 43563
L71196 43375
" />
<path d="M71102 43563
L71102 43169
L71252 43169
L71290 43188
L71309 43206
L71327 43244
L71327 43300
L71309 43338
L71290 43356
L71252 43375
L71102 43375
" />
<path d="M71702 43563
L71477 43563
" />
<path d="M71590 43563
L71590 43169
L71552 43225
L71515 43263
L71477 43281
" />
<path d="M71946 43169
L71984 43169
L72021 43188
L72040 43206
L72059 43244
L72077 43319
L72077 43413
L72059 43488
L72040 43525
L72021 43544
L71984 43563
L71946 43563
L71909 43544
L71890 43525
L71871 43488
L71852 43413
L71852 43319
L71871 43244
L71890 43206
L71909 43188
L71946 43169
" />
<path d="M63317 44573
L63186 44385
" />
<path d="M63092 44573
L63092 44179
L63242 44179
L63280 44198
L63299 44216
L63317 44254
L63317 44310
L63299 44348
L63280 44366
L63242 44385
L63092 44385
" />
<path d="M63692 44573
L63467 44573
" />
<path d="M63580 44573
L63580 44179
L63542 44235
L63505 44273
L63467 44291
" />
<path d="M64067 44573
L63842 44573
" />
<path d="M63955 44573
L63955 44179
L63917 44235
L63880 44273
L63842 44291
" />
<path d="M63169 49863
L63038 49675
" />
<path d="M62944 49863
L62944 49469
L63094 49469
L63132 49488
L63151 49506
L63169 49544
L63169 49600
L63151 49638
L63132 49656
L63094 49675
L62944 49675
" />
<path d="M63544 49863
L63319 49863
" />
<path d="M63432 49863
L63432 49469
L63394 49525
L63357 49563
L63319 49581
" />
<path d="M63694 49506
L63713 49488
L63751 49469
L63844 49469
L63882 49488
L63901 49506
L63919 49544
L63919 49581
L63901 49638
L63676 49863
L63919 49863
" />
<path d="M71762 48543
L71631 48355
" />
<path d="M71537 48543
L71537 48149
L71687 48149
L71725 48168
L71744 48186
L71762 48224
L71762 48280
L71744 48318
L71725 48336
L71687 48355
L71537 48355
" />
<path d="M72137 48543
L71912 48543
" />
<path d="M72025 48543
L72025 48149
L71987 48205
L71950 48243
L71912 48261
" />
<path d="M72269 48149
L72512 48149
L72381 48299
L72437 48299
L72475 48318
L72494 48336
L72512 48374
L72512 48468
L72494 48505
L72475 48524
L72437 48543
L72325 48543
L72287 48524
L72269 48505
" />
<path d="M56239 50288
L56108 50100
" />
<path d="M56014 50288
L56014 49894
L56164 49894
L56201 49913
L56220 49931
L56239 49969
L56239 50025
L56220 50063
L56201 50081
L56164 50100
L56014 50100
" />
<path d="M56614 50288
L56389 50288
" />
<path d="M56501 50288
L56501 49894
L56464 49950
L56426 49988
L56389 50006
" />
<path d="M56239 51393
L56108 51205
" />
<path d="M56014 51393
L56014 50999
L56164 50999
L56201 51018
L56220 51036
L56239 51074
L56239 51130
L56220 51168
L56201 51186
L56164 51205
L56014 51205
" />
<path d="M56389 51036
L56408 51018
L56445 50999
L56539 50999
L56576 51018
L56595 51036
L56614 51074
L56614 51111
L56595 51168
L56370 51393
L56614 51393
" />
<path d="M62624 39368
L62493 39180
" />
<path d="M62399 39368
L62399 38974
L62549 38974
L62586 38993
L62605 39011
L62624 39049
L62624 39105
L62605 39143
L62586 39161
L62549 39180
L62399 39180
" />
<path d="M62755 38974
L62999 38974
L62868 39124
L62924 39124
L62961 39143
L62980 39161
L62999 39199
L62999 39293
L62980 39330
L62961 39349
L62924 39368
L62811 39368
L62774 39349
L62755 39330
" />
<path d="M62614 40374
L62483 40186
" />
<path d="M62389 40374
L62389 39980
L62539 39980
L62576 39999
L62595 40018
L62614 40055
L62614 40111
L62595 40149
L62576 40168
L62539 40186
L62389 40186
" />
<path d="M62951 40111
L62951 40374
" />
<path d="M62858 39961
L62764 40243
L63008 40243
" />
<path d="M62564 41408
L62433 41220
" />
<path d="M62339 41408
L62339 41014
L62489 41014
L62526 41033
L62545 41051
L62564 41089
L62564 41145
L62545 41183
L62526 41201
L62489 41220
L62339 41220
" />
<path d="M62920 41014
L62733 41014
L62714 41201
L62733 41183
L62770 41164
L62864 41164
L62901 41183
L62920 41201
L62939 41239
L62939 41333
L62920 41370
L62901 41389
L62864 41408
L62770 41408
L62733 41389
L62714 41370
" />
<path d="M59217 38132
L59086 37944
" />
<path d="M58992 38132
L58992 37738
L59142 37738
L59179 37757
L59198 37775
L59217 37813
L59217 37869
L59198 37907
L59179 37925
L59142 37944
L58992 37944
" />
<path d="M59442 37907
L59404 37888
L59386 37869
L59367 37832
L59367 37813
L59386 37775
L59404 37757
L59442 37738
L59517 37738
L59554 37757
L59573 37775
L59592 37813
L59592 37832
L59573 37869
L59554 37888
L59517 37907
L59442 37907
L59404 37925
L59386 37944
L59367 37982
L59367 38057
L59386 38094
L59404 38113
L59442 38132
L59517 38132
L59554 38113
L59573 38094
L59592 38057
L59592 37982
L59573 37944
L59554 37925
L59517 37907
" />
<path d="M51890 31492
L51890 31811
L51908 31848
L51927 31867
L51965 31886
L52040 31886
L52077 31867
L52096 31848
L52115 31811
L52115 31492
" />
<path d="M52508 31886
L52283 31886
" />
<path d="M52396 31886
L52396 31492
L52358 31548
L52321 31586
L52283 31604
" />
</g>
<g style="fill:#008484; fill-opacity:0.0; 
stroke:#008484; stroke-width:59.0551; stroke-opacity:1; 
stroke-linecap:round; stroke-linejoin:round;">
<path d="M50540 33886
L50839 33886
" />
<path d="M50690 34036
L50690 33736
" />
</g>
<g style="fill:#008484; fill-opacity:0.0; 
stroke:#008484; stroke-width:80; stroke-opacity:1; 
stroke-linecap:round; stroke-linejoin:round;">
<path d="M68568 48205
L66868 48205
" />
<path d="M66868 50605
L68568 50605
" />
<path d="M68918 49013
L68918 49805
" />
<path d="M66518 49001
L66518 49805
" />
<circle cx="67718.5" cy="49405" r="700" /> 
</g>
<g style="fill:#008484; fill-opacity:0.0; 
stroke:#008484; stroke-width:59.0551; stroke-opacity:1; 
stroke-linecap:round; stroke-linejoin:round;">
<path d="M74775 46173
L75354 46031
" />
<path d="M75354 46031
L74936 45921
" />
<path d="M74936 45921
L75358 45799
" />
<path d="M75358 45799
L74787 45665
" />
<path d="M75047 46732
L75043 46421
" />
<path d="M75043 46421
L75047 46417
" />
<path d="M75047 46417
L75043 46417
" />
<path d="M74763 46401
L75370 46401
" />
<path d="M74759 46751
L75377 46751
" />
<path d="M75377 46751
L75373 46747
" />
<path d="M74799 46968
L74767 47106
" />
<path d="M74767 47106
L74763 47232
" />
<path d="M74763 47232
L74842 47326
" />
<path d="M74842 47326
L74948 47338
" />
<path d="M74948 47338
L75043 47243
" />
<path d="M75043 47243
L75094 47090
" />
<path d="M75094 47090
L75157 47019
" />
<path d="M75157 47019
L75275 47003
" />
<path d="M75275 47003
L75362 47094
" />
<path d="M75362 47094
L75373 47220
" />
<path d="M75373 47220
L75330 47358
" />
<path d="M74759 47767
L74767 47865
" />
<path d="M74767 47865
L74862 47960
" />
<path d="M74862 47960
L75055 47995
" />
<path d="M75055 47995
L75192 47984
" />
<path d="M75192 47984
L75318 47905
" />
<path d="M75318 47905
L75366 47806
" />
<path d="M75366 47806
L75338 47684
" />
<path d="M75338 47684
L75267 47598
" />
<path d="M75267 47598
L75086 47570
" />
<path d="M75086 47570
L74925 47590
" />
<path d="M74925 47590
L74814 47633
" />
<path d="M74814 47633
L74763 47775
" />
<path d="M74082 47531
L74303 47633
" />
<path d="M74303 47633
L74507 47421
" />
<path d="M74507 47421
L74401 47216
" />
<path d="M74401 47216
L74464 47106
" />
<path d="M74456 46539
L74381 46409
" />
<path d="M74381 46409
L74511 46236
" />
<path d="M74511 46236
L74318 46050
" />
<path d="M74318 46050
L74129 46161
" />
<path d="M74129 46161
L73944 46086
" />
<path d="M73944 46086
L73870 45846
" />
<path d="M73870 45846
L73602 45846
" />
<path d="M73602 45846
L73547 46066
" />
<path d="M73547 46066
L73322 46145
" />
<path d="M73322 46145
L73137 46039
" />
<path d="M73137 46039
L72936 46224
" />
<path d="M72936 46224
L73039 46428
" />
<path d="M73039 46428
L72960 46613
" />
<path d="M72960 46613
L72747 46680
" />
<path d="M72747 46680
L72740 46952
" />
<path d="M72740 46952
L72956 47035
" />
<path d="M72956 47035
L73023 47200
" />
<path d="M73023 47200
L72917 47417
" />
<path d="M72917 47417
L73125 47621
" />
<path d="M73125 47621
L73338 47523
" />
<path d="M73338 47523
L73527 47590
" />
<path d="M73527 47590
L73566 47806
" />
<path d="M73566 47806
L73842 47810
" />
<path d="M73842 47810
L73921 47590
" />
<path d="M73921 47590
L74078 47535
" />
<path d="M74070 46692
L74011 46574
" />
<path d="M74011 46574
L73933 46495
" />
<path d="M73933 46495
L73775 46436
" />
<path d="M73775 46436
L73618 46436
" />
<path d="M73618 46436
L73480 46495
" />
<path d="M73480 46495
L73342 46673
" />
<path d="M73342 46673
L73322 46850
" />
<path d="M73322 46850
L73362 47007
" />
<path d="M73362 47007
L73499 47165
" />
<path d="M73499 47165
L73677 47224
" />
<path d="M73677 47224
L73873 47204
" />
<path d="M73873 47204
L73992 47106
" />
<path d="M73992 47106
L74070 46968
" />
<path d="M74070 46968
L74464 47106
" />
<path d="M74070 46692
L74464 46535
" />
<path d="M58278 36419
L60278 36419
" />
<path d="M60278 36419
L60278 37419
" />
<path d="M60278 37419
L58278 37419
" />
<path d="M58278 37419
L58278 36419
" />
<path d="M58278 36919
L57778 36919
" />
<path d="M60278 36919
L60778 36919
" />
</g>
<g style="fill:#008484; fill-opacity:0.0; 
stroke:#008484; stroke-width:100; stroke-opacity:1; 
stroke-linecap:round; stroke-linejoin:round;">
<path d="M66223.2 37220.6 A800 800 0.0 0 0 66510 36606.9 " />
<path d="M66509 36606.5 A799 799 0.0 0 0 66086 35901.9 " />
<path d="M64910 36606.9 A800 800 0.0 0 0 65192.6 37217 " />
<path d="M65314 35912.9 A799.032 799.032 0.0 0 0 64911 36605.6 " />
<path d="M66220 37226
L66020 37226
" />
<path d="M65200 37226
L65380 37226
" />
<path d="M68223.2 37139.7 A800 800 0.0 0 0 68510 36525.9 " />
<path d="M68509 36525.6 A799 799 0.0 0 0 68086 35820.9 " />
<path d="M66910 36525.9 A800 800 0.0 0 0 67192.6 37136.1 " />
<path d="M67314 35831.9 A799.032 799.032 0.0 0 0 66911 36524.7 " />
<path d="M68220 37145
L68020 37145
" />
<path d="M67200 37145
L67380 37145
" />
<path d="M70223.2 37186.5 A800 800 0.0 0 0 70510 36572.8 " />
<path d="M70509 36572.4 A799 799 0.0 0 0 70086 35867.8 " />
<path d="M68910 36572.8 A800 800 0.0 0 0 69192.6 37182.9 " />
<path d="M69314 35878.8 A799.032 799.032 0.0 0 0 68911 36571.5 " />
<path d="M70220 37192
L70020 37192
" />
<path d="M69200 37192
L69380 37192
" />
</g>
<g style="fill:#008484; fill-opacity:0.0; 
stroke:#008484; stroke-width:150; stroke-opacity:1; 
stroke-linecap:round; stroke-linejoin:round;">
<path d="M56357 36410
L56357 36685
" />
<path d="M56278 35386
L55648 35386
" />
</g>
<g style="fill:#008484; fill-opacity:0.0; 
stroke:#008484; stroke-width:80; stroke-opacity:1; 
stroke-linecap:round; stroke-linejoin:round;">
<path d="M72316 38532
L72566 38282
" />
<path d="M72566 38282
L73066 38282
" />
<path d="M73066 38282
L73316 38532
" />
<path d="M73316 39032
L73066 39282
" />
<path d="M73066 39282
L72566 39282
" />
<path d="M72566 39282
L72316 39032
" />
<path d="M70566 38282
L71066 38282
" />
<path d="M71066 38282
L71316 38532
" />
<path d="M71316 39032
L71066 39282
" />
<path d="M71316 38532
L71566 38282
" />
<path d="M71566 38282
L72066 38282
" />
<path d="M72066 38282
L72316 38532
" />
<path d="M72316 39032
L72066 39282
" />
<path d="M72066 39282
L71566 39282
" />
<path d="M71566 39282
L71316 39032
" />
<path d="M70316 38532
L70316 39032
" />
<path d="M70566 38282
L70316 38532
" />
<path d="M70316 39032
L70566 39282
" />
<path d="M71066 39282
L70566 39282
" />
<path d="M73316 38532
L73316 39032
" />
</g>
<g style="fill:#008484; fill-opacity:0.0; 
stroke:#008484; stroke-width:59.0551; stroke-opacity:1; 
stroke-linecap:round; stroke-linejoin:round;">
<path d="M58303 35369
L60303 35369
" />
<path d="M60303 35369
L60303 36369
" />
<path d="M60303 36369
L58303 36369
" />
<path d="M58303 36369
L58303 35369
" />
<path d="M58303 35869
L57803 35869
" />
<path d="M60303 35869
L60803 35869
" />
<path d="M64521 49155
L62521 49155
" />
<path d="M62521 49155
L62521 48155
" />
<path d="M62521 48155
L64521 48155
" />
<path d="M64521 48155
L64521 49155
" />
<path d="M64521 48655
L65021 48655
" />
<path d="M62521 48655
L62021 48655
" />
<path d="M70581 42885
L72581 42885
" />
<path d="M72581 42885
L72581 43885
" />
<path d="M72581 43885
L70581 43885
" />
<path d="M70581 43885
L70581 42885
" />
<path d="M70581 43385
L70081 43385
" />
<path d="M72581 43385
L73081 43385
" />
<path d="M62571 43895
L64571 43895
" />
<path d="M64571 43895
L64571 44895
" />
<path d="M64571 44895
L62571 44895
" />
<path d="M62571 44895
L62571 43895
" />
<path d="M62571 44395
L62071 44395
" />
<path d="M64571 44395
L65071 44395
" />
<path d="M64521 50185
L62521 50185
" />
<path d="M62521 50185
L62521 49185
" />
<path d="M62521 49185
L64521 49185
" />
<path d="M64521 49185
L64521 50185
" />
<path d="M64521 49685
L65021 49685
" />
<path d="M62521 49685
L62021 49685
" />
<path d="M71016 47865
L73016 47865
" />
<path d="M73016 47865
L73016 48865
" />
<path d="M73016 48865
L71016 48865
" />
<path d="M71016 48865
L71016 47865
" />
<path d="M71016 48365
L70516 48365
" />
<path d="M73016 48365
L73516 48365
" />
<path d="M55275 49680
L57275 49680
" />
<path d="M57275 49680
L57275 50680
" />
<path d="M57275 50680
L55275 50680
" />
<path d="M55275 50680
L55275 49680
" />
<path d="M55275 50180
L54775 50180
" />
<path d="M57275 50180
L57775 50180
" />
</g>
<g style="fill:#008484; fill-opacity:0.0; 
stroke:#008484; stroke-width:80; stroke-opacity:1; 
stroke-linecap:round; stroke-linejoin:round;">
<path d="M52860 51420
L51160 51420
" />
<path d="M51160 53820
L52860 53820
" />
<path d="M53210 52228
L53210 53020
" />
<path d="M50810 52216
L50810 53020
" />
<circle cx="52010" cy="52620" r="700" /> 
<path d="M68568 45190
L66868 45190
" />
<path d="M66868 47590
L68568 47590
" />
<path d="M68918 45998
L68918 46790
" />
<path d="M66518 45986
L66518 46790
" />
<circle cx="67718.5" cy="46390" r="700" /> 
<path d="M66868 44575
L68568 44575
" />
<path d="M68568 42175
L66868 42175
" />
<path d="M66518 43767
L66518 42975
" />
<path d="M68918 43779
L68918 42975
" />
<circle cx="67718.5" cy="43375" r="700" /> 
<path d="M65016 45190
L63316 45190
" />
<path d="M63316 47590
L65016 47590
" />
<path d="M65366 45998
L65366 46790
" />
<path d="M62966 45986
L62966 46790
" />
<circle cx="64166" cy="46390" r="700" /> 
</g>
<g style="fill:#008484; fill-opacity:0.0; 
stroke:#008484; stroke-width:59.0551; stroke-opacity:1; 
stroke-linecap:round; stroke-linejoin:round;">
<path d="M57280 51745
L55280 51745
" />
<path d="M55280 51745
L55280 50745
" />
<path d="M55280 50745
L57280 50745
" />
<path d="M57280 50745
L57280 51745
" />
<path d="M57280 51245
L57780 51245
" />
<path d="M55280 51245
L54780 51245
" />
<path d="M63680 39655
L61680 39655
" />
<path d="M61680 39655
L61680 38655
" />
<path d="M61680 38655
L63680 38655
" />
<path d="M63680 38655
L63680 39655
" />
<path d="M63680 39155
L64180 39155
" />
<path d="M61680 39155
L61180 39155
" />
<path d="M63680 40706
L61680 40706
" />
<path d="M61680 40706
L61680 39706
" />
<path d="M61680 39706
L63680 39706
" />
<path d="M63680 39706
L63680 40706
" />
<path d="M63680 40206
L64180 40206
" />
<path d="M61680 40206
L61180 40206
" />
<path d="M63680 41715
L61680 41715
" />
<path d="M61680 41715
L61680 40715
" />
<path d="M61680 40715
L63680 40715
" />
<path d="M63680 40715
L63680 41715
" />
<path d="M63680 41215
L64180 41215
" />
<path d="M61680 41215
L61180 41215
" />
<path d="M58278 37454
L60278 37454
" />
<path d="M60278 37454
L60278 38454
" />
<path d="M60278 38454
L58278 38454
" />
<path d="M58278 38454
L58278 37454
" />
<path d="M58278 37954
L57778 37954
" />
<path d="M60278 37954
L60778 37954
" />
</g>
<g style="fill:#008484; fill-opacity:0.0; 
stroke:#008484; stroke-width:80; stroke-opacity:1; 
stroke-linecap:round; stroke-linejoin:round;">
<path d="M72121 45190
L70421 45190
" />
<path d="M70421 47590
L72121 47590
" />
<path d="M72471 45998
L72471 46790
" />
<path d="M70071 45986
L70071 46790
" />
<circle cx="71271" cy="46390" r="700" /> 
</g>
<g style="fill:#008484; fill-opacity:0.0; 
stroke:#008484; stroke-width:59.0551; stroke-opacity:1; 
stroke-linecap:round; stroke-linejoin:round;">
<circle cx="52190" cy="34858" r="394" /> 
<circle cx="52190" cy="34858" r="2441" /> 
</g>
<g style="fill:#840000; fill-opacity:0.0; 
stroke:#840000; stroke-width:59.0551; stroke-opacity:1; 
stroke-linecap:round; stroke-linejoin:round;">
</g>
<g style="fill:#840000; fill-opacity:0.0; 
stroke:#840000; stroke-width:600; stroke-opacity:1; 
stroke-linecap:round; stroke-linejoin:round;">
<path d="M74984 53452
L74984 53052
" />
<path d="M73984 53452
L73984 53052
" />
<path d="M72984 53452
L72984 53052
" />
<path d="M69984 53452
L69984 53052
" />
<path d="M70984 53452
L70984 53052
" />
<path d="M71984 53452
L71984 53052
" />
<path d="M67984 53452
L67984 53052
" />
<path d="M66984 53452
L66984 53052
" />
<path d="M65984 53452
L65984 53052
" />
<path d="M63984 53452
L63984 53052
" />
<path d="M62984 53452
L62984 53052
" />
<path d="M74984 34452
L74984 34052
" />
<path d="M73984 34452
L73984 34052
" />
<path d="M72984 34452
L72984 34052
" />
<path d="M71984 34452
L71984 34052
" />
<path d="M70984 34452
L70984 34052
" />
<path d="M69984 34452
L69984 34052
" />
<path d="M68984 34452
L68984 34052
" />
<path d="M67984 34452
L67984 34052
" />
<path d="M66384 34452
L66384 34052
" />
<path d="M65384 34452
L65384 34052
" />
<path d="M64384 34452
L64384 34052
" />
<path d="M63384 34452
L63384 34052
" />
<path d="M62384 34452
L62384 34052
" />
<path d="M61384 34452
L61384 34052
" />
<path d="M60384 34452
L60384 34052
" />
<path d="M59384 34452
L59384 34052
" />
<path d="M64984 53452
L64984 53052
" />
</g>
<g style="fill:#840000; fill-opacity:1.0; 
stroke:#840000; stroke-width:0; stroke-opacity:1; 
stroke-linecap:round; stroke-linejoin:round;">
<circle cx="75984" cy="51252" r="625" /> 
</g>
<g style="fill:#840000; fill-opacity:1.0; 
stroke:#840000; stroke-width:39.3701; stroke-opacity:1; 
stroke-linecap:round; stroke-linejoin:round;">
</g>
<g style="fill:#840000; fill-opacity:1.0; 
stroke:#840000; stroke-width:0; stroke-opacity:1; 
stroke-linecap:round; stroke-linejoin:round;">
<circle cx="75984" cy="40252" r="625" /> 
</g>
<g style="fill:#840000; fill-opacity:1.0; 
stroke:#840000; stroke-width:39.3701; stroke-opacity:1; 
stroke-linecap:round; stroke-linejoin:round;">
</g>
<g style="fill:#840000; fill-opacity:1.0; 
stroke:#840000; stroke-width:0; stroke-opacity:1; 
stroke-linecap:round; stroke-linejoin:round;">
<circle cx="55984" cy="34252" r="625" /> 
</g>
<g style="fill:#840000; fill-opacity:1.0; 
stroke:#840000; stroke-width:39.3701; stroke-opacity:1; 
stroke-linecap:round; stroke-linejoin:round;">
</g>
<g style="fill:#840000; fill-opacity:1.0; 
stroke:#840000; stroke-width:0; stroke-opacity:1; 
stroke-linecap:round; stroke-linejoin:round;">
<circle cx="55484" cy="53252" r="625" /> 
</g>
<g style="fill:#840000; fill-opacity:1.0; 
stroke:#840000; stroke-width:39.3701; stroke-opacity:1; 
stroke-linecap:round; stroke-linejoin:round;">
</g>
<g style="fill:#840000; fill-opacity:1.0; 
stroke:#840000; stroke-width:600; stroke-opacity:1; 
stroke-linecap:round; stroke-linejoin:round;">
</g>
<g style="fill:#840000; fill-opacity:0.0; 
stroke:#840000; stroke-width:600; stroke-opacity:1; 
stroke-linecap:round; stroke-linejoin:round;">
<path d="M58384 34452
L58384 34052
" />
<path d="M57384 34452
L57384 34052
" />
<path d="M61984 53452
L61984 53052
" />
<path d="M60984 53452
L60984 53052
" />
</g>
<g style="fill:#840000; fill-opacity:1.0; 
stroke:#840000; stroke-width:0; stroke-opacity:1; 
stroke-linecap:round; stroke-linejoin:round;">
<circle cx="74984" cy="42252" r="300" /> 
</g>
<g style="fill:#840000; fill-opacity:1.0; 
stroke:#840000; stroke-width:39.3701; stroke-opacity:1; 
stroke-linecap:round; stroke-linejoin:round;">
</g>
<g style="fill:#840000; fill-opacity:1.0; 
stroke:#840000; stroke-width:0; stroke-opacity:1; 
stroke-linecap:round; stroke-linejoin:round;">
<circle cx="75984" cy="42252" r="300" /> 
</g>
<g style="fill:#840000; fill-opacity:1.0; 
stroke:#840000; stroke-width:39.3701; stroke-opacity:1; 
stroke-linecap:round; stroke-linejoin:round;">
</g>
<g style="fill:#840000; fill-opacity:1.0; 
stroke:#840000; stroke-width:0; stroke-opacity:1; 
stroke-linecap:round; stroke-linejoin:round;">
<circle cx="74984" cy="43252" r="300" /> 
</g>
<g style="fill:#840000; fill-opacity:1.0; 
stroke:#840000; stroke-width:39.3701; stroke-opacity:1; 
stroke-linecap:round; stroke-linejoin:round;">
</g>
<g style="fill:#840000; fill-opacity:1.0; 
stroke:#840000; stroke-width:0; stroke-opacity:1; 
stroke-linecap:round; stroke-linejoin:round;">
<circle cx="75984" cy="43252" r="300" /> 
</g>
<g style="fill:#840000; fill-opacity:1.0; 
stroke:#840000; stroke-width:39.3701; stroke-opacity:1; 
stroke-linecap:round; stroke-linejoin:round;">
</g>
<g style="fill:#840000; fill-opacity:1.0; 
stroke:#840000; stroke-width:0; stroke-opacity:1; 
stroke-linecap:round; stroke-linejoin:round;">
<circle cx="74984" cy="44252" r="300" /> 
</g>
<g style="fill:#840000; fill-opacity:1.0; 
stroke:#840000; stroke-width:39.3701; stroke-opacity:1; 
stroke-linecap:round; stroke-linejoin:round;">
</g>
<g style="fill:#840000; fill-opacity:1.0; 
stroke:#840000; stroke-width:0; stroke-opacity:1; 
stroke-linecap:round; stroke-linejoin:round;">
<circle cx="75984" cy="44252" r="300" /> 
</g>
<g style="fill:#840000; fill-opacity:1.0; 
stroke:#840000; stroke-width:39.3701; stroke-opacity:1; 
stroke-linecap:round; stroke-linejoin:round;">
</g>
<g style="fill:#840000; fill-opacity:1.0; 
stroke:#840000; stroke-width:0; stroke-opacity:1; 
stroke-linecap:round; stroke-linejoin:round;">
<circle cx="57278" cy="36919" r="393.5" /> 
</g>
<g style="fill:#840000; fill-opacity:1.0; 
stroke:#840000; stroke-width:39.3701; stroke-opacity:1; 
stroke-linecap:round; stroke-linejoin:round;">
</g>
<g style="fill:#840000; fill-opacity:1.0; 
stroke:#840000; stroke-width:0; stroke-opacity:1; 
stroke-linecap:round; stroke-linejoin:round;">
<circle cx="61278" cy="36919" r="393.5" /> 
</g>
<g style="fill:#840000; fill-opacity:1.0; 
stroke:#840000; stroke-width:39.3701; stroke-opacity:1; 
stroke-linecap:round; stroke-linejoin:round;">
</g>
<g style="fill:#840000; fill-opacity:1.0; 
stroke:#840000; stroke-width:0; stroke-opacity:1; 
stroke-linecap:round; stroke-linejoin:round;">
<circle cx="54710" cy="48468.9" r="629.921" /> 
</g>
<g style="fill:#840000; fill-opacity:1.0; 
stroke:#840000; stroke-width:39.3701; stroke-opacity:1; 
stroke-linecap:round; stroke-linejoin:round;">
</g>
<g style="fill:#840000; fill-opacity:1.0; 
stroke:#840000; stroke-width:0; stroke-opacity:1; 
stroke-linecap:round; stroke-linejoin:round;">
<circle cx="54710" cy="45083.1" r="629.921" /> 
</g>
<g style="fill:#840000; fill-opacity:1.0; 
stroke:#840000; stroke-width:39.3701; stroke-opacity:1; 
stroke-linecap:round; stroke-linejoin:round;">
</g>
<g style="fill:#840000; fill-opacity:1.0; 
stroke:#840000; stroke-width:0; stroke-opacity:1; 
stroke-linecap:round; stroke-linejoin:round;">
<circle cx="57465.9" cy="46776" r="354.331" /> 
</g>
<g style="fill:#840000; fill-opacity:1.0; 
stroke:#840000; stroke-width:39.3701; stroke-opacity:1; 
stroke-linecap:round; stroke-linejoin:round;">
</g>
<g style="fill:#840000; fill-opacity:1.0; 
stroke:#840000; stroke-width:0; stroke-opacity:1; 
stroke-linecap:round; stroke-linejoin:round;">
<circle cx="57465.9" cy="47760.3" r="354.331" /> 
</g>
<g style="fill:#840000; fill-opacity:1.0; 
stroke:#840000; stroke-width:39.3701; stroke-opacity:1; 
stroke-linecap:round; stroke-linejoin:round;">
</g>
<g style="fill:#840000; fill-opacity:1.0; 
stroke:#840000; stroke-width:0; stroke-opacity:1; 
stroke-linecap:round; stroke-linejoin:round;">
<circle cx="57465.9" cy="45791.7" r="354.331" /> 
</g>
<g style="fill:#840000; fill-opacity:1.0; 
stroke:#840000; stroke-width:39.3701; stroke-opacity:1; 
stroke-linecap:round; stroke-linejoin:round;">
</g>
<g style="fill:#840000; fill-opacity:1.0; 
stroke:#840000; stroke-width:0; stroke-opacity:1; 
stroke-linecap:round; stroke-linejoin:round;">
<circle cx="55963.9" cy="38142" r="256" /> 
</g>
<g style="fill:#840000; fill-opacity:1.0; 
stroke:#840000; stroke-width:39.3701; stroke-opacity:1; 
stroke-linecap:round; stroke-linejoin:round;">
</g>
<g style="fill:#840000; fill-opacity:1.0; 
stroke:#840000; stroke-width:0; stroke-opacity:1; 
stroke-linecap:round; stroke-linejoin:round;">
<circle cx="55963.9" cy="35780" r="256" /> 
</g>
<g style="fill:#840000; fill-opacity:1.0; 
stroke:#840000; stroke-width:39.3701; stroke-opacity:1; 
stroke-linecap:round; stroke-linejoin:round;">
</g>
<g style="fill:#840000; fill-opacity:1.0; 
stroke:#840000; stroke-width:0; stroke-opacity:1; 
stroke-linecap:round; stroke-linejoin:round;">
<polyline style="fill-rule:evenodd;"
points="55707,36311
56219,36311
56219,36823
55707,36823
55707,36311
" /> 
<circle cx="55963.9" cy="37355" r="256" /> 
</g>
<g style="fill:#840000; fill-opacity:1.0; 
stroke:#840000; stroke-width:39.3701; stroke-opacity:1; 
stroke-linecap:round; stroke-linejoin:round;">
</g>
<g style="fill:#840000; fill-opacity:1.0; 
stroke:#840000; stroke-width:0; stroke-opacity:1; 
stroke-linecap:round; stroke-linejoin:round;">
<circle cx="57303" cy="35869" r="393.5" /> 
</g>
<g style="fill:#840000; fill-opacity:1.0; 
stroke:#840000; stroke-width:39.3701; stroke-opacity:1; 
stroke-linecap:round; stroke-linejoin:round;">
</g>
<g style="fill:#840000; fill-opacity:1.0; 
stroke:#840000; stroke-width:0; stroke-opacity:1; 
stroke-linecap:round; stroke-linejoin:round;">
<circle cx="61303" cy="35869" r="393.5" /> 
</g>
<g style="fill:#840000; fill-opacity:1.0; 
stroke:#840000; stroke-width:39.3701; stroke-opacity:1; 
stroke-linecap:round; stroke-linejoin:round;">
</g>
<g style="fill:#840000; fill-opacity:1.0; 
stroke:#840000; stroke-width:0; stroke-opacity:1; 
stroke-linecap:round; stroke-linejoin:round;">
<circle cx="65521" cy="48655" r="393.5" /> 
</g>
<g style="fill:#840000; fill-opacity:1.0; 
stroke:#840000; stroke-width:39.3701; stroke-opacity:1; 
stroke-linecap:round; stroke-linejoin:round;">
</g>
<g style="fill:#840000; fill-opacity:1.0; 
stroke:#840000; stroke-width:0; stroke-opacity:1; 
stroke-linecap:round; stroke-linejoin:round;">
<circle cx="61521" cy="48655" r="393.5" /> 
</g>
<g style="fill:#840000; fill-opacity:1.0; 
stroke:#840000; stroke-width:39.3701; stroke-opacity:1; 
stroke-linecap:round; stroke-linejoin:round;">
</g>
<g style="fill:#840000; fill-opacity:1.0; 
stroke:#840000; stroke-width:0; stroke-opacity:1; 
stroke-linecap:round; stroke-linejoin:round;">
<circle cx="69581" cy="43385" r="393.5" /> 
</g>
<g style="fill:#840000; fill-opacity:1.0; 
stroke:#840000; stroke-width:39.3701; stroke-opacity:1; 
stroke-linecap:round; stroke-linejoin:round;">
</g>
<g style="fill:#840000; fill-opacity:1.0; 
stroke:#840000; stroke-width:0; stroke-opacity:1; 
stroke-linecap:round; stroke-linejoin:round;">
<circle cx="73581" cy="43385" r="393.5" /> 
</g>
<g style="fill:#840000; fill-opacity:1.0; 
stroke:#840000; stroke-width:39.3701; stroke-opacity:1; 
stroke-linecap:round; stroke-linejoin:round;">
</g>
<g style="fill:#840000; fill-opacity:1.0; 
stroke:#840000; stroke-width:0; stroke-opacity:1; 
stroke-linecap:round; stroke-linejoin:round;">
<circle cx="61571" cy="44395" r="393.5" /> 
</g>
<g style="fill:#840000; fill-opacity:1.0; 
stroke:#840000; stroke-width:39.3701; stroke-opacity:1; 
stroke-linecap:round; stroke-linejoin:round;">
</g>
<g style="fill:#840000; fill-opacity:1.0; 
stroke:#840000; stroke-width:0; stroke-opacity:1; 
stroke-linecap:round; stroke-linejoin:round;">
<circle cx="65571" cy="44395" r="393.5" /> 
</g>
<g style="fill:#840000; fill-opacity:1.0; 
stroke:#840000; stroke-width:39.3701; stroke-opacity:1; 
stroke-linecap:round; stroke-linejoin:round;">
</g>
<g style="fill:#840000; fill-opacity:1.0; 
stroke:#840000; stroke-width:0; stroke-opacity:1; 
stroke-linecap:round; stroke-linejoin:round;">
<circle cx="65521" cy="49685" r="393.5" /> 
</g>
<g style="fill:#840000; fill-opacity:1.0; 
stroke:#840000; stroke-width:39.3701; stroke-opacity:1; 
stroke-linecap:round; stroke-linejoin:round;">
</g>
<g style="fill:#840000; fill-opacity:1.0; 
stroke:#840000; stroke-width:0; stroke-opacity:1; 
stroke-linecap:round; stroke-linejoin:round;">
<circle cx="61521" cy="49685" r="393.5" /> 
</g>
<g style="fill:#840000; fill-opacity:1.0; 
stroke:#840000; stroke-width:39.3701; stroke-opacity:1; 
stroke-linecap:round; stroke-linejoin:round;">
</g>
<g style="fill:#840000; fill-opacity:1.0; 
stroke:#840000; stroke-width:0; stroke-opacity:1; 
stroke-linecap:round; stroke-linejoin:round;">
<circle cx="70016" cy="48365" r="393.5" /> 
</g>
<g style="fill:#840000; fill-opacity:1.0; 
stroke:#840000; stroke-width:39.3701; stroke-opacity:1; 
stroke-linecap:round; stroke-linejoin:round;">
</g>
<g style="fill:#840000; fill-opacity:1.0; 
stroke:#840000; stroke-width:0; stroke-opacity:1; 
stroke-linecap:round; stroke-linejoin:round;">
<circle cx="74016" cy="48365" r="393.5" /> 
</g>
<g style="fill:#840000; fill-opacity:1.0; 
stroke:#840000; stroke-width:39.3701; stroke-opacity:1; 
stroke-linecap:round; stroke-linejoin:round;">
</g>
<g style="fill:#840000; fill-opacity:1.0; 
stroke:#840000; stroke-width:0; stroke-opacity:1; 
stroke-linecap:round; stroke-linejoin:round;">
<circle cx="54690" cy="43620" r="629.921" /> 
</g>
<g style="fill:#840000; fill-opacity:1.0; 
stroke:#840000; stroke-width:39.3701; stroke-opacity:1; 
stroke-linecap:round; stroke-linejoin:round;">
</g>
<g style="fill:#840000; fill-opacity:1.0; 
stroke:#840000; stroke-width:0; stroke-opacity:1; 
stroke-linecap:round; stroke-linejoin:round;">
<circle cx="54690" cy="40234.2" r="629.921" /> 
</g>
<g style="fill:#840000; fill-opacity:1.0; 
stroke:#840000; stroke-width:39.3701; stroke-opacity:1; 
stroke-linecap:round; stroke-linejoin:round;">
</g>
<g style="fill:#840000; fill-opacity:1.0; 
stroke:#840000; stroke-width:0; stroke-opacity:1; 
stroke-linecap:round; stroke-linejoin:round;">
<circle cx="57445.9" cy="41927.1" r="354.331" /> 
</g>
<g style="fill:#840000; fill-opacity:1.0; 
stroke:#840000; stroke-width:39.3701; stroke-opacity:1; 
stroke-linecap:round; stroke-linejoin:round;">
</g>
<g style="fill:#840000; fill-opacity:1.0; 
stroke:#840000; stroke-width:0; stroke-opacity:1; 
stroke-linecap:round; stroke-linejoin:round;">
<circle cx="57445.9" cy="42911.3" r="354.331" /> 
</g>
<g style="fill:#840000; fill-opacity:1.0; 
stroke:#840000; stroke-width:39.3701; stroke-opacity:1; 
stroke-linecap:round; stroke-linejoin:round;">
</g>
<g style="fill:#840000; fill-opacity:1.0; 
stroke:#840000; stroke-width:0; stroke-opacity:1; 
stroke-linecap:round; stroke-linejoin:round;">
<circle cx="57445.9" cy="40942.8" r="354.331" /> 
</g>
<g style="fill:#840000; fill-opacity:1.0; 
stroke:#840000; stroke-width:39.3701; stroke-opacity:1; 
stroke-linecap:round; stroke-linejoin:round;">
</g>
<g style="fill:#840000; fill-opacity:1.0; 
stroke:#840000; stroke-width:0; stroke-opacity:1; 
stroke-linecap:round; stroke-linejoin:round;">
<circle cx="54275" cy="50180" r="393.5" /> 
</g>
<g style="fill:#840000; fill-opacity:1.0; 
stroke:#840000; stroke-width:39.3701; stroke-opacity:1; 
stroke-linecap:round; stroke-linejoin:round;">
</g>
<g style="fill:#840000; fill-opacity:1.0; 
stroke:#840000; stroke-width:0; stroke-opacity:1; 
stroke-linecap:round; stroke-linejoin:round;">
<circle cx="58275" cy="50180" r="393.5" /> 
</g>
<g style="fill:#840000; fill-opacity:1.0; 
stroke:#840000; stroke-width:39.3701; stroke-opacity:1; 
stroke-linecap:round; stroke-linejoin:round;">
</g>
<g style="fill:#840000; fill-opacity:1.0; 
stroke:#840000; stroke-width:0; stroke-opacity:1; 
stroke-linecap:round; stroke-linejoin:round;">
<circle cx="58280" cy="51245" r="393.5" /> 
</g>
<g style="fill:#840000; fill-opacity:1.0; 
stroke:#840000; stroke-width:39.3701; stroke-opacity:1; 
stroke-linecap:round; stroke-linejoin:round;">
</g>
<g style="fill:#840000; fill-opacity:1.0; 
stroke:#840000; stroke-width:0; stroke-opacity:1; 
stroke-linecap:round; stroke-linejoin:round;">
<circle cx="54280" cy="51245" r="393.5" /> 
</g>
<g style="fill:#840000; fill-opacity:1.0; 
stroke:#840000; stroke-width:39.3701; stroke-opacity:1; 
stroke-linecap:round; stroke-linejoin:round;">
</g>
<g style="fill:#840000; fill-opacity:1.0; 
stroke:#840000; stroke-width:0; stroke-opacity:1; 
stroke-linecap:round; stroke-linejoin:round;">
<circle cx="64680" cy="39155" r="393.5" /> 
</g>
<g style="fill:#840000; fill-opacity:1.0; 
stroke:#840000; stroke-width:39.3701; stroke-opacity:1; 
stroke-linecap:round; stroke-linejoin:round;">
</g>
<g style="fill:#840000; fill-opacity:1.0; 
stroke:#840000; stroke-width:0; stroke-opacity:1; 
stroke-linecap:round; stroke-linejoin:round;">
<circle cx="60680" cy="39155" r="393.5" /> 
</g>
<g style="fill:#840000; fill-opacity:1.0; 
stroke:#840000; stroke-width:39.3701; stroke-opacity:1; 
stroke-linecap:round; stroke-linejoin:round;">
</g>
<g style="fill:#840000; fill-opacity:1.0; 
stroke:#840000; stroke-width:0; stroke-opacity:1; 
stroke-linecap:round; stroke-linejoin:round;">
<circle cx="64680" cy="40206.2" r="393.5" /> 
</g>
<g style="fill:#840000; fill-opacity:1.0; 
stroke:#840000; stroke-width:39.3701; stroke-opacity:1; 
stroke-linecap:round; stroke-linejoin:round;">
</g>
<g style="fill:#840000; fill-opacity:1.0; 
stroke:#840000; stroke-width:0; stroke-opacity:1; 
stroke-linecap:round; stroke-linejoin:round;">
<circle cx="60680" cy="40206.2" r="393.5" /> 
</g>
<g style="fill:#840000; fill-opacity:1.0; 
stroke:#840000; stroke-width:39.3701; stroke-opacity:1; 
stroke-linecap:round; stroke-linejoin:round;">
</g>
<g style="fill:#840000; fill-opacity:1.0; 
stroke:#840000; stroke-width:0; stroke-opacity:1; 
stroke-linecap:round; stroke-linejoin:round;">
<circle cx="64680" cy="41215" r="393.5" /> 
</g>
<g style="fill:#840000; fill-opacity:1.0; 
stroke:#840000; stroke-width:39.3701; stroke-opacity:1; 
stroke-linecap:round; stroke-linejoin:round;">
</g>
<g style="fill:#840000; fill-opacity:1.0; 
stroke:#840000; stroke-width:0; stroke-opacity:1; 
stroke-linecap:round; stroke-linejoin:round;">
<circle cx="60680" cy="41215" r="393.5" /> 
</g>
<g style="fill:#840000; fill-opacity:1.0; 
stroke:#840000; stroke-width:39.3701; stroke-opacity:1; 
stroke-linecap:round; stroke-linejoin:round;">
</g>
<g style="fill:#840000; fill-opacity:1.0; 
stroke:#840000; stroke-width:0; stroke-opacity:1; 
stroke-linecap:round; stroke-linejoin:round;">
<circle cx="57278" cy="37954" r="393.5" /> 
</g>
<g style="fill:#840000; fill-opacity:1.0; 
stroke:#840000; stroke-width:39.3701; stroke-opacity:1; 
stroke-linecap:round; stroke-linejoin:round;">
</g>
<g style="fill:#840000; fill-opacity:1.0; 
stroke:#840000; stroke-width:0; stroke-opacity:1; 
stroke-linecap:round; stroke-linejoin:round;">
<circle cx="61278" cy="37954" r="393.5" /> 
</g>
<g style="fill:#840000; fill-opacity:1.0; 
stroke:#840000; stroke-width:39.3701; stroke-opacity:1; 
stroke-linecap:round; stroke-linejoin:round;">
</g>
<g style="fill:#840000; fill-opacity:1.0; 
stroke:#840000; stroke-width:0; stroke-opacity:1; 
stroke-linecap:round; stroke-linejoin:round;">
<circle cx="50694" cy="34858" r="393.701" /> 
</g>
<g style="fill:#840000; fill-opacity:1.0; 
stroke:#840000; stroke-width:39.3701; stroke-opacity:1; 
stroke-linecap:round; stroke-linejoin:round;">
</g>
<g style="fill:#840000; fill-opacity:1.0; 
stroke:#840000; stroke-width:0; stroke-opacity:1; 
stroke-linecap:round; stroke-linejoin:round;">
<circle cx="53686" cy="34858" r="393.701" /> 
</g>
<g style="fill:#840000; fill-opacity:1.0; 
stroke:#840000; stroke-width:39.3701; stroke-opacity:1; 
stroke-linecap:round; stroke-linejoin:round;">
</g> 
</svg>
