<?xml version="1.0" standalone="no"?>
 <!DOCTYPE svg PUBLIC "-//W3C//DTD SVG 1.1//EN" 
 "http://www.w3.org/Graphics/SVG/1.1/DTD/svg11.dtd"> 
<svg xmlns="http://www.w3.org/2000/svg" version="1.1" 
    width="29.7002cm" height="21.0007cm" viewBox="0 0 116930 82680 ">
<title>SVG Picture created as bats-Edge.Cuts.svg date 2016/04/03 22:38:08 </title>
  <desc>Picture generated by PCBNEW </desc>
<g style="fill:#000000; fill-opacity:1;stroke:#000000; stroke-opacity:1;
stroke-linecap:round; stroke-linejoin:round; "
 transform="translate(0 0) scale(1 1)">
</g>
<g style="fill:#000000; fill-opacity:0.0; 
stroke:#000000; stroke-width:-0.000393701; stroke-opacity:1; 
stroke-linecap:round; stroke-linejoin:round;">
</g>
<g style="fill:#000000; fill-opacity:0.0; 
stroke:#000000; stroke-width:39.3701; stroke-opacity:1; 
stroke-linecap:round; stroke-linejoin:round;">
</g>
<g style="fill:#000000; fill-opacity:0.0; 
stroke:#000000; stroke-width:59.0551; stroke-opacity:1; 
stroke-linecap:round; stroke-linejoin:round;">
<rect x="69685.9" y="65357.2" width="42519.7" height="12598.4" rx="0" />
</g>
<g style="fill:#000000; fill-opacity:0.0; 
stroke:#000000; stroke-width:39.3701; stroke-opacity:1; 
stroke-linecap:round; stroke-linejoin:round;">
</g>
<g style="fill:#000000; fill-opacity:0.0; 
stroke:#000000; stroke-width:59.0551; stroke-opacity:1; 
stroke-linecap:round; stroke-linejoin:round;">
<rect x="3937.01" y="3937.01" width="109056" height="74806" rx="0" />
</g>
<g style="fill:#000000; fill-opacity:0.0; 
stroke:#000000; stroke-width:39.3701; stroke-opacity:1; 
stroke-linecap:round; stroke-linejoin:round;">
</g>
<g style="fill:#000000; fill-opacity:0.0; 
stroke:#000000; stroke-width:59.0551; stroke-opacity:1; 
stroke-linecap:round; stroke-linejoin:round;">
<rect x="4724.41" y="4724.41" width="107481" height="73231.2" rx="0" />
</g>
<g style="fill:#000000; fill-opacity:0.0; 
stroke:#000000; stroke-width:39.3701; stroke-opacity:1; 
stroke-linecap:round; stroke-linejoin:round;">
</g>
<g style="fill:#000000; fill-opacity:0.0; 
stroke:#000000; stroke-width:59.0551; stroke-opacity:1; 
stroke-linecap:round; stroke-linejoin:round;">
<path d="M23622 4724
L23622 3937
" />
</g>
<g style="fill:#000000; fill-opacity:0.0; 
stroke:#000000; stroke-width:39.3701; stroke-opacity:1; 
stroke-linecap:round; stroke-linejoin:round;">
</g>
<g style="fill:#000000; fill-opacity:0.0; 
stroke:#000000; stroke-width:59.0551; stroke-opacity:1; 
stroke-linecap:round; stroke-linejoin:round;">
<path d="M43307 4724
L43307 3937
" />
</g>
<g style="fill:#000000; fill-opacity:0.0; 
stroke:#000000; stroke-width:39.3701; stroke-opacity:1; 
stroke-linecap:round; stroke-linejoin:round;">
</g>
<g style="fill:#000000; fill-opacity:0.0; 
stroke:#000000; stroke-width:59.0551; stroke-opacity:1; 
stroke-linecap:round; stroke-linejoin:round;">
<path d="M62992 4724
L62992 3937
" />
</g>
<g style="fill:#000000; fill-opacity:0.0; 
stroke:#000000; stroke-width:39.3701; stroke-opacity:1; 
stroke-linecap:round; stroke-linejoin:round;">
</g>
<g style="fill:#000000; fill-opacity:0.0; 
stroke:#000000; stroke-width:59.0551; stroke-opacity:1; 
stroke-linecap:round; stroke-linejoin:round;">
<path d="M82677 4724
L82677 3937
" />
</g>
<g style="fill:#000000; fill-opacity:0.0; 
stroke:#000000; stroke-width:39.3701; stroke-opacity:1; 
stroke-linecap:round; stroke-linejoin:round;">
</g>
<g style="fill:#000000; fill-opacity:0.0; 
stroke:#000000; stroke-width:59.0551; stroke-opacity:1; 
stroke-linecap:round; stroke-linejoin:round;">
<path d="M102362 4724
L102362 3937
" />
</g>
<g style="fill:#000000; fill-opacity:0.0; 
stroke:#000000; stroke-width:39.3701; stroke-opacity:1; 
stroke-linecap:round; stroke-linejoin:round;">
</g>
<g style="fill:#000000; fill-opacity:0.0; 
stroke:#000000; stroke-width:59.0551; stroke-opacity:1; 
stroke-linecap:round; stroke-linejoin:round;">
<path d="M14169 4562
L13877 4562
" />
<path d="M14023 4562
L14023 4050
L13974 4123
L13925 4172
L13877 4196
" />
</g>
<g style="fill:#000000; fill-opacity:0.0; 
stroke:#000000; stroke-width:39.3701; stroke-opacity:1; 
stroke-linecap:round; stroke-linejoin:round;">
</g>
<g style="fill:#000000; fill-opacity:0.0; 
stroke:#000000; stroke-width:59.0551; stroke-opacity:1; 
stroke-linecap:round; stroke-linejoin:round;">
<path d="M33562 4099
L33586 4074
L33635 4050
L33757 4050
L33805 4074
L33830 4099
L33854 4147
L33854 4196
L33830 4269
L33537 4562
L33854 4562
" />
</g>
<g style="fill:#000000; fill-opacity:0.0; 
stroke:#000000; stroke-width:39.3701; stroke-opacity:1; 
stroke-linecap:round; stroke-linejoin:round;">
</g>
<g style="fill:#000000; fill-opacity:0.0; 
stroke:#000000; stroke-width:59.0551; stroke-opacity:1; 
stroke-linecap:round; stroke-linejoin:round;">
<path d="M53222 4050
L53539 4050
L53368 4245
L53442 4245
L53490 4269
L53515 4294
L53539 4342
L53539 4464
L53515 4513
L53490 4537
L53442 4562
L53295 4562
L53247 4537
L53222 4513
" />
</g>
<g style="fill:#000000; fill-opacity:0.0; 
stroke:#000000; stroke-width:39.3701; stroke-opacity:1; 
stroke-linecap:round; stroke-linejoin:round;">
</g>
<g style="fill:#000000; fill-opacity:0.0; 
stroke:#000000; stroke-width:59.0551; stroke-opacity:1; 
stroke-linecap:round; stroke-linejoin:round;">
<path d="M73175 4221
L73175 4562
" />
<path d="M73053 4026
L72932 4391
L73248 4391
" />
</g>
<g style="fill:#000000; fill-opacity:0.0; 
stroke:#000000; stroke-width:39.3701; stroke-opacity:1; 
stroke-linecap:round; stroke-linejoin:round;">
</g>
<g style="fill:#000000; fill-opacity:0.0; 
stroke:#000000; stroke-width:59.0551; stroke-opacity:1; 
stroke-linecap:round; stroke-linejoin:round;">
<path d="M92885 4050
L92641 4050
L92617 4294
L92641 4269
L92690 4245
L92812 4245
L92860 4269
L92885 4294
L92909 4342
L92909 4464
L92885 4513
L92860 4537
L92812 4562
L92690 4562
L92641 4537
L92617 4513
" />
</g>
<g style="fill:#000000; fill-opacity:0.0; 
stroke:#000000; stroke-width:39.3701; stroke-opacity:1; 
stroke-linecap:round; stroke-linejoin:round;">
</g>
<g style="fill:#000000; fill-opacity:0.0; 
stroke:#000000; stroke-width:59.0551; stroke-opacity:1; 
stroke-linecap:round; stroke-linejoin:round;">
<path d="M112545 4050
L112448 4050
L112399 4074
L112375 4099
L112326 4172
L112302 4269
L112302 4464
L112326 4513
L112350 4537
L112399 4562
L112497 4562
L112545 4537
L112570 4513
L112594 4464
L112594 4342
L112570 4294
L112545 4269
L112497 4245
L112399 4245
L112350 4269
L112326 4294
L112302 4342
" />
</g>
<g style="fill:#000000; fill-opacity:0.0; 
stroke:#000000; stroke-width:39.3701; stroke-opacity:1; 
stroke-linecap:round; stroke-linejoin:round;">
</g>
<g style="fill:#000000; fill-opacity:0.0; 
stroke:#000000; stroke-width:59.0551; stroke-opacity:1; 
stroke-linecap:round; stroke-linejoin:round;">
<path d="M23622 77955
L23622 78742
" />
</g>
<g style="fill:#000000; fill-opacity:0.0; 
stroke:#000000; stroke-width:39.3701; stroke-opacity:1; 
stroke-linecap:round; stroke-linejoin:round;">
</g>
<g style="fill:#000000; fill-opacity:0.0; 
stroke:#000000; stroke-width:59.0551; stroke-opacity:1; 
stroke-linecap:round; stroke-linejoin:round;">
<path d="M43307 77955
L43307 78742
" />
</g>
<g style="fill:#000000; fill-opacity:0.0; 
stroke:#000000; stroke-width:39.3701; stroke-opacity:1; 
stroke-linecap:round; stroke-linejoin:round;">
</g>
<g style="fill:#000000; fill-opacity:0.0; 
stroke:#000000; stroke-width:59.0551; stroke-opacity:1; 
stroke-linecap:round; stroke-linejoin:round;">
<path d="M62992 77955
L62992 78742
" />
</g>
<g style="fill:#000000; fill-opacity:0.0; 
stroke:#000000; stroke-width:39.3701; stroke-opacity:1; 
stroke-linecap:round; stroke-linejoin:round;">
</g>
<g style="fill:#000000; fill-opacity:0.0; 
stroke:#000000; stroke-width:59.0551; stroke-opacity:1; 
stroke-linecap:round; stroke-linejoin:round;">
<path d="M82677 77955
L82677 78742
" />
</g>
<g style="fill:#000000; fill-opacity:0.0; 
stroke:#000000; stroke-width:39.3701; stroke-opacity:1; 
stroke-linecap:round; stroke-linejoin:round;">
</g>
<g style="fill:#000000; fill-opacity:0.0; 
stroke:#000000; stroke-width:59.0551; stroke-opacity:1; 
stroke-linecap:round; stroke-linejoin:round;">
<path d="M102362 77955
L102362 78742
" />
</g>
<g style="fill:#000000; fill-opacity:0.0; 
stroke:#000000; stroke-width:39.3701; stroke-opacity:1; 
stroke-linecap:round; stroke-linejoin:round;">
</g>
<g style="fill:#000000; fill-opacity:0.0; 
stroke:#000000; stroke-width:59.0551; stroke-opacity:1; 
stroke-linecap:round; stroke-linejoin:round;">
<path d="M14169 78580
L13877 78580
" />
<path d="M14023 78580
L14023 78069
L13974 78142
L13925 78190
L13877 78215
" />
</g>
<g style="fill:#000000; fill-opacity:0.0; 
stroke:#000000; stroke-width:39.3701; stroke-opacity:1; 
stroke-linecap:round; stroke-linejoin:round;">
</g>
<g style="fill:#000000; fill-opacity:0.0; 
stroke:#000000; stroke-width:59.0551; stroke-opacity:1; 
stroke-linecap:round; stroke-linejoin:round;">
<path d="M33562 78117
L33586 78093
L33635 78069
L33757 78069
L33805 78093
L33830 78117
L33854 78166
L33854 78215
L33830 78288
L33537 78580
L33854 78580
" />
</g>
<g style="fill:#000000; fill-opacity:0.0; 
stroke:#000000; stroke-width:39.3701; stroke-opacity:1; 
stroke-linecap:round; stroke-linejoin:round;">
</g>
<g style="fill:#000000; fill-opacity:0.0; 
stroke:#000000; stroke-width:59.0551; stroke-opacity:1; 
stroke-linecap:round; stroke-linejoin:round;">
<path d="M53222 78069
L53539 78069
L53368 78263
L53442 78263
L53490 78288
L53515 78312
L53539 78361
L53539 78483
L53515 78532
L53490 78556
L53442 78580
L53295 78580
L53247 78556
L53222 78532
" />
</g>
<g style="fill:#000000; fill-opacity:0.0; 
stroke:#000000; stroke-width:39.3701; stroke-opacity:1; 
stroke-linecap:round; stroke-linejoin:round;">
</g>
<g style="fill:#000000; fill-opacity:0.0; 
stroke:#000000; stroke-width:59.0551; stroke-opacity:1; 
stroke-linecap:round; stroke-linejoin:round;">
<path d="M73175 78239
L73175 78580
" />
<path d="M73053 78044
L72932 78410
L73248 78410
" />
</g>
<g style="fill:#000000; fill-opacity:0.0; 
stroke:#000000; stroke-width:39.3701; stroke-opacity:1; 
stroke-linecap:round; stroke-linejoin:round;">
</g>
<g style="fill:#000000; fill-opacity:0.0; 
stroke:#000000; stroke-width:59.0551; stroke-opacity:1; 
stroke-linecap:round; stroke-linejoin:round;">
<path d="M92885 78069
L92641 78069
L92617 78312
L92641 78288
L92690 78263
L92812 78263
L92860 78288
L92885 78312
L92909 78361
L92909 78483
L92885 78532
L92860 78556
L92812 78580
L92690 78580
L92641 78556
L92617 78532
" />
</g>
<g style="fill:#000000; fill-opacity:0.0; 
stroke:#000000; stroke-width:39.3701; stroke-opacity:1; 
stroke-linecap:round; stroke-linejoin:round;">
</g>
<g style="fill:#000000; fill-opacity:0.0; 
stroke:#000000; stroke-width:59.0551; stroke-opacity:1; 
stroke-linecap:round; stroke-linejoin:round;">
<path d="M112545 78069
L112448 78069
L112399 78093
L112375 78117
L112326 78190
L112302 78288
L112302 78483
L112326 78532
L112350 78556
L112399 78580
L112497 78580
L112545 78556
L112570 78532
L112594 78483
L112594 78361
L112570 78312
L112545 78288
L112497 78263
L112399 78263
L112350 78288
L112326 78312
L112302 78361
" />
</g>
<g style="fill:#000000; fill-opacity:0.0; 
stroke:#000000; stroke-width:39.3701; stroke-opacity:1; 
stroke-linecap:round; stroke-linejoin:round;">
</g>
<g style="fill:#000000; fill-opacity:0.0; 
stroke:#000000; stroke-width:59.0551; stroke-opacity:1; 
stroke-linecap:round; stroke-linejoin:round;">
<path d="M3937 23622
L4724 23622
" />
</g>
<g style="fill:#000000; fill-opacity:0.0; 
stroke:#000000; stroke-width:39.3701; stroke-opacity:1; 
stroke-linecap:round; stroke-linejoin:round;">
</g>
<g style="fill:#000000; fill-opacity:0.0; 
stroke:#000000; stroke-width:59.0551; stroke-opacity:1; 
stroke-linecap:round; stroke-linejoin:round;">
<path d="M3937 43307
L4724 43307
" />
</g>
<g style="fill:#000000; fill-opacity:0.0; 
stroke:#000000; stroke-width:39.3701; stroke-opacity:1; 
stroke-linecap:round; stroke-linejoin:round;">
</g>
<g style="fill:#000000; fill-opacity:0.0; 
stroke:#000000; stroke-width:59.0551; stroke-opacity:1; 
stroke-linecap:round; stroke-linejoin:round;">
<path d="M3937 62992
L4724 62992
" />
</g>
<g style="fill:#000000; fill-opacity:0.0; 
stroke:#000000; stroke-width:39.3701; stroke-opacity:1; 
stroke-linecap:round; stroke-linejoin:round;">
</g>
<g style="fill:#000000; fill-opacity:0.0; 
stroke:#000000; stroke-width:59.0551; stroke-opacity:1; 
stroke-linecap:round; stroke-linejoin:round;">
<path d="M4208 13864
L4452 13864
" />
<path d="M4160 14011
L4330 13499
L4501 14011
" />
</g>
<g style="fill:#000000; fill-opacity:0.0; 
stroke:#000000; stroke-width:39.3701; stroke-opacity:1; 
stroke-linecap:round; stroke-linejoin:round;">
</g>
<g style="fill:#000000; fill-opacity:0.0; 
stroke:#000000; stroke-width:59.0551; stroke-opacity:1; 
stroke-linecap:round; stroke-linejoin:round;">
<path d="M4367 33428
L4440 33452
L4464 33476
L4489 33525
L4489 33598
L4464 33647
L4440 33671
L4391 33696
L4196 33696
L4196 33184
L4367 33184
L4416 33208
L4440 33233
L4464 33281
L4464 33330
L4440 33379
L4416 33403
L4367 33428
L4196 33428
" />
</g>
<g style="fill:#000000; fill-opacity:0.0; 
stroke:#000000; stroke-width:39.3701; stroke-opacity:1; 
stroke-linecap:round; stroke-linejoin:round;">
</g>
<g style="fill:#000000; fill-opacity:0.0; 
stroke:#000000; stroke-width:59.0551; stroke-opacity:1; 
stroke-linecap:round; stroke-linejoin:round;">
<path d="M4489 53332
L4464 53356
L4391 53381
L4342 53381
L4269 53356
L4221 53308
L4196 53259
L4172 53161
L4172 53088
L4196 52991
L4221 52942
L4269 52893
L4342 52869
L4391 52869
L4464 52893
L4489 52918
" />
</g>
<g style="fill:#000000; fill-opacity:0.0; 
stroke:#000000; stroke-width:39.3701; stroke-opacity:1; 
stroke-linecap:round; stroke-linejoin:round;">
</g>
<g style="fill:#000000; fill-opacity:0.0; 
stroke:#000000; stroke-width:59.0551; stroke-opacity:1; 
stroke-linecap:round; stroke-linejoin:round;">
<path d="M4196 73066
L4196 72554
L4318 72554
L4391 72578
L4440 72627
L4464 72676
L4489 72773
L4489 72846
L4464 72944
L4440 72993
L4391 73041
L4318 73066
L4196 73066
" />
</g>
<g style="fill:#000000; fill-opacity:0.0; 
stroke:#000000; stroke-width:39.3701; stroke-opacity:1; 
stroke-linecap:round; stroke-linejoin:round;">
</g>
<g style="fill:#000000; fill-opacity:0.0; 
stroke:#000000; stroke-width:59.0551; stroke-opacity:1; 
stroke-linecap:round; stroke-linejoin:round;">
<path d="M112992 23622
L112205 23622
" />
</g>
<g style="fill:#000000; fill-opacity:0.0; 
stroke:#000000; stroke-width:39.3701; stroke-opacity:1; 
stroke-linecap:round; stroke-linejoin:round;">
</g>
<g style="fill:#000000; fill-opacity:0.0; 
stroke:#000000; stroke-width:59.0551; stroke-opacity:1; 
stroke-linecap:round; stroke-linejoin:round;">
<path d="M112992 43307
L112205 43307
" />
</g>
<g style="fill:#000000; fill-opacity:0.0; 
stroke:#000000; stroke-width:39.3701; stroke-opacity:1; 
stroke-linecap:round; stroke-linejoin:round;">
</g>
<g style="fill:#000000; fill-opacity:0.0; 
stroke:#000000; stroke-width:59.0551; stroke-opacity:1; 
stroke-linecap:round; stroke-linejoin:round;">
<path d="M112992 62992
L112205 62992
" />
</g>
<g style="fill:#000000; fill-opacity:0.0; 
stroke:#000000; stroke-width:39.3701; stroke-opacity:1; 
stroke-linecap:round; stroke-linejoin:round;">
</g>
<g style="fill:#000000; fill-opacity:0.0; 
stroke:#000000; stroke-width:59.0551; stroke-opacity:1; 
stroke-linecap:round; stroke-linejoin:round;">
<path d="M112477 13864
L112721 13864
" />
<path d="M112428 14011
L112599 13499
L112769 14011
" />
</g>
<g style="fill:#000000; fill-opacity:0.0; 
stroke:#000000; stroke-width:39.3701; stroke-opacity:1; 
stroke-linecap:round; stroke-linejoin:round;">
</g>
<g style="fill:#000000; fill-opacity:0.0; 
stroke:#000000; stroke-width:59.0551; stroke-opacity:1; 
stroke-linecap:round; stroke-linejoin:round;">
<path d="M112635 33428
L112708 33452
L112733 33476
L112757 33525
L112757 33598
L112733 33647
L112708 33671
L112660 33696
L112465 33696
L112465 33184
L112635 33184
L112684 33208
L112708 33233
L112733 33281
L112733 33330
L112708 33379
L112684 33403
L112635 33428
L112465 33428
" />
</g>
<g style="fill:#000000; fill-opacity:0.0; 
stroke:#000000; stroke-width:39.3701; stroke-opacity:1; 
stroke-linecap:round; stroke-linejoin:round;">
</g>
<g style="fill:#000000; fill-opacity:0.0; 
stroke:#000000; stroke-width:59.0551; stroke-opacity:1; 
stroke-linecap:round; stroke-linejoin:round;">
<path d="M112757 53332
L112733 53356
L112660 53381
L112611 53381
L112538 53356
L112489 53308
L112465 53259
L112440 53161
L112440 53088
L112465 52991
L112489 52942
L112538 52893
L112611 52869
L112660 52869
L112733 52893
L112757 52918
" />
</g>
<g style="fill:#000000; fill-opacity:0.0; 
stroke:#000000; stroke-width:39.3701; stroke-opacity:1; 
stroke-linecap:round; stroke-linejoin:round;">
</g>
<g style="fill:#000000; fill-opacity:0.0; 
stroke:#000000; stroke-width:59.0551; stroke-opacity:1; 
stroke-linecap:round; stroke-linejoin:round;">
<path d="M112465 73066
L112465 72554
L112587 72554
L112660 72578
L112708 72627
L112733 72676
L112757 72773
L112757 72846
L112733 72944
L112708 72993
L112660 73041
L112587 73066
L112465 73066
" />
</g>
<g style="fill:#000000; fill-opacity:0.0; 
stroke:#000000; stroke-width:39.3701; stroke-opacity:1; 
stroke-linecap:round; stroke-linejoin:round;">
</g>
<g style="fill:#000000; fill-opacity:0.0; 
stroke:#000000; stroke-width:59.0551; stroke-opacity:1; 
stroke-linecap:round; stroke-linejoin:round;">
<path d="M78881 76293
L78881 75703
L79022 75703
L79106 75731
L79162 75787
L79190 75843
L79219 75956
L79219 76040
L79190 76153
L79162 76209
L79106 76265
L79022 76293
L78881 76293
" />
<path d="M79725 76293
L79725 75984
L79697 75928
L79640 75899
L79528 75899
L79472 75928
" />
<path d="M79725 76265
L79669 76293
L79528 76293
L79472 76265
L79444 76209
L79444 76153
L79472 76096
L79528 76068
L79669 76068
L79725 76040
" />
<path d="M79922 75899
L80147 75899
" />
<path d="M80006 75703
L80006 76209
L80034 76265
L80090 76293
L80147 76293
" />
<path d="M80568 76265
L80512 76293
L80400 76293
L80343 76265
L80315 76209
L80315 75984
L80343 75928
L80400 75899
L80512 75899
L80568 75928
L80597 75984
L80597 76040
L80315 76096
" />
<path d="M80850 76237
L80878 76265
L80850 76293
L80822 76265
L80850 76237
L80850 76293
" />
<path d="M80850 75928
L80878 75956
L80850 75984
L80822 75956
L80850 75928
L80850 75984
" />
<path d="M81553 75759
L81581 75731
L81637 75703
L81778 75703
L81834 75731
L81862 75759
L81890 75815
L81890 75871
L81862 75956
L81525 76293
L81890 76293
" />
<path d="M82256 75703
L82312 75703
L82368 75731
L82396 75759
L82424 75815
L82453 75928
L82453 76068
L82424 76181
L82396 76237
L82368 76265
L82312 76293
L82256 76293
L82199 76265
L82171 76237
L82143 76181
L82115 76068
L82115 75928
L82143 75815
L82171 75759
L82199 75731
L82256 75703
" />
<path d="M83015 76293
L82678 76293
" />
<path d="M82846 76293
L82846 75703
L82790 75787
L82734 75843
L82678 75871
" />
<path d="M83549 75703
L83268 75703
L83240 75984
L83268 75956
L83324 75928
L83465 75928
L83521 75956
L83549 75984
L83577 76040
L83577 76181
L83549 76237
L83521 76265
L83465 76293
L83324 76293
L83268 76265
L83240 76237
" />
<path d="M83831 76068
L84280 76068
" />
<path d="M84871 76293
L84534 76293
" />
<path d="M84702 76293
L84702 75703
L84646 75787
L84590 75843
L84534 75871
" />
<path d="M85237 75703
L85293 75703
L85349 75731
L85377 75759
L85405 75815
L85433 75928
L85433 76068
L85405 76181
L85377 76237
L85349 76265
L85293 76293
L85237 76293
L85180 76265
L85152 76237
L85124 76181
L85096 76068
L85096 75928
L85124 75815
L85152 75759
L85180 75731
L85237 75703
" />
<path d="M85687 76068
L86136 76068
" />
<path d="M86727 76293
L86390 76293
" />
<path d="M86558 76293
L86558 75703
L86502 75787
L86446 75843
L86390 75871
" />
<path d="M87008 76293
L87121 76293
L87177 76265
L87205 76237
L87261 76153
L87289 76040
L87289 75815
L87261 75759
L87233 75731
L87177 75703
L87064 75703
L87008 75731
L86980 75759
L86952 75815
L86952 75956
L86980 76012
L87008 76040
L87064 76068
L87177 76068
L87233 76040
L87261 76012
L87289 75956
" />
</g>
<g style="fill:#000000; fill-opacity:0.0; 
stroke:#000000; stroke-width:39.3701; stroke-opacity:1; 
stroke-linecap:round; stroke-linejoin:round;">
</g>
<g style="fill:#000000; fill-opacity:0.0; 
stroke:#000000; stroke-width:59.0551; stroke-opacity:1; 
stroke-linecap:round; stroke-linejoin:round;">
<path d="M69685 76577
L112205 76577
" />
</g>
<g style="fill:#000000; fill-opacity:0.0; 
stroke:#000000; stroke-width:39.3701; stroke-opacity:1; 
stroke-linecap:round; stroke-linejoin:round;">
</g>
<g style="fill:#000000; fill-opacity:0.0; 
stroke:#000000; stroke-width:59.0551; stroke-opacity:1; 
stroke-linecap:round; stroke-linejoin:round;">
<path d="M70220 77395
L70220 76805
" />
<path d="M70557 77395
L70304 77058
" />
<path d="M70557 76805
L70220 77142
" />
<path d="M70810 77395
L70810 77002
" />
<path d="M70810 76805
L70782 76833
L70810 76861
L70838 76833
L70810 76805
L70810 76861
" />
<path d="M71429 77339
L71401 77367
L71316 77395
L71260 77395
L71176 77367
L71120 77311
L71091 77255
L71063 77142
L71063 77058
L71091 76946
L71120 76889
L71176 76833
L71260 76805
L71316 76805
L71401 76833
L71429 76861
" />
<path d="M71935 77395
L71935 77086
L71907 77030
L71851 77002
L71738 77002
L71682 77030
" />
<path d="M71935 77367
L71879 77395
L71738 77395
L71682 77367
L71654 77311
L71654 77255
L71682 77199
L71738 77171
L71879 77171
L71935 77142
" />
<path d="M72469 77395
L72469 76805
" />
<path d="M72469 77367
L72413 77395
L72301 77395
L72244 77367
L72216 77339
L72188 77283
L72188 77114
L72216 77058
L72244 77030
L72301 77002
L72413 77002
L72469 77030
" />
<path d="M73201 77086
L73397 77086
" />
<path d="M73482 77395
L73201 77395
L73201 76805
L73482 76805
" />
<path d="M73735 77339
L73763 77367
L73735 77395
L73707 77367
L73735 77339
L73735 77395
" />
<path d="M74016 77395
L74016 76805
L74157 76805
L74241 76833
L74297 76889
L74325 76946
L74354 77058
L74354 77142
L74325 77255
L74297 77311
L74241 77367
L74157 77395
L74016 77395
" />
<path d="M74607 77339
L74635 77367
L74607 77395
L74579 77367
L74607 77339
L74607 77395
" />
<path d="M74860 77227
L75141 77227
" />
<path d="M74804 77395
L75000 76805
L75197 77395
" />
<path d="M75394 77339
L75422 77367
L75394 77395
L75366 77367
L75394 77339
L75394 77395
" />
<path d="M76575 77395
L76575 76805
" />
<path d="M76631 77171
L76800 77395
" />
<path d="M76800 77002
L76575 77227
" />
<path d="M77053 77395
L77053 77002
" />
<path d="M77053 76805
L77025 76833
L77053 76861
L77081 76833
L77053 76805
L77053 76861
" />
<path d="M77588 77367
L77531 77395
L77419 77395
L77363 77367
L77334 77339
L77306 77283
L77306 77114
L77334 77058
L77363 77030
L77419 77002
L77531 77002
L77588 77030
" />
<path d="M78094 77395
L78094 77086
L78066 77030
L78009 77002
L77897 77002
L77841 77030
" />
<path d="M78094 77367
L78037 77395
L77897 77395
L77841 77367
L77813 77311
L77813 77255
L77841 77199
L77897 77171
L78037 77171
L78094 77142
" />
<path d="M78628 77395
L78628 76805
" />
<path d="M78628 77367
L78572 77395
L78459 77395
L78403 77367
L78375 77339
L78347 77283
L78347 77114
L78375 77058
L78403 77030
L78459 77002
L78572 77002
L78628 77030
" />
<path d="M79472 76805
L79528 76805
L79584 76833
L79612 76861
L79640 76917
L79669 77030
L79669 77171
L79640 77283
L79612 77339
L79584 77367
L79528 77395
L79472 77395
L79415 77367
L79387 77339
L79359 77283
L79331 77171
L79331 77030
L79359 76917
L79387 76861
L79415 76833
L79472 76805
" />
<path d="M79922 77339
L79950 77367
L79922 77395
L79894 77367
L79922 77339
L79922 77395
" />
<path d="M80175 76861
L80203 76833
L80259 76805
L80400 76805
L80456 76833
L80484 76861
L80512 76917
L80512 76974
L80484 77058
L80147 77395
L80512 77395
" />
<path d="M80878 76805
L80934 76805
L80990 76833
L81018 76861
L81046 76917
L81075 77030
L81075 77171
L81046 77283
L81018 77339
L80990 77367
L80934 77395
L80878 77395
L80822 77367
L80793 77339
L80765 77283
L80737 77171
L80737 77030
L80765 76917
L80793 76861
L80822 76833
L80878 76805
" />
<path d="M81637 77395
L81300 77395
" />
<path d="M81468 77395
L81468 76805
L81412 76889
L81356 76946
L81300 76974
" />
<path d="M82143 76805
L82031 76805
L81974 76833
L81946 76861
L81890 76946
L81862 77058
L81862 77283
L81890 77339
L81918 77367
L81974 77395
L82087 77395
L82143 77367
L82171 77339
L82199 77283
L82199 77142
L82171 77086
L82143 77058
L82087 77030
L81974 77030
L81918 77058
L81890 77086
L81862 77142
" />
<path d="M82565 76805
L82621 76805
L82678 76833
L82706 76861
L82734 76917
L82762 77030
L82762 77171
L82734 77283
L82706 77339
L82678 77367
L82621 77395
L82565 77395
L82509 77367
L82481 77339
L82453 77283
L82424 77171
L82424 77030
L82453 76917
L82481 76861
L82509 76833
L82565 76805
" />
<path d="M82959 76805
L83324 76805
L83127 77030
L83212 77030
L83268 77058
L83296 77086
L83324 77142
L83324 77283
L83296 77339
L83268 77367
L83212 77395
L83043 77395
L82987 77367
L82959 77339
" />
<path d="M83549 76861
L83577 76833
L83634 76805
L83774 76805
L83831 76833
L83859 76861
L83887 76917
L83887 76974
L83859 77058
L83521 77395
L83887 77395
" />
<path d="M84449 77395
L84112 77395
" />
<path d="M84280 77395
L84280 76805
L84224 76889
L84168 76946
L84112 76974
" />
<path d="M84815 76805
L84871 76805
L84927 76833
L84955 76861
L84983 76917
L85012 77030
L85012 77171
L84983 77283
L84955 77339
L84927 77367
L84871 77395
L84815 77395
L84759 77367
L84730 77339
L84702 77283
L84674 77171
L84674 77030
L84702 76917
L84730 76861
L84759 76833
L84815 76805
" />
<path d="M85518 77002
L85518 77395
" />
<path d="M85377 76777
L85237 77199
L85602 77199
" />
<path d="M85940 76805
L85996 76805
L86052 76833
L86080 76861
L86108 76917
L86136 77030
L86136 77171
L86108 77283
L86080 77339
L86052 77367
L85996 77395
L85940 77395
L85883 77367
L85855 77339
L85827 77283
L85799 77171
L85799 77030
L85827 76917
L85855 76861
L85883 76833
L85940 76805
" />
<path d="M86699 77395
L86361 77395
" />
<path d="M86530 77395
L86530 76805
L86474 76889
L86418 76946
L86361 76974
" />
<path d="M86952 77171
L87402 77171
" />
<path d="M87177 77395
L87177 76946
" />
<path d="M87936 76805
L87824 76805
L87768 76833
L87739 76861
L87683 76946
L87655 77058
L87655 77283
L87683 77339
L87711 77367
L87768 77395
L87880 77395
L87936 77367
L87964 77339
L87992 77283
L87992 77142
L87964 77086
L87936 77058
L87880 77030
L87768 77030
L87711 77058
L87683 77086
L87655 77142
" />
<path d="M88499 76805
L88386 76805
L88330 76833
L88302 76861
L88246 76946
L88217 77058
L88217 77283
L88246 77339
L88274 77367
L88330 77395
L88442 77395
L88499 77367
L88527 77339
L88555 77283
L88555 77142
L88527 77086
L88499 77058
L88442 77030
L88330 77030
L88274 77058
L88246 77086
L88217 77142
" />
<path d="M88752 76805
L89117 76805
L88920 77030
L89005 77030
L89061 77058
L89089 77086
L89117 77142
L89117 77283
L89089 77339
L89061 77367
L89005 77395
L88836 77395
L88780 77367
L88752 77339
" />
<path d="M89624 77002
L89624 77395
" />
<path d="M89483 76777
L89342 77199
L89708 77199
" />
<path d="M90186 77002
L90186 77395
" />
<path d="M90045 76777
L89905 77199
L90270 77199
" />
<path d="M90439 76805
L90805 76805
L90608 77030
L90692 77030
L90748 77058
L90777 77086
L90805 77142
L90805 77283
L90777 77339
L90748 77367
L90692 77395
L90523 77395
L90467 77367
L90439 77339
" />
<path d="M89792 76703
L90917 76703
" />
<path d="M91311 77002
L91311 77395
" />
<path d="M91058 77002
L91058 77311
L91086 77367
L91142 77395
L91226 77395
L91283 77367
L91311 77339
" />
<path d="M91592 77395
L91592 76805
" />
<path d="M91592 77030
L91648 77002
L91761 77002
L91817 77030
L91845 77058
L91873 77114
L91873 77283
L91845 77339
L91817 77367
L91761 77395
L91648 77395
L91592 77367
" />
<path d="M92379 77002
L92379 77395
" />
<path d="M92126 77002
L92126 77311
L92154 77367
L92211 77395
L92295 77395
L92351 77367
L92379 77339
" />
<path d="M92661 77002
L92661 77395
" />
<path d="M92661 77058
L92689 77030
L92745 77002
L92829 77002
L92886 77030
L92914 77086
L92914 77395
" />
<path d="M93111 77002
L93336 77002
" />
<path d="M93195 76805
L93195 77311
L93223 77367
L93279 77395
L93336 77395
" />
<path d="M93786 77002
L93786 77395
" />
<path d="M93532 77002
L93532 77311
L93561 77367
L93617 77395
L93701 77395
L93757 77367
L93786 77339
" />
<path d="M94376 77395
L94039 77395
" />
<path d="M94207 77395
L94207 76805
L94151 76889
L94095 76946
L94039 76974
" />
<path d="M94882 77002
L94882 77395
" />
<path d="M94742 76777
L94601 77199
L94967 77199
" />
<path d="M95192 77339
L95220 77367
L95192 77395
L95163 77367
L95192 77339
L95192 77395
" />
<path d="M95585 76805
L95642 76805
L95698 76833
L95726 76861
L95754 76917
L95782 77030
L95782 77171
L95754 77283
L95726 77339
L95698 77367
L95642 77395
L95585 77395
L95529 77367
L95501 77339
L95473 77283
L95445 77171
L95445 77030
L95473 76917
L95501 76861
L95529 76833
L95585 76805
" />
<path d="M96288 77002
L96288 77395
" />
<path d="M96148 76777
L96007 77199
L96373 77199
" />
<path d="M96598 77339
L96626 77367
L96598 77395
L96570 77367
L96598 77339
L96598 77395
" />
<path d="M97188 77395
L96851 77395
" />
<path d="M97019 77395
L97019 76805
L96963 76889
L96907 76946
L96851 76974
" />
<path d="M97441 77171
L97891 77171
" />
<path d="M98172 77002
L98172 77592
" />
<path d="M98172 77030
L98229 77002
L98341 77002
L98397 77030
L98426 77058
L98454 77114
L98454 77283
L98426 77339
L98397 77367
L98341 77395
L98229 77395
L98172 77367
" />
<path d="M98707 77395
L98707 77002
" />
<path d="M98707 77114
L98735 77058
L98763 77030
L98819 77002
L98876 77002
" />
<path d="M99157 77395
L99100 77367
L99072 77339
L99044 77283
L99044 77114
L99072 77058
L99100 77030
L99157 77002
L99241 77002
L99297 77030
L99325 77058
L99354 77114
L99354 77283
L99325 77339
L99297 77367
L99241 77395
L99157 77395
" />
<path d="M99860 77395
L99860 76805
" />
<path d="M99860 77367
L99804 77395
L99691 77395
L99635 77367
L99607 77339
L99579 77283
L99579 77114
L99607 77058
L99635 77030
L99691 77002
L99804 77002
L99860 77030
" />
<path d="M100394 77002
L100394 77395
" />
<path d="M100141 77002
L100141 77311
L100169 77367
L100225 77395
L100310 77395
L100366 77367
L100394 77339
" />
<path d="M100928 77367
L100872 77395
L100760 77395
L100703 77367
L100675 77339
L100647 77283
L100647 77114
L100675 77058
L100703 77030
L100760 77002
L100872 77002
L100928 77030
" />
<path d="M101097 77002
L101322 77002
" />
<path d="M101181 76805
L101181 77311
L101210 77367
L101266 77395
L101322 77395
" />
</g>
<g style="fill:#000000; fill-opacity:0.0; 
stroke:#000000; stroke-width:39.3701; stroke-opacity:1; 
stroke-linecap:round; stroke-linejoin:round;">
</g>
<g style="fill:#000000; fill-opacity:0.0; 
stroke:#000000; stroke-width:59.0551; stroke-opacity:1; 
stroke-linecap:round; stroke-linejoin:round;">
<path d="M69685 75396
L112205 75396
" />
</g>
<g style="fill:#000000; fill-opacity:0.0; 
stroke:#000000; stroke-width:39.3701; stroke-opacity:1; 
stroke-linecap:round; stroke-linejoin:round;">
</g>
<g style="fill:#000000; fill-opacity:0.0; 
stroke:#000000; stroke-width:118.11; stroke-opacity:1; 
stroke-linecap:round; stroke-linejoin:round;">
<path d="M104022 76293
L103825 76012
" />
<path d="M103684 76293
L103684 75703
L103909 75703
L103965 75731
L103994 75759
L104022 75815
L104022 75899
L103994 75956
L103965 75984
L103909 76012
L103684 76012
" />
<path d="M104500 76265
L104444 76293
L104331 76293
L104275 76265
L104247 76209
L104247 75984
L104275 75928
L104331 75899
L104444 75899
L104500 75928
L104528 75984
L104528 76040
L104247 76096
" />
<path d="M104725 75899
L104865 76293
L105006 75899
" />
<path d="M105231 76237
L105259 76265
L105231 76293
L105203 76265
L105231 76237
L105231 76293
" />
<path d="M105231 75928
L105259 75956
L105231 75984
L105203 75956
L105231 75928
L105231 75984
" />
<path d="M106271 76293
L105934 76293
" />
<path d="M106103 76293
L106103 75703
L106046 75787
L105990 75843
L105934 75871
" />
<path d="M106525 76237
L106553 76265
L106525 76293
L106496 76265
L106525 76237
L106525 76293
" />
<path d="M106918 75703
L106974 75703
L107031 75731
L107059 75759
L107087 75815
L107115 75928
L107115 76068
L107087 76181
L107059 76237
L107031 76265
L106974 76293
L106918 76293
L106862 76265
L106834 76237
L106806 76181
L106778 76068
L106778 75928
L106806 75815
L106834 75759
L106862 75731
L106918 75703
" />
</g>
<g style="fill:#000000; fill-opacity:0.0; 
stroke:#000000; stroke-width:39.3701; stroke-opacity:1; 
stroke-linecap:round; stroke-linejoin:round;">
</g>
<g style="fill:#000000; fill-opacity:0.0; 
stroke:#000000; stroke-width:59.0551; stroke-opacity:1; 
stroke-linecap:round; stroke-linejoin:round;">
<path d="M70192 76265
L70276 76293
L70417 76293
L70473 76265
L70501 76237
L70529 76181
L70529 76124
L70501 76068
L70473 76040
L70417 76012
L70304 75984
L70248 75956
L70220 75928
L70192 75871
L70192 75815
L70220 75759
L70248 75731
L70304 75703
L70445 75703
L70529 75731
" />
<path d="M70782 76293
L70782 75899
" />
<path d="M70782 75703
L70754 75731
L70782 75759
L70810 75731
L70782 75703
L70782 75759
" />
<path d="M71007 75899
L71316 75899
L71007 76293
L71316 76293
" />
<path d="M71766 76265
L71710 76293
L71598 76293
L71541 76265
L71513 76209
L71513 75984
L71541 75928
L71598 75899
L71710 75899
L71766 75928
L71795 75984
L71795 76040
L71513 76096
" />
<path d="M72048 76237
L72076 76265
L72048 76293
L72019 76265
L72048 76237
L72048 76293
" />
<path d="M72048 75928
L72076 75956
L72048 75984
L72019 75956
L72048 75928
L72048 75984
" />
<path d="M72751 76124
L73032 76124
" />
<path d="M72694 76293
L72891 75703
L73088 76293
" />
<path d="M73538 75899
L73538 76293
" />
<path d="M73397 75674
L73257 76096
L73622 76096
" />
</g>
<g style="fill:#000000; fill-opacity:0.0; 
stroke:#000000; stroke-width:39.3701; stroke-opacity:1; 
stroke-linecap:round; stroke-linejoin:round;">
</g>
<g style="fill:#000000; fill-opacity:0.0; 
stroke:#000000; stroke-width:59.0551; stroke-opacity:1; 
stroke-linecap:round; stroke-linejoin:round;">
<path d="M103684 77395
L103684 76805
" />
<path d="M104219 77395
L104219 76805
" />
<path d="M104219 77367
L104162 77395
L104050 77395
L103994 77367
L103965 77339
L103937 77283
L103937 77114
L103965 77058
L103994 77030
L104050 77002
L104162 77002
L104219 77030
" />
<path d="M104500 77339
L104528 77367
L104500 77395
L104472 77367
L104500 77339
L104500 77395
" />
<path d="M104500 77030
L104528 77058
L104500 77086
L104472 77058
L104500 77030
L104500 77086
" />
<path d="M105540 77395
L105203 77395
" />
<path d="M105372 77395
L105372 76805
L105315 76889
L105259 76946
L105203 76974
" />
<path d="M106215 76777
L105709 77536
" />
<path d="M106721 77395
L106384 77395
" />
<path d="M106553 77395
L106553 76805
L106496 76889
L106440 76946
L106384 76974
" />
</g>
<g style="fill:#000000; fill-opacity:0.0; 
stroke:#000000; stroke-width:39.3701; stroke-opacity:1; 
stroke-linecap:round; stroke-linejoin:round;">
</g>
<g style="fill:#000000; fill-opacity:0.0; 
stroke:#000000; stroke-width:59.0551; stroke-opacity:1; 
stroke-linecap:round; stroke-linejoin:round;">
<path d="M69685 73821
L112205 73821
" />
</g>
<g style="fill:#000000; fill-opacity:0.0; 
stroke:#000000; stroke-width:39.3701; stroke-opacity:1; 
stroke-linecap:round; stroke-linejoin:round;">
</g>
<g style="fill:#000000; fill-opacity:0.0; 
stroke:#000000; stroke-width:157.48; stroke-opacity:1; 
stroke-linecap:round; stroke-linejoin:round;">
<path d="M70257 74099
L70707 74099
" />
<path d="M70384 74886
L70482 74099
" />
<path d="M70871 74886
L70937 74361
" />
<path d="M70970 74099
L70927 74136
L70960 74174
L71002 74136
L70970 74099
L70960 74174
" />
<path d="M71199 74361
L71499 74361
" />
<path d="M71345 74099
L71260 74774
L71288 74849
L71359 74886
L71434 74886
" />
<path d="M71809 74886
L71738 74849
L71710 74774
L71795 74099
" />
<path d="M72413 74849
L72334 74886
L72184 74886
L72113 74849
L72085 74774
L72123 74474
L72169 74399
L72249 74361
L72399 74361
L72469 74399
L72498 74474
L72488 74549
L72104 74624
" />
<path d="M72793 74811
L72826 74849
L72783 74886
L72751 74849
L72793 74811
L72783 74886
" />
<path d="M72844 74399
L72877 74436
L72835 74474
L72802 74436
L72844 74399
L72835 74474
" />
<path d="M74072 74474
L74180 74511
L74213 74549
L74241 74624
L74227 74736
L74180 74811
L74138 74849
L74058 74886
L73758 74886
L73857 74099
L74119 74099
L74190 74136
L74222 74174
L74250 74249
L74241 74324
L74194 74399
L74152 74436
L74072 74474
L73810 74474
" />
<path d="M74536 74661
L74911 74661
" />
<path d="M74433 74886
L74794 74099
L74958 74886
" />
<path d="M75207 74099
L75657 74099
" />
<path d="M75333 74886
L75432 74099
" />
<path d="M75788 74849
L75896 74886
L76083 74886
L76163 74849
L76205 74811
L76252 74736
L76261 74661
L76233 74586
L76200 74549
L76130 74511
L75985 74474
L75914 74436
L75882 74399
L75853 74324
L75863 74249
L75910 74174
L75952 74136
L76031 74099
L76219 74099
L76327 74136
" />
<path d="M77170 74886
L77269 74099
L77569 74099
L77639 74136
L77672 74174
L77700 74249
L77686 74361
L77639 74436
L77597 74474
L77517 74511
L77217 74511
" />
<path d="M78417 74811
L78375 74849
L78258 74886
L78183 74886
L78075 74849
L78009 74774
L77981 74699
L77962 74549
L77977 74436
L78033 74286
L78080 74211
L78164 74136
L78281 74099
L78356 74099
L78464 74136
L78497 74174
" />
<path d="M79059 74474
L79167 74511
L79200 74549
L79228 74624
L79214 74736
L79167 74811
L79125 74849
L79045 74886
L78745 74886
L78844 74099
L79106 74099
L79176 74136
L79209 74174
L79237 74249
L79228 74324
L79181 74399
L79139 74436
L79059 74474
L78797 74474
" />
</g>
<g style="fill:#000000; fill-opacity:0.0; 
stroke:#000000; stroke-width:39.3701; stroke-opacity:1; 
stroke-linecap:round; stroke-linejoin:round;">
</g>
<g style="fill:#000000; fill-opacity:0.0; 
stroke:#000000; stroke-width:59.0551; stroke-opacity:1; 
stroke-linecap:round; stroke-linejoin:round;">
<path d="M70417 73070
L70220 73070
" />
<path d="M70220 73380
L70220 72789
L70501 72789
" />
<path d="M70726 73380
L70726 72986
" />
<path d="M70726 72789
L70698 72817
L70726 72845
L70754 72817
L70726 72789
L70726 72845
" />
<path d="M71091 73380
L71035 73352
L71007 73295
L71007 72789
" />
<path d="M71541 73352
L71485 73380
L71373 73380
L71316 73352
L71288 73295
L71288 73070
L71316 73014
L71373 72986
L71485 72986
L71541 73014
L71570 73070
L71570 73127
L71288 73183
" />
<path d="M71823 73323
L71851 73352
L71823 73380
L71795 73352
L71823 73323
L71823 73380
" />
<path d="M71823 73014
L71851 73042
L71823 73070
L71795 73042
L71823 73014
L71823 73070
" />
<path d="M72554 73380
L72554 72789
" />
<path d="M72554 73014
L72610 72986
L72723 72986
L72779 73014
L72807 73042
L72835 73099
L72835 73267
L72807 73323
L72779 73352
L72723 73380
L72610 73380
L72554 73352
" />
<path d="M73341 73380
L73341 73070
L73313 73014
L73257 72986
L73144 72986
L73088 73014
" />
<path d="M73341 73352
L73285 73380
L73144 73380
L73088 73352
L73060 73295
L73060 73239
L73088 73183
L73144 73155
L73285 73155
L73341 73127
" />
<path d="M73538 72986
L73763 72986
" />
<path d="M73622 72789
L73622 73295
L73651 73352
L73707 73380
L73763 73380
" />
<path d="M73932 73352
L73988 73380
L74100 73380
L74157 73352
L74185 73295
L74185 73267
L74157 73211
L74100 73183
L74016 73183
L73960 73155
L73932 73099
L73932 73070
L73960 73014
L74016 72986
L74100 72986
L74157 73014
" />
<path d="M74438 73323
L74466 73352
L74438 73380
L74410 73352
L74438 73323
L74438 73380
" />
<path d="M74719 73380
L74719 72789
" />
<path d="M74775 73155
L74944 73380
" />
<path d="M74944 72986
L74719 73211
" />
<path d="M75197 73380
L75197 72986
" />
<path d="M75197 72789
L75169 72817
L75197 72845
L75225 72817
L75197 72789
L75197 72845
" />
<path d="M75732 73352
L75675 73380
L75563 73380
L75507 73352
L75478 73323
L75450 73267
L75450 73099
L75478 73042
L75507 73014
L75563 72986
L75675 72986
L75732 73014
" />
<path d="M76238 73380
L76238 73070
L76210 73014
L76153 72986
L76041 72986
L75985 73014
" />
<path d="M76238 73352
L76181 73380
L76041 73380
L75985 73352
L75956 73295
L75956 73239
L75985 73183
L76041 73155
L76181 73155
L76238 73127
" />
<path d="M76772 73380
L76772 72789
" />
<path d="M76772 73352
L76716 73380
L76603 73380
L76547 73352
L76519 73323
L76491 73267
L76491 73099
L76519 73042
L76547 73014
L76603 72986
L76716 72986
L76772 73014
" />
<path d="M76913 73436
L77363 73436
" />
<path d="M77503 72986
L77503 73577
" />
<path d="M77503 73014
L77559 72986
L77672 72986
L77728 73014
L77756 73042
L77784 73099
L77784 73267
L77756 73323
L77728 73352
L77672 73380
L77559 73380
L77503 73352
" />
<path d="M78291 73352
L78234 73380
L78122 73380
L78066 73352
L78037 73323
L78009 73267
L78009 73099
L78037 73042
L78066 73014
L78122 72986
L78234 72986
L78291 73014
" />
<path d="M78544 73380
L78544 72789
" />
<path d="M78544 73014
L78600 72986
L78712 72986
L78769 73014
L78797 73042
L78825 73099
L78825 73267
L78797 73323
L78769 73352
L78712 73380
L78600 73380
L78544 73352
" />
</g>
<g style="fill:#000000; fill-opacity:0.0; 
stroke:#000000; stroke-width:39.3701; stroke-opacity:1; 
stroke-linecap:round; stroke-linejoin:round;">
</g>
<g style="fill:#000000; fill-opacity:0.0; 
stroke:#000000; stroke-width:59.0551; stroke-opacity:1; 
stroke-linecap:round; stroke-linejoin:round;">
<path d="M69685 71459
L112205 71459
" />
</g>
<g style="fill:#000000; fill-opacity:0.0; 
stroke:#000000; stroke-width:39.3701; stroke-opacity:1; 
stroke-linecap:round; stroke-linejoin:round;">
</g>
<g style="fill:#000000; fill-opacity:0.0; 
stroke:#000000; stroke-width:59.0551; stroke-opacity:1; 
stroke-linecap:round; stroke-linejoin:round;">
<path d="M70192 72289
L70276 72317
L70417 72317
L70473 72289
L70501 72260
L70529 72204
L70529 72148
L70501 72092
L70473 72064
L70417 72036
L70304 72007
L70248 71979
L70220 71951
L70192 71895
L70192 71839
L70220 71782
L70248 71754
L70304 71726
L70445 71726
L70529 71754
" />
<path d="M70782 72317
L70782 71726
" />
<path d="M71035 72317
L71035 72007
L71007 71951
L70951 71923
L70867 71923
L70810 71951
L70782 71979
" />
<path d="M71541 72289
L71485 72317
L71373 72317
L71316 72289
L71288 72232
L71288 72007
L71316 71951
L71373 71923
L71485 71923
L71541 71951
L71570 72007
L71570 72064
L71288 72120
" />
<path d="M72048 72289
L71991 72317
L71879 72317
L71823 72289
L71795 72232
L71795 72007
L71823 71951
L71879 71923
L71991 71923
L72048 71951
L72076 72007
L72076 72064
L71795 72120
" />
<path d="M72244 71923
L72469 71923
" />
<path d="M72329 71726
L72329 72232
L72357 72289
L72413 72317
L72469 72317
" />
<path d="M72666 72260
L72694 72289
L72666 72317
L72638 72289
L72666 72260
L72666 72317
" />
<path d="M72666 71951
L72694 71979
L72666 72007
L72638 71979
L72666 71951
L72666 72007
" />
</g>
<g style="fill:#000000; fill-opacity:0.0; 
stroke:#000000; stroke-width:39.3701; stroke-opacity:1; 
stroke-linecap:round; stroke-linejoin:round;">
</g>
<g style="fill:#000000; fill-opacity:0.0; 
stroke:#000000; stroke-width:118.11; stroke-opacity:1; 
stroke-linecap:round; stroke-linejoin:round;">
<path d="M70417 70826
L70501 70854
L70529 70883
L70557 70939
L70557 71023
L70529 71079
L70501 71108
L70445 71136
L70220 71136
L70220 70545
L70417 70545
L70473 70573
L70501 70601
L70529 70658
L70529 70714
L70501 70770
L70473 70798
L70417 70826
L70220 70826
" />
<path d="M70810 71136
L70810 70742
" />
<path d="M70810 70854
L70838 70798
L70867 70770
L70923 70742
L70979 70742
" />
<path d="M71176 71136
L71176 70742
" />
<path d="M71176 70545
L71148 70573
L71176 70601
L71204 70573
L71176 70545
L71176 70601
" />
<path d="M71710 71108
L71654 71136
L71541 71136
L71485 71108
L71457 71079
L71429 71023
L71429 70854
L71457 70798
L71485 70770
L71541 70742
L71654 70742
L71710 70770
" />
<path d="M72048 71136
L71991 71108
L71963 71079
L71935 71023
L71935 70854
L71963 70798
L71991 70770
L72048 70742
L72132 70742
L72188 70770
L72216 70798
L72244 70854
L72244 71023
L72216 71079
L72188 71108
L72132 71136
L72048 71136
" />
<path d="M72779 71136
L72498 71136
L72498 70545
" />
<path d="M73229 71136
L73229 70826
L73201 70770
L73144 70742
L73032 70742
L72976 70770
" />
<path d="M73229 71108
L73172 71136
L73032 71136
L72976 71108
L72947 71051
L72947 70995
L72976 70939
L73032 70911
L73172 70911
L73229 70883
" />
<path d="M73510 71136
L73510 70545
" />
<path d="M73510 70770
L73566 70742
L73679 70742
L73735 70770
L73763 70798
L73791 70854
L73791 71023
L73763 71079
L73735 71108
L73679 71136
L73566 71136
L73510 71108
" />
<path d="M74016 71108
L74072 71136
L74185 71136
L74241 71108
L74269 71051
L74269 71023
L74241 70967
L74185 70939
L74100 70939
L74044 70911
L74016 70854
L74016 70826
L74044 70770
L74100 70742
L74185 70742
L74241 70770
" />
</g>
<g style="fill:#000000; fill-opacity:0.0; 
stroke:#000000; stroke-width:39.3701; stroke-opacity:1; 
stroke-linecap:round; stroke-linejoin:round;">
</g>
<g style="fill:#000000; fill-opacity:0.0; 
stroke:#000000; stroke-width:59.0551; stroke-opacity:1; 
stroke-linecap:round; stroke-linejoin:round;">
<path d="M77559 75396
L77559 76577
" />
</g>
<g style="fill:#000000; fill-opacity:0.0; 
stroke:#000000; stroke-width:39.3701; stroke-opacity:1; 
stroke-linecap:round; stroke-linejoin:round;">
</g>
<g style="fill:#000000; fill-opacity:0.0; 
stroke:#000000; stroke-width:59.0551; stroke-opacity:1; 
stroke-linecap:round; stroke-linejoin:round;">
<path d="M102756 75396
L102756 77955
" />
</g>
<g style="fill:#C2C200; fill-opacity:0.0; 
stroke:#C2C200; stroke-width:59.0551; stroke-opacity:1; 
stroke-linecap:round; stroke-linejoin:round;">
</g>
<g style="fill:#C2C200; fill-opacity:0.0; 
stroke:#C2C200; stroke-width:39.3701; stroke-opacity:1; 
stroke-linecap:round; stroke-linejoin:round;">
<path d="M49930 54300
L49930 33460
" />
<path d="M76050 54300
L49930 54300
" />
<path d="M76050 53260
L76050 54300
" />
<path d="M77040 52270
L76050 53260
" />
<path d="M77040 39210
L77040 52270
" />
<path d="M76050 38220
L77040 39210
" />
<path d="M76050 33720
L76050 38220
" />
<path d="M75510 33180
L76050 33720
" />
<path d="M49930 33180
L75510 33180
" />
<path d="M49930 33460
L49930 33180
" />
</g> 
</svg>
