<?xml version="1.0" standalone="no"?>
 <!DOCTYPE svg PUBLIC "-//W3C//DTD SVG 1.1//EN" 
 "http://www.w3.org/Graphics/SVG/1.1/DTD/svg11.dtd"> 
<svg xmlns="http://www.w3.org/2000/svg" version="1.1" 
    width="29.7002cm" height="21.0007cm" viewBox="0 0 116930 82680 ">
<title>SVG Picture created as bats-F.SilkS.svg date 2015/11/14 20:21:51 </title>
  <desc>Picture generated by PCBNEW </desc>
<g style="fill:#000000; fill-opacity:1;stroke:#000000; stroke-opacity:1;
stroke-linecap:round; stroke-linejoin:round; "
 transform="translate(0 0) scale(1 1)">
</g>
<g style="fill:#000000; fill-opacity:0.0; 
stroke:#000000; stroke-width:-0.000393701; stroke-opacity:1; 
stroke-linecap:round; stroke-linejoin:round;">
</g>
<g style="fill:#000000; fill-opacity:0.0; 
stroke:#000000; stroke-width:39.3701; stroke-opacity:1; 
stroke-linecap:round; stroke-linejoin:round;">
</g>
<g style="fill:#000000; fill-opacity:0.0; 
stroke:#000000; stroke-width:59.0551; stroke-opacity:1; 
stroke-linecap:round; stroke-linejoin:round;">
<rect x="69685.9" y="65357.2" width="42519.7" height="12598.4" rx="0" />
</g>
<g style="fill:#000000; fill-opacity:0.0; 
stroke:#000000; stroke-width:39.3701; stroke-opacity:1; 
stroke-linecap:round; stroke-linejoin:round;">
</g>
<g style="fill:#000000; fill-opacity:0.0; 
stroke:#000000; stroke-width:59.0551; stroke-opacity:1; 
stroke-linecap:round; stroke-linejoin:round;">
<rect x="3937.01" y="3937.01" width="109056" height="74806" rx="0" />
</g>
<g style="fill:#000000; fill-opacity:0.0; 
stroke:#000000; stroke-width:39.3701; stroke-opacity:1; 
stroke-linecap:round; stroke-linejoin:round;">
</g>
<g style="fill:#000000; fill-opacity:0.0; 
stroke:#000000; stroke-width:59.0551; stroke-opacity:1; 
stroke-linecap:round; stroke-linejoin:round;">
<rect x="4724.41" y="4724.41" width="107481" height="73231.2" rx="0" />
</g>
<g style="fill:#000000; fill-opacity:0.0; 
stroke:#000000; stroke-width:39.3701; stroke-opacity:1; 
stroke-linecap:round; stroke-linejoin:round;">
</g>
<g style="fill:#000000; fill-opacity:0.0; 
stroke:#000000; stroke-width:59.0551; stroke-opacity:1; 
stroke-linecap:round; stroke-linejoin:round;">
<path d="M23622 4724
L23622 3937
" />
</g>
<g style="fill:#000000; fill-opacity:0.0; 
stroke:#000000; stroke-width:39.3701; stroke-opacity:1; 
stroke-linecap:round; stroke-linejoin:round;">
</g>
<g style="fill:#000000; fill-opacity:0.0; 
stroke:#000000; stroke-width:59.0551; stroke-opacity:1; 
stroke-linecap:round; stroke-linejoin:round;">
<path d="M43307 4724
L43307 3937
" />
</g>
<g style="fill:#000000; fill-opacity:0.0; 
stroke:#000000; stroke-width:39.3701; stroke-opacity:1; 
stroke-linecap:round; stroke-linejoin:round;">
</g>
<g style="fill:#000000; fill-opacity:0.0; 
stroke:#000000; stroke-width:59.0551; stroke-opacity:1; 
stroke-linecap:round; stroke-linejoin:round;">
<path d="M62992 4724
L62992 3937
" />
</g>
<g style="fill:#000000; fill-opacity:0.0; 
stroke:#000000; stroke-width:39.3701; stroke-opacity:1; 
stroke-linecap:round; stroke-linejoin:round;">
</g>
<g style="fill:#000000; fill-opacity:0.0; 
stroke:#000000; stroke-width:59.0551; stroke-opacity:1; 
stroke-linecap:round; stroke-linejoin:round;">
<path d="M82677 4724
L82677 3937
" />
</g>
<g style="fill:#000000; fill-opacity:0.0; 
stroke:#000000; stroke-width:39.3701; stroke-opacity:1; 
stroke-linecap:round; stroke-linejoin:round;">
</g>
<g style="fill:#000000; fill-opacity:0.0; 
stroke:#000000; stroke-width:59.0551; stroke-opacity:1; 
stroke-linecap:round; stroke-linejoin:round;">
<path d="M102362 4724
L102362 3937
" />
</g>
<g style="fill:#000000; fill-opacity:0.0; 
stroke:#000000; stroke-width:39.3701; stroke-opacity:1; 
stroke-linecap:round; stroke-linejoin:round;">
</g>
<g style="fill:#000000; fill-opacity:0.0; 
stroke:#000000; stroke-width:59.0551; stroke-opacity:1; 
stroke-linecap:round; stroke-linejoin:round;">
<path d="M14169 4562
L13877 4562
" />
<path d="M14023 4562
L14023 4050
L13974 4123
L13925 4172
L13877 4196
" />
</g>
<g style="fill:#000000; fill-opacity:0.0; 
stroke:#000000; stroke-width:39.3701; stroke-opacity:1; 
stroke-linecap:round; stroke-linejoin:round;">
</g>
<g style="fill:#000000; fill-opacity:0.0; 
stroke:#000000; stroke-width:59.0551; stroke-opacity:1; 
stroke-linecap:round; stroke-linejoin:round;">
<path d="M33562 4099
L33586 4074
L33635 4050
L33757 4050
L33805 4074
L33830 4099
L33854 4147
L33854 4196
L33830 4269
L33537 4562
L33854 4562
" />
</g>
<g style="fill:#000000; fill-opacity:0.0; 
stroke:#000000; stroke-width:39.3701; stroke-opacity:1; 
stroke-linecap:round; stroke-linejoin:round;">
</g>
<g style="fill:#000000; fill-opacity:0.0; 
stroke:#000000; stroke-width:59.0551; stroke-opacity:1; 
stroke-linecap:round; stroke-linejoin:round;">
<path d="M53222 4050
L53539 4050
L53368 4245
L53442 4245
L53490 4269
L53515 4294
L53539 4342
L53539 4464
L53515 4513
L53490 4537
L53442 4562
L53295 4562
L53247 4537
L53222 4513
" />
</g>
<g style="fill:#000000; fill-opacity:0.0; 
stroke:#000000; stroke-width:39.3701; stroke-opacity:1; 
stroke-linecap:round; stroke-linejoin:round;">
</g>
<g style="fill:#000000; fill-opacity:0.0; 
stroke:#000000; stroke-width:59.0551; stroke-opacity:1; 
stroke-linecap:round; stroke-linejoin:round;">
<path d="M73175 4221
L73175 4562
" />
<path d="M73053 4026
L72932 4391
L73248 4391
" />
</g>
<g style="fill:#000000; fill-opacity:0.0; 
stroke:#000000; stroke-width:39.3701; stroke-opacity:1; 
stroke-linecap:round; stroke-linejoin:round;">
</g>
<g style="fill:#000000; fill-opacity:0.0; 
stroke:#000000; stroke-width:59.0551; stroke-opacity:1; 
stroke-linecap:round; stroke-linejoin:round;">
<path d="M92885 4050
L92641 4050
L92617 4294
L92641 4269
L92690 4245
L92812 4245
L92860 4269
L92885 4294
L92909 4342
L92909 4464
L92885 4513
L92860 4537
L92812 4562
L92690 4562
L92641 4537
L92617 4513
" />
</g>
<g style="fill:#000000; fill-opacity:0.0; 
stroke:#000000; stroke-width:39.3701; stroke-opacity:1; 
stroke-linecap:round; stroke-linejoin:round;">
</g>
<g style="fill:#000000; fill-opacity:0.0; 
stroke:#000000; stroke-width:59.0551; stroke-opacity:1; 
stroke-linecap:round; stroke-linejoin:round;">
<path d="M112545 4050
L112448 4050
L112399 4074
L112375 4099
L112326 4172
L112302 4269
L112302 4464
L112326 4513
L112350 4537
L112399 4562
L112497 4562
L112545 4537
L112570 4513
L112594 4464
L112594 4342
L112570 4294
L112545 4269
L112497 4245
L112399 4245
L112350 4269
L112326 4294
L112302 4342
" />
</g>
<g style="fill:#000000; fill-opacity:0.0; 
stroke:#000000; stroke-width:39.3701; stroke-opacity:1; 
stroke-linecap:round; stroke-linejoin:round;">
</g>
<g style="fill:#000000; fill-opacity:0.0; 
stroke:#000000; stroke-width:59.0551; stroke-opacity:1; 
stroke-linecap:round; stroke-linejoin:round;">
<path d="M23622 77955
L23622 78742
" />
</g>
<g style="fill:#000000; fill-opacity:0.0; 
stroke:#000000; stroke-width:39.3701; stroke-opacity:1; 
stroke-linecap:round; stroke-linejoin:round;">
</g>
<g style="fill:#000000; fill-opacity:0.0; 
stroke:#000000; stroke-width:59.0551; stroke-opacity:1; 
stroke-linecap:round; stroke-linejoin:round;">
<path d="M43307 77955
L43307 78742
" />
</g>
<g style="fill:#000000; fill-opacity:0.0; 
stroke:#000000; stroke-width:39.3701; stroke-opacity:1; 
stroke-linecap:round; stroke-linejoin:round;">
</g>
<g style="fill:#000000; fill-opacity:0.0; 
stroke:#000000; stroke-width:59.0551; stroke-opacity:1; 
stroke-linecap:round; stroke-linejoin:round;">
<path d="M62992 77955
L62992 78742
" />
</g>
<g style="fill:#000000; fill-opacity:0.0; 
stroke:#000000; stroke-width:39.3701; stroke-opacity:1; 
stroke-linecap:round; stroke-linejoin:round;">
</g>
<g style="fill:#000000; fill-opacity:0.0; 
stroke:#000000; stroke-width:59.0551; stroke-opacity:1; 
stroke-linecap:round; stroke-linejoin:round;">
<path d="M82677 77955
L82677 78742
" />
</g>
<g style="fill:#000000; fill-opacity:0.0; 
stroke:#000000; stroke-width:39.3701; stroke-opacity:1; 
stroke-linecap:round; stroke-linejoin:round;">
</g>
<g style="fill:#000000; fill-opacity:0.0; 
stroke:#000000; stroke-width:59.0551; stroke-opacity:1; 
stroke-linecap:round; stroke-linejoin:round;">
<path d="M102362 77955
L102362 78742
" />
</g>
<g style="fill:#000000; fill-opacity:0.0; 
stroke:#000000; stroke-width:39.3701; stroke-opacity:1; 
stroke-linecap:round; stroke-linejoin:round;">
</g>
<g style="fill:#000000; fill-opacity:0.0; 
stroke:#000000; stroke-width:59.0551; stroke-opacity:1; 
stroke-linecap:round; stroke-linejoin:round;">
<path d="M14169 78580
L13877 78580
" />
<path d="M14023 78580
L14023 78069
L13974 78142
L13925 78190
L13877 78215
" />
</g>
<g style="fill:#000000; fill-opacity:0.0; 
stroke:#000000; stroke-width:39.3701; stroke-opacity:1; 
stroke-linecap:round; stroke-linejoin:round;">
</g>
<g style="fill:#000000; fill-opacity:0.0; 
stroke:#000000; stroke-width:59.0551; stroke-opacity:1; 
stroke-linecap:round; stroke-linejoin:round;">
<path d="M33562 78117
L33586 78093
L33635 78069
L33757 78069
L33805 78093
L33830 78117
L33854 78166
L33854 78215
L33830 78288
L33537 78580
L33854 78580
" />
</g>
<g style="fill:#000000; fill-opacity:0.0; 
stroke:#000000; stroke-width:39.3701; stroke-opacity:1; 
stroke-linecap:round; stroke-linejoin:round;">
</g>
<g style="fill:#000000; fill-opacity:0.0; 
stroke:#000000; stroke-width:59.0551; stroke-opacity:1; 
stroke-linecap:round; stroke-linejoin:round;">
<path d="M53222 78069
L53539 78069
L53368 78263
L53442 78263
L53490 78288
L53515 78312
L53539 78361
L53539 78483
L53515 78532
L53490 78556
L53442 78580
L53295 78580
L53247 78556
L53222 78532
" />
</g>
<g style="fill:#000000; fill-opacity:0.0; 
stroke:#000000; stroke-width:39.3701; stroke-opacity:1; 
stroke-linecap:round; stroke-linejoin:round;">
</g>
<g style="fill:#000000; fill-opacity:0.0; 
stroke:#000000; stroke-width:59.0551; stroke-opacity:1; 
stroke-linecap:round; stroke-linejoin:round;">
<path d="M73175 78239
L73175 78580
" />
<path d="M73053 78044
L72932 78410
L73248 78410
" />
</g>
<g style="fill:#000000; fill-opacity:0.0; 
stroke:#000000; stroke-width:39.3701; stroke-opacity:1; 
stroke-linecap:round; stroke-linejoin:round;">
</g>
<g style="fill:#000000; fill-opacity:0.0; 
stroke:#000000; stroke-width:59.0551; stroke-opacity:1; 
stroke-linecap:round; stroke-linejoin:round;">
<path d="M92885 78069
L92641 78069
L92617 78312
L92641 78288
L92690 78263
L92812 78263
L92860 78288
L92885 78312
L92909 78361
L92909 78483
L92885 78532
L92860 78556
L92812 78580
L92690 78580
L92641 78556
L92617 78532
" />
</g>
<g style="fill:#000000; fill-opacity:0.0; 
stroke:#000000; stroke-width:39.3701; stroke-opacity:1; 
stroke-linecap:round; stroke-linejoin:round;">
</g>
<g style="fill:#000000; fill-opacity:0.0; 
stroke:#000000; stroke-width:59.0551; stroke-opacity:1; 
stroke-linecap:round; stroke-linejoin:round;">
<path d="M112545 78069
L112448 78069
L112399 78093
L112375 78117
L112326 78190
L112302 78288
L112302 78483
L112326 78532
L112350 78556
L112399 78580
L112497 78580
L112545 78556
L112570 78532
L112594 78483
L112594 78361
L112570 78312
L112545 78288
L112497 78263
L112399 78263
L112350 78288
L112326 78312
L112302 78361
" />
</g>
<g style="fill:#000000; fill-opacity:0.0; 
stroke:#000000; stroke-width:39.3701; stroke-opacity:1; 
stroke-linecap:round; stroke-linejoin:round;">
</g>
<g style="fill:#000000; fill-opacity:0.0; 
stroke:#000000; stroke-width:59.0551; stroke-opacity:1; 
stroke-linecap:round; stroke-linejoin:round;">
<path d="M3937 23622
L4724 23622
" />
</g>
<g style="fill:#000000; fill-opacity:0.0; 
stroke:#000000; stroke-width:39.3701; stroke-opacity:1; 
stroke-linecap:round; stroke-linejoin:round;">
</g>
<g style="fill:#000000; fill-opacity:0.0; 
stroke:#000000; stroke-width:59.0551; stroke-opacity:1; 
stroke-linecap:round; stroke-linejoin:round;">
<path d="M3937 43307
L4724 43307
" />
</g>
<g style="fill:#000000; fill-opacity:0.0; 
stroke:#000000; stroke-width:39.3701; stroke-opacity:1; 
stroke-linecap:round; stroke-linejoin:round;">
</g>
<g style="fill:#000000; fill-opacity:0.0; 
stroke:#000000; stroke-width:59.0551; stroke-opacity:1; 
stroke-linecap:round; stroke-linejoin:round;">
<path d="M3937 62992
L4724 62992
" />
</g>
<g style="fill:#000000; fill-opacity:0.0; 
stroke:#000000; stroke-width:39.3701; stroke-opacity:1; 
stroke-linecap:round; stroke-linejoin:round;">
</g>
<g style="fill:#000000; fill-opacity:0.0; 
stroke:#000000; stroke-width:59.0551; stroke-opacity:1; 
stroke-linecap:round; stroke-linejoin:round;">
<path d="M4208 13864
L4452 13864
" />
<path d="M4160 14011
L4330 13499
L4501 14011
" />
</g>
<g style="fill:#000000; fill-opacity:0.0; 
stroke:#000000; stroke-width:39.3701; stroke-opacity:1; 
stroke-linecap:round; stroke-linejoin:round;">
</g>
<g style="fill:#000000; fill-opacity:0.0; 
stroke:#000000; stroke-width:59.0551; stroke-opacity:1; 
stroke-linecap:round; stroke-linejoin:round;">
<path d="M4367 33428
L4440 33452
L4464 33476
L4489 33525
L4489 33598
L4464 33647
L4440 33671
L4391 33696
L4196 33696
L4196 33184
L4367 33184
L4416 33208
L4440 33233
L4464 33281
L4464 33330
L4440 33379
L4416 33403
L4367 33428
L4196 33428
" />
</g>
<g style="fill:#000000; fill-opacity:0.0; 
stroke:#000000; stroke-width:39.3701; stroke-opacity:1; 
stroke-linecap:round; stroke-linejoin:round;">
</g>
<g style="fill:#000000; fill-opacity:0.0; 
stroke:#000000; stroke-width:59.0551; stroke-opacity:1; 
stroke-linecap:round; stroke-linejoin:round;">
<path d="M4489 53332
L4464 53356
L4391 53381
L4342 53381
L4269 53356
L4221 53308
L4196 53259
L4172 53161
L4172 53088
L4196 52991
L4221 52942
L4269 52893
L4342 52869
L4391 52869
L4464 52893
L4489 52918
" />
</g>
<g style="fill:#000000; fill-opacity:0.0; 
stroke:#000000; stroke-width:39.3701; stroke-opacity:1; 
stroke-linecap:round; stroke-linejoin:round;">
</g>
<g style="fill:#000000; fill-opacity:0.0; 
stroke:#000000; stroke-width:59.0551; stroke-opacity:1; 
stroke-linecap:round; stroke-linejoin:round;">
<path d="M4196 73066
L4196 72554
L4318 72554
L4391 72578
L4440 72627
L4464 72676
L4489 72773
L4489 72846
L4464 72944
L4440 72993
L4391 73041
L4318 73066
L4196 73066
" />
</g>
<g style="fill:#000000; fill-opacity:0.0; 
stroke:#000000; stroke-width:39.3701; stroke-opacity:1; 
stroke-linecap:round; stroke-linejoin:round;">
</g>
<g style="fill:#000000; fill-opacity:0.0; 
stroke:#000000; stroke-width:59.0551; stroke-opacity:1; 
stroke-linecap:round; stroke-linejoin:round;">
<path d="M112992 23622
L112205 23622
" />
</g>
<g style="fill:#000000; fill-opacity:0.0; 
stroke:#000000; stroke-width:39.3701; stroke-opacity:1; 
stroke-linecap:round; stroke-linejoin:round;">
</g>
<g style="fill:#000000; fill-opacity:0.0; 
stroke:#000000; stroke-width:59.0551; stroke-opacity:1; 
stroke-linecap:round; stroke-linejoin:round;">
<path d="M112992 43307
L112205 43307
" />
</g>
<g style="fill:#000000; fill-opacity:0.0; 
stroke:#000000; stroke-width:39.3701; stroke-opacity:1; 
stroke-linecap:round; stroke-linejoin:round;">
</g>
<g style="fill:#000000; fill-opacity:0.0; 
stroke:#000000; stroke-width:59.0551; stroke-opacity:1; 
stroke-linecap:round; stroke-linejoin:round;">
<path d="M112992 62992
L112205 62992
" />
</g>
<g style="fill:#000000; fill-opacity:0.0; 
stroke:#000000; stroke-width:39.3701; stroke-opacity:1; 
stroke-linecap:round; stroke-linejoin:round;">
</g>
<g style="fill:#000000; fill-opacity:0.0; 
stroke:#000000; stroke-width:59.0551; stroke-opacity:1; 
stroke-linecap:round; stroke-linejoin:round;">
<path d="M112477 13864
L112721 13864
" />
<path d="M112428 14011
L112599 13499
L112769 14011
" />
</g>
<g style="fill:#000000; fill-opacity:0.0; 
stroke:#000000; stroke-width:39.3701; stroke-opacity:1; 
stroke-linecap:round; stroke-linejoin:round;">
</g>
<g style="fill:#000000; fill-opacity:0.0; 
stroke:#000000; stroke-width:59.0551; stroke-opacity:1; 
stroke-linecap:round; stroke-linejoin:round;">
<path d="M112635 33428
L112708 33452
L112733 33476
L112757 33525
L112757 33598
L112733 33647
L112708 33671
L112660 33696
L112465 33696
L112465 33184
L112635 33184
L112684 33208
L112708 33233
L112733 33281
L112733 33330
L112708 33379
L112684 33403
L112635 33428
L112465 33428
" />
</g>
<g style="fill:#000000; fill-opacity:0.0; 
stroke:#000000; stroke-width:39.3701; stroke-opacity:1; 
stroke-linecap:round; stroke-linejoin:round;">
</g>
<g style="fill:#000000; fill-opacity:0.0; 
stroke:#000000; stroke-width:59.0551; stroke-opacity:1; 
stroke-linecap:round; stroke-linejoin:round;">
<path d="M112757 53332
L112733 53356
L112660 53381
L112611 53381
L112538 53356
L112489 53308
L112465 53259
L112440 53161
L112440 53088
L112465 52991
L112489 52942
L112538 52893
L112611 52869
L112660 52869
L112733 52893
L112757 52918
" />
</g>
<g style="fill:#000000; fill-opacity:0.0; 
stroke:#000000; stroke-width:39.3701; stroke-opacity:1; 
stroke-linecap:round; stroke-linejoin:round;">
</g>
<g style="fill:#000000; fill-opacity:0.0; 
stroke:#000000; stroke-width:59.0551; stroke-opacity:1; 
stroke-linecap:round; stroke-linejoin:round;">
<path d="M112465 73066
L112465 72554
L112587 72554
L112660 72578
L112708 72627
L112733 72676
L112757 72773
L112757 72846
L112733 72944
L112708 72993
L112660 73041
L112587 73066
L112465 73066
" />
</g>
<g style="fill:#000000; fill-opacity:0.0; 
stroke:#000000; stroke-width:39.3701; stroke-opacity:1; 
stroke-linecap:round; stroke-linejoin:round;">
</g>
<g style="fill:#000000; fill-opacity:0.0; 
stroke:#000000; stroke-width:59.0551; stroke-opacity:1; 
stroke-linecap:round; stroke-linejoin:round;">
<path d="M78881 76293
L78881 75703
L79022 75703
L79106 75731
L79162 75787
L79190 75843
L79219 75956
L79219 76040
L79190 76153
L79162 76209
L79106 76265
L79022 76293
L78881 76293
" />
<path d="M79725 76293
L79725 75984
L79697 75928
L79640 75899
L79528 75899
L79472 75928
" />
<path d="M79725 76265
L79669 76293
L79528 76293
L79472 76265
L79444 76209
L79444 76153
L79472 76096
L79528 76068
L79669 76068
L79725 76040
" />
<path d="M79922 75899
L80147 75899
" />
<path d="M80006 75703
L80006 76209
L80034 76265
L80090 76293
L80147 76293
" />
<path d="M80568 76265
L80512 76293
L80400 76293
L80343 76265
L80315 76209
L80315 75984
L80343 75928
L80400 75899
L80512 75899
L80568 75928
L80597 75984
L80597 76040
L80315 76096
" />
<path d="M80850 76237
L80878 76265
L80850 76293
L80822 76265
L80850 76237
L80850 76293
" />
<path d="M80850 75928
L80878 75956
L80850 75984
L80822 75956
L80850 75928
L80850 75984
" />
<path d="M81553 75759
L81581 75731
L81637 75703
L81778 75703
L81834 75731
L81862 75759
L81890 75815
L81890 75871
L81862 75956
L81525 76293
L81890 76293
" />
<path d="M82256 75703
L82312 75703
L82368 75731
L82396 75759
L82424 75815
L82453 75928
L82453 76068
L82424 76181
L82396 76237
L82368 76265
L82312 76293
L82256 76293
L82199 76265
L82171 76237
L82143 76181
L82115 76068
L82115 75928
L82143 75815
L82171 75759
L82199 75731
L82256 75703
" />
<path d="M83015 76293
L82678 76293
" />
<path d="M82846 76293
L82846 75703
L82790 75787
L82734 75843
L82678 75871
" />
<path d="M83549 75703
L83268 75703
L83240 75984
L83268 75956
L83324 75928
L83465 75928
L83521 75956
L83549 75984
L83577 76040
L83577 76181
L83549 76237
L83521 76265
L83465 76293
L83324 76293
L83268 76265
L83240 76237
" />
<path d="M83831 76068
L84280 76068
" />
<path d="M84871 76293
L84534 76293
" />
<path d="M84702 76293
L84702 75703
L84646 75787
L84590 75843
L84534 75871
" />
<path d="M85237 75703
L85293 75703
L85349 75731
L85377 75759
L85405 75815
L85433 75928
L85433 76068
L85405 76181
L85377 76237
L85349 76265
L85293 76293
L85237 76293
L85180 76265
L85152 76237
L85124 76181
L85096 76068
L85096 75928
L85124 75815
L85152 75759
L85180 75731
L85237 75703
" />
<path d="M85687 76068
L86136 76068
" />
<path d="M86727 76293
L86390 76293
" />
<path d="M86558 76293
L86558 75703
L86502 75787
L86446 75843
L86390 75871
" />
<path d="M87008 76293
L87121 76293
L87177 76265
L87205 76237
L87261 76153
L87289 76040
L87289 75815
L87261 75759
L87233 75731
L87177 75703
L87064 75703
L87008 75731
L86980 75759
L86952 75815
L86952 75956
L86980 76012
L87008 76040
L87064 76068
L87177 76068
L87233 76040
L87261 76012
L87289 75956
" />
</g>
<g style="fill:#000000; fill-opacity:0.0; 
stroke:#000000; stroke-width:39.3701; stroke-opacity:1; 
stroke-linecap:round; stroke-linejoin:round;">
</g>
<g style="fill:#000000; fill-opacity:0.0; 
stroke:#000000; stroke-width:59.0551; stroke-opacity:1; 
stroke-linecap:round; stroke-linejoin:round;">
<path d="M69685 76577
L112205 76577
" />
</g>
<g style="fill:#000000; fill-opacity:0.0; 
stroke:#000000; stroke-width:39.3701; stroke-opacity:1; 
stroke-linecap:round; stroke-linejoin:round;">
</g>
<g style="fill:#000000; fill-opacity:0.0; 
stroke:#000000; stroke-width:59.0551; stroke-opacity:1; 
stroke-linecap:round; stroke-linejoin:round;">
<path d="M70220 77395
L70220 76805
" />
<path d="M70557 77395
L70304 77058
" />
<path d="M70557 76805
L70220 77142
" />
<path d="M70810 77395
L70810 77002
" />
<path d="M70810 76805
L70782 76833
L70810 76861
L70838 76833
L70810 76805
L70810 76861
" />
<path d="M71429 77339
L71401 77367
L71316 77395
L71260 77395
L71176 77367
L71120 77311
L71091 77255
L71063 77142
L71063 77058
L71091 76946
L71120 76889
L71176 76833
L71260 76805
L71316 76805
L71401 76833
L71429 76861
" />
<path d="M71935 77395
L71935 77086
L71907 77030
L71851 77002
L71738 77002
L71682 77030
" />
<path d="M71935 77367
L71879 77395
L71738 77395
L71682 77367
L71654 77311
L71654 77255
L71682 77199
L71738 77171
L71879 77171
L71935 77142
" />
<path d="M72469 77395
L72469 76805
" />
<path d="M72469 77367
L72413 77395
L72301 77395
L72244 77367
L72216 77339
L72188 77283
L72188 77114
L72216 77058
L72244 77030
L72301 77002
L72413 77002
L72469 77030
" />
<path d="M73201 77086
L73397 77086
" />
<path d="M73482 77395
L73201 77395
L73201 76805
L73482 76805
" />
<path d="M73735 77339
L73763 77367
L73735 77395
L73707 77367
L73735 77339
L73735 77395
" />
<path d="M74016 77395
L74016 76805
L74157 76805
L74241 76833
L74297 76889
L74325 76946
L74354 77058
L74354 77142
L74325 77255
L74297 77311
L74241 77367
L74157 77395
L74016 77395
" />
<path d="M74607 77339
L74635 77367
L74607 77395
L74579 77367
L74607 77339
L74607 77395
" />
<path d="M74860 77227
L75141 77227
" />
<path d="M74804 77395
L75000 76805
L75197 77395
" />
<path d="M75394 77339
L75422 77367
L75394 77395
L75366 77367
L75394 77339
L75394 77395
" />
<path d="M76575 77395
L76575 76805
" />
<path d="M76631 77171
L76800 77395
" />
<path d="M76800 77002
L76575 77227
" />
<path d="M77053 77395
L77053 77002
" />
<path d="M77053 76805
L77025 76833
L77053 76861
L77081 76833
L77053 76805
L77053 76861
" />
<path d="M77588 77367
L77531 77395
L77419 77395
L77363 77367
L77334 77339
L77306 77283
L77306 77114
L77334 77058
L77363 77030
L77419 77002
L77531 77002
L77588 77030
" />
<path d="M78094 77395
L78094 77086
L78066 77030
L78009 77002
L77897 77002
L77841 77030
" />
<path d="M78094 77367
L78037 77395
L77897 77395
L77841 77367
L77813 77311
L77813 77255
L77841 77199
L77897 77171
L78037 77171
L78094 77142
" />
<path d="M78628 77395
L78628 76805
" />
<path d="M78628 77367
L78572 77395
L78459 77395
L78403 77367
L78375 77339
L78347 77283
L78347 77114
L78375 77058
L78403 77030
L78459 77002
L78572 77002
L78628 77030
" />
<path d="M79472 76805
L79528 76805
L79584 76833
L79612 76861
L79640 76917
L79669 77030
L79669 77171
L79640 77283
L79612 77339
L79584 77367
L79528 77395
L79472 77395
L79415 77367
L79387 77339
L79359 77283
L79331 77171
L79331 77030
L79359 76917
L79387 76861
L79415 76833
L79472 76805
" />
<path d="M79922 77339
L79950 77367
L79922 77395
L79894 77367
L79922 77339
L79922 77395
" />
<path d="M80175 76861
L80203 76833
L80259 76805
L80400 76805
L80456 76833
L80484 76861
L80512 76917
L80512 76974
L80484 77058
L80147 77395
L80512 77395
" />
<path d="M80878 76805
L80934 76805
L80990 76833
L81018 76861
L81046 76917
L81075 77030
L81075 77171
L81046 77283
L81018 77339
L80990 77367
L80934 77395
L80878 77395
L80822 77367
L80793 77339
L80765 77283
L80737 77171
L80737 77030
L80765 76917
L80793 76861
L80822 76833
L80878 76805
" />
<path d="M81637 77395
L81300 77395
" />
<path d="M81468 77395
L81468 76805
L81412 76889
L81356 76946
L81300 76974
" />
<path d="M82171 76805
L81890 76805
L81862 77086
L81890 77058
L81946 77030
L82087 77030
L82143 77058
L82171 77086
L82199 77142
L82199 77283
L82171 77339
L82143 77367
L82087 77395
L81946 77395
L81890 77367
L81862 77339
" />
<path d="M82762 77395
L82424 77395
" />
<path d="M82593 77395
L82593 76805
L82537 76889
L82481 76946
L82424 76974
" />
<path d="M83324 77395
L82987 77395
" />
<path d="M83156 77395
L83156 76805
L83099 76889
L83043 76946
L82987 76974
" />
<path d="M83887 77395
L83549 77395
" />
<path d="M83718 77395
L83718 76805
L83662 76889
L83606 76946
L83549 76974
" />
<path d="M84084 76805
L84449 76805
L84252 77030
L84337 77030
L84393 77058
L84421 77086
L84449 77142
L84449 77283
L84421 77339
L84393 77367
L84337 77395
L84168 77395
L84112 77367
L84084 77339
" />
<path d="M85012 77395
L84674 77395
" />
<path d="M84843 77395
L84843 76805
L84787 76889
L84730 76946
L84674 76974
" />
<path d="M85574 77395
L85237 77395
" />
<path d="M85405 77395
L85405 76805
L85349 76889
L85293 76946
L85237 76974
" />
<path d="M86080 77002
L86080 77395
" />
<path d="M85940 76777
L85799 77199
L86165 77199
" />
<path d="M86643 76805
L86530 76805
L86474 76833
L86446 76861
L86390 76946
L86361 77058
L86361 77283
L86390 77339
L86418 77367
L86474 77395
L86586 77395
L86643 77367
L86671 77339
L86699 77283
L86699 77142
L86671 77086
L86643 77058
L86586 77030
L86474 77030
L86418 77058
L86390 77086
L86361 77142
" />
<path d="M86952 77171
L87402 77171
" />
<path d="M87177 77395
L87177 76946
" />
<path d="M87936 76805
L87824 76805
L87768 76833
L87739 76861
L87683 76946
L87655 77058
L87655 77283
L87683 77339
L87711 77367
L87768 77395
L87880 77395
L87936 77367
L87964 77339
L87992 77283
L87992 77142
L87964 77086
L87936 77058
L87880 77030
L87768 77030
L87711 77058
L87683 77086
L87655 77142
" />
<path d="M88189 76805
L88555 76805
L88358 77030
L88442 77030
L88499 77058
L88527 77086
L88555 77142
L88555 77283
L88527 77339
L88499 77367
L88442 77395
L88274 77395
L88217 77367
L88189 77339
" />
<path d="M89117 77395
L88780 77395
" />
<path d="M88949 77395
L88949 76805
L88892 76889
L88836 76946
L88780 76974
" />
<path d="M89680 77395
L89342 77395
" />
<path d="M89511 77395
L89511 76805
L89455 76889
L89399 76946
L89342 76974
" />
<path d="M89877 76805
L90242 76805
L90045 77030
L90130 77030
L90186 77058
L90214 77086
L90242 77142
L90242 77283
L90214 77339
L90186 77367
L90130 77395
L89961 77395
L89905 77367
L89877 77339
" />
<path d="M90608 76805
L90664 76805
L90720 76833
L90748 76861
L90777 76917
L90805 77030
L90805 77171
L90777 77283
L90748 77339
L90720 77367
L90664 77395
L90608 77395
L90552 77367
L90523 77339
L90495 77283
L90467 77171
L90467 77030
L90495 76917
L90523 76861
L90552 76833
L90608 76805
" />
<path d="M89792 76703
L90917 76703
" />
<path d="M91311 77002
L91311 77395
" />
<path d="M91058 77002
L91058 77311
L91086 77367
L91142 77395
L91226 77395
L91283 77367
L91311 77339
" />
<path d="M91592 77395
L91592 76805
" />
<path d="M91592 77030
L91648 77002
L91761 77002
L91817 77030
L91845 77058
L91873 77114
L91873 77283
L91845 77339
L91817 77367
L91761 77395
L91648 77395
L91592 77367
" />
<path d="M92379 77002
L92379 77395
" />
<path d="M92126 77002
L92126 77311
L92154 77367
L92211 77395
L92295 77395
L92351 77367
L92379 77339
" />
<path d="M92661 77002
L92661 77395
" />
<path d="M92661 77058
L92689 77030
L92745 77002
L92829 77002
L92886 77030
L92914 77086
L92914 77395
" />
<path d="M93111 77002
L93336 77002
" />
<path d="M93195 76805
L93195 77311
L93223 77367
L93279 77395
L93336 77395
" />
<path d="M93786 77002
L93786 77395
" />
<path d="M93532 77002
L93532 77311
L93561 77367
L93617 77395
L93701 77395
L93757 77367
L93786 77339
" />
<path d="M94376 77395
L94039 77395
" />
<path d="M94207 77395
L94207 76805
L94151 76889
L94095 76946
L94039 76974
" />
<path d="M94882 77002
L94882 77395
" />
<path d="M94742 76777
L94601 77199
L94967 77199
" />
<path d="M95192 77339
L95220 77367
L95192 77395
L95163 77367
L95192 77339
L95192 77395
" />
<path d="M95585 76805
L95642 76805
L95698 76833
L95726 76861
L95754 76917
L95782 77030
L95782 77171
L95754 77283
L95726 77339
L95698 77367
L95642 77395
L95585 77395
L95529 77367
L95501 77339
L95473 77283
L95445 77171
L95445 77030
L95473 76917
L95501 76861
L95529 76833
L95585 76805
" />
<path d="M96288 77002
L96288 77395
" />
<path d="M96148 76777
L96007 77199
L96373 77199
" />
<path d="M96598 77339
L96626 77367
L96598 77395
L96570 77367
L96598 77339
L96598 77395
" />
<path d="M97188 77395
L96851 77395
" />
<path d="M97019 77395
L97019 76805
L96963 76889
L96907 76946
L96851 76974
" />
<path d="M97441 77171
L97891 77171
" />
<path d="M98172 77002
L98172 77592
" />
<path d="M98172 77030
L98229 77002
L98341 77002
L98397 77030
L98426 77058
L98454 77114
L98454 77283
L98426 77339
L98397 77367
L98341 77395
L98229 77395
L98172 77367
" />
<path d="M98707 77395
L98707 77002
" />
<path d="M98707 77114
L98735 77058
L98763 77030
L98819 77002
L98876 77002
" />
<path d="M99157 77395
L99100 77367
L99072 77339
L99044 77283
L99044 77114
L99072 77058
L99100 77030
L99157 77002
L99241 77002
L99297 77030
L99325 77058
L99354 77114
L99354 77283
L99325 77339
L99297 77367
L99241 77395
L99157 77395
" />
<path d="M99860 77395
L99860 76805
" />
<path d="M99860 77367
L99804 77395
L99691 77395
L99635 77367
L99607 77339
L99579 77283
L99579 77114
L99607 77058
L99635 77030
L99691 77002
L99804 77002
L99860 77030
" />
<path d="M100394 77002
L100394 77395
" />
<path d="M100141 77002
L100141 77311
L100169 77367
L100225 77395
L100310 77395
L100366 77367
L100394 77339
" />
<path d="M100928 77367
L100872 77395
L100760 77395
L100703 77367
L100675 77339
L100647 77283
L100647 77114
L100675 77058
L100703 77030
L100760 77002
L100872 77002
L100928 77030
" />
<path d="M101097 77002
L101322 77002
" />
<path d="M101181 76805
L101181 77311
L101210 77367
L101266 77395
L101322 77395
" />
</g>
<g style="fill:#000000; fill-opacity:0.0; 
stroke:#000000; stroke-width:39.3701; stroke-opacity:1; 
stroke-linecap:round; stroke-linejoin:round;">
</g>
<g style="fill:#000000; fill-opacity:0.0; 
stroke:#000000; stroke-width:59.0551; stroke-opacity:1; 
stroke-linecap:round; stroke-linejoin:round;">
<path d="M69685 75396
L112205 75396
" />
</g>
<g style="fill:#000000; fill-opacity:0.0; 
stroke:#000000; stroke-width:39.3701; stroke-opacity:1; 
stroke-linecap:round; stroke-linejoin:round;">
</g>
<g style="fill:#000000; fill-opacity:0.0; 
stroke:#000000; stroke-width:118.11; stroke-opacity:1; 
stroke-linecap:round; stroke-linejoin:round;">
<path d="M104022 76293
L103825 76012
" />
<path d="M103684 76293
L103684 75703
L103909 75703
L103965 75731
L103994 75759
L104022 75815
L104022 75899
L103994 75956
L103965 75984
L103909 76012
L103684 76012
" />
<path d="M104500 76265
L104444 76293
L104331 76293
L104275 76265
L104247 76209
L104247 75984
L104275 75928
L104331 75899
L104444 75899
L104500 75928
L104528 75984
L104528 76040
L104247 76096
" />
<path d="M104725 75899
L104865 76293
L105006 75899
" />
<path d="M105231 76237
L105259 76265
L105231 76293
L105203 76265
L105231 76237
L105231 76293
" />
<path d="M105231 75928
L105259 75956
L105231 75984
L105203 75956
L105231 75928
L105231 75984
" />
<path d="M106271 76293
L105934 76293
" />
<path d="M106103 76293
L106103 75703
L106046 75787
L105990 75843
L105934 75871
" />
<path d="M106525 76237
L106553 76265
L106525 76293
L106496 76265
L106525 76237
L106525 76293
" />
<path d="M106918 75703
L106974 75703
L107031 75731
L107059 75759
L107087 75815
L107115 75928
L107115 76068
L107087 76181
L107059 76237
L107031 76265
L106974 76293
L106918 76293
L106862 76265
L106834 76237
L106806 76181
L106778 76068
L106778 75928
L106806 75815
L106834 75759
L106862 75731
L106918 75703
" />
</g>
<g style="fill:#000000; fill-opacity:0.0; 
stroke:#000000; stroke-width:39.3701; stroke-opacity:1; 
stroke-linecap:round; stroke-linejoin:round;">
</g>
<g style="fill:#000000; fill-opacity:0.0; 
stroke:#000000; stroke-width:59.0551; stroke-opacity:1; 
stroke-linecap:round; stroke-linejoin:round;">
<path d="M70192 76265
L70276 76293
L70417 76293
L70473 76265
L70501 76237
L70529 76181
L70529 76124
L70501 76068
L70473 76040
L70417 76012
L70304 75984
L70248 75956
L70220 75928
L70192 75871
L70192 75815
L70220 75759
L70248 75731
L70304 75703
L70445 75703
L70529 75731
" />
<path d="M70782 76293
L70782 75899
" />
<path d="M70782 75703
L70754 75731
L70782 75759
L70810 75731
L70782 75703
L70782 75759
" />
<path d="M71007 75899
L71316 75899
L71007 76293
L71316 76293
" />
<path d="M71766 76265
L71710 76293
L71598 76293
L71541 76265
L71513 76209
L71513 75984
L71541 75928
L71598 75899
L71710 75899
L71766 75928
L71795 75984
L71795 76040
L71513 76096
" />
<path d="M72048 76237
L72076 76265
L72048 76293
L72019 76265
L72048 76237
L72048 76293
" />
<path d="M72048 75928
L72076 75956
L72048 75984
L72019 75956
L72048 75928
L72048 75984
" />
<path d="M72751 76124
L73032 76124
" />
<path d="M72694 76293
L72891 75703
L73088 76293
" />
<path d="M73538 75899
L73538 76293
" />
<path d="M73397 75674
L73257 76096
L73622 76096
" />
</g>
<g style="fill:#000000; fill-opacity:0.0; 
stroke:#000000; stroke-width:39.3701; stroke-opacity:1; 
stroke-linecap:round; stroke-linejoin:round;">
</g>
<g style="fill:#000000; fill-opacity:0.0; 
stroke:#000000; stroke-width:59.0551; stroke-opacity:1; 
stroke-linecap:round; stroke-linejoin:round;">
<path d="M103684 77395
L103684 76805
" />
<path d="M104219 77395
L104219 76805
" />
<path d="M104219 77367
L104162 77395
L104050 77395
L103994 77367
L103965 77339
L103937 77283
L103937 77114
L103965 77058
L103994 77030
L104050 77002
L104162 77002
L104219 77030
" />
<path d="M104500 77339
L104528 77367
L104500 77395
L104472 77367
L104500 77339
L104500 77395
" />
<path d="M104500 77030
L104528 77058
L104500 77086
L104472 77058
L104500 77030
L104500 77086
" />
<path d="M105540 77395
L105203 77395
" />
<path d="M105372 77395
L105372 76805
L105315 76889
L105259 76946
L105203 76974
" />
<path d="M106215 76777
L105709 77536
" />
<path d="M106721 77395
L106384 77395
" />
<path d="M106553 77395
L106553 76805
L106496 76889
L106440 76946
L106384 76974
" />
</g>
<g style="fill:#000000; fill-opacity:0.0; 
stroke:#000000; stroke-width:39.3701; stroke-opacity:1; 
stroke-linecap:round; stroke-linejoin:round;">
</g>
<g style="fill:#000000; fill-opacity:0.0; 
stroke:#000000; stroke-width:59.0551; stroke-opacity:1; 
stroke-linecap:round; stroke-linejoin:round;">
<path d="M69685 73821
L112205 73821
" />
</g>
<g style="fill:#000000; fill-opacity:0.0; 
stroke:#000000; stroke-width:39.3701; stroke-opacity:1; 
stroke-linecap:round; stroke-linejoin:round;">
</g>
<g style="fill:#000000; fill-opacity:0.0; 
stroke:#000000; stroke-width:157.48; stroke-opacity:1; 
stroke-linecap:round; stroke-linejoin:round;">
<path d="M70257 74099
L70707 74099
" />
<path d="M70384 74886
L70482 74099
" />
<path d="M70871 74886
L70937 74361
" />
<path d="M70970 74099
L70927 74136
L70960 74174
L71002 74136
L70970 74099
L70960 74174
" />
<path d="M71199 74361
L71499 74361
" />
<path d="M71345 74099
L71260 74774
L71288 74849
L71359 74886
L71434 74886
" />
<path d="M71809 74886
L71738 74849
L71710 74774
L71795 74099
" />
<path d="M72413 74849
L72334 74886
L72184 74886
L72113 74849
L72085 74774
L72123 74474
L72169 74399
L72249 74361
L72399 74361
L72469 74399
L72498 74474
L72488 74549
L72104 74624
" />
<path d="M72793 74811
L72826 74849
L72783 74886
L72751 74849
L72793 74811
L72783 74886
" />
<path d="M72844 74399
L72877 74436
L72835 74474
L72802 74436
L72844 74399
L72835 74474
" />
<path d="M74072 74474
L74180 74511
L74213 74549
L74241 74624
L74227 74736
L74180 74811
L74138 74849
L74058 74886
L73758 74886
L73857 74099
L74119 74099
L74190 74136
L74222 74174
L74250 74249
L74241 74324
L74194 74399
L74152 74436
L74072 74474
L73810 74474
" />
<path d="M74536 74661
L74911 74661
" />
<path d="M74433 74886
L74794 74099
L74958 74886
" />
<path d="M75207 74099
L75657 74099
" />
<path d="M75333 74886
L75432 74099
" />
<path d="M75788 74849
L75896 74886
L76083 74886
L76163 74849
L76205 74811
L76252 74736
L76261 74661
L76233 74586
L76200 74549
L76130 74511
L75985 74474
L75914 74436
L75882 74399
L75853 74324
L75863 74249
L75910 74174
L75952 74136
L76031 74099
L76219 74099
L76327 74136
" />
<path d="M77170 74886
L77269 74099
L77569 74099
L77639 74136
L77672 74174
L77700 74249
L77686 74361
L77639 74436
L77597 74474
L77517 74511
L77217 74511
" />
<path d="M78417 74811
L78375 74849
L78258 74886
L78183 74886
L78075 74849
L78009 74774
L77981 74699
L77962 74549
L77977 74436
L78033 74286
L78080 74211
L78164 74136
L78281 74099
L78356 74099
L78464 74136
L78497 74174
" />
<path d="M79059 74474
L79167 74511
L79200 74549
L79228 74624
L79214 74736
L79167 74811
L79125 74849
L79045 74886
L78745 74886
L78844 74099
L79106 74099
L79176 74136
L79209 74174
L79237 74249
L79228 74324
L79181 74399
L79139 74436
L79059 74474
L78797 74474
" />
</g>
<g style="fill:#000000; fill-opacity:0.0; 
stroke:#000000; stroke-width:39.3701; stroke-opacity:1; 
stroke-linecap:round; stroke-linejoin:round;">
</g>
<g style="fill:#000000; fill-opacity:0.0; 
stroke:#000000; stroke-width:59.0551; stroke-opacity:1; 
stroke-linecap:round; stroke-linejoin:round;">
<path d="M70417 73070
L70220 73070
" />
<path d="M70220 73380
L70220 72789
L70501 72789
" />
<path d="M70726 73380
L70726 72986
" />
<path d="M70726 72789
L70698 72817
L70726 72845
L70754 72817
L70726 72789
L70726 72845
" />
<path d="M71091 73380
L71035 73352
L71007 73295
L71007 72789
" />
<path d="M71541 73352
L71485 73380
L71373 73380
L71316 73352
L71288 73295
L71288 73070
L71316 73014
L71373 72986
L71485 72986
L71541 73014
L71570 73070
L71570 73127
L71288 73183
" />
<path d="M71823 73323
L71851 73352
L71823 73380
L71795 73352
L71823 73323
L71823 73380
" />
<path d="M71823 73014
L71851 73042
L71823 73070
L71795 73042
L71823 73014
L71823 73070
" />
<path d="M72554 73380
L72554 72789
" />
<path d="M72554 73014
L72610 72986
L72723 72986
L72779 73014
L72807 73042
L72835 73099
L72835 73267
L72807 73323
L72779 73352
L72723 73380
L72610 73380
L72554 73352
" />
<path d="M73341 73380
L73341 73070
L73313 73014
L73257 72986
L73144 72986
L73088 73014
" />
<path d="M73341 73352
L73285 73380
L73144 73380
L73088 73352
L73060 73295
L73060 73239
L73088 73183
L73144 73155
L73285 73155
L73341 73127
" />
<path d="M73538 72986
L73763 72986
" />
<path d="M73622 72789
L73622 73295
L73651 73352
L73707 73380
L73763 73380
" />
<path d="M73932 73352
L73988 73380
L74100 73380
L74157 73352
L74185 73295
L74185 73267
L74157 73211
L74100 73183
L74016 73183
L73960 73155
L73932 73099
L73932 73070
L73960 73014
L74016 72986
L74100 72986
L74157 73014
" />
<path d="M74438 73323
L74466 73352
L74438 73380
L74410 73352
L74438 73323
L74438 73380
" />
<path d="M74719 73380
L74719 72789
" />
<path d="M74775 73155
L74944 73380
" />
<path d="M74944 72986
L74719 73211
" />
<path d="M75197 73380
L75197 72986
" />
<path d="M75197 72789
L75169 72817
L75197 72845
L75225 72817
L75197 72789
L75197 72845
" />
<path d="M75732 73352
L75675 73380
L75563 73380
L75507 73352
L75478 73323
L75450 73267
L75450 73099
L75478 73042
L75507 73014
L75563 72986
L75675 72986
L75732 73014
" />
<path d="M76238 73380
L76238 73070
L76210 73014
L76153 72986
L76041 72986
L75985 73014
" />
<path d="M76238 73352
L76181 73380
L76041 73380
L75985 73352
L75956 73295
L75956 73239
L75985 73183
L76041 73155
L76181 73155
L76238 73127
" />
<path d="M76772 73380
L76772 72789
" />
<path d="M76772 73352
L76716 73380
L76603 73380
L76547 73352
L76519 73323
L76491 73267
L76491 73099
L76519 73042
L76547 73014
L76603 72986
L76716 72986
L76772 73014
" />
<path d="M76913 73436
L77363 73436
" />
<path d="M77503 72986
L77503 73577
" />
<path d="M77503 73014
L77559 72986
L77672 72986
L77728 73014
L77756 73042
L77784 73099
L77784 73267
L77756 73323
L77728 73352
L77672 73380
L77559 73380
L77503 73352
" />
<path d="M78291 73352
L78234 73380
L78122 73380
L78066 73352
L78037 73323
L78009 73267
L78009 73099
L78037 73042
L78066 73014
L78122 72986
L78234 72986
L78291 73014
" />
<path d="M78544 73380
L78544 72789
" />
<path d="M78544 73014
L78600 72986
L78712 72986
L78769 73014
L78797 73042
L78825 73099
L78825 73267
L78797 73323
L78769 73352
L78712 73380
L78600 73380
L78544 73352
" />
</g>
<g style="fill:#000000; fill-opacity:0.0; 
stroke:#000000; stroke-width:39.3701; stroke-opacity:1; 
stroke-linecap:round; stroke-linejoin:round;">
</g>
<g style="fill:#000000; fill-opacity:0.0; 
stroke:#000000; stroke-width:59.0551; stroke-opacity:1; 
stroke-linecap:round; stroke-linejoin:round;">
<path d="M69685 71459
L112205 71459
" />
</g>
<g style="fill:#000000; fill-opacity:0.0; 
stroke:#000000; stroke-width:39.3701; stroke-opacity:1; 
stroke-linecap:round; stroke-linejoin:round;">
</g>
<g style="fill:#000000; fill-opacity:0.0; 
stroke:#000000; stroke-width:59.0551; stroke-opacity:1; 
stroke-linecap:round; stroke-linejoin:round;">
<path d="M70192 72289
L70276 72317
L70417 72317
L70473 72289
L70501 72260
L70529 72204
L70529 72148
L70501 72092
L70473 72064
L70417 72036
L70304 72007
L70248 71979
L70220 71951
L70192 71895
L70192 71839
L70220 71782
L70248 71754
L70304 71726
L70445 71726
L70529 71754
" />
<path d="M70782 72317
L70782 71726
" />
<path d="M71035 72317
L71035 72007
L71007 71951
L70951 71923
L70867 71923
L70810 71951
L70782 71979
" />
<path d="M71541 72289
L71485 72317
L71373 72317
L71316 72289
L71288 72232
L71288 72007
L71316 71951
L71373 71923
L71485 71923
L71541 71951
L71570 72007
L71570 72064
L71288 72120
" />
<path d="M72048 72289
L71991 72317
L71879 72317
L71823 72289
L71795 72232
L71795 72007
L71823 71951
L71879 71923
L71991 71923
L72048 71951
L72076 72007
L72076 72064
L71795 72120
" />
<path d="M72244 71923
L72469 71923
" />
<path d="M72329 71726
L72329 72232
L72357 72289
L72413 72317
L72469 72317
" />
<path d="M72666 72260
L72694 72289
L72666 72317
L72638 72289
L72666 72260
L72666 72317
" />
<path d="M72666 71951
L72694 71979
L72666 72007
L72638 71979
L72666 71951
L72666 72007
" />
</g>
<g style="fill:#000000; fill-opacity:0.0; 
stroke:#000000; stroke-width:39.3701; stroke-opacity:1; 
stroke-linecap:round; stroke-linejoin:round;">
</g>
<g style="fill:#000000; fill-opacity:0.0; 
stroke:#000000; stroke-width:118.11; stroke-opacity:1; 
stroke-linecap:round; stroke-linejoin:round;">
<path d="M70417 70826
L70501 70854
L70529 70883
L70557 70939
L70557 71023
L70529 71079
L70501 71108
L70445 71136
L70220 71136
L70220 70545
L70417 70545
L70473 70573
L70501 70601
L70529 70658
L70529 70714
L70501 70770
L70473 70798
L70417 70826
L70220 70826
" />
<path d="M70810 71136
L70810 70742
" />
<path d="M70810 70854
L70838 70798
L70867 70770
L70923 70742
L70979 70742
" />
<path d="M71176 71136
L71176 70742
" />
<path d="M71176 70545
L71148 70573
L71176 70601
L71204 70573
L71176 70545
L71176 70601
" />
<path d="M71710 71108
L71654 71136
L71541 71136
L71485 71108
L71457 71079
L71429 71023
L71429 70854
L71457 70798
L71485 70770
L71541 70742
L71654 70742
L71710 70770
" />
<path d="M72048 71136
L71991 71108
L71963 71079
L71935 71023
L71935 70854
L71963 70798
L71991 70770
L72048 70742
L72132 70742
L72188 70770
L72216 70798
L72244 70854
L72244 71023
L72216 71079
L72188 71108
L72132 71136
L72048 71136
" />
<path d="M72779 71136
L72498 71136
L72498 70545
" />
<path d="M73229 71136
L73229 70826
L73201 70770
L73144 70742
L73032 70742
L72976 70770
" />
<path d="M73229 71108
L73172 71136
L73032 71136
L72976 71108
L72947 71051
L72947 70995
L72976 70939
L73032 70911
L73172 70911
L73229 70883
" />
<path d="M73510 71136
L73510 70545
" />
<path d="M73510 70770
L73566 70742
L73679 70742
L73735 70770
L73763 70798
L73791 70854
L73791 71023
L73763 71079
L73735 71108
L73679 71136
L73566 71136
L73510 71108
" />
<path d="M74016 71108
L74072 71136
L74185 71136
L74241 71108
L74269 71051
L74269 71023
L74241 70967
L74185 70939
L74100 70939
L74044 70911
L74016 70854
L74016 70826
L74044 70770
L74100 70742
L74185 70742
L74241 70770
" />
</g>
<g style="fill:#000000; fill-opacity:0.0; 
stroke:#000000; stroke-width:39.3701; stroke-opacity:1; 
stroke-linecap:round; stroke-linejoin:round;">
</g>
<g style="fill:#000000; fill-opacity:0.0; 
stroke:#000000; stroke-width:59.0551; stroke-opacity:1; 
stroke-linecap:round; stroke-linejoin:round;">
<path d="M77559 75396
L77559 76577
" />
</g>
<g style="fill:#000000; fill-opacity:0.0; 
stroke:#000000; stroke-width:39.3701; stroke-opacity:1; 
stroke-linecap:round; stroke-linejoin:round;">
</g>
<g style="fill:#000000; fill-opacity:0.0; 
stroke:#000000; stroke-width:59.0551; stroke-opacity:1; 
stroke-linecap:round; stroke-linejoin:round;">
<path d="M102756 75396
L102756 77955
" />
</g>
<g style="fill:#008484; fill-opacity:0.0; 
stroke:#008484; stroke-width:59.0551; stroke-opacity:1; 
stroke-linecap:round; stroke-linejoin:round;">
</g>
<g style="fill:#008484; fill-opacity:0.0; 
stroke:#008484; stroke-width:98.4252; stroke-opacity:1; 
stroke-linecap:round; stroke-linejoin:round;">
<path d="M71911 52348
L71911 51954
" />
<path d="M71911 52104
L71948 52085
L72023 52085
L72061 52104
L72080 52123
L72098 52160
L72098 52273
L72080 52310
L72061 52329
L72023 52348
L71948 52348
L71911 52329
" />
<path d="M72230 52085
L72323 52348
" />
<path d="M72417 52085
L72323 52348
L72286 52441
L72267 52460
L72230 52479
" />
<path d="M72998 52141
L73055 52160
L73073 52179
L73092 52216
L73092 52273
L73073 52310
L73055 52329
L73017 52348
L72867 52348
L72867 51954
L72998 51954
L73036 51973
L73055 51991
L73073 52029
L73073 52066
L73055 52104
L73036 52123
L72998 52141
L72867 52141
" />
<path d="M73261 52348
L73261 52085
" />
<path d="M73261 52160
L73280 52123
L73298 52104
L73336 52085
L73373 52085
" />
<path d="M73505 52348
L73505 52085
" />
<path d="M73505 51954
L73486 51973
L73505 51991
L73523 51973
L73505 51954
L73505 51991
" />
<path d="M73861 52329
L73823 52348
L73748 52348
L73711 52329
L73692 52310
L73673 52273
L73673 52160
L73692 52123
L73711 52104
L73748 52085
L73823 52085
L73861 52104
" />
<path d="M74086 52348
L74048 52329
L74029 52310
L74011 52273
L74011 52160
L74029 52123
L74048 52104
L74086 52085
L74142 52085
L74179 52104
L74198 52123
L74217 52160
L74217 52273
L74198 52310
L74179 52329
L74142 52348
L74086 52348
" />
<path d="M74573 52348
L74386 52348
L74386 51954
" />
<path d="M74873 52348
L74873 52141
L74854 52104
L74817 52085
L74742 52085
L74704 52104
" />
<path d="M74873 52329
L74836 52348
L74742 52348
L74704 52329
L74686 52291
L74686 52254
L74704 52216
L74742 52198
L74836 52198
L74873 52179
" />
<path d="M75061 52348
L75061 51954
" />
<path d="M75061 52104
L75098 52085
L75173 52085
L75211 52104
L75229 52123
L75248 52160
L75248 52273
L75229 52310
L75211 52329
L75173 52348
L75098 52348
L75061 52329
" />
<path d="M75398 52329
L75436 52348
L75511 52348
L75548 52329
L75567 52291
L75567 52273
L75548 52235
L75511 52216
L75454 52216
L75417 52198
L75398 52160
L75398 52141
L75417 52104
L75454 52085
L75511 52085
L75548 52104
" />
</g>
<g style="fill:#C2C200; fill-opacity:0.0; 
stroke:#C2C200; stroke-width:98.4252; stroke-opacity:1; 
stroke-linecap:round; stroke-linejoin:round;">
</g>
<g style="fill:#C2C200; fill-opacity:0.0; 
stroke:#C2C200; stroke-width:39.3701; stroke-opacity:1; 
stroke-linecap:round; stroke-linejoin:round;">
<path d="M49930 54300
L49930 33460
" />
<path d="M76050 54300
L49930 54300
" />
<path d="M76050 53260
L76050 54300
" />
<path d="M77040 52270
L76050 53260
" />
<path d="M77040 39210
L77040 52270
" />
<path d="M76050 38220
L77040 39210
" />
<path d="M76050 33720
L76050 38220
" />
<path d="M75510 33180
L76050 33720
" />
<path d="M49930 33180
L75510 33180
" />
<path d="M49930 33460
L49930 33180
" />
<circle cx="75880" cy="49090" r="656.168" /> 
<path d="M74895 49090
L76864 49090
" />
<path d="M75880 48105
L75880 50074
" />
<circle cx="52550" cy="38010" r="656.168" /> 
<path d="M51565 38010
L53534 38010
" />
<path d="M52550 37025
L52550 38994
" />
</g>
<g style="fill:#C2C200; fill-opacity:0.0; 
stroke:#C2C200; stroke-width:59.0551; stroke-opacity:1; 
stroke-linecap:round; stroke-linejoin:round;">
<path d="M56682 39865
L56738 39884
L56757 39903
L56776 39940
L56776 39997
L56757 40034
L56738 40053
L56701 40072
L56551 40072
L56551 39678
L56682 39678
L56719 39697
L56738 39715
L56757 39753
L56757 39790
L56738 39828
L56719 39847
L56682 39865
L56551 39865
" />
<path d="M56926 39959
L57113 39959
" />
<path d="M56888 40072
L57019 39678
L57150 40072
" />
<path d="M57225 39678
L57450 39678
" />
<path d="M57338 40072
L57338 39678
" />
<path d="M57563 40053
L57619 40072
L57713 40072
L57750 40053
L57769 40034
L57788 39997
L57788 39959
L57769 39922
L57750 39903
L57713 39884
L57638 39865
L57600 39847
L57582 39828
L57563 39790
L57563 39753
L57582 39715
L57600 39697
L57638 39678
L57732 39678
L57788 39697
" />
<path d="M58219 39809
L58313 40072
L58407 39809
" />
<path d="M59063 40072
L58838 40072
" />
<path d="M58950 40072
L58950 39678
L58913 39734
L58875 39772
L58838 39790
" />
<path d="M59231 40034
L59250 40053
L59231 40072
L59213 40053
L59231 40034
L59231 40072
" />
<path d="M59494 39678
L59531 39678
L59569 39697
L59588 39715
L59606 39753
L59625 39828
L59625 39922
L59606 39997
L59588 40034
L59569 40053
L59531 40072
L59494 40072
L59456 40053
L59438 40034
L59419 39997
L59400 39922
L59400 39828
L59419 39753
L59438 39715
L59456 39697
L59494 39678
" />
</g>
<g style="fill:#008484; fill-opacity:0.0; 
stroke:#008484; stroke-width:59.0551; stroke-opacity:1; 
stroke-linecap:round; stroke-linejoin:round;">
</g>
<g style="fill:#008484; fill-opacity:0.0; 
stroke:#008484; stroke-width:98.4252; stroke-opacity:1; 
stroke-linecap:round; stroke-linejoin:round;">
<path d="M71603 51521
L71659 51540
L71678 51559
L71697 51596
L71697 51653
L71678 51690
L71659 51709
L71622 51728
L71472 51728
L71472 51334
L71603 51334
L71640 51353
L71659 51371
L71678 51409
L71678 51446
L71659 51484
L71640 51503
L71603 51521
L71472 51521
" />
<path d="M71846 51615
L72034 51615
" />
<path d="M71809 51728
L71940 51334
L72071 51728
" />
<path d="M72146 51334
L72371 51334
" />
<path d="M72259 51728
L72259 51334
" />
<path d="M72484 51709
L72540 51728
L72634 51728
L72671 51709
L72690 51690
L72709 51653
L72709 51615
L72690 51578
L72671 51559
L72634 51540
L72559 51521
L72521 51503
L72503 51484
L72484 51446
L72484 51409
L72503 51371
L72521 51353
L72559 51334
L72653 51334
L72709 51353
" />
<path d="M73384 51728
L73159 51728
" />
<path d="M73271 51728
L73271 51334
L73234 51390
L73196 51428
L73159 51446
" />
<path d="M73553 51690
L73571 51709
L73553 51728
L73534 51709
L73553 51690
L73553 51728
" />
<path d="M73815 51334
L73852 51334
L73890 51353
L73909 51371
L73927 51409
L73946 51484
L73946 51578
L73927 51653
L73909 51690
L73890 51709
L73852 51728
L73815 51728
L73777 51709
L73759 51690
L73740 51653
L73721 51578
L73721 51484
L73740 51409
L73759 51371
L73777 51353
L73815 51334
" />
</g>
<g style="fill:#C2C200; fill-opacity:0.0; 
stroke:#C2C200; stroke-width:98.4252; stroke-opacity:1; 
stroke-linecap:round; stroke-linejoin:round;">
</g>
<g style="fill:#C2C200; fill-opacity:0.0; 
stroke:#C2C200; stroke-width:59.0551; stroke-opacity:1; 
stroke-linecap:round; stroke-linejoin:round;">
<path d="M57392 37323
L57261 37135
" />
<path d="M57167 37323
L57167 36929
L57317 36929
L57354 36948
L57373 36966
L57392 37004
L57392 37060
L57373 37098
L57354 37116
L57317 37135
L57167 37135
" />
<path d="M57523 36929
L57786 36929
L57617 37323
" />
<path d="M57319 36273
L57188 36085
" />
<path d="M57094 36273
L57094 35879
L57244 35879
L57281 35898
L57300 35916
L57319 35954
L57319 36010
L57300 36048
L57281 36066
L57244 36085
L57094 36085
" />
<path d="M57656 35879
L57581 35879
L57544 35898
L57525 35916
L57488 35973
L57469 36048
L57469 36198
L57488 36235
L57506 36254
L57544 36273
L57619 36273
L57656 36254
L57675 36235
L57694 36198
L57694 36104
L57675 36066
L57656 36048
L57619 36029
L57544 36029
L57506 36048
L57488 36066
L57469 36104
" />
<path d="M61899 48833
L61768 48645
" />
<path d="M61674 48833
L61674 48439
L61824 48439
L61861 48458
L61880 48476
L61899 48514
L61899 48570
L61880 48608
L61861 48626
L61824 48645
L61674 48645
" />
<path d="M62086 48833
L62161 48833
L62199 48814
L62218 48795
L62255 48739
L62274 48664
L62274 48514
L62255 48476
L62236 48458
L62199 48439
L62124 48439
L62086 48458
L62068 48476
L62049 48514
L62049 48608
L62068 48645
L62086 48664
L62124 48683
L62199 48683
L62236 48664
L62255 48645
L62274 48608
" />
<path d="M69771 43563
L69640 43375
" />
<path d="M69546 43563
L69546 43169
L69696 43169
L69734 43188
L69753 43206
L69771 43244
L69771 43300
L69753 43338
L69734 43356
L69696 43375
L69546 43375
" />
<path d="M70146 43563
L69921 43563
" />
<path d="M70034 43563
L70034 43169
L69996 43225
L69959 43263
L69921 43281
" />
<path d="M70390 43169
L70428 43169
L70465 43188
L70484 43206
L70503 43244
L70521 43319
L70521 43413
L70503 43488
L70484 43525
L70465 43544
L70428 43563
L70390 43563
L70353 43544
L70334 43525
L70315 43488
L70296 43413
L70296 43319
L70315 43244
L70334 43206
L70353 43188
L70390 43169
" />
<path d="M61761 44573
L61630 44385
" />
<path d="M61536 44573
L61536 44179
L61686 44179
L61724 44198
L61743 44216
L61761 44254
L61761 44310
L61743 44348
L61724 44366
L61686 44385
L61536 44385
" />
<path d="M62136 44573
L61911 44573
" />
<path d="M62024 44573
L62024 44179
L61986 44235
L61949 44273
L61911 44291
" />
<path d="M62511 44573
L62286 44573
" />
<path d="M62399 44573
L62399 44179
L62361 44235
L62324 44273
L62286 44291
" />
<path d="M61613 49863
L61482 49675
" />
<path d="M61388 49863
L61388 49469
L61538 49469
L61576 49488
L61595 49506
L61613 49544
L61613 49600
L61595 49638
L61576 49656
L61538 49675
L61388 49675
" />
<path d="M61988 49863
L61763 49863
" />
<path d="M61876 49863
L61876 49469
L61838 49525
L61801 49563
L61763 49581
" />
<path d="M62138 49506
L62157 49488
L62195 49469
L62288 49469
L62326 49488
L62345 49506
L62363 49544
L62363 49581
L62345 49638
L62120 49863
L62363 49863
" />
<path d="M70206 48543
L70075 48355
" />
<path d="M69981 48543
L69981 48149
L70131 48149
L70169 48168
L70188 48186
L70206 48224
L70206 48280
L70188 48318
L70169 48336
L70131 48355
L69981 48355
" />
<path d="M70581 48543
L70356 48543
" />
<path d="M70469 48543
L70469 48149
L70431 48205
L70394 48243
L70356 48261
" />
<path d="M70713 48149
L70956 48149
L70825 48299
L70881 48299
L70919 48318
L70938 48336
L70956 48374
L70956 48468
L70938 48505
L70919 48524
L70881 48543
L70769 48543
L70731 48524
L70713 48505
" />
<path d="M50534 37109
L50853 37109
L50890 37091
L50909 37072
L50928 37034
L50928 36959
L50909 36922
L50890 36903
L50853 36884
L50534 36884
" />
<path d="M50928 36491
L50928 36716
" />
<path d="M50928 36603
L50534 36603
L50590 36641
L50628 36678
L50646 36716
" />
<path d="M56239 50288
L56108 50100
" />
<path d="M56014 50288
L56014 49894
L56164 49894
L56201 49913
L56220 49931
L56239 49969
L56239 50025
L56220 50063
L56201 50081
L56164 50100
L56014 50100
" />
<path d="M56614 50288
L56389 50288
" />
<path d="M56501 50288
L56501 49894
L56464 49950
L56426 49988
L56389 50006
" />
<path d="M56239 51393
L56108 51205
" />
<path d="M56014 51393
L56014 50999
L56164 50999
L56201 51018
L56220 51036
L56239 51074
L56239 51130
L56220 51168
L56201 51186
L56164 51205
L56014 51205
" />
<path d="M56389 51036
L56408 51018
L56445 50999
L56539 50999
L56576 51018
L56595 51036
L56614 51074
L56614 51111
L56595 51168
L56370 51393
L56614 51393
" />
<path d="M62624 39368
L62493 39180
" />
<path d="M62399 39368
L62399 38974
L62549 38974
L62586 38993
L62605 39011
L62624 39049
L62624 39105
L62605 39143
L62586 39161
L62549 39180
L62399 39180
" />
<path d="M62755 38974
L62999 38974
L62868 39124
L62924 39124
L62961 39143
L62980 39161
L62999 39199
L62999 39293
L62980 39330
L62961 39349
L62924 39368
L62811 39368
L62774 39349
L62755 39330
" />
<path d="M62614 40374
L62483 40186
" />
<path d="M62389 40374
L62389 39980
L62539 39980
L62576 39999
L62595 40018
L62614 40055
L62614 40111
L62595 40149
L62576 40168
L62539 40186
L62389 40186
" />
<path d="M62951 40111
L62951 40374
" />
<path d="M62858 39961
L62764 40243
L63008 40243
" />
<path d="M62564 41408
L62433 41220
" />
<path d="M62339 41408
L62339 41014
L62489 41014
L62526 41033
L62545 41051
L62564 41089
L62564 41145
L62545 41183
L62526 41201
L62489 41220
L62339 41220
" />
<path d="M62920 41014
L62733 41014
L62714 41201
L62733 41183
L62770 41164
L62864 41164
L62901 41183
L62920 41201
L62939 41239
L62939 41333
L62920 41370
L62901 41389
L62864 41408
L62770 41408
L62733 41389
L62714 41370
" />
<path d="M57299 38358
L57168 38170
" />
<path d="M57074 38358
L57074 37964
L57224 37964
L57261 37983
L57280 38001
L57299 38039
L57299 38095
L57280 38133
L57261 38151
L57224 38170
L57074 38170
" />
<path d="M57524 38133
L57486 38114
L57468 38095
L57449 38058
L57449 38039
L57468 38001
L57486 37983
L57524 37964
L57599 37964
L57636 37983
L57655 38001
L57674 38039
L57674 38058
L57655 38095
L57636 38114
L57599 38133
L57524 38133
L57486 38151
L57468 38170
L57449 38208
L57449 38283
L57468 38320
L57486 38339
L57524 38358
L57599 38358
L57636 38339
L57655 38320
L57674 38283
L57674 38208
L57655 38170
L57636 38151
L57599 38133
" />
</g>
<g style="fill:#008484; fill-opacity:0.0; 
stroke:#008484; stroke-width:59.0551; stroke-opacity:1; 
stroke-linecap:round; stroke-linejoin:round;">
<path d="M58697 42681
L58839 43260
" />
<path d="M58839 43260
L58949 42842
" />
<path d="M58949 42842
L59071 43264
" />
<path d="M59071 43264
L59205 42693
" />
<path d="M58138 42953
L58449 42949
" />
<path d="M58449 42949
L58453 42953
" />
<path d="M58453 42953
L58453 42949
" />
<path d="M58469 42669
L58469 43276
" />
<path d="M58119 42665
L58119 43283
" />
<path d="M58119 43283
L58123 43279
" />
<path d="M57902 42705
L57764 42673
" />
<path d="M57764 42673
L57638 42669
" />
<path d="M57638 42669
L57544 42748
" />
<path d="M57544 42748
L57532 42854
" />
<path d="M57532 42854
L57627 42949
" />
<path d="M57627 42949
L57780 43000
" />
<path d="M57780 43000
L57851 43063
" />
<path d="M57851 43063
L57867 43181
" />
<path d="M57867 43181
L57776 43268
" />
<path d="M57776 43268
L57650 43279
" />
<path d="M57650 43279
L57512 43236
" />
<path d="M57103 42665
L57005 42673
" />
<path d="M57005 42673
L56910 42768
" />
<path d="M56910 42768
L56875 42961
" />
<path d="M56875 42961
L56886 43098
" />
<path d="M56886 43098
L56965 43224
" />
<path d="M56965 43224
L57064 43272
" />
<path d="M57064 43272
L57186 43244
" />
<path d="M57186 43244
L57272 43173
" />
<path d="M57272 43173
L57300 42992
" />
<path d="M57300 42992
L57280 42831
" />
<path d="M57280 42831
L57237 42720
" />
<path d="M57237 42720
L57095 42669
" />
<path d="M57339 41988
L57237 42209
" />
<path d="M57237 42209
L57449 42413
" />
<path d="M57449 42413
L57654 42307
" />
<path d="M57654 42307
L57764 42370
" />
<path d="M58331 42362
L58461 42287
" />
<path d="M58461 42287
L58634 42417
" />
<path d="M58634 42417
L58820 42224
" />
<path d="M58820 42224
L58709 42035
" />
<path d="M58709 42035
L58784 41850
" />
<path d="M58784 41850
L59024 41776
" />
<path d="M59024 41776
L59024 41508
" />
<path d="M59024 41508
L58804 41453
" />
<path d="M58804 41453
L58725 41228
" />
<path d="M58725 41228
L58831 41043
" />
<path d="M58831 41043
L58646 40842
" />
<path d="M58646 40842
L58442 40945
" />
<path d="M58442 40945
L58257 40866
" />
<path d="M58257 40866
L58190 40653
" />
<path d="M58190 40653
L57918 40646
" />
<path d="M57918 40646
L57835 40862
" />
<path d="M57835 40862
L57670 40929
" />
<path d="M57670 40929
L57453 40823
" />
<path d="M57453 40823
L57249 41031
" />
<path d="M57249 41031
L57347 41244
" />
<path d="M57347 41244
L57280 41433
" />
<path d="M57280 41433
L57064 41472
" />
<path d="M57064 41472
L57060 41748
" />
<path d="M57060 41748
L57280 41827
" />
<path d="M57280 41827
L57335 41984
" />
<path d="M58178 41976
L58296 41917
" />
<path d="M58296 41917
L58375 41839
" />
<path d="M58375 41839
L58434 41681
" />
<path d="M58434 41681
L58434 41524
" />
<path d="M58434 41524
L58375 41386
" />
<path d="M58375 41386
L58197 41248
" />
<path d="M58197 41248
L58020 41228
" />
<path d="M58020 41228
L57863 41268
" />
<path d="M57863 41268
L57705 41405
" />
<path d="M57705 41405
L57646 41583
" />
<path d="M57646 41583
L57666 41779
" />
<path d="M57666 41779
L57764 41898
" />
<path d="M57764 41898
L57902 41976
" />
<path d="M57902 41976
L57764 42370
" />
<path d="M58178 41976
L58335 42370
" />
<path d="M56360 36645
L58360 36645
" />
<path d="M58360 36645
L58360 37645
" />
<path d="M58360 37645
L56360 37645
" />
<path d="M56360 37645
L56360 36645
" />
<path d="M56360 37145
L55860 37145
" />
<path d="M58360 37145
L58860 37145
" />
</g>
<g style="fill:#008484; fill-opacity:0.0; 
stroke:#008484; stroke-width:100; stroke-opacity:1; 
stroke-linecap:round; stroke-linejoin:round;">
<path d="M66223.2 37220.6 A800 800 0.0 0 0 66510 36606.9 " />
<path d="M66509 36606.5 A799 799 0.0 0 0 66086 35901.9 " />
<path d="M64910 36606.9 A800 800 0.0 0 0 65192.6 37217 " />
<path d="M65314 35912.9 A799.032 799.032 0.0 0 0 64911 36605.6 " />
<path d="M66220 37226
L66020 37226
" />
<path d="M65200 37226
L65380 37226
" />
<path d="M68223.2 37139.7 A800 800 0.0 0 0 68510 36525.9 " />
<path d="M68509 36525.6 A799 799 0.0 0 0 68086 35820.9 " />
<path d="M66910 36525.9 A800 800 0.0 0 0 67192.6 37136.1 " />
<path d="M67314 35831.9 A799.032 799.032 0.0 0 0 66911 36524.7 " />
<path d="M68220 37145
L68020 37145
" />
<path d="M67200 37145
L67380 37145
" />
<path d="M70223.2 37186.5 A800 800 0.0 0 0 70510 36572.8 " />
<path d="M70509 36572.4 A799 799 0.0 0 0 70086 35867.8 " />
<path d="M68910 36572.8 A800 800 0.0 0 0 69192.6 37182.9 " />
<path d="M69314 35878.8 A799.032 799.032 0.0 0 0 68911 36571.5 " />
<path d="M70220 37192
L70020 37192
" />
<path d="M69200 37192
L69380 37192
" />
</g>
<g style="fill:#008484; fill-opacity:0.0; 
stroke:#008484; stroke-width:150; stroke-opacity:1; 
stroke-linecap:round; stroke-linejoin:round;">
<path d="M54439 36636
L54439 36911
" />
<path d="M54360 35612
L53730 35612
" />
</g>
<g style="fill:#008484; fill-opacity:0.0; 
stroke:#008484; stroke-width:80; stroke-opacity:1; 
stroke-linecap:round; stroke-linejoin:round;">
<path d="M69900 38550
L70150 38300
" />
<path d="M70150 38300
L70650 38300
" />
<path d="M70650 38300
L70900 38550
" />
<path d="M70900 39050
L70650 39300
" />
<path d="M70650 39300
L70150 39300
" />
<path d="M70150 39300
L69900 39050
" />
<path d="M68150 38300
L68650 38300
" />
<path d="M68650 38300
L68900 38550
" />
<path d="M68900 39050
L68650 39300
" />
<path d="M68900 38550
L69150 38300
" />
<path d="M69150 38300
L69650 38300
" />
<path d="M69650 38300
L69900 38550
" />
<path d="M69900 39050
L69650 39300
" />
<path d="M69650 39300
L69150 39300
" />
<path d="M69150 39300
L68900 39050
" />
<path d="M67900 38550
L67900 39050
" />
<path d="M68150 38300
L67900 38550
" />
<path d="M67900 39050
L68150 39300
" />
<path d="M68650 39300
L68150 39300
" />
<path d="M70900 38550
L70900 39050
" />
</g>
<g style="fill:#008484; fill-opacity:0.0; 
stroke:#008484; stroke-width:59.0551; stroke-opacity:1; 
stroke-linecap:round; stroke-linejoin:round;">
<path d="M56385 35595
L58385 35595
" />
<path d="M58385 35595
L58385 36595
" />
<path d="M58385 36595
L56385 36595
" />
<path d="M56385 36595
L56385 35595
" />
<path d="M56385 36095
L55885 36095
" />
<path d="M58385 36095
L58885 36095
" />
<path d="M62965 49155
L60965 49155
" />
<path d="M60965 49155
L60965 48155
" />
<path d="M60965 48155
L62965 48155
" />
<path d="M62965 48155
L62965 49155
" />
<path d="M62965 48655
L63465 48655
" />
<path d="M60965 48655
L60465 48655
" />
<path d="M69025 42885
L71025 42885
" />
<path d="M71025 42885
L71025 43885
" />
<path d="M71025 43885
L69025 43885
" />
<path d="M69025 43885
L69025 42885
" />
<path d="M69025 43385
L68525 43385
" />
<path d="M71025 43385
L71525 43385
" />
<path d="M61015 43895
L63015 43895
" />
<path d="M63015 43895
L63015 44895
" />
<path d="M63015 44895
L61015 44895
" />
<path d="M61015 44895
L61015 43895
" />
<path d="M61015 44395
L60515 44395
" />
<path d="M63015 44395
L63515 44395
" />
<path d="M62965 50185
L60965 50185
" />
<path d="M60965 50185
L60965 49185
" />
<path d="M60965 49185
L62965 49185
" />
<path d="M62965 49185
L62965 50185
" />
<path d="M62965 49685
L63465 49685
" />
<path d="M60965 49685
L60465 49685
" />
<path d="M69460 47865
L71460 47865
" />
<path d="M71460 47865
L71460 48865
" />
<path d="M71460 48865
L69460 48865
" />
<path d="M69460 48865
L69460 47865
" />
<path d="M69460 48365
L68960 48365
" />
<path d="M71460 48365
L71960 48365
" />
</g>
<g style="fill:#008484; fill-opacity:0.0; 
stroke:#008484; stroke-width:80; stroke-opacity:1; 
stroke-linecap:round; stroke-linejoin:round;">
<path d="M67012 48205
L65312 48205
" />
<path d="M65312 50605
L67012 50605
" />
<path d="M67362 49013
L67362 49805
" />
<path d="M64962 49001
L64962 49805
" />
<circle cx="66162.5" cy="49405" r="700" /> 
</g>
<g style="fill:#008484; fill-opacity:0.0; 
stroke:#008484; stroke-width:59.0551; stroke-opacity:1; 
stroke-linecap:round; stroke-linejoin:round;">
<path d="M52689 35158
L52689 34764
" />
<path d="M52492 34961
L52886 34961
" />
<path d="M52276 35374
L52315 35414
" />
<path d="M52315 35414
L52354 35493
" />
<path d="M52354 35493
L52394 35611
" />
<path d="M52394 35611
L52394 35689
" />
<path d="M52394 35689
L52354 35807
" />
<path d="M52354 35807
L52315 35886
" />
<path d="M51685 35414
L51646 35493
" />
<path d="M51646 35493
L51606 35611
" />
<path d="M51606 35611
L51606 35689
" />
<path d="M51606 35689
L51646 35807
" />
<path d="M51646 35807
L51685 35886
" />
<circle cx="52000" cy="35650" r="1299" /> 
<path d="M55275 49680
L57275 49680
" />
<path d="M57275 49680
L57275 50680
" />
<path d="M57275 50680
L55275 50680
" />
<path d="M55275 50680
L55275 49680
" />
<path d="M55275 50180
L54775 50180
" />
<path d="M57275 50180
L57775 50180
" />
</g>
<g style="fill:#008484; fill-opacity:0.0; 
stroke:#008484; stroke-width:80; stroke-opacity:1; 
stroke-linecap:round; stroke-linejoin:round;">
<path d="M52860 51420
L51160 51420
" />
<path d="M51160 53820
L52860 53820
" />
<path d="M53210 52228
L53210 53020
" />
<path d="M50810 52216
L50810 53020
" />
<circle cx="52010" cy="52620" r="700" /> 
<path d="M67012 45190
L65312 45190
" />
<path d="M65312 47590
L67012 47590
" />
<path d="M67362 45998
L67362 46790
" />
<path d="M64962 45986
L64962 46790
" />
<circle cx="66162.5" cy="46390" r="700" /> 
<path d="M65312 44575
L67012 44575
" />
<path d="M67012 42175
L65312 42175
" />
<path d="M64962 43767
L64962 42975
" />
<path d="M67362 43779
L67362 42975
" />
<circle cx="66162.5" cy="43375" r="700" /> 
<path d="M63460 45190
L61760 45190
" />
<path d="M61760 47590
L63460 47590
" />
<path d="M63810 45998
L63810 46790
" />
<path d="M61410 45986
L61410 46790
" />
<circle cx="62610" cy="46390" r="700" /> 
</g>
<g style="fill:#008484; fill-opacity:0.0; 
stroke:#008484; stroke-width:59.0551; stroke-opacity:1; 
stroke-linecap:round; stroke-linejoin:round;">
<path d="M57280 51745
L55280 51745
" />
<path d="M55280 51745
L55280 50745
" />
<path d="M55280 50745
L57280 50745
" />
<path d="M57280 50745
L57280 51745
" />
<path d="M57280 51245
L57780 51245
" />
<path d="M55280 51245
L54780 51245
" />
<path d="M63680 39655
L61680 39655
" />
<path d="M61680 39655
L61680 38655
" />
<path d="M61680 38655
L63680 38655
" />
<path d="M63680 38655
L63680 39655
" />
<path d="M63680 39155
L64180 39155
" />
<path d="M61680 39155
L61180 39155
" />
<path d="M63680 40706
L61680 40706
" />
<path d="M61680 40706
L61680 39706
" />
<path d="M61680 39706
L63680 39706
" />
<path d="M63680 39706
L63680 40706
" />
<path d="M63680 40206
L64180 40206
" />
<path d="M61680 40206
L61180 40206
" />
<path d="M63680 41715
L61680 41715
" />
<path d="M61680 41715
L61680 40715
" />
<path d="M61680 40715
L63680 40715
" />
<path d="M63680 40715
L63680 41715
" />
<path d="M63680 41215
L64180 41215
" />
<path d="M61680 41215
L61180 41215
" />
<path d="M56360 37680
L58360 37680
" />
<path d="M58360 37680
L58360 38680
" />
<path d="M58360 38680
L56360 38680
" />
<path d="M56360 38680
L56360 37680
" />
<path d="M56360 38180
L55860 38180
" />
<path d="M58360 38180
L58860 38180
" />
</g>
<g style="fill:#008484; fill-opacity:0.0; 
stroke:#008484; stroke-width:80; stroke-opacity:1; 
stroke-linecap:round; stroke-linejoin:round;">
<path d="M70565 45190
L68865 45190
" />
<path d="M68865 47590
L70565 47590
" />
<path d="M70915 45998
L70915 46790
" />
<path d="M68515 45986
L68515 46790
" />
<circle cx="69715" cy="46390" r="700" /> 
</g>
<g style="fill:#840000; fill-opacity:0.0; 
stroke:#840000; stroke-width:80; stroke-opacity:1; 
stroke-linecap:round; stroke-linejoin:round;">
</g>
<g style="fill:#840000; fill-opacity:0.0; 
stroke:#840000; stroke-width:600; stroke-opacity:1; 
stroke-linecap:round; stroke-linejoin:round;">
<path d="M74988 53440
L74988 53040
" />
<path d="M73988 53440
L73988 53040
" />
<path d="M72988 53440
L72988 53040
" />
<path d="M69988 53440
L69988 53040
" />
<path d="M70988 53440
L70988 53040
" />
<path d="M71988 53440
L71988 53040
" />
<path d="M67988 53440
L67988 53040
" />
<path d="M66988 53440
L66988 53040
" />
<path d="M65988 53440
L65988 53040
" />
<path d="M63988 53440
L63988 53040
" />
<path d="M62988 53440
L62988 53040
" />
<path d="M74988 34440
L74988 34040
" />
<path d="M73988 34440
L73988 34040
" />
<path d="M72988 34440
L72988 34040
" />
<path d="M71988 34440
L71988 34040
" />
<path d="M70988 34440
L70988 34040
" />
<path d="M69988 34440
L69988 34040
" />
<path d="M68988 34440
L68988 34040
" />
<path d="M67988 34440
L67988 34040
" />
<path d="M66388 34440
L66388 34040
" />
<path d="M65388 34440
L65388 34040
" />
<path d="M64388 34440
L64388 34040
" />
<path d="M63388 34440
L63388 34040
" />
<path d="M62388 34440
L62388 34040
" />
<path d="M61388 34440
L61388 34040
" />
<path d="M60388 34440
L60388 34040
" />
<path d="M59388 34440
L59388 34040
" />
<path d="M64988 53440
L64988 53040
" />
</g>
<g style="fill:#840000; fill-opacity:1.0; 
stroke:#840000; stroke-width:0; stroke-opacity:1; 
stroke-linecap:round; stroke-linejoin:round;">
<circle cx="75988.4" cy="51240" r="625" /> 
</g>
<g style="fill:#840000; fill-opacity:1.0; 
stroke:#840000; stroke-width:39.3701; stroke-opacity:1; 
stroke-linecap:round; stroke-linejoin:round;">
</g>
<g style="fill:#840000; fill-opacity:1.0; 
stroke:#840000; stroke-width:0; stroke-opacity:1; 
stroke-linecap:round; stroke-linejoin:round;">
<circle cx="75988.4" cy="40240" r="625" /> 
</g>
<g style="fill:#840000; fill-opacity:1.0; 
stroke:#840000; stroke-width:39.3701; stroke-opacity:1; 
stroke-linecap:round; stroke-linejoin:round;">
</g>
<g style="fill:#840000; fill-opacity:1.0; 
stroke:#840000; stroke-width:0; stroke-opacity:1; 
stroke-linecap:round; stroke-linejoin:round;">
<circle cx="55988.4" cy="34240" r="625" /> 
</g>
<g style="fill:#840000; fill-opacity:1.0; 
stroke:#840000; stroke-width:39.3701; stroke-opacity:1; 
stroke-linecap:round; stroke-linejoin:round;">
</g>
<g style="fill:#840000; fill-opacity:1.0; 
stroke:#840000; stroke-width:0; stroke-opacity:1; 
stroke-linecap:round; stroke-linejoin:round;">
<circle cx="55488.4" cy="53240" r="625" /> 
</g>
<g style="fill:#840000; fill-opacity:1.0; 
stroke:#840000; stroke-width:39.3701; stroke-opacity:1; 
stroke-linecap:round; stroke-linejoin:round;">
</g>
<g style="fill:#840000; fill-opacity:1.0; 
stroke:#840000; stroke-width:600; stroke-opacity:1; 
stroke-linecap:round; stroke-linejoin:round;">
</g>
<g style="fill:#840000; fill-opacity:0.0; 
stroke:#840000; stroke-width:600; stroke-opacity:1; 
stroke-linecap:round; stroke-linejoin:round;">
<path d="M58388 34440
L58388 34040
" />
<path d="M57388 34440
L57388 34040
" />
<path d="M61988 53440
L61988 53040
" />
<path d="M60988 53440
L60988 53040
" />
</g>
<g style="fill:#840000; fill-opacity:1.0; 
stroke:#840000; stroke-width:0; stroke-opacity:1; 
stroke-linecap:round; stroke-linejoin:round;">
<circle cx="74988.4" cy="42240" r="300" /> 
</g>
<g style="fill:#840000; fill-opacity:1.0; 
stroke:#840000; stroke-width:39.3701; stroke-opacity:1; 
stroke-linecap:round; stroke-linejoin:round;">
</g>
<g style="fill:#840000; fill-opacity:1.0; 
stroke:#840000; stroke-width:0; stroke-opacity:1; 
stroke-linecap:round; stroke-linejoin:round;">
<circle cx="75988.4" cy="42240" r="300" /> 
</g>
<g style="fill:#840000; fill-opacity:1.0; 
stroke:#840000; stroke-width:39.3701; stroke-opacity:1; 
stroke-linecap:round; stroke-linejoin:round;">
</g>
<g style="fill:#840000; fill-opacity:1.0; 
stroke:#840000; stroke-width:0; stroke-opacity:1; 
stroke-linecap:round; stroke-linejoin:round;">
<circle cx="74988.4" cy="43240" r="300" /> 
</g>
<g style="fill:#840000; fill-opacity:1.0; 
stroke:#840000; stroke-width:39.3701; stroke-opacity:1; 
stroke-linecap:round; stroke-linejoin:round;">
</g>
<g style="fill:#840000; fill-opacity:1.0; 
stroke:#840000; stroke-width:0; stroke-opacity:1; 
stroke-linecap:round; stroke-linejoin:round;">
<circle cx="75988.4" cy="43240" r="300" /> 
</g>
<g style="fill:#840000; fill-opacity:1.0; 
stroke:#840000; stroke-width:39.3701; stroke-opacity:1; 
stroke-linecap:round; stroke-linejoin:round;">
</g>
<g style="fill:#840000; fill-opacity:1.0; 
stroke:#840000; stroke-width:0; stroke-opacity:1; 
stroke-linecap:round; stroke-linejoin:round;">
<circle cx="74988.4" cy="44240" r="300" /> 
</g>
<g style="fill:#840000; fill-opacity:1.0; 
stroke:#840000; stroke-width:39.3701; stroke-opacity:1; 
stroke-linecap:round; stroke-linejoin:round;">
</g>
<g style="fill:#840000; fill-opacity:1.0; 
stroke:#840000; stroke-width:0; stroke-opacity:1; 
stroke-linecap:round; stroke-linejoin:round;">
<circle cx="75988.4" cy="44240" r="300" /> 
</g>
<g style="fill:#840000; fill-opacity:1.0; 
stroke:#840000; stroke-width:39.3701; stroke-opacity:1; 
stroke-linecap:round; stroke-linejoin:round;">
</g>
<g style="fill:#840000; fill-opacity:1.0; 
stroke:#840000; stroke-width:0; stroke-opacity:1; 
stroke-linecap:round; stroke-linejoin:round;">
<circle cx="55360" cy="37145" r="393.5" /> 
</g>
<g style="fill:#840000; fill-opacity:1.0; 
stroke:#840000; stroke-width:39.3701; stroke-opacity:1; 
stroke-linecap:round; stroke-linejoin:round;">
</g>
<g style="fill:#840000; fill-opacity:1.0; 
stroke:#840000; stroke-width:0; stroke-opacity:1; 
stroke-linecap:round; stroke-linejoin:round;">
<circle cx="59360" cy="37145" r="393.5" /> 
</g>
<g style="fill:#840000; fill-opacity:1.0; 
stroke:#840000; stroke-width:39.3701; stroke-opacity:1; 
stroke-linecap:round; stroke-linejoin:round;">
</g>
<g style="fill:#840000; fill-opacity:1.0; 
stroke:#840000; stroke-width:0; stroke-opacity:1; 
stroke-linecap:round; stroke-linejoin:round;">
<circle cx="51250" cy="48442.9" r="629.921" /> 
</g>
<g style="fill:#840000; fill-opacity:1.0; 
stroke:#840000; stroke-width:39.3701; stroke-opacity:1; 
stroke-linecap:round; stroke-linejoin:round;">
</g>
<g style="fill:#840000; fill-opacity:1.0; 
stroke:#840000; stroke-width:0; stroke-opacity:1; 
stroke-linecap:round; stroke-linejoin:round;">
<circle cx="51250" cy="45057.1" r="629.921" /> 
</g>
<g style="fill:#840000; fill-opacity:1.0; 
stroke:#840000; stroke-width:39.3701; stroke-opacity:1; 
stroke-linecap:round; stroke-linejoin:round;">
</g>
<g style="fill:#840000; fill-opacity:1.0; 
stroke:#840000; stroke-width:0; stroke-opacity:1; 
stroke-linecap:round; stroke-linejoin:round;">
<circle cx="54005.9" cy="46750" r="354.331" /> 
</g>
<g style="fill:#840000; fill-opacity:1.0; 
stroke:#840000; stroke-width:39.3701; stroke-opacity:1; 
stroke-linecap:round; stroke-linejoin:round;">
</g>
<g style="fill:#840000; fill-opacity:1.0; 
stroke:#840000; stroke-width:0; stroke-opacity:1; 
stroke-linecap:round; stroke-linejoin:round;">
<circle cx="54005.9" cy="47734.3" r="354.331" /> 
</g>
<g style="fill:#840000; fill-opacity:1.0; 
stroke:#840000; stroke-width:39.3701; stroke-opacity:1; 
stroke-linecap:round; stroke-linejoin:round;">
</g>
<g style="fill:#840000; fill-opacity:1.0; 
stroke:#840000; stroke-width:0; stroke-opacity:1; 
stroke-linecap:round; stroke-linejoin:round;">
<circle cx="54005.9" cy="45765.7" r="354.331" /> 
</g>
<g style="fill:#840000; fill-opacity:1.0; 
stroke:#840000; stroke-width:39.3701; stroke-opacity:1; 
stroke-linecap:round; stroke-linejoin:round;">
</g>
<g style="fill:#840000; fill-opacity:1.0; 
stroke:#840000; stroke-width:0; stroke-opacity:1; 
stroke-linecap:round; stroke-linejoin:round;">
<circle cx="54045.9" cy="38368" r="256" /> 
</g>
<g style="fill:#840000; fill-opacity:1.0; 
stroke:#840000; stroke-width:39.3701; stroke-opacity:1; 
stroke-linecap:round; stroke-linejoin:round;">
</g>
<g style="fill:#840000; fill-opacity:1.0; 
stroke:#840000; stroke-width:0; stroke-opacity:1; 
stroke-linecap:round; stroke-linejoin:round;">
<circle cx="54045.9" cy="36006" r="256" /> 
</g>
<g style="fill:#840000; fill-opacity:1.0; 
stroke:#840000; stroke-width:39.3701; stroke-opacity:1; 
stroke-linecap:round; stroke-linejoin:round;">
</g>
<g style="fill:#840000; fill-opacity:1.0; 
stroke:#840000; stroke-width:0; stroke-opacity:1; 
stroke-linecap:round; stroke-linejoin:round;">
<polyline style="fill-rule:evenodd;"
points="53789,36537
54301,36537
54301,37049
53789,37049
53789,36537
" /> 
<circle cx="54045.9" cy="37581" r="256" /> 
</g>
<g style="fill:#840000; fill-opacity:1.0; 
stroke:#840000; stroke-width:39.3701; stroke-opacity:1; 
stroke-linecap:round; stroke-linejoin:round;">
</g>
<g style="fill:#840000; fill-opacity:1.0; 
stroke:#840000; stroke-width:0; stroke-opacity:1; 
stroke-linecap:round; stroke-linejoin:round;">
<circle cx="55385" cy="36095" r="393.5" /> 
</g>
<g style="fill:#840000; fill-opacity:1.0; 
stroke:#840000; stroke-width:39.3701; stroke-opacity:1; 
stroke-linecap:round; stroke-linejoin:round;">
</g>
<g style="fill:#840000; fill-opacity:1.0; 
stroke:#840000; stroke-width:0; stroke-opacity:1; 
stroke-linecap:round; stroke-linejoin:round;">
<circle cx="59385" cy="36095" r="393.5" /> 
</g>
<g style="fill:#840000; fill-opacity:1.0; 
stroke:#840000; stroke-width:39.3701; stroke-opacity:1; 
stroke-linecap:round; stroke-linejoin:round;">
</g>
<g style="fill:#840000; fill-opacity:1.0; 
stroke:#840000; stroke-width:0; stroke-opacity:1; 
stroke-linecap:round; stroke-linejoin:round;">
<circle cx="63965" cy="48655" r="393.5" /> 
</g>
<g style="fill:#840000; fill-opacity:1.0; 
stroke:#840000; stroke-width:39.3701; stroke-opacity:1; 
stroke-linecap:round; stroke-linejoin:round;">
</g>
<g style="fill:#840000; fill-opacity:1.0; 
stroke:#840000; stroke-width:0; stroke-opacity:1; 
stroke-linecap:round; stroke-linejoin:round;">
<circle cx="59965" cy="48655" r="393.5" /> 
</g>
<g style="fill:#840000; fill-opacity:1.0; 
stroke:#840000; stroke-width:39.3701; stroke-opacity:1; 
stroke-linecap:round; stroke-linejoin:round;">
</g>
<g style="fill:#840000; fill-opacity:1.0; 
stroke:#840000; stroke-width:0; stroke-opacity:1; 
stroke-linecap:round; stroke-linejoin:round;">
<circle cx="68025" cy="43385" r="393.5" /> 
</g>
<g style="fill:#840000; fill-opacity:1.0; 
stroke:#840000; stroke-width:39.3701; stroke-opacity:1; 
stroke-linecap:round; stroke-linejoin:round;">
</g>
<g style="fill:#840000; fill-opacity:1.0; 
stroke:#840000; stroke-width:0; stroke-opacity:1; 
stroke-linecap:round; stroke-linejoin:round;">
<circle cx="72025" cy="43385" r="393.5" /> 
</g>
<g style="fill:#840000; fill-opacity:1.0; 
stroke:#840000; stroke-width:39.3701; stroke-opacity:1; 
stroke-linecap:round; stroke-linejoin:round;">
</g>
<g style="fill:#840000; fill-opacity:1.0; 
stroke:#840000; stroke-width:0; stroke-opacity:1; 
stroke-linecap:round; stroke-linejoin:round;">
<circle cx="60015" cy="44395" r="393.5" /> 
</g>
<g style="fill:#840000; fill-opacity:1.0; 
stroke:#840000; stroke-width:39.3701; stroke-opacity:1; 
stroke-linecap:round; stroke-linejoin:round;">
</g>
<g style="fill:#840000; fill-opacity:1.0; 
stroke:#840000; stroke-width:0; stroke-opacity:1; 
stroke-linecap:round; stroke-linejoin:round;">
<circle cx="64015" cy="44395" r="393.5" /> 
</g>
<g style="fill:#840000; fill-opacity:1.0; 
stroke:#840000; stroke-width:39.3701; stroke-opacity:1; 
stroke-linecap:round; stroke-linejoin:round;">
</g>
<g style="fill:#840000; fill-opacity:1.0; 
stroke:#840000; stroke-width:0; stroke-opacity:1; 
stroke-linecap:round; stroke-linejoin:round;">
<circle cx="63965" cy="49685" r="393.5" /> 
</g>
<g style="fill:#840000; fill-opacity:1.0; 
stroke:#840000; stroke-width:39.3701; stroke-opacity:1; 
stroke-linecap:round; stroke-linejoin:round;">
</g>
<g style="fill:#840000; fill-opacity:1.0; 
stroke:#840000; stroke-width:0; stroke-opacity:1; 
stroke-linecap:round; stroke-linejoin:round;">
<circle cx="59965" cy="49685" r="393.5" /> 
</g>
<g style="fill:#840000; fill-opacity:1.0; 
stroke:#840000; stroke-width:39.3701; stroke-opacity:1; 
stroke-linecap:round; stroke-linejoin:round;">
</g>
<g style="fill:#840000; fill-opacity:1.0; 
stroke:#840000; stroke-width:0; stroke-opacity:1; 
stroke-linecap:round; stroke-linejoin:round;">
<circle cx="68460" cy="48365" r="393.5" /> 
</g>
<g style="fill:#840000; fill-opacity:1.0; 
stroke:#840000; stroke-width:39.3701; stroke-opacity:1; 
stroke-linecap:round; stroke-linejoin:round;">
</g>
<g style="fill:#840000; fill-opacity:1.0; 
stroke:#840000; stroke-width:0; stroke-opacity:1; 
stroke-linecap:round; stroke-linejoin:round;">
<circle cx="72460" cy="48365" r="393.5" /> 
</g>
<g style="fill:#840000; fill-opacity:1.0; 
stroke:#840000; stroke-width:39.3701; stroke-opacity:1; 
stroke-linecap:round; stroke-linejoin:round;">
</g>
<g style="fill:#840000; fill-opacity:1.0; 
stroke:#840000; stroke-width:0; stroke-opacity:1; 
stroke-linecap:round; stroke-linejoin:round;">
<circle cx="52000" cy="36250" r="315" /> 
</g>
<g style="fill:#840000; fill-opacity:1.0; 
stroke:#840000; stroke-width:39.3701; stroke-opacity:1; 
stroke-linecap:round; stroke-linejoin:round;">
</g>
<g style="fill:#840000; fill-opacity:1.0; 
stroke:#840000; stroke-width:0; stroke-opacity:1; 
stroke-linecap:round; stroke-linejoin:round;">
<circle cx="52000" cy="35000" r="315" /> 
</g>
<g style="fill:#840000; fill-opacity:1.0; 
stroke:#840000; stroke-width:39.3701; stroke-opacity:1; 
stroke-linecap:round; stroke-linejoin:round;">
</g>
<g style="fill:#840000; fill-opacity:1.0; 
stroke:#840000; stroke-width:0; stroke-opacity:1; 
stroke-linecap:round; stroke-linejoin:round;">
<circle cx="51250" cy="42692.9" r="629.921" /> 
</g>
<g style="fill:#840000; fill-opacity:1.0; 
stroke:#840000; stroke-width:39.3701; stroke-opacity:1; 
stroke-linecap:round; stroke-linejoin:round;">
</g>
<g style="fill:#840000; fill-opacity:1.0; 
stroke:#840000; stroke-width:0; stroke-opacity:1; 
stroke-linecap:round; stroke-linejoin:round;">
<circle cx="51250" cy="39307.1" r="629.921" /> 
</g>
<g style="fill:#840000; fill-opacity:1.0; 
stroke:#840000; stroke-width:39.3701; stroke-opacity:1; 
stroke-linecap:round; stroke-linejoin:round;">
</g>
<g style="fill:#840000; fill-opacity:1.0; 
stroke:#840000; stroke-width:0; stroke-opacity:1; 
stroke-linecap:round; stroke-linejoin:round;">
<circle cx="54005.9" cy="41000" r="354.331" /> 
</g>
<g style="fill:#840000; fill-opacity:1.0; 
stroke:#840000; stroke-width:39.3701; stroke-opacity:1; 
stroke-linecap:round; stroke-linejoin:round;">
</g>
<g style="fill:#840000; fill-opacity:1.0; 
stroke:#840000; stroke-width:0; stroke-opacity:1; 
stroke-linecap:round; stroke-linejoin:round;">
<circle cx="54005.9" cy="41984.3" r="354.331" /> 
</g>
<g style="fill:#840000; fill-opacity:1.0; 
stroke:#840000; stroke-width:39.3701; stroke-opacity:1; 
stroke-linecap:round; stroke-linejoin:round;">
</g>
<g style="fill:#840000; fill-opacity:1.0; 
stroke:#840000; stroke-width:0; stroke-opacity:1; 
stroke-linecap:round; stroke-linejoin:round;">
<circle cx="54005.9" cy="40015.7" r="354.331" /> 
</g>
<g style="fill:#840000; fill-opacity:1.0; 
stroke:#840000; stroke-width:39.3701; stroke-opacity:1; 
stroke-linecap:round; stroke-linejoin:round;">
</g>
<g style="fill:#840000; fill-opacity:1.0; 
stroke:#840000; stroke-width:0; stroke-opacity:1; 
stroke-linecap:round; stroke-linejoin:round;">
<circle cx="54275" cy="50180" r="393.5" /> 
</g>
<g style="fill:#840000; fill-opacity:1.0; 
stroke:#840000; stroke-width:39.3701; stroke-opacity:1; 
stroke-linecap:round; stroke-linejoin:round;">
</g>
<g style="fill:#840000; fill-opacity:1.0; 
stroke:#840000; stroke-width:0; stroke-opacity:1; 
stroke-linecap:round; stroke-linejoin:round;">
<circle cx="58275" cy="50180" r="393.5" /> 
</g>
<g style="fill:#840000; fill-opacity:1.0; 
stroke:#840000; stroke-width:39.3701; stroke-opacity:1; 
stroke-linecap:round; stroke-linejoin:round;">
</g>
<g style="fill:#840000; fill-opacity:1.0; 
stroke:#840000; stroke-width:0; stroke-opacity:1; 
stroke-linecap:round; stroke-linejoin:round;">
<circle cx="58280" cy="51245" r="393.5" /> 
</g>
<g style="fill:#840000; fill-opacity:1.0; 
stroke:#840000; stroke-width:39.3701; stroke-opacity:1; 
stroke-linecap:round; stroke-linejoin:round;">
</g>
<g style="fill:#840000; fill-opacity:1.0; 
stroke:#840000; stroke-width:0; stroke-opacity:1; 
stroke-linecap:round; stroke-linejoin:round;">
<circle cx="54280" cy="51245" r="393.5" /> 
</g>
<g style="fill:#840000; fill-opacity:1.0; 
stroke:#840000; stroke-width:39.3701; stroke-opacity:1; 
stroke-linecap:round; stroke-linejoin:round;">
</g>
<g style="fill:#840000; fill-opacity:1.0; 
stroke:#840000; stroke-width:0; stroke-opacity:1; 
stroke-linecap:round; stroke-linejoin:round;">
<circle cx="64680" cy="39155" r="393.5" /> 
</g>
<g style="fill:#840000; fill-opacity:1.0; 
stroke:#840000; stroke-width:39.3701; stroke-opacity:1; 
stroke-linecap:round; stroke-linejoin:round;">
</g>
<g style="fill:#840000; fill-opacity:1.0; 
stroke:#840000; stroke-width:0; stroke-opacity:1; 
stroke-linecap:round; stroke-linejoin:round;">
<circle cx="60680" cy="39155" r="393.5" /> 
</g>
<g style="fill:#840000; fill-opacity:1.0; 
stroke:#840000; stroke-width:39.3701; stroke-opacity:1; 
stroke-linecap:round; stroke-linejoin:round;">
</g>
<g style="fill:#840000; fill-opacity:1.0; 
stroke:#840000; stroke-width:0; stroke-opacity:1; 
stroke-linecap:round; stroke-linejoin:round;">
<circle cx="64680" cy="40206.2" r="393.5" /> 
</g>
<g style="fill:#840000; fill-opacity:1.0; 
stroke:#840000; stroke-width:39.3701; stroke-opacity:1; 
stroke-linecap:round; stroke-linejoin:round;">
</g>
<g style="fill:#840000; fill-opacity:1.0; 
stroke:#840000; stroke-width:0; stroke-opacity:1; 
stroke-linecap:round; stroke-linejoin:round;">
<circle cx="60680" cy="40206.2" r="393.5" /> 
</g>
<g style="fill:#840000; fill-opacity:1.0; 
stroke:#840000; stroke-width:39.3701; stroke-opacity:1; 
stroke-linecap:round; stroke-linejoin:round;">
</g>
<g style="fill:#840000; fill-opacity:1.0; 
stroke:#840000; stroke-width:0; stroke-opacity:1; 
stroke-linecap:round; stroke-linejoin:round;">
<circle cx="64680" cy="41215" r="393.5" /> 
</g>
<g style="fill:#840000; fill-opacity:1.0; 
stroke:#840000; stroke-width:39.3701; stroke-opacity:1; 
stroke-linecap:round; stroke-linejoin:round;">
</g>
<g style="fill:#840000; fill-opacity:1.0; 
stroke:#840000; stroke-width:0; stroke-opacity:1; 
stroke-linecap:round; stroke-linejoin:round;">
<circle cx="60680" cy="41215" r="393.5" /> 
</g>
<g style="fill:#840000; fill-opacity:1.0; 
stroke:#840000; stroke-width:39.3701; stroke-opacity:1; 
stroke-linecap:round; stroke-linejoin:round;">
</g>
<g style="fill:#840000; fill-opacity:1.0; 
stroke:#840000; stroke-width:0; stroke-opacity:1; 
stroke-linecap:round; stroke-linejoin:round;">
<circle cx="55360" cy="38180" r="393.5" /> 
</g>
<g style="fill:#840000; fill-opacity:1.0; 
stroke:#840000; stroke-width:39.3701; stroke-opacity:1; 
stroke-linecap:round; stroke-linejoin:round;">
</g>
<g style="fill:#840000; fill-opacity:1.0; 
stroke:#840000; stroke-width:0; stroke-opacity:1; 
stroke-linecap:round; stroke-linejoin:round;">
<circle cx="59360" cy="38180" r="393.5" /> 
</g>
<g style="fill:#840000; fill-opacity:1.0; 
stroke:#840000; stroke-width:39.3701; stroke-opacity:1; 
stroke-linecap:round; stroke-linejoin:round;">
</g> 
</svg>
