G04 #@! TF.FileFunction,Copper,L2,Bot,Signal*
%FSLAX46Y46*%
G04 Gerber Fmt 4.6, Leading zero omitted, Abs format (unit mm)*
G04 Created by KiCad (PCBNEW 4.1.0-alpha+201606210817+6944~45~ubuntu14.04.1-product) date Tue Jun 21 19:40:37 2016*
%MOMM*%
%LPD*%
G01*
G04 APERTURE LIST*
%ADD10C,0.100000*%
%ADD11O,1.524000X1.524000*%
%ADD12C,1.998980*%
%ADD13O,1.219200X1.219200*%
%ADD14O,1.524000X2.540000*%
%ADD15C,1.524000*%
%ADD16C,3.200000*%
%ADD17C,1.800000*%
%ADD18C,1.300480*%
%ADD19R,1.300480X1.300480*%
%ADD20C,2.000000*%
%ADD21C,0.508000*%
%ADD22C,0.254000*%
G04 APERTURE END LIST*
D10*
D11*
X162877500Y-122161300D03*
X169379900Y-122161300D03*
X162877500Y-126682500D03*
X169379900Y-126682500D03*
D12*
X186055000Y-119126000D03*
X175895000Y-119126000D03*
D11*
X181203600Y-122301000D03*
X187706000Y-122301000D03*
X181203600Y-126822200D03*
X187706000Y-126822200D03*
D13*
X180140493Y-98921321D03*
X180140493Y-101461321D03*
X186820493Y-98921321D03*
X186820493Y-101461321D03*
D12*
X161544000Y-113538000D03*
X151384000Y-113538000D03*
X161544000Y-115951000D03*
X151384000Y-115951000D03*
D11*
X171678600Y-122161300D03*
X178181000Y-122161300D03*
X171678600Y-126682500D03*
X178181000Y-126682500D03*
D14*
X190459360Y-135260080D03*
X187919360Y-135260080D03*
X185379360Y-135260080D03*
X177759360Y-135260080D03*
X180299360Y-135260080D03*
X182839360Y-135260080D03*
X172679360Y-135260080D03*
X170139360Y-135260080D03*
X167599360Y-135260080D03*
X162519360Y-135260080D03*
X159979360Y-135260080D03*
X190459360Y-87000080D03*
X187919360Y-87000080D03*
X185379360Y-87000080D03*
X182839360Y-87000080D03*
X180299360Y-87000080D03*
X177759360Y-87000080D03*
X175219360Y-87000080D03*
X172679360Y-87000080D03*
X168615360Y-87000080D03*
X166075360Y-87000080D03*
X163535360Y-87000080D03*
X160995360Y-87000080D03*
X158455360Y-87000080D03*
X155915360Y-87000080D03*
X153375360Y-87000080D03*
X150835360Y-87000080D03*
X165059360Y-135260080D03*
X148295360Y-87000080D03*
X145755360Y-87000080D03*
X157439360Y-135260080D03*
X154899360Y-135260080D03*
D15*
X190459360Y-107320080D03*
X192999360Y-107320080D03*
X190459360Y-109860080D03*
X192999360Y-109860080D03*
X190459360Y-112400080D03*
X192999360Y-112400080D03*
D16*
X138963400Y-123111040D03*
X138963400Y-114511040D03*
D17*
X145963400Y-118811040D03*
X145963400Y-121311040D03*
X145963400Y-116311040D03*
D18*
X142148414Y-96880774D03*
X142148414Y-90881294D03*
D19*
X142148414Y-92880274D03*
D18*
X142148414Y-94881794D03*
D11*
X182118000Y-109537500D03*
X179578000Y-109537500D03*
X177038000Y-109537500D03*
D16*
X138912600Y-110794800D03*
X138912600Y-102194800D03*
D17*
X145912600Y-106494800D03*
X145912600Y-108994800D03*
X145912600Y-103994800D03*
D11*
X128854200Y-131394200D03*
X135356600Y-131394200D03*
X128854200Y-135915400D03*
X135356600Y-135915400D03*
D20*
X128762760Y-88539320D03*
X136362440Y-88539320D03*
D12*
X137927080Y-127406400D03*
X148087080Y-127406400D03*
X148056600Y-130063240D03*
X137896600Y-130063240D03*
X161571940Y-105707180D03*
X151411940Y-105707180D03*
X161571940Y-108377355D03*
X151411940Y-108377355D03*
X161571940Y-110939580D03*
X151411940Y-110939580D03*
X145450560Y-91109800D03*
X155610560Y-91109800D03*
X145455640Y-93677740D03*
X155615640Y-93677740D03*
X145455640Y-96306640D03*
X155615640Y-96306640D03*
X181927500Y-115570000D03*
X171767500Y-115570000D03*
X161470340Y-118999000D03*
X171630340Y-118999000D03*
D13*
X159943800Y-99060000D03*
X159943800Y-101600000D03*
X166751000Y-99060000D03*
X166751000Y-101600000D03*
X173736000Y-99060000D03*
X173736000Y-101600000D03*
D21*
X162877500Y-122161300D02*
X146813660Y-122161300D01*
X146813660Y-122161300D02*
X145963400Y-121311040D01*
X165059360Y-135260080D02*
X165059360Y-124343160D01*
X165059360Y-124343160D02*
X162877500Y-122161300D01*
X178181000Y-122161300D02*
X181063900Y-122161300D01*
X181063900Y-122161300D02*
X181203600Y-122301000D01*
D22*
G36*
X140942060Y-85114838D02*
X140316315Y-85739491D01*
X139977247Y-86556058D01*
X139976475Y-87440223D01*
X140314118Y-88257380D01*
X140938771Y-88883125D01*
X141755338Y-89222193D01*
X142639503Y-89222965D01*
X143456660Y-88885322D01*
X144082405Y-88260669D01*
X144365178Y-87579676D01*
X144464700Y-88080010D01*
X144767532Y-88533229D01*
X145220751Y-88836061D01*
X145755360Y-88942401D01*
X146289969Y-88836061D01*
X146743188Y-88533229D01*
X147025360Y-88110930D01*
X147307532Y-88533229D01*
X147760751Y-88836061D01*
X148295360Y-88942401D01*
X148829969Y-88836061D01*
X149283188Y-88533229D01*
X149565360Y-88110930D01*
X149847532Y-88533229D01*
X150300751Y-88836061D01*
X150835360Y-88942401D01*
X151369969Y-88836061D01*
X151823188Y-88533229D01*
X152114690Y-88096967D01*
X152133301Y-88160021D01*
X152477334Y-88585710D01*
X152958083Y-88847340D01*
X153032290Y-88862300D01*
X153248360Y-88739800D01*
X153248360Y-87127080D01*
X153228360Y-87127080D01*
X153228360Y-86873080D01*
X153248360Y-86873080D01*
X153248360Y-85260360D01*
X153502360Y-85260360D01*
X153502360Y-86873080D01*
X153522360Y-86873080D01*
X153522360Y-87127080D01*
X153502360Y-87127080D01*
X153502360Y-88739800D01*
X153718430Y-88862300D01*
X153792637Y-88847340D01*
X154273386Y-88585710D01*
X154617419Y-88160021D01*
X154636030Y-88096967D01*
X154927532Y-88533229D01*
X155380751Y-88836061D01*
X155915360Y-88942401D01*
X156449969Y-88836061D01*
X156903188Y-88533229D01*
X157185360Y-88110930D01*
X157467532Y-88533229D01*
X157920751Y-88836061D01*
X158455360Y-88942401D01*
X158989969Y-88836061D01*
X159443188Y-88533229D01*
X159725360Y-88110930D01*
X160007532Y-88533229D01*
X160460751Y-88836061D01*
X160995360Y-88942401D01*
X161529969Y-88836061D01*
X161983188Y-88533229D01*
X162265360Y-88110930D01*
X162547532Y-88533229D01*
X163000751Y-88836061D01*
X163535360Y-88942401D01*
X164069969Y-88836061D01*
X164523188Y-88533229D01*
X164805360Y-88110930D01*
X165087532Y-88533229D01*
X165540751Y-88836061D01*
X166075360Y-88942401D01*
X166609969Y-88836061D01*
X167063188Y-88533229D01*
X167345360Y-88110930D01*
X167627532Y-88533229D01*
X168080751Y-88836061D01*
X168615360Y-88942401D01*
X169149969Y-88836061D01*
X169603188Y-88533229D01*
X169906020Y-88080010D01*
X170012360Y-87545401D01*
X170012360Y-86454759D01*
X171282360Y-86454759D01*
X171282360Y-87545401D01*
X171388700Y-88080010D01*
X171691532Y-88533229D01*
X172144751Y-88836061D01*
X172679360Y-88942401D01*
X173213969Y-88836061D01*
X173667188Y-88533229D01*
X173949360Y-88110930D01*
X174231532Y-88533229D01*
X174684751Y-88836061D01*
X175219360Y-88942401D01*
X175753969Y-88836061D01*
X176207188Y-88533229D01*
X176489360Y-88110930D01*
X176771532Y-88533229D01*
X177224751Y-88836061D01*
X177759360Y-88942401D01*
X178293969Y-88836061D01*
X178747188Y-88533229D01*
X179029360Y-88110930D01*
X179311532Y-88533229D01*
X179764751Y-88836061D01*
X180299360Y-88942401D01*
X180833969Y-88836061D01*
X181287188Y-88533229D01*
X181569360Y-88110930D01*
X181851532Y-88533229D01*
X182304751Y-88836061D01*
X182839360Y-88942401D01*
X183373969Y-88836061D01*
X183827188Y-88533229D01*
X184109360Y-88110930D01*
X184391532Y-88533229D01*
X184844751Y-88836061D01*
X185379360Y-88942401D01*
X185913969Y-88836061D01*
X186367188Y-88533229D01*
X186649360Y-88110930D01*
X186931532Y-88533229D01*
X187384751Y-88836061D01*
X187919360Y-88942401D01*
X188453969Y-88836061D01*
X188907188Y-88533229D01*
X189189360Y-88110930D01*
X189471532Y-88533229D01*
X189924751Y-88836061D01*
X190459360Y-88942401D01*
X190993969Y-88836061D01*
X191447188Y-88533229D01*
X191750020Y-88080010D01*
X191856360Y-87545401D01*
X191856360Y-86454759D01*
X191750020Y-85920150D01*
X191447188Y-85466931D01*
X190993969Y-85164099D01*
X190459360Y-85057759D01*
X189924751Y-85164099D01*
X189471532Y-85466931D01*
X189189360Y-85889230D01*
X188907188Y-85466931D01*
X188453969Y-85164099D01*
X187919360Y-85057759D01*
X187384751Y-85164099D01*
X186931532Y-85466931D01*
X186649360Y-85889230D01*
X186367188Y-85466931D01*
X185913969Y-85164099D01*
X185379360Y-85057759D01*
X184844751Y-85164099D01*
X184391532Y-85466931D01*
X184109360Y-85889230D01*
X183827188Y-85466931D01*
X183373969Y-85164099D01*
X182839360Y-85057759D01*
X182304751Y-85164099D01*
X181851532Y-85466931D01*
X181569360Y-85889230D01*
X181287188Y-85466931D01*
X180833969Y-85164099D01*
X180299360Y-85057759D01*
X179764751Y-85164099D01*
X179311532Y-85466931D01*
X179029360Y-85889230D01*
X178747188Y-85466931D01*
X178293969Y-85164099D01*
X177759360Y-85057759D01*
X177224751Y-85164099D01*
X176771532Y-85466931D01*
X176489360Y-85889230D01*
X176207188Y-85466931D01*
X175753969Y-85164099D01*
X175219360Y-85057759D01*
X174684751Y-85164099D01*
X174231532Y-85466931D01*
X173949360Y-85889230D01*
X173667188Y-85466931D01*
X173213969Y-85164099D01*
X172679360Y-85057759D01*
X172144751Y-85164099D01*
X171691532Y-85466931D01*
X171388700Y-85920150D01*
X171282360Y-86454759D01*
X170012360Y-86454759D01*
X169906020Y-85920150D01*
X169603188Y-85466931D01*
X169149969Y-85164099D01*
X168615360Y-85057759D01*
X168080751Y-85164099D01*
X167627532Y-85466931D01*
X167345360Y-85889230D01*
X167063188Y-85466931D01*
X166609969Y-85164099D01*
X166075360Y-85057759D01*
X165540751Y-85164099D01*
X165087532Y-85466931D01*
X164805360Y-85889230D01*
X164523188Y-85466931D01*
X164069969Y-85164099D01*
X163535360Y-85057759D01*
X163000751Y-85164099D01*
X162547532Y-85466931D01*
X162265360Y-85889230D01*
X161983188Y-85466931D01*
X161529969Y-85164099D01*
X160995360Y-85057759D01*
X160460751Y-85164099D01*
X160007532Y-85466931D01*
X159725360Y-85889230D01*
X159443188Y-85466931D01*
X158989969Y-85164099D01*
X158455360Y-85057759D01*
X157920751Y-85164099D01*
X157467532Y-85466931D01*
X157185360Y-85889230D01*
X156903188Y-85466931D01*
X156449969Y-85164099D01*
X155915360Y-85057759D01*
X155380751Y-85164099D01*
X154927532Y-85466931D01*
X154636030Y-85903193D01*
X154617419Y-85840139D01*
X154273386Y-85414450D01*
X153792637Y-85152820D01*
X153718430Y-85137860D01*
X153502360Y-85260360D01*
X153248360Y-85260360D01*
X153032290Y-85137860D01*
X152958083Y-85152820D01*
X152477334Y-85414450D01*
X152133301Y-85840139D01*
X152114690Y-85903193D01*
X151823188Y-85466931D01*
X151369969Y-85164099D01*
X150835360Y-85057759D01*
X150300751Y-85164099D01*
X149847532Y-85466931D01*
X149565360Y-85889230D01*
X149283188Y-85466931D01*
X148829969Y-85164099D01*
X148295360Y-85057759D01*
X147760751Y-85164099D01*
X147307532Y-85466931D01*
X147025360Y-85889230D01*
X146743188Y-85466931D01*
X146289969Y-85164099D01*
X145755360Y-85057759D01*
X145220751Y-85164099D01*
X144767532Y-85466931D01*
X144464700Y-85920150D01*
X144364998Y-86421388D01*
X144084602Y-85742780D01*
X143459949Y-85117035D01*
X143087065Y-84962200D01*
X191511664Y-84962200D01*
X192482000Y-85932536D01*
X192482000Y-97078800D01*
X192534143Y-97340938D01*
X192682632Y-97563168D01*
X194996600Y-99877136D01*
X194996600Y-101253835D01*
X194884602Y-100982780D01*
X194259949Y-100357035D01*
X193443382Y-100017967D01*
X192559217Y-100017195D01*
X191742060Y-100354838D01*
X191116315Y-100979491D01*
X190777247Y-101796058D01*
X190776475Y-102680223D01*
X191114118Y-103497380D01*
X191738771Y-104123125D01*
X192555338Y-104462193D01*
X193439503Y-104462965D01*
X194256660Y-104125322D01*
X194882405Y-103500669D01*
X194996600Y-103225657D01*
X194996600Y-129193835D01*
X194884602Y-128922780D01*
X194259949Y-128297035D01*
X193443382Y-127957967D01*
X192559217Y-127957195D01*
X191742060Y-128294838D01*
X191116315Y-128919491D01*
X190777247Y-129736058D01*
X190776475Y-130620223D01*
X191114118Y-131437380D01*
X191738771Y-132063125D01*
X192555338Y-132402193D01*
X193439503Y-132402965D01*
X194256660Y-132065322D01*
X194882405Y-131440669D01*
X194996600Y-131165657D01*
X194996600Y-132482064D01*
X192682632Y-134796032D01*
X192534143Y-135018262D01*
X192482000Y-135280400D01*
X192482000Y-137237000D01*
X141964783Y-137237000D01*
X142186660Y-137145322D01*
X142812405Y-136520669D01*
X143151473Y-135704102D01*
X143152245Y-134819937D01*
X142814602Y-134002780D01*
X142189949Y-133377035D01*
X141373382Y-133037967D01*
X140489217Y-133037195D01*
X139672060Y-133374838D01*
X139046315Y-133999491D01*
X138707247Y-134816058D01*
X138706475Y-135700223D01*
X139044118Y-136517380D01*
X139668771Y-137143125D01*
X139894847Y-137237000D01*
X135763032Y-137237000D01*
X135918578Y-137206060D01*
X136371797Y-136903228D01*
X136674629Y-136450009D01*
X136780969Y-135915400D01*
X136674629Y-135380791D01*
X136371797Y-134927572D01*
X135918578Y-134624740D01*
X135383969Y-134518400D01*
X135329231Y-134518400D01*
X134794622Y-134624740D01*
X134341403Y-134927572D01*
X134038571Y-135380791D01*
X133932231Y-135915400D01*
X134038571Y-136450009D01*
X134341403Y-136903228D01*
X134794622Y-137206060D01*
X134950168Y-137237000D01*
X129260632Y-137237000D01*
X129416178Y-137206060D01*
X129869397Y-136903228D01*
X130172229Y-136450009D01*
X130278569Y-135915400D01*
X130172229Y-135380791D01*
X129869397Y-134927572D01*
X129416178Y-134624740D01*
X128881569Y-134518400D01*
X128826831Y-134518400D01*
X128292222Y-134624740D01*
X127839003Y-134927572D01*
X127536171Y-135380791D01*
X127507200Y-135526439D01*
X127507200Y-131754702D01*
X127654026Y-132109197D01*
X128019001Y-132514058D01*
X128511128Y-132748431D01*
X128727200Y-132626676D01*
X128727200Y-131521200D01*
X128981200Y-131521200D01*
X128981200Y-132626676D01*
X129197272Y-132748431D01*
X129689399Y-132514058D01*
X130054374Y-132109197D01*
X130208420Y-131737270D01*
X134002380Y-131737270D01*
X134156426Y-132109197D01*
X134521401Y-132514058D01*
X135013528Y-132748431D01*
X135229600Y-132626676D01*
X135229600Y-131521200D01*
X135483600Y-131521200D01*
X135483600Y-132626676D01*
X135699672Y-132748431D01*
X136191799Y-132514058D01*
X136556774Y-132109197D01*
X136710820Y-131737270D01*
X136588320Y-131521200D01*
X135483600Y-131521200D01*
X135229600Y-131521200D01*
X134124880Y-131521200D01*
X134002380Y-131737270D01*
X130208420Y-131737270D01*
X130085920Y-131521200D01*
X128981200Y-131521200D01*
X128727200Y-131521200D01*
X128707200Y-131521200D01*
X128707200Y-131267200D01*
X128727200Y-131267200D01*
X128727200Y-130161724D01*
X128981200Y-130161724D01*
X128981200Y-131267200D01*
X130085920Y-131267200D01*
X130208420Y-131051130D01*
X134002380Y-131051130D01*
X134124880Y-131267200D01*
X135229600Y-131267200D01*
X135229600Y-130161724D01*
X135483600Y-130161724D01*
X135483600Y-131267200D01*
X136588320Y-131267200D01*
X136617686Y-131215403D01*
X136924043Y-131215403D01*
X137022642Y-131482205D01*
X137632182Y-131708641D01*
X138281977Y-131684581D01*
X138770558Y-131482205D01*
X138869157Y-131215403D01*
X137896600Y-130242845D01*
X136924043Y-131215403D01*
X136617686Y-131215403D01*
X136710820Y-131051130D01*
X136697246Y-131018357D01*
X136744437Y-131035797D01*
X137716995Y-130063240D01*
X138076205Y-130063240D01*
X139048763Y-131035797D01*
X139315565Y-130937198D01*
X139519980Y-130386934D01*
X146421826Y-130386934D01*
X146670138Y-130987895D01*
X147129527Y-131448086D01*
X147730053Y-131697446D01*
X148380294Y-131698014D01*
X148981255Y-131449702D01*
X149441446Y-130990313D01*
X149690806Y-130389787D01*
X149691374Y-129739546D01*
X149443062Y-129138585D01*
X149054913Y-128749759D01*
X149471926Y-128333473D01*
X149721286Y-127732947D01*
X149721854Y-127082706D01*
X149473542Y-126481745D01*
X149014153Y-126021554D01*
X148413627Y-125772194D01*
X147763386Y-125771626D01*
X147162425Y-126019938D01*
X146702234Y-126479327D01*
X146452874Y-127079853D01*
X146452306Y-127730094D01*
X146700618Y-128331055D01*
X147088767Y-128719881D01*
X146671754Y-129136167D01*
X146422394Y-129736693D01*
X146421826Y-130386934D01*
X139519980Y-130386934D01*
X139542001Y-130327658D01*
X139517941Y-129677863D01*
X139315565Y-129189282D01*
X139048763Y-129090683D01*
X138076205Y-130063240D01*
X137716995Y-130063240D01*
X136744437Y-129090683D01*
X136477635Y-129189282D01*
X136251199Y-129798822D01*
X136272105Y-130363424D01*
X136191799Y-130274342D01*
X135699672Y-130039969D01*
X135483600Y-130161724D01*
X135229600Y-130161724D01*
X135013528Y-130039969D01*
X134521401Y-130274342D01*
X134156426Y-130679203D01*
X134002380Y-131051130D01*
X130208420Y-131051130D01*
X130054374Y-130679203D01*
X129689399Y-130274342D01*
X129197272Y-130039969D01*
X128981200Y-130161724D01*
X128727200Y-130161724D01*
X128511128Y-130039969D01*
X128019001Y-130274342D01*
X127654026Y-130679203D01*
X127507200Y-131033698D01*
X127507200Y-127730094D01*
X136292306Y-127730094D01*
X136540618Y-128331055D01*
X136976887Y-128768085D01*
X136924043Y-128911077D01*
X137896600Y-129883635D01*
X138869157Y-128911077D01*
X138828949Y-128802277D01*
X138851735Y-128792862D01*
X139311926Y-128333473D01*
X139561286Y-127732947D01*
X139561854Y-127082706D01*
X139313542Y-126481745D01*
X138854153Y-126021554D01*
X138253627Y-125772194D01*
X137603386Y-125771626D01*
X137002425Y-126019938D01*
X136542234Y-126479327D01*
X136292874Y-127079853D01*
X136292306Y-127730094D01*
X127507200Y-127730094D01*
X127507200Y-123553659D01*
X136728013Y-123553659D01*
X137067555Y-124375412D01*
X137695721Y-125004676D01*
X138516881Y-125345651D01*
X139406019Y-125346427D01*
X140227772Y-125006885D01*
X140857036Y-124378719D01*
X141198011Y-123557559D01*
X141198787Y-122668421D01*
X140859245Y-121846668D01*
X140231079Y-121217404D01*
X139409919Y-120876429D01*
X138520781Y-120875653D01*
X137699028Y-121215195D01*
X137069764Y-121843361D01*
X136728789Y-122664521D01*
X136728013Y-123553659D01*
X127507200Y-123553659D01*
X127507200Y-119115031D01*
X144428135Y-119115031D01*
X144661332Y-119679411D01*
X145042582Y-120061328D01*
X144662849Y-120440397D01*
X144428667Y-121004370D01*
X144428135Y-121615031D01*
X144661332Y-122179411D01*
X145092757Y-122611591D01*
X145656730Y-122845773D01*
X146267391Y-122846305D01*
X146268652Y-122845784D01*
X146473454Y-122982629D01*
X146813660Y-123050300D01*
X161796268Y-123050300D01*
X161862303Y-123149128D01*
X162315522Y-123451960D01*
X162850131Y-123558300D01*
X162904869Y-123558300D01*
X162998617Y-123539653D01*
X164170360Y-124711396D01*
X164170360Y-126110223D01*
X163892697Y-125694672D01*
X163439478Y-125391840D01*
X162904869Y-125285500D01*
X162850131Y-125285500D01*
X162315522Y-125391840D01*
X161862303Y-125694672D01*
X161559471Y-126147891D01*
X161453131Y-126682500D01*
X161559471Y-127217109D01*
X161862303Y-127670328D01*
X162315522Y-127973160D01*
X162850131Y-128079500D01*
X162904869Y-128079500D01*
X163439478Y-127973160D01*
X163892697Y-127670328D01*
X164170360Y-127254777D01*
X164170360Y-133660896D01*
X164071532Y-133726931D01*
X163789360Y-134149230D01*
X163507188Y-133726931D01*
X163053969Y-133424099D01*
X162519360Y-133317759D01*
X161984751Y-133424099D01*
X161531532Y-133726931D01*
X161249360Y-134149230D01*
X160967188Y-133726931D01*
X160513969Y-133424099D01*
X159979360Y-133317759D01*
X159444751Y-133424099D01*
X158991532Y-133726931D01*
X158709360Y-134149230D01*
X158427188Y-133726931D01*
X157973969Y-133424099D01*
X157439360Y-133317759D01*
X156904751Y-133424099D01*
X156451532Y-133726931D01*
X156169360Y-134149230D01*
X155887188Y-133726931D01*
X155433969Y-133424099D01*
X154899360Y-133317759D01*
X154364751Y-133424099D01*
X153911532Y-133726931D01*
X153608700Y-134180150D01*
X153502360Y-134714759D01*
X153502360Y-135805401D01*
X153608700Y-136340010D01*
X153911532Y-136793229D01*
X154364751Y-137096061D01*
X154899360Y-137202401D01*
X155433969Y-137096061D01*
X155887188Y-136793229D01*
X156169360Y-136370930D01*
X156451532Y-136793229D01*
X156904751Y-137096061D01*
X157439360Y-137202401D01*
X157973969Y-137096061D01*
X158427188Y-136793229D01*
X158709360Y-136370930D01*
X158991532Y-136793229D01*
X159444751Y-137096061D01*
X159979360Y-137202401D01*
X160513969Y-137096061D01*
X160967188Y-136793229D01*
X161249360Y-136370930D01*
X161531532Y-136793229D01*
X161984751Y-137096061D01*
X162519360Y-137202401D01*
X163053969Y-137096061D01*
X163507188Y-136793229D01*
X163789360Y-136370930D01*
X164071532Y-136793229D01*
X164524751Y-137096061D01*
X165059360Y-137202401D01*
X165593969Y-137096061D01*
X166047188Y-136793229D01*
X166338690Y-136356967D01*
X166357301Y-136420021D01*
X166701334Y-136845710D01*
X167182083Y-137107340D01*
X167256290Y-137122300D01*
X167472360Y-136999800D01*
X167472360Y-135387080D01*
X167726360Y-135387080D01*
X167726360Y-136999800D01*
X167942430Y-137122300D01*
X168016637Y-137107340D01*
X168497386Y-136845710D01*
X168841419Y-136420021D01*
X168869360Y-136325357D01*
X168897301Y-136420021D01*
X169241334Y-136845710D01*
X169722083Y-137107340D01*
X169796290Y-137122300D01*
X170012360Y-136999800D01*
X170012360Y-135387080D01*
X167726360Y-135387080D01*
X167472360Y-135387080D01*
X167452360Y-135387080D01*
X167452360Y-135133080D01*
X167472360Y-135133080D01*
X167472360Y-133520360D01*
X167726360Y-133520360D01*
X167726360Y-135133080D01*
X170012360Y-135133080D01*
X170012360Y-133520360D01*
X170266360Y-133520360D01*
X170266360Y-135133080D01*
X170286360Y-135133080D01*
X170286360Y-135387080D01*
X170266360Y-135387080D01*
X170266360Y-136999800D01*
X170482430Y-137122300D01*
X170556637Y-137107340D01*
X171037386Y-136845710D01*
X171381419Y-136420021D01*
X171400030Y-136356967D01*
X171691532Y-136793229D01*
X172144751Y-137096061D01*
X172679360Y-137202401D01*
X173213969Y-137096061D01*
X173667188Y-136793229D01*
X173970020Y-136340010D01*
X174076360Y-135805401D01*
X174076360Y-134714759D01*
X176362360Y-134714759D01*
X176362360Y-135805401D01*
X176468700Y-136340010D01*
X176771532Y-136793229D01*
X177224751Y-137096061D01*
X177759360Y-137202401D01*
X178293969Y-137096061D01*
X178747188Y-136793229D01*
X179029360Y-136370930D01*
X179311532Y-136793229D01*
X179764751Y-137096061D01*
X180299360Y-137202401D01*
X180833969Y-137096061D01*
X181287188Y-136793229D01*
X181569360Y-136370930D01*
X181851532Y-136793229D01*
X182304751Y-137096061D01*
X182839360Y-137202401D01*
X183373969Y-137096061D01*
X183827188Y-136793229D01*
X184109360Y-136370930D01*
X184391532Y-136793229D01*
X184844751Y-137096061D01*
X185379360Y-137202401D01*
X185913969Y-137096061D01*
X186367188Y-136793229D01*
X186649360Y-136370930D01*
X186931532Y-136793229D01*
X187384751Y-137096061D01*
X187919360Y-137202401D01*
X188453969Y-137096061D01*
X188907188Y-136793229D01*
X189189360Y-136370930D01*
X189471532Y-136793229D01*
X189924751Y-137096061D01*
X190459360Y-137202401D01*
X190993969Y-137096061D01*
X191447188Y-136793229D01*
X191750020Y-136340010D01*
X191856360Y-135805401D01*
X191856360Y-134714759D01*
X191750020Y-134180150D01*
X191447188Y-133726931D01*
X190993969Y-133424099D01*
X190459360Y-133317759D01*
X189924751Y-133424099D01*
X189471532Y-133726931D01*
X189189360Y-134149230D01*
X188907188Y-133726931D01*
X188453969Y-133424099D01*
X187919360Y-133317759D01*
X187384751Y-133424099D01*
X186931532Y-133726931D01*
X186649360Y-134149230D01*
X186367188Y-133726931D01*
X185913969Y-133424099D01*
X185379360Y-133317759D01*
X184844751Y-133424099D01*
X184391532Y-133726931D01*
X184109360Y-134149230D01*
X183827188Y-133726931D01*
X183373969Y-133424099D01*
X182839360Y-133317759D01*
X182304751Y-133424099D01*
X181851532Y-133726931D01*
X181569360Y-134149230D01*
X181287188Y-133726931D01*
X180833969Y-133424099D01*
X180299360Y-133317759D01*
X179764751Y-133424099D01*
X179311532Y-133726931D01*
X179029360Y-134149230D01*
X178747188Y-133726931D01*
X178293969Y-133424099D01*
X177759360Y-133317759D01*
X177224751Y-133424099D01*
X176771532Y-133726931D01*
X176468700Y-134180150D01*
X176362360Y-134714759D01*
X174076360Y-134714759D01*
X173970020Y-134180150D01*
X173667188Y-133726931D01*
X173213969Y-133424099D01*
X172679360Y-133317759D01*
X172144751Y-133424099D01*
X171691532Y-133726931D01*
X171400030Y-134163193D01*
X171381419Y-134100139D01*
X171037386Y-133674450D01*
X170556637Y-133412820D01*
X170482430Y-133397860D01*
X170266360Y-133520360D01*
X170012360Y-133520360D01*
X169796290Y-133397860D01*
X169722083Y-133412820D01*
X169241334Y-133674450D01*
X168897301Y-134100139D01*
X168869360Y-134194803D01*
X168841419Y-134100139D01*
X168497386Y-133674450D01*
X168016637Y-133412820D01*
X167942430Y-133397860D01*
X167726360Y-133520360D01*
X167472360Y-133520360D01*
X167256290Y-133397860D01*
X167182083Y-133412820D01*
X166701334Y-133674450D01*
X166357301Y-134100139D01*
X166338690Y-134163193D01*
X166047188Y-133726931D01*
X165948360Y-133660896D01*
X165948360Y-126682500D01*
X167955531Y-126682500D01*
X168061871Y-127217109D01*
X168364703Y-127670328D01*
X168817922Y-127973160D01*
X169352531Y-128079500D01*
X169407269Y-128079500D01*
X169941878Y-127973160D01*
X170395097Y-127670328D01*
X170529250Y-127469554D01*
X170663403Y-127670328D01*
X171116622Y-127973160D01*
X171651231Y-128079500D01*
X171705969Y-128079500D01*
X172240578Y-127973160D01*
X172693797Y-127670328D01*
X172996629Y-127217109D01*
X173102969Y-126682500D01*
X176756631Y-126682500D01*
X176862971Y-127217109D01*
X177165803Y-127670328D01*
X177619022Y-127973160D01*
X178153631Y-128079500D01*
X178208369Y-128079500D01*
X178742978Y-127973160D01*
X179196197Y-127670328D01*
X179499029Y-127217109D01*
X179577581Y-126822200D01*
X179779231Y-126822200D01*
X179885571Y-127356809D01*
X180188403Y-127810028D01*
X180641622Y-128112860D01*
X181176231Y-128219200D01*
X181230969Y-128219200D01*
X181765578Y-128112860D01*
X182218797Y-127810028D01*
X182521629Y-127356809D01*
X182627969Y-126822200D01*
X186281631Y-126822200D01*
X186387971Y-127356809D01*
X186690803Y-127810028D01*
X187144022Y-128112860D01*
X187678631Y-128219200D01*
X187733369Y-128219200D01*
X188267978Y-128112860D01*
X188721197Y-127810028D01*
X189024029Y-127356809D01*
X189130369Y-126822200D01*
X189024029Y-126287591D01*
X188721197Y-125834372D01*
X188267978Y-125531540D01*
X187733369Y-125425200D01*
X187678631Y-125425200D01*
X187144022Y-125531540D01*
X186690803Y-125834372D01*
X186387971Y-126287591D01*
X186281631Y-126822200D01*
X182627969Y-126822200D01*
X182521629Y-126287591D01*
X182218797Y-125834372D01*
X181765578Y-125531540D01*
X181230969Y-125425200D01*
X181176231Y-125425200D01*
X180641622Y-125531540D01*
X180188403Y-125834372D01*
X179885571Y-126287591D01*
X179779231Y-126822200D01*
X179577581Y-126822200D01*
X179605369Y-126682500D01*
X179499029Y-126147891D01*
X179196197Y-125694672D01*
X178742978Y-125391840D01*
X178208369Y-125285500D01*
X178153631Y-125285500D01*
X177619022Y-125391840D01*
X177165803Y-125694672D01*
X176862971Y-126147891D01*
X176756631Y-126682500D01*
X173102969Y-126682500D01*
X172996629Y-126147891D01*
X172693797Y-125694672D01*
X172240578Y-125391840D01*
X171705969Y-125285500D01*
X171651231Y-125285500D01*
X171116622Y-125391840D01*
X170663403Y-125694672D01*
X170529250Y-125895446D01*
X170395097Y-125694672D01*
X169941878Y-125391840D01*
X169407269Y-125285500D01*
X169352531Y-125285500D01*
X168817922Y-125391840D01*
X168364703Y-125694672D01*
X168061871Y-126147891D01*
X167955531Y-126682500D01*
X165948360Y-126682500D01*
X165948360Y-124343160D01*
X165880689Y-124002954D01*
X165687978Y-123714542D01*
X164274140Y-122300704D01*
X164301869Y-122161300D01*
X167955531Y-122161300D01*
X168061871Y-122695909D01*
X168364703Y-123149128D01*
X168817922Y-123451960D01*
X169352531Y-123558300D01*
X169407269Y-123558300D01*
X169941878Y-123451960D01*
X170395097Y-123149128D01*
X170529250Y-122948354D01*
X170663403Y-123149128D01*
X171116622Y-123451960D01*
X171651231Y-123558300D01*
X171705969Y-123558300D01*
X172240578Y-123451960D01*
X172693797Y-123149128D01*
X172996629Y-122695909D01*
X173102969Y-122161300D01*
X176756631Y-122161300D01*
X176862971Y-122695909D01*
X177165803Y-123149128D01*
X177619022Y-123451960D01*
X178153631Y-123558300D01*
X178208369Y-123558300D01*
X178742978Y-123451960D01*
X179196197Y-123149128D01*
X179262232Y-123050300D01*
X180029023Y-123050300D01*
X180188403Y-123288828D01*
X180641622Y-123591660D01*
X181176231Y-123698000D01*
X181230969Y-123698000D01*
X181765578Y-123591660D01*
X182218797Y-123288828D01*
X182521629Y-122835609D01*
X182627969Y-122301000D01*
X186281631Y-122301000D01*
X186387971Y-122835609D01*
X186690803Y-123288828D01*
X187144022Y-123591660D01*
X187678631Y-123698000D01*
X187733369Y-123698000D01*
X188267978Y-123591660D01*
X188721197Y-123288828D01*
X189024029Y-122835609D01*
X189130369Y-122301000D01*
X189024029Y-121766391D01*
X188721197Y-121313172D01*
X188267978Y-121010340D01*
X187733369Y-120904000D01*
X187678631Y-120904000D01*
X187144022Y-121010340D01*
X186690803Y-121313172D01*
X186387971Y-121766391D01*
X186281631Y-122301000D01*
X182627969Y-122301000D01*
X182521629Y-121766391D01*
X182218797Y-121313172D01*
X181765578Y-121010340D01*
X181230969Y-120904000D01*
X181176231Y-120904000D01*
X180641622Y-121010340D01*
X180249572Y-121272300D01*
X179262232Y-121272300D01*
X179196197Y-121173472D01*
X178742978Y-120870640D01*
X178208369Y-120764300D01*
X178153631Y-120764300D01*
X177619022Y-120870640D01*
X177165803Y-121173472D01*
X176862971Y-121626691D01*
X176756631Y-122161300D01*
X173102969Y-122161300D01*
X172996629Y-121626691D01*
X172693797Y-121173472D01*
X172240578Y-120870640D01*
X171705969Y-120764300D01*
X171651231Y-120764300D01*
X171116622Y-120870640D01*
X170663403Y-121173472D01*
X170529250Y-121374246D01*
X170395097Y-121173472D01*
X169941878Y-120870640D01*
X169407269Y-120764300D01*
X169352531Y-120764300D01*
X168817922Y-120870640D01*
X168364703Y-121173472D01*
X168061871Y-121626691D01*
X167955531Y-122161300D01*
X164301869Y-122161300D01*
X164195529Y-121626691D01*
X163892697Y-121173472D01*
X163439478Y-120870640D01*
X162904869Y-120764300D01*
X162850131Y-120764300D01*
X162315522Y-120870640D01*
X161862303Y-121173472D01*
X161796268Y-121272300D01*
X147498434Y-121272300D01*
X147498665Y-121007049D01*
X147265468Y-120442669D01*
X146884218Y-120060752D01*
X147263951Y-119681683D01*
X147413016Y-119322694D01*
X159835566Y-119322694D01*
X160083878Y-119923655D01*
X160543267Y-120383846D01*
X161143793Y-120633206D01*
X161794034Y-120633774D01*
X162394995Y-120385462D01*
X162629703Y-120151163D01*
X170657783Y-120151163D01*
X170756382Y-120417965D01*
X171365922Y-120644401D01*
X172015717Y-120620341D01*
X172504298Y-120417965D01*
X172555963Y-120278163D01*
X174922443Y-120278163D01*
X175021042Y-120544965D01*
X175630582Y-120771401D01*
X176280377Y-120747341D01*
X176768958Y-120544965D01*
X176867557Y-120278163D01*
X175895000Y-119305605D01*
X174922443Y-120278163D01*
X172555963Y-120278163D01*
X172602897Y-120151163D01*
X171630340Y-119178605D01*
X170657783Y-120151163D01*
X162629703Y-120151163D01*
X162855186Y-119926073D01*
X163104546Y-119325547D01*
X163105062Y-118734582D01*
X169984939Y-118734582D01*
X170008999Y-119384377D01*
X170211375Y-119872958D01*
X170478177Y-119971557D01*
X171450735Y-118999000D01*
X171809945Y-118999000D01*
X172782503Y-119971557D01*
X173049305Y-119872958D01*
X173275741Y-119263418D01*
X173260863Y-118861582D01*
X174249599Y-118861582D01*
X174273659Y-119511377D01*
X174476035Y-119999958D01*
X174742837Y-120098557D01*
X175715395Y-119126000D01*
X176074605Y-119126000D01*
X177047163Y-120098557D01*
X177313965Y-119999958D01*
X177518380Y-119449694D01*
X184420226Y-119449694D01*
X184668538Y-120050655D01*
X185127927Y-120510846D01*
X185728453Y-120760206D01*
X186378694Y-120760774D01*
X186979655Y-120512462D01*
X187439846Y-120053073D01*
X187689206Y-119452547D01*
X187689774Y-118802306D01*
X187441462Y-118201345D01*
X186982073Y-117741154D01*
X186381547Y-117491794D01*
X185731306Y-117491226D01*
X185130345Y-117739538D01*
X184670154Y-118198927D01*
X184420794Y-118799453D01*
X184420226Y-119449694D01*
X177518380Y-119449694D01*
X177540401Y-119390418D01*
X177516341Y-118740623D01*
X177313965Y-118252042D01*
X177047163Y-118153443D01*
X176074605Y-119126000D01*
X175715395Y-119126000D01*
X174742837Y-118153443D01*
X174476035Y-118252042D01*
X174249599Y-118861582D01*
X173260863Y-118861582D01*
X173251681Y-118613623D01*
X173049305Y-118125042D01*
X172782503Y-118026443D01*
X171809945Y-118999000D01*
X171450735Y-118999000D01*
X170478177Y-118026443D01*
X170211375Y-118125042D01*
X169984939Y-118734582D01*
X163105062Y-118734582D01*
X163105114Y-118675306D01*
X162856802Y-118074345D01*
X162629691Y-117846837D01*
X170657783Y-117846837D01*
X171630340Y-118819395D01*
X172475897Y-117973837D01*
X174922443Y-117973837D01*
X175895000Y-118946395D01*
X176867557Y-117973837D01*
X176768958Y-117707035D01*
X176159418Y-117480599D01*
X175509623Y-117504659D01*
X175021042Y-117707035D01*
X174922443Y-117973837D01*
X172475897Y-117973837D01*
X172602897Y-117846837D01*
X172504298Y-117580035D01*
X171894758Y-117353599D01*
X171244963Y-117377659D01*
X170756382Y-117580035D01*
X170657783Y-117846837D01*
X162629691Y-117846837D01*
X162397413Y-117614154D01*
X162098949Y-117490221D01*
X162468655Y-117337462D01*
X162928846Y-116878073D01*
X162993585Y-116722163D01*
X170794943Y-116722163D01*
X170893542Y-116988965D01*
X171503082Y-117215401D01*
X172152877Y-117191341D01*
X172641458Y-116988965D01*
X172740057Y-116722163D01*
X171767500Y-115749605D01*
X170794943Y-116722163D01*
X162993585Y-116722163D01*
X163178206Y-116277547D01*
X163178774Y-115627306D01*
X163045841Y-115305582D01*
X170122099Y-115305582D01*
X170146159Y-115955377D01*
X170348535Y-116443958D01*
X170615337Y-116542557D01*
X171587895Y-115570000D01*
X171947105Y-115570000D01*
X172919663Y-116542557D01*
X173186465Y-116443958D01*
X173390880Y-115893694D01*
X180292726Y-115893694D01*
X180541038Y-116494655D01*
X181000427Y-116954846D01*
X181600953Y-117204206D01*
X182251194Y-117204774D01*
X182852155Y-116956462D01*
X183312346Y-116497073D01*
X183561706Y-115896547D01*
X183562274Y-115246306D01*
X183313962Y-114645345D01*
X182854573Y-114185154D01*
X182254047Y-113935794D01*
X181603806Y-113935226D01*
X181002845Y-114183538D01*
X180542654Y-114642927D01*
X180293294Y-115243453D01*
X180292726Y-115893694D01*
X173390880Y-115893694D01*
X173412901Y-115834418D01*
X173388841Y-115184623D01*
X173186465Y-114696042D01*
X172919663Y-114597443D01*
X171947105Y-115570000D01*
X171587895Y-115570000D01*
X170615337Y-114597443D01*
X170348535Y-114696042D01*
X170122099Y-115305582D01*
X163045841Y-115305582D01*
X162930462Y-115026345D01*
X162649020Y-114744411D01*
X162928846Y-114465073D01*
X162948460Y-114417837D01*
X170794943Y-114417837D01*
X171767500Y-115390395D01*
X172740057Y-114417837D01*
X172641458Y-114151035D01*
X172031918Y-113924599D01*
X171382123Y-113948659D01*
X170893542Y-114151035D01*
X170794943Y-114417837D01*
X162948460Y-114417837D01*
X163178206Y-113864547D01*
X163178774Y-113214306D01*
X162930462Y-112613345D01*
X162570256Y-112252510D01*
X162956786Y-111866653D01*
X163206146Y-111266127D01*
X163206714Y-110615886D01*
X162958402Y-110014925D01*
X162824283Y-109880572D01*
X175683769Y-109880572D01*
X175918142Y-110372699D01*
X176323003Y-110737674D01*
X176694930Y-110891720D01*
X176911000Y-110769220D01*
X176911000Y-109664500D01*
X175805524Y-109664500D01*
X175683769Y-109880572D01*
X162824283Y-109880572D01*
X162602347Y-109658249D01*
X162956786Y-109304428D01*
X163002461Y-109194428D01*
X175683769Y-109194428D01*
X175805524Y-109410500D01*
X176911000Y-109410500D01*
X176911000Y-108305780D01*
X177165000Y-108305780D01*
X177165000Y-109410500D01*
X177185000Y-109410500D01*
X177185000Y-109664500D01*
X177165000Y-109664500D01*
X177165000Y-110769220D01*
X177381070Y-110891720D01*
X177752997Y-110737674D01*
X178157858Y-110372699D01*
X178287713Y-110100036D01*
X178590172Y-110552697D01*
X179043391Y-110855529D01*
X179578000Y-110961869D01*
X180112609Y-110855529D01*
X180565828Y-110552697D01*
X180848000Y-110130398D01*
X181130172Y-110552697D01*
X181583391Y-110855529D01*
X182118000Y-110961869D01*
X182652609Y-110855529D01*
X183105828Y-110552697D01*
X183408660Y-110099478D01*
X183515000Y-109564869D01*
X183515000Y-109510131D01*
X183408660Y-108975522D01*
X183105828Y-108522303D01*
X182652609Y-108219471D01*
X182118000Y-108113131D01*
X181583391Y-108219471D01*
X181130172Y-108522303D01*
X180848000Y-108944602D01*
X180565828Y-108522303D01*
X180112609Y-108219471D01*
X179578000Y-108113131D01*
X179043391Y-108219471D01*
X178590172Y-108522303D01*
X178287713Y-108974964D01*
X178157858Y-108702301D01*
X177752997Y-108337326D01*
X177381070Y-108183280D01*
X177165000Y-108305780D01*
X176911000Y-108305780D01*
X176694930Y-108183280D01*
X176323003Y-108337326D01*
X175918142Y-108702301D01*
X175683769Y-109194428D01*
X163002461Y-109194428D01*
X163206146Y-108703902D01*
X163206714Y-108053661D01*
X163017919Y-107596741D01*
X189062118Y-107596741D01*
X189274350Y-108110383D01*
X189666990Y-108503709D01*
X189874872Y-108590029D01*
X189669057Y-108675070D01*
X189275731Y-109067710D01*
X189062603Y-109580980D01*
X189062118Y-110136741D01*
X189274350Y-110650383D01*
X189666990Y-111043709D01*
X189874872Y-111130029D01*
X189669057Y-111215070D01*
X189275731Y-111607710D01*
X189062603Y-112120980D01*
X189062118Y-112676741D01*
X189274350Y-113190383D01*
X189666990Y-113583709D01*
X190180260Y-113796837D01*
X190736021Y-113797322D01*
X191249663Y-113585090D01*
X191642989Y-113192450D01*
X191729309Y-112984568D01*
X191814350Y-113190383D01*
X192206990Y-113583709D01*
X192720260Y-113796837D01*
X193276021Y-113797322D01*
X193789663Y-113585090D01*
X194182989Y-113192450D01*
X194396117Y-112679180D01*
X194396602Y-112123419D01*
X194184370Y-111609777D01*
X193791730Y-111216451D01*
X193583848Y-111130131D01*
X193789663Y-111045090D01*
X194182989Y-110652450D01*
X194396117Y-110139180D01*
X194396602Y-109583419D01*
X194184370Y-109069777D01*
X193791730Y-108676451D01*
X193583848Y-108590131D01*
X193789663Y-108505090D01*
X194182989Y-108112450D01*
X194396117Y-107599180D01*
X194396602Y-107043419D01*
X194184370Y-106529777D01*
X193791730Y-106136451D01*
X193278460Y-105923323D01*
X192722699Y-105922838D01*
X192209057Y-106135070D01*
X191815731Y-106527710D01*
X191729411Y-106735592D01*
X191644370Y-106529777D01*
X191251730Y-106136451D01*
X190738460Y-105923323D01*
X190182699Y-105922838D01*
X189669057Y-106135070D01*
X189275731Y-106527710D01*
X189062603Y-107040980D01*
X189062118Y-107596741D01*
X163017919Y-107596741D01*
X162958402Y-107452700D01*
X162548373Y-107041955D01*
X162956786Y-106634253D01*
X163206146Y-106033727D01*
X163206714Y-105383486D01*
X162958402Y-104782525D01*
X162499013Y-104322334D01*
X161898487Y-104072974D01*
X161248246Y-104072406D01*
X160647285Y-104320718D01*
X160187094Y-104780107D01*
X159937734Y-105380633D01*
X159937166Y-106030874D01*
X160185478Y-106631835D01*
X160595507Y-107042580D01*
X160187094Y-107450282D01*
X159937734Y-108050808D01*
X159937166Y-108701049D01*
X160185478Y-109302010D01*
X160541533Y-109658686D01*
X160187094Y-110012507D01*
X159937734Y-110613033D01*
X159937166Y-111263274D01*
X160185478Y-111864235D01*
X160545684Y-112225070D01*
X160159154Y-112610927D01*
X159909794Y-113211453D01*
X159909226Y-113861694D01*
X160157538Y-114462655D01*
X160438980Y-114744589D01*
X160159154Y-115023927D01*
X159909794Y-115624453D01*
X159909226Y-116274694D01*
X160157538Y-116875655D01*
X160616927Y-117335846D01*
X160915391Y-117459779D01*
X160545685Y-117612538D01*
X160085494Y-118071927D01*
X159836134Y-118672453D01*
X159835566Y-119322694D01*
X147413016Y-119322694D01*
X147498133Y-119117710D01*
X147498665Y-118507049D01*
X147265468Y-117942669D01*
X146834043Y-117510489D01*
X146825028Y-117506746D01*
X146863954Y-117391199D01*
X145963400Y-116490645D01*
X145062846Y-117391199D01*
X145101607Y-117506254D01*
X145095029Y-117508972D01*
X144662849Y-117940397D01*
X144428667Y-118504370D01*
X144428135Y-119115031D01*
X127507200Y-119115031D01*
X127507200Y-111237419D01*
X136677213Y-111237419D01*
X137016755Y-112059172D01*
X137635307Y-112678805D01*
X137069764Y-113243361D01*
X136728789Y-114064521D01*
X136728013Y-114953659D01*
X137067555Y-115775412D01*
X137695721Y-116404676D01*
X138516881Y-116745651D01*
X139406019Y-116746427D01*
X140227772Y-116406885D01*
X140564869Y-116070376D01*
X144416942Y-116070376D01*
X144442561Y-116680500D01*
X144626757Y-117125188D01*
X144883241Y-117211594D01*
X145783795Y-116311040D01*
X146143005Y-116311040D01*
X147043559Y-117211594D01*
X147300043Y-117125188D01*
X147308101Y-117103163D01*
X150411443Y-117103163D01*
X150510042Y-117369965D01*
X151119582Y-117596401D01*
X151769377Y-117572341D01*
X152257958Y-117369965D01*
X152356557Y-117103163D01*
X151384000Y-116130605D01*
X150411443Y-117103163D01*
X147308101Y-117103163D01*
X147509858Y-116551704D01*
X147484239Y-115941580D01*
X147378616Y-115686582D01*
X149738599Y-115686582D01*
X149762659Y-116336377D01*
X149965035Y-116824958D01*
X150231837Y-116923557D01*
X151204395Y-115951000D01*
X151563605Y-115951000D01*
X152536163Y-116923557D01*
X152802965Y-116824958D01*
X153029401Y-116215418D01*
X153005341Y-115565623D01*
X152802965Y-115077042D01*
X152536163Y-114978443D01*
X151563605Y-115951000D01*
X151204395Y-115951000D01*
X150231837Y-114978443D01*
X149965035Y-115077042D01*
X149738599Y-115686582D01*
X147378616Y-115686582D01*
X147300043Y-115496892D01*
X147043559Y-115410486D01*
X146143005Y-116311040D01*
X145783795Y-116311040D01*
X144883241Y-115410486D01*
X144626757Y-115496892D01*
X144416942Y-116070376D01*
X140564869Y-116070376D01*
X140857036Y-115778719D01*
X141084517Y-115230881D01*
X145062846Y-115230881D01*
X145963400Y-116131435D01*
X146863954Y-115230881D01*
X146777548Y-114974397D01*
X146204064Y-114764582D01*
X145593940Y-114790201D01*
X145149252Y-114974397D01*
X145062846Y-115230881D01*
X141084517Y-115230881D01*
X141198011Y-114957559D01*
X141198244Y-114690163D01*
X150411443Y-114690163D01*
X150431524Y-114744500D01*
X150411443Y-114798837D01*
X150475147Y-114862541D01*
X150510042Y-114956965D01*
X150604756Y-114992150D01*
X151384000Y-115771395D01*
X152156336Y-114999058D01*
X152257958Y-114956965D01*
X152292853Y-114862541D01*
X152356557Y-114798837D01*
X152336476Y-114744500D01*
X152356557Y-114690163D01*
X152292853Y-114626459D01*
X152257958Y-114532035D01*
X152163244Y-114496850D01*
X151384000Y-113717605D01*
X150611664Y-114489942D01*
X150510042Y-114532035D01*
X150475147Y-114626459D01*
X150411443Y-114690163D01*
X141198244Y-114690163D01*
X141198787Y-114068421D01*
X140870366Y-113273582D01*
X149738599Y-113273582D01*
X149762659Y-113923377D01*
X149965035Y-114411958D01*
X150231837Y-114510557D01*
X151204395Y-113538000D01*
X151563605Y-113538000D01*
X152536163Y-114510557D01*
X152802965Y-114411958D01*
X153029401Y-113802418D01*
X153005341Y-113152623D01*
X152802965Y-112664042D01*
X152536163Y-112565443D01*
X151563605Y-113538000D01*
X151204395Y-113538000D01*
X150231837Y-112565443D01*
X149965035Y-112664042D01*
X149738599Y-113273582D01*
X140870366Y-113273582D01*
X140859245Y-113246668D01*
X140240693Y-112627035D01*
X140482312Y-112385837D01*
X150411443Y-112385837D01*
X151384000Y-113358395D01*
X152356557Y-112385837D01*
X152316185Y-112276592D01*
X152384497Y-112091743D01*
X151411940Y-111119185D01*
X150439383Y-112091743D01*
X150479755Y-112200988D01*
X150411443Y-112385837D01*
X140482312Y-112385837D01*
X140806236Y-112062479D01*
X141147211Y-111241319D01*
X141147705Y-110675162D01*
X149766539Y-110675162D01*
X149790599Y-111324957D01*
X149992975Y-111813538D01*
X150259777Y-111912137D01*
X151232335Y-110939580D01*
X151591545Y-110939580D01*
X152564103Y-111912137D01*
X152830905Y-111813538D01*
X153057341Y-111203998D01*
X153033281Y-110554203D01*
X152830905Y-110065622D01*
X152564103Y-109967023D01*
X151591545Y-110939580D01*
X151232335Y-110939580D01*
X150259777Y-109967023D01*
X149992975Y-110065622D01*
X149766539Y-110675162D01*
X141147705Y-110675162D01*
X141147987Y-110352181D01*
X140808445Y-109530428D01*
X140180279Y-108901164D01*
X139359119Y-108560189D01*
X138469981Y-108559413D01*
X137648228Y-108898955D01*
X137018964Y-109527121D01*
X136677989Y-110348281D01*
X136677213Y-111237419D01*
X127507200Y-111237419D01*
X127507200Y-106798791D01*
X144377335Y-106798791D01*
X144610532Y-107363171D01*
X144991782Y-107745088D01*
X144612049Y-108124157D01*
X144377867Y-108688130D01*
X144377335Y-109298791D01*
X144610532Y-109863171D01*
X145041957Y-110295351D01*
X145605930Y-110529533D01*
X146216591Y-110530065D01*
X146780971Y-110296868D01*
X147213151Y-109865443D01*
X147352639Y-109529518D01*
X150439383Y-109529518D01*
X150487037Y-109658468D01*
X150439383Y-109787417D01*
X151411940Y-110759975D01*
X152384497Y-109787417D01*
X152336843Y-109658468D01*
X152384497Y-109529518D01*
X151411940Y-108556960D01*
X150439383Y-109529518D01*
X147352639Y-109529518D01*
X147447333Y-109301470D01*
X147447865Y-108690809D01*
X147214668Y-108126429D01*
X147201200Y-108112937D01*
X149766539Y-108112937D01*
X149790599Y-108762732D01*
X149992975Y-109251313D01*
X150259777Y-109349912D01*
X151232335Y-108377355D01*
X151591545Y-108377355D01*
X152564103Y-109349912D01*
X152830905Y-109251313D01*
X153057341Y-108641773D01*
X153033281Y-107991978D01*
X152830905Y-107503397D01*
X152564103Y-107404798D01*
X151591545Y-108377355D01*
X151232335Y-108377355D01*
X150259777Y-107404798D01*
X149992975Y-107503397D01*
X149766539Y-108112937D01*
X147201200Y-108112937D01*
X146833418Y-107744512D01*
X147213151Y-107365443D01*
X147423302Y-106859343D01*
X150439383Y-106859343D01*
X150506984Y-107042267D01*
X150439383Y-107225192D01*
X151411940Y-108197750D01*
X152384497Y-107225192D01*
X152316896Y-107042267D01*
X152384497Y-106859343D01*
X151411940Y-105886785D01*
X150439383Y-106859343D01*
X147423302Y-106859343D01*
X147447333Y-106801470D01*
X147447865Y-106190809D01*
X147214668Y-105626429D01*
X147031322Y-105442762D01*
X149766539Y-105442762D01*
X149790599Y-106092557D01*
X149992975Y-106581138D01*
X150259777Y-106679737D01*
X151232335Y-105707180D01*
X151591545Y-105707180D01*
X152564103Y-106679737D01*
X152830905Y-106581138D01*
X153057341Y-105971598D01*
X153033281Y-105321803D01*
X152830905Y-104833222D01*
X152564103Y-104734623D01*
X151591545Y-105707180D01*
X151232335Y-105707180D01*
X150259777Y-104734623D01*
X149992975Y-104833222D01*
X149766539Y-105442762D01*
X147031322Y-105442762D01*
X146783243Y-105194249D01*
X146774228Y-105190506D01*
X146813154Y-105074959D01*
X145912600Y-104174405D01*
X145012046Y-105074959D01*
X145050807Y-105190014D01*
X145044229Y-105192732D01*
X144612049Y-105624157D01*
X144377867Y-106188130D01*
X144377335Y-106798791D01*
X127507200Y-106798791D01*
X127507200Y-102637419D01*
X136677213Y-102637419D01*
X137016755Y-103459172D01*
X137644921Y-104088436D01*
X138466081Y-104429411D01*
X139355219Y-104430187D01*
X140176972Y-104090645D01*
X140514069Y-103754136D01*
X144366142Y-103754136D01*
X144391761Y-104364260D01*
X144575957Y-104808948D01*
X144832441Y-104895354D01*
X145732995Y-103994800D01*
X146092205Y-103994800D01*
X146992759Y-104895354D01*
X147249243Y-104808948D01*
X147342146Y-104555017D01*
X150439383Y-104555017D01*
X151411940Y-105527575D01*
X152384497Y-104555017D01*
X152285898Y-104288215D01*
X151676358Y-104061779D01*
X151026563Y-104085839D01*
X150537982Y-104288215D01*
X150439383Y-104555017D01*
X147342146Y-104555017D01*
X147459058Y-104235464D01*
X147433439Y-103625340D01*
X147249243Y-103180652D01*
X146992759Y-103094246D01*
X146092205Y-103994800D01*
X145732995Y-103994800D01*
X144832441Y-103094246D01*
X144575957Y-103180652D01*
X144366142Y-103754136D01*
X140514069Y-103754136D01*
X140806236Y-103462479D01*
X141033717Y-102914641D01*
X145012046Y-102914641D01*
X145912600Y-103815195D01*
X146813154Y-102914641D01*
X146726748Y-102658157D01*
X146153264Y-102448342D01*
X145543140Y-102473961D01*
X145098452Y-102658157D01*
X145012046Y-102914641D01*
X141033717Y-102914641D01*
X141147211Y-102641319D01*
X141147987Y-101752181D01*
X141075033Y-101575617D01*
X158699200Y-101575617D01*
X158699200Y-101624383D01*
X158793940Y-102100671D01*
X159063735Y-102504448D01*
X159467512Y-102774243D01*
X159943800Y-102868983D01*
X160420088Y-102774243D01*
X160823865Y-102504448D01*
X161093660Y-102100671D01*
X161188400Y-101624383D01*
X161188400Y-101575617D01*
X165506400Y-101575617D01*
X165506400Y-101624383D01*
X165601140Y-102100671D01*
X165870935Y-102504448D01*
X166274712Y-102774243D01*
X166751000Y-102868983D01*
X167227288Y-102774243D01*
X167631065Y-102504448D01*
X167900860Y-102100671D01*
X167995600Y-101624383D01*
X167995600Y-101575617D01*
X172491400Y-101575617D01*
X172491400Y-101624383D01*
X172586140Y-102100671D01*
X172855935Y-102504448D01*
X173259712Y-102774243D01*
X173736000Y-102868983D01*
X174212288Y-102774243D01*
X174616065Y-102504448D01*
X174885860Y-102100671D01*
X174980600Y-101624383D01*
X174980600Y-101575617D01*
X174953015Y-101436938D01*
X178895893Y-101436938D01*
X178895893Y-101485704D01*
X178990633Y-101961992D01*
X179260428Y-102365769D01*
X179664205Y-102635564D01*
X180140493Y-102730304D01*
X180616781Y-102635564D01*
X181020558Y-102365769D01*
X181290353Y-101961992D01*
X181385093Y-101485704D01*
X181385093Y-101436938D01*
X185575893Y-101436938D01*
X185575893Y-101485704D01*
X185670633Y-101961992D01*
X185940428Y-102365769D01*
X186344205Y-102635564D01*
X186820493Y-102730304D01*
X187296781Y-102635564D01*
X187700558Y-102365769D01*
X187970353Y-101961992D01*
X188065093Y-101485704D01*
X188065093Y-101436938D01*
X187970353Y-100960650D01*
X187700558Y-100556873D01*
X187296781Y-100287078D01*
X186820493Y-100192338D01*
X186344205Y-100287078D01*
X185940428Y-100556873D01*
X185670633Y-100960650D01*
X185575893Y-101436938D01*
X181385093Y-101436938D01*
X181290353Y-100960650D01*
X181020558Y-100556873D01*
X180616781Y-100287078D01*
X180140493Y-100192338D01*
X179664205Y-100287078D01*
X179260428Y-100556873D01*
X178990633Y-100960650D01*
X178895893Y-101436938D01*
X174953015Y-101436938D01*
X174885860Y-101099329D01*
X174616065Y-100695552D01*
X174212288Y-100425757D01*
X173736000Y-100331017D01*
X173259712Y-100425757D01*
X172855935Y-100695552D01*
X172586140Y-101099329D01*
X172491400Y-101575617D01*
X167995600Y-101575617D01*
X167900860Y-101099329D01*
X167631065Y-100695552D01*
X167227288Y-100425757D01*
X166751000Y-100331017D01*
X166274712Y-100425757D01*
X165870935Y-100695552D01*
X165601140Y-101099329D01*
X165506400Y-101575617D01*
X161188400Y-101575617D01*
X161093660Y-101099329D01*
X160823865Y-100695552D01*
X160420088Y-100425757D01*
X159943800Y-100331017D01*
X159467512Y-100425757D01*
X159063735Y-100695552D01*
X158793940Y-101099329D01*
X158699200Y-101575617D01*
X141075033Y-101575617D01*
X140808445Y-100930428D01*
X140180279Y-100301164D01*
X139359119Y-99960189D01*
X138469981Y-99959413D01*
X137648228Y-100298955D01*
X137018964Y-100927121D01*
X136677989Y-101748281D01*
X136677213Y-102637419D01*
X127507200Y-102637419D01*
X127507200Y-99035617D01*
X158699200Y-99035617D01*
X158699200Y-99084383D01*
X158793940Y-99560671D01*
X159063735Y-99964448D01*
X159467512Y-100234243D01*
X159943800Y-100328983D01*
X160420088Y-100234243D01*
X160823865Y-99964448D01*
X161093660Y-99560671D01*
X161188400Y-99084383D01*
X161188400Y-99035617D01*
X165506400Y-99035617D01*
X165506400Y-99084383D01*
X165601140Y-99560671D01*
X165870935Y-99964448D01*
X166274712Y-100234243D01*
X166751000Y-100328983D01*
X167227288Y-100234243D01*
X167631065Y-99964448D01*
X167900860Y-99560671D01*
X167995600Y-99084383D01*
X167995600Y-99035617D01*
X172491400Y-99035617D01*
X172491400Y-99084383D01*
X172586140Y-99560671D01*
X172855935Y-99964448D01*
X173259712Y-100234243D01*
X173736000Y-100328983D01*
X174212288Y-100234243D01*
X174616065Y-99964448D01*
X174885860Y-99560671D01*
X174980600Y-99084383D01*
X174980600Y-99035617D01*
X174953015Y-98896938D01*
X178895893Y-98896938D01*
X178895893Y-98945704D01*
X178990633Y-99421992D01*
X179260428Y-99825769D01*
X179664205Y-100095564D01*
X180140493Y-100190304D01*
X180616781Y-100095564D01*
X181020558Y-99825769D01*
X181290353Y-99421992D01*
X181385093Y-98945704D01*
X181385093Y-98896938D01*
X185575893Y-98896938D01*
X185575893Y-98945704D01*
X185670633Y-99421992D01*
X185940428Y-99825769D01*
X186344205Y-100095564D01*
X186820493Y-100190304D01*
X187296781Y-100095564D01*
X187700558Y-99825769D01*
X187970353Y-99421992D01*
X188065093Y-98945704D01*
X188065093Y-98896938D01*
X187970353Y-98420650D01*
X187700558Y-98016873D01*
X187296781Y-97747078D01*
X186820493Y-97652338D01*
X186344205Y-97747078D01*
X185940428Y-98016873D01*
X185670633Y-98420650D01*
X185575893Y-98896938D01*
X181385093Y-98896938D01*
X181290353Y-98420650D01*
X181020558Y-98016873D01*
X180616781Y-97747078D01*
X180140493Y-97652338D01*
X179664205Y-97747078D01*
X179260428Y-98016873D01*
X178990633Y-98420650D01*
X178895893Y-98896938D01*
X174953015Y-98896938D01*
X174885860Y-98559329D01*
X174616065Y-98155552D01*
X174212288Y-97885757D01*
X173736000Y-97791017D01*
X173259712Y-97885757D01*
X172855935Y-98155552D01*
X172586140Y-98559329D01*
X172491400Y-99035617D01*
X167995600Y-99035617D01*
X167900860Y-98559329D01*
X167631065Y-98155552D01*
X167227288Y-97885757D01*
X166751000Y-97791017D01*
X166274712Y-97885757D01*
X165870935Y-98155552D01*
X165601140Y-98559329D01*
X165506400Y-99035617D01*
X161188400Y-99035617D01*
X161093660Y-98559329D01*
X160823865Y-98155552D01*
X160420088Y-97885757D01*
X159943800Y-97791017D01*
X159467512Y-97885757D01*
X159063735Y-98155552D01*
X158793940Y-98559329D01*
X158699200Y-99035617D01*
X127507200Y-99035617D01*
X127507200Y-95136322D01*
X140862952Y-95136322D01*
X141058206Y-95608873D01*
X141330300Y-95881442D01*
X141059476Y-96151794D01*
X140863398Y-96624002D01*
X140862952Y-97135302D01*
X141058206Y-97607853D01*
X141419434Y-97969712D01*
X141891642Y-98165790D01*
X142402942Y-98166236D01*
X142875493Y-97970982D01*
X143237352Y-97609754D01*
X143433430Y-97137546D01*
X143433876Y-96626246D01*
X143238622Y-96153695D01*
X142966528Y-95881126D01*
X143237352Y-95610774D01*
X143433430Y-95138566D01*
X143433876Y-94627266D01*
X143238622Y-94154715D01*
X143154494Y-94070440D01*
X143158353Y-94068841D01*
X143336981Y-93890212D01*
X143433654Y-93656823D01*
X143433654Y-93166024D01*
X143274904Y-93007274D01*
X142275414Y-93007274D01*
X142275414Y-93027274D01*
X142021414Y-93027274D01*
X142021414Y-93007274D01*
X141021924Y-93007274D01*
X140863174Y-93166024D01*
X140863174Y-93656823D01*
X140959847Y-93890212D01*
X141138475Y-94068841D01*
X141142094Y-94070340D01*
X141059476Y-94152814D01*
X140863398Y-94625022D01*
X140862952Y-95136322D01*
X127507200Y-95136322D01*
X127507200Y-91135822D01*
X140862952Y-91135822D01*
X141058206Y-91608373D01*
X141140541Y-91690851D01*
X141138475Y-91691707D01*
X140959847Y-91870336D01*
X140863174Y-92103725D01*
X140863174Y-92594524D01*
X141021924Y-92753274D01*
X142021414Y-92753274D01*
X142021414Y-92733274D01*
X142275414Y-92733274D01*
X142275414Y-92753274D01*
X143274904Y-92753274D01*
X143433654Y-92594524D01*
X143433654Y-92103725D01*
X143336981Y-91870336D01*
X143158353Y-91691707D01*
X143156532Y-91690953D01*
X143237352Y-91610274D01*
X143310757Y-91433494D01*
X143815786Y-91433494D01*
X144064098Y-92034455D01*
X144425546Y-92396534D01*
X144070794Y-92750667D01*
X143821434Y-93351193D01*
X143820866Y-94001434D01*
X144069178Y-94602395D01*
X144458570Y-94992467D01*
X144070794Y-95379567D01*
X143821434Y-95980093D01*
X143820866Y-96630334D01*
X144069178Y-97231295D01*
X144528567Y-97691486D01*
X145129093Y-97940846D01*
X145779334Y-97941414D01*
X146380295Y-97693102D01*
X146840486Y-97233713D01*
X147089846Y-96633187D01*
X147090414Y-95982946D01*
X146842102Y-95381985D01*
X146452710Y-94991913D01*
X146840486Y-94604813D01*
X147089846Y-94004287D01*
X147090414Y-93354046D01*
X146842102Y-92753085D01*
X146480654Y-92391006D01*
X146835406Y-92036873D01*
X147084766Y-91436347D01*
X147084768Y-91433494D01*
X153975786Y-91433494D01*
X154224098Y-92034455D01*
X154585546Y-92396534D01*
X154230794Y-92750667D01*
X153981434Y-93351193D01*
X153980866Y-94001434D01*
X154229178Y-94602395D01*
X154618570Y-94992467D01*
X154230794Y-95379567D01*
X153981434Y-95980093D01*
X153980866Y-96630334D01*
X154229178Y-97231295D01*
X154688567Y-97691486D01*
X155289093Y-97940846D01*
X155939334Y-97941414D01*
X156540295Y-97693102D01*
X157000486Y-97233713D01*
X157249846Y-96633187D01*
X157250414Y-95982946D01*
X157002102Y-95381985D01*
X156612710Y-94991913D01*
X157000486Y-94604813D01*
X157249846Y-94004287D01*
X157250414Y-93354046D01*
X157002102Y-92753085D01*
X156640654Y-92391006D01*
X156995406Y-92036873D01*
X157244766Y-91436347D01*
X157245334Y-90786106D01*
X156997022Y-90185145D01*
X156537633Y-89724954D01*
X155937107Y-89475594D01*
X155286866Y-89475026D01*
X154685905Y-89723338D01*
X154225714Y-90182727D01*
X153976354Y-90783253D01*
X153975786Y-91433494D01*
X147084768Y-91433494D01*
X147085334Y-90786106D01*
X146837022Y-90185145D01*
X146377633Y-89724954D01*
X145777107Y-89475594D01*
X145126866Y-89475026D01*
X144525905Y-89723338D01*
X144065714Y-90182727D01*
X143816354Y-90783253D01*
X143815786Y-91433494D01*
X143310757Y-91433494D01*
X143433430Y-91138066D01*
X143433876Y-90626766D01*
X143238622Y-90154215D01*
X142877394Y-89792356D01*
X142405186Y-89596278D01*
X141893886Y-89595832D01*
X141421335Y-89791086D01*
X141059476Y-90152314D01*
X140863398Y-90624522D01*
X140862952Y-91135822D01*
X127507200Y-91135822D01*
X127507200Y-89691852D01*
X127789833Y-89691852D01*
X127888496Y-89958707D01*
X128498221Y-90185228D01*
X129148220Y-90161176D01*
X129637024Y-89958707D01*
X129735687Y-89691852D01*
X128762760Y-88718925D01*
X127789833Y-89691852D01*
X127507200Y-89691852D01*
X127507200Y-89474155D01*
X127610228Y-89512247D01*
X128583155Y-88539320D01*
X128942365Y-88539320D01*
X129915292Y-89512247D01*
X130182147Y-89413584D01*
X130386653Y-88863115D01*
X134727156Y-88863115D01*
X134975546Y-89464263D01*
X135435077Y-89924598D01*
X136035792Y-90174036D01*
X136686235Y-90174604D01*
X137287383Y-89926214D01*
X137747718Y-89466683D01*
X137997156Y-88865968D01*
X137997724Y-88215525D01*
X137749334Y-87614377D01*
X137289803Y-87154042D01*
X136689088Y-86904604D01*
X136038645Y-86904036D01*
X135437497Y-87152426D01*
X134977162Y-87611957D01*
X134727724Y-88212672D01*
X134727156Y-88863115D01*
X130386653Y-88863115D01*
X130408668Y-88803859D01*
X130384616Y-88153860D01*
X130182147Y-87665056D01*
X129915292Y-87566393D01*
X128942365Y-88539320D01*
X128583155Y-88539320D01*
X127610228Y-87566393D01*
X127507200Y-87604485D01*
X127507200Y-87386788D01*
X127789833Y-87386788D01*
X128762760Y-88359715D01*
X129735687Y-87386788D01*
X129637024Y-87119933D01*
X129027299Y-86893412D01*
X128377300Y-86917464D01*
X127888496Y-87119933D01*
X127789833Y-87386788D01*
X127507200Y-87386788D01*
X127507200Y-84962200D01*
X141311472Y-84962200D01*
X140942060Y-85114838D01*
X140942060Y-85114838D01*
G37*
X140942060Y-85114838D02*
X140316315Y-85739491D01*
X139977247Y-86556058D01*
X139976475Y-87440223D01*
X140314118Y-88257380D01*
X140938771Y-88883125D01*
X141755338Y-89222193D01*
X142639503Y-89222965D01*
X143456660Y-88885322D01*
X144082405Y-88260669D01*
X144365178Y-87579676D01*
X144464700Y-88080010D01*
X144767532Y-88533229D01*
X145220751Y-88836061D01*
X145755360Y-88942401D01*
X146289969Y-88836061D01*
X146743188Y-88533229D01*
X147025360Y-88110930D01*
X147307532Y-88533229D01*
X147760751Y-88836061D01*
X148295360Y-88942401D01*
X148829969Y-88836061D01*
X149283188Y-88533229D01*
X149565360Y-88110930D01*
X149847532Y-88533229D01*
X150300751Y-88836061D01*
X150835360Y-88942401D01*
X151369969Y-88836061D01*
X151823188Y-88533229D01*
X152114690Y-88096967D01*
X152133301Y-88160021D01*
X152477334Y-88585710D01*
X152958083Y-88847340D01*
X153032290Y-88862300D01*
X153248360Y-88739800D01*
X153248360Y-87127080D01*
X153228360Y-87127080D01*
X153228360Y-86873080D01*
X153248360Y-86873080D01*
X153248360Y-85260360D01*
X153502360Y-85260360D01*
X153502360Y-86873080D01*
X153522360Y-86873080D01*
X153522360Y-87127080D01*
X153502360Y-87127080D01*
X153502360Y-88739800D01*
X153718430Y-88862300D01*
X153792637Y-88847340D01*
X154273386Y-88585710D01*
X154617419Y-88160021D01*
X154636030Y-88096967D01*
X154927532Y-88533229D01*
X155380751Y-88836061D01*
X155915360Y-88942401D01*
X156449969Y-88836061D01*
X156903188Y-88533229D01*
X157185360Y-88110930D01*
X157467532Y-88533229D01*
X157920751Y-88836061D01*
X158455360Y-88942401D01*
X158989969Y-88836061D01*
X159443188Y-88533229D01*
X159725360Y-88110930D01*
X160007532Y-88533229D01*
X160460751Y-88836061D01*
X160995360Y-88942401D01*
X161529969Y-88836061D01*
X161983188Y-88533229D01*
X162265360Y-88110930D01*
X162547532Y-88533229D01*
X163000751Y-88836061D01*
X163535360Y-88942401D01*
X164069969Y-88836061D01*
X164523188Y-88533229D01*
X164805360Y-88110930D01*
X165087532Y-88533229D01*
X165540751Y-88836061D01*
X166075360Y-88942401D01*
X166609969Y-88836061D01*
X167063188Y-88533229D01*
X167345360Y-88110930D01*
X167627532Y-88533229D01*
X168080751Y-88836061D01*
X168615360Y-88942401D01*
X169149969Y-88836061D01*
X169603188Y-88533229D01*
X169906020Y-88080010D01*
X170012360Y-87545401D01*
X170012360Y-86454759D01*
X171282360Y-86454759D01*
X171282360Y-87545401D01*
X171388700Y-88080010D01*
X171691532Y-88533229D01*
X172144751Y-88836061D01*
X172679360Y-88942401D01*
X173213969Y-88836061D01*
X173667188Y-88533229D01*
X173949360Y-88110930D01*
X174231532Y-88533229D01*
X174684751Y-88836061D01*
X175219360Y-88942401D01*
X175753969Y-88836061D01*
X176207188Y-88533229D01*
X176489360Y-88110930D01*
X176771532Y-88533229D01*
X177224751Y-88836061D01*
X177759360Y-88942401D01*
X178293969Y-88836061D01*
X178747188Y-88533229D01*
X179029360Y-88110930D01*
X179311532Y-88533229D01*
X179764751Y-88836061D01*
X180299360Y-88942401D01*
X180833969Y-88836061D01*
X181287188Y-88533229D01*
X181569360Y-88110930D01*
X181851532Y-88533229D01*
X182304751Y-88836061D01*
X182839360Y-88942401D01*
X183373969Y-88836061D01*
X183827188Y-88533229D01*
X184109360Y-88110930D01*
X184391532Y-88533229D01*
X184844751Y-88836061D01*
X185379360Y-88942401D01*
X185913969Y-88836061D01*
X186367188Y-88533229D01*
X186649360Y-88110930D01*
X186931532Y-88533229D01*
X187384751Y-88836061D01*
X187919360Y-88942401D01*
X188453969Y-88836061D01*
X188907188Y-88533229D01*
X189189360Y-88110930D01*
X189471532Y-88533229D01*
X189924751Y-88836061D01*
X190459360Y-88942401D01*
X190993969Y-88836061D01*
X191447188Y-88533229D01*
X191750020Y-88080010D01*
X191856360Y-87545401D01*
X191856360Y-86454759D01*
X191750020Y-85920150D01*
X191447188Y-85466931D01*
X190993969Y-85164099D01*
X190459360Y-85057759D01*
X189924751Y-85164099D01*
X189471532Y-85466931D01*
X189189360Y-85889230D01*
X188907188Y-85466931D01*
X188453969Y-85164099D01*
X187919360Y-85057759D01*
X187384751Y-85164099D01*
X186931532Y-85466931D01*
X186649360Y-85889230D01*
X186367188Y-85466931D01*
X185913969Y-85164099D01*
X185379360Y-85057759D01*
X184844751Y-85164099D01*
X184391532Y-85466931D01*
X184109360Y-85889230D01*
X183827188Y-85466931D01*
X183373969Y-85164099D01*
X182839360Y-85057759D01*
X182304751Y-85164099D01*
X181851532Y-85466931D01*
X181569360Y-85889230D01*
X181287188Y-85466931D01*
X180833969Y-85164099D01*
X180299360Y-85057759D01*
X179764751Y-85164099D01*
X179311532Y-85466931D01*
X179029360Y-85889230D01*
X178747188Y-85466931D01*
X178293969Y-85164099D01*
X177759360Y-85057759D01*
X177224751Y-85164099D01*
X176771532Y-85466931D01*
X176489360Y-85889230D01*
X176207188Y-85466931D01*
X175753969Y-85164099D01*
X175219360Y-85057759D01*
X174684751Y-85164099D01*
X174231532Y-85466931D01*
X173949360Y-85889230D01*
X173667188Y-85466931D01*
X173213969Y-85164099D01*
X172679360Y-85057759D01*
X172144751Y-85164099D01*
X171691532Y-85466931D01*
X171388700Y-85920150D01*
X171282360Y-86454759D01*
X170012360Y-86454759D01*
X169906020Y-85920150D01*
X169603188Y-85466931D01*
X169149969Y-85164099D01*
X168615360Y-85057759D01*
X168080751Y-85164099D01*
X167627532Y-85466931D01*
X167345360Y-85889230D01*
X167063188Y-85466931D01*
X166609969Y-85164099D01*
X166075360Y-85057759D01*
X165540751Y-85164099D01*
X165087532Y-85466931D01*
X164805360Y-85889230D01*
X164523188Y-85466931D01*
X164069969Y-85164099D01*
X163535360Y-85057759D01*
X163000751Y-85164099D01*
X162547532Y-85466931D01*
X162265360Y-85889230D01*
X161983188Y-85466931D01*
X161529969Y-85164099D01*
X160995360Y-85057759D01*
X160460751Y-85164099D01*
X160007532Y-85466931D01*
X159725360Y-85889230D01*
X159443188Y-85466931D01*
X158989969Y-85164099D01*
X158455360Y-85057759D01*
X157920751Y-85164099D01*
X157467532Y-85466931D01*
X157185360Y-85889230D01*
X156903188Y-85466931D01*
X156449969Y-85164099D01*
X155915360Y-85057759D01*
X155380751Y-85164099D01*
X154927532Y-85466931D01*
X154636030Y-85903193D01*
X154617419Y-85840139D01*
X154273386Y-85414450D01*
X153792637Y-85152820D01*
X153718430Y-85137860D01*
X153502360Y-85260360D01*
X153248360Y-85260360D01*
X153032290Y-85137860D01*
X152958083Y-85152820D01*
X152477334Y-85414450D01*
X152133301Y-85840139D01*
X152114690Y-85903193D01*
X151823188Y-85466931D01*
X151369969Y-85164099D01*
X150835360Y-85057759D01*
X150300751Y-85164099D01*
X149847532Y-85466931D01*
X149565360Y-85889230D01*
X149283188Y-85466931D01*
X148829969Y-85164099D01*
X148295360Y-85057759D01*
X147760751Y-85164099D01*
X147307532Y-85466931D01*
X147025360Y-85889230D01*
X146743188Y-85466931D01*
X146289969Y-85164099D01*
X145755360Y-85057759D01*
X145220751Y-85164099D01*
X144767532Y-85466931D01*
X144464700Y-85920150D01*
X144364998Y-86421388D01*
X144084602Y-85742780D01*
X143459949Y-85117035D01*
X143087065Y-84962200D01*
X191511664Y-84962200D01*
X192482000Y-85932536D01*
X192482000Y-97078800D01*
X192534143Y-97340938D01*
X192682632Y-97563168D01*
X194996600Y-99877136D01*
X194996600Y-101253835D01*
X194884602Y-100982780D01*
X194259949Y-100357035D01*
X193443382Y-100017967D01*
X192559217Y-100017195D01*
X191742060Y-100354838D01*
X191116315Y-100979491D01*
X190777247Y-101796058D01*
X190776475Y-102680223D01*
X191114118Y-103497380D01*
X191738771Y-104123125D01*
X192555338Y-104462193D01*
X193439503Y-104462965D01*
X194256660Y-104125322D01*
X194882405Y-103500669D01*
X194996600Y-103225657D01*
X194996600Y-129193835D01*
X194884602Y-128922780D01*
X194259949Y-128297035D01*
X193443382Y-127957967D01*
X192559217Y-127957195D01*
X191742060Y-128294838D01*
X191116315Y-128919491D01*
X190777247Y-129736058D01*
X190776475Y-130620223D01*
X191114118Y-131437380D01*
X191738771Y-132063125D01*
X192555338Y-132402193D01*
X193439503Y-132402965D01*
X194256660Y-132065322D01*
X194882405Y-131440669D01*
X194996600Y-131165657D01*
X194996600Y-132482064D01*
X192682632Y-134796032D01*
X192534143Y-135018262D01*
X192482000Y-135280400D01*
X192482000Y-137237000D01*
X141964783Y-137237000D01*
X142186660Y-137145322D01*
X142812405Y-136520669D01*
X143151473Y-135704102D01*
X143152245Y-134819937D01*
X142814602Y-134002780D01*
X142189949Y-133377035D01*
X141373382Y-133037967D01*
X140489217Y-133037195D01*
X139672060Y-133374838D01*
X139046315Y-133999491D01*
X138707247Y-134816058D01*
X138706475Y-135700223D01*
X139044118Y-136517380D01*
X139668771Y-137143125D01*
X139894847Y-137237000D01*
X135763032Y-137237000D01*
X135918578Y-137206060D01*
X136371797Y-136903228D01*
X136674629Y-136450009D01*
X136780969Y-135915400D01*
X136674629Y-135380791D01*
X136371797Y-134927572D01*
X135918578Y-134624740D01*
X135383969Y-134518400D01*
X135329231Y-134518400D01*
X134794622Y-134624740D01*
X134341403Y-134927572D01*
X134038571Y-135380791D01*
X133932231Y-135915400D01*
X134038571Y-136450009D01*
X134341403Y-136903228D01*
X134794622Y-137206060D01*
X134950168Y-137237000D01*
X129260632Y-137237000D01*
X129416178Y-137206060D01*
X129869397Y-136903228D01*
X130172229Y-136450009D01*
X130278569Y-135915400D01*
X130172229Y-135380791D01*
X129869397Y-134927572D01*
X129416178Y-134624740D01*
X128881569Y-134518400D01*
X128826831Y-134518400D01*
X128292222Y-134624740D01*
X127839003Y-134927572D01*
X127536171Y-135380791D01*
X127507200Y-135526439D01*
X127507200Y-131754702D01*
X127654026Y-132109197D01*
X128019001Y-132514058D01*
X128511128Y-132748431D01*
X128727200Y-132626676D01*
X128727200Y-131521200D01*
X128981200Y-131521200D01*
X128981200Y-132626676D01*
X129197272Y-132748431D01*
X129689399Y-132514058D01*
X130054374Y-132109197D01*
X130208420Y-131737270D01*
X134002380Y-131737270D01*
X134156426Y-132109197D01*
X134521401Y-132514058D01*
X135013528Y-132748431D01*
X135229600Y-132626676D01*
X135229600Y-131521200D01*
X135483600Y-131521200D01*
X135483600Y-132626676D01*
X135699672Y-132748431D01*
X136191799Y-132514058D01*
X136556774Y-132109197D01*
X136710820Y-131737270D01*
X136588320Y-131521200D01*
X135483600Y-131521200D01*
X135229600Y-131521200D01*
X134124880Y-131521200D01*
X134002380Y-131737270D01*
X130208420Y-131737270D01*
X130085920Y-131521200D01*
X128981200Y-131521200D01*
X128727200Y-131521200D01*
X128707200Y-131521200D01*
X128707200Y-131267200D01*
X128727200Y-131267200D01*
X128727200Y-130161724D01*
X128981200Y-130161724D01*
X128981200Y-131267200D01*
X130085920Y-131267200D01*
X130208420Y-131051130D01*
X134002380Y-131051130D01*
X134124880Y-131267200D01*
X135229600Y-131267200D01*
X135229600Y-130161724D01*
X135483600Y-130161724D01*
X135483600Y-131267200D01*
X136588320Y-131267200D01*
X136617686Y-131215403D01*
X136924043Y-131215403D01*
X137022642Y-131482205D01*
X137632182Y-131708641D01*
X138281977Y-131684581D01*
X138770558Y-131482205D01*
X138869157Y-131215403D01*
X137896600Y-130242845D01*
X136924043Y-131215403D01*
X136617686Y-131215403D01*
X136710820Y-131051130D01*
X136697246Y-131018357D01*
X136744437Y-131035797D01*
X137716995Y-130063240D01*
X138076205Y-130063240D01*
X139048763Y-131035797D01*
X139315565Y-130937198D01*
X139519980Y-130386934D01*
X146421826Y-130386934D01*
X146670138Y-130987895D01*
X147129527Y-131448086D01*
X147730053Y-131697446D01*
X148380294Y-131698014D01*
X148981255Y-131449702D01*
X149441446Y-130990313D01*
X149690806Y-130389787D01*
X149691374Y-129739546D01*
X149443062Y-129138585D01*
X149054913Y-128749759D01*
X149471926Y-128333473D01*
X149721286Y-127732947D01*
X149721854Y-127082706D01*
X149473542Y-126481745D01*
X149014153Y-126021554D01*
X148413627Y-125772194D01*
X147763386Y-125771626D01*
X147162425Y-126019938D01*
X146702234Y-126479327D01*
X146452874Y-127079853D01*
X146452306Y-127730094D01*
X146700618Y-128331055D01*
X147088767Y-128719881D01*
X146671754Y-129136167D01*
X146422394Y-129736693D01*
X146421826Y-130386934D01*
X139519980Y-130386934D01*
X139542001Y-130327658D01*
X139517941Y-129677863D01*
X139315565Y-129189282D01*
X139048763Y-129090683D01*
X138076205Y-130063240D01*
X137716995Y-130063240D01*
X136744437Y-129090683D01*
X136477635Y-129189282D01*
X136251199Y-129798822D01*
X136272105Y-130363424D01*
X136191799Y-130274342D01*
X135699672Y-130039969D01*
X135483600Y-130161724D01*
X135229600Y-130161724D01*
X135013528Y-130039969D01*
X134521401Y-130274342D01*
X134156426Y-130679203D01*
X134002380Y-131051130D01*
X130208420Y-131051130D01*
X130054374Y-130679203D01*
X129689399Y-130274342D01*
X129197272Y-130039969D01*
X128981200Y-130161724D01*
X128727200Y-130161724D01*
X128511128Y-130039969D01*
X128019001Y-130274342D01*
X127654026Y-130679203D01*
X127507200Y-131033698D01*
X127507200Y-127730094D01*
X136292306Y-127730094D01*
X136540618Y-128331055D01*
X136976887Y-128768085D01*
X136924043Y-128911077D01*
X137896600Y-129883635D01*
X138869157Y-128911077D01*
X138828949Y-128802277D01*
X138851735Y-128792862D01*
X139311926Y-128333473D01*
X139561286Y-127732947D01*
X139561854Y-127082706D01*
X139313542Y-126481745D01*
X138854153Y-126021554D01*
X138253627Y-125772194D01*
X137603386Y-125771626D01*
X137002425Y-126019938D01*
X136542234Y-126479327D01*
X136292874Y-127079853D01*
X136292306Y-127730094D01*
X127507200Y-127730094D01*
X127507200Y-123553659D01*
X136728013Y-123553659D01*
X137067555Y-124375412D01*
X137695721Y-125004676D01*
X138516881Y-125345651D01*
X139406019Y-125346427D01*
X140227772Y-125006885D01*
X140857036Y-124378719D01*
X141198011Y-123557559D01*
X141198787Y-122668421D01*
X140859245Y-121846668D01*
X140231079Y-121217404D01*
X139409919Y-120876429D01*
X138520781Y-120875653D01*
X137699028Y-121215195D01*
X137069764Y-121843361D01*
X136728789Y-122664521D01*
X136728013Y-123553659D01*
X127507200Y-123553659D01*
X127507200Y-119115031D01*
X144428135Y-119115031D01*
X144661332Y-119679411D01*
X145042582Y-120061328D01*
X144662849Y-120440397D01*
X144428667Y-121004370D01*
X144428135Y-121615031D01*
X144661332Y-122179411D01*
X145092757Y-122611591D01*
X145656730Y-122845773D01*
X146267391Y-122846305D01*
X146268652Y-122845784D01*
X146473454Y-122982629D01*
X146813660Y-123050300D01*
X161796268Y-123050300D01*
X161862303Y-123149128D01*
X162315522Y-123451960D01*
X162850131Y-123558300D01*
X162904869Y-123558300D01*
X162998617Y-123539653D01*
X164170360Y-124711396D01*
X164170360Y-126110223D01*
X163892697Y-125694672D01*
X163439478Y-125391840D01*
X162904869Y-125285500D01*
X162850131Y-125285500D01*
X162315522Y-125391840D01*
X161862303Y-125694672D01*
X161559471Y-126147891D01*
X161453131Y-126682500D01*
X161559471Y-127217109D01*
X161862303Y-127670328D01*
X162315522Y-127973160D01*
X162850131Y-128079500D01*
X162904869Y-128079500D01*
X163439478Y-127973160D01*
X163892697Y-127670328D01*
X164170360Y-127254777D01*
X164170360Y-133660896D01*
X164071532Y-133726931D01*
X163789360Y-134149230D01*
X163507188Y-133726931D01*
X163053969Y-133424099D01*
X162519360Y-133317759D01*
X161984751Y-133424099D01*
X161531532Y-133726931D01*
X161249360Y-134149230D01*
X160967188Y-133726931D01*
X160513969Y-133424099D01*
X159979360Y-133317759D01*
X159444751Y-133424099D01*
X158991532Y-133726931D01*
X158709360Y-134149230D01*
X158427188Y-133726931D01*
X157973969Y-133424099D01*
X157439360Y-133317759D01*
X156904751Y-133424099D01*
X156451532Y-133726931D01*
X156169360Y-134149230D01*
X155887188Y-133726931D01*
X155433969Y-133424099D01*
X154899360Y-133317759D01*
X154364751Y-133424099D01*
X153911532Y-133726931D01*
X153608700Y-134180150D01*
X153502360Y-134714759D01*
X153502360Y-135805401D01*
X153608700Y-136340010D01*
X153911532Y-136793229D01*
X154364751Y-137096061D01*
X154899360Y-137202401D01*
X155433969Y-137096061D01*
X155887188Y-136793229D01*
X156169360Y-136370930D01*
X156451532Y-136793229D01*
X156904751Y-137096061D01*
X157439360Y-137202401D01*
X157973969Y-137096061D01*
X158427188Y-136793229D01*
X158709360Y-136370930D01*
X158991532Y-136793229D01*
X159444751Y-137096061D01*
X159979360Y-137202401D01*
X160513969Y-137096061D01*
X160967188Y-136793229D01*
X161249360Y-136370930D01*
X161531532Y-136793229D01*
X161984751Y-137096061D01*
X162519360Y-137202401D01*
X163053969Y-137096061D01*
X163507188Y-136793229D01*
X163789360Y-136370930D01*
X164071532Y-136793229D01*
X164524751Y-137096061D01*
X165059360Y-137202401D01*
X165593969Y-137096061D01*
X166047188Y-136793229D01*
X166338690Y-136356967D01*
X166357301Y-136420021D01*
X166701334Y-136845710D01*
X167182083Y-137107340D01*
X167256290Y-137122300D01*
X167472360Y-136999800D01*
X167472360Y-135387080D01*
X167726360Y-135387080D01*
X167726360Y-136999800D01*
X167942430Y-137122300D01*
X168016637Y-137107340D01*
X168497386Y-136845710D01*
X168841419Y-136420021D01*
X168869360Y-136325357D01*
X168897301Y-136420021D01*
X169241334Y-136845710D01*
X169722083Y-137107340D01*
X169796290Y-137122300D01*
X170012360Y-136999800D01*
X170012360Y-135387080D01*
X167726360Y-135387080D01*
X167472360Y-135387080D01*
X167452360Y-135387080D01*
X167452360Y-135133080D01*
X167472360Y-135133080D01*
X167472360Y-133520360D01*
X167726360Y-133520360D01*
X167726360Y-135133080D01*
X170012360Y-135133080D01*
X170012360Y-133520360D01*
X170266360Y-133520360D01*
X170266360Y-135133080D01*
X170286360Y-135133080D01*
X170286360Y-135387080D01*
X170266360Y-135387080D01*
X170266360Y-136999800D01*
X170482430Y-137122300D01*
X170556637Y-137107340D01*
X171037386Y-136845710D01*
X171381419Y-136420021D01*
X171400030Y-136356967D01*
X171691532Y-136793229D01*
X172144751Y-137096061D01*
X172679360Y-137202401D01*
X173213969Y-137096061D01*
X173667188Y-136793229D01*
X173970020Y-136340010D01*
X174076360Y-135805401D01*
X174076360Y-134714759D01*
X176362360Y-134714759D01*
X176362360Y-135805401D01*
X176468700Y-136340010D01*
X176771532Y-136793229D01*
X177224751Y-137096061D01*
X177759360Y-137202401D01*
X178293969Y-137096061D01*
X178747188Y-136793229D01*
X179029360Y-136370930D01*
X179311532Y-136793229D01*
X179764751Y-137096061D01*
X180299360Y-137202401D01*
X180833969Y-137096061D01*
X181287188Y-136793229D01*
X181569360Y-136370930D01*
X181851532Y-136793229D01*
X182304751Y-137096061D01*
X182839360Y-137202401D01*
X183373969Y-137096061D01*
X183827188Y-136793229D01*
X184109360Y-136370930D01*
X184391532Y-136793229D01*
X184844751Y-137096061D01*
X185379360Y-137202401D01*
X185913969Y-137096061D01*
X186367188Y-136793229D01*
X186649360Y-136370930D01*
X186931532Y-136793229D01*
X187384751Y-137096061D01*
X187919360Y-137202401D01*
X188453969Y-137096061D01*
X188907188Y-136793229D01*
X189189360Y-136370930D01*
X189471532Y-136793229D01*
X189924751Y-137096061D01*
X190459360Y-137202401D01*
X190993969Y-137096061D01*
X191447188Y-136793229D01*
X191750020Y-136340010D01*
X191856360Y-135805401D01*
X191856360Y-134714759D01*
X191750020Y-134180150D01*
X191447188Y-133726931D01*
X190993969Y-133424099D01*
X190459360Y-133317759D01*
X189924751Y-133424099D01*
X189471532Y-133726931D01*
X189189360Y-134149230D01*
X188907188Y-133726931D01*
X188453969Y-133424099D01*
X187919360Y-133317759D01*
X187384751Y-133424099D01*
X186931532Y-133726931D01*
X186649360Y-134149230D01*
X186367188Y-133726931D01*
X185913969Y-133424099D01*
X185379360Y-133317759D01*
X184844751Y-133424099D01*
X184391532Y-133726931D01*
X184109360Y-134149230D01*
X183827188Y-133726931D01*
X183373969Y-133424099D01*
X182839360Y-133317759D01*
X182304751Y-133424099D01*
X181851532Y-133726931D01*
X181569360Y-134149230D01*
X181287188Y-133726931D01*
X180833969Y-133424099D01*
X180299360Y-133317759D01*
X179764751Y-133424099D01*
X179311532Y-133726931D01*
X179029360Y-134149230D01*
X178747188Y-133726931D01*
X178293969Y-133424099D01*
X177759360Y-133317759D01*
X177224751Y-133424099D01*
X176771532Y-133726931D01*
X176468700Y-134180150D01*
X176362360Y-134714759D01*
X174076360Y-134714759D01*
X173970020Y-134180150D01*
X173667188Y-133726931D01*
X173213969Y-133424099D01*
X172679360Y-133317759D01*
X172144751Y-133424099D01*
X171691532Y-133726931D01*
X171400030Y-134163193D01*
X171381419Y-134100139D01*
X171037386Y-133674450D01*
X170556637Y-133412820D01*
X170482430Y-133397860D01*
X170266360Y-133520360D01*
X170012360Y-133520360D01*
X169796290Y-133397860D01*
X169722083Y-133412820D01*
X169241334Y-133674450D01*
X168897301Y-134100139D01*
X168869360Y-134194803D01*
X168841419Y-134100139D01*
X168497386Y-133674450D01*
X168016637Y-133412820D01*
X167942430Y-133397860D01*
X167726360Y-133520360D01*
X167472360Y-133520360D01*
X167256290Y-133397860D01*
X167182083Y-133412820D01*
X166701334Y-133674450D01*
X166357301Y-134100139D01*
X166338690Y-134163193D01*
X166047188Y-133726931D01*
X165948360Y-133660896D01*
X165948360Y-126682500D01*
X167955531Y-126682500D01*
X168061871Y-127217109D01*
X168364703Y-127670328D01*
X168817922Y-127973160D01*
X169352531Y-128079500D01*
X169407269Y-128079500D01*
X169941878Y-127973160D01*
X170395097Y-127670328D01*
X170529250Y-127469554D01*
X170663403Y-127670328D01*
X171116622Y-127973160D01*
X171651231Y-128079500D01*
X171705969Y-128079500D01*
X172240578Y-127973160D01*
X172693797Y-127670328D01*
X172996629Y-127217109D01*
X173102969Y-126682500D01*
X176756631Y-126682500D01*
X176862971Y-127217109D01*
X177165803Y-127670328D01*
X177619022Y-127973160D01*
X178153631Y-128079500D01*
X178208369Y-128079500D01*
X178742978Y-127973160D01*
X179196197Y-127670328D01*
X179499029Y-127217109D01*
X179577581Y-126822200D01*
X179779231Y-126822200D01*
X179885571Y-127356809D01*
X180188403Y-127810028D01*
X180641622Y-128112860D01*
X181176231Y-128219200D01*
X181230969Y-128219200D01*
X181765578Y-128112860D01*
X182218797Y-127810028D01*
X182521629Y-127356809D01*
X182627969Y-126822200D01*
X186281631Y-126822200D01*
X186387971Y-127356809D01*
X186690803Y-127810028D01*
X187144022Y-128112860D01*
X187678631Y-128219200D01*
X187733369Y-128219200D01*
X188267978Y-128112860D01*
X188721197Y-127810028D01*
X189024029Y-127356809D01*
X189130369Y-126822200D01*
X189024029Y-126287591D01*
X188721197Y-125834372D01*
X188267978Y-125531540D01*
X187733369Y-125425200D01*
X187678631Y-125425200D01*
X187144022Y-125531540D01*
X186690803Y-125834372D01*
X186387971Y-126287591D01*
X186281631Y-126822200D01*
X182627969Y-126822200D01*
X182521629Y-126287591D01*
X182218797Y-125834372D01*
X181765578Y-125531540D01*
X181230969Y-125425200D01*
X181176231Y-125425200D01*
X180641622Y-125531540D01*
X180188403Y-125834372D01*
X179885571Y-126287591D01*
X179779231Y-126822200D01*
X179577581Y-126822200D01*
X179605369Y-126682500D01*
X179499029Y-126147891D01*
X179196197Y-125694672D01*
X178742978Y-125391840D01*
X178208369Y-125285500D01*
X178153631Y-125285500D01*
X177619022Y-125391840D01*
X177165803Y-125694672D01*
X176862971Y-126147891D01*
X176756631Y-126682500D01*
X173102969Y-126682500D01*
X172996629Y-126147891D01*
X172693797Y-125694672D01*
X172240578Y-125391840D01*
X171705969Y-125285500D01*
X171651231Y-125285500D01*
X171116622Y-125391840D01*
X170663403Y-125694672D01*
X170529250Y-125895446D01*
X170395097Y-125694672D01*
X169941878Y-125391840D01*
X169407269Y-125285500D01*
X169352531Y-125285500D01*
X168817922Y-125391840D01*
X168364703Y-125694672D01*
X168061871Y-126147891D01*
X167955531Y-126682500D01*
X165948360Y-126682500D01*
X165948360Y-124343160D01*
X165880689Y-124002954D01*
X165687978Y-123714542D01*
X164274140Y-122300704D01*
X164301869Y-122161300D01*
X167955531Y-122161300D01*
X168061871Y-122695909D01*
X168364703Y-123149128D01*
X168817922Y-123451960D01*
X169352531Y-123558300D01*
X169407269Y-123558300D01*
X169941878Y-123451960D01*
X170395097Y-123149128D01*
X170529250Y-122948354D01*
X170663403Y-123149128D01*
X171116622Y-123451960D01*
X171651231Y-123558300D01*
X171705969Y-123558300D01*
X172240578Y-123451960D01*
X172693797Y-123149128D01*
X172996629Y-122695909D01*
X173102969Y-122161300D01*
X176756631Y-122161300D01*
X176862971Y-122695909D01*
X177165803Y-123149128D01*
X177619022Y-123451960D01*
X178153631Y-123558300D01*
X178208369Y-123558300D01*
X178742978Y-123451960D01*
X179196197Y-123149128D01*
X179262232Y-123050300D01*
X180029023Y-123050300D01*
X180188403Y-123288828D01*
X180641622Y-123591660D01*
X181176231Y-123698000D01*
X181230969Y-123698000D01*
X181765578Y-123591660D01*
X182218797Y-123288828D01*
X182521629Y-122835609D01*
X182627969Y-122301000D01*
X186281631Y-122301000D01*
X186387971Y-122835609D01*
X186690803Y-123288828D01*
X187144022Y-123591660D01*
X187678631Y-123698000D01*
X187733369Y-123698000D01*
X188267978Y-123591660D01*
X188721197Y-123288828D01*
X189024029Y-122835609D01*
X189130369Y-122301000D01*
X189024029Y-121766391D01*
X188721197Y-121313172D01*
X188267978Y-121010340D01*
X187733369Y-120904000D01*
X187678631Y-120904000D01*
X187144022Y-121010340D01*
X186690803Y-121313172D01*
X186387971Y-121766391D01*
X186281631Y-122301000D01*
X182627969Y-122301000D01*
X182521629Y-121766391D01*
X182218797Y-121313172D01*
X181765578Y-121010340D01*
X181230969Y-120904000D01*
X181176231Y-120904000D01*
X180641622Y-121010340D01*
X180249572Y-121272300D01*
X179262232Y-121272300D01*
X179196197Y-121173472D01*
X178742978Y-120870640D01*
X178208369Y-120764300D01*
X178153631Y-120764300D01*
X177619022Y-120870640D01*
X177165803Y-121173472D01*
X176862971Y-121626691D01*
X176756631Y-122161300D01*
X173102969Y-122161300D01*
X172996629Y-121626691D01*
X172693797Y-121173472D01*
X172240578Y-120870640D01*
X171705969Y-120764300D01*
X171651231Y-120764300D01*
X171116622Y-120870640D01*
X170663403Y-121173472D01*
X170529250Y-121374246D01*
X170395097Y-121173472D01*
X169941878Y-120870640D01*
X169407269Y-120764300D01*
X169352531Y-120764300D01*
X168817922Y-120870640D01*
X168364703Y-121173472D01*
X168061871Y-121626691D01*
X167955531Y-122161300D01*
X164301869Y-122161300D01*
X164195529Y-121626691D01*
X163892697Y-121173472D01*
X163439478Y-120870640D01*
X162904869Y-120764300D01*
X162850131Y-120764300D01*
X162315522Y-120870640D01*
X161862303Y-121173472D01*
X161796268Y-121272300D01*
X147498434Y-121272300D01*
X147498665Y-121007049D01*
X147265468Y-120442669D01*
X146884218Y-120060752D01*
X147263951Y-119681683D01*
X147413016Y-119322694D01*
X159835566Y-119322694D01*
X160083878Y-119923655D01*
X160543267Y-120383846D01*
X161143793Y-120633206D01*
X161794034Y-120633774D01*
X162394995Y-120385462D01*
X162629703Y-120151163D01*
X170657783Y-120151163D01*
X170756382Y-120417965D01*
X171365922Y-120644401D01*
X172015717Y-120620341D01*
X172504298Y-120417965D01*
X172555963Y-120278163D01*
X174922443Y-120278163D01*
X175021042Y-120544965D01*
X175630582Y-120771401D01*
X176280377Y-120747341D01*
X176768958Y-120544965D01*
X176867557Y-120278163D01*
X175895000Y-119305605D01*
X174922443Y-120278163D01*
X172555963Y-120278163D01*
X172602897Y-120151163D01*
X171630340Y-119178605D01*
X170657783Y-120151163D01*
X162629703Y-120151163D01*
X162855186Y-119926073D01*
X163104546Y-119325547D01*
X163105062Y-118734582D01*
X169984939Y-118734582D01*
X170008999Y-119384377D01*
X170211375Y-119872958D01*
X170478177Y-119971557D01*
X171450735Y-118999000D01*
X171809945Y-118999000D01*
X172782503Y-119971557D01*
X173049305Y-119872958D01*
X173275741Y-119263418D01*
X173260863Y-118861582D01*
X174249599Y-118861582D01*
X174273659Y-119511377D01*
X174476035Y-119999958D01*
X174742837Y-120098557D01*
X175715395Y-119126000D01*
X176074605Y-119126000D01*
X177047163Y-120098557D01*
X177313965Y-119999958D01*
X177518380Y-119449694D01*
X184420226Y-119449694D01*
X184668538Y-120050655D01*
X185127927Y-120510846D01*
X185728453Y-120760206D01*
X186378694Y-120760774D01*
X186979655Y-120512462D01*
X187439846Y-120053073D01*
X187689206Y-119452547D01*
X187689774Y-118802306D01*
X187441462Y-118201345D01*
X186982073Y-117741154D01*
X186381547Y-117491794D01*
X185731306Y-117491226D01*
X185130345Y-117739538D01*
X184670154Y-118198927D01*
X184420794Y-118799453D01*
X184420226Y-119449694D01*
X177518380Y-119449694D01*
X177540401Y-119390418D01*
X177516341Y-118740623D01*
X177313965Y-118252042D01*
X177047163Y-118153443D01*
X176074605Y-119126000D01*
X175715395Y-119126000D01*
X174742837Y-118153443D01*
X174476035Y-118252042D01*
X174249599Y-118861582D01*
X173260863Y-118861582D01*
X173251681Y-118613623D01*
X173049305Y-118125042D01*
X172782503Y-118026443D01*
X171809945Y-118999000D01*
X171450735Y-118999000D01*
X170478177Y-118026443D01*
X170211375Y-118125042D01*
X169984939Y-118734582D01*
X163105062Y-118734582D01*
X163105114Y-118675306D01*
X162856802Y-118074345D01*
X162629691Y-117846837D01*
X170657783Y-117846837D01*
X171630340Y-118819395D01*
X172475897Y-117973837D01*
X174922443Y-117973837D01*
X175895000Y-118946395D01*
X176867557Y-117973837D01*
X176768958Y-117707035D01*
X176159418Y-117480599D01*
X175509623Y-117504659D01*
X175021042Y-117707035D01*
X174922443Y-117973837D01*
X172475897Y-117973837D01*
X172602897Y-117846837D01*
X172504298Y-117580035D01*
X171894758Y-117353599D01*
X171244963Y-117377659D01*
X170756382Y-117580035D01*
X170657783Y-117846837D01*
X162629691Y-117846837D01*
X162397413Y-117614154D01*
X162098949Y-117490221D01*
X162468655Y-117337462D01*
X162928846Y-116878073D01*
X162993585Y-116722163D01*
X170794943Y-116722163D01*
X170893542Y-116988965D01*
X171503082Y-117215401D01*
X172152877Y-117191341D01*
X172641458Y-116988965D01*
X172740057Y-116722163D01*
X171767500Y-115749605D01*
X170794943Y-116722163D01*
X162993585Y-116722163D01*
X163178206Y-116277547D01*
X163178774Y-115627306D01*
X163045841Y-115305582D01*
X170122099Y-115305582D01*
X170146159Y-115955377D01*
X170348535Y-116443958D01*
X170615337Y-116542557D01*
X171587895Y-115570000D01*
X171947105Y-115570000D01*
X172919663Y-116542557D01*
X173186465Y-116443958D01*
X173390880Y-115893694D01*
X180292726Y-115893694D01*
X180541038Y-116494655D01*
X181000427Y-116954846D01*
X181600953Y-117204206D01*
X182251194Y-117204774D01*
X182852155Y-116956462D01*
X183312346Y-116497073D01*
X183561706Y-115896547D01*
X183562274Y-115246306D01*
X183313962Y-114645345D01*
X182854573Y-114185154D01*
X182254047Y-113935794D01*
X181603806Y-113935226D01*
X181002845Y-114183538D01*
X180542654Y-114642927D01*
X180293294Y-115243453D01*
X180292726Y-115893694D01*
X173390880Y-115893694D01*
X173412901Y-115834418D01*
X173388841Y-115184623D01*
X173186465Y-114696042D01*
X172919663Y-114597443D01*
X171947105Y-115570000D01*
X171587895Y-115570000D01*
X170615337Y-114597443D01*
X170348535Y-114696042D01*
X170122099Y-115305582D01*
X163045841Y-115305582D01*
X162930462Y-115026345D01*
X162649020Y-114744411D01*
X162928846Y-114465073D01*
X162948460Y-114417837D01*
X170794943Y-114417837D01*
X171767500Y-115390395D01*
X172740057Y-114417837D01*
X172641458Y-114151035D01*
X172031918Y-113924599D01*
X171382123Y-113948659D01*
X170893542Y-114151035D01*
X170794943Y-114417837D01*
X162948460Y-114417837D01*
X163178206Y-113864547D01*
X163178774Y-113214306D01*
X162930462Y-112613345D01*
X162570256Y-112252510D01*
X162956786Y-111866653D01*
X163206146Y-111266127D01*
X163206714Y-110615886D01*
X162958402Y-110014925D01*
X162824283Y-109880572D01*
X175683769Y-109880572D01*
X175918142Y-110372699D01*
X176323003Y-110737674D01*
X176694930Y-110891720D01*
X176911000Y-110769220D01*
X176911000Y-109664500D01*
X175805524Y-109664500D01*
X175683769Y-109880572D01*
X162824283Y-109880572D01*
X162602347Y-109658249D01*
X162956786Y-109304428D01*
X163002461Y-109194428D01*
X175683769Y-109194428D01*
X175805524Y-109410500D01*
X176911000Y-109410500D01*
X176911000Y-108305780D01*
X177165000Y-108305780D01*
X177165000Y-109410500D01*
X177185000Y-109410500D01*
X177185000Y-109664500D01*
X177165000Y-109664500D01*
X177165000Y-110769220D01*
X177381070Y-110891720D01*
X177752997Y-110737674D01*
X178157858Y-110372699D01*
X178287713Y-110100036D01*
X178590172Y-110552697D01*
X179043391Y-110855529D01*
X179578000Y-110961869D01*
X180112609Y-110855529D01*
X180565828Y-110552697D01*
X180848000Y-110130398D01*
X181130172Y-110552697D01*
X181583391Y-110855529D01*
X182118000Y-110961869D01*
X182652609Y-110855529D01*
X183105828Y-110552697D01*
X183408660Y-110099478D01*
X183515000Y-109564869D01*
X183515000Y-109510131D01*
X183408660Y-108975522D01*
X183105828Y-108522303D01*
X182652609Y-108219471D01*
X182118000Y-108113131D01*
X181583391Y-108219471D01*
X181130172Y-108522303D01*
X180848000Y-108944602D01*
X180565828Y-108522303D01*
X180112609Y-108219471D01*
X179578000Y-108113131D01*
X179043391Y-108219471D01*
X178590172Y-108522303D01*
X178287713Y-108974964D01*
X178157858Y-108702301D01*
X177752997Y-108337326D01*
X177381070Y-108183280D01*
X177165000Y-108305780D01*
X176911000Y-108305780D01*
X176694930Y-108183280D01*
X176323003Y-108337326D01*
X175918142Y-108702301D01*
X175683769Y-109194428D01*
X163002461Y-109194428D01*
X163206146Y-108703902D01*
X163206714Y-108053661D01*
X163017919Y-107596741D01*
X189062118Y-107596741D01*
X189274350Y-108110383D01*
X189666990Y-108503709D01*
X189874872Y-108590029D01*
X189669057Y-108675070D01*
X189275731Y-109067710D01*
X189062603Y-109580980D01*
X189062118Y-110136741D01*
X189274350Y-110650383D01*
X189666990Y-111043709D01*
X189874872Y-111130029D01*
X189669057Y-111215070D01*
X189275731Y-111607710D01*
X189062603Y-112120980D01*
X189062118Y-112676741D01*
X189274350Y-113190383D01*
X189666990Y-113583709D01*
X190180260Y-113796837D01*
X190736021Y-113797322D01*
X191249663Y-113585090D01*
X191642989Y-113192450D01*
X191729309Y-112984568D01*
X191814350Y-113190383D01*
X192206990Y-113583709D01*
X192720260Y-113796837D01*
X193276021Y-113797322D01*
X193789663Y-113585090D01*
X194182989Y-113192450D01*
X194396117Y-112679180D01*
X194396602Y-112123419D01*
X194184370Y-111609777D01*
X193791730Y-111216451D01*
X193583848Y-111130131D01*
X193789663Y-111045090D01*
X194182989Y-110652450D01*
X194396117Y-110139180D01*
X194396602Y-109583419D01*
X194184370Y-109069777D01*
X193791730Y-108676451D01*
X193583848Y-108590131D01*
X193789663Y-108505090D01*
X194182989Y-108112450D01*
X194396117Y-107599180D01*
X194396602Y-107043419D01*
X194184370Y-106529777D01*
X193791730Y-106136451D01*
X193278460Y-105923323D01*
X192722699Y-105922838D01*
X192209057Y-106135070D01*
X191815731Y-106527710D01*
X191729411Y-106735592D01*
X191644370Y-106529777D01*
X191251730Y-106136451D01*
X190738460Y-105923323D01*
X190182699Y-105922838D01*
X189669057Y-106135070D01*
X189275731Y-106527710D01*
X189062603Y-107040980D01*
X189062118Y-107596741D01*
X163017919Y-107596741D01*
X162958402Y-107452700D01*
X162548373Y-107041955D01*
X162956786Y-106634253D01*
X163206146Y-106033727D01*
X163206714Y-105383486D01*
X162958402Y-104782525D01*
X162499013Y-104322334D01*
X161898487Y-104072974D01*
X161248246Y-104072406D01*
X160647285Y-104320718D01*
X160187094Y-104780107D01*
X159937734Y-105380633D01*
X159937166Y-106030874D01*
X160185478Y-106631835D01*
X160595507Y-107042580D01*
X160187094Y-107450282D01*
X159937734Y-108050808D01*
X159937166Y-108701049D01*
X160185478Y-109302010D01*
X160541533Y-109658686D01*
X160187094Y-110012507D01*
X159937734Y-110613033D01*
X159937166Y-111263274D01*
X160185478Y-111864235D01*
X160545684Y-112225070D01*
X160159154Y-112610927D01*
X159909794Y-113211453D01*
X159909226Y-113861694D01*
X160157538Y-114462655D01*
X160438980Y-114744589D01*
X160159154Y-115023927D01*
X159909794Y-115624453D01*
X159909226Y-116274694D01*
X160157538Y-116875655D01*
X160616927Y-117335846D01*
X160915391Y-117459779D01*
X160545685Y-117612538D01*
X160085494Y-118071927D01*
X159836134Y-118672453D01*
X159835566Y-119322694D01*
X147413016Y-119322694D01*
X147498133Y-119117710D01*
X147498665Y-118507049D01*
X147265468Y-117942669D01*
X146834043Y-117510489D01*
X146825028Y-117506746D01*
X146863954Y-117391199D01*
X145963400Y-116490645D01*
X145062846Y-117391199D01*
X145101607Y-117506254D01*
X145095029Y-117508972D01*
X144662849Y-117940397D01*
X144428667Y-118504370D01*
X144428135Y-119115031D01*
X127507200Y-119115031D01*
X127507200Y-111237419D01*
X136677213Y-111237419D01*
X137016755Y-112059172D01*
X137635307Y-112678805D01*
X137069764Y-113243361D01*
X136728789Y-114064521D01*
X136728013Y-114953659D01*
X137067555Y-115775412D01*
X137695721Y-116404676D01*
X138516881Y-116745651D01*
X139406019Y-116746427D01*
X140227772Y-116406885D01*
X140564869Y-116070376D01*
X144416942Y-116070376D01*
X144442561Y-116680500D01*
X144626757Y-117125188D01*
X144883241Y-117211594D01*
X145783795Y-116311040D01*
X146143005Y-116311040D01*
X147043559Y-117211594D01*
X147300043Y-117125188D01*
X147308101Y-117103163D01*
X150411443Y-117103163D01*
X150510042Y-117369965D01*
X151119582Y-117596401D01*
X151769377Y-117572341D01*
X152257958Y-117369965D01*
X152356557Y-117103163D01*
X151384000Y-116130605D01*
X150411443Y-117103163D01*
X147308101Y-117103163D01*
X147509858Y-116551704D01*
X147484239Y-115941580D01*
X147378616Y-115686582D01*
X149738599Y-115686582D01*
X149762659Y-116336377D01*
X149965035Y-116824958D01*
X150231837Y-116923557D01*
X151204395Y-115951000D01*
X151563605Y-115951000D01*
X152536163Y-116923557D01*
X152802965Y-116824958D01*
X153029401Y-116215418D01*
X153005341Y-115565623D01*
X152802965Y-115077042D01*
X152536163Y-114978443D01*
X151563605Y-115951000D01*
X151204395Y-115951000D01*
X150231837Y-114978443D01*
X149965035Y-115077042D01*
X149738599Y-115686582D01*
X147378616Y-115686582D01*
X147300043Y-115496892D01*
X147043559Y-115410486D01*
X146143005Y-116311040D01*
X145783795Y-116311040D01*
X144883241Y-115410486D01*
X144626757Y-115496892D01*
X144416942Y-116070376D01*
X140564869Y-116070376D01*
X140857036Y-115778719D01*
X141084517Y-115230881D01*
X145062846Y-115230881D01*
X145963400Y-116131435D01*
X146863954Y-115230881D01*
X146777548Y-114974397D01*
X146204064Y-114764582D01*
X145593940Y-114790201D01*
X145149252Y-114974397D01*
X145062846Y-115230881D01*
X141084517Y-115230881D01*
X141198011Y-114957559D01*
X141198244Y-114690163D01*
X150411443Y-114690163D01*
X150431524Y-114744500D01*
X150411443Y-114798837D01*
X150475147Y-114862541D01*
X150510042Y-114956965D01*
X150604756Y-114992150D01*
X151384000Y-115771395D01*
X152156336Y-114999058D01*
X152257958Y-114956965D01*
X152292853Y-114862541D01*
X152356557Y-114798837D01*
X152336476Y-114744500D01*
X152356557Y-114690163D01*
X152292853Y-114626459D01*
X152257958Y-114532035D01*
X152163244Y-114496850D01*
X151384000Y-113717605D01*
X150611664Y-114489942D01*
X150510042Y-114532035D01*
X150475147Y-114626459D01*
X150411443Y-114690163D01*
X141198244Y-114690163D01*
X141198787Y-114068421D01*
X140870366Y-113273582D01*
X149738599Y-113273582D01*
X149762659Y-113923377D01*
X149965035Y-114411958D01*
X150231837Y-114510557D01*
X151204395Y-113538000D01*
X151563605Y-113538000D01*
X152536163Y-114510557D01*
X152802965Y-114411958D01*
X153029401Y-113802418D01*
X153005341Y-113152623D01*
X152802965Y-112664042D01*
X152536163Y-112565443D01*
X151563605Y-113538000D01*
X151204395Y-113538000D01*
X150231837Y-112565443D01*
X149965035Y-112664042D01*
X149738599Y-113273582D01*
X140870366Y-113273582D01*
X140859245Y-113246668D01*
X140240693Y-112627035D01*
X140482312Y-112385837D01*
X150411443Y-112385837D01*
X151384000Y-113358395D01*
X152356557Y-112385837D01*
X152316185Y-112276592D01*
X152384497Y-112091743D01*
X151411940Y-111119185D01*
X150439383Y-112091743D01*
X150479755Y-112200988D01*
X150411443Y-112385837D01*
X140482312Y-112385837D01*
X140806236Y-112062479D01*
X141147211Y-111241319D01*
X141147705Y-110675162D01*
X149766539Y-110675162D01*
X149790599Y-111324957D01*
X149992975Y-111813538D01*
X150259777Y-111912137D01*
X151232335Y-110939580D01*
X151591545Y-110939580D01*
X152564103Y-111912137D01*
X152830905Y-111813538D01*
X153057341Y-111203998D01*
X153033281Y-110554203D01*
X152830905Y-110065622D01*
X152564103Y-109967023D01*
X151591545Y-110939580D01*
X151232335Y-110939580D01*
X150259777Y-109967023D01*
X149992975Y-110065622D01*
X149766539Y-110675162D01*
X141147705Y-110675162D01*
X141147987Y-110352181D01*
X140808445Y-109530428D01*
X140180279Y-108901164D01*
X139359119Y-108560189D01*
X138469981Y-108559413D01*
X137648228Y-108898955D01*
X137018964Y-109527121D01*
X136677989Y-110348281D01*
X136677213Y-111237419D01*
X127507200Y-111237419D01*
X127507200Y-106798791D01*
X144377335Y-106798791D01*
X144610532Y-107363171D01*
X144991782Y-107745088D01*
X144612049Y-108124157D01*
X144377867Y-108688130D01*
X144377335Y-109298791D01*
X144610532Y-109863171D01*
X145041957Y-110295351D01*
X145605930Y-110529533D01*
X146216591Y-110530065D01*
X146780971Y-110296868D01*
X147213151Y-109865443D01*
X147352639Y-109529518D01*
X150439383Y-109529518D01*
X150487037Y-109658468D01*
X150439383Y-109787417D01*
X151411940Y-110759975D01*
X152384497Y-109787417D01*
X152336843Y-109658468D01*
X152384497Y-109529518D01*
X151411940Y-108556960D01*
X150439383Y-109529518D01*
X147352639Y-109529518D01*
X147447333Y-109301470D01*
X147447865Y-108690809D01*
X147214668Y-108126429D01*
X147201200Y-108112937D01*
X149766539Y-108112937D01*
X149790599Y-108762732D01*
X149992975Y-109251313D01*
X150259777Y-109349912D01*
X151232335Y-108377355D01*
X151591545Y-108377355D01*
X152564103Y-109349912D01*
X152830905Y-109251313D01*
X153057341Y-108641773D01*
X153033281Y-107991978D01*
X152830905Y-107503397D01*
X152564103Y-107404798D01*
X151591545Y-108377355D01*
X151232335Y-108377355D01*
X150259777Y-107404798D01*
X149992975Y-107503397D01*
X149766539Y-108112937D01*
X147201200Y-108112937D01*
X146833418Y-107744512D01*
X147213151Y-107365443D01*
X147423302Y-106859343D01*
X150439383Y-106859343D01*
X150506984Y-107042267D01*
X150439383Y-107225192D01*
X151411940Y-108197750D01*
X152384497Y-107225192D01*
X152316896Y-107042267D01*
X152384497Y-106859343D01*
X151411940Y-105886785D01*
X150439383Y-106859343D01*
X147423302Y-106859343D01*
X147447333Y-106801470D01*
X147447865Y-106190809D01*
X147214668Y-105626429D01*
X147031322Y-105442762D01*
X149766539Y-105442762D01*
X149790599Y-106092557D01*
X149992975Y-106581138D01*
X150259777Y-106679737D01*
X151232335Y-105707180D01*
X151591545Y-105707180D01*
X152564103Y-106679737D01*
X152830905Y-106581138D01*
X153057341Y-105971598D01*
X153033281Y-105321803D01*
X152830905Y-104833222D01*
X152564103Y-104734623D01*
X151591545Y-105707180D01*
X151232335Y-105707180D01*
X150259777Y-104734623D01*
X149992975Y-104833222D01*
X149766539Y-105442762D01*
X147031322Y-105442762D01*
X146783243Y-105194249D01*
X146774228Y-105190506D01*
X146813154Y-105074959D01*
X145912600Y-104174405D01*
X145012046Y-105074959D01*
X145050807Y-105190014D01*
X145044229Y-105192732D01*
X144612049Y-105624157D01*
X144377867Y-106188130D01*
X144377335Y-106798791D01*
X127507200Y-106798791D01*
X127507200Y-102637419D01*
X136677213Y-102637419D01*
X137016755Y-103459172D01*
X137644921Y-104088436D01*
X138466081Y-104429411D01*
X139355219Y-104430187D01*
X140176972Y-104090645D01*
X140514069Y-103754136D01*
X144366142Y-103754136D01*
X144391761Y-104364260D01*
X144575957Y-104808948D01*
X144832441Y-104895354D01*
X145732995Y-103994800D01*
X146092205Y-103994800D01*
X146992759Y-104895354D01*
X147249243Y-104808948D01*
X147342146Y-104555017D01*
X150439383Y-104555017D01*
X151411940Y-105527575D01*
X152384497Y-104555017D01*
X152285898Y-104288215D01*
X151676358Y-104061779D01*
X151026563Y-104085839D01*
X150537982Y-104288215D01*
X150439383Y-104555017D01*
X147342146Y-104555017D01*
X147459058Y-104235464D01*
X147433439Y-103625340D01*
X147249243Y-103180652D01*
X146992759Y-103094246D01*
X146092205Y-103994800D01*
X145732995Y-103994800D01*
X144832441Y-103094246D01*
X144575957Y-103180652D01*
X144366142Y-103754136D01*
X140514069Y-103754136D01*
X140806236Y-103462479D01*
X141033717Y-102914641D01*
X145012046Y-102914641D01*
X145912600Y-103815195D01*
X146813154Y-102914641D01*
X146726748Y-102658157D01*
X146153264Y-102448342D01*
X145543140Y-102473961D01*
X145098452Y-102658157D01*
X145012046Y-102914641D01*
X141033717Y-102914641D01*
X141147211Y-102641319D01*
X141147987Y-101752181D01*
X141075033Y-101575617D01*
X158699200Y-101575617D01*
X158699200Y-101624383D01*
X158793940Y-102100671D01*
X159063735Y-102504448D01*
X159467512Y-102774243D01*
X159943800Y-102868983D01*
X160420088Y-102774243D01*
X160823865Y-102504448D01*
X161093660Y-102100671D01*
X161188400Y-101624383D01*
X161188400Y-101575617D01*
X165506400Y-101575617D01*
X165506400Y-101624383D01*
X165601140Y-102100671D01*
X165870935Y-102504448D01*
X166274712Y-102774243D01*
X166751000Y-102868983D01*
X167227288Y-102774243D01*
X167631065Y-102504448D01*
X167900860Y-102100671D01*
X167995600Y-101624383D01*
X167995600Y-101575617D01*
X172491400Y-101575617D01*
X172491400Y-101624383D01*
X172586140Y-102100671D01*
X172855935Y-102504448D01*
X173259712Y-102774243D01*
X173736000Y-102868983D01*
X174212288Y-102774243D01*
X174616065Y-102504448D01*
X174885860Y-102100671D01*
X174980600Y-101624383D01*
X174980600Y-101575617D01*
X174953015Y-101436938D01*
X178895893Y-101436938D01*
X178895893Y-101485704D01*
X178990633Y-101961992D01*
X179260428Y-102365769D01*
X179664205Y-102635564D01*
X180140493Y-102730304D01*
X180616781Y-102635564D01*
X181020558Y-102365769D01*
X181290353Y-101961992D01*
X181385093Y-101485704D01*
X181385093Y-101436938D01*
X185575893Y-101436938D01*
X185575893Y-101485704D01*
X185670633Y-101961992D01*
X185940428Y-102365769D01*
X186344205Y-102635564D01*
X186820493Y-102730304D01*
X187296781Y-102635564D01*
X187700558Y-102365769D01*
X187970353Y-101961992D01*
X188065093Y-101485704D01*
X188065093Y-101436938D01*
X187970353Y-100960650D01*
X187700558Y-100556873D01*
X187296781Y-100287078D01*
X186820493Y-100192338D01*
X186344205Y-100287078D01*
X185940428Y-100556873D01*
X185670633Y-100960650D01*
X185575893Y-101436938D01*
X181385093Y-101436938D01*
X181290353Y-100960650D01*
X181020558Y-100556873D01*
X180616781Y-100287078D01*
X180140493Y-100192338D01*
X179664205Y-100287078D01*
X179260428Y-100556873D01*
X178990633Y-100960650D01*
X178895893Y-101436938D01*
X174953015Y-101436938D01*
X174885860Y-101099329D01*
X174616065Y-100695552D01*
X174212288Y-100425757D01*
X173736000Y-100331017D01*
X173259712Y-100425757D01*
X172855935Y-100695552D01*
X172586140Y-101099329D01*
X172491400Y-101575617D01*
X167995600Y-101575617D01*
X167900860Y-101099329D01*
X167631065Y-100695552D01*
X167227288Y-100425757D01*
X166751000Y-100331017D01*
X166274712Y-100425757D01*
X165870935Y-100695552D01*
X165601140Y-101099329D01*
X165506400Y-101575617D01*
X161188400Y-101575617D01*
X161093660Y-101099329D01*
X160823865Y-100695552D01*
X160420088Y-100425757D01*
X159943800Y-100331017D01*
X159467512Y-100425757D01*
X159063735Y-100695552D01*
X158793940Y-101099329D01*
X158699200Y-101575617D01*
X141075033Y-101575617D01*
X140808445Y-100930428D01*
X140180279Y-100301164D01*
X139359119Y-99960189D01*
X138469981Y-99959413D01*
X137648228Y-100298955D01*
X137018964Y-100927121D01*
X136677989Y-101748281D01*
X136677213Y-102637419D01*
X127507200Y-102637419D01*
X127507200Y-99035617D01*
X158699200Y-99035617D01*
X158699200Y-99084383D01*
X158793940Y-99560671D01*
X159063735Y-99964448D01*
X159467512Y-100234243D01*
X159943800Y-100328983D01*
X160420088Y-100234243D01*
X160823865Y-99964448D01*
X161093660Y-99560671D01*
X161188400Y-99084383D01*
X161188400Y-99035617D01*
X165506400Y-99035617D01*
X165506400Y-99084383D01*
X165601140Y-99560671D01*
X165870935Y-99964448D01*
X166274712Y-100234243D01*
X166751000Y-100328983D01*
X167227288Y-100234243D01*
X167631065Y-99964448D01*
X167900860Y-99560671D01*
X167995600Y-99084383D01*
X167995600Y-99035617D01*
X172491400Y-99035617D01*
X172491400Y-99084383D01*
X172586140Y-99560671D01*
X172855935Y-99964448D01*
X173259712Y-100234243D01*
X173736000Y-100328983D01*
X174212288Y-100234243D01*
X174616065Y-99964448D01*
X174885860Y-99560671D01*
X174980600Y-99084383D01*
X174980600Y-99035617D01*
X174953015Y-98896938D01*
X178895893Y-98896938D01*
X178895893Y-98945704D01*
X178990633Y-99421992D01*
X179260428Y-99825769D01*
X179664205Y-100095564D01*
X180140493Y-100190304D01*
X180616781Y-100095564D01*
X181020558Y-99825769D01*
X181290353Y-99421992D01*
X181385093Y-98945704D01*
X181385093Y-98896938D01*
X185575893Y-98896938D01*
X185575893Y-98945704D01*
X185670633Y-99421992D01*
X185940428Y-99825769D01*
X186344205Y-100095564D01*
X186820493Y-100190304D01*
X187296781Y-100095564D01*
X187700558Y-99825769D01*
X187970353Y-99421992D01*
X188065093Y-98945704D01*
X188065093Y-98896938D01*
X187970353Y-98420650D01*
X187700558Y-98016873D01*
X187296781Y-97747078D01*
X186820493Y-97652338D01*
X186344205Y-97747078D01*
X185940428Y-98016873D01*
X185670633Y-98420650D01*
X185575893Y-98896938D01*
X181385093Y-98896938D01*
X181290353Y-98420650D01*
X181020558Y-98016873D01*
X180616781Y-97747078D01*
X180140493Y-97652338D01*
X179664205Y-97747078D01*
X179260428Y-98016873D01*
X178990633Y-98420650D01*
X178895893Y-98896938D01*
X174953015Y-98896938D01*
X174885860Y-98559329D01*
X174616065Y-98155552D01*
X174212288Y-97885757D01*
X173736000Y-97791017D01*
X173259712Y-97885757D01*
X172855935Y-98155552D01*
X172586140Y-98559329D01*
X172491400Y-99035617D01*
X167995600Y-99035617D01*
X167900860Y-98559329D01*
X167631065Y-98155552D01*
X167227288Y-97885757D01*
X166751000Y-97791017D01*
X166274712Y-97885757D01*
X165870935Y-98155552D01*
X165601140Y-98559329D01*
X165506400Y-99035617D01*
X161188400Y-99035617D01*
X161093660Y-98559329D01*
X160823865Y-98155552D01*
X160420088Y-97885757D01*
X159943800Y-97791017D01*
X159467512Y-97885757D01*
X159063735Y-98155552D01*
X158793940Y-98559329D01*
X158699200Y-99035617D01*
X127507200Y-99035617D01*
X127507200Y-95136322D01*
X140862952Y-95136322D01*
X141058206Y-95608873D01*
X141330300Y-95881442D01*
X141059476Y-96151794D01*
X140863398Y-96624002D01*
X140862952Y-97135302D01*
X141058206Y-97607853D01*
X141419434Y-97969712D01*
X141891642Y-98165790D01*
X142402942Y-98166236D01*
X142875493Y-97970982D01*
X143237352Y-97609754D01*
X143433430Y-97137546D01*
X143433876Y-96626246D01*
X143238622Y-96153695D01*
X142966528Y-95881126D01*
X143237352Y-95610774D01*
X143433430Y-95138566D01*
X143433876Y-94627266D01*
X143238622Y-94154715D01*
X143154494Y-94070440D01*
X143158353Y-94068841D01*
X143336981Y-93890212D01*
X143433654Y-93656823D01*
X143433654Y-93166024D01*
X143274904Y-93007274D01*
X142275414Y-93007274D01*
X142275414Y-93027274D01*
X142021414Y-93027274D01*
X142021414Y-93007274D01*
X141021924Y-93007274D01*
X140863174Y-93166024D01*
X140863174Y-93656823D01*
X140959847Y-93890212D01*
X141138475Y-94068841D01*
X141142094Y-94070340D01*
X141059476Y-94152814D01*
X140863398Y-94625022D01*
X140862952Y-95136322D01*
X127507200Y-95136322D01*
X127507200Y-91135822D01*
X140862952Y-91135822D01*
X141058206Y-91608373D01*
X141140541Y-91690851D01*
X141138475Y-91691707D01*
X140959847Y-91870336D01*
X140863174Y-92103725D01*
X140863174Y-92594524D01*
X141021924Y-92753274D01*
X142021414Y-92753274D01*
X142021414Y-92733274D01*
X142275414Y-92733274D01*
X142275414Y-92753274D01*
X143274904Y-92753274D01*
X143433654Y-92594524D01*
X143433654Y-92103725D01*
X143336981Y-91870336D01*
X143158353Y-91691707D01*
X143156532Y-91690953D01*
X143237352Y-91610274D01*
X143310757Y-91433494D01*
X143815786Y-91433494D01*
X144064098Y-92034455D01*
X144425546Y-92396534D01*
X144070794Y-92750667D01*
X143821434Y-93351193D01*
X143820866Y-94001434D01*
X144069178Y-94602395D01*
X144458570Y-94992467D01*
X144070794Y-95379567D01*
X143821434Y-95980093D01*
X143820866Y-96630334D01*
X144069178Y-97231295D01*
X144528567Y-97691486D01*
X145129093Y-97940846D01*
X145779334Y-97941414D01*
X146380295Y-97693102D01*
X146840486Y-97233713D01*
X147089846Y-96633187D01*
X147090414Y-95982946D01*
X146842102Y-95381985D01*
X146452710Y-94991913D01*
X146840486Y-94604813D01*
X147089846Y-94004287D01*
X147090414Y-93354046D01*
X146842102Y-92753085D01*
X146480654Y-92391006D01*
X146835406Y-92036873D01*
X147084766Y-91436347D01*
X147084768Y-91433494D01*
X153975786Y-91433494D01*
X154224098Y-92034455D01*
X154585546Y-92396534D01*
X154230794Y-92750667D01*
X153981434Y-93351193D01*
X153980866Y-94001434D01*
X154229178Y-94602395D01*
X154618570Y-94992467D01*
X154230794Y-95379567D01*
X153981434Y-95980093D01*
X153980866Y-96630334D01*
X154229178Y-97231295D01*
X154688567Y-97691486D01*
X155289093Y-97940846D01*
X155939334Y-97941414D01*
X156540295Y-97693102D01*
X157000486Y-97233713D01*
X157249846Y-96633187D01*
X157250414Y-95982946D01*
X157002102Y-95381985D01*
X156612710Y-94991913D01*
X157000486Y-94604813D01*
X157249846Y-94004287D01*
X157250414Y-93354046D01*
X157002102Y-92753085D01*
X156640654Y-92391006D01*
X156995406Y-92036873D01*
X157244766Y-91436347D01*
X157245334Y-90786106D01*
X156997022Y-90185145D01*
X156537633Y-89724954D01*
X155937107Y-89475594D01*
X155286866Y-89475026D01*
X154685905Y-89723338D01*
X154225714Y-90182727D01*
X153976354Y-90783253D01*
X153975786Y-91433494D01*
X147084768Y-91433494D01*
X147085334Y-90786106D01*
X146837022Y-90185145D01*
X146377633Y-89724954D01*
X145777107Y-89475594D01*
X145126866Y-89475026D01*
X144525905Y-89723338D01*
X144065714Y-90182727D01*
X143816354Y-90783253D01*
X143815786Y-91433494D01*
X143310757Y-91433494D01*
X143433430Y-91138066D01*
X143433876Y-90626766D01*
X143238622Y-90154215D01*
X142877394Y-89792356D01*
X142405186Y-89596278D01*
X141893886Y-89595832D01*
X141421335Y-89791086D01*
X141059476Y-90152314D01*
X140863398Y-90624522D01*
X140862952Y-91135822D01*
X127507200Y-91135822D01*
X127507200Y-89691852D01*
X127789833Y-89691852D01*
X127888496Y-89958707D01*
X128498221Y-90185228D01*
X129148220Y-90161176D01*
X129637024Y-89958707D01*
X129735687Y-89691852D01*
X128762760Y-88718925D01*
X127789833Y-89691852D01*
X127507200Y-89691852D01*
X127507200Y-89474155D01*
X127610228Y-89512247D01*
X128583155Y-88539320D01*
X128942365Y-88539320D01*
X129915292Y-89512247D01*
X130182147Y-89413584D01*
X130386653Y-88863115D01*
X134727156Y-88863115D01*
X134975546Y-89464263D01*
X135435077Y-89924598D01*
X136035792Y-90174036D01*
X136686235Y-90174604D01*
X137287383Y-89926214D01*
X137747718Y-89466683D01*
X137997156Y-88865968D01*
X137997724Y-88215525D01*
X137749334Y-87614377D01*
X137289803Y-87154042D01*
X136689088Y-86904604D01*
X136038645Y-86904036D01*
X135437497Y-87152426D01*
X134977162Y-87611957D01*
X134727724Y-88212672D01*
X134727156Y-88863115D01*
X130386653Y-88863115D01*
X130408668Y-88803859D01*
X130384616Y-88153860D01*
X130182147Y-87665056D01*
X129915292Y-87566393D01*
X128942365Y-88539320D01*
X128583155Y-88539320D01*
X127610228Y-87566393D01*
X127507200Y-87604485D01*
X127507200Y-87386788D01*
X127789833Y-87386788D01*
X128762760Y-88359715D01*
X129735687Y-87386788D01*
X129637024Y-87119933D01*
X129027299Y-86893412D01*
X128377300Y-86917464D01*
X127888496Y-87119933D01*
X127789833Y-87386788D01*
X127507200Y-87386788D01*
X127507200Y-84962200D01*
X141311472Y-84962200D01*
X140942060Y-85114838D01*
M02*
