G04 #@! TF.FileFunction,Copper,L2,Bot,Signal*
%FSLAX46Y46*%
G04 Gerber Fmt 4.6, Leading zero omitted, Abs format (unit mm)*
G04 Created by KiCad (PCBNEW 0.201603210401+6634~43~ubuntu14.04.1-product) date dom 03 abr 2016 22:36:11 CEST*
%MOMM*%
G01*
G04 APERTURE LIST*
%ADD10C,0.100000*%
%ADD11C,1.998980*%
%ADD12O,1.524000X2.540000*%
%ADD13C,1.524000*%
%ADD14O,1.524000X1.524000*%
%ADD15C,3.200000*%
%ADD16C,1.800000*%
%ADD17O,1.219200X1.219200*%
%ADD18C,1.300480*%
%ADD19R,1.300480X1.300480*%
%ADD20C,2.000000*%
%ADD21C,0.609600*%
%ADD22C,0.508000*%
%ADD23C,0.254000*%
G04 APERTURE END LIST*
D10*
D11*
X148031200Y-130162300D03*
X137871200Y-130162300D03*
D12*
X190459360Y-135260080D03*
X187919360Y-135260080D03*
X185379360Y-135260080D03*
X177759360Y-135260080D03*
X180299360Y-135260080D03*
X182839360Y-135260080D03*
X172679360Y-135260080D03*
X170139360Y-135260080D03*
X167599360Y-135260080D03*
X162519360Y-135260080D03*
X159979360Y-135260080D03*
X190459360Y-87000080D03*
X187919360Y-87000080D03*
X185379360Y-87000080D03*
X182839360Y-87000080D03*
X180299360Y-87000080D03*
X177759360Y-87000080D03*
X175219360Y-87000080D03*
X172679360Y-87000080D03*
X168615360Y-87000080D03*
X166075360Y-87000080D03*
X163535360Y-87000080D03*
X160995360Y-87000080D03*
X158455360Y-87000080D03*
X155915360Y-87000080D03*
X153375360Y-87000080D03*
X150835360Y-87000080D03*
X165059360Y-135260080D03*
X148295360Y-87000080D03*
X145755360Y-87000080D03*
X157439360Y-135260080D03*
X154899360Y-135260080D03*
D13*
X190459360Y-107320080D03*
X192999360Y-107320080D03*
X190459360Y-109860080D03*
X192999360Y-109860080D03*
X190459360Y-112400080D03*
X192999360Y-112400080D03*
D14*
X168753790Y-123228100D03*
X175256190Y-123228100D03*
X168753790Y-127749300D03*
X175256190Y-127749300D03*
D11*
X145486120Y-93774260D03*
X155646120Y-93774260D03*
D15*
X138963400Y-123111040D03*
X138963400Y-114511040D03*
D16*
X145963400Y-118811040D03*
X145963400Y-121311040D03*
X145963400Y-116311040D03*
D17*
X166903479Y-91711408D03*
X166903479Y-94251408D03*
X171983479Y-91505889D03*
X171983479Y-94045889D03*
X177063479Y-91624937D03*
X177063479Y-94164937D03*
D18*
X142148414Y-96880774D03*
X142148414Y-90881294D03*
D19*
X142148414Y-92880274D03*
D18*
X142148414Y-94881794D03*
D14*
X179872640Y-98506280D03*
X182412640Y-98506280D03*
X184952640Y-98506280D03*
D11*
X145549620Y-91107260D03*
X155709620Y-91107260D03*
X166423340Y-123583700D03*
X156263340Y-123583700D03*
X176735740Y-110197900D03*
X186895740Y-110197900D03*
X156390340Y-112763300D03*
X166550340Y-112763300D03*
X166423340Y-126199900D03*
X156263340Y-126199900D03*
X177840640Y-122847100D03*
X188000640Y-122847100D03*
D15*
X138912600Y-110794800D03*
X138912600Y-102194800D03*
D16*
X145912600Y-106494800D03*
X145912600Y-108994800D03*
X145912600Y-103994800D03*
D11*
X137858500Y-127457200D03*
X148018500Y-127457200D03*
D14*
X128854200Y-131394200D03*
X135356600Y-131394200D03*
X128854200Y-135915400D03*
X135356600Y-135915400D03*
X168753790Y-115570000D03*
X175256190Y-115570000D03*
X168753790Y-120091200D03*
X175256190Y-120091200D03*
X175256190Y-112433100D03*
X168753790Y-112433100D03*
X175256190Y-107911900D03*
X168753790Y-107911900D03*
X159730440Y-115570000D03*
X166232840Y-115570000D03*
X159730440Y-120091200D03*
X166232840Y-120091200D03*
D11*
X164287200Y-99453700D03*
X154127200Y-99453700D03*
X164287200Y-102123875D03*
X154127200Y-102123875D03*
X164287200Y-104686100D03*
X154127200Y-104686100D03*
X145486120Y-96403160D03*
X155646120Y-96403160D03*
D14*
X177777140Y-115570000D03*
X184279540Y-115570000D03*
X177777140Y-120091200D03*
X184279540Y-120091200D03*
D20*
X128762760Y-88539320D03*
X136362440Y-88539320D03*
D21*
X175256190Y-120091200D02*
X168753790Y-120091200D01*
D22*
X159730440Y-115570000D02*
X153989400Y-121311040D01*
X153989400Y-121311040D02*
X145963400Y-121311040D01*
D21*
X179872640Y-98506280D02*
X173833789Y-104545131D01*
X173833789Y-104545131D02*
X173833789Y-107353101D01*
X173833789Y-107353101D02*
X169515789Y-111671101D01*
X169515789Y-111671101D02*
X168753790Y-112433100D01*
D23*
G36*
X140942060Y-85114838D02*
X140316315Y-85739491D01*
X139977247Y-86556058D01*
X139976475Y-87440223D01*
X140314118Y-88257380D01*
X140938771Y-88883125D01*
X141755338Y-89222193D01*
X142639503Y-89222965D01*
X143456660Y-88885322D01*
X144082405Y-88260669D01*
X144365178Y-87579676D01*
X144464700Y-88080010D01*
X144767532Y-88533229D01*
X145220751Y-88836061D01*
X145755360Y-88942401D01*
X146289969Y-88836061D01*
X146743188Y-88533229D01*
X147025360Y-88110930D01*
X147307532Y-88533229D01*
X147760751Y-88836061D01*
X148295360Y-88942401D01*
X148829969Y-88836061D01*
X149283188Y-88533229D01*
X149565360Y-88110930D01*
X149847532Y-88533229D01*
X150300751Y-88836061D01*
X150835360Y-88942401D01*
X151369969Y-88836061D01*
X151823188Y-88533229D01*
X152114690Y-88096967D01*
X152133301Y-88160021D01*
X152477334Y-88585710D01*
X152958083Y-88847340D01*
X153032290Y-88862300D01*
X153248360Y-88739800D01*
X153248360Y-87127080D01*
X153228360Y-87127080D01*
X153228360Y-86873080D01*
X153248360Y-86873080D01*
X153248360Y-85260360D01*
X153502360Y-85260360D01*
X153502360Y-86873080D01*
X153522360Y-86873080D01*
X153522360Y-87127080D01*
X153502360Y-87127080D01*
X153502360Y-88739800D01*
X153718430Y-88862300D01*
X153792637Y-88847340D01*
X154273386Y-88585710D01*
X154617419Y-88160021D01*
X154636030Y-88096967D01*
X154927532Y-88533229D01*
X155380751Y-88836061D01*
X155915360Y-88942401D01*
X156449969Y-88836061D01*
X156903188Y-88533229D01*
X157185360Y-88110930D01*
X157467532Y-88533229D01*
X157920751Y-88836061D01*
X158455360Y-88942401D01*
X158989969Y-88836061D01*
X159443188Y-88533229D01*
X159725360Y-88110930D01*
X160007532Y-88533229D01*
X160460751Y-88836061D01*
X160995360Y-88942401D01*
X161529969Y-88836061D01*
X161983188Y-88533229D01*
X162265360Y-88110930D01*
X162547532Y-88533229D01*
X163000751Y-88836061D01*
X163535360Y-88942401D01*
X164069969Y-88836061D01*
X164523188Y-88533229D01*
X164805360Y-88110930D01*
X165087532Y-88533229D01*
X165540751Y-88836061D01*
X166075360Y-88942401D01*
X166609969Y-88836061D01*
X167063188Y-88533229D01*
X167345360Y-88110930D01*
X167627532Y-88533229D01*
X168080751Y-88836061D01*
X168615360Y-88942401D01*
X169149969Y-88836061D01*
X169603188Y-88533229D01*
X169906020Y-88080010D01*
X170012360Y-87545401D01*
X170012360Y-86454759D01*
X171282360Y-86454759D01*
X171282360Y-87545401D01*
X171388700Y-88080010D01*
X171691532Y-88533229D01*
X172144751Y-88836061D01*
X172679360Y-88942401D01*
X173213969Y-88836061D01*
X173667188Y-88533229D01*
X173949360Y-88110930D01*
X174231532Y-88533229D01*
X174684751Y-88836061D01*
X175219360Y-88942401D01*
X175753969Y-88836061D01*
X176207188Y-88533229D01*
X176489360Y-88110930D01*
X176771532Y-88533229D01*
X177224751Y-88836061D01*
X177759360Y-88942401D01*
X178293969Y-88836061D01*
X178747188Y-88533229D01*
X179029360Y-88110930D01*
X179311532Y-88533229D01*
X179764751Y-88836061D01*
X180299360Y-88942401D01*
X180833969Y-88836061D01*
X181287188Y-88533229D01*
X181569360Y-88110930D01*
X181851532Y-88533229D01*
X182304751Y-88836061D01*
X182839360Y-88942401D01*
X183373969Y-88836061D01*
X183827188Y-88533229D01*
X184109360Y-88110930D01*
X184391532Y-88533229D01*
X184844751Y-88836061D01*
X185379360Y-88942401D01*
X185913969Y-88836061D01*
X186367188Y-88533229D01*
X186649360Y-88110930D01*
X186931532Y-88533229D01*
X187384751Y-88836061D01*
X187919360Y-88942401D01*
X188453969Y-88836061D01*
X188907188Y-88533229D01*
X189189360Y-88110930D01*
X189471532Y-88533229D01*
X189924751Y-88836061D01*
X190459360Y-88942401D01*
X190993969Y-88836061D01*
X191447188Y-88533229D01*
X191750020Y-88080010D01*
X191856360Y-87545401D01*
X191856360Y-86454759D01*
X191750020Y-85920150D01*
X191447188Y-85466931D01*
X190993969Y-85164099D01*
X190459360Y-85057759D01*
X189924751Y-85164099D01*
X189471532Y-85466931D01*
X189189360Y-85889230D01*
X188907188Y-85466931D01*
X188453969Y-85164099D01*
X187919360Y-85057759D01*
X187384751Y-85164099D01*
X186931532Y-85466931D01*
X186649360Y-85889230D01*
X186367188Y-85466931D01*
X185913969Y-85164099D01*
X185379360Y-85057759D01*
X184844751Y-85164099D01*
X184391532Y-85466931D01*
X184109360Y-85889230D01*
X183827188Y-85466931D01*
X183373969Y-85164099D01*
X182839360Y-85057759D01*
X182304751Y-85164099D01*
X181851532Y-85466931D01*
X181569360Y-85889230D01*
X181287188Y-85466931D01*
X180833969Y-85164099D01*
X180299360Y-85057759D01*
X179764751Y-85164099D01*
X179311532Y-85466931D01*
X179029360Y-85889230D01*
X178747188Y-85466931D01*
X178293969Y-85164099D01*
X177759360Y-85057759D01*
X177224751Y-85164099D01*
X176771532Y-85466931D01*
X176489360Y-85889230D01*
X176207188Y-85466931D01*
X175753969Y-85164099D01*
X175219360Y-85057759D01*
X174684751Y-85164099D01*
X174231532Y-85466931D01*
X173949360Y-85889230D01*
X173667188Y-85466931D01*
X173213969Y-85164099D01*
X172679360Y-85057759D01*
X172144751Y-85164099D01*
X171691532Y-85466931D01*
X171388700Y-85920150D01*
X171282360Y-86454759D01*
X170012360Y-86454759D01*
X169906020Y-85920150D01*
X169603188Y-85466931D01*
X169149969Y-85164099D01*
X168615360Y-85057759D01*
X168080751Y-85164099D01*
X167627532Y-85466931D01*
X167345360Y-85889230D01*
X167063188Y-85466931D01*
X166609969Y-85164099D01*
X166075360Y-85057759D01*
X165540751Y-85164099D01*
X165087532Y-85466931D01*
X164805360Y-85889230D01*
X164523188Y-85466931D01*
X164069969Y-85164099D01*
X163535360Y-85057759D01*
X163000751Y-85164099D01*
X162547532Y-85466931D01*
X162265360Y-85889230D01*
X161983188Y-85466931D01*
X161529969Y-85164099D01*
X160995360Y-85057759D01*
X160460751Y-85164099D01*
X160007532Y-85466931D01*
X159725360Y-85889230D01*
X159443188Y-85466931D01*
X158989969Y-85164099D01*
X158455360Y-85057759D01*
X157920751Y-85164099D01*
X157467532Y-85466931D01*
X157185360Y-85889230D01*
X156903188Y-85466931D01*
X156449969Y-85164099D01*
X155915360Y-85057759D01*
X155380751Y-85164099D01*
X154927532Y-85466931D01*
X154636030Y-85903193D01*
X154617419Y-85840139D01*
X154273386Y-85414450D01*
X153792637Y-85152820D01*
X153718430Y-85137860D01*
X153502360Y-85260360D01*
X153248360Y-85260360D01*
X153032290Y-85137860D01*
X152958083Y-85152820D01*
X152477334Y-85414450D01*
X152133301Y-85840139D01*
X152114690Y-85903193D01*
X151823188Y-85466931D01*
X151369969Y-85164099D01*
X150835360Y-85057759D01*
X150300751Y-85164099D01*
X149847532Y-85466931D01*
X149565360Y-85889230D01*
X149283188Y-85466931D01*
X148829969Y-85164099D01*
X148295360Y-85057759D01*
X147760751Y-85164099D01*
X147307532Y-85466931D01*
X147025360Y-85889230D01*
X146743188Y-85466931D01*
X146289969Y-85164099D01*
X145755360Y-85057759D01*
X145220751Y-85164099D01*
X144767532Y-85466931D01*
X144464700Y-85920150D01*
X144364998Y-86421388D01*
X144084602Y-85742780D01*
X143459949Y-85117035D01*
X143087065Y-84962200D01*
X191511664Y-84962200D01*
X192482000Y-85932536D01*
X192482000Y-97078800D01*
X192534143Y-97340938D01*
X192682632Y-97563168D01*
X194996600Y-99877136D01*
X194996600Y-101253835D01*
X194884602Y-100982780D01*
X194259949Y-100357035D01*
X193443382Y-100017967D01*
X192559217Y-100017195D01*
X191742060Y-100354838D01*
X191116315Y-100979491D01*
X190777247Y-101796058D01*
X190776475Y-102680223D01*
X191114118Y-103497380D01*
X191738771Y-104123125D01*
X192555338Y-104462193D01*
X193439503Y-104462965D01*
X194256660Y-104125322D01*
X194882405Y-103500669D01*
X194996600Y-103225657D01*
X194996600Y-129193835D01*
X194884602Y-128922780D01*
X194259949Y-128297035D01*
X193443382Y-127957967D01*
X192559217Y-127957195D01*
X191742060Y-128294838D01*
X191116315Y-128919491D01*
X190777247Y-129736058D01*
X190776475Y-130620223D01*
X191114118Y-131437380D01*
X191738771Y-132063125D01*
X192555338Y-132402193D01*
X193439503Y-132402965D01*
X194256660Y-132065322D01*
X194882405Y-131440669D01*
X194996600Y-131165657D01*
X194996600Y-132482064D01*
X192682632Y-134796032D01*
X192534143Y-135018262D01*
X192482000Y-135280400D01*
X192482000Y-137237000D01*
X141964783Y-137237000D01*
X142186660Y-137145322D01*
X142812405Y-136520669D01*
X143151473Y-135704102D01*
X143152245Y-134819937D01*
X143108787Y-134714759D01*
X153502360Y-134714759D01*
X153502360Y-135805401D01*
X153608700Y-136340010D01*
X153911532Y-136793229D01*
X154364751Y-137096061D01*
X154899360Y-137202401D01*
X155433969Y-137096061D01*
X155887188Y-136793229D01*
X156169360Y-136370930D01*
X156451532Y-136793229D01*
X156904751Y-137096061D01*
X157439360Y-137202401D01*
X157973969Y-137096061D01*
X158427188Y-136793229D01*
X158709360Y-136370930D01*
X158991532Y-136793229D01*
X159444751Y-137096061D01*
X159979360Y-137202401D01*
X160513969Y-137096061D01*
X160967188Y-136793229D01*
X161249360Y-136370930D01*
X161531532Y-136793229D01*
X161984751Y-137096061D01*
X162519360Y-137202401D01*
X163053969Y-137096061D01*
X163507188Y-136793229D01*
X163789360Y-136370930D01*
X164071532Y-136793229D01*
X164524751Y-137096061D01*
X165059360Y-137202401D01*
X165593969Y-137096061D01*
X166047188Y-136793229D01*
X166338690Y-136356967D01*
X166357301Y-136420021D01*
X166701334Y-136845710D01*
X167182083Y-137107340D01*
X167256290Y-137122300D01*
X167472360Y-136999800D01*
X167472360Y-135387080D01*
X167726360Y-135387080D01*
X167726360Y-136999800D01*
X167942430Y-137122300D01*
X168016637Y-137107340D01*
X168497386Y-136845710D01*
X168841419Y-136420021D01*
X168869360Y-136325357D01*
X168897301Y-136420021D01*
X169241334Y-136845710D01*
X169722083Y-137107340D01*
X169796290Y-137122300D01*
X170012360Y-136999800D01*
X170012360Y-135387080D01*
X167726360Y-135387080D01*
X167472360Y-135387080D01*
X167452360Y-135387080D01*
X167452360Y-135133080D01*
X167472360Y-135133080D01*
X167472360Y-133520360D01*
X167726360Y-133520360D01*
X167726360Y-135133080D01*
X170012360Y-135133080D01*
X170012360Y-133520360D01*
X170266360Y-133520360D01*
X170266360Y-135133080D01*
X170286360Y-135133080D01*
X170286360Y-135387080D01*
X170266360Y-135387080D01*
X170266360Y-136999800D01*
X170482430Y-137122300D01*
X170556637Y-137107340D01*
X171037386Y-136845710D01*
X171381419Y-136420021D01*
X171400030Y-136356967D01*
X171691532Y-136793229D01*
X172144751Y-137096061D01*
X172679360Y-137202401D01*
X173213969Y-137096061D01*
X173667188Y-136793229D01*
X173970020Y-136340010D01*
X174076360Y-135805401D01*
X174076360Y-134714759D01*
X176362360Y-134714759D01*
X176362360Y-135805401D01*
X176468700Y-136340010D01*
X176771532Y-136793229D01*
X177224751Y-137096061D01*
X177759360Y-137202401D01*
X178293969Y-137096061D01*
X178747188Y-136793229D01*
X179029360Y-136370930D01*
X179311532Y-136793229D01*
X179764751Y-137096061D01*
X180299360Y-137202401D01*
X180833969Y-137096061D01*
X181287188Y-136793229D01*
X181569360Y-136370930D01*
X181851532Y-136793229D01*
X182304751Y-137096061D01*
X182839360Y-137202401D01*
X183373969Y-137096061D01*
X183827188Y-136793229D01*
X184109360Y-136370930D01*
X184391532Y-136793229D01*
X184844751Y-137096061D01*
X185379360Y-137202401D01*
X185913969Y-137096061D01*
X186367188Y-136793229D01*
X186649360Y-136370930D01*
X186931532Y-136793229D01*
X187384751Y-137096061D01*
X187919360Y-137202401D01*
X188453969Y-137096061D01*
X188907188Y-136793229D01*
X189189360Y-136370930D01*
X189471532Y-136793229D01*
X189924751Y-137096061D01*
X190459360Y-137202401D01*
X190993969Y-137096061D01*
X191447188Y-136793229D01*
X191750020Y-136340010D01*
X191856360Y-135805401D01*
X191856360Y-134714759D01*
X191750020Y-134180150D01*
X191447188Y-133726931D01*
X190993969Y-133424099D01*
X190459360Y-133317759D01*
X189924751Y-133424099D01*
X189471532Y-133726931D01*
X189189360Y-134149230D01*
X188907188Y-133726931D01*
X188453969Y-133424099D01*
X187919360Y-133317759D01*
X187384751Y-133424099D01*
X186931532Y-133726931D01*
X186649360Y-134149230D01*
X186367188Y-133726931D01*
X185913969Y-133424099D01*
X185379360Y-133317759D01*
X184844751Y-133424099D01*
X184391532Y-133726931D01*
X184109360Y-134149230D01*
X183827188Y-133726931D01*
X183373969Y-133424099D01*
X182839360Y-133317759D01*
X182304751Y-133424099D01*
X181851532Y-133726931D01*
X181569360Y-134149230D01*
X181287188Y-133726931D01*
X180833969Y-133424099D01*
X180299360Y-133317759D01*
X179764751Y-133424099D01*
X179311532Y-133726931D01*
X179029360Y-134149230D01*
X178747188Y-133726931D01*
X178293969Y-133424099D01*
X177759360Y-133317759D01*
X177224751Y-133424099D01*
X176771532Y-133726931D01*
X176468700Y-134180150D01*
X176362360Y-134714759D01*
X174076360Y-134714759D01*
X173970020Y-134180150D01*
X173667188Y-133726931D01*
X173213969Y-133424099D01*
X172679360Y-133317759D01*
X172144751Y-133424099D01*
X171691532Y-133726931D01*
X171400030Y-134163193D01*
X171381419Y-134100139D01*
X171037386Y-133674450D01*
X170556637Y-133412820D01*
X170482430Y-133397860D01*
X170266360Y-133520360D01*
X170012360Y-133520360D01*
X169796290Y-133397860D01*
X169722083Y-133412820D01*
X169241334Y-133674450D01*
X168897301Y-134100139D01*
X168869360Y-134194803D01*
X168841419Y-134100139D01*
X168497386Y-133674450D01*
X168016637Y-133412820D01*
X167942430Y-133397860D01*
X167726360Y-133520360D01*
X167472360Y-133520360D01*
X167256290Y-133397860D01*
X167182083Y-133412820D01*
X166701334Y-133674450D01*
X166357301Y-134100139D01*
X166338690Y-134163193D01*
X166047188Y-133726931D01*
X165593969Y-133424099D01*
X165059360Y-133317759D01*
X164524751Y-133424099D01*
X164071532Y-133726931D01*
X163789360Y-134149230D01*
X163507188Y-133726931D01*
X163053969Y-133424099D01*
X162519360Y-133317759D01*
X161984751Y-133424099D01*
X161531532Y-133726931D01*
X161249360Y-134149230D01*
X160967188Y-133726931D01*
X160513969Y-133424099D01*
X159979360Y-133317759D01*
X159444751Y-133424099D01*
X158991532Y-133726931D01*
X158709360Y-134149230D01*
X158427188Y-133726931D01*
X157973969Y-133424099D01*
X157439360Y-133317759D01*
X156904751Y-133424099D01*
X156451532Y-133726931D01*
X156169360Y-134149230D01*
X155887188Y-133726931D01*
X155433969Y-133424099D01*
X154899360Y-133317759D01*
X154364751Y-133424099D01*
X153911532Y-133726931D01*
X153608700Y-134180150D01*
X153502360Y-134714759D01*
X143108787Y-134714759D01*
X142814602Y-134002780D01*
X142189949Y-133377035D01*
X141373382Y-133037967D01*
X140489217Y-133037195D01*
X139672060Y-133374838D01*
X139046315Y-133999491D01*
X138707247Y-134816058D01*
X138706475Y-135700223D01*
X139044118Y-136517380D01*
X139668771Y-137143125D01*
X139894847Y-137237000D01*
X135763032Y-137237000D01*
X135918578Y-137206060D01*
X136371797Y-136903228D01*
X136674629Y-136450009D01*
X136780969Y-135915400D01*
X136674629Y-135380791D01*
X136371797Y-134927572D01*
X135918578Y-134624740D01*
X135383969Y-134518400D01*
X135329231Y-134518400D01*
X134794622Y-134624740D01*
X134341403Y-134927572D01*
X134038571Y-135380791D01*
X133932231Y-135915400D01*
X134038571Y-136450009D01*
X134341403Y-136903228D01*
X134794622Y-137206060D01*
X134950168Y-137237000D01*
X129260632Y-137237000D01*
X129416178Y-137206060D01*
X129869397Y-136903228D01*
X130172229Y-136450009D01*
X130278569Y-135915400D01*
X130172229Y-135380791D01*
X129869397Y-134927572D01*
X129416178Y-134624740D01*
X128881569Y-134518400D01*
X128826831Y-134518400D01*
X128292222Y-134624740D01*
X127839003Y-134927572D01*
X127536171Y-135380791D01*
X127507200Y-135526439D01*
X127507200Y-131754702D01*
X127654026Y-132109197D01*
X128019001Y-132514058D01*
X128511128Y-132748431D01*
X128727200Y-132626676D01*
X128727200Y-131521200D01*
X128981200Y-131521200D01*
X128981200Y-132626676D01*
X129197272Y-132748431D01*
X129689399Y-132514058D01*
X130054374Y-132109197D01*
X130208420Y-131737270D01*
X134002380Y-131737270D01*
X134156426Y-132109197D01*
X134521401Y-132514058D01*
X135013528Y-132748431D01*
X135229600Y-132626676D01*
X135229600Y-131521200D01*
X135483600Y-131521200D01*
X135483600Y-132626676D01*
X135699672Y-132748431D01*
X136191799Y-132514058D01*
X136556774Y-132109197D01*
X136710820Y-131737270D01*
X136588320Y-131521200D01*
X135483600Y-131521200D01*
X135229600Y-131521200D01*
X134124880Y-131521200D01*
X134002380Y-131737270D01*
X130208420Y-131737270D01*
X130085920Y-131521200D01*
X128981200Y-131521200D01*
X128727200Y-131521200D01*
X128707200Y-131521200D01*
X128707200Y-131314463D01*
X136898643Y-131314463D01*
X136997242Y-131581265D01*
X137606782Y-131807701D01*
X138256577Y-131783641D01*
X138745158Y-131581265D01*
X138843757Y-131314463D01*
X137871200Y-130341905D01*
X136898643Y-131314463D01*
X128707200Y-131314463D01*
X128707200Y-131267200D01*
X128727200Y-131267200D01*
X128727200Y-130161724D01*
X128981200Y-130161724D01*
X128981200Y-131267200D01*
X130085920Y-131267200D01*
X130208420Y-131051130D01*
X134002380Y-131051130D01*
X134124880Y-131267200D01*
X135229600Y-131267200D01*
X135229600Y-130161724D01*
X135483600Y-130161724D01*
X135483600Y-131267200D01*
X136588320Y-131267200D01*
X136672998Y-131117843D01*
X136719037Y-131134857D01*
X137691595Y-130162300D01*
X138050805Y-130162300D01*
X139023363Y-131134857D01*
X139290165Y-131036258D01*
X139516601Y-130426718D01*
X139492541Y-129776923D01*
X139290165Y-129288342D01*
X139023363Y-129189743D01*
X138050805Y-130162300D01*
X137691595Y-130162300D01*
X136719037Y-129189743D01*
X136452235Y-129288342D01*
X136225799Y-129897882D01*
X136241792Y-130329798D01*
X136191799Y-130274342D01*
X135699672Y-130039969D01*
X135483600Y-130161724D01*
X135229600Y-130161724D01*
X135013528Y-130039969D01*
X134521401Y-130274342D01*
X134156426Y-130679203D01*
X134002380Y-131051130D01*
X130208420Y-131051130D01*
X130054374Y-130679203D01*
X129689399Y-130274342D01*
X129197272Y-130039969D01*
X128981200Y-130161724D01*
X128727200Y-130161724D01*
X128511128Y-130039969D01*
X128019001Y-130274342D01*
X127654026Y-130679203D01*
X127507200Y-131033698D01*
X127507200Y-127780894D01*
X136223726Y-127780894D01*
X136472038Y-128381855D01*
X136931427Y-128842046D01*
X136956860Y-128852607D01*
X136898643Y-129010137D01*
X137871200Y-129982695D01*
X138843757Y-129010137D01*
X138782357Y-128843992D01*
X138783155Y-128843662D01*
X139243346Y-128384273D01*
X139492706Y-127783747D01*
X139492708Y-127780894D01*
X146383726Y-127780894D01*
X146632038Y-128381855D01*
X147065869Y-128816443D01*
X146646354Y-129235227D01*
X146396994Y-129835753D01*
X146396426Y-130485994D01*
X146644738Y-131086955D01*
X147104127Y-131547146D01*
X147704653Y-131796506D01*
X148354894Y-131797074D01*
X148955855Y-131548762D01*
X149416046Y-131089373D01*
X149665406Y-130488847D01*
X149665974Y-129838606D01*
X149417662Y-129237645D01*
X148983831Y-128803057D01*
X149403346Y-128384273D01*
X149652706Y-127783747D01*
X149653083Y-127352063D01*
X155290783Y-127352063D01*
X155389382Y-127618865D01*
X155998922Y-127845301D01*
X156648717Y-127821241D01*
X157137298Y-127618865D01*
X157235897Y-127352063D01*
X156263340Y-126379505D01*
X155290783Y-127352063D01*
X149653083Y-127352063D01*
X149653274Y-127133506D01*
X149404962Y-126532545D01*
X148945573Y-126072354D01*
X148615949Y-125935482D01*
X154617939Y-125935482D01*
X154641999Y-126585277D01*
X154844375Y-127073858D01*
X155111177Y-127172457D01*
X156083735Y-126199900D01*
X156442945Y-126199900D01*
X157415503Y-127172457D01*
X157682305Y-127073858D01*
X157908741Y-126464318D01*
X157884681Y-125814523D01*
X157682305Y-125325942D01*
X157415503Y-125227343D01*
X156442945Y-126199900D01*
X156083735Y-126199900D01*
X155111177Y-125227343D01*
X154844375Y-125325942D01*
X154617939Y-125935482D01*
X148615949Y-125935482D01*
X148345047Y-125822994D01*
X147694806Y-125822426D01*
X147093845Y-126070738D01*
X146633654Y-126530127D01*
X146384294Y-127130653D01*
X146383726Y-127780894D01*
X139492708Y-127780894D01*
X139493274Y-127133506D01*
X139244962Y-126532545D01*
X138785573Y-126072354D01*
X138185047Y-125822994D01*
X137534806Y-125822426D01*
X136933845Y-126070738D01*
X136473654Y-126530127D01*
X136224294Y-127130653D01*
X136223726Y-127780894D01*
X127507200Y-127780894D01*
X127507200Y-123553659D01*
X136728013Y-123553659D01*
X137067555Y-124375412D01*
X137695721Y-125004676D01*
X138516881Y-125345651D01*
X139406019Y-125346427D01*
X140227772Y-125006885D01*
X140499267Y-124735863D01*
X155290783Y-124735863D01*
X155348411Y-124891800D01*
X155290783Y-125047737D01*
X156263340Y-126020295D01*
X157235897Y-125047737D01*
X157178269Y-124891800D01*
X157235897Y-124735863D01*
X156263340Y-123763305D01*
X155290783Y-124735863D01*
X140499267Y-124735863D01*
X140857036Y-124378719D01*
X141198011Y-123557559D01*
X141198218Y-123319282D01*
X154617939Y-123319282D01*
X154641999Y-123969077D01*
X154844375Y-124457658D01*
X155111177Y-124556257D01*
X156083735Y-123583700D01*
X156442945Y-123583700D01*
X157415503Y-124556257D01*
X157682305Y-124457658D01*
X157886720Y-123907394D01*
X164788566Y-123907394D01*
X165036878Y-124508355D01*
X165419920Y-124892066D01*
X165038494Y-125272827D01*
X164789134Y-125873353D01*
X164788566Y-126523594D01*
X165036878Y-127124555D01*
X165496267Y-127584746D01*
X166096793Y-127834106D01*
X166747034Y-127834674D01*
X167347995Y-127586362D01*
X167365259Y-127569128D01*
X167329421Y-127749300D01*
X167435761Y-128283909D01*
X167738593Y-128737128D01*
X168191812Y-129039960D01*
X168726421Y-129146300D01*
X168781159Y-129146300D01*
X169315768Y-129039960D01*
X169768987Y-128737128D01*
X170071819Y-128283909D01*
X170178159Y-127749300D01*
X173831821Y-127749300D01*
X173938161Y-128283909D01*
X174240993Y-128737128D01*
X174694212Y-129039960D01*
X175228821Y-129146300D01*
X175283559Y-129146300D01*
X175818168Y-129039960D01*
X176271387Y-128737128D01*
X176574219Y-128283909D01*
X176680559Y-127749300D01*
X176574219Y-127214691D01*
X176271387Y-126761472D01*
X175818168Y-126458640D01*
X175283559Y-126352300D01*
X175228821Y-126352300D01*
X174694212Y-126458640D01*
X174240993Y-126761472D01*
X173938161Y-127214691D01*
X173831821Y-127749300D01*
X170178159Y-127749300D01*
X170071819Y-127214691D01*
X169768987Y-126761472D01*
X169315768Y-126458640D01*
X168781159Y-126352300D01*
X168726421Y-126352300D01*
X168191812Y-126458640D01*
X168044956Y-126556766D01*
X168057546Y-126526447D01*
X168058114Y-125876206D01*
X167809802Y-125275245D01*
X167426760Y-124891534D01*
X167808186Y-124510773D01*
X167888910Y-124316367D01*
X168191812Y-124518760D01*
X168726421Y-124625100D01*
X168781159Y-124625100D01*
X169315768Y-124518760D01*
X169768987Y-124215928D01*
X170071819Y-123762709D01*
X170178159Y-123228100D01*
X170071819Y-122693491D01*
X169768987Y-122240272D01*
X169315768Y-121937440D01*
X168781159Y-121831100D01*
X168726421Y-121831100D01*
X168191812Y-121937440D01*
X167738593Y-122240272D01*
X167599525Y-122448401D01*
X167350413Y-122198854D01*
X166749887Y-121949494D01*
X166099646Y-121948926D01*
X165498685Y-122197238D01*
X165038494Y-122656627D01*
X164789134Y-123257153D01*
X164788566Y-123907394D01*
X157886720Y-123907394D01*
X157908741Y-123848118D01*
X157884681Y-123198323D01*
X157682305Y-122709742D01*
X157415503Y-122611143D01*
X156442945Y-123583700D01*
X156083735Y-123583700D01*
X155111177Y-122611143D01*
X154844375Y-122709742D01*
X154617939Y-123319282D01*
X141198218Y-123319282D01*
X141198787Y-122668421D01*
X140859245Y-121846668D01*
X140231079Y-121217404D01*
X139409919Y-120876429D01*
X138520781Y-120875653D01*
X137699028Y-121215195D01*
X137069764Y-121843361D01*
X136728789Y-122664521D01*
X136728013Y-123553659D01*
X127507200Y-123553659D01*
X127507200Y-119115031D01*
X144428135Y-119115031D01*
X144661332Y-119679411D01*
X145042582Y-120061328D01*
X144662849Y-120440397D01*
X144428667Y-121004370D01*
X144428135Y-121615031D01*
X144661332Y-122179411D01*
X145092757Y-122611591D01*
X145656730Y-122845773D01*
X146267391Y-122846305D01*
X146831771Y-122613108D01*
X147013659Y-122431537D01*
X155290783Y-122431537D01*
X156263340Y-123404095D01*
X157235897Y-122431537D01*
X157137298Y-122164735D01*
X156527758Y-121938299D01*
X155877963Y-121962359D01*
X155389382Y-122164735D01*
X155290783Y-122431537D01*
X147013659Y-122431537D01*
X147245562Y-122200040D01*
X153989400Y-122200040D01*
X154329606Y-122132369D01*
X154618018Y-121939658D01*
X156466476Y-120091200D01*
X158306071Y-120091200D01*
X158412411Y-120625809D01*
X158715243Y-121079028D01*
X159168462Y-121381860D01*
X159703071Y-121488200D01*
X159757809Y-121488200D01*
X160292418Y-121381860D01*
X160745637Y-121079028D01*
X161048469Y-120625809D01*
X161154809Y-120091200D01*
X164808471Y-120091200D01*
X164914811Y-120625809D01*
X165217643Y-121079028D01*
X165670862Y-121381860D01*
X166205471Y-121488200D01*
X166260209Y-121488200D01*
X166794818Y-121381860D01*
X167248037Y-121079028D01*
X167493315Y-120711944D01*
X167738593Y-121079028D01*
X168191812Y-121381860D01*
X168726421Y-121488200D01*
X168781159Y-121488200D01*
X169315768Y-121381860D01*
X169768987Y-121079028D01*
X169801078Y-121031000D01*
X174208902Y-121031000D01*
X174240993Y-121079028D01*
X174694212Y-121381860D01*
X175228821Y-121488200D01*
X175283559Y-121488200D01*
X175818168Y-121381860D01*
X176271387Y-121079028D01*
X176516665Y-120711944D01*
X176761943Y-121079028D01*
X177173697Y-121354154D01*
X176915985Y-121460638D01*
X176455794Y-121920027D01*
X176303106Y-122287742D01*
X176271387Y-122240272D01*
X175818168Y-121937440D01*
X175283559Y-121831100D01*
X175228821Y-121831100D01*
X174694212Y-121937440D01*
X174240993Y-122240272D01*
X173938161Y-122693491D01*
X173831821Y-123228100D01*
X173938161Y-123762709D01*
X174240993Y-124215928D01*
X174694212Y-124518760D01*
X175228821Y-124625100D01*
X175283559Y-124625100D01*
X175818168Y-124518760D01*
X176271387Y-124215928D01*
X176522466Y-123840162D01*
X176913567Y-124231946D01*
X177514093Y-124481306D01*
X178164334Y-124481874D01*
X178765295Y-124233562D01*
X179000003Y-123999263D01*
X187028083Y-123999263D01*
X187126682Y-124266065D01*
X187736222Y-124492501D01*
X188386017Y-124468441D01*
X188874598Y-124266065D01*
X188973197Y-123999263D01*
X188000640Y-123026705D01*
X187028083Y-123999263D01*
X179000003Y-123999263D01*
X179225486Y-123774173D01*
X179474846Y-123173647D01*
X179475362Y-122582682D01*
X186355239Y-122582682D01*
X186379299Y-123232477D01*
X186581675Y-123721058D01*
X186848477Y-123819657D01*
X187821035Y-122847100D01*
X188180245Y-122847100D01*
X189152803Y-123819657D01*
X189419605Y-123721058D01*
X189646041Y-123111518D01*
X189621981Y-122461723D01*
X189419605Y-121973142D01*
X189152803Y-121874543D01*
X188180245Y-122847100D01*
X187821035Y-122847100D01*
X186848477Y-121874543D01*
X186581675Y-121973142D01*
X186355239Y-122582682D01*
X179475362Y-122582682D01*
X179475414Y-122523406D01*
X179227102Y-121922445D01*
X178999991Y-121694937D01*
X187028083Y-121694937D01*
X188000640Y-122667495D01*
X188973197Y-121694937D01*
X188874598Y-121428135D01*
X188265058Y-121201699D01*
X187615263Y-121225759D01*
X187126682Y-121428135D01*
X187028083Y-121694937D01*
X178999991Y-121694937D01*
X178767713Y-121462254D01*
X178429179Y-121321683D01*
X178792337Y-121079028D01*
X179095169Y-120625809D01*
X179201509Y-120091200D01*
X182855171Y-120091200D01*
X182961511Y-120625809D01*
X183264343Y-121079028D01*
X183717562Y-121381860D01*
X184252171Y-121488200D01*
X184306909Y-121488200D01*
X184841518Y-121381860D01*
X185294737Y-121079028D01*
X185597569Y-120625809D01*
X185703909Y-120091200D01*
X185597569Y-119556591D01*
X185294737Y-119103372D01*
X184841518Y-118800540D01*
X184306909Y-118694200D01*
X184252171Y-118694200D01*
X183717562Y-118800540D01*
X183264343Y-119103372D01*
X182961511Y-119556591D01*
X182855171Y-120091200D01*
X179201509Y-120091200D01*
X179095169Y-119556591D01*
X178792337Y-119103372D01*
X178339118Y-118800540D01*
X177804509Y-118694200D01*
X177749771Y-118694200D01*
X177215162Y-118800540D01*
X176761943Y-119103372D01*
X176516665Y-119470456D01*
X176271387Y-119103372D01*
X175818168Y-118800540D01*
X175283559Y-118694200D01*
X175228821Y-118694200D01*
X174694212Y-118800540D01*
X174240993Y-119103372D01*
X174208902Y-119151400D01*
X169801078Y-119151400D01*
X169768987Y-119103372D01*
X169315768Y-118800540D01*
X168781159Y-118694200D01*
X168726421Y-118694200D01*
X168191812Y-118800540D01*
X167738593Y-119103372D01*
X167493315Y-119470456D01*
X167248037Y-119103372D01*
X166794818Y-118800540D01*
X166260209Y-118694200D01*
X166205471Y-118694200D01*
X165670862Y-118800540D01*
X165217643Y-119103372D01*
X164914811Y-119556591D01*
X164808471Y-120091200D01*
X161154809Y-120091200D01*
X161048469Y-119556591D01*
X160745637Y-119103372D01*
X160292418Y-118800540D01*
X159757809Y-118694200D01*
X159703071Y-118694200D01*
X159168462Y-118800540D01*
X158715243Y-119103372D01*
X158412411Y-119556591D01*
X158306071Y-120091200D01*
X156466476Y-120091200D01*
X159609323Y-116948353D01*
X159703071Y-116967000D01*
X159757809Y-116967000D01*
X160292418Y-116860660D01*
X160745637Y-116557828D01*
X161048469Y-116104609D01*
X161154809Y-115570000D01*
X164808471Y-115570000D01*
X164914811Y-116104609D01*
X165217643Y-116557828D01*
X165670862Y-116860660D01*
X166205471Y-116967000D01*
X166260209Y-116967000D01*
X166794818Y-116860660D01*
X167248037Y-116557828D01*
X167493315Y-116190744D01*
X167738593Y-116557828D01*
X168191812Y-116860660D01*
X168726421Y-116967000D01*
X168781159Y-116967000D01*
X169315768Y-116860660D01*
X169768987Y-116557828D01*
X170071819Y-116104609D01*
X170178159Y-115570000D01*
X173831821Y-115570000D01*
X173938161Y-116104609D01*
X174240993Y-116557828D01*
X174694212Y-116860660D01*
X175228821Y-116967000D01*
X175283559Y-116967000D01*
X175818168Y-116860660D01*
X176271387Y-116557828D01*
X176516665Y-116190744D01*
X176761943Y-116557828D01*
X177215162Y-116860660D01*
X177749771Y-116967000D01*
X177804509Y-116967000D01*
X178339118Y-116860660D01*
X178792337Y-116557828D01*
X179095169Y-116104609D01*
X179201509Y-115570000D01*
X182855171Y-115570000D01*
X182961511Y-116104609D01*
X183264343Y-116557828D01*
X183717562Y-116860660D01*
X184252171Y-116967000D01*
X184306909Y-116967000D01*
X184841518Y-116860660D01*
X185294737Y-116557828D01*
X185597569Y-116104609D01*
X185703909Y-115570000D01*
X185597569Y-115035391D01*
X185294737Y-114582172D01*
X184841518Y-114279340D01*
X184306909Y-114173000D01*
X184252171Y-114173000D01*
X183717562Y-114279340D01*
X183264343Y-114582172D01*
X182961511Y-115035391D01*
X182855171Y-115570000D01*
X179201509Y-115570000D01*
X179095169Y-115035391D01*
X178792337Y-114582172D01*
X178339118Y-114279340D01*
X177804509Y-114173000D01*
X177749771Y-114173000D01*
X177215162Y-114279340D01*
X176761943Y-114582172D01*
X176516665Y-114949256D01*
X176271387Y-114582172D01*
X175818168Y-114279340D01*
X175283559Y-114173000D01*
X175228821Y-114173000D01*
X174694212Y-114279340D01*
X174240993Y-114582172D01*
X173938161Y-115035391D01*
X173831821Y-115570000D01*
X170178159Y-115570000D01*
X170071819Y-115035391D01*
X169768987Y-114582172D01*
X169315768Y-114279340D01*
X168781159Y-114173000D01*
X168726421Y-114173000D01*
X168191812Y-114279340D01*
X167738593Y-114582172D01*
X167493315Y-114949256D01*
X167248037Y-114582172D01*
X166946023Y-114380372D01*
X167424298Y-114182265D01*
X167522897Y-113915463D01*
X166550340Y-112942905D01*
X165577783Y-113915463D01*
X165676382Y-114182265D01*
X165844645Y-114244773D01*
X165670862Y-114279340D01*
X165217643Y-114582172D01*
X164914811Y-115035391D01*
X164808471Y-115570000D01*
X161154809Y-115570000D01*
X161048469Y-115035391D01*
X160745637Y-114582172D01*
X160292418Y-114279340D01*
X159757809Y-114173000D01*
X159703071Y-114173000D01*
X159168462Y-114279340D01*
X158715243Y-114582172D01*
X158412411Y-115035391D01*
X158306071Y-115570000D01*
X158333800Y-115709404D01*
X153621164Y-120422040D01*
X147244875Y-120422040D01*
X146884218Y-120060752D01*
X147263951Y-119681683D01*
X147498133Y-119117710D01*
X147498665Y-118507049D01*
X147265468Y-117942669D01*
X146834043Y-117510489D01*
X146825028Y-117506746D01*
X146863954Y-117391199D01*
X145963400Y-116490645D01*
X145062846Y-117391199D01*
X145101607Y-117506254D01*
X145095029Y-117508972D01*
X144662849Y-117940397D01*
X144428667Y-118504370D01*
X144428135Y-119115031D01*
X127507200Y-119115031D01*
X127507200Y-111237419D01*
X136677213Y-111237419D01*
X137016755Y-112059172D01*
X137635307Y-112678805D01*
X137069764Y-113243361D01*
X136728789Y-114064521D01*
X136728013Y-114953659D01*
X137067555Y-115775412D01*
X137695721Y-116404676D01*
X138516881Y-116745651D01*
X139406019Y-116746427D01*
X140227772Y-116406885D01*
X140564869Y-116070376D01*
X144416942Y-116070376D01*
X144442561Y-116680500D01*
X144626757Y-117125188D01*
X144883241Y-117211594D01*
X145783795Y-116311040D01*
X146143005Y-116311040D01*
X147043559Y-117211594D01*
X147300043Y-117125188D01*
X147509858Y-116551704D01*
X147484239Y-115941580D01*
X147300043Y-115496892D01*
X147043559Y-115410486D01*
X146143005Y-116311040D01*
X145783795Y-116311040D01*
X144883241Y-115410486D01*
X144626757Y-115496892D01*
X144416942Y-116070376D01*
X140564869Y-116070376D01*
X140857036Y-115778719D01*
X141084517Y-115230881D01*
X145062846Y-115230881D01*
X145963400Y-116131435D01*
X146863954Y-115230881D01*
X146777548Y-114974397D01*
X146204064Y-114764582D01*
X145593940Y-114790201D01*
X145149252Y-114974397D01*
X145062846Y-115230881D01*
X141084517Y-115230881D01*
X141198011Y-114957559D01*
X141198787Y-114068421D01*
X140859245Y-113246668D01*
X140699850Y-113086994D01*
X154755566Y-113086994D01*
X155003878Y-113687955D01*
X155463267Y-114148146D01*
X156063793Y-114397506D01*
X156714034Y-114398074D01*
X157314995Y-114149762D01*
X157775186Y-113690373D01*
X158024546Y-113089847D01*
X158025062Y-112498882D01*
X164904939Y-112498882D01*
X164928999Y-113148677D01*
X165131375Y-113637258D01*
X165398177Y-113735857D01*
X166370735Y-112763300D01*
X165398177Y-111790743D01*
X165131375Y-111889342D01*
X164904939Y-112498882D01*
X158025062Y-112498882D01*
X158025114Y-112439606D01*
X157776802Y-111838645D01*
X157549691Y-111611137D01*
X165577783Y-111611137D01*
X166550340Y-112583695D01*
X166564482Y-112569552D01*
X166744088Y-112749158D01*
X166729945Y-112763300D01*
X167702503Y-113735857D01*
X167969305Y-113637258D01*
X167987808Y-113587449D01*
X168191812Y-113723760D01*
X168726421Y-113830100D01*
X168781159Y-113830100D01*
X169315768Y-113723760D01*
X169768987Y-113420928D01*
X170071819Y-112967709D01*
X170178159Y-112433100D01*
X170162349Y-112353619D01*
X173990752Y-108525216D01*
X174240993Y-108899728D01*
X174694212Y-109202560D01*
X175228821Y-109308900D01*
X175283559Y-109308900D01*
X175339724Y-109297728D01*
X175101534Y-109871353D01*
X175100966Y-110521594D01*
X175316242Y-111042601D01*
X175283559Y-111036100D01*
X175228821Y-111036100D01*
X174694212Y-111142440D01*
X174240993Y-111445272D01*
X173938161Y-111898491D01*
X173831821Y-112433100D01*
X173938161Y-112967709D01*
X174240993Y-113420928D01*
X174694212Y-113723760D01*
X175228821Y-113830100D01*
X175283559Y-113830100D01*
X175818168Y-113723760D01*
X176271387Y-113420928D01*
X176574219Y-112967709D01*
X176680559Y-112433100D01*
X176574219Y-111898491D01*
X176529932Y-111832211D01*
X177059434Y-111832674D01*
X177660395Y-111584362D01*
X177895103Y-111350063D01*
X185923183Y-111350063D01*
X186021782Y-111616865D01*
X186631322Y-111843301D01*
X187281117Y-111819241D01*
X187769698Y-111616865D01*
X187868297Y-111350063D01*
X186895740Y-110377505D01*
X185923183Y-111350063D01*
X177895103Y-111350063D01*
X178120586Y-111124973D01*
X178369946Y-110524447D01*
X178370462Y-109933482D01*
X185250339Y-109933482D01*
X185274399Y-110583277D01*
X185476775Y-111071858D01*
X185743577Y-111170457D01*
X186716135Y-110197900D01*
X187075345Y-110197900D01*
X188047903Y-111170457D01*
X188314705Y-111071858D01*
X188541141Y-110462318D01*
X188517081Y-109812523D01*
X188314705Y-109323942D01*
X188047903Y-109225343D01*
X187075345Y-110197900D01*
X186716135Y-110197900D01*
X185743577Y-109225343D01*
X185476775Y-109323942D01*
X185250339Y-109933482D01*
X178370462Y-109933482D01*
X178370514Y-109874206D01*
X178122202Y-109273245D01*
X177895091Y-109045737D01*
X185923183Y-109045737D01*
X186895740Y-110018295D01*
X187868297Y-109045737D01*
X187769698Y-108778935D01*
X187160158Y-108552499D01*
X186510363Y-108576559D01*
X186021782Y-108778935D01*
X185923183Y-109045737D01*
X177895091Y-109045737D01*
X177662813Y-108813054D01*
X177062287Y-108563694D01*
X176496249Y-108563200D01*
X176574219Y-108446509D01*
X176680559Y-107911900D01*
X176617871Y-107596741D01*
X189062118Y-107596741D01*
X189274350Y-108110383D01*
X189666990Y-108503709D01*
X189874872Y-108590029D01*
X189669057Y-108675070D01*
X189275731Y-109067710D01*
X189062603Y-109580980D01*
X189062118Y-110136741D01*
X189274350Y-110650383D01*
X189666990Y-111043709D01*
X189874872Y-111130029D01*
X189669057Y-111215070D01*
X189275731Y-111607710D01*
X189062603Y-112120980D01*
X189062118Y-112676741D01*
X189274350Y-113190383D01*
X189666990Y-113583709D01*
X190180260Y-113796837D01*
X190736021Y-113797322D01*
X191249663Y-113585090D01*
X191642989Y-113192450D01*
X191729309Y-112984568D01*
X191814350Y-113190383D01*
X192206990Y-113583709D01*
X192720260Y-113796837D01*
X193276021Y-113797322D01*
X193789663Y-113585090D01*
X194182989Y-113192450D01*
X194396117Y-112679180D01*
X194396602Y-112123419D01*
X194184370Y-111609777D01*
X193791730Y-111216451D01*
X193583848Y-111130131D01*
X193789663Y-111045090D01*
X194182989Y-110652450D01*
X194396117Y-110139180D01*
X194396602Y-109583419D01*
X194184370Y-109069777D01*
X193791730Y-108676451D01*
X193583848Y-108590131D01*
X193789663Y-108505090D01*
X194182989Y-108112450D01*
X194396117Y-107599180D01*
X194396602Y-107043419D01*
X194184370Y-106529777D01*
X193791730Y-106136451D01*
X193278460Y-105923323D01*
X192722699Y-105922838D01*
X192209057Y-106135070D01*
X191815731Y-106527710D01*
X191729411Y-106735592D01*
X191644370Y-106529777D01*
X191251730Y-106136451D01*
X190738460Y-105923323D01*
X190182699Y-105922838D01*
X189669057Y-106135070D01*
X189275731Y-106527710D01*
X189062603Y-107040980D01*
X189062118Y-107596741D01*
X176617871Y-107596741D01*
X176574219Y-107377291D01*
X176271387Y-106924072D01*
X175818168Y-106621240D01*
X175283559Y-106514900D01*
X175228821Y-106514900D01*
X174773589Y-106605451D01*
X174773589Y-104934409D01*
X179793159Y-99914839D01*
X179872640Y-99930649D01*
X180407249Y-99824309D01*
X180860468Y-99521477D01*
X181142640Y-99099178D01*
X181424812Y-99521477D01*
X181878031Y-99824309D01*
X182412640Y-99930649D01*
X182947249Y-99824309D01*
X183400468Y-99521477D01*
X183702927Y-99068816D01*
X183832782Y-99341479D01*
X184237643Y-99706454D01*
X184609570Y-99860500D01*
X184825640Y-99738000D01*
X184825640Y-98633280D01*
X185079640Y-98633280D01*
X185079640Y-99738000D01*
X185295710Y-99860500D01*
X185667637Y-99706454D01*
X186072498Y-99341479D01*
X186306871Y-98849352D01*
X186185116Y-98633280D01*
X185079640Y-98633280D01*
X184825640Y-98633280D01*
X184805640Y-98633280D01*
X184805640Y-98379280D01*
X184825640Y-98379280D01*
X184825640Y-97274560D01*
X185079640Y-97274560D01*
X185079640Y-98379280D01*
X186185116Y-98379280D01*
X186306871Y-98163208D01*
X186072498Y-97671081D01*
X185667637Y-97306106D01*
X185295710Y-97152060D01*
X185079640Y-97274560D01*
X184825640Y-97274560D01*
X184609570Y-97152060D01*
X184237643Y-97306106D01*
X183832782Y-97671081D01*
X183702927Y-97943744D01*
X183400468Y-97491083D01*
X182947249Y-97188251D01*
X182412640Y-97081911D01*
X181878031Y-97188251D01*
X181424812Y-97491083D01*
X181142640Y-97913382D01*
X180860468Y-97491083D01*
X180407249Y-97188251D01*
X179872640Y-97081911D01*
X179338031Y-97188251D01*
X178884812Y-97491083D01*
X178581980Y-97944302D01*
X178475640Y-98478911D01*
X178475640Y-98533649D01*
X178482368Y-98567474D01*
X173169250Y-103880592D01*
X172965527Y-104185485D01*
X172893989Y-104545131D01*
X172893989Y-106963823D01*
X168814984Y-111042828D01*
X168781159Y-111036100D01*
X168726421Y-111036100D01*
X168191812Y-111142440D01*
X167738593Y-111445272D01*
X167677311Y-111536987D01*
X167637178Y-111496854D01*
X167522896Y-111611136D01*
X167424298Y-111344335D01*
X166814758Y-111117899D01*
X166164963Y-111141959D01*
X165676382Y-111344335D01*
X165577783Y-111611137D01*
X157549691Y-111611137D01*
X157317413Y-111378454D01*
X156716887Y-111129094D01*
X156066646Y-111128526D01*
X155465685Y-111376838D01*
X155005494Y-111836227D01*
X154756134Y-112436753D01*
X154755566Y-113086994D01*
X140699850Y-113086994D01*
X140240693Y-112627035D01*
X140806236Y-112062479D01*
X141147211Y-111241319D01*
X141147987Y-110352181D01*
X140808445Y-109530428D01*
X140180279Y-108901164D01*
X139359119Y-108560189D01*
X138469981Y-108559413D01*
X137648228Y-108898955D01*
X137018964Y-109527121D01*
X136677989Y-110348281D01*
X136677213Y-111237419D01*
X127507200Y-111237419D01*
X127507200Y-106798791D01*
X144377335Y-106798791D01*
X144610532Y-107363171D01*
X144991782Y-107745088D01*
X144612049Y-108124157D01*
X144377867Y-108688130D01*
X144377335Y-109298791D01*
X144610532Y-109863171D01*
X145041957Y-110295351D01*
X145605930Y-110529533D01*
X146216591Y-110530065D01*
X146780971Y-110296868D01*
X147213151Y-109865443D01*
X147447333Y-109301470D01*
X147447865Y-108690809D01*
X147214668Y-108126429D01*
X147000514Y-107911900D01*
X167329421Y-107911900D01*
X167435761Y-108446509D01*
X167738593Y-108899728D01*
X168191812Y-109202560D01*
X168726421Y-109308900D01*
X168781159Y-109308900D01*
X169315768Y-109202560D01*
X169768987Y-108899728D01*
X170071819Y-108446509D01*
X170178159Y-107911900D01*
X170071819Y-107377291D01*
X169768987Y-106924072D01*
X169315768Y-106621240D01*
X168781159Y-106514900D01*
X168726421Y-106514900D01*
X168191812Y-106621240D01*
X167738593Y-106924072D01*
X167435761Y-107377291D01*
X167329421Y-107911900D01*
X147000514Y-107911900D01*
X146833418Y-107744512D01*
X147213151Y-107365443D01*
X147447333Y-106801470D01*
X147447865Y-106190809D01*
X147302197Y-105838263D01*
X153154643Y-105838263D01*
X153253242Y-106105065D01*
X153862782Y-106331501D01*
X154512577Y-106307441D01*
X155001158Y-106105065D01*
X155099757Y-105838263D01*
X154127200Y-104865705D01*
X153154643Y-105838263D01*
X147302197Y-105838263D01*
X147214668Y-105626429D01*
X146783243Y-105194249D01*
X146774228Y-105190506D01*
X146813154Y-105074959D01*
X145912600Y-104174405D01*
X145012046Y-105074959D01*
X145050807Y-105190014D01*
X145044229Y-105192732D01*
X144612049Y-105624157D01*
X144377867Y-106188130D01*
X144377335Y-106798791D01*
X127507200Y-106798791D01*
X127507200Y-102637419D01*
X136677213Y-102637419D01*
X137016755Y-103459172D01*
X137644921Y-104088436D01*
X138466081Y-104429411D01*
X139355219Y-104430187D01*
X140176972Y-104090645D01*
X140514069Y-103754136D01*
X144366142Y-103754136D01*
X144391761Y-104364260D01*
X144575957Y-104808948D01*
X144832441Y-104895354D01*
X145732995Y-103994800D01*
X146092205Y-103994800D01*
X146992759Y-104895354D01*
X147249243Y-104808948D01*
X147390928Y-104421682D01*
X152481799Y-104421682D01*
X152505859Y-105071477D01*
X152708235Y-105560058D01*
X152975037Y-105658657D01*
X153947595Y-104686100D01*
X154306805Y-104686100D01*
X155279363Y-105658657D01*
X155546165Y-105560058D01*
X155772601Y-104950518D01*
X155748541Y-104300723D01*
X155546165Y-103812142D01*
X155279363Y-103713543D01*
X154306805Y-104686100D01*
X153947595Y-104686100D01*
X152975037Y-103713543D01*
X152708235Y-103812142D01*
X152481799Y-104421682D01*
X147390928Y-104421682D01*
X147459058Y-104235464D01*
X147433439Y-103625340D01*
X147288754Y-103276038D01*
X153154643Y-103276038D01*
X153202297Y-103404988D01*
X153154643Y-103533937D01*
X154127200Y-104506495D01*
X155099757Y-103533937D01*
X155052103Y-103404988D01*
X155099757Y-103276038D01*
X154127200Y-102303480D01*
X153154643Y-103276038D01*
X147288754Y-103276038D01*
X147249243Y-103180652D01*
X146992759Y-103094246D01*
X146092205Y-103994800D01*
X145732995Y-103994800D01*
X144832441Y-103094246D01*
X144575957Y-103180652D01*
X144366142Y-103754136D01*
X140514069Y-103754136D01*
X140806236Y-103462479D01*
X141033717Y-102914641D01*
X145012046Y-102914641D01*
X145912600Y-103815195D01*
X146813154Y-102914641D01*
X146726748Y-102658157D01*
X146153264Y-102448342D01*
X145543140Y-102473961D01*
X145098452Y-102658157D01*
X145012046Y-102914641D01*
X141033717Y-102914641D01*
X141147211Y-102641319D01*
X141147893Y-101859457D01*
X152481799Y-101859457D01*
X152505859Y-102509252D01*
X152708235Y-102997833D01*
X152975037Y-103096432D01*
X153947595Y-102123875D01*
X154306805Y-102123875D01*
X155279363Y-103096432D01*
X155546165Y-102997833D01*
X155772601Y-102388293D01*
X155748541Y-101738498D01*
X155546165Y-101249917D01*
X155279363Y-101151318D01*
X154306805Y-102123875D01*
X153947595Y-102123875D01*
X152975037Y-101151318D01*
X152708235Y-101249917D01*
X152481799Y-101859457D01*
X141147893Y-101859457D01*
X141147987Y-101752181D01*
X140808445Y-100930428D01*
X140484447Y-100605863D01*
X153154643Y-100605863D01*
X153222244Y-100788788D01*
X153154643Y-100971712D01*
X154127200Y-101944270D01*
X155099757Y-100971712D01*
X155032156Y-100788788D01*
X155099757Y-100605863D01*
X154127200Y-99633305D01*
X153154643Y-100605863D01*
X140484447Y-100605863D01*
X140180279Y-100301164D01*
X139359119Y-99960189D01*
X138469981Y-99959413D01*
X137648228Y-100298955D01*
X137018964Y-100927121D01*
X136677989Y-101748281D01*
X136677213Y-102637419D01*
X127507200Y-102637419D01*
X127507200Y-99189282D01*
X152481799Y-99189282D01*
X152505859Y-99839077D01*
X152708235Y-100327658D01*
X152975037Y-100426257D01*
X153947595Y-99453700D01*
X154306805Y-99453700D01*
X155279363Y-100426257D01*
X155546165Y-100327658D01*
X155750580Y-99777394D01*
X162652426Y-99777394D01*
X162900738Y-100378355D01*
X163310767Y-100789100D01*
X162902354Y-101196802D01*
X162652994Y-101797328D01*
X162652426Y-102447569D01*
X162900738Y-103048530D01*
X163256793Y-103405206D01*
X162902354Y-103759027D01*
X162652994Y-104359553D01*
X162652426Y-105009794D01*
X162900738Y-105610755D01*
X163360127Y-106070946D01*
X163960653Y-106320306D01*
X164610894Y-106320874D01*
X165211855Y-106072562D01*
X165672046Y-105613173D01*
X165921406Y-105012647D01*
X165921974Y-104362406D01*
X165673662Y-103761445D01*
X165317607Y-103404769D01*
X165672046Y-103050948D01*
X165921406Y-102450422D01*
X165921974Y-101800181D01*
X165673662Y-101199220D01*
X165263633Y-100788475D01*
X165672046Y-100380773D01*
X165921406Y-99780247D01*
X165921974Y-99130006D01*
X165673662Y-98529045D01*
X165214273Y-98068854D01*
X164613747Y-97819494D01*
X163963506Y-97818926D01*
X163362545Y-98067238D01*
X162902354Y-98526627D01*
X162652994Y-99127153D01*
X162652426Y-99777394D01*
X155750580Y-99777394D01*
X155772601Y-99718118D01*
X155748541Y-99068323D01*
X155546165Y-98579742D01*
X155279363Y-98481143D01*
X154306805Y-99453700D01*
X153947595Y-99453700D01*
X152975037Y-98481143D01*
X152708235Y-98579742D01*
X152481799Y-99189282D01*
X127507200Y-99189282D01*
X127507200Y-98301537D01*
X153154643Y-98301537D01*
X154127200Y-99274095D01*
X155099757Y-98301537D01*
X155001158Y-98034735D01*
X154391618Y-97808299D01*
X153741823Y-97832359D01*
X153253242Y-98034735D01*
X153154643Y-98301537D01*
X127507200Y-98301537D01*
X127507200Y-95136322D01*
X140862952Y-95136322D01*
X141058206Y-95608873D01*
X141330300Y-95881442D01*
X141059476Y-96151794D01*
X140863398Y-96624002D01*
X140862952Y-97135302D01*
X141058206Y-97607853D01*
X141419434Y-97969712D01*
X141891642Y-98165790D01*
X142402942Y-98166236D01*
X142875493Y-97970982D01*
X143237352Y-97609754D01*
X143433430Y-97137546D01*
X143433876Y-96626246D01*
X143238622Y-96153695D01*
X142966528Y-95881126D01*
X143237352Y-95610774D01*
X143433430Y-95138566D01*
X143433876Y-94627266D01*
X143238622Y-94154715D01*
X143181961Y-94097954D01*
X143851346Y-94097954D01*
X144099658Y-94698915D01*
X144489050Y-95088987D01*
X144101274Y-95476087D01*
X143851914Y-96076613D01*
X143851346Y-96726854D01*
X144099658Y-97327815D01*
X144559047Y-97788006D01*
X145159573Y-98037366D01*
X145809814Y-98037934D01*
X146410775Y-97789622D01*
X146870966Y-97330233D01*
X147120326Y-96729707D01*
X147120894Y-96079466D01*
X146872582Y-95478505D01*
X146483190Y-95088433D01*
X146870966Y-94701333D01*
X147120326Y-94100807D01*
X147120328Y-94097954D01*
X154011346Y-94097954D01*
X154259658Y-94698915D01*
X154649050Y-95088987D01*
X154261274Y-95476087D01*
X154011914Y-96076613D01*
X154011346Y-96726854D01*
X154259658Y-97327815D01*
X154719047Y-97788006D01*
X155319573Y-98037366D01*
X155969814Y-98037934D01*
X156570775Y-97789622D01*
X157030966Y-97330233D01*
X157280326Y-96729707D01*
X157280894Y-96079466D01*
X157032582Y-95478505D01*
X156643190Y-95088433D01*
X157030966Y-94701333D01*
X157227915Y-94227025D01*
X165658879Y-94227025D01*
X165658879Y-94275791D01*
X165753619Y-94752079D01*
X166023414Y-95155856D01*
X166427191Y-95425651D01*
X166903479Y-95520391D01*
X167379767Y-95425651D01*
X167783544Y-95155856D01*
X168053339Y-94752079D01*
X168148079Y-94275791D01*
X168148079Y-94227025D01*
X168107199Y-94021506D01*
X170738879Y-94021506D01*
X170738879Y-94070272D01*
X170833619Y-94546560D01*
X171103414Y-94950337D01*
X171507191Y-95220132D01*
X171983479Y-95314872D01*
X172459767Y-95220132D01*
X172863544Y-94950337D01*
X173133339Y-94546560D01*
X173214098Y-94140554D01*
X175818879Y-94140554D01*
X175818879Y-94189320D01*
X175913619Y-94665608D01*
X176183414Y-95069385D01*
X176587191Y-95339180D01*
X177063479Y-95433920D01*
X177539767Y-95339180D01*
X177943544Y-95069385D01*
X178213339Y-94665608D01*
X178308079Y-94189320D01*
X178308079Y-94140554D01*
X178213339Y-93664266D01*
X177943544Y-93260489D01*
X177539767Y-92990694D01*
X177063479Y-92895954D01*
X176587191Y-92990694D01*
X176183414Y-93260489D01*
X175913619Y-93664266D01*
X175818879Y-94140554D01*
X173214098Y-94140554D01*
X173228079Y-94070272D01*
X173228079Y-94021506D01*
X173133339Y-93545218D01*
X172863544Y-93141441D01*
X172459767Y-92871646D01*
X171983479Y-92776906D01*
X171507191Y-92871646D01*
X171103414Y-93141441D01*
X170833619Y-93545218D01*
X170738879Y-94021506D01*
X168107199Y-94021506D01*
X168053339Y-93750737D01*
X167783544Y-93346960D01*
X167379767Y-93077165D01*
X166903479Y-92982425D01*
X166427191Y-93077165D01*
X166023414Y-93346960D01*
X165753619Y-93750737D01*
X165658879Y-94227025D01*
X157227915Y-94227025D01*
X157280326Y-94100807D01*
X157280894Y-93450566D01*
X157032582Y-92849605D01*
X156655835Y-92472200D01*
X157094466Y-92034333D01*
X157238680Y-91687025D01*
X165658879Y-91687025D01*
X165658879Y-91735791D01*
X165753619Y-92212079D01*
X166023414Y-92615856D01*
X166427191Y-92885651D01*
X166903479Y-92980391D01*
X167379767Y-92885651D01*
X167783544Y-92615856D01*
X168053339Y-92212079D01*
X168148079Y-91735791D01*
X168148079Y-91687025D01*
X168107199Y-91481506D01*
X170738879Y-91481506D01*
X170738879Y-91530272D01*
X170833619Y-92006560D01*
X171103414Y-92410337D01*
X171507191Y-92680132D01*
X171983479Y-92774872D01*
X172459767Y-92680132D01*
X172863544Y-92410337D01*
X173133339Y-92006560D01*
X173214098Y-91600554D01*
X175818879Y-91600554D01*
X175818879Y-91649320D01*
X175913619Y-92125608D01*
X176183414Y-92529385D01*
X176587191Y-92799180D01*
X177063479Y-92893920D01*
X177539767Y-92799180D01*
X177943544Y-92529385D01*
X178213339Y-92125608D01*
X178308079Y-91649320D01*
X178308079Y-91600554D01*
X178213339Y-91124266D01*
X177943544Y-90720489D01*
X177539767Y-90450694D01*
X177063479Y-90355954D01*
X176587191Y-90450694D01*
X176183414Y-90720489D01*
X175913619Y-91124266D01*
X175818879Y-91600554D01*
X173214098Y-91600554D01*
X173228079Y-91530272D01*
X173228079Y-91481506D01*
X173133339Y-91005218D01*
X172863544Y-90601441D01*
X172459767Y-90331646D01*
X171983479Y-90236906D01*
X171507191Y-90331646D01*
X171103414Y-90601441D01*
X170833619Y-91005218D01*
X170738879Y-91481506D01*
X168107199Y-91481506D01*
X168053339Y-91210737D01*
X167783544Y-90806960D01*
X167379767Y-90537165D01*
X166903479Y-90442425D01*
X166427191Y-90537165D01*
X166023414Y-90806960D01*
X165753619Y-91210737D01*
X165658879Y-91687025D01*
X157238680Y-91687025D01*
X157343826Y-91433807D01*
X157344394Y-90783566D01*
X157096082Y-90182605D01*
X156636693Y-89722414D01*
X156036167Y-89473054D01*
X155385926Y-89472486D01*
X154784965Y-89720798D01*
X154324774Y-90180187D01*
X154075414Y-90780713D01*
X154074846Y-91430954D01*
X154323158Y-92031915D01*
X154699905Y-92409320D01*
X154261274Y-92847187D01*
X154011914Y-93447713D01*
X154011346Y-94097954D01*
X147120328Y-94097954D01*
X147120894Y-93450566D01*
X146872582Y-92849605D01*
X146495835Y-92472200D01*
X146934466Y-92034333D01*
X147183826Y-91433807D01*
X147184394Y-90783566D01*
X146936082Y-90182605D01*
X146476693Y-89722414D01*
X145876167Y-89473054D01*
X145225926Y-89472486D01*
X144624965Y-89720798D01*
X144164774Y-90180187D01*
X143915414Y-90780713D01*
X143914846Y-91430954D01*
X144163158Y-92031915D01*
X144539905Y-92409320D01*
X144101274Y-92847187D01*
X143851914Y-93447713D01*
X143851346Y-94097954D01*
X143181961Y-94097954D01*
X143154494Y-94070440D01*
X143158353Y-94068841D01*
X143336981Y-93890212D01*
X143433654Y-93656823D01*
X143433654Y-93166024D01*
X143274904Y-93007274D01*
X142275414Y-93007274D01*
X142275414Y-93027274D01*
X142021414Y-93027274D01*
X142021414Y-93007274D01*
X141021924Y-93007274D01*
X140863174Y-93166024D01*
X140863174Y-93656823D01*
X140959847Y-93890212D01*
X141138475Y-94068841D01*
X141142094Y-94070340D01*
X141059476Y-94152814D01*
X140863398Y-94625022D01*
X140862952Y-95136322D01*
X127507200Y-95136322D01*
X127507200Y-91135822D01*
X140862952Y-91135822D01*
X141058206Y-91608373D01*
X141140541Y-91690851D01*
X141138475Y-91691707D01*
X140959847Y-91870336D01*
X140863174Y-92103725D01*
X140863174Y-92594524D01*
X141021924Y-92753274D01*
X142021414Y-92753274D01*
X142021414Y-92733274D01*
X142275414Y-92733274D01*
X142275414Y-92753274D01*
X143274904Y-92753274D01*
X143433654Y-92594524D01*
X143433654Y-92103725D01*
X143336981Y-91870336D01*
X143158353Y-91691707D01*
X143156532Y-91690953D01*
X143237352Y-91610274D01*
X143433430Y-91138066D01*
X143433876Y-90626766D01*
X143238622Y-90154215D01*
X142877394Y-89792356D01*
X142405186Y-89596278D01*
X141893886Y-89595832D01*
X141421335Y-89791086D01*
X141059476Y-90152314D01*
X140863398Y-90624522D01*
X140862952Y-91135822D01*
X127507200Y-91135822D01*
X127507200Y-89691852D01*
X127789833Y-89691852D01*
X127888496Y-89958707D01*
X128498221Y-90185228D01*
X129148220Y-90161176D01*
X129637024Y-89958707D01*
X129735687Y-89691852D01*
X128762760Y-88718925D01*
X127789833Y-89691852D01*
X127507200Y-89691852D01*
X127507200Y-89474155D01*
X127610228Y-89512247D01*
X128583155Y-88539320D01*
X128942365Y-88539320D01*
X129915292Y-89512247D01*
X130182147Y-89413584D01*
X130386653Y-88863115D01*
X134727156Y-88863115D01*
X134975546Y-89464263D01*
X135435077Y-89924598D01*
X136035792Y-90174036D01*
X136686235Y-90174604D01*
X137287383Y-89926214D01*
X137747718Y-89466683D01*
X137997156Y-88865968D01*
X137997724Y-88215525D01*
X137749334Y-87614377D01*
X137289803Y-87154042D01*
X136689088Y-86904604D01*
X136038645Y-86904036D01*
X135437497Y-87152426D01*
X134977162Y-87611957D01*
X134727724Y-88212672D01*
X134727156Y-88863115D01*
X130386653Y-88863115D01*
X130408668Y-88803859D01*
X130384616Y-88153860D01*
X130182147Y-87665056D01*
X129915292Y-87566393D01*
X128942365Y-88539320D01*
X128583155Y-88539320D01*
X127610228Y-87566393D01*
X127507200Y-87604485D01*
X127507200Y-87386788D01*
X127789833Y-87386788D01*
X128762760Y-88359715D01*
X129735687Y-87386788D01*
X129637024Y-87119933D01*
X129027299Y-86893412D01*
X128377300Y-86917464D01*
X127888496Y-87119933D01*
X127789833Y-87386788D01*
X127507200Y-87386788D01*
X127507200Y-84962200D01*
X141311472Y-84962200D01*
X140942060Y-85114838D01*
X140942060Y-85114838D01*
G37*
X140942060Y-85114838D02*
X140316315Y-85739491D01*
X139977247Y-86556058D01*
X139976475Y-87440223D01*
X140314118Y-88257380D01*
X140938771Y-88883125D01*
X141755338Y-89222193D01*
X142639503Y-89222965D01*
X143456660Y-88885322D01*
X144082405Y-88260669D01*
X144365178Y-87579676D01*
X144464700Y-88080010D01*
X144767532Y-88533229D01*
X145220751Y-88836061D01*
X145755360Y-88942401D01*
X146289969Y-88836061D01*
X146743188Y-88533229D01*
X147025360Y-88110930D01*
X147307532Y-88533229D01*
X147760751Y-88836061D01*
X148295360Y-88942401D01*
X148829969Y-88836061D01*
X149283188Y-88533229D01*
X149565360Y-88110930D01*
X149847532Y-88533229D01*
X150300751Y-88836061D01*
X150835360Y-88942401D01*
X151369969Y-88836061D01*
X151823188Y-88533229D01*
X152114690Y-88096967D01*
X152133301Y-88160021D01*
X152477334Y-88585710D01*
X152958083Y-88847340D01*
X153032290Y-88862300D01*
X153248360Y-88739800D01*
X153248360Y-87127080D01*
X153228360Y-87127080D01*
X153228360Y-86873080D01*
X153248360Y-86873080D01*
X153248360Y-85260360D01*
X153502360Y-85260360D01*
X153502360Y-86873080D01*
X153522360Y-86873080D01*
X153522360Y-87127080D01*
X153502360Y-87127080D01*
X153502360Y-88739800D01*
X153718430Y-88862300D01*
X153792637Y-88847340D01*
X154273386Y-88585710D01*
X154617419Y-88160021D01*
X154636030Y-88096967D01*
X154927532Y-88533229D01*
X155380751Y-88836061D01*
X155915360Y-88942401D01*
X156449969Y-88836061D01*
X156903188Y-88533229D01*
X157185360Y-88110930D01*
X157467532Y-88533229D01*
X157920751Y-88836061D01*
X158455360Y-88942401D01*
X158989969Y-88836061D01*
X159443188Y-88533229D01*
X159725360Y-88110930D01*
X160007532Y-88533229D01*
X160460751Y-88836061D01*
X160995360Y-88942401D01*
X161529969Y-88836061D01*
X161983188Y-88533229D01*
X162265360Y-88110930D01*
X162547532Y-88533229D01*
X163000751Y-88836061D01*
X163535360Y-88942401D01*
X164069969Y-88836061D01*
X164523188Y-88533229D01*
X164805360Y-88110930D01*
X165087532Y-88533229D01*
X165540751Y-88836061D01*
X166075360Y-88942401D01*
X166609969Y-88836061D01*
X167063188Y-88533229D01*
X167345360Y-88110930D01*
X167627532Y-88533229D01*
X168080751Y-88836061D01*
X168615360Y-88942401D01*
X169149969Y-88836061D01*
X169603188Y-88533229D01*
X169906020Y-88080010D01*
X170012360Y-87545401D01*
X170012360Y-86454759D01*
X171282360Y-86454759D01*
X171282360Y-87545401D01*
X171388700Y-88080010D01*
X171691532Y-88533229D01*
X172144751Y-88836061D01*
X172679360Y-88942401D01*
X173213969Y-88836061D01*
X173667188Y-88533229D01*
X173949360Y-88110930D01*
X174231532Y-88533229D01*
X174684751Y-88836061D01*
X175219360Y-88942401D01*
X175753969Y-88836061D01*
X176207188Y-88533229D01*
X176489360Y-88110930D01*
X176771532Y-88533229D01*
X177224751Y-88836061D01*
X177759360Y-88942401D01*
X178293969Y-88836061D01*
X178747188Y-88533229D01*
X179029360Y-88110930D01*
X179311532Y-88533229D01*
X179764751Y-88836061D01*
X180299360Y-88942401D01*
X180833969Y-88836061D01*
X181287188Y-88533229D01*
X181569360Y-88110930D01*
X181851532Y-88533229D01*
X182304751Y-88836061D01*
X182839360Y-88942401D01*
X183373969Y-88836061D01*
X183827188Y-88533229D01*
X184109360Y-88110930D01*
X184391532Y-88533229D01*
X184844751Y-88836061D01*
X185379360Y-88942401D01*
X185913969Y-88836061D01*
X186367188Y-88533229D01*
X186649360Y-88110930D01*
X186931532Y-88533229D01*
X187384751Y-88836061D01*
X187919360Y-88942401D01*
X188453969Y-88836061D01*
X188907188Y-88533229D01*
X189189360Y-88110930D01*
X189471532Y-88533229D01*
X189924751Y-88836061D01*
X190459360Y-88942401D01*
X190993969Y-88836061D01*
X191447188Y-88533229D01*
X191750020Y-88080010D01*
X191856360Y-87545401D01*
X191856360Y-86454759D01*
X191750020Y-85920150D01*
X191447188Y-85466931D01*
X190993969Y-85164099D01*
X190459360Y-85057759D01*
X189924751Y-85164099D01*
X189471532Y-85466931D01*
X189189360Y-85889230D01*
X188907188Y-85466931D01*
X188453969Y-85164099D01*
X187919360Y-85057759D01*
X187384751Y-85164099D01*
X186931532Y-85466931D01*
X186649360Y-85889230D01*
X186367188Y-85466931D01*
X185913969Y-85164099D01*
X185379360Y-85057759D01*
X184844751Y-85164099D01*
X184391532Y-85466931D01*
X184109360Y-85889230D01*
X183827188Y-85466931D01*
X183373969Y-85164099D01*
X182839360Y-85057759D01*
X182304751Y-85164099D01*
X181851532Y-85466931D01*
X181569360Y-85889230D01*
X181287188Y-85466931D01*
X180833969Y-85164099D01*
X180299360Y-85057759D01*
X179764751Y-85164099D01*
X179311532Y-85466931D01*
X179029360Y-85889230D01*
X178747188Y-85466931D01*
X178293969Y-85164099D01*
X177759360Y-85057759D01*
X177224751Y-85164099D01*
X176771532Y-85466931D01*
X176489360Y-85889230D01*
X176207188Y-85466931D01*
X175753969Y-85164099D01*
X175219360Y-85057759D01*
X174684751Y-85164099D01*
X174231532Y-85466931D01*
X173949360Y-85889230D01*
X173667188Y-85466931D01*
X173213969Y-85164099D01*
X172679360Y-85057759D01*
X172144751Y-85164099D01*
X171691532Y-85466931D01*
X171388700Y-85920150D01*
X171282360Y-86454759D01*
X170012360Y-86454759D01*
X169906020Y-85920150D01*
X169603188Y-85466931D01*
X169149969Y-85164099D01*
X168615360Y-85057759D01*
X168080751Y-85164099D01*
X167627532Y-85466931D01*
X167345360Y-85889230D01*
X167063188Y-85466931D01*
X166609969Y-85164099D01*
X166075360Y-85057759D01*
X165540751Y-85164099D01*
X165087532Y-85466931D01*
X164805360Y-85889230D01*
X164523188Y-85466931D01*
X164069969Y-85164099D01*
X163535360Y-85057759D01*
X163000751Y-85164099D01*
X162547532Y-85466931D01*
X162265360Y-85889230D01*
X161983188Y-85466931D01*
X161529969Y-85164099D01*
X160995360Y-85057759D01*
X160460751Y-85164099D01*
X160007532Y-85466931D01*
X159725360Y-85889230D01*
X159443188Y-85466931D01*
X158989969Y-85164099D01*
X158455360Y-85057759D01*
X157920751Y-85164099D01*
X157467532Y-85466931D01*
X157185360Y-85889230D01*
X156903188Y-85466931D01*
X156449969Y-85164099D01*
X155915360Y-85057759D01*
X155380751Y-85164099D01*
X154927532Y-85466931D01*
X154636030Y-85903193D01*
X154617419Y-85840139D01*
X154273386Y-85414450D01*
X153792637Y-85152820D01*
X153718430Y-85137860D01*
X153502360Y-85260360D01*
X153248360Y-85260360D01*
X153032290Y-85137860D01*
X152958083Y-85152820D01*
X152477334Y-85414450D01*
X152133301Y-85840139D01*
X152114690Y-85903193D01*
X151823188Y-85466931D01*
X151369969Y-85164099D01*
X150835360Y-85057759D01*
X150300751Y-85164099D01*
X149847532Y-85466931D01*
X149565360Y-85889230D01*
X149283188Y-85466931D01*
X148829969Y-85164099D01*
X148295360Y-85057759D01*
X147760751Y-85164099D01*
X147307532Y-85466931D01*
X147025360Y-85889230D01*
X146743188Y-85466931D01*
X146289969Y-85164099D01*
X145755360Y-85057759D01*
X145220751Y-85164099D01*
X144767532Y-85466931D01*
X144464700Y-85920150D01*
X144364998Y-86421388D01*
X144084602Y-85742780D01*
X143459949Y-85117035D01*
X143087065Y-84962200D01*
X191511664Y-84962200D01*
X192482000Y-85932536D01*
X192482000Y-97078800D01*
X192534143Y-97340938D01*
X192682632Y-97563168D01*
X194996600Y-99877136D01*
X194996600Y-101253835D01*
X194884602Y-100982780D01*
X194259949Y-100357035D01*
X193443382Y-100017967D01*
X192559217Y-100017195D01*
X191742060Y-100354838D01*
X191116315Y-100979491D01*
X190777247Y-101796058D01*
X190776475Y-102680223D01*
X191114118Y-103497380D01*
X191738771Y-104123125D01*
X192555338Y-104462193D01*
X193439503Y-104462965D01*
X194256660Y-104125322D01*
X194882405Y-103500669D01*
X194996600Y-103225657D01*
X194996600Y-129193835D01*
X194884602Y-128922780D01*
X194259949Y-128297035D01*
X193443382Y-127957967D01*
X192559217Y-127957195D01*
X191742060Y-128294838D01*
X191116315Y-128919491D01*
X190777247Y-129736058D01*
X190776475Y-130620223D01*
X191114118Y-131437380D01*
X191738771Y-132063125D01*
X192555338Y-132402193D01*
X193439503Y-132402965D01*
X194256660Y-132065322D01*
X194882405Y-131440669D01*
X194996600Y-131165657D01*
X194996600Y-132482064D01*
X192682632Y-134796032D01*
X192534143Y-135018262D01*
X192482000Y-135280400D01*
X192482000Y-137237000D01*
X141964783Y-137237000D01*
X142186660Y-137145322D01*
X142812405Y-136520669D01*
X143151473Y-135704102D01*
X143152245Y-134819937D01*
X143108787Y-134714759D01*
X153502360Y-134714759D01*
X153502360Y-135805401D01*
X153608700Y-136340010D01*
X153911532Y-136793229D01*
X154364751Y-137096061D01*
X154899360Y-137202401D01*
X155433969Y-137096061D01*
X155887188Y-136793229D01*
X156169360Y-136370930D01*
X156451532Y-136793229D01*
X156904751Y-137096061D01*
X157439360Y-137202401D01*
X157973969Y-137096061D01*
X158427188Y-136793229D01*
X158709360Y-136370930D01*
X158991532Y-136793229D01*
X159444751Y-137096061D01*
X159979360Y-137202401D01*
X160513969Y-137096061D01*
X160967188Y-136793229D01*
X161249360Y-136370930D01*
X161531532Y-136793229D01*
X161984751Y-137096061D01*
X162519360Y-137202401D01*
X163053969Y-137096061D01*
X163507188Y-136793229D01*
X163789360Y-136370930D01*
X164071532Y-136793229D01*
X164524751Y-137096061D01*
X165059360Y-137202401D01*
X165593969Y-137096061D01*
X166047188Y-136793229D01*
X166338690Y-136356967D01*
X166357301Y-136420021D01*
X166701334Y-136845710D01*
X167182083Y-137107340D01*
X167256290Y-137122300D01*
X167472360Y-136999800D01*
X167472360Y-135387080D01*
X167726360Y-135387080D01*
X167726360Y-136999800D01*
X167942430Y-137122300D01*
X168016637Y-137107340D01*
X168497386Y-136845710D01*
X168841419Y-136420021D01*
X168869360Y-136325357D01*
X168897301Y-136420021D01*
X169241334Y-136845710D01*
X169722083Y-137107340D01*
X169796290Y-137122300D01*
X170012360Y-136999800D01*
X170012360Y-135387080D01*
X167726360Y-135387080D01*
X167472360Y-135387080D01*
X167452360Y-135387080D01*
X167452360Y-135133080D01*
X167472360Y-135133080D01*
X167472360Y-133520360D01*
X167726360Y-133520360D01*
X167726360Y-135133080D01*
X170012360Y-135133080D01*
X170012360Y-133520360D01*
X170266360Y-133520360D01*
X170266360Y-135133080D01*
X170286360Y-135133080D01*
X170286360Y-135387080D01*
X170266360Y-135387080D01*
X170266360Y-136999800D01*
X170482430Y-137122300D01*
X170556637Y-137107340D01*
X171037386Y-136845710D01*
X171381419Y-136420021D01*
X171400030Y-136356967D01*
X171691532Y-136793229D01*
X172144751Y-137096061D01*
X172679360Y-137202401D01*
X173213969Y-137096061D01*
X173667188Y-136793229D01*
X173970020Y-136340010D01*
X174076360Y-135805401D01*
X174076360Y-134714759D01*
X176362360Y-134714759D01*
X176362360Y-135805401D01*
X176468700Y-136340010D01*
X176771532Y-136793229D01*
X177224751Y-137096061D01*
X177759360Y-137202401D01*
X178293969Y-137096061D01*
X178747188Y-136793229D01*
X179029360Y-136370930D01*
X179311532Y-136793229D01*
X179764751Y-137096061D01*
X180299360Y-137202401D01*
X180833969Y-137096061D01*
X181287188Y-136793229D01*
X181569360Y-136370930D01*
X181851532Y-136793229D01*
X182304751Y-137096061D01*
X182839360Y-137202401D01*
X183373969Y-137096061D01*
X183827188Y-136793229D01*
X184109360Y-136370930D01*
X184391532Y-136793229D01*
X184844751Y-137096061D01*
X185379360Y-137202401D01*
X185913969Y-137096061D01*
X186367188Y-136793229D01*
X186649360Y-136370930D01*
X186931532Y-136793229D01*
X187384751Y-137096061D01*
X187919360Y-137202401D01*
X188453969Y-137096061D01*
X188907188Y-136793229D01*
X189189360Y-136370930D01*
X189471532Y-136793229D01*
X189924751Y-137096061D01*
X190459360Y-137202401D01*
X190993969Y-137096061D01*
X191447188Y-136793229D01*
X191750020Y-136340010D01*
X191856360Y-135805401D01*
X191856360Y-134714759D01*
X191750020Y-134180150D01*
X191447188Y-133726931D01*
X190993969Y-133424099D01*
X190459360Y-133317759D01*
X189924751Y-133424099D01*
X189471532Y-133726931D01*
X189189360Y-134149230D01*
X188907188Y-133726931D01*
X188453969Y-133424099D01*
X187919360Y-133317759D01*
X187384751Y-133424099D01*
X186931532Y-133726931D01*
X186649360Y-134149230D01*
X186367188Y-133726931D01*
X185913969Y-133424099D01*
X185379360Y-133317759D01*
X184844751Y-133424099D01*
X184391532Y-133726931D01*
X184109360Y-134149230D01*
X183827188Y-133726931D01*
X183373969Y-133424099D01*
X182839360Y-133317759D01*
X182304751Y-133424099D01*
X181851532Y-133726931D01*
X181569360Y-134149230D01*
X181287188Y-133726931D01*
X180833969Y-133424099D01*
X180299360Y-133317759D01*
X179764751Y-133424099D01*
X179311532Y-133726931D01*
X179029360Y-134149230D01*
X178747188Y-133726931D01*
X178293969Y-133424099D01*
X177759360Y-133317759D01*
X177224751Y-133424099D01*
X176771532Y-133726931D01*
X176468700Y-134180150D01*
X176362360Y-134714759D01*
X174076360Y-134714759D01*
X173970020Y-134180150D01*
X173667188Y-133726931D01*
X173213969Y-133424099D01*
X172679360Y-133317759D01*
X172144751Y-133424099D01*
X171691532Y-133726931D01*
X171400030Y-134163193D01*
X171381419Y-134100139D01*
X171037386Y-133674450D01*
X170556637Y-133412820D01*
X170482430Y-133397860D01*
X170266360Y-133520360D01*
X170012360Y-133520360D01*
X169796290Y-133397860D01*
X169722083Y-133412820D01*
X169241334Y-133674450D01*
X168897301Y-134100139D01*
X168869360Y-134194803D01*
X168841419Y-134100139D01*
X168497386Y-133674450D01*
X168016637Y-133412820D01*
X167942430Y-133397860D01*
X167726360Y-133520360D01*
X167472360Y-133520360D01*
X167256290Y-133397860D01*
X167182083Y-133412820D01*
X166701334Y-133674450D01*
X166357301Y-134100139D01*
X166338690Y-134163193D01*
X166047188Y-133726931D01*
X165593969Y-133424099D01*
X165059360Y-133317759D01*
X164524751Y-133424099D01*
X164071532Y-133726931D01*
X163789360Y-134149230D01*
X163507188Y-133726931D01*
X163053969Y-133424099D01*
X162519360Y-133317759D01*
X161984751Y-133424099D01*
X161531532Y-133726931D01*
X161249360Y-134149230D01*
X160967188Y-133726931D01*
X160513969Y-133424099D01*
X159979360Y-133317759D01*
X159444751Y-133424099D01*
X158991532Y-133726931D01*
X158709360Y-134149230D01*
X158427188Y-133726931D01*
X157973969Y-133424099D01*
X157439360Y-133317759D01*
X156904751Y-133424099D01*
X156451532Y-133726931D01*
X156169360Y-134149230D01*
X155887188Y-133726931D01*
X155433969Y-133424099D01*
X154899360Y-133317759D01*
X154364751Y-133424099D01*
X153911532Y-133726931D01*
X153608700Y-134180150D01*
X153502360Y-134714759D01*
X143108787Y-134714759D01*
X142814602Y-134002780D01*
X142189949Y-133377035D01*
X141373382Y-133037967D01*
X140489217Y-133037195D01*
X139672060Y-133374838D01*
X139046315Y-133999491D01*
X138707247Y-134816058D01*
X138706475Y-135700223D01*
X139044118Y-136517380D01*
X139668771Y-137143125D01*
X139894847Y-137237000D01*
X135763032Y-137237000D01*
X135918578Y-137206060D01*
X136371797Y-136903228D01*
X136674629Y-136450009D01*
X136780969Y-135915400D01*
X136674629Y-135380791D01*
X136371797Y-134927572D01*
X135918578Y-134624740D01*
X135383969Y-134518400D01*
X135329231Y-134518400D01*
X134794622Y-134624740D01*
X134341403Y-134927572D01*
X134038571Y-135380791D01*
X133932231Y-135915400D01*
X134038571Y-136450009D01*
X134341403Y-136903228D01*
X134794622Y-137206060D01*
X134950168Y-137237000D01*
X129260632Y-137237000D01*
X129416178Y-137206060D01*
X129869397Y-136903228D01*
X130172229Y-136450009D01*
X130278569Y-135915400D01*
X130172229Y-135380791D01*
X129869397Y-134927572D01*
X129416178Y-134624740D01*
X128881569Y-134518400D01*
X128826831Y-134518400D01*
X128292222Y-134624740D01*
X127839003Y-134927572D01*
X127536171Y-135380791D01*
X127507200Y-135526439D01*
X127507200Y-131754702D01*
X127654026Y-132109197D01*
X128019001Y-132514058D01*
X128511128Y-132748431D01*
X128727200Y-132626676D01*
X128727200Y-131521200D01*
X128981200Y-131521200D01*
X128981200Y-132626676D01*
X129197272Y-132748431D01*
X129689399Y-132514058D01*
X130054374Y-132109197D01*
X130208420Y-131737270D01*
X134002380Y-131737270D01*
X134156426Y-132109197D01*
X134521401Y-132514058D01*
X135013528Y-132748431D01*
X135229600Y-132626676D01*
X135229600Y-131521200D01*
X135483600Y-131521200D01*
X135483600Y-132626676D01*
X135699672Y-132748431D01*
X136191799Y-132514058D01*
X136556774Y-132109197D01*
X136710820Y-131737270D01*
X136588320Y-131521200D01*
X135483600Y-131521200D01*
X135229600Y-131521200D01*
X134124880Y-131521200D01*
X134002380Y-131737270D01*
X130208420Y-131737270D01*
X130085920Y-131521200D01*
X128981200Y-131521200D01*
X128727200Y-131521200D01*
X128707200Y-131521200D01*
X128707200Y-131314463D01*
X136898643Y-131314463D01*
X136997242Y-131581265D01*
X137606782Y-131807701D01*
X138256577Y-131783641D01*
X138745158Y-131581265D01*
X138843757Y-131314463D01*
X137871200Y-130341905D01*
X136898643Y-131314463D01*
X128707200Y-131314463D01*
X128707200Y-131267200D01*
X128727200Y-131267200D01*
X128727200Y-130161724D01*
X128981200Y-130161724D01*
X128981200Y-131267200D01*
X130085920Y-131267200D01*
X130208420Y-131051130D01*
X134002380Y-131051130D01*
X134124880Y-131267200D01*
X135229600Y-131267200D01*
X135229600Y-130161724D01*
X135483600Y-130161724D01*
X135483600Y-131267200D01*
X136588320Y-131267200D01*
X136672998Y-131117843D01*
X136719037Y-131134857D01*
X137691595Y-130162300D01*
X138050805Y-130162300D01*
X139023363Y-131134857D01*
X139290165Y-131036258D01*
X139516601Y-130426718D01*
X139492541Y-129776923D01*
X139290165Y-129288342D01*
X139023363Y-129189743D01*
X138050805Y-130162300D01*
X137691595Y-130162300D01*
X136719037Y-129189743D01*
X136452235Y-129288342D01*
X136225799Y-129897882D01*
X136241792Y-130329798D01*
X136191799Y-130274342D01*
X135699672Y-130039969D01*
X135483600Y-130161724D01*
X135229600Y-130161724D01*
X135013528Y-130039969D01*
X134521401Y-130274342D01*
X134156426Y-130679203D01*
X134002380Y-131051130D01*
X130208420Y-131051130D01*
X130054374Y-130679203D01*
X129689399Y-130274342D01*
X129197272Y-130039969D01*
X128981200Y-130161724D01*
X128727200Y-130161724D01*
X128511128Y-130039969D01*
X128019001Y-130274342D01*
X127654026Y-130679203D01*
X127507200Y-131033698D01*
X127507200Y-127780894D01*
X136223726Y-127780894D01*
X136472038Y-128381855D01*
X136931427Y-128842046D01*
X136956860Y-128852607D01*
X136898643Y-129010137D01*
X137871200Y-129982695D01*
X138843757Y-129010137D01*
X138782357Y-128843992D01*
X138783155Y-128843662D01*
X139243346Y-128384273D01*
X139492706Y-127783747D01*
X139492708Y-127780894D01*
X146383726Y-127780894D01*
X146632038Y-128381855D01*
X147065869Y-128816443D01*
X146646354Y-129235227D01*
X146396994Y-129835753D01*
X146396426Y-130485994D01*
X146644738Y-131086955D01*
X147104127Y-131547146D01*
X147704653Y-131796506D01*
X148354894Y-131797074D01*
X148955855Y-131548762D01*
X149416046Y-131089373D01*
X149665406Y-130488847D01*
X149665974Y-129838606D01*
X149417662Y-129237645D01*
X148983831Y-128803057D01*
X149403346Y-128384273D01*
X149652706Y-127783747D01*
X149653083Y-127352063D01*
X155290783Y-127352063D01*
X155389382Y-127618865D01*
X155998922Y-127845301D01*
X156648717Y-127821241D01*
X157137298Y-127618865D01*
X157235897Y-127352063D01*
X156263340Y-126379505D01*
X155290783Y-127352063D01*
X149653083Y-127352063D01*
X149653274Y-127133506D01*
X149404962Y-126532545D01*
X148945573Y-126072354D01*
X148615949Y-125935482D01*
X154617939Y-125935482D01*
X154641999Y-126585277D01*
X154844375Y-127073858D01*
X155111177Y-127172457D01*
X156083735Y-126199900D01*
X156442945Y-126199900D01*
X157415503Y-127172457D01*
X157682305Y-127073858D01*
X157908741Y-126464318D01*
X157884681Y-125814523D01*
X157682305Y-125325942D01*
X157415503Y-125227343D01*
X156442945Y-126199900D01*
X156083735Y-126199900D01*
X155111177Y-125227343D01*
X154844375Y-125325942D01*
X154617939Y-125935482D01*
X148615949Y-125935482D01*
X148345047Y-125822994D01*
X147694806Y-125822426D01*
X147093845Y-126070738D01*
X146633654Y-126530127D01*
X146384294Y-127130653D01*
X146383726Y-127780894D01*
X139492708Y-127780894D01*
X139493274Y-127133506D01*
X139244962Y-126532545D01*
X138785573Y-126072354D01*
X138185047Y-125822994D01*
X137534806Y-125822426D01*
X136933845Y-126070738D01*
X136473654Y-126530127D01*
X136224294Y-127130653D01*
X136223726Y-127780894D01*
X127507200Y-127780894D01*
X127507200Y-123553659D01*
X136728013Y-123553659D01*
X137067555Y-124375412D01*
X137695721Y-125004676D01*
X138516881Y-125345651D01*
X139406019Y-125346427D01*
X140227772Y-125006885D01*
X140499267Y-124735863D01*
X155290783Y-124735863D01*
X155348411Y-124891800D01*
X155290783Y-125047737D01*
X156263340Y-126020295D01*
X157235897Y-125047737D01*
X157178269Y-124891800D01*
X157235897Y-124735863D01*
X156263340Y-123763305D01*
X155290783Y-124735863D01*
X140499267Y-124735863D01*
X140857036Y-124378719D01*
X141198011Y-123557559D01*
X141198218Y-123319282D01*
X154617939Y-123319282D01*
X154641999Y-123969077D01*
X154844375Y-124457658D01*
X155111177Y-124556257D01*
X156083735Y-123583700D01*
X156442945Y-123583700D01*
X157415503Y-124556257D01*
X157682305Y-124457658D01*
X157886720Y-123907394D01*
X164788566Y-123907394D01*
X165036878Y-124508355D01*
X165419920Y-124892066D01*
X165038494Y-125272827D01*
X164789134Y-125873353D01*
X164788566Y-126523594D01*
X165036878Y-127124555D01*
X165496267Y-127584746D01*
X166096793Y-127834106D01*
X166747034Y-127834674D01*
X167347995Y-127586362D01*
X167365259Y-127569128D01*
X167329421Y-127749300D01*
X167435761Y-128283909D01*
X167738593Y-128737128D01*
X168191812Y-129039960D01*
X168726421Y-129146300D01*
X168781159Y-129146300D01*
X169315768Y-129039960D01*
X169768987Y-128737128D01*
X170071819Y-128283909D01*
X170178159Y-127749300D01*
X173831821Y-127749300D01*
X173938161Y-128283909D01*
X174240993Y-128737128D01*
X174694212Y-129039960D01*
X175228821Y-129146300D01*
X175283559Y-129146300D01*
X175818168Y-129039960D01*
X176271387Y-128737128D01*
X176574219Y-128283909D01*
X176680559Y-127749300D01*
X176574219Y-127214691D01*
X176271387Y-126761472D01*
X175818168Y-126458640D01*
X175283559Y-126352300D01*
X175228821Y-126352300D01*
X174694212Y-126458640D01*
X174240993Y-126761472D01*
X173938161Y-127214691D01*
X173831821Y-127749300D01*
X170178159Y-127749300D01*
X170071819Y-127214691D01*
X169768987Y-126761472D01*
X169315768Y-126458640D01*
X168781159Y-126352300D01*
X168726421Y-126352300D01*
X168191812Y-126458640D01*
X168044956Y-126556766D01*
X168057546Y-126526447D01*
X168058114Y-125876206D01*
X167809802Y-125275245D01*
X167426760Y-124891534D01*
X167808186Y-124510773D01*
X167888910Y-124316367D01*
X168191812Y-124518760D01*
X168726421Y-124625100D01*
X168781159Y-124625100D01*
X169315768Y-124518760D01*
X169768987Y-124215928D01*
X170071819Y-123762709D01*
X170178159Y-123228100D01*
X170071819Y-122693491D01*
X169768987Y-122240272D01*
X169315768Y-121937440D01*
X168781159Y-121831100D01*
X168726421Y-121831100D01*
X168191812Y-121937440D01*
X167738593Y-122240272D01*
X167599525Y-122448401D01*
X167350413Y-122198854D01*
X166749887Y-121949494D01*
X166099646Y-121948926D01*
X165498685Y-122197238D01*
X165038494Y-122656627D01*
X164789134Y-123257153D01*
X164788566Y-123907394D01*
X157886720Y-123907394D01*
X157908741Y-123848118D01*
X157884681Y-123198323D01*
X157682305Y-122709742D01*
X157415503Y-122611143D01*
X156442945Y-123583700D01*
X156083735Y-123583700D01*
X155111177Y-122611143D01*
X154844375Y-122709742D01*
X154617939Y-123319282D01*
X141198218Y-123319282D01*
X141198787Y-122668421D01*
X140859245Y-121846668D01*
X140231079Y-121217404D01*
X139409919Y-120876429D01*
X138520781Y-120875653D01*
X137699028Y-121215195D01*
X137069764Y-121843361D01*
X136728789Y-122664521D01*
X136728013Y-123553659D01*
X127507200Y-123553659D01*
X127507200Y-119115031D01*
X144428135Y-119115031D01*
X144661332Y-119679411D01*
X145042582Y-120061328D01*
X144662849Y-120440397D01*
X144428667Y-121004370D01*
X144428135Y-121615031D01*
X144661332Y-122179411D01*
X145092757Y-122611591D01*
X145656730Y-122845773D01*
X146267391Y-122846305D01*
X146831771Y-122613108D01*
X147013659Y-122431537D01*
X155290783Y-122431537D01*
X156263340Y-123404095D01*
X157235897Y-122431537D01*
X157137298Y-122164735D01*
X156527758Y-121938299D01*
X155877963Y-121962359D01*
X155389382Y-122164735D01*
X155290783Y-122431537D01*
X147013659Y-122431537D01*
X147245562Y-122200040D01*
X153989400Y-122200040D01*
X154329606Y-122132369D01*
X154618018Y-121939658D01*
X156466476Y-120091200D01*
X158306071Y-120091200D01*
X158412411Y-120625809D01*
X158715243Y-121079028D01*
X159168462Y-121381860D01*
X159703071Y-121488200D01*
X159757809Y-121488200D01*
X160292418Y-121381860D01*
X160745637Y-121079028D01*
X161048469Y-120625809D01*
X161154809Y-120091200D01*
X164808471Y-120091200D01*
X164914811Y-120625809D01*
X165217643Y-121079028D01*
X165670862Y-121381860D01*
X166205471Y-121488200D01*
X166260209Y-121488200D01*
X166794818Y-121381860D01*
X167248037Y-121079028D01*
X167493315Y-120711944D01*
X167738593Y-121079028D01*
X168191812Y-121381860D01*
X168726421Y-121488200D01*
X168781159Y-121488200D01*
X169315768Y-121381860D01*
X169768987Y-121079028D01*
X169801078Y-121031000D01*
X174208902Y-121031000D01*
X174240993Y-121079028D01*
X174694212Y-121381860D01*
X175228821Y-121488200D01*
X175283559Y-121488200D01*
X175818168Y-121381860D01*
X176271387Y-121079028D01*
X176516665Y-120711944D01*
X176761943Y-121079028D01*
X177173697Y-121354154D01*
X176915985Y-121460638D01*
X176455794Y-121920027D01*
X176303106Y-122287742D01*
X176271387Y-122240272D01*
X175818168Y-121937440D01*
X175283559Y-121831100D01*
X175228821Y-121831100D01*
X174694212Y-121937440D01*
X174240993Y-122240272D01*
X173938161Y-122693491D01*
X173831821Y-123228100D01*
X173938161Y-123762709D01*
X174240993Y-124215928D01*
X174694212Y-124518760D01*
X175228821Y-124625100D01*
X175283559Y-124625100D01*
X175818168Y-124518760D01*
X176271387Y-124215928D01*
X176522466Y-123840162D01*
X176913567Y-124231946D01*
X177514093Y-124481306D01*
X178164334Y-124481874D01*
X178765295Y-124233562D01*
X179000003Y-123999263D01*
X187028083Y-123999263D01*
X187126682Y-124266065D01*
X187736222Y-124492501D01*
X188386017Y-124468441D01*
X188874598Y-124266065D01*
X188973197Y-123999263D01*
X188000640Y-123026705D01*
X187028083Y-123999263D01*
X179000003Y-123999263D01*
X179225486Y-123774173D01*
X179474846Y-123173647D01*
X179475362Y-122582682D01*
X186355239Y-122582682D01*
X186379299Y-123232477D01*
X186581675Y-123721058D01*
X186848477Y-123819657D01*
X187821035Y-122847100D01*
X188180245Y-122847100D01*
X189152803Y-123819657D01*
X189419605Y-123721058D01*
X189646041Y-123111518D01*
X189621981Y-122461723D01*
X189419605Y-121973142D01*
X189152803Y-121874543D01*
X188180245Y-122847100D01*
X187821035Y-122847100D01*
X186848477Y-121874543D01*
X186581675Y-121973142D01*
X186355239Y-122582682D01*
X179475362Y-122582682D01*
X179475414Y-122523406D01*
X179227102Y-121922445D01*
X178999991Y-121694937D01*
X187028083Y-121694937D01*
X188000640Y-122667495D01*
X188973197Y-121694937D01*
X188874598Y-121428135D01*
X188265058Y-121201699D01*
X187615263Y-121225759D01*
X187126682Y-121428135D01*
X187028083Y-121694937D01*
X178999991Y-121694937D01*
X178767713Y-121462254D01*
X178429179Y-121321683D01*
X178792337Y-121079028D01*
X179095169Y-120625809D01*
X179201509Y-120091200D01*
X182855171Y-120091200D01*
X182961511Y-120625809D01*
X183264343Y-121079028D01*
X183717562Y-121381860D01*
X184252171Y-121488200D01*
X184306909Y-121488200D01*
X184841518Y-121381860D01*
X185294737Y-121079028D01*
X185597569Y-120625809D01*
X185703909Y-120091200D01*
X185597569Y-119556591D01*
X185294737Y-119103372D01*
X184841518Y-118800540D01*
X184306909Y-118694200D01*
X184252171Y-118694200D01*
X183717562Y-118800540D01*
X183264343Y-119103372D01*
X182961511Y-119556591D01*
X182855171Y-120091200D01*
X179201509Y-120091200D01*
X179095169Y-119556591D01*
X178792337Y-119103372D01*
X178339118Y-118800540D01*
X177804509Y-118694200D01*
X177749771Y-118694200D01*
X177215162Y-118800540D01*
X176761943Y-119103372D01*
X176516665Y-119470456D01*
X176271387Y-119103372D01*
X175818168Y-118800540D01*
X175283559Y-118694200D01*
X175228821Y-118694200D01*
X174694212Y-118800540D01*
X174240993Y-119103372D01*
X174208902Y-119151400D01*
X169801078Y-119151400D01*
X169768987Y-119103372D01*
X169315768Y-118800540D01*
X168781159Y-118694200D01*
X168726421Y-118694200D01*
X168191812Y-118800540D01*
X167738593Y-119103372D01*
X167493315Y-119470456D01*
X167248037Y-119103372D01*
X166794818Y-118800540D01*
X166260209Y-118694200D01*
X166205471Y-118694200D01*
X165670862Y-118800540D01*
X165217643Y-119103372D01*
X164914811Y-119556591D01*
X164808471Y-120091200D01*
X161154809Y-120091200D01*
X161048469Y-119556591D01*
X160745637Y-119103372D01*
X160292418Y-118800540D01*
X159757809Y-118694200D01*
X159703071Y-118694200D01*
X159168462Y-118800540D01*
X158715243Y-119103372D01*
X158412411Y-119556591D01*
X158306071Y-120091200D01*
X156466476Y-120091200D01*
X159609323Y-116948353D01*
X159703071Y-116967000D01*
X159757809Y-116967000D01*
X160292418Y-116860660D01*
X160745637Y-116557828D01*
X161048469Y-116104609D01*
X161154809Y-115570000D01*
X164808471Y-115570000D01*
X164914811Y-116104609D01*
X165217643Y-116557828D01*
X165670862Y-116860660D01*
X166205471Y-116967000D01*
X166260209Y-116967000D01*
X166794818Y-116860660D01*
X167248037Y-116557828D01*
X167493315Y-116190744D01*
X167738593Y-116557828D01*
X168191812Y-116860660D01*
X168726421Y-116967000D01*
X168781159Y-116967000D01*
X169315768Y-116860660D01*
X169768987Y-116557828D01*
X170071819Y-116104609D01*
X170178159Y-115570000D01*
X173831821Y-115570000D01*
X173938161Y-116104609D01*
X174240993Y-116557828D01*
X174694212Y-116860660D01*
X175228821Y-116967000D01*
X175283559Y-116967000D01*
X175818168Y-116860660D01*
X176271387Y-116557828D01*
X176516665Y-116190744D01*
X176761943Y-116557828D01*
X177215162Y-116860660D01*
X177749771Y-116967000D01*
X177804509Y-116967000D01*
X178339118Y-116860660D01*
X178792337Y-116557828D01*
X179095169Y-116104609D01*
X179201509Y-115570000D01*
X182855171Y-115570000D01*
X182961511Y-116104609D01*
X183264343Y-116557828D01*
X183717562Y-116860660D01*
X184252171Y-116967000D01*
X184306909Y-116967000D01*
X184841518Y-116860660D01*
X185294737Y-116557828D01*
X185597569Y-116104609D01*
X185703909Y-115570000D01*
X185597569Y-115035391D01*
X185294737Y-114582172D01*
X184841518Y-114279340D01*
X184306909Y-114173000D01*
X184252171Y-114173000D01*
X183717562Y-114279340D01*
X183264343Y-114582172D01*
X182961511Y-115035391D01*
X182855171Y-115570000D01*
X179201509Y-115570000D01*
X179095169Y-115035391D01*
X178792337Y-114582172D01*
X178339118Y-114279340D01*
X177804509Y-114173000D01*
X177749771Y-114173000D01*
X177215162Y-114279340D01*
X176761943Y-114582172D01*
X176516665Y-114949256D01*
X176271387Y-114582172D01*
X175818168Y-114279340D01*
X175283559Y-114173000D01*
X175228821Y-114173000D01*
X174694212Y-114279340D01*
X174240993Y-114582172D01*
X173938161Y-115035391D01*
X173831821Y-115570000D01*
X170178159Y-115570000D01*
X170071819Y-115035391D01*
X169768987Y-114582172D01*
X169315768Y-114279340D01*
X168781159Y-114173000D01*
X168726421Y-114173000D01*
X168191812Y-114279340D01*
X167738593Y-114582172D01*
X167493315Y-114949256D01*
X167248037Y-114582172D01*
X166946023Y-114380372D01*
X167424298Y-114182265D01*
X167522897Y-113915463D01*
X166550340Y-112942905D01*
X165577783Y-113915463D01*
X165676382Y-114182265D01*
X165844645Y-114244773D01*
X165670862Y-114279340D01*
X165217643Y-114582172D01*
X164914811Y-115035391D01*
X164808471Y-115570000D01*
X161154809Y-115570000D01*
X161048469Y-115035391D01*
X160745637Y-114582172D01*
X160292418Y-114279340D01*
X159757809Y-114173000D01*
X159703071Y-114173000D01*
X159168462Y-114279340D01*
X158715243Y-114582172D01*
X158412411Y-115035391D01*
X158306071Y-115570000D01*
X158333800Y-115709404D01*
X153621164Y-120422040D01*
X147244875Y-120422040D01*
X146884218Y-120060752D01*
X147263951Y-119681683D01*
X147498133Y-119117710D01*
X147498665Y-118507049D01*
X147265468Y-117942669D01*
X146834043Y-117510489D01*
X146825028Y-117506746D01*
X146863954Y-117391199D01*
X145963400Y-116490645D01*
X145062846Y-117391199D01*
X145101607Y-117506254D01*
X145095029Y-117508972D01*
X144662849Y-117940397D01*
X144428667Y-118504370D01*
X144428135Y-119115031D01*
X127507200Y-119115031D01*
X127507200Y-111237419D01*
X136677213Y-111237419D01*
X137016755Y-112059172D01*
X137635307Y-112678805D01*
X137069764Y-113243361D01*
X136728789Y-114064521D01*
X136728013Y-114953659D01*
X137067555Y-115775412D01*
X137695721Y-116404676D01*
X138516881Y-116745651D01*
X139406019Y-116746427D01*
X140227772Y-116406885D01*
X140564869Y-116070376D01*
X144416942Y-116070376D01*
X144442561Y-116680500D01*
X144626757Y-117125188D01*
X144883241Y-117211594D01*
X145783795Y-116311040D01*
X146143005Y-116311040D01*
X147043559Y-117211594D01*
X147300043Y-117125188D01*
X147509858Y-116551704D01*
X147484239Y-115941580D01*
X147300043Y-115496892D01*
X147043559Y-115410486D01*
X146143005Y-116311040D01*
X145783795Y-116311040D01*
X144883241Y-115410486D01*
X144626757Y-115496892D01*
X144416942Y-116070376D01*
X140564869Y-116070376D01*
X140857036Y-115778719D01*
X141084517Y-115230881D01*
X145062846Y-115230881D01*
X145963400Y-116131435D01*
X146863954Y-115230881D01*
X146777548Y-114974397D01*
X146204064Y-114764582D01*
X145593940Y-114790201D01*
X145149252Y-114974397D01*
X145062846Y-115230881D01*
X141084517Y-115230881D01*
X141198011Y-114957559D01*
X141198787Y-114068421D01*
X140859245Y-113246668D01*
X140699850Y-113086994D01*
X154755566Y-113086994D01*
X155003878Y-113687955D01*
X155463267Y-114148146D01*
X156063793Y-114397506D01*
X156714034Y-114398074D01*
X157314995Y-114149762D01*
X157775186Y-113690373D01*
X158024546Y-113089847D01*
X158025062Y-112498882D01*
X164904939Y-112498882D01*
X164928999Y-113148677D01*
X165131375Y-113637258D01*
X165398177Y-113735857D01*
X166370735Y-112763300D01*
X165398177Y-111790743D01*
X165131375Y-111889342D01*
X164904939Y-112498882D01*
X158025062Y-112498882D01*
X158025114Y-112439606D01*
X157776802Y-111838645D01*
X157549691Y-111611137D01*
X165577783Y-111611137D01*
X166550340Y-112583695D01*
X166564482Y-112569552D01*
X166744088Y-112749158D01*
X166729945Y-112763300D01*
X167702503Y-113735857D01*
X167969305Y-113637258D01*
X167987808Y-113587449D01*
X168191812Y-113723760D01*
X168726421Y-113830100D01*
X168781159Y-113830100D01*
X169315768Y-113723760D01*
X169768987Y-113420928D01*
X170071819Y-112967709D01*
X170178159Y-112433100D01*
X170162349Y-112353619D01*
X173990752Y-108525216D01*
X174240993Y-108899728D01*
X174694212Y-109202560D01*
X175228821Y-109308900D01*
X175283559Y-109308900D01*
X175339724Y-109297728D01*
X175101534Y-109871353D01*
X175100966Y-110521594D01*
X175316242Y-111042601D01*
X175283559Y-111036100D01*
X175228821Y-111036100D01*
X174694212Y-111142440D01*
X174240993Y-111445272D01*
X173938161Y-111898491D01*
X173831821Y-112433100D01*
X173938161Y-112967709D01*
X174240993Y-113420928D01*
X174694212Y-113723760D01*
X175228821Y-113830100D01*
X175283559Y-113830100D01*
X175818168Y-113723760D01*
X176271387Y-113420928D01*
X176574219Y-112967709D01*
X176680559Y-112433100D01*
X176574219Y-111898491D01*
X176529932Y-111832211D01*
X177059434Y-111832674D01*
X177660395Y-111584362D01*
X177895103Y-111350063D01*
X185923183Y-111350063D01*
X186021782Y-111616865D01*
X186631322Y-111843301D01*
X187281117Y-111819241D01*
X187769698Y-111616865D01*
X187868297Y-111350063D01*
X186895740Y-110377505D01*
X185923183Y-111350063D01*
X177895103Y-111350063D01*
X178120586Y-111124973D01*
X178369946Y-110524447D01*
X178370462Y-109933482D01*
X185250339Y-109933482D01*
X185274399Y-110583277D01*
X185476775Y-111071858D01*
X185743577Y-111170457D01*
X186716135Y-110197900D01*
X187075345Y-110197900D01*
X188047903Y-111170457D01*
X188314705Y-111071858D01*
X188541141Y-110462318D01*
X188517081Y-109812523D01*
X188314705Y-109323942D01*
X188047903Y-109225343D01*
X187075345Y-110197900D01*
X186716135Y-110197900D01*
X185743577Y-109225343D01*
X185476775Y-109323942D01*
X185250339Y-109933482D01*
X178370462Y-109933482D01*
X178370514Y-109874206D01*
X178122202Y-109273245D01*
X177895091Y-109045737D01*
X185923183Y-109045737D01*
X186895740Y-110018295D01*
X187868297Y-109045737D01*
X187769698Y-108778935D01*
X187160158Y-108552499D01*
X186510363Y-108576559D01*
X186021782Y-108778935D01*
X185923183Y-109045737D01*
X177895091Y-109045737D01*
X177662813Y-108813054D01*
X177062287Y-108563694D01*
X176496249Y-108563200D01*
X176574219Y-108446509D01*
X176680559Y-107911900D01*
X176617871Y-107596741D01*
X189062118Y-107596741D01*
X189274350Y-108110383D01*
X189666990Y-108503709D01*
X189874872Y-108590029D01*
X189669057Y-108675070D01*
X189275731Y-109067710D01*
X189062603Y-109580980D01*
X189062118Y-110136741D01*
X189274350Y-110650383D01*
X189666990Y-111043709D01*
X189874872Y-111130029D01*
X189669057Y-111215070D01*
X189275731Y-111607710D01*
X189062603Y-112120980D01*
X189062118Y-112676741D01*
X189274350Y-113190383D01*
X189666990Y-113583709D01*
X190180260Y-113796837D01*
X190736021Y-113797322D01*
X191249663Y-113585090D01*
X191642989Y-113192450D01*
X191729309Y-112984568D01*
X191814350Y-113190383D01*
X192206990Y-113583709D01*
X192720260Y-113796837D01*
X193276021Y-113797322D01*
X193789663Y-113585090D01*
X194182989Y-113192450D01*
X194396117Y-112679180D01*
X194396602Y-112123419D01*
X194184370Y-111609777D01*
X193791730Y-111216451D01*
X193583848Y-111130131D01*
X193789663Y-111045090D01*
X194182989Y-110652450D01*
X194396117Y-110139180D01*
X194396602Y-109583419D01*
X194184370Y-109069777D01*
X193791730Y-108676451D01*
X193583848Y-108590131D01*
X193789663Y-108505090D01*
X194182989Y-108112450D01*
X194396117Y-107599180D01*
X194396602Y-107043419D01*
X194184370Y-106529777D01*
X193791730Y-106136451D01*
X193278460Y-105923323D01*
X192722699Y-105922838D01*
X192209057Y-106135070D01*
X191815731Y-106527710D01*
X191729411Y-106735592D01*
X191644370Y-106529777D01*
X191251730Y-106136451D01*
X190738460Y-105923323D01*
X190182699Y-105922838D01*
X189669057Y-106135070D01*
X189275731Y-106527710D01*
X189062603Y-107040980D01*
X189062118Y-107596741D01*
X176617871Y-107596741D01*
X176574219Y-107377291D01*
X176271387Y-106924072D01*
X175818168Y-106621240D01*
X175283559Y-106514900D01*
X175228821Y-106514900D01*
X174773589Y-106605451D01*
X174773589Y-104934409D01*
X179793159Y-99914839D01*
X179872640Y-99930649D01*
X180407249Y-99824309D01*
X180860468Y-99521477D01*
X181142640Y-99099178D01*
X181424812Y-99521477D01*
X181878031Y-99824309D01*
X182412640Y-99930649D01*
X182947249Y-99824309D01*
X183400468Y-99521477D01*
X183702927Y-99068816D01*
X183832782Y-99341479D01*
X184237643Y-99706454D01*
X184609570Y-99860500D01*
X184825640Y-99738000D01*
X184825640Y-98633280D01*
X185079640Y-98633280D01*
X185079640Y-99738000D01*
X185295710Y-99860500D01*
X185667637Y-99706454D01*
X186072498Y-99341479D01*
X186306871Y-98849352D01*
X186185116Y-98633280D01*
X185079640Y-98633280D01*
X184825640Y-98633280D01*
X184805640Y-98633280D01*
X184805640Y-98379280D01*
X184825640Y-98379280D01*
X184825640Y-97274560D01*
X185079640Y-97274560D01*
X185079640Y-98379280D01*
X186185116Y-98379280D01*
X186306871Y-98163208D01*
X186072498Y-97671081D01*
X185667637Y-97306106D01*
X185295710Y-97152060D01*
X185079640Y-97274560D01*
X184825640Y-97274560D01*
X184609570Y-97152060D01*
X184237643Y-97306106D01*
X183832782Y-97671081D01*
X183702927Y-97943744D01*
X183400468Y-97491083D01*
X182947249Y-97188251D01*
X182412640Y-97081911D01*
X181878031Y-97188251D01*
X181424812Y-97491083D01*
X181142640Y-97913382D01*
X180860468Y-97491083D01*
X180407249Y-97188251D01*
X179872640Y-97081911D01*
X179338031Y-97188251D01*
X178884812Y-97491083D01*
X178581980Y-97944302D01*
X178475640Y-98478911D01*
X178475640Y-98533649D01*
X178482368Y-98567474D01*
X173169250Y-103880592D01*
X172965527Y-104185485D01*
X172893989Y-104545131D01*
X172893989Y-106963823D01*
X168814984Y-111042828D01*
X168781159Y-111036100D01*
X168726421Y-111036100D01*
X168191812Y-111142440D01*
X167738593Y-111445272D01*
X167677311Y-111536987D01*
X167637178Y-111496854D01*
X167522896Y-111611136D01*
X167424298Y-111344335D01*
X166814758Y-111117899D01*
X166164963Y-111141959D01*
X165676382Y-111344335D01*
X165577783Y-111611137D01*
X157549691Y-111611137D01*
X157317413Y-111378454D01*
X156716887Y-111129094D01*
X156066646Y-111128526D01*
X155465685Y-111376838D01*
X155005494Y-111836227D01*
X154756134Y-112436753D01*
X154755566Y-113086994D01*
X140699850Y-113086994D01*
X140240693Y-112627035D01*
X140806236Y-112062479D01*
X141147211Y-111241319D01*
X141147987Y-110352181D01*
X140808445Y-109530428D01*
X140180279Y-108901164D01*
X139359119Y-108560189D01*
X138469981Y-108559413D01*
X137648228Y-108898955D01*
X137018964Y-109527121D01*
X136677989Y-110348281D01*
X136677213Y-111237419D01*
X127507200Y-111237419D01*
X127507200Y-106798791D01*
X144377335Y-106798791D01*
X144610532Y-107363171D01*
X144991782Y-107745088D01*
X144612049Y-108124157D01*
X144377867Y-108688130D01*
X144377335Y-109298791D01*
X144610532Y-109863171D01*
X145041957Y-110295351D01*
X145605930Y-110529533D01*
X146216591Y-110530065D01*
X146780971Y-110296868D01*
X147213151Y-109865443D01*
X147447333Y-109301470D01*
X147447865Y-108690809D01*
X147214668Y-108126429D01*
X147000514Y-107911900D01*
X167329421Y-107911900D01*
X167435761Y-108446509D01*
X167738593Y-108899728D01*
X168191812Y-109202560D01*
X168726421Y-109308900D01*
X168781159Y-109308900D01*
X169315768Y-109202560D01*
X169768987Y-108899728D01*
X170071819Y-108446509D01*
X170178159Y-107911900D01*
X170071819Y-107377291D01*
X169768987Y-106924072D01*
X169315768Y-106621240D01*
X168781159Y-106514900D01*
X168726421Y-106514900D01*
X168191812Y-106621240D01*
X167738593Y-106924072D01*
X167435761Y-107377291D01*
X167329421Y-107911900D01*
X147000514Y-107911900D01*
X146833418Y-107744512D01*
X147213151Y-107365443D01*
X147447333Y-106801470D01*
X147447865Y-106190809D01*
X147302197Y-105838263D01*
X153154643Y-105838263D01*
X153253242Y-106105065D01*
X153862782Y-106331501D01*
X154512577Y-106307441D01*
X155001158Y-106105065D01*
X155099757Y-105838263D01*
X154127200Y-104865705D01*
X153154643Y-105838263D01*
X147302197Y-105838263D01*
X147214668Y-105626429D01*
X146783243Y-105194249D01*
X146774228Y-105190506D01*
X146813154Y-105074959D01*
X145912600Y-104174405D01*
X145012046Y-105074959D01*
X145050807Y-105190014D01*
X145044229Y-105192732D01*
X144612049Y-105624157D01*
X144377867Y-106188130D01*
X144377335Y-106798791D01*
X127507200Y-106798791D01*
X127507200Y-102637419D01*
X136677213Y-102637419D01*
X137016755Y-103459172D01*
X137644921Y-104088436D01*
X138466081Y-104429411D01*
X139355219Y-104430187D01*
X140176972Y-104090645D01*
X140514069Y-103754136D01*
X144366142Y-103754136D01*
X144391761Y-104364260D01*
X144575957Y-104808948D01*
X144832441Y-104895354D01*
X145732995Y-103994800D01*
X146092205Y-103994800D01*
X146992759Y-104895354D01*
X147249243Y-104808948D01*
X147390928Y-104421682D01*
X152481799Y-104421682D01*
X152505859Y-105071477D01*
X152708235Y-105560058D01*
X152975037Y-105658657D01*
X153947595Y-104686100D01*
X154306805Y-104686100D01*
X155279363Y-105658657D01*
X155546165Y-105560058D01*
X155772601Y-104950518D01*
X155748541Y-104300723D01*
X155546165Y-103812142D01*
X155279363Y-103713543D01*
X154306805Y-104686100D01*
X153947595Y-104686100D01*
X152975037Y-103713543D01*
X152708235Y-103812142D01*
X152481799Y-104421682D01*
X147390928Y-104421682D01*
X147459058Y-104235464D01*
X147433439Y-103625340D01*
X147288754Y-103276038D01*
X153154643Y-103276038D01*
X153202297Y-103404988D01*
X153154643Y-103533937D01*
X154127200Y-104506495D01*
X155099757Y-103533937D01*
X155052103Y-103404988D01*
X155099757Y-103276038D01*
X154127200Y-102303480D01*
X153154643Y-103276038D01*
X147288754Y-103276038D01*
X147249243Y-103180652D01*
X146992759Y-103094246D01*
X146092205Y-103994800D01*
X145732995Y-103994800D01*
X144832441Y-103094246D01*
X144575957Y-103180652D01*
X144366142Y-103754136D01*
X140514069Y-103754136D01*
X140806236Y-103462479D01*
X141033717Y-102914641D01*
X145012046Y-102914641D01*
X145912600Y-103815195D01*
X146813154Y-102914641D01*
X146726748Y-102658157D01*
X146153264Y-102448342D01*
X145543140Y-102473961D01*
X145098452Y-102658157D01*
X145012046Y-102914641D01*
X141033717Y-102914641D01*
X141147211Y-102641319D01*
X141147893Y-101859457D01*
X152481799Y-101859457D01*
X152505859Y-102509252D01*
X152708235Y-102997833D01*
X152975037Y-103096432D01*
X153947595Y-102123875D01*
X154306805Y-102123875D01*
X155279363Y-103096432D01*
X155546165Y-102997833D01*
X155772601Y-102388293D01*
X155748541Y-101738498D01*
X155546165Y-101249917D01*
X155279363Y-101151318D01*
X154306805Y-102123875D01*
X153947595Y-102123875D01*
X152975037Y-101151318D01*
X152708235Y-101249917D01*
X152481799Y-101859457D01*
X141147893Y-101859457D01*
X141147987Y-101752181D01*
X140808445Y-100930428D01*
X140484447Y-100605863D01*
X153154643Y-100605863D01*
X153222244Y-100788788D01*
X153154643Y-100971712D01*
X154127200Y-101944270D01*
X155099757Y-100971712D01*
X155032156Y-100788788D01*
X155099757Y-100605863D01*
X154127200Y-99633305D01*
X153154643Y-100605863D01*
X140484447Y-100605863D01*
X140180279Y-100301164D01*
X139359119Y-99960189D01*
X138469981Y-99959413D01*
X137648228Y-100298955D01*
X137018964Y-100927121D01*
X136677989Y-101748281D01*
X136677213Y-102637419D01*
X127507200Y-102637419D01*
X127507200Y-99189282D01*
X152481799Y-99189282D01*
X152505859Y-99839077D01*
X152708235Y-100327658D01*
X152975037Y-100426257D01*
X153947595Y-99453700D01*
X154306805Y-99453700D01*
X155279363Y-100426257D01*
X155546165Y-100327658D01*
X155750580Y-99777394D01*
X162652426Y-99777394D01*
X162900738Y-100378355D01*
X163310767Y-100789100D01*
X162902354Y-101196802D01*
X162652994Y-101797328D01*
X162652426Y-102447569D01*
X162900738Y-103048530D01*
X163256793Y-103405206D01*
X162902354Y-103759027D01*
X162652994Y-104359553D01*
X162652426Y-105009794D01*
X162900738Y-105610755D01*
X163360127Y-106070946D01*
X163960653Y-106320306D01*
X164610894Y-106320874D01*
X165211855Y-106072562D01*
X165672046Y-105613173D01*
X165921406Y-105012647D01*
X165921974Y-104362406D01*
X165673662Y-103761445D01*
X165317607Y-103404769D01*
X165672046Y-103050948D01*
X165921406Y-102450422D01*
X165921974Y-101800181D01*
X165673662Y-101199220D01*
X165263633Y-100788475D01*
X165672046Y-100380773D01*
X165921406Y-99780247D01*
X165921974Y-99130006D01*
X165673662Y-98529045D01*
X165214273Y-98068854D01*
X164613747Y-97819494D01*
X163963506Y-97818926D01*
X163362545Y-98067238D01*
X162902354Y-98526627D01*
X162652994Y-99127153D01*
X162652426Y-99777394D01*
X155750580Y-99777394D01*
X155772601Y-99718118D01*
X155748541Y-99068323D01*
X155546165Y-98579742D01*
X155279363Y-98481143D01*
X154306805Y-99453700D01*
X153947595Y-99453700D01*
X152975037Y-98481143D01*
X152708235Y-98579742D01*
X152481799Y-99189282D01*
X127507200Y-99189282D01*
X127507200Y-98301537D01*
X153154643Y-98301537D01*
X154127200Y-99274095D01*
X155099757Y-98301537D01*
X155001158Y-98034735D01*
X154391618Y-97808299D01*
X153741823Y-97832359D01*
X153253242Y-98034735D01*
X153154643Y-98301537D01*
X127507200Y-98301537D01*
X127507200Y-95136322D01*
X140862952Y-95136322D01*
X141058206Y-95608873D01*
X141330300Y-95881442D01*
X141059476Y-96151794D01*
X140863398Y-96624002D01*
X140862952Y-97135302D01*
X141058206Y-97607853D01*
X141419434Y-97969712D01*
X141891642Y-98165790D01*
X142402942Y-98166236D01*
X142875493Y-97970982D01*
X143237352Y-97609754D01*
X143433430Y-97137546D01*
X143433876Y-96626246D01*
X143238622Y-96153695D01*
X142966528Y-95881126D01*
X143237352Y-95610774D01*
X143433430Y-95138566D01*
X143433876Y-94627266D01*
X143238622Y-94154715D01*
X143181961Y-94097954D01*
X143851346Y-94097954D01*
X144099658Y-94698915D01*
X144489050Y-95088987D01*
X144101274Y-95476087D01*
X143851914Y-96076613D01*
X143851346Y-96726854D01*
X144099658Y-97327815D01*
X144559047Y-97788006D01*
X145159573Y-98037366D01*
X145809814Y-98037934D01*
X146410775Y-97789622D01*
X146870966Y-97330233D01*
X147120326Y-96729707D01*
X147120894Y-96079466D01*
X146872582Y-95478505D01*
X146483190Y-95088433D01*
X146870966Y-94701333D01*
X147120326Y-94100807D01*
X147120328Y-94097954D01*
X154011346Y-94097954D01*
X154259658Y-94698915D01*
X154649050Y-95088987D01*
X154261274Y-95476087D01*
X154011914Y-96076613D01*
X154011346Y-96726854D01*
X154259658Y-97327815D01*
X154719047Y-97788006D01*
X155319573Y-98037366D01*
X155969814Y-98037934D01*
X156570775Y-97789622D01*
X157030966Y-97330233D01*
X157280326Y-96729707D01*
X157280894Y-96079466D01*
X157032582Y-95478505D01*
X156643190Y-95088433D01*
X157030966Y-94701333D01*
X157227915Y-94227025D01*
X165658879Y-94227025D01*
X165658879Y-94275791D01*
X165753619Y-94752079D01*
X166023414Y-95155856D01*
X166427191Y-95425651D01*
X166903479Y-95520391D01*
X167379767Y-95425651D01*
X167783544Y-95155856D01*
X168053339Y-94752079D01*
X168148079Y-94275791D01*
X168148079Y-94227025D01*
X168107199Y-94021506D01*
X170738879Y-94021506D01*
X170738879Y-94070272D01*
X170833619Y-94546560D01*
X171103414Y-94950337D01*
X171507191Y-95220132D01*
X171983479Y-95314872D01*
X172459767Y-95220132D01*
X172863544Y-94950337D01*
X173133339Y-94546560D01*
X173214098Y-94140554D01*
X175818879Y-94140554D01*
X175818879Y-94189320D01*
X175913619Y-94665608D01*
X176183414Y-95069385D01*
X176587191Y-95339180D01*
X177063479Y-95433920D01*
X177539767Y-95339180D01*
X177943544Y-95069385D01*
X178213339Y-94665608D01*
X178308079Y-94189320D01*
X178308079Y-94140554D01*
X178213339Y-93664266D01*
X177943544Y-93260489D01*
X177539767Y-92990694D01*
X177063479Y-92895954D01*
X176587191Y-92990694D01*
X176183414Y-93260489D01*
X175913619Y-93664266D01*
X175818879Y-94140554D01*
X173214098Y-94140554D01*
X173228079Y-94070272D01*
X173228079Y-94021506D01*
X173133339Y-93545218D01*
X172863544Y-93141441D01*
X172459767Y-92871646D01*
X171983479Y-92776906D01*
X171507191Y-92871646D01*
X171103414Y-93141441D01*
X170833619Y-93545218D01*
X170738879Y-94021506D01*
X168107199Y-94021506D01*
X168053339Y-93750737D01*
X167783544Y-93346960D01*
X167379767Y-93077165D01*
X166903479Y-92982425D01*
X166427191Y-93077165D01*
X166023414Y-93346960D01*
X165753619Y-93750737D01*
X165658879Y-94227025D01*
X157227915Y-94227025D01*
X157280326Y-94100807D01*
X157280894Y-93450566D01*
X157032582Y-92849605D01*
X156655835Y-92472200D01*
X157094466Y-92034333D01*
X157238680Y-91687025D01*
X165658879Y-91687025D01*
X165658879Y-91735791D01*
X165753619Y-92212079D01*
X166023414Y-92615856D01*
X166427191Y-92885651D01*
X166903479Y-92980391D01*
X167379767Y-92885651D01*
X167783544Y-92615856D01*
X168053339Y-92212079D01*
X168148079Y-91735791D01*
X168148079Y-91687025D01*
X168107199Y-91481506D01*
X170738879Y-91481506D01*
X170738879Y-91530272D01*
X170833619Y-92006560D01*
X171103414Y-92410337D01*
X171507191Y-92680132D01*
X171983479Y-92774872D01*
X172459767Y-92680132D01*
X172863544Y-92410337D01*
X173133339Y-92006560D01*
X173214098Y-91600554D01*
X175818879Y-91600554D01*
X175818879Y-91649320D01*
X175913619Y-92125608D01*
X176183414Y-92529385D01*
X176587191Y-92799180D01*
X177063479Y-92893920D01*
X177539767Y-92799180D01*
X177943544Y-92529385D01*
X178213339Y-92125608D01*
X178308079Y-91649320D01*
X178308079Y-91600554D01*
X178213339Y-91124266D01*
X177943544Y-90720489D01*
X177539767Y-90450694D01*
X177063479Y-90355954D01*
X176587191Y-90450694D01*
X176183414Y-90720489D01*
X175913619Y-91124266D01*
X175818879Y-91600554D01*
X173214098Y-91600554D01*
X173228079Y-91530272D01*
X173228079Y-91481506D01*
X173133339Y-91005218D01*
X172863544Y-90601441D01*
X172459767Y-90331646D01*
X171983479Y-90236906D01*
X171507191Y-90331646D01*
X171103414Y-90601441D01*
X170833619Y-91005218D01*
X170738879Y-91481506D01*
X168107199Y-91481506D01*
X168053339Y-91210737D01*
X167783544Y-90806960D01*
X167379767Y-90537165D01*
X166903479Y-90442425D01*
X166427191Y-90537165D01*
X166023414Y-90806960D01*
X165753619Y-91210737D01*
X165658879Y-91687025D01*
X157238680Y-91687025D01*
X157343826Y-91433807D01*
X157344394Y-90783566D01*
X157096082Y-90182605D01*
X156636693Y-89722414D01*
X156036167Y-89473054D01*
X155385926Y-89472486D01*
X154784965Y-89720798D01*
X154324774Y-90180187D01*
X154075414Y-90780713D01*
X154074846Y-91430954D01*
X154323158Y-92031915D01*
X154699905Y-92409320D01*
X154261274Y-92847187D01*
X154011914Y-93447713D01*
X154011346Y-94097954D01*
X147120328Y-94097954D01*
X147120894Y-93450566D01*
X146872582Y-92849605D01*
X146495835Y-92472200D01*
X146934466Y-92034333D01*
X147183826Y-91433807D01*
X147184394Y-90783566D01*
X146936082Y-90182605D01*
X146476693Y-89722414D01*
X145876167Y-89473054D01*
X145225926Y-89472486D01*
X144624965Y-89720798D01*
X144164774Y-90180187D01*
X143915414Y-90780713D01*
X143914846Y-91430954D01*
X144163158Y-92031915D01*
X144539905Y-92409320D01*
X144101274Y-92847187D01*
X143851914Y-93447713D01*
X143851346Y-94097954D01*
X143181961Y-94097954D01*
X143154494Y-94070440D01*
X143158353Y-94068841D01*
X143336981Y-93890212D01*
X143433654Y-93656823D01*
X143433654Y-93166024D01*
X143274904Y-93007274D01*
X142275414Y-93007274D01*
X142275414Y-93027274D01*
X142021414Y-93027274D01*
X142021414Y-93007274D01*
X141021924Y-93007274D01*
X140863174Y-93166024D01*
X140863174Y-93656823D01*
X140959847Y-93890212D01*
X141138475Y-94068841D01*
X141142094Y-94070340D01*
X141059476Y-94152814D01*
X140863398Y-94625022D01*
X140862952Y-95136322D01*
X127507200Y-95136322D01*
X127507200Y-91135822D01*
X140862952Y-91135822D01*
X141058206Y-91608373D01*
X141140541Y-91690851D01*
X141138475Y-91691707D01*
X140959847Y-91870336D01*
X140863174Y-92103725D01*
X140863174Y-92594524D01*
X141021924Y-92753274D01*
X142021414Y-92753274D01*
X142021414Y-92733274D01*
X142275414Y-92733274D01*
X142275414Y-92753274D01*
X143274904Y-92753274D01*
X143433654Y-92594524D01*
X143433654Y-92103725D01*
X143336981Y-91870336D01*
X143158353Y-91691707D01*
X143156532Y-91690953D01*
X143237352Y-91610274D01*
X143433430Y-91138066D01*
X143433876Y-90626766D01*
X143238622Y-90154215D01*
X142877394Y-89792356D01*
X142405186Y-89596278D01*
X141893886Y-89595832D01*
X141421335Y-89791086D01*
X141059476Y-90152314D01*
X140863398Y-90624522D01*
X140862952Y-91135822D01*
X127507200Y-91135822D01*
X127507200Y-89691852D01*
X127789833Y-89691852D01*
X127888496Y-89958707D01*
X128498221Y-90185228D01*
X129148220Y-90161176D01*
X129637024Y-89958707D01*
X129735687Y-89691852D01*
X128762760Y-88718925D01*
X127789833Y-89691852D01*
X127507200Y-89691852D01*
X127507200Y-89474155D01*
X127610228Y-89512247D01*
X128583155Y-88539320D01*
X128942365Y-88539320D01*
X129915292Y-89512247D01*
X130182147Y-89413584D01*
X130386653Y-88863115D01*
X134727156Y-88863115D01*
X134975546Y-89464263D01*
X135435077Y-89924598D01*
X136035792Y-90174036D01*
X136686235Y-90174604D01*
X137287383Y-89926214D01*
X137747718Y-89466683D01*
X137997156Y-88865968D01*
X137997724Y-88215525D01*
X137749334Y-87614377D01*
X137289803Y-87154042D01*
X136689088Y-86904604D01*
X136038645Y-86904036D01*
X135437497Y-87152426D01*
X134977162Y-87611957D01*
X134727724Y-88212672D01*
X134727156Y-88863115D01*
X130386653Y-88863115D01*
X130408668Y-88803859D01*
X130384616Y-88153860D01*
X130182147Y-87665056D01*
X129915292Y-87566393D01*
X128942365Y-88539320D01*
X128583155Y-88539320D01*
X127610228Y-87566393D01*
X127507200Y-87604485D01*
X127507200Y-87386788D01*
X127789833Y-87386788D01*
X128762760Y-88359715D01*
X129735687Y-87386788D01*
X129637024Y-87119933D01*
X129027299Y-86893412D01*
X128377300Y-86917464D01*
X127888496Y-87119933D01*
X127789833Y-87386788D01*
X127507200Y-87386788D01*
X127507200Y-84962200D01*
X141311472Y-84962200D01*
X140942060Y-85114838D01*
M02*
